<?xml version="1.0" encoding="UTF-8"?>
<svg id="_レイヤー_1" data-name="レイヤー_1" xmlns="http://www.w3.org/2000/svg" version="1.1" viewBox="0 0 1280 811.01">
  <!-- Generator: Adobe Illustrator 29.8.1, SVG Export Plug-In . SVG Version: 2.1.1 Build 2)  -->
  <defs>
    <style>
      .st0 {
        fill: none;
      }

      .st1 {
        fill: #fff;
        stroke: #000;
        stroke-miterlimit: 10;
        stroke-width: 2px;
      }

      .st2 {
        fill: #a6b772;
      }
    </style>
  </defs>
  <g>
    <path d="M124.14,137.27v57.4c-.1,1.34-.96,1.63-5.09,1.63-1.15,0-1.63-.29-1.63-1.15.48-12.58.58-26.21.58-62.4,0-10.56-.1-16.7-.29-24.77,3.36,1.54,4.42,2.11,7.58,4.13h18.91c1.54-2.02,2.02-2.59,3.46-4.61,2.5,1.73,3.26,2.21,5.57,4.03.67.58.86.96.86,1.34,0,.67-.67,1.15-3.07,2.5v4.8c0,3.46,0,6.14.29,20.35,0,.77-.19.96-.96,1.15-.48.19-2.59.38-3.74.38s-1.63-.38-1.63-1.15v-3.65h-20.83ZM144.97,114.32h-20.83v9.02h20.83v-9.02ZM144.97,125.55h-20.83v9.5h20.83v-9.5ZM169.64,165.1h5.28c1.92-2.5,2.59-3.17,4.51-5.47,3.07,2.78,4.13,3.74,7.3,6.72.1.19.19.38.19.58s-.29.38-.58.38h-16.7v4.9c0,7.3,0,9.89.29,18.81v.29c0,1.06-1.44,1.54-4.7,1.54-1.06,0-1.63-.38-1.63-1.15v-.29c.1-2.78.1-9.12.19-18.81v-5.28h-13.53c-.96,7.87-2.4,11.9-5.86,16.32-3.84,4.8-7.97,7.78-14.97,10.75l-.96-1.15c6.72-4.22,10.75-8.35,13.54-14.11,1.54-3.17,2.02-5.28,2.59-11.81h-6.62c-3.17,0-5.57.19-7.78.58l-.86-3.55c2.5.58,4.7.77,8.64.77h6.82c.19-3.36.29-6.34.29-9.12,0-2.21,0-2.69-.1-4.9h-5.47c-3.36,0-4.61.1-7.1.48l-.86-3.55c2.59.67,4.51.86,7.97.86h32.45c2.02-2.4,2.59-3.17,4.42-5.57,3.36,2.78,4.42,3.74,7.58,6.62.19.29.29.48.29.67s-.38.48-.67.48h-13.92v14.02ZM150.83,151.09v4.42c0,3.46-.1,5.66-.38,9.6h13.34v-14.02h-12.96ZM169.64,137.27v3.17c-.1.77-.29,1.06-.86,1.25-.67.1-2.5.29-3.94.29-1.25,0-1.63-.29-1.63-1.25.29-6.91.29-8.83.29-16.22,0-9.89-.1-12.19-.38-16.51,3.17,1.73,4.13,2.21,7.01,4.13h19.2c1.73-2.02,2.21-2.69,3.94-4.7,2.4,1.73,3.07,2.21,5.57,3.84.86.67,1.25,1.06,1.25,1.44,0,.58-.48,1.06-2.69,2.59v44.64l.19,28.8c-.19,2.5-.86,3.65-3.36,5.09-1.82,1.06-3.74,1.63-7.97,2.3-.48-4.42-2.02-5.28-11.33-6.82v-1.44c9.5.29,9.7.29,11.42.29h3.17c1.06-.1,1.06-.19,1.06-2.11v-48.76h-20.93ZM190.57,114.32h-20.93v9.02h20.93v-9.02ZM190.57,125.55h-20.93v9.5h20.93v-9.5Z"/>
    <path d="M209.1,147.63c2.3.48,4.42.77,6.53.77h7.2c1.34-1.82,1.82-2.4,3.36-4.13,2.5,1.63,3.26,2.21,5.57,4.03.67.58.96.96.96,1.25,0,.58-.67,1.34-2.78,2.78v23.42c1.54,3.26,2.88,4.7,6.05,6.53,4.99,2.78,9.98,3.74,19.49,3.74,18.05,0,33.98-.58,43.87-1.54v1.54c-3.36.67-4.8,2.21-5.76,6.34-3.46,0-6.05,0-17.18.19-4.03.1-7.68.1-10.94.1-17.09,0-22.27-.86-28.22-4.9-4.8-3.17-7.39-6.24-10.08-12-3.26,4.99-7.97,10.66-11.52,14.01.1.77.19,1.34.19,1.73.1.38.1.86.1,1.15,0,.86-.48,1.44-1.25,1.44s-2.11-2.11-6.05-9.6c6.91-2.98,11.81-5.86,14.88-8.74v-25.15h-7.87c-2.02,0-3.17.1-5.57.67l-.96-3.65ZM212.36,111.06c3.65,2.21,6.53,4.32,10.85,7.78,3.36,2.78,4.42,4.42,4.42,7.1,0,3.36-1.73,6.91-3.26,6.91-1.25,0-2.02-1.06-3.07-4.03-2.11-5.95-5.28-11.14-10.18-16.8l1.25-.96ZM286.28,113.27c1.63-2.3,2.11-2.98,3.94-5.18,3.84,2.78,4.99,3.65,8.45,6.43.38.38.58.58.58.86s-.19.48-.48.58c-.19.1-.77.29-1.73.48-1.34.19-1.63.29-3.07.67-2.5,2.5-3.26,3.17-6.34,5.76,1.54,1.15,2.3,1.82,4.42,3.55.48.48.67.86.67,1.15,0,.38-.48.67-1.06.67h-23.23v7.87h13.63c1.34-1.82,1.82-2.3,3.36-3.94,2.59,1.73,3.46,2.21,5.86,3.94.58.58.86.86.86,1.06,0,.58-.96,1.34-3.17,2.69,0,12.57,0,14.3.29,23.42-.29.77-.86.96-2.88,1.06-.77,0-1.34,0-1.82.1h-.29c-.96,0-1.34-.29-1.44-1.15v-1.73h-14.21v9.22h15.36c2.21-2.3,2.98-2.98,5.09-5.18,3.46,2.4,4.51,3.17,7.78,5.86.38.38.58.77.58.96,0,.38-.48.58-1.44.58h-27.36c.1,1.06.1,1.92.1,2.4,0,2.98,0,3.55.19,6.62v.19c0,.96-1.44,1.44-4.13,1.44-1.73,0-2.21-.29-2.3-1.25q.1-7.3.1-9.41h-19.2c-3.55,0-4.7.1-7.68.67l-.86-3.84c2.11.48,6.34.96,8.54.96h19.2v-9.22h-13.92v4.03c-.19.58-.48.77-1.25.86-1.06.19-2.69.29-3.46.29-1.34,0-1.82-.38-1.82-1.44.29-6.53.38-11.14.38-16.22,0-7.01-.1-14.11-.29-16.99,3.17,1.63,4.13,2.11,7.1,4.03h13.25v-7.87h-14.59q-4.32.19-5.47.58l-1.15-3.46c2.11.48,4.42.67,6.62.67h14.59c-.1-4.61-.1-5.47-.48-8.35q9.98,1.06,9.98,1.92c0,.86-.96,1.54-3.65,2.3v4.13h12.38c1.54-2.3,2.02-2.98,3.84-5.28l1.34.86c.67-2.02.96-3.07,1.63-6.14h-43.96c-.58,3.74-1.06,5.47-2.3,7.49-1.63,2.69-3.84,4.61-5.38,4.61-.86,0-1.44-.58-1.92-1.92-.38-.96-.77-2.98-.77-3.74,0-1.44.38-1.82,3.36-3.74,2.78-1.82,5.09-5.86,5.66-10.08h1.34c.19,1.63.19,2.3.19,3.46v1.73h42.43ZM262.57,138.32h-13.92v8.93h13.92v-8.93ZM262.57,149.46h-13.92v9.89h13.92v-9.89ZM282.82,138.32h-14.3v8.93h14.3v-8.93ZM282.82,149.46h-14.3l.1,9.89h14.21v-9.89Z"/>
    <path d="M305.68,177.1c9.41-7.39,17.76-16.8,23.61-26.59,2.98-5.09,3.94-7.39,3.94-9.5,0-1.54-1.34-3.07-4.8-5.47,1.06-.29,1.44-.38,2.11-.38,1.73,0,4.99,1.34,7.87,3.26,3.26,2.21,4.61,3.65,4.61,5.18,0,.77-.29,1.34-1.15,2.11-1.73,1.44-1.92,1.63-4.03,4.42-7.68,10.27-11.33,14.02-20.16,21.02-4.51,3.36-7.3,5.18-11.23,7.01l-.77-1.06ZM357.13,134.96c10.08,6.05,19.2,14.11,25.25,22.37,2.98,4.03,4.03,6.72,4.03,10.27,0,3.94-1.54,7.01-3.65,7.01-1.34,0-1.73-.58-3.17-4.42-4.8-12.96-12.96-24.77-23.52-33.98l1.06-1.25ZM389.09,125.46c0,5.86-4.7,10.56-10.46,10.56s-10.56-4.8-10.56-10.56,4.7-10.46,10.56-10.46,10.46,4.7,10.46,10.46ZM371.24,125.46c0,4.03,3.36,7.39,7.39,7.39s7.29-3.26,7.29-7.39-3.26-7.3-7.29-7.3-7.39,3.26-7.39,7.3Z"/>
    <path d="M407.24,185.07c9.22-5.76,18.72-13.54,25.82-21.02,5.76-6.05,12.67-15.07,18.33-23.9,3.07-4.7,4.7-7.87,6.53-12.38-4.61.29-9.7,1.34-20.25,4.22-4.61,1.25-4.99,1.34-8.06,2.59-.48.19-1.06.29-1.63.29-2.11,0-4.13-1.73-6.24-5.47-1.34-2.21-2.02-4.22-2.02-5.76,0-.58.19-1.06.67-1.92,2.78,4.99,4.8,6.43,9.02,6.43,3.17,0,12.86-1.25,20.16-2.69,5.57-1.06,7.3-1.63,9.02-2.69,1.06-.67,1.54-.86,2.21-.86,2.02,0,7.49,4.9,7.49,6.72,0,.67-.38,1.25-1.25,1.82q-2.02,1.34-5.47,6.53-4.61,6.91-12.09,16.7c13.54,7.1,21.12,12,24.86,16.22,2.59,2.78,3.65,5.57,3.65,9.5,0,3.07-.96,4.99-2.59,4.99-.67,0-1.44-.48-2.21-1.54q-.38-.48-2.3-3.84c-4.8-8.06-13.05-16.61-22.85-23.52-7.78,9.41-14.02,15.26-23.23,21.6-6.05,4.22-10.18,6.53-16.8,9.41l-.77-1.44Z"/>
    <path d="M511.02,191.12c9.12-5.95,12.48-8.45,17.95-13.34,6.91-6.24,11.62-11.33,16.13-17.37-1.54-.29-2.11-.77-4.13-3.84-4.03-6.05-7.2-9.5-13.34-14.3-6.82,6.72-11.9,10.85-17.76,14.3l-1.06-1.44c6.82-5.86,12.58-12,18.53-19.87,6.05-8.06,9.5-14.21,9.5-16.7,0-2.21-1.63-3.74-6.14-5.76.96-.38,1.34-.48,2.11-.48,2.02,0,5.66,1.15,8.54,2.78,2.69,1.44,3.94,2.78,3.94,4.03,0,1.34-.86,2.78-4.51,7.39,1.15.29,1.73.38,2.69.38,2.21,0,5.57-.58,12.77-2.11,4.99-1.06,5.86-1.34,7.58-2.59.48-.29,1.06-.48,1.54-.48,1.25,0,2.88.96,5.38,3.26,1.63,1.54,2.59,2.98,2.59,3.94,0,.67-.38,1.15-1.34,1.92-1.15.96-1.54,1.54-3.17,4.42-9.89,18.43-19.97,31.39-32.45,41.85-8.16,6.72-16.32,11.9-24.57,15.46l-.77-1.44ZM556.81,128.24q-7.78,1.92-8.83,2.3c-1.63.58-2.11.67-2.98.67-1.63,0-3.36-.77-5.76-2.59-3.65,4.9-6.14,7.87-10.18,12.1q7.1,3.07,9.22,4.32c4.22,2.3,6.43,4.42,8.35,7.49.86,1.54,1.06,2.3,1.25,4.32,6.82-9.12,13.15-20.64,16.32-29.95-2.4.19-4.13.58-7.39,1.34Z"/>
    <path d="M646.47,151.95c0,4.9-3.94,8.83-8.73,8.83s-8.83-3.94-8.83-8.83,3.94-8.74,8.83-8.74,8.73,3.94,8.73,8.74Z"/>
    <path d="M713.19,151.86c-.67,8.45-2.5,15.17-5.76,21.02-2.3,4.03-4.42,6.05-6.62,6.05-1.73,0-2.88-2.3-2.88-5.57,0-1.92.48-2.78,2.4-3.84,4.99-2.88,10.08-10.94,11.14-17.85l1.73.19ZM702.83,134.29c3.26,4.03,5.66,5.18,11.23,5.18,2.88,0,8.25-.48,16.51-1.63v-2.21c0-9.02-.19-11.13-1.34-13.05-.96-1.82-2.5-2.78-6.43-4.13.86-.86,1.63-1.15,2.88-1.15,1.92,0,5.76.86,8.35,1.92,3.17,1.34,4.7,2.69,4.7,4.32,0,.96-.19,1.44-1.06,2.98-1.15,2.21-1.44,4.03-1.92,10.46,7.01-.86,15.45-3.26,16.89-4.7.77-.58,1.25-.77,1.73-.77,1.25,0,3.36.58,5.18,1.44,2.4,1.15,3.65,2.3,3.65,3.46,0,1.25-1.15,1.73-4.42,2.11q-4.13.48-12.19,1.63c-5.95.86-9.6,1.34-10.94,1.54-.1,4.99-.1,5.76-.1,8.06,0,11.33.29,18.24,1.06,25.92.1,1.06.1,2.02.1,3.17,0,3.07-.38,4.99-1.63,7.68-1.06,2.5-2.21,3.55-3.84,3.55-1.25,0-2.02-.86-2.78-3.07-.96-2.88-2.3-4.03-10.37-8.93-2.5-1.54-2.59-1.54-4.61-2.88l.48-1.06c6.91,2.3,9.31,2.98,16.03,4.32.38-6.34.48-10.08.67-36.29-4.61.67-12,1.25-15.07,1.25-7.39,0-10.85-2.11-14.01-8.35l1.25-.77ZM749.19,150.22c7.1,4.51,11.81,8.26,14.98,12.1,2.3,2.78,2.98,4.42,2.98,7.1,0,4.03-1.73,7.58-3.65,7.58-1.06,0-1.25-.29-2.88-5.09-2.69-7.97-7.1-15.36-12.38-20.64l.96-1.06ZM753.13,112.21c3.55,2.02,6.14,3.84,8.54,5.95,3.46,3.17,4.8,5.38,4.8,7.68s-1.34,4.03-2.98,4.03q-1.25,0-4.22-6.24c-1.73-3.36-4.8-7.58-7.39-10.08l1.25-1.34ZM763.01,106.64c3.46,1.63,6.24,3.26,9.21,5.57,3.65,2.78,4.9,4.7,4.9,7.39,0,2.3-.96,3.94-2.4,3.94-.86,0-1.44-.48-2.21-1.92-3.36-6.05-5.18-8.45-10.46-13.63l.96-1.34Z"/>
    <path d="M799.02,124.4c9.22,2.3,14.78,4.51,18.53,7.2,2.21,1.54,3.26,3.65,3.26,6.53,0,3.17-1.06,5.38-2.69,5.38-1.06,0-1.54-.48-4.13-3.84-4.7-6.24-8.16-9.41-15.65-14.11l.67-1.15ZM867.27,129.87c-4.8,9.02-10.66,16.61-20.16,25.82-8.83,8.54-14.78,13.34-26.97,21.89-4.51,3.17-4.99,3.55-5.66,4.42-1.54,1.82-2.11,2.3-3.36,2.3-3.94,0-11.23-9.22-11.23-14.11,0-.58.1-.96.48-1.92,1.92,2.88,2.11,3.07,3.46,4.22,1.44,1.34,2.78,2.02,3.84,2.02,1.63,0,4.61-1.25,9.31-4.03,10.75-6.24,14.5-8.93,22.94-15.84,11.81-9.6,17.57-15.46,25.82-25.63l1.54.86Z"/>
    <path d="M901.26,133.71c1.54,1.06,2.98,1.44,5.47,1.44,1.92,0,3.84-.1,6.72-.48q26.21-3.07,28.32-4.03c.96-.38,1.44-.58,1.82-.58.96,0,3.17,1.34,5.57,3.55,2.3,2.11,3.46,3.55,3.46,4.61,0,.67-.29,1.06-.96,1.73-1.06,1.06-1.54,2.21-2.4,5.95-.48,2.21-1.44,6.91-4.42,22.75l.77.77c2.78,2.3,3.36,3.17,3.36,4.61,0,.86-.77,1.44-2.21,1.44q-.38,0-2.4-.29c-2.78-.38-5.38-.58-8.35-.58-11.13,0-25.34,2.21-30.91,4.8-.58.29-1.44.48-1.92.48-3.17,0-8.93-7.2-8.93-11.23,0-.48.1-.86.48-1.73,3.07,4.32,5.47,5.86,9.02,5.86.58,0,6.72-.58,18.53-1.73,8.35-.86,9.5-.86,16.42-1.25.96-4.7,1.54-8.64,2.59-17.66.48-3.94,1.34-13.25,1.34-14.5,0-1.34-.67-1.73-2.69-1.73-1.34,0-9.79.77-12.86,1.15-6.82.86-13.15,2.3-19.78,4.51-.58.19-1.15.29-1.73.29-2.02,0-4.13-1.73-6.43-5.18-1.44-2.21-2.4-4.42-2.4-5.76,0-.38.1-.86.48-1.73,1.25,2.02,2.4,3.26,4.03,4.51ZM947.53,115.09c3.55,2.02,6.14,3.84,8.54,5.95,3.46,3.17,4.8,5.38,4.8,7.68s-1.34,4.03-2.98,4.03q-1.25,0-4.32-6.24c-1.73-3.36-4.7-7.58-7.3-10.08l1.25-1.34ZM957.32,109.52c3.46,1.63,6.24,3.26,9.22,5.57,3.65,2.78,4.9,4.7,4.9,7.39,0,2.3-.96,3.94-2.4,3.94-.86,0-1.44-.48-2.21-1.92-3.36-6.05-5.18-8.45-10.46-13.63l.96-1.34Z"/>
    <path d="M1057.83,144.27c-5.28,7.39-8.35,10.94-14.3,16.32-8.64,7.87-17.85,14.11-28.99,19.58-5.38,2.78-5.47,2.78-7.2,4.61-.77.86-1.44,1.25-2.21,1.25-1.92,0-6.34-5.66-6.34-8.26q0-.48.48-1.73c.67-2.11.77-4.32.77-14.69,0-21.21-.48-30.53-1.73-34.08-.86-2.4-2.4-3.55-6.62-4.99,1.15-.77,1.82-.96,2.98-.96,2.02,0,4.99.86,7.68,2.3,3.74,2.02,5.66,3.94,5.66,5.86q0,.58-.48,2.02c-.48,1.54-.96,5.09-1.25,9.5-.48,5.86-1.06,23.33-1.06,30.43v4.8c13.82-5.09,22.37-9.5,32.73-16.99,7.29-5.28,13.92-11.04,18.62-16.13l1.25,1.15Z"/>
    <path class="st1" d="M1142.6,127.09c1.25-1.54,2.59-3.07,3.94-4.51,2.69,1.92,3.46,2.5,6.05,4.51.67.58.96.96.96,1.34,0,.67-.77,1.25-3.26,2.69q.1,38.78.48,62.11c0,1.15-.58,1.44-3.74,1.44h-1.54c-1.34,0-1.63-.19-1.82-1.06v-6.72h-50.59v6.72c0,1.44-.58,1.54-5.57,1.54-1.15,0-1.44-.19-1.44-1.06q.38-33.21.38-41.18c0-16.41-.1-24.96-.38-31.01,3.36,2.11,4.42,2.78,7.78,5.18h13.73c3.46-9.22,4.8-14.5,4.9-19.39q11.9,3.46,11.9,4.42c0,.86-.48,1.06-4.7,1.73-3.55,5.57-5.28,7.87-9.5,13.25h32.45ZM1143.66,154.06v-24.77h-50.59v24.77h50.59ZM1093.07,156.27v28.41h50.59v-28.41h-50.59Z"/>
  </g>
  <rect class="st0" x="64.83" y="226.98" width="1167.41" height="506.97"/>
  <g>
    <path d="M205.08,337.12c-.12.51-.3.7-.65.77-.59.13-2.01.26-2.84.26-.59,0-.89-.19-1.12-.77.3-11.39.35-19.01.35-31.49,0-10.75-.06-16.58-.35-23.68,2.37,1.47,3.14,1.92,5.45,3.65h25.82q1.18-1.28,2.67-3.01c1.54,1.28,2.01,1.73,3.49,3.01.41.38.59.64.59.83,0,.45-.35.77-1.9,1.92q0,38.4.36,48.19c-.12.58-.24.77-.53.96-.24.19-1.78.32-3.08.32-.53,0-.71-.19-.89-.77v-4.35h-27.36v4.16ZM232.44,287.33h-27.36v13.31h27.36v-13.31ZM205.08,302.11v13.18h27.36v-13.18h-27.36ZM205.08,316.83v14.66h27.36v-14.66h-27.36Z"/>
    <path d="M263.11,294.11c.83-1.41,1.12-1.86,1.95-3.2,1.6,1.66,2.07,2.18,3.49,3.78.18.19.3.45.3.51,0,.26-.24.38-.71.38h-5.74v6.21c5.09,3.65,6.1,4.67,6.1,6.66,0,1.6-.89,3.65-1.66,3.65-.41,0-.65-.32-.89-1.34-.59-2.43-1.84-5.12-3.55-7.68v18.49c0,1.34,0,9.02.06,16.13-.12.9-.47,1.09-2.07,1.09-.41,0-.77,0-.95.06h-.18c-.47,0-.71-.26-.71-.83q.18-5.31.24-11.52c.06-7.1.12-8.77.24-12.03l.41-11.71c-2.37,9.66-4.5,14.65-9.06,21.63l-.77-.51c4.03-8.58,6.46-16.77,8.47-28.29h-3.02c-1.78,0-2.19.06-3.67.51l-.53-2.62c1.6.51,2.43.64,4.2.64h3.73v-6.78c0-3.07-.06-4.22-.3-7.04,1.3.26,2.31.38,2.96.45,2.84.38,3.38.58,3.38,1.15s-.53.83-2.43,1.41v10.81h.71ZM264.48,334.11c4.44-4.16,7.46-8.06,9.83-12.93,2.67,1.15,4.09,1.73,4.2,1.79.89.38,1.36.77,1.36,1.09,0,.58-.53.7-2.61.7-4.62,4.99-7.11,7.04-12.2,10.05l-.59-.7ZM287.39,326.43c0,.26,0,1.54.06,3.46v3.78c0,.19.06.32.06.38,0,2.56-1.07,3.26-6.1,4.42-.12-1.54-.59-2.24-1.9-3.01-1.01-.51-2.25-.83-5.15-1.28v-1.02c3.73.32,4.97.38,8.35.51.65,0,.83-.19.83-.9v-14.08h-11.37c-2.13,0-3.08.06-4.8.45l-.47-2.5c1.6.45,3.08.58,5.27.58h24.81c1.48-1.73,1.9-2.24,3.32-3.78,2.19,1.86,2.9,2.43,5.15,4.35.18.19.36.38.36.51,0,.26-.24.38-.83.38h-17.59v7.74ZM273.18,304.42v1.41c-.06.7-.47.9-1.72.9h-.77c-.24,0-.41,0-.59.06h-.06c-.36,0-.65-.32-.71-.7.12-4.8.18-7.1.18-10.69,0-2.82-.06-3.9-.18-6.46,1.9,1.02,2.49,1.34,4.26,2.62h5.27v-6.4h-7.28c-1.66,0-2.37.13-3.73.51l-.47-2.69c1.3.45,2.72.7,4.2.7h25.46c1.42-1.66,1.9-2.11,3.38-3.71,2.25,1.73,2.9,2.3,4.97,4.16.3.26.47.45.47.64,0,.26-.24.38-.65.38h-13.32v6.4h5.92c.89-1.15,1.18-1.54,2.13-2.62,1.42,1.15,1.84,1.47,3.14,2.62.47.38.71.64.71.9,0,.38-.47.83-1.78,1.66v2.94c0,.77,0,1.66.12,8.38-.06.96-.59,1.15-3.14,1.15-.41,0-.65-.19-.77-.7v-1.47h-25.05ZM291.48,310.11c1.36-1.6,1.78-2.11,3.14-3.58,2.19,1.73,2.9,2.37,5.09,4.16.18.26.3.38.3.45,0,.26-.35.45-.71.45h-22.03c-2.19,0-3.43.13-5.03.45l-.41-2.43c1.78.38,2.84.51,5.45.51h14.21ZM278.87,293.03h-5.69v9.92h5.69v-9.92ZM282.3,285.15v6.4h6.1v-6.4h-6.1ZM288.4,293.03h-6.1v9.92h6.1v-9.92ZM291.48,321.95c4.62,2.18,7.22,3.58,9.3,5.12,2.01,1.54,2.67,2.43,2.67,3.9,0,2.05-.77,3.9-1.6,3.9-.41,0-.71-.32-1.3-1.28-2.01-3.46-4.74-6.53-9.65-11.01l.59-.64ZM298.23,293.03h-6.34v9.92h6.34v-9.92Z"/>
    <path d="M309.65,306.66c1.66.26,3.73.45,4.62.45h3.97c.83-1.15,1.12-1.54,2.07-2.69,1.72,1.22,2.19,1.6,3.79,3.01.24.26.3.38.3.58q0,.45-1.95,1.66v15.36c1.3,2.75,2.19,4.1,3.49,4.99,2.25,1.54,6.4,2.18,13.92,2.18,6.28,0,20.25-.58,25.76-1.02l-.12,1.02c-1.3.26-1.9.64-2.61,1.54-.53.64-.83,1.47-.83,2.18v.7c-.89,0-3.91,0-9.06-.06-1.24,0-4.86-.06-10.66-.06-9.65,0-14.39-1.28-17.83-4.74-1.48-1.47-2.43-3.07-3.79-6.53-4.26,5.95-5.45,7.55-6.81,9.09v1.73c0,1.09-.24,1.6-.71,1.6-.18,0-.47-.19-.65-.38-.47-.64-.95-1.66-1.36-2.88-.3-.77-.77-1.98-1.42-3.52q.71-.45,4.26-2.43c1.36-.77,2.55-1.6,4.38-3.14v-16.7h-4.5c-.53,0-2.67.26-3.85.45l-.41-2.37ZM312.32,282.34c3.2,2.11,5.74,4.16,7.76,6.21,1.18,1.15,1.72,2.5,1.72,4.1,0,1.92-1.12,4.29-2.07,4.29-.41,0-.89-.26-1.18-.77-.18-.26-.3-.64-.71-2.05-.77-2.82-3.73-8.06-6.28-11.2l.77-.58ZM345.3,312.42h7.11c1.24-1.66,1.66-2.18,3.14-3.84,2.07,1.98,2.66,2.56,4.44,4.42.12.13.18.19.18.26,0,.32-.3.64-.59.64h-14.27v6.72h10.25c1.42-1.73,1.95-2.3,3.67-4.16,2.19,1.98,2.84,2.62,4.92,4.8.06.19.12.26.12.38,0,.26-.3.45-.71.45h-18.24q.06,4.54.06,7.04c-.06.58-.24.83-.65.96-.3.13-1.95.26-2.9.26-.47,0-.65-.19-.65-.77q.06-1.86.06-5.25l.06-2.24h-11.73c-2.01,0-2.84.06-4.38.38l-.83-2.24c1.84.13,4.74.38,5.21.38h11.73v-6.72h-8.35c-1.9.19-3.02.32-3.38.45l-.83-2.5c.59.13,1.95.32,4.2.58h8.35v-6.4h-11.07c-1.95.13-3.08.19-3.38.26l-.59-2.3c.53.13.95.19,1.24.26,1.42.26,1.78.32,2.72.32h6.16c-.65-.45-.71-.58-1.18-3.2-.3-1.54-1.12-3.84-1.84-4.99l.47-.38h-5.39c-1.01,0-1.18,0-3.26.32l-.53-2.11c2.25.26,2.67.32,3.79.32h12.85v-6.14h-10.19q-1.36,0-3.61.32l-.71-2.24c1.24.19,3.61.45,4.32.45h10.19v-1.15q-.06-1.47-.12-2.56c0-1.22-.06-1.41-.12-2.62,1.24.19,2.25.38,2.84.45,2.96.45,3.44.64,3.44,1.28s-.36.83-2.01,1.15v3.46h7.11c1.48-1.73,1.95-2.24,3.43-4.1,2.19,1.92,2.84,2.5,4.92,4.54.24.26.35.45.35.64,0,.26-.18.38-.77.38h-15.04v6.14h9.77q1.48-1.66,3.61-4.1l5.03,4.74c.18.19.35.38.35.45,0,.26-.3.38-.65.38h-13.32c4.2,1.54,4.86,1.86,4.86,2.3s0,.45-2.55.64c-1.07,1.41-3.08,3.52-5.39,5.63h6.87c1.07-1.22,2.13-2.56,3.26-3.9,2.19,1.92,2.84,2.5,4.92,4.54.12.13.24.32.24.38,0,.26-.3.45-.71.45h-16.29v6.4ZM334.23,295.97c.24.19.35.32.53.51.71.7,1.18,1.15,1.36,1.34,2.07,1.86,2.61,2.62,2.61,3.58,0,1.02-.95,2.75-1.66,3.14h8.41c2.01-3.39,3.08-5.82,3.73-8.58h-14.98Z"/>
    <path d="M401.56,293.34c.41,8.83,1.6,15.62,3.73,21.5,2.9-5.89,4.97-12.03,5.39-16.13,5.39,1.41,6.4,1.73,6.4,2.43,0,.51-.59.77-2.67,1.34-2.55,7.55-4.26,11.26-7.46,16.38,2.31,4.86,4.26,7.23,9.18,11.46,2.13-4.1,2.96-5.82,5.8-12.29l.71.19-2.9,12.1c-.3,1.15-.35,1.47-.35,1.92,0,.51.06.64.77,1.6.47.64.71,1.22.71,1.86,0,1.15-.77,1.92-1.84,1.92-1.78,0-4.44-1.92-7.94-5.7-2.61-2.82-4.62-5.7-6.45-9.28-1.78,2.43-3.55,4.42-5.86,6.59-3.85,3.65-6.81,5.7-12.44,8.77l-.47-.83c4.68-3.52,7.11-5.76,10.84-10.05,2.61-2.94,4.5-5.38,6.22-8.19-2.72-6.85-4.38-14.85-5.27-25.6h-18.71c-.06,5.7-.12,7.74-.3,11.58h10.19c1.01-1.22,1.3-1.6,2.31-2.82,1.6,1.22,2.07,1.6,3.55,2.82.53.58.65.77.65.96,0,.45-.59.9-2.19,1.73-.71,9.66-1.3,14.33-2.13,17.09-.47,1.41-1.36,2.56-2.55,3.14-1.07.51-1.95.77-4.44,1.15-.59-2.37-.71-2.69-1.36-3.26-.77-.64-1.66-.96-4.68-1.6l.06-.96c4.32.51,6.99.77,7.94.77,1.07,0,1.36-.38,1.84-2.5.59-2.82,1.18-9.6,1.3-15.04h-10.6c-.36,6.27-.71,9.54-1.42,13.06-.89,4.42-2.43,8.83-4.32,12.48-1.01,2.05-1.95,3.46-4.15,6.34l-.77-.51c2.84-5.38,4.09-9.02,5.21-15.17,1.12-6.34,1.6-13.95,1.6-25.79,0-3.71-.06-5.38-.3-8.38,2.19,1.34,2.84,1.79,4.97,3.46h18.24c-.18-2.05-.24-3.14-.3-4.86-.18-4.61-.18-5.18-.41-7.36,1.12.13,2.07.26,2.67.32,3.2.32,3.97.51,3.97,1.09,0,.51-.35.77-2.07,1.6-.06,1.79-.06,3.2-.06,4.1,0,1.92,0,3.07.12,5.12h11.19c1.54-1.98,2.01-2.56,3.49-4.42,2.37,2.11,3.08,2.75,5.21,4.99.18.19.24.32.24.51s-.3.38-.53.38h-19.54ZM404.7,281.38c3.43.58,5.74,1.34,7.58,2.3,1.18.7,1.78,1.86,1.78,3.65,0,1.34-.53,2.43-1.24,2.43-.41,0-.77-.26-1.36-1.09-1.66-2.37-3.55-4.22-6.99-6.66l.24-.64Z"/>
    <path d="M455.15,332.64c6.4-2.05,10.48-4.67,13.86-8.9,3.49-4.29,5.27-9.54,5.27-15.42,0-6.21-2.31-11.14-6.69-14.14-2.61-1.86-6.51-2.94-10.24-2.94-.71,0-1.13,0-2.07.13,1.42,2.24,1.84,3.46,1.84,5.31,0,4.99-3.32,14.33-7.82,22.14-3.73,6.4-6.63,9.54-8.82,9.54-1.01,0-1.95-.51-2.61-1.34-.53-.77-.65-1.02-1.66-4.1-.53-1.66-.89-2.43-2.61-6.02-.95-2.05-1.36-3.78-1.36-5.82,0-4.03,2.01-8.77,5.33-12.67,4.8-5.5,12.61-8.96,20.37-8.96,5.98,0,11.49,2.11,15.28,5.89,3.79,3.78,5.69,8.83,5.69,15.04,0,8-4.32,15.1-11.78,19.39-3.43,1.98-6.51,3.01-11.55,3.97l-.41-1.09ZM435.66,312.74c0,3.07.89,6.21,2.37,8.45.83,1.15,1.6,1.86,2.25,1.86,1.3,0,4.15-3.46,7.05-8.45,4.38-7.55,7.52-15.81,7.52-19.77,0-.96-.18-1.6-.83-3.2-10.3,1.98-18.36,11.26-18.36,21.12Z"/>
    <path d="M498.37,314.98c-.12,1.41-.18,2.11-.18,2.88,0,7.62,4.44,11.2,13.98,11.2,4.74,0,9.59-.9,13.09-2.37.3-.13.71-.19,1.01-.19.89,0,2.25.51,3.26,1.28.83.7,1.3,1.47,1.3,2.24,0,.96-.65,1.66-1.9,1.98-2.72.77-8.53,1.28-13.8,1.28-6.63,0-10.84-.9-13.8-3.07-2.96-2.05-4.92-6.08-4.92-10.05,0-1.6.3-3.26.95-5.44l1.01.26ZM500.21,289.7c3.02,2.18,5.09,2.82,9.06,2.82s8.88-.77,12.32-1.92c.41-.13.89-.26,1.07-.26,1.54,0,3.55,1.92,3.55,3.33,0,1.09-.36,1.34-4.32,2.24-3.14.77-6.4,2.05-15.81,6.34l-.41-.96c1.66-1.09,2.72-1.73,4.32-2.69l3.85-2.24,1.12-.77c-1.3.13-3.38.19-4.44.19-2.19,0-4.92-.7-6.75-1.73-1.54-.9-2.49-1.73-4.15-3.71l.59-.64ZM527.21,284.07c2.19,1.34,3.79,2.56,5.27,3.97,2.13,2.11,2.96,3.58,2.96,5.12s-.83,2.69-1.84,2.69q-.77,0-2.67-4.16c-1.01-2.24-2.9-5.06-4.5-6.78l.77-.83ZM533.31,280.35c2.13,1.02,3.85,2.18,5.63,3.65,2.31,1.86,3.08,3.14,3.08,4.93,0,1.54-.59,2.62-1.48,2.62-.53,0-.89-.32-1.36-1.22-2.07-4.03-3.26-5.7-6.51-9.15l.65-.83Z"/>
    <path d="M563.69,298.91h4.56c1.18-1.86,1.54-2.37,2.78-4.03,2.07,1.98,2.72,2.56,4.74,4.61.18.19.24.38.24.51,0,.19-.3.38-.65.38h-11.67v6.27c3.73,1.79,5.27,2.69,7.28,4.22,2.01,1.54,2.67,2.43,2.67,3.97,0,2.3-.77,4.1-1.78,4.1-.41,0-.65-.26-.95-.96-1.01-2.43-2.67-5.25-4.2-7.04-.83-1.02-1.42-1.6-3.02-2.88v9.66c0,7.42,0,7.62.3,20.16,0,.38-.12.58-.41.64-.41.19-2.13.38-3.14.38-.47,0-.59-.13-.65-.64q.18-8.58.24-20.54l.3-12.48c-4.03,9.28-6.93,14.08-12.67,20.8l-.65-.58c3.55-5.76,5.39-9.28,7.88-15.04,1.72-3.97,2.31-5.63,3.49-10.05h-6.87c-1.07,0-2.01.06-3.26.32l-.36-2.24c1.72.32,2.78.45,4.2.45h7.7v-10.11c-4.92,1.15-6.63,1.47-11.07,1.98l-.24-.96c4.74-1.34,8.59-2.75,13.38-4.93,3.38-1.47,4.5-2.11,6.63-3.71,3.38,2.37,4.97,3.78,4.97,4.29,0,.26-.3.51-.71.51-.24,0-1.48-.26-2.49-.51-2.96,1.22-3.91,1.54-6.57,2.3v11.14ZM584.83,287.33c0,.45-.3.64-2.19,1.47q.06,26.05.24,34.49c0,.32-.12.45-.36.58-.47.19-2.13.38-3.26.38-.47,0-.65-.13-.65-.64q.06-4.48.06-5.95c0-23.29-.06-28.09-.3-32,6.1.9,6.46,1.02,6.46,1.66ZM592.88,288.48c-.06-2.11-.12-3.65-.24-6.91,5.09.83,5.57.9,6.04,1.09.47.13.71.38.71.7,0,.51-.41.77-2.37,1.6v34.56c0,.58.12,5.12.3,13.5,0,1.73-.3,2.5-1.42,3.46-1.3,1.09-2.66,1.6-5.39,2.11-.24-1.73-.59-2.43-1.6-3.14-.59-.38-2.13-.9-3.91-1.28l-2.13-.38-1.78-.38.06-1.09q2.67.19,6.46.38,2.61.06,4.44.19c.83,0,1.01-.19,1.01-1.02v-.19l-.18-43.2Z"/>
    <path d="M649.79,293.54c1.48-1.98,2.01-2.56,3.61-4.35,2.31,1.98,3.02,2.56,5.27,4.74.24.19.3.38.3.58,0,.26-.3.51-.65.51h-19.37c1.66,3.52,2.96,5.31,5.63,8.13,3.14,3.26,6.87,6.08,10.48,7.87,1.72.9,2.96,1.28,5.8,1.98v.7c-2.61.51-3.55,1.47-4.26,4.16-3.38-1.73-5.03-2.94-7.82-5.63-5.45-5.25-8.35-9.79-11.19-17.21h-9.36c-2.37,5.95-6.46,11.84-12.2,17.41,1.66.96,2.13,1.22,4.03,2.37h25.35c.83-1.02,1.07-1.34,1.95-2.24,1.6,1.41,2.07,1.79,3.55,3.2.47.45.65.7.65.96,0,.38-.3.64-1.54,1.28v16.64h1.54q1.95-2.24,3.79-4.42c2.31,1.98,3.02,2.62,5.27,4.8.12.26.18.38.18.58,0,.32-.24.51-.77.51h-47.79c-1.36,0-4.15.13-5.8.26l-.47-2.24c2.13.32,4.74.51,5.98.51h3.55v-21.63c-3.38,3.14-5.45,4.67-9.53,7.04l-.53-.83c5.57-4.29,8.82-8,13.03-14.66,2.31-3.71,3.55-6.21,4.74-9.54h-8.59c-1.78.06-3.2.06-4.09.06q-1.3,0-2.67.19l-.24-2.43c2.43.51,4.62.7,7.22.7h20.96c2.31-3.78,4.68-9.15,5.8-12.99,1.3.51,2.25.9,2.9,1.09,3.32,1.28,3.55,1.41,3.55,1.98,0,.64-.89.96-2.67.96q-5.86,7.1-8,8.96h12.38ZM618.34,280.67c3.2,1.92,4.15,2.69,6.22,4.67,1.3,1.22,1.9,2.11,1.9,2.88,0,2.05-1.3,4.54-2.37,4.54-.53,0-.77-.32-1.36-1.98-.95-2.88-2.67-6.21-4.86-9.6l.47-.51ZM619.41,316.26v18.37h6.22v-18.37h-6.22ZM629.42,334.62h6.46v-18.37h-6.46v18.37ZM639.6,334.62h6.57v-18.37h-6.57v18.37Z"/>
    <path d="M678.33,324.51c4.5,2.75,7.94,4.35,9.18,4.35s2.31-1.34,3.85-5.38c2.07-5.25,3.49-12.29,3.49-17.15,0-2.69-.53-4.42-1.6-5.18-.59-.45-1.36-.64-2.67-.64-1.66,0-2.78.26-6.16,1.28q-.83,2.24-3.43,8.7c-.3.77-1.48,3.78-3.49,8.96-2.37,6.02-4.32,10.62-5.27,12.42-.41.83-.89,1.22-1.42,1.22-1.07,0-1.72-1.66-1.72-4.42,0-1.6.18-2.11,1.36-3.58,2.67-3.52,5.21-8.77,10.9-22.27-3.97,1.41-6.46,2.5-7.7,3.33-.89.58-1.24.7-1.72.7-.65,0-1.84-.83-2.61-1.92-1.07-1.47-1.95-3.71-1.95-4.86,0-.32.12-.77.36-1.41,1.24,2.62,2.31,3.52,4.5,3.52,1.3,0,5.69-.96,10.07-2.24,1.36-3.65,2.43-8.32,2.43-10.5,0-1.98-1.18-3.14-4.56-4.29.71-.58,1.07-.7,1.72-.7.89,0,2.43.32,4.03.83,2.67.83,4.15,2.05,4.15,3.39,0,.45-.12.7-.83,1.86-1.12,2.11-2.07,4.16-3.79,8.64,2.61-.58,3.67-.7,5.15-.7,5.09,0,7.52,3.26,7.52,9.98,0,8.19-3.02,18.81-6.45,22.91-1.48,1.66-3.79,2.88-5.69,2.88-1.01,0-1.48-.45-1.6-1.47-.12-1.66-.36-1.98-6.57-7.49l.53-.77ZM704.44,298.72c4.62,1.47,8.23,4.03,10.84,7.68,2.25,3.14,3.38,6.21,3.38,9.02,0,2.24-.89,3.52-2.37,3.52-.47,0-.71-.06-1.36-.45-1.01-.64-1.3-.7-2.43-.7-2.07,0-2.37,0-7.4.58l-.24-.83c5.86-1.92,7.34-2.5,9.06-3.26-.71-6.21-4.74-12.1-9.95-14.65l.47-.9ZM706.46,285.92c2.19,1.28,3.79,2.5,5.27,3.97,2.13,2.05,2.96,3.52,2.96,5.06s-.83,2.69-1.84,2.69q-.77,0-2.61-4.16c-1.07-2.24-2.96-4.99-4.56-6.72l.77-.83ZM712.56,282.21c2.13,1.02,3.85,2.11,5.68,3.65,2.25,1.86,3.02,3.14,3.02,4.93,0,1.54-.59,2.62-1.48,2.62-.53,0-.89-.32-1.36-1.22-2.07-4.03-3.26-5.7-6.51-9.15l.65-.83Z"/>
    <path d="M733.1,290.66c2.31,2.88,4.32,3.78,8.29,3.78,1.13,0,1.84-.06,3.44-.32.35-2.88.65-6.02.65-7.1,0-2.3-.95-3.33-3.85-4.29.65-.58.95-.7,1.72-.7,1.3,0,3.55.64,5.15,1.47,1.48.83,2.19,1.6,2.19,2.62q0,.58-.77,1.66c-.71,1.09-1.13,2.3-1.84,5.76,5.63-1.28,9.12-2.75,11.13-4.54.65-.64.89-.7,1.48-.7.83,0,2.13.26,2.78.51.59.26.95.77.95,1.41,0,1.15-1.18,1.92-5.09,3.39-2.96,1.09-7.52,2.24-11.9,3.01-.53,2.88-1.01,6.78-1.12,9.66,3.38-1.22,6.28-1.86,9.47-2.05v-.38c0-1.22-.47-2.11-1.89-3.52.3-.06.53-.13.65-.13,1.54,0,3.26,1.73,3.79,3.84,5.27.64,8.53,1.92,11.49,4.54,2.67,2.5,4.03,5.82,4.03,10.11,0,9.73-9.18,17.02-23.09,18.3l-.18-1.02c12.02-3.2,18.71-9.86,18.71-18.75,0-3.9-1.54-7.1-4.32-9.09-1.66-1.15-3.67-1.79-6.87-2.24-.89,3.26-1.84,5.44-3.73,8.77-2.07,3.52-3.85,5.89-6.34,8.32q.77,1.6,1.48,2.69c.42.7.65,1.54.65,2.69,0,1.73-.53,2.94-1.36,2.94-1.01,0-2.01-1.73-3.43-5.63-3.79,3.71-7.88,6.08-10.25,6.08-1.42,0-2.07-.7-2.84-2.94-.41-1.09-.53-1.34-1.12-2.43-.89-1.54-1.12-2.43-1.12-3.84,0-3.33,1.84-6.66,5.57-10.05,2.19-1.92,4.5-3.46,7.99-5.12q.06-.96.36-4.74c.06-1.09.18-2.11.53-5.7-1.13.06-1.66.13-2.25.13-4.68,0-7.46-1.66-9.89-5.89l.77-.51ZM735.17,317.54c-1.24,2.05-1.84,4.03-1.84,6.02,0,2.37.89,3.9,2.25,3.9,1.89,0,5.57-2.18,8.82-5.18-.71-4.16-.89-6.27-.89-10.3v-2.3c-4.44,2.82-6.51,4.74-8.35,7.87ZM746.19,310.43c0,3.46.3,6.66.83,9.34,4.62-5.18,6.75-8.58,8.47-13.82-3.38.32-5.63.9-9.3,2.43v2.05Z"/>
    <path d="M815.77,289.25c-2.31.77-7.88,3.14-11.96,5.06-1.18.58-1.95.83-2.43.83-1.07,0-2.25-.9-3.38-2.69-1.07-1.73-1.66-3.39-1.66-4.74,0-.58.12-1.02.53-1.66.89,3.01,2.49,4.67,4.44,4.67,1.54,0,7.17-1.41,11.19-2.75,2.31-.83,2.43-.83,3.67-1.98.24-.19.53-.32.83-.32.77,0,1.72.64,3.2,2.24,1.36,1.41,1.78,2.11,1.78,2.88,0,.45-.3.83-1.01,1.22-1.72.96-2.31,1.47-4.92,4.29-3.73,4.03-5.92,6.4-8.71,9.6q-5.69,6.59-6.93,7.94l.12.13c6.34-4.29,11.13-6.08,16.11-6.08,7.58,0,12.67,4.8,12.67,11.97,0,9.15-7.88,15.94-18.6,15.94-5.8,0-9.53-2.5-9.53-6.4,0-3.14,2.72-5.44,6.4-5.44,2.9,0,5.57,1.15,7.52,3.14,1.07,1.09,1.72,2.11,2.61,3.97,4.5-2.11,7.17-6.53,7.17-11.97,0-3.52-1.3-6.4-3.67-7.94-1.24-.77-3.55-1.28-5.86-1.28-5.8,0-13.92,5.12-18.83,11.9-1.01,1.34-1.42,1.73-2.01,1.73-.89,0-1.95-2.24-1.95-4.16,0-.77.41-1.47,1.24-2.24,2.25-1.86,3.2-2.88,8.23-8.9,7.22-8.77,9.48-11.58,14.15-18.11q.47-.7.59-1.02s-.12-.13-.18-.13c0,0-.06,0-.06.06h-.18s-.12.06-.3.13l-.3.13ZM806.65,325.98c-2.25,0-3.73,1.28-3.73,3.26,0,2.37,2.61,3.9,6.75,3.9,1.6,0,2.37-.13,4.2-.58-1.18-4.1-3.91-6.59-7.22-6.59Z"/>
    <path d="M885.46,293.03c.77-1.02,1.6-2.05,2.43-3.01,1.66,1.28,2.13,1.66,3.73,3.01.41.38.59.64.59.9,0,.45-.47.83-2.01,1.79q.06,25.85.3,41.4c0,.77-.36.96-2.31.96h-.95c-.83,0-1.01-.13-1.12-.7v-4.48h-31.21v4.48c0,.96-.36,1.02-3.43,1.02-.71,0-.89-.13-.89-.7q.24-22.14.24-27.45c0-10.94-.06-16.64-.24-20.67,2.07,1.41,2.72,1.86,4.8,3.46h8.47c2.13-6.14,2.96-9.66,3.02-12.93q7.34,2.3,7.34,2.94c0,.58-.3.7-2.9,1.15-2.19,3.71-3.26,5.25-5.86,8.83h20.02ZM886.11,311.01v-16.51h-31.21v16.51h31.21ZM854.91,312.48v18.94h31.21v-18.94h-31.21Z"/>
    <path d="M905.53,297.31c2.43,2.69,3.97,3.52,6.51,3.52,2.31,0,4.8-.38,7.52-1.22,1.18-4.16,2.01-8.64,2.01-10.88,0-1.92-.89-2.75-4.2-3.97.77-.45,1.07-.58,1.84-.58,1.36,0,3.32.45,5.09,1.22,1.78.7,2.67,1.6,2.67,2.56q0,.45-.71,1.54c-.77,1.22-2.19,4.99-3.55,9.15,3.02-1.15,5.57-2.62,6.87-3.9.95-.96,1.18-1.09,1.66-1.09.77,0,2.19.32,3.14.7.65.26.95.64.95,1.15,0,1.09-.95,1.92-3.43,3.07-2.67,1.34-6.63,2.75-10.36,3.78-.42,1.34-.71,2.24-.77,2.43-1.95,6.34-3.97,12.99-6.16,19.97-2.37,7.62-3.14,9.22-4.38,9.22-.59,0-1.01-.38-1.36-1.28-.47-1.02-.83-2.62-.83-3.71,0-1.02.06-1.22,1.3-3.14,2.78-4.22,5.45-10.88,9.3-22.91-2.25.45-3.97.64-5.68.64-3.61,0-5.92-1.66-8.11-5.76l.71-.51ZM929.16,319.39c-.06.96-.06,1.73-.06,1.98,0,3.65,1.6,6.4,4.5,7.74,1.6.77,4.03,1.22,6.34,1.22,2.43,0,3.79-.19,5.68-.96.42-.19.77-.26,1.01-.26.65,0,2.01.7,3.02,1.54.71.64,1.07,1.22,1.07,1.79,0,1.41-2.31,2.11-6.99,2.11s-8.35-.7-10.96-2.05c-3.2-1.66-5.03-4.99-5.03-9.28,0-1.41.12-2.5.53-4.03l.89.19ZM930.76,307.55c4.26-2.82,9.12-4.35,13.74-4.35,1.24,0,2.78.45,3.73,1.15.59.38.95,1.09.95,1.79,0,1.09-.53,1.41-2.25,1.54-2.19.06-2.84.26-4.56,1.28-.83.45-1.54.9-1.95,1.22l-2.19,1.54c-.12.13-.53.38-1.18.77l-.36-.58c.47-.51.77-.83.89-.96l1.96-1.92c.41-.38,1.3-1.28,2.9-3.01h-.47c-3.26,0-7.22.9-10.84,2.37l-.36-.83ZM941.07,284.51c2.19,1.34,3.79,2.56,5.27,3.97,2.13,2.11,2.96,3.58,2.96,5.12s-.83,2.69-1.84,2.69q-.77,0-2.61-4.16c-1.07-2.24-2.96-5.06-4.56-6.72l.77-.9ZM947.17,280.8c2.13,1.02,3.85,2.18,5.69,3.65,2.25,1.86,3.02,3.2,3.02,4.93,0,1.54-.59,2.62-1.48,2.62-.53,0-.89-.32-1.36-1.22-2.07-4.03-3.2-5.7-6.46-9.09l.59-.9Z"/>
    <path d="M993.41,289.25c-2.31.77-7.88,3.14-11.96,5.06-1.18.58-1.95.83-2.43.83-1.07,0-2.25-.9-3.38-2.69-1.07-1.73-1.66-3.39-1.66-4.74,0-.58.12-1.02.53-1.66.89,3.01,2.49,4.67,4.44,4.67,1.54,0,7.17-1.41,11.19-2.75,2.31-.83,2.43-.83,3.67-1.98.24-.19.53-.32.83-.32.77,0,1.72.64,3.2,2.24,1.36,1.41,1.78,2.11,1.78,2.88,0,.45-.3.83-1.01,1.22-1.72.96-2.31,1.47-4.92,4.29-3.73,4.03-5.92,6.4-8.71,9.6q-5.69,6.59-6.93,7.94l.12.13c6.34-4.29,11.13-6.08,16.11-6.08,7.58,0,12.67,4.8,12.67,11.97,0,9.15-7.88,15.94-18.6,15.94-5.8,0-9.53-2.5-9.53-6.4,0-3.14,2.72-5.44,6.4-5.44,2.9,0,5.57,1.15,7.52,3.14,1.07,1.09,1.72,2.11,2.61,3.97,4.5-2.11,7.17-6.53,7.17-11.97,0-3.52-1.3-6.4-3.67-7.94-1.24-.77-3.55-1.28-5.86-1.28-5.8,0-13.92,5.12-18.83,11.9-1.01,1.34-1.42,1.73-2.01,1.73-.89,0-1.95-2.24-1.95-4.16,0-.77.41-1.47,1.24-2.24,2.25-1.86,3.2-2.88,8.23-8.9,7.22-8.77,9.48-11.58,14.15-18.11q.47-.7.59-1.02s-.12-.13-.18-.13c0,0-.06,0-.06.06h-.18s-.12.06-.3.13l-.3.13ZM984.29,325.98c-2.25,0-3.73,1.28-3.73,3.26,0,2.37,2.61,3.9,6.75,3.9,1.6,0,2.37-.13,4.2-.58-1.18-4.1-3.91-6.59-7.22-6.59Z"/>
    <path d="M1029,292.9c3.14,2.82,5.03,3.46,9.53,3.46,2.55,0,4.86-.19,8.47-.77-.24-9.79-.65-10.69-5.15-11.39.83-.9,1.3-1.02,2.96-1.02s3.61.32,4.97.83c1.42.51,2.01,1.15,2.01,2.11q0,.38-.77,2.18c-.53,1.22-.89,3.46-1.07,6.78,5.86-1.22,9.06-2.3,11.01-3.78.18-.13.53-.26.71-.26.71,0,2.43.58,3.08,1.09.65.45,1.01.96,1.01,1.54,0,.9-.95,1.41-4.62,2.37-4.03,1.02-7.76,1.79-11.31,2.24-.06,1.66-.06,2.62-.06,4.1,0,1.73,0,3.01.06,5.82,2.43-.45,4.74-1.02,6.75-1.73,1.54-.58,1.84-.77,2.96-1.6.24-.19.53-.26.89-.26.83,0,2.31.45,3.02.96.47.26.71.7.71,1.22,0,1.15-.83,1.66-4.56,2.75-2.96.83-6.81,1.6-9.65,1.86.12,2.5.12,3.52.18,5.76.12,2.43.18,3.39.36,4.99,5.45,1.09,10.66,3.26,13.03,5.5,1.12,1.09,1.72,2.56,1.72,4.22,0,1.34-.53,2.24-1.3,2.24-.59,0-.83-.19-2.37-1.79-1.01-1.02-3.26-2.88-4.97-3.97-2.01-1.28-3.49-1.98-5.92-2.69.12,1.41.18,2.05.18,2.82,0,2.5-.65,4.16-2.01,5.38-1.66,1.47-4.74,2.37-7.94,2.37-5.92,0-10.01-2.82-10.01-6.85,0-4.54,5.51-7.74,13.38-7.74.95,0,1.54,0,2.96.06-.06-3.07-.06-3.52-.06-4.42v-5.57c-2.37.13-3.49.19-4.38.19-3.85,0-6.46-.45-7.88-1.41-1.72-1.09-2.67-2.88-2.67-4.86,0-.45.06-1.09.12-1.79l.89.06c.06,1.98.36,2.88,1.24,3.65.95.9,3.49,1.41,6.93,1.41,1.66,0,3.08-.13,5.74-.45v-4.48l-.12-4.67v-.77c-3.26.32-5.63.45-7.64.45-5.63,0-8.05-1.22-11.01-5.5l.59-.64ZM1042.14,324.38c-2.31,0-4.62.45-6.45,1.22-2.13.9-3.2,2.18-3.2,3.84,0,2.3,2.43,3.65,6.46,3.65,2.9,0,5.33-.83,6.75-2.3.77-.77,1.12-1.73,1.3-3.33.06-.45.12-1.92.12-2.43v-.19c-2.31-.32-3.38-.45-4.97-.45Z"/>
    <path d="M1086.61,291.75c2.84,2.43,4.2,3.01,7.4,3.01,1.9,0,3.61-.26,6.34-.83,1.3-2.75,2.07-5.12,2.07-6.53,0-1.73-1.12-2.75-4.21-3.58,1.01-.58,1.54-.7,2.67-.7,1.36,0,3.08.38,4.62,1.09,1.48.64,2.13,1.34,2.13,2.11,0,.45-.24.9-.95,1.86-.53.77-1.24,1.92-1.72,2.62q-1.07,1.86-1.48,2.5c4.97-1.54,6.57-2.3,8.53-4.1.36-.32.71-.45,1.12-.45,2.31,0,3.97.9,3.97,2.11,0,.77-.77,1.41-2.55,2.05-5.27,1.86-8.11,2.62-12.91,3.65-1.07,1.6-1.78,2.75-3.14,4.99-1.6,2.69-2.07,3.39-3.2,5.12,3.32-1.86,5.39-2.56,7.64-2.56,3.49,0,6.1,2.56,6.63,6.4q1.01-.51,5.8-3.14c5.86-3.2,7.28-4.22,7.28-5.38,0-1.09-1.01-2.24-2.72-3.01.65-.32.95-.38,1.36-.38,2.61,0,6.69,3.9,6.69,6.46,0,1.15-.47,1.6-2.13,1.98-3.55.9-11.25,4.1-15.87,6.59.06,2.05.06,2.43.06,5.18s-.18,4.86-.47,5.5c-.3.7-.95,1.22-1.66,1.22-1.13,0-1.9-.83-1.9-1.92,0-.32,0-.64.06-1.09.24-1.86.36-4.03.41-6.85-3.67,2.18-5.39,3.46-6.93,5.06-1.95,2.05-2.9,4.03-2.9,5.95,0,3.46,3.26,5.12,9.89,5.12,4.15,0,8.29-.64,11.9-1.79.41-.13.83-.19,1.12-.19,1.84,0,4.15,1.79,4.15,3.2,0,.83-.65,1.47-1.84,1.73-2.43.51-6.93.9-10.6.9-5.57,0-9.65-.64-12.02-1.86-3.02-1.54-4.38-3.65-4.38-6.78s1.36-5.76,4.26-8.77c1.54-1.6,3.43-3.07,7.34-5.7-.06-2.69-.24-3.71-.83-5.06-.53-1.15-1.72-1.92-3.02-1.92-3.91,0-8.59,3.39-12.85,9.28-1.13,1.66-1.6,2.05-2.19,2.05-.95,0-1.6-1.34-1.6-3.39,0-1.34.06-1.41,1.72-2.88,4.21-3.58,6.81-6.91,11.01-13.76-1.95.32-2.72.38-3.97.38-4.03,0-6.1-1.15-8.82-4.93l.65-.58Z"/>
    <path d="M106.07,430.88c7.4-4.29,15.34-10.75,22.27-18.17,5.86-6.21,9.65-11.39,9.65-13.25,0-1.22-.95-2.24-3.32-3.65.65-.26.77-.26,1.18-.26,1.72,0,3.2.58,5.09,1.92,2.01,1.47,3.08,2.94,3.08,4.16,0,.58-.06.7-2.37,2.82q-.59.51-4.8,4.86c-4.15,4.29-4.5,4.61-7.05,6.91,2.31,1.86,3.32,2.82,3.61,3.58.24.64.36,3.65.41,9.41.06,4.48.18,8.58.3,12.22,0,1.41.06,3.26.06,3.65,0,2.24-.41,3.2-1.36,3.2-1.36,0-4.03-3.52-4.03-5.38q0-.45.36-1.66c.53-1.6,1.07-9.54,1.07-15.74,0-3.14-.12-5.06-.36-6.08-.18-.64-.41-.96-1.3-1.98-4.15,3.58-8.41,6.85-11.37,8.77-3.32,2.11-7.58,4.35-10.66,5.57l-.47-.9Z"/>
    <path d="M177.07,409.7c4.86,2.18,8.47,4.35,13.98,8.38,2.72-4.54,5.09-9.22,6.4-12.8.65-1.66.83-2.43.83-3.46,0-1.54-.95-2.82-3.2-4.29.47-.32.65-.38,1.01-.38,1.01,0,2.78.7,4.44,1.79,2.37,1.6,3.91,3.33,3.91,4.54,0,.64-.24,1.09-1.01,1.98-1.07,1.22-1.78,2.24-3.26,4.93q-2.78,4.86-6.04,10.05c6.34,5.31,7.4,6.78,7.4,10.17,0,1.98-.59,3.46-1.42,3.46-.59,0-.71-.13-2.19-2.5-1.78-2.88-3.55-5.18-6.04-7.81-5.27,7.36-7.58,10.05-12.44,14.4-4.2,3.78-6.75,5.63-12.44,8.77l-.53-.96c4.86-3.84,7.58-6.27,11.25-10.3,4.15-4.48,6.4-7.36,11.55-14.78-4.38-4.29-7.58-6.85-12.73-10.37l.53-.83Z"/>
    <path d="M227.29,418.21c1.48,1.22,2.61,1.54,5.74,1.54q.65,0,7.28-.19c2.31-.06,21.14-.38,23.1-.38,5.33,0,6.63.13,7.7.58.59.32.83.7.83,1.28,0,.77-.53,1.47-1.36,1.73-1.6.58-3.02.64-14.21.77-5.51.06-19.07.45-21.14.58-2.78.19-3.32.26-4.26.83-.24.06-.65.19-.89.19-.89,0-1.84-.7-2.84-2.11-1.24-1.66-2.25-4.35-2.25-5.89,0-.9.06-1.02.47-1.47.71,1.47,1.01,1.92,1.84,2.56Z"/>
    <path d="M285.14,413.73c4.92,1.09,8.41,2.37,10.36,3.78,1.6,1.09,2.25,2.37,2.25,4.22,0,1.66-.77,3.07-1.66,3.07-.59,0-.95-.26-1.84-1.47-3.02-4.1-5.8-6.66-9.48-8.77l.36-.83ZM330.86,412.13c-1.3,2.3-4.62,6.4-8.82,10.94-6.51,6.78-13.03,12.22-22.44,18.62-3.14,2.24-3.85,2.75-4.56,3.52-.47.45-.89.64-1.36.64-1.18,0-2.55-1.22-4.2-3.84-1.07-1.73-1.84-3.71-1.84-4.93,0-.58.18-1.02.53-1.47,1.13,2.43,2.78,3.97,4.44,3.97,1.3,0,5.21-2.11,11.37-6.27,10.84-7.17,19.66-14.59,26.18-21.76l.71.58ZM291.65,402.4c9.48,2.43,12.5,4.42,12.5,8.13,0,1.79-.71,3.2-1.6,3.2q-.65,0-3.2-3.39c-2.31-2.94-5.27-5.5-8.11-7.04l.41-.9ZM317,396.9c2.19,1.28,3.79,2.5,5.27,3.9,2.13,2.11,2.96,3.58,2.96,5.12s-.83,2.69-1.84,2.69q-.77,0-2.67-4.16c-1.01-2.24-2.9-5.06-4.5-6.72l.77-.83ZM323.1,393.12c2.13,1.09,3.85,2.18,5.69,3.71,2.25,1.86,3.02,3.14,3.02,4.93,0,1.54-.59,2.62-1.48,2.62-.53,0-.89-.32-1.36-1.28-2.07-4.03-3.26-5.63-6.51-9.09l.65-.9Z"/>
    <path d="M386.87,434.4c-5.69,8.32-13.44,13.25-20.79,13.25-4.5,0-7.99-1.98-9.83-5.44-1.18-2.24-1.66-5.38-1.66-10.82,0-3.52.18-9.6.47-15.42.36-6.91.41-8.7.41-11.01,0-5.5-.59-6.59-4.8-8.51.65-.51,1.01-.64,1.66-.64,1.36,0,3.49.58,5.33,1.47,2.25,1.15,3.44,2.43,3.44,3.78,0,.45-.06.83-.53,2.3-1.12,3.84-3.08,23.23-3.08,30.72,0,3.9.71,6.21,2.37,7.68,1.3,1.09,3.2,1.73,5.27,1.73,4.03,0,9-1.54,13.5-4.1,2.72-1.54,4.44-2.88,7.52-5.7l.71.7Z"/>
    <path d="M402.68,408.42c2.43,2.69,3.97,3.52,6.51,3.52,2.31,0,4.8-.38,7.52-1.22,1.18-4.16,2.01-8.64,2.01-10.82,0-1.98-.89-2.82-4.2-4.03.77-.45,1.07-.58,1.84-.58,1.36,0,3.32.45,5.09,1.22,1.78.7,2.67,1.6,2.67,2.56q0,.45-.71,1.54c-.77,1.22-2.07,4.61-3.55,9.15,3.32-1.28,5.45-2.5,6.87-3.9.95-.96,1.18-1.09,1.66-1.09.77,0,2.19.32,3.14.7.65.26.95.64.95,1.15,0,1.09-.95,1.92-3.43,3.14-2.67,1.28-6.63,2.69-10.36,3.71q-.71,2.18-2.49,8.13-1.18,3.84-4.44,14.27c-2.37,7.62-3.14,9.21-4.38,9.21-.59,0-1.01-.38-1.36-1.28-.47-1.02-.83-2.62-.83-3.71,0-1.02.06-1.22,1.3-3.14,2.96-4.67,5.27-10.24,9.3-22.91-2.25.45-3.97.64-5.69.64-3.61,0-5.92-1.66-8.11-5.76l.71-.51ZM426.31,430.5c-.06.96-.06,1.73-.06,1.98,0,3.65,1.6,6.4,4.5,7.74,1.6.77,4.03,1.22,6.34,1.22,2.43,0,3.79-.19,5.69-.96.41-.19.77-.26,1.01-.26.65,0,2.01.7,3.02,1.54.71.64,1.07,1.22,1.07,1.79,0,1.41-2.31,2.11-6.99,2.11s-8.35-.7-10.96-2.05c-3.2-1.66-5.03-4.99-5.03-9.28,0-1.41.12-2.5.53-4.03l.89.19ZM427.91,418.66c4.26-2.75,9.12-4.29,13.74-4.29,1.24,0,2.78.45,3.73,1.15.59.38.95,1.09.95,1.79,0,1.02-.53,1.41-2.25,1.47-2.19.13-2.9.32-4.56,1.28-1.18.7-1.24.7-3.26,2.18q-1.12.77-2.07,1.34l-.35-.58q.71-.77,2.84-2.88c.53-.51,1.07-1.02,2.9-3.01-3.91,0-7.05.7-11.31,2.37l-.35-.83Z"/>
    <path d="M458.05,438.37c5.8-4.93,10.96-11.2,14.57-17.73,1.84-3.39,2.43-4.93,2.43-6.34,0-1.02-.83-2.05-2.96-3.65.65-.19.89-.26,1.3-.26,1.07,0,3.08.9,4.86,2.18,2.01,1.47,2.84,2.43,2.84,3.46,0,.51-.18.9-.71,1.41-1.07.96-1.18,1.09-2.49,2.94-4.74,6.85-6.99,9.34-12.44,14.01-2.78,2.24-4.5,3.46-6.93,4.67l-.47-.7ZM489.79,410.27c6.22,4.03,11.84,9.41,15.57,14.91,1.84,2.69,2.49,4.48,2.49,6.85,0,2.62-.95,4.67-2.25,4.67-.83,0-1.07-.38-1.95-2.94-2.96-8.64-7.99-16.51-14.51-22.65l.65-.83ZM509.51,403.94c0,3.9-2.9,7.04-6.46,7.04s-6.51-3.2-6.51-7.04,2.9-6.98,6.51-6.98,6.46,3.14,6.46,6.98ZM498.49,403.94c0,2.69,2.07,4.93,4.56,4.93s4.5-2.18,4.5-4.93-2.01-4.86-4.5-4.86-4.56,2.18-4.56,4.86Z"/>
    <path d="M520.7,443.68c5.69-3.84,11.55-9.02,15.93-14.01,3.55-4.03,7.82-10.05,11.31-15.93,1.9-3.14,2.9-5.25,4.03-8.26-2.84.19-5.98.9-12.5,2.82-2.84.83-3.08.9-4.97,1.73-.3.13-.65.19-1.01.19-1.3,0-2.55-1.15-3.85-3.65-.83-1.47-1.24-2.82-1.24-3.84,0-.38.12-.7.41-1.28,1.72,3.33,2.96,4.29,5.57,4.29,1.95,0,7.94-.83,12.44-1.79,3.43-.7,4.5-1.09,5.57-1.79.65-.45.95-.58,1.36-.58,1.24,0,4.62,3.26,4.62,4.48,0,.45-.24.83-.77,1.22q-1.24.9-3.38,4.35-2.84,4.61-7.46,11.14c8.35,4.74,13.03,8,15.34,10.81,1.6,1.86,2.25,3.71,2.25,6.34,0,2.05-.59,3.33-1.6,3.33-.41,0-.89-.32-1.36-1.02q-.24-.32-1.42-2.56c-2.96-5.38-8.05-11.07-14.09-15.68-4.8,6.27-8.65,10.17-14.33,14.4-3.73,2.82-6.28,4.35-10.36,6.27l-.47-.96Z"/>
    <path d="M584.71,447.71c5.63-3.97,7.7-5.63,11.07-8.9,4.26-4.16,7.17-7.55,9.95-11.58-.95-.19-1.3-.51-2.55-2.56-2.49-4.03-4.44-6.34-8.23-9.54-4.2,4.48-7.34,7.23-10.96,9.54l-.65-.96c4.2-3.9,7.76-8,11.43-13.25,3.73-5.38,5.86-9.47,5.86-11.14,0-1.47-1.01-2.5-3.79-3.84.59-.26.83-.32,1.3-.32,1.24,0,3.49.77,5.27,1.86,1.66.96,2.43,1.86,2.43,2.69,0,.9-.53,1.86-2.78,4.93.71.19,1.07.26,1.66.26,1.36,0,3.43-.38,7.88-1.41,3.08-.7,3.61-.9,4.68-1.73.3-.19.65-.32.95-.32.77,0,1.78.64,3.32,2.18,1.01,1.02,1.6,1.98,1.6,2.62,0,.45-.24.77-.83,1.28-.71.64-.95,1.02-1.95,2.94-6.1,12.29-12.32,20.93-20.02,27.9-5.03,4.48-10.07,7.94-15.16,10.3l-.47-.96ZM612.96,405.79q-4.8,1.28-5.45,1.54c-1.01.38-1.3.45-1.84.45-1.01,0-2.07-.51-3.55-1.73-2.25,3.26-3.79,5.25-6.28,8.06q4.38,2.05,5.69,2.88c2.61,1.54,3.97,2.94,5.15,4.99.53,1.02.65,1.54.77,2.88,4.2-6.08,8.11-13.76,10.07-19.97-1.48.13-2.55.38-4.56.9Z"/>
    <path d="M652.16,422.37c-1.07,4.03-2.72,11.01-3.44,14.14-.59,2.82-.77,3.84-.77,5.44-.06,2.05-.12,2.3-.41,2.82-.3.45-.65.7-1.13.7-1.01,0-1.83-.9-2.55-2.88-1.18-3.26-1.9-8.13-1.9-12.86,0-5.89.65-11.26,2.67-21.31.77-3.97.89-4.67.89-5.76,0-1.92-.47-3.46-1.72-5.63,1.36.06,2.49.9,4.15,3.2,1.36,1.86,2.13,3.65,2.13,4.86q0,.7-.95,2.82c-2.84,6.4-4.5,14.02-4.5,20.86,0,3.26.24,5.31.95,7.94l2.49-6.4,3.2-8.25.89.32ZM658.08,410.78c2.84,1.98,4.68,2.62,7.64,2.62,2.07,0,4.32-.32,6.75-.9v-2.82c0-7.17-.06-8-.83-8.9-.71-.83-2.01-1.28-3.91-1.47.83-.83,1.3-1.02,2.84-1.02,1.3,0,2.9.26,4.03.58,1.72.58,2.61,1.34,2.61,2.3,0,.45,0,.51-.53,1.98-.65,1.86-1.01,4.16-1.24,8.58,2.72-.83,4.44-1.66,5.45-2.62.59-.64.77-.7,1.3-.7.71,0,2.07.38,2.78.83.47.26.77.7.77,1.15,0,1.41-4.32,3.33-10.48,4.61,0,8.51.18,12.03.77,17.41,6.87,1.98,9.77,4.48,9.77,8.19,0,1.34-.53,2.37-1.18,2.37-.47,0-.89-.32-2.07-1.6-2.61-2.88-4.09-4.03-6.4-5.12.06.58.06,1.09.06,1.54,0,4.61-3.55,7.36-9.48,7.36-5.15,0-8.76-2.69-8.76-6.53,0-4.42,4.38-7.23,11.13-7.23,1.12,0,1.95.06,3.61.19v-1.09l-.12-6.85-.06-8.19c-1.78.38-3.49.51-5.21.51-4.32,0-6.81-1.15-9.77-4.48l.53-.7ZM667.14,434.14c-4.68,0-7.58,1.66-7.58,4.48,0,2.24,2.31,3.78,5.8,3.78,3.26,0,5.57-1.02,6.51-3.01.59-1.15.77-2.11.77-4.48-1.66-.51-3.32-.77-5.51-.77Z"/>
    <path d="M712.32,422.75c4.86,2.62,6.87,3.97,9.89,6.46,7.17-7.42,10.36-11.07,13.56-15.49,1.42-1.98,1.89-2.69,1.89-3.01s-.36-.51-.95-.51c-2.72,0-10.9,1.28-18.36,2.88-6.75,1.41-9.24,2.18-11.67,3.46-.77.38-1.18.51-1.66.51-1.07,0-2.55-1.22-3.97-3.33-1.3-1.92-2.07-3.71-2.07-4.86,0-.51.12-.96.36-1.47.71,1.41,1.6,2.43,2.84,3.2.95.58,1.78.77,3.61.77,2.84,0,7.94-.58,19.6-2.3,5.57-.77,8.59-1.22,9.12-1.34q1.01-.19,1.9-.77c.47-.32.95-.45,1.48-.45,1.01,0,2.19.9,4.15,3.07,1.72,1.92,2.49,3.14,2.49,3.97,0,.58-.24,1.02-.71,1.28q-.3.13-1.48.58c-.71.26-1.54.83-3.32,2.37-.53.45-2.07,1.73-4.38,3.52-1.24,1.02-2.96,2.43-5.03,4.16-3.02,2.5-4.09,3.39-6.22,4.86,3.97,3.65,5.09,5.38,5.09,8.06,0,2.5-.83,4.22-2.01,4.22-.83,0-1.3-.51-2.07-2.3-1.07-2.5-3.55-6.53-5.75-9.41-1.89-2.43-3.61-4.29-6.87-7.29l.53-.83Z"/>
    <path d="M771.18,405.47c3.08,0,10.19-.51,16.34-1.22,3.14-.38,4.09-.58,4.8-1.22.65-.51,1.01-.7,1.42-.7.65,0,2.19,1.15,3.85,2.94.89.96,1.3,1.66,1.3,2.24,0,.45-.12.7-.77,1.6-.47.7-.65,1.41-1.54,7.74q-.95,6.27-1.96,12.93c-.35,2.11-.59,3.65-.71,4.67,2.19,1.54,2.9,2.37,2.9,3.58,0,.58-.47.96-1.3.96-.47,0-.71,0-2.31-.26-.77-.13-3.08-.19-5.39-.19-4.5,0-9.24.64-14.39,1.98-1.54.38-2.01.58-3.02,1.02-.35.19-.65.26-1.01.26-1.3,0-2.49-.9-3.79-2.88-1.13-1.66-1.72-3.14-1.72-4.16,0-.19.06-.38.3-.9,1.42,2.24,3.08,3.26,5.21,3.26,1.01,0,2.49-.13,5.09-.51,5.27-.7,9.18-1.09,15.63-1.54.53-3.52,1.24-9.79,1.66-13.95-7.58.45-16.76,1.79-20.49,3.07-.53.19-.95.26-1.3.26-.71,0-1.54-.45-2.19-1.15-1.24-1.34-2.31-3.71-2.31-5.06,0-.38.06-.58.24-1.09,1.84,2.5,2.84,3.14,5.15,3.14q.53,0,12.97-1.28c1.48-.19,3.38-.26,8.23-.51.65-6.53.83-8.51.89-11.9-4.09,0-8.05.45-16.23,1.66-2.72.38-3.43.51-5.69,1.09-.59.19-1.01.26-1.3.26-.65,0-1.36-.38-1.95-1.02-1.48-1.73-2.61-4.03-2.61-5.5,0-.38.06-.7.36-1.28,1.3,2.62,2.9,3.65,5.63,3.65Z"/>
    <path d="M815.59,436.26c6.69-3.58,10.72-6.14,16.17-10.3,5.8-4.48,12.61-11.07,17-16.58-5.09.96-7.05,1.47-12.79,3.14-3.32.96-3.49,1.02-5.03,1.79-1.18.51-1.3.58-1.84.58-2.01,0-5.03-4.16-5.03-6.85,0-.45.06-.64.3-1.15,1.66,2.62,3.08,3.46,5.98,3.46,2.25,0,6.22-.64,12.26-1.92,4.74-1.02,4.86-1.02,6.04-1.73.77-.51,1.12-.64,1.54-.64.77,0,2.19.96,3.43,2.24.83.83,1.07,1.28,1.07,1.86,0,.45-.18.7-1.07,1.22-1.18.64-2.13,1.41-5.15,4.35-3.79,3.65-5.92,5.57-8.35,7.49,1.12,1.34,1.6,2.05,1.89,3.07.36,1.02.36,1.22.36,4.29l-.06,3.84c0,4.03.06,8.9.18,11.01.06.58.06,1.15.06,1.47,0,1.54-.53,2.37-1.42,2.37s-1.72-.83-2.55-2.5c-.71-1.34-1.12-2.69-1.12-3.52,0-.26.06-.51.24-.96.47-1.15.59-1.86.77-3.65.36-4.16.47-6.66.47-9.02,0-3.39-.06-3.9-.41-5.06-8.17,6.27-14.51,9.79-22.5,12.54l-.41-.83ZM831.93,394.02c1.42,1.54,2.25,2.11,3.73,2.69,1.6.58,3.55.9,5.45.9,1.6,0,2.67-.13,3.91-.45.47-.13.71-.19.95-.19,1.36,0,3.38,2.05,3.38,3.46,0,1.02-.95,1.47-3.02,1.47-3.55,0-7.58-.83-9.83-1.98-1.9-1.02-3.55-2.69-5.21-5.31l.65-.58ZM845.37,423.52c6.1.58,11.25,1.73,14.45,3.33,2.01.96,3.14,2.82,3.14,4.99,0,1.47-.59,2.43-1.54,2.43-.35,0-.65-.19-1.72-1.09-4.44-3.84-8.65-6.33-14.45-8.7l.12-.96Z"/>
    <path d="M878.65,418.21c1.48,1.22,2.61,1.54,5.74,1.54q.65,0,7.28-.19c2.31-.06,21.14-.38,23.1-.38,5.33,0,6.63.13,7.7.58.59.32.83.7.83,1.28,0,.77-.53,1.47-1.36,1.73-1.6.58-3.02.64-14.21.77-5.51.06-19.07.45-21.14.58-2.78.19-3.32.26-4.26.83-.24.06-.65.19-.89.19-.89,0-1.83-.7-2.84-2.11-1.24-1.66-2.25-4.35-2.25-5.89,0-.9.06-1.02.47-1.47.71,1.47,1.01,1.92,1.84,2.56Z"/>
    <path d="M934.85,444.77c4.97-3.33,11.49-9.09,15.93-14.08,6.4-7.36,13.62-18.69,15.34-24.19-3.79.32-14.39,3.07-17.47,4.54-.3.13-.59.19-1.01.19-1.3,0-2.55-1.15-3.85-3.65-.77-1.41-1.24-2.82-1.24-3.78,0-.45.12-.7.41-1.28,1.72,3.26,2.96,4.22,5.63,4.22,1.9,0,7.82-.83,12.38-1.79,3.43-.7,4.5-1.02,5.57-1.79.59-.38,1.01-.58,1.36-.58,1.24,0,4.62,3.26,4.62,4.48,0,.51-.24.83-.77,1.22-1.18.83-1.36,1.02-3.38,4.35-1.72,2.75-3.49,5.57-4.44,6.91-1.01,1.41-2.01,2.82-3.02,4.29,8.47,4.8,12.97,7.94,15.34,10.75,1.6,1.86,2.25,3.71,2.25,6.34,0,2.05-.59,3.33-1.6,3.33-.41,0-.89-.32-1.36-1.02q-.24-.38-1.42-2.5c-3.14-5.57-8.47-11.52-14.09-15.68-6.69,9.02-15.99,16.77-24.69,20.61l-.47-.9ZM971.38,394.21c2.19,1.34,3.79,2.56,5.27,3.97,2.13,2.11,2.96,3.58,2.96,5.12s-.83,2.69-1.84,2.69q-.77,0-2.67-4.16c-1.01-2.24-2.9-5.06-4.5-6.78l.77-.83ZM977.48,390.5c2.13,1.02,3.85,2.18,5.63,3.65,2.31,1.86,3.08,3.14,3.08,4.93,0,1.54-.59,2.62-1.48,2.62-.53,0-.89-.32-1.36-1.22-2.07-4.03-3.26-5.7-6.51-9.15l.65-.83Z"/>
    <path d="M1017.69,444.64c6.4-2.05,10.48-4.67,13.86-8.89,3.49-4.29,5.27-9.54,5.27-15.42,0-6.21-2.31-11.14-6.69-14.14-2.61-1.86-6.51-2.94-10.25-2.94-.71,0-1.12,0-2.07.13,1.42,2.24,1.84,3.46,1.84,5.31,0,4.99-3.32,14.34-7.82,22.14-3.73,6.4-6.63,9.54-8.82,9.54-1.01,0-1.95-.51-2.61-1.34-.53-.77-.65-1.02-1.66-4.1-.53-1.66-.89-2.43-2.61-6.02-.95-2.05-1.36-3.78-1.36-5.82,0-4.03,2.01-8.77,5.33-12.67,4.8-5.5,12.61-8.96,20.37-8.96,5.98,0,11.49,2.11,15.28,5.89,3.79,3.78,5.68,8.83,5.68,15.04,0,8-4.32,15.1-11.78,19.39-3.44,1.98-6.51,3.01-11.55,3.97l-.42-1.09ZM998.21,424.74c0,3.07.89,6.21,2.37,8.45.83,1.15,1.6,1.86,2.25,1.86,1.3,0,4.15-3.46,7.05-8.45,4.38-7.55,7.52-15.81,7.52-19.78,0-.96-.18-1.6-.83-3.2-10.3,1.98-18.36,11.26-18.36,21.12Z"/>
    <path d="M1063.76,408.74c1.01.77,1.84,1.02,3.38,1.02,1.18,0,2.37-.06,4.15-.32q16.17-2.05,17.53-2.69c.53-.26.89-.38,1.12-.38.59,0,1.95.9,3.43,2.37,1.42,1.34,2.13,2.37,2.13,3.07,0,.45-.18.7-.59,1.15-1.07,1.15-1.3,2.18-4.26,19.13.24.19.41.38.53.45,1.6,1.47,2.07,2.18,2.07,3.07,0,.64-.47,1.02-1.3,1.02q-.36,0-1.54-.19c-1.54-.32-3.32-.45-5.21-.45-6.87,0-15.69,1.54-19.07,3.26-.36.19-.89.32-1.18.32-1.95,0-5.51-4.86-5.51-7.49,0-.32.06-.58.3-1.15,1.9,2.82,3.38,3.9,5.51,3.9.59,0,2.01-.13,3.08-.26,1.95-.19,4.74-.51,8.41-.9,5.15-.58,5.21-.58,10.13-.9.59-3.07.95-5.7,1.6-11.71.3-2.62.83-8.83.83-9.66,0-.9-.41-1.15-1.66-1.15-1.01,0-5.51.45-7.94.77-4.26.64-7.99,1.54-12.2,3.01-.36.13-.71.19-1.12.19-1.18,0-2.49-1.15-3.91-3.46-.89-1.47-1.48-3.01-1.48-3.9,0-.26.06-.58.3-1.09.77,1.34,1.48,2.18,2.49,2.94Z"/>
    <path d="M1117.23,423.9c4.38-3.97,8.29-8.96,12.44-15.68,2.43-3.97,3.91-7.23,3.91-8.64,0-.83-.24-1.34-1.13-2.18q-.77-.7-1.42-1.15t-1.07-.58c.53-.32.77-.38,1.12-.38,1.3,0,3.26.7,4.86,1.73,1.9,1.15,2.78,2.24,2.78,3.26,0,.77-.06.83-3.2,5.82.77.19,1.12.26,1.54.26,1.18,0,4.09-.51,7.11-1.28,2.43-.64,3.43-1.02,4.68-1.73.47-.32.65-.38,1.01-.38,1.42,0,4.8,3.33,4.8,4.74,0,.58-.18.9-.89,1.6-1.01.96-1.3,1.47-2.84,4.54-5.21,10.56-10.24,17.53-17.47,24.06-5.09,4.67-9.53,7.68-14.69,9.98l-.41-.9c4.74-3.14,8.29-6.27,13.09-11.46,7.17-7.68,12.73-16.38,16.17-25.34.59-1.41.95-2.75.95-3.26,0-.26-.18-.45-.53-.45-.89,0-4.62,1.02-7.52,2.05-1.07.38-1.42.45-1.96.45-1.24,0-2.49-.64-3.67-1.86-4.56,7.04-10.6,13.25-17.06,17.54l-.59-.77Z"/>
    <path d="M1187.1,395.3c1.78,0,4.56.58,5.98,1.22,1.18.51,1.66,1.15,1.66,2.05v.13c0,.51-.06.51-.47,1.66-.71,2.18-1.3,7.68-1.3,12.99,0,3.78.47,4.74,2.31,4.74,1.24,0,2.55-.51,7.93-3.26,1.07-.58,1.72-.77,2.43-.77,1.42,0,2.84,1.34,2.84,2.69,0,.83-.41,1.54-1.24,1.92-.42.19-1.24.51-3.97,1.34-7.17,2.18-11.07,4.1-14.8,7.17-3.2,2.69-4.62,5.18-4.62,8.19,0,4.61,3.38,6.98,9.95,6.98,3.67,0,9.47-.77,13.74-1.86.59-.13.83-.19,1.18-.19,1.54,0,3.2,1.6,3.2,3.14,0,1.15-.65,1.73-2.55,2.11-1.89.38-7.82.83-11.37.83-4.32,0-7.58-.51-10.07-1.47-3.97-1.6-6.46-5.25-6.46-9.47,0-3.71,1.9-7.23,5.8-10.75,1.78-1.66,3.73-3.07,7.22-5.12-1.3,0-1.84-.19-2.84-.96-.89-.7-1.42-2.11-1.72-4.86-.18-1.54-.24-2.94-.42-7.74-.18-5.44-.24-6.4-.71-7.36-.65-1.22-1.78-1.86-4.26-2.3.89-.83,1.36-1.02,2.55-1.02Z"/>
    <path d="M293.67,518.24q1.3-1.86,2.49-3.58c1.66,1.73,2.19,2.24,3.85,3.97.24.32.35.51.35.7,0,.26-.24.38-.65.38h-7.46v5.5c1.36.58,2.61,1.28,4.56,2.62,1.36.83,1.95,1.79,1.95,2.88,0,1.54-.83,3.26-1.54,3.26-.35,0-.59-.32-.95-1.28-.71-1.98-2.19-4.35-4.03-6.46,0,21.5,0,24.83.12,35.33-.06.51-.18.7-.53.83-.24.13-1.84.32-2.61.32-.47,0-.71-.19-.77-.7l.18-10.62c0-1.41.06-3.71.06-6.85s.06-4.29.06-4.8l.3-11.71c-1.42,4.8-2.19,6.85-4.32,11.2-1.9,3.78-2.96,5.63-5.21,8.96l-.71-.64c2.37-4.54,3.67-7.87,6.4-16.38,1.66-5.18,2.19-7.17,2.84-11.46h-3.61c-1.6,0-2.37.13-3.61.45l-.41-2.43c1.78.45,2.13.51,4.03.51h4.03v-6.78c0-3.01-.06-4.42-.3-7.29,5.74.7,6.75.96,6.75,1.73,0,.58-.59.9-2.66,1.41v10.94h1.42ZM328.07,549.85c1.3-1.66,1.72-2.11,2.96-3.65q2.13,2.11,4.26,4.16c.18.19.3.45.3.51,0,.26-.36.45-.83.45h-7.94c-1.6,9.66-2.13,10.3-8.65,11.46-.3-2.75-1.18-3.33-7.7-4.61v-.96l7.88.64c.65.06,1.24.06,1.6.06,1.6,0,1.95-.83,3.02-6.59h-19.84l-1.07,4.86c-.35.7-.71.9-1.36.9-.83,0-2.25-.26-2.61-.45-.12-.13-.18-.32-.18-.45s0-.26.06-.45c1.9-7.3,2.13-8.58,4.03-19.01h-1.72c-1.24,0-1.84.06-3.02.45l-.53-2.43c1.42.38,2.37.51,3.73.51h1.78c1.36-8.06,1.84-11.71,2.07-16.32,1.95,1.28,2.49,1.66,4.2,2.94h16.76c1.01-1.09,1.3-1.47,2.25-2.56,1.54,1.28,2.01,1.66,3.49,2.94.41.38.53.64.53.9,0,.45-.53.9-2.07,1.47-.12,1.22-.41,4.8-.89,10.62h.83c1.18-1.6,1.6-2.11,2.78-3.71,1.78,1.86,2.31,2.37,4.09,4.22.18.19.3.38.3.58,0,.26-.3.38-.77.38h-7.28c-.35,4.61-.83,8.58-1.54,13.12h1.07ZM325.41,513.95c1.54-2.05,2.01-2.62,3.55-4.42,2.43,2.05,3.14,2.69,5.39,4.86.24.26.35.38.35.51,0,.26-.35.51-.71.51h-27.77c-2.72,4.54-4.86,7.42-8.23,11.01l-.71-.7c2.66-3.97,4.32-7.23,6.28-12.1,1.42-3.52,2.13-5.76,2.96-9.47,5.69,1.34,6.69,1.73,6.69,2.3s-.71.83-2.96,1.22c-1.54,3.2-2.07,4.16-3.2,6.27h18.36ZM311.2,549.85c.83-3.78,1.24-6.4,2.13-13.12h-7.7c-1.48,9.54-1.54,9.73-2.19,13.12h7.76ZM313.51,535.26c.24-1.86.41-3.39.53-4.35.53-4.29.59-4.8.77-7.55h-7.05q-.65,4.03-1.9,11.9h7.64ZM323.22,549.85c.3-1.73.41-2.88.59-4.35.06-.58.24-2.11.47-4.35.12-.96.24-2.56.47-4.42h-7.7c-.89,6.59-1.18,8.32-2.13,13.12h8.29ZM318.54,523.36c-.59,6.14-.65,6.66-1.3,11.9h7.64c.59-6.34.65-7.74.83-11.9h-7.17Z"/>
    <path d="M366.33,556.64c6.4-2.05,10.48-4.67,13.86-8.89,3.49-4.29,5.27-9.54,5.27-15.42,0-6.21-2.31-11.14-6.69-14.14-2.61-1.86-6.51-2.94-10.24-2.94-.71,0-1.13,0-2.07.13,1.42,2.24,1.84,3.46,1.84,5.31,0,4.99-3.32,14.33-7.82,22.14-3.73,6.4-6.63,9.54-8.82,9.54-1.01,0-1.95-.51-2.61-1.34-.53-.77-.65-1.02-1.66-4.1-.53-1.66-.89-2.43-2.61-6.02-.95-2.05-1.36-3.78-1.36-5.82,0-4.03,2.01-8.77,5.33-12.67,4.8-5.5,12.61-8.96,20.37-8.96,5.98,0,11.49,2.11,15.28,5.89,3.79,3.78,5.69,8.83,5.69,15.04,0,8-4.32,15.1-11.78,19.39-3.43,1.98-6.51,3.01-11.55,3.97l-.41-1.09ZM346.84,536.74c0,3.07.89,6.21,2.37,8.45.83,1.15,1.6,1.86,2.25,1.86,1.3,0,4.15-3.46,7.05-8.45,4.38-7.55,7.52-15.81,7.52-19.78,0-.96-.18-1.6-.83-3.2-10.3,1.98-18.36,11.26-18.36,21.12Z"/>
    <path d="M433.71,512.1c2.37,1.02,5.63,1.98,6.69,1.98.24,0,.36,0,.59-.06h.35c1.48,0,2.31.7,2.31,1.98,0,.96-1.01,1.92-3.26,3.33-2.13,1.22-2.9,1.6-8.65,3.97,3.08,4.74,6.34,10.24,8.11,13.82.95,1.86,1.3,3.2,1.3,4.8,0,2.5-.41,3.39-1.6,3.39-.65,0-1.01-.19-1.84-1.09-1.18-1.22-2.66-2.37-3.97-3.01-3.02-1.54-6.93-2.43-10.72-2.43-6.81,0-11.07,2.88-11.07,7.49,0,2.75,1.72,5.12,4.62,6.46,2.07.9,5.03,1.41,8.23,1.41,2.25,0,3.61-.13,5.15-.45.3-.06.53-.13.71-.13,1.54,0,3.67,2.05,3.67,3.46,0,1.6-1.01,1.98-5.15,1.98-4.44,0-8.53-.58-11.61-1.73-5.33-1.92-8.47-5.82-8.47-10.43,0-6.4,5.86-10.24,15.57-10.24,3.97,0,8.41.64,11.61,1.66-1.3-4.42-3.79-9.22-7.11-14.21-4.26,1.41-8.11,2.11-12.02,2.11-4.5,0-7.88-1.73-10.9-5.63l.65-.64c3.2,2.56,5.74,3.52,9.48,3.52,3.14,0,6.99-.7,10.96-1.98-2.49-3.52-5.86-6.91-8.23-8.32-1.84-1.09-2.25-1.6-2.25-2.5,0-1.47,1.48-2.37,4.03-2.37,2.13,0,4.26.38,6.93,1.34l-.3.96c-1.36-.19-2.25-.26-2.67-.26-1.24,0-1.84.26-1.84.7,0,.32.59,1.15,2.43,3.39.65.83,2.19,2.88,4.56,6.14q.77-.38,3.73-1.66c1.36-.64,2.49-1.22,4.32-2.37-1.54-1.34-1.6-1.41-4.8-3.71l.41-.7Z"/>
    <path d="M479.19,556.13c7.4-1.66,12.26-3.9,16.4-7.74,3.26-2.88,4.97-6.53,4.97-10.37,0-5.57-3.55-9.28-8.82-9.28-5.74,0-13.38,3.33-19.66,8.7-1.12.9-1.66,1.22-2.37,1.22-2.19,0-5.74-4.61-5.74-7.55,0-.32.12-.64.41-1.28.95,2.3,2.25,3.52,3.67,3.52.77,0,2.19-.51,5.21-1.79,5.33-2.3,10.13-3.9,13.5-4.54,1.42-.26,2.72-.38,4.62-.38,7.76,0,13.21,5.12,13.21,12.42,0,4.54-2.49,9.22-6.4,12.03-4.74,3.46-9.95,5.18-18.77,6.27l-.24-1.22Z"/>
    <path d="M533.19,534.62c-3.32,13.31-4.2,17.41-4.2,19.33v.19c-.06,2.11-.06,2.37-.41,2.88-.24.45-.65.7-1.12.7-1.01,0-1.84-.9-2.55-2.88-1.18-3.26-1.9-8.13-1.9-12.86,0-5.89.65-11.26,2.66-21.31.77-3.97.89-4.67.89-5.76,0-1.92-.47-3.46-1.72-5.63,1.36.06,2.49.9,4.15,3.2,1.36,1.86,2.13,3.58,2.13,4.8q0,.77-.95,2.88c-2.84,6.4-4.5,13.95-4.5,20.8,0,3.33.24,5.38.95,7.94.41-.96,1.24-3.14,2.49-6.4.65-1.66,2.07-5.31,3.2-8.19l.89.32ZM539.11,522.98c2.84,1.98,4.68,2.62,7.64,2.62,2.07,0,4.32-.26,6.75-.83v-2.82c0-7.17-.06-8-.83-8.89-.71-.83-2.01-1.34-3.91-1.54.83-.77,1.3-.96,2.84-.96,1.3,0,2.9.26,4.03.58,1.72.58,2.61,1.34,2.61,2.3,0,.45,0,.51-.53,1.98-.65,1.73-1.01,4.35-1.24,8.58,2.49-.77,4.38-1.73,5.45-2.69.59-.64.77-.7,1.3-.7.71,0,2.07.38,2.78.83.47.32.77.77.77,1.15,0,1.47-4.32,3.39-10.48,4.61,0,7.81.18,12.54.77,17.47,6.87,1.98,9.77,4.42,9.77,8.19,0,1.34-.53,2.37-1.18,2.37-.47,0-.89-.32-2.07-1.6-2.13-2.43-4.32-4.22-6.4-5.12.06.58.06,1.09.06,1.54,0,4.61-3.55,7.36-9.48,7.36-5.15,0-8.76-2.69-8.76-6.53,0-4.42,4.38-7.23,11.13-7.23,1.12,0,1.95.06,3.61.19v-1.09l-.12-6.91-.06-8.13c-1.78.32-3.49.45-5.21.45-4.32,0-6.81-1.15-9.77-4.42l.53-.77ZM548.17,546.4c-4.68,0-7.58,1.66-7.58,4.42,0,2.3,2.25,3.78,5.8,3.78,3.32,0,5.57-1.02,6.51-3.01.59-1.09.77-2.05.77-4.42-1.66-.51-3.32-.77-5.51-.77ZM573.7,510.43c0,3.9-2.9,7.04-6.51,7.04s-6.51-3.2-6.51-7.04,2.9-6.98,6.51-6.98,6.51,3.14,6.51,6.98ZM562.62,510.43c0,2.69,2.07,4.93,4.56,4.93s4.56-2.18,4.56-4.93-2.01-4.86-4.56-4.86-4.56,2.18-4.56,4.86Z"/>
    <path d="M597.2,562.08c4.2-2.82,6.81-5.31,9.42-8.96,4.15-5.95,6.22-13.18,6.22-21.57,0-5.57-.89-10.82-2.19-13.18-1.07-1.86-2.49-2.82-4.2-2.82-2.96,0-5.69,2.75-7.82,8-1.72,4.16-2.78,9.41-2.78,13.76,0,1.09.06,1.79.24,3.97.06.38.06.9.06,1.34,0,1.22-.53,1.92-1.54,1.92-2.25,0-3.73-5.18-3.73-13.12,0-5.31.36-8.64,1.9-17.15.47-2.56.65-3.78.65-4.67,0-2.05-.83-3.26-3.2-4.54.47-.19.83-.32,1.07-.32,1.24,0,3.14.83,4.74,2.11,1.66,1.28,2.31,2.3,2.31,3.58,0,.83-.12,1.22-.83,2.43-2.25,4.03-4.26,13.12-4.26,19.07,0,.58,0,1.22.06,2.37h.12c1.78-8.19,3.97-13.5,6.87-16.77,2.19-2.56,4.56-3.78,7.22-3.78,5.69,0,9.71,7.55,9.71,18.24,0,8.32-2.13,15.23-6.46,20.93-3.49,4.67-7.46,7.68-13.09,10.11l-.47-.96Z"/>
    <path d="M670.57,512.1c2.37,1.02,5.63,1.98,6.69,1.98.24,0,.36,0,.59-.06h.35c1.48,0,2.31.7,2.31,1.98,0,.96-1.01,1.92-3.26,3.33-2.13,1.22-2.9,1.6-8.65,3.97,3.08,4.74,6.34,10.24,8.11,13.82.95,1.86,1.3,3.2,1.3,4.8,0,2.5-.42,3.39-1.6,3.39-.65,0-1.01-.19-1.84-1.09-1.18-1.22-2.66-2.37-3.97-3.01-3.02-1.54-6.93-2.43-10.72-2.43-6.81,0-11.07,2.88-11.07,7.49,0,2.75,1.72,5.12,4.62,6.46,2.07.9,5.03,1.41,8.23,1.41,2.25,0,3.61-.13,5.15-.45.3-.06.53-.13.71-.13,1.54,0,3.67,2.05,3.67,3.46,0,1.6-1.01,1.98-5.15,1.98-4.44,0-8.53-.58-11.61-1.73-5.33-1.92-8.47-5.82-8.47-10.43,0-6.4,5.86-10.24,15.57-10.24,3.97,0,8.41.64,11.61,1.66-1.3-4.42-3.79-9.22-7.11-14.21-4.26,1.41-8.11,2.11-12.02,2.11-4.5,0-7.88-1.73-10.9-5.63l.65-.64c3.2,2.56,5.74,3.52,9.48,3.52,3.14,0,6.99-.7,10.96-1.98-2.49-3.52-5.86-6.91-8.23-8.32-1.84-1.09-2.25-1.6-2.25-2.5,0-1.47,1.48-2.37,4.03-2.37,2.13,0,4.26.38,6.93,1.34l-.3.96c-1.36-.19-2.25-.26-2.67-.26-1.24,0-1.83.26-1.83.7,0,.32.59,1.15,2.43,3.39.65.83,2.19,2.88,4.56,6.14q.77-.38,3.73-1.66c1.36-.64,2.49-1.22,4.32-2.37-1.54-1.34-1.6-1.41-4.8-3.71l.42-.7Z"/>
    <path d="M707.93,548.51c4.5,2.75,7.94,4.35,9.18,4.35s2.31-1.34,3.85-5.38c2.07-5.25,3.49-12.29,3.49-17.15,0-2.69-.53-4.42-1.6-5.18-.59-.45-1.36-.64-2.67-.64-1.66,0-2.78.26-6.16,1.28q-.83,2.24-3.43,8.7c-.3.77-1.48,3.78-3.49,8.96-2.37,6.02-4.32,10.62-5.27,12.42-.41.83-.89,1.22-1.42,1.22-1.07,0-1.72-1.66-1.72-4.42,0-1.6.18-2.11,1.36-3.58,2.67-3.52,5.21-8.77,10.9-22.27-3.97,1.41-6.46,2.5-7.7,3.33-.89.58-1.24.7-1.72.7-.65,0-1.84-.83-2.61-1.92-1.07-1.47-1.95-3.71-1.95-4.86,0-.32.12-.77.36-1.41,1.24,2.62,2.31,3.52,4.5,3.52,1.3,0,5.69-.96,10.07-2.24,1.36-3.65,2.43-8.32,2.43-10.5,0-1.98-1.18-3.14-4.56-4.29.71-.58,1.07-.7,1.72-.7.89,0,2.43.32,4.03.83,2.67.83,4.15,2.05,4.15,3.39,0,.45-.12.7-.83,1.86-1.12,2.11-2.07,4.16-3.79,8.64,2.61-.58,3.67-.7,5.15-.7,5.09,0,7.52,3.26,7.52,9.98,0,8.19-3.02,18.81-6.45,22.91-1.48,1.66-3.79,2.88-5.69,2.88-1.01,0-1.48-.45-1.6-1.47-.12-1.66-.36-1.98-6.57-7.49l.53-.77ZM734.05,522.72c4.62,1.47,8.23,4.03,10.84,7.68,2.25,3.14,3.38,6.21,3.38,9.02,0,2.24-.89,3.52-2.37,3.52-.47,0-.71-.06-1.36-.45-1.01-.64-1.3-.7-2.43-.7-2.07,0-2.37,0-7.4.58l-.24-.83c5.86-1.92,7.34-2.5,9.06-3.26-.71-6.21-4.74-12.1-9.95-14.66l.47-.9ZM736.06,509.92c2.19,1.28,3.79,2.5,5.27,3.97,2.13,2.05,2.96,3.52,2.96,5.06s-.83,2.69-1.84,2.69q-.77,0-2.61-4.16c-1.07-2.24-2.96-4.99-4.56-6.72l.77-.83ZM742.16,506.21c2.13,1.02,3.85,2.11,5.68,3.65,2.25,1.86,3.02,3.14,3.02,4.93,0,1.54-.59,2.62-1.48,2.62-.53,0-.89-.32-1.36-1.22-2.07-4.03-3.26-5.7-6.51-9.15l.65-.83Z"/>
    <path d="M771.53,534.75c4.86,2.62,6.87,3.97,9.89,6.46,7.17-7.42,10.36-11.07,13.56-15.49,1.42-1.98,1.9-2.69,1.9-3.01s-.36-.51-.95-.51c-2.72,0-10.9,1.28-18.36,2.88-6.75,1.41-9.24,2.18-11.67,3.46-.77.38-1.18.51-1.66.51-1.07,0-2.55-1.22-3.97-3.33-1.3-1.92-2.07-3.71-2.07-4.86,0-.51.12-.96.36-1.47.71,1.41,1.6,2.43,2.84,3.2.95.58,1.78.77,3.61.77,2.84,0,7.94-.58,19.6-2.3,5.57-.77,8.59-1.22,9.12-1.34q1.01-.19,1.89-.77c.47-.32.95-.45,1.48-.45,1.01,0,2.19.9,4.15,3.07,1.72,1.92,2.49,3.14,2.49,3.97,0,.58-.24,1.02-.71,1.28q-.3.13-1.48.58c-.71.26-1.54.83-3.32,2.37-.53.45-2.07,1.73-4.38,3.52-1.24,1.02-2.96,2.43-5.03,4.16-3.02,2.5-4.09,3.39-6.22,4.86,3.97,3.65,5.09,5.38,5.09,8.06,0,2.5-.83,4.22-2.01,4.22-.83,0-1.3-.51-2.07-2.3-1.07-2.5-3.55-6.53-5.74-9.41-1.89-2.43-3.61-4.29-6.87-7.29l.53-.83Z"/>
    <path d="M823.76,526.05c5.92,3.9,8.23,6.34,8.23,8.77,0,1.92-.95,3.71-1.89,3.71-.59,0-.95-.45-1.48-1.79-1.6-4.22-2.43-5.7-5.45-10.05l.59-.64ZM829.27,558.94c4.03-3.33,5.92-5.25,8.82-8.77,4.86-5.89,8.88-12.61,11.43-19.01.83-2.11,1.12-3.07,1.12-4.03,0-1.47-.59-2.18-3.08-3.39.59-.45.89-.58,1.42-.58,1.36,0,3.2.77,4.97,2.05,1.6,1.15,2.25,1.98,2.25,2.94,0,.64-.12.83-.83,1.6-.36.38-1.24,1.92-2.07,3.46-4.21,7.81-5.15,9.34-8.17,13.25-4.74,6.21-9.83,10.62-15.28,13.44l-.59-.96ZM834.36,523.74c2.19,1.22,3.67,2.24,5.21,3.71,1.6,1.41,2.19,2.56,2.19,3.97,0,1.92-1.01,3.9-1.95,3.9-.65,0-1.01-.51-1.42-1.98-1.12-3.84-2.43-6.4-4.56-8.9l.53-.7Z"/>
    <path d="M882.26,521.38c4.86-1.47,10.6-3.84,14.86-6.27,2.31-1.28,5.03-3.07,6.34-4.22.41-.38.65-.77.65-1.15,0-.7-.89-1.54-2.61-2.43.41-.32.65-.38,1.07-.38,2.61,0,7.34,3.2,7.34,4.93,0,.77-.3,1.02-2.49,2.18-1.42.7-4.74,2.18-8.59,3.78,3.26,1.47,5.03,2.94,5.03,4.22,0,.13-.06.64-.24,1.66-.06.64-.18,2.18-.36,4.29,9.65-.96,10.42-1.09,11.73-1.66.41-.19.95-.32,1.48-.32,2.31,0,5.92,2.3,5.92,3.84,0,.77-.53,1.28-1.24,1.28-.41,0-.47,0-1.89-.26-2.67-.45-4.92-.64-8.65-.64-.3,0-2.61.06-7.46.26-.77,7.81-2.55,13.82-5.57,19.26-2.55,4.48-5.92,8.38-9.71,11.2l-.71-.77c6.93-7.23,10.9-16.96,11.9-29.18-6.04.83-12.32,2.5-15.57,4.1-.59.26-1.01.38-1.42.38-2.25,0-5.74-4.03-5.74-6.59,0-.26.06-.38.24-.7,1.66,2.24,2.78,2.88,5.03,2.88,1.01,0,2.49-.19,7.7-1.02,3.91-.7,6.87-1.09,9.95-1.54.12-1.73.18-2.62.18-3.9,0-3.65-.47-4.93-2.31-6.02-5.33,1.98-9.65,3.14-14.63,3.78l-.24-.96Z"/>
    <path d="M979.02,546.4c-5.68,8.32-13.44,13.25-20.79,13.25-4.5,0-8-1.98-9.83-5.44-1.18-2.24-1.66-5.38-1.66-10.82,0-3.52.18-9.6.47-15.42.36-6.91.42-8.7.42-11.01,0-5.5-.59-6.59-4.8-8.51.65-.51,1.01-.64,1.66-.64,1.36,0,3.49.58,5.33,1.47,2.25,1.15,3.43,2.43,3.43,3.78,0,.45-.06.83-.53,2.3-1.12,3.84-3.08,23.23-3.08,30.72,0,3.9.71,6.21,2.37,7.68,1.3,1.09,3.2,1.73,5.27,1.73,4.03,0,9-1.54,13.5-4.1,2.72-1.54,4.44-2.88,7.52-5.7l.71.7Z"/>
    <path d="M994.83,520.42c2.43,2.69,3.97,3.52,6.51,3.52,2.31,0,4.8-.38,7.52-1.22,1.18-4.16,2.01-8.64,2.01-10.82,0-1.98-.89-2.82-4.21-4.03.77-.45,1.07-.58,1.84-.58,1.36,0,3.32.45,5.09,1.22,1.78.7,2.67,1.6,2.67,2.56q0,.45-.71,1.54c-.77,1.22-2.07,4.61-3.55,9.15,3.32-1.28,5.45-2.5,6.87-3.9.95-.96,1.18-1.09,1.66-1.09.77,0,2.19.32,3.14.7.65.26.95.64.95,1.15,0,1.09-.95,1.92-3.43,3.14-2.67,1.28-6.63,2.69-10.36,3.71q-.71,2.18-2.49,8.13-1.18,3.84-4.44,14.27c-2.37,7.62-3.14,9.21-4.38,9.21-.59,0-1.01-.38-1.36-1.28-.47-1.02-.83-2.62-.83-3.71,0-1.02.06-1.22,1.3-3.14,2.96-4.67,5.27-10.24,9.3-22.91-2.25.45-3.97.64-5.68.64-3.61,0-5.92-1.66-8.11-5.76l.71-.51ZM1018.46,542.5c-.06.96-.06,1.73-.06,1.98,0,3.65,1.6,6.4,4.5,7.74,1.6.77,4.03,1.22,6.34,1.22,2.43,0,3.79-.19,5.69-.96.41-.19.77-.26,1.01-.26.65,0,2.01.7,3.02,1.54.71.64,1.07,1.22,1.07,1.79,0,1.41-2.31,2.11-6.99,2.11s-8.35-.7-10.96-2.05c-3.2-1.66-5.03-4.99-5.03-9.28,0-1.41.12-2.5.53-4.03l.89.19ZM1020.06,530.66c4.26-2.75,9.12-4.29,13.74-4.29,1.24,0,2.78.45,3.73,1.15.59.38.95,1.09.95,1.79,0,1.02-.53,1.41-2.25,1.47-2.19.13-2.9.32-4.56,1.28-1.18.7-1.24.7-3.26,2.18q-1.12.77-2.07,1.34l-.36-.58q.71-.77,2.84-2.88c.53-.51,1.07-1.02,2.9-3.01-3.91,0-7.05.7-11.31,2.37l-.36-.83Z"/>
    <path d="M180.8,671.9c5.15-3.52,9.18-8.19,11.37-13.05,2.13-4.86,3.02-10.3,3.32-20.54-4.5.32-9.53,1.02-13.21,1.92v2.18c0,.26,0,2.75.12,7.29,0,.19,0,1.09.06,2.43.06.64.06,1.22.06,1.6,0,2.3-.53,3.52-1.54,3.52-1.13,0-3.02-3.2-3.02-5.12,0-.45.06-.64.3-1.28.3-.7.47-1.73.65-3.07.06-.64.18-2.94.24-6.85-3.14.64-5.21,1.28-7.64,2.5-.89.45-1.72.7-2.19.7-1.84,0-5.33-4.42-5.33-6.78,0-.13.06-.32.18-.58,1.72,2.11,3.14,3.01,4.86,3.01.65,0,2.43-.26,4.15-.51q1.6-.26,3.91-.7,1.18-.26,1.95-.38c0-2.94-.41-7.17-.83-8.64-.36-1.15-1.01-2.18-1.95-2.94-.18-.13-.71-.45-1.66-1.02.41-.45.59-.51,1.3-.51,1.24,0,3.38.83,5.03,1.98,1.42.9,2.07,1.86,2.07,2.94,0,.45-.06.64-.24,1.41-.3.9-.53,3.58-.53,6.27q5.03-.77,13.27-1.73c.06-1.6.06-1.86.06-4.1,0-5.06-.24-7.04-1.01-8.13-.77-1.09-2.07-1.86-4.03-2.37.83-.51,1.48-.7,2.31-.7,1.54,0,3.79.58,5.63,1.47,1.36.64,2.07,1.54,2.07,2.5,0,.32-.06.51-.3,1.15-.65,1.73-1.01,5.06-1.12,9.79,4.56-.38,5.63-.64,7.17-1.34.77-.38,1.07-.45,1.66-.45,1.95,0,5.33,2.43,5.33,3.78,0,.64-.53,1.15-1.24,1.15-.24,0-.65,0-1.07-.06-2.43-.32-5.15-.51-6.93-.51h-2.19q-1.9.06-2.78.06c-.36,12.03-1.42,17.73-4.09,22.53-2.78,4.93-7.99,9.54-13.62,12.09l-.53-.9Z"/>
    <path d="M237.12,671.39c5.86-4.86,9.59-8.83,13.5-14.27,4.8-6.59,8.35-13.57,9.95-19.52-5.74.45-11.07,1.34-17.23,2.94-3.73.96-4.92,1.34-6.16,1.98-.95.51-1.18.58-1.78.58-2.07,0-5.45-4.61-5.45-7.42,0-.45.06-.64.36-1.09,1.36,2.56,2.96,3.71,5.15,3.71,2.31,0,12.32-1.34,20.02-2.75,3.2-.58,3.67-.7,4.86-1.47.41-.26.71-.38.95-.38.53,0,1.42.64,2.78,1.92,1.66,1.66,2.37,2.69,2.37,3.52,0,.51-.3,1.02-.89,1.6-.83.64-1.18,1.22-2.19,3.33-6.4,13.06-15.93,23.42-25.7,28.09l-.53-.77ZM236.35,621.86c2.01,2.5,3.79,3.46,6.34,3.46,3.97,0,11.13-1.66,13.38-3.07.47-.26.77-.38,1.24-.38,1.66,0,4.62,2.24,4.62,3.52,0,.77-.53,1.15-2.25,1.41-7.05,1.15-11.9,1.66-15.1,1.66-4.44,0-6.22-1.22-9.06-6.02l.83-.58Z"/>
    <path d="M287.09,672.41c8.41-5.7,15.69-12.74,21.02-20.48-.95-.13-1.3-.51-2.55-2.56-2.37-3.9-4.62-6.53-8.23-9.54-3.55,3.9-7.46,7.23-10.96,9.54l-.65-.96c4.2-3.9,7.76-8,11.43-13.25,3.73-5.38,5.86-9.47,5.86-11.14,0-1.47-1.01-2.5-3.79-3.84.59-.26.83-.32,1.3-.32,1.24,0,3.49.77,5.27,1.86,1.66.96,2.43,1.79,2.43,2.69s-.53,1.86-2.78,4.93c.71.19,1.07.26,1.66.26,1.36,0,3.44-.38,7.88-1.41,3.02-.7,3.55-.9,4.68-1.73.3-.19.65-.32.95-.32h.06c1.36.13,4.62,3.78,4.62,5.25,0,.45-.24.77-.83,1.28-.71.64-1.07,1.15-1.95,3.01-5.86,11.78-12.26,20.61-19.78,27.39-5.09,4.48-10.78,8.38-15.16,10.24l-.47-.9ZM309.89,632.03c-1.01.38-1.3.45-1.84.45-1.01,0-2.07-.51-3.55-1.73-2.07,3.01-3.97,5.44-6.28,8.06,5.39,2.43,7.05,3.39,9.12,5.5,1.72,2.05,2.43,3.46,2.49,5.25,3.85-5.5,8.59-14.85,10.07-19.97-2.25.26-5.45,1.02-10.01,2.43ZM322.57,617.76c2.19,1.41,3.73,2.56,5.15,3.97,2.07,2.11,2.9,3.58,2.9,5.12s-.71,2.69-1.66,2.69q-.77,0-2.67-4.16c-1.07-2.24-2.9-5.06-4.5-6.72l.77-.9ZM328.37,614.05c2.13,1.09,3.85,2.18,5.69,3.71,2.25,1.86,3.02,3.14,3.02,4.93,0,1.54-.59,2.62-1.48,2.62-.53,0-.89-.32-1.36-1.28-2.07-4.03-3.2-5.63-6.45-9.09l.59-.9Z"/>
    <path d="M375.5,625.12c.47,5.95,1.48,10.69,3.2,15.04,2.13-3.78,3.32-6.78,4.09-10.5q5.63,1.79,5.63,2.37c0,.58-.3.64-2.55.9-2.55,5.31-3.61,7.3-5.69,10.37,2.07,3.65,3.67,5.25,7.58,7.36,2.37-5.44,2.55-5.89,4.03-10.17l.77.13-1.42,8.32c0,.13-.06.38-.12.77-.06.45-.12.96-.12,1.28,0,.7.18.96.83,1.6.53.51.77.96.77,1.54,0,1.02-.83,1.86-1.9,1.86-1.6,0-4.2-1.22-6.75-3.2-2.19-1.66-3.91-3.65-5.8-6.66-3.08,3.71-5.74,5.89-11.07,8.96l-.53-.64c4.26-3.33,6.63-5.89,10.13-10.88-2.55-4.93-3.49-8.83-4.5-18.43h-21.97c-.24,12.35-.41,14.78-1.48,19.13-.83,3.46-2.37,7.1-4.2,10.17-.95,1.6-1.72,2.62-3.55,4.8l-.59-.7c2.37-4.48,3.55-7.68,4.56-12.29.95-4.48,1.24-8.89,1.24-19.77,0-2.69-.06-3.39-.35-5.76,2.13,1.15,2.78,1.54,4.8,2.94h21.44c-.12-1.28-.12-1.6-.18-2.24-.24-3.07-.35-3.65-.65-5.63,4.8.45,5.98.7,5.98,1.34,0,.45-.24.58-1.9,1.22.06,2.56.12,3.2.18,5.31h9.48q1.18-1.54,2.78-3.65c2.01,1.73,2.61,2.24,4.44,4.1.18.19.3.38.3.45,0,.26-.36.58-.59.58h-16.29ZM350.1,657.76v1.47c0,3.26-1.3,7.74-2.9,10.11-1.36,1.92-2.55,2.94-3.49,2.94-.89,0-1.6-1.66-1.6-3.78,0-1.22.24-1.6,1.72-2.24,1.48-.7,3.02-2.37,4.09-4.35.71-1.34,1.01-2.3,1.36-4.16h.83ZM364.67,631.39c1.12-1.6,1.48-2.05,2.66-3.58,1.84,1.73,2.37,2.3,4.09,4.03.18.19.24.38.24.51,0,.26-.24.51-.53.51h-15.4c-1.36,0-2.19.06-3.91.38l-.24-2.43q1.01.32,2.37.45c1.48.13,1.72.13,1.78.13h8.94ZM356.61,651.1c0,1.02-.35,1.15-3.08,1.15-.47,0-.65-.19-.77-.7.24-2.69.3-3.65.3-5.76,0-7.1,0-7.94-.3-10.43,1.95,1.15,2.49,1.54,4.26,2.82h7.99c.95-1.22,1.18-1.6,2.19-2.75,1.3,1.15,1.66,1.54,2.96,2.69.35.45.47.58.47.77,0,.38-.24.58-1.54,1.41l.12,8.83c-.06,1.09-.53,1.28-2.9,1.28-.53,0-.71-.13-.89-.58v-1.22h-8.82v2.5ZM355.07,659.81c0-1.66,0-2.3-.12-4.03,5.63.7,6.28.83,6.28,1.47,0,.45-.35.7-2.19,1.28v8.26c0,.9.06,1.15.24,1.34.3.26.59.32,2.37.38,1.01.06,4.62.13,5.39.13.65,0,6.81-.13,7.76-.19,1.66-.06,1.84-.19,2.61-1.86.83-1.86,1.42-3.65,2.61-8.13l.83.06-.71,7.87v.77q0,.64,1.48,1.09c.65.26,1.07.77,1.07,1.41,0,1.02-.83,1.86-2.01,2.05-1.54.32-8.94.58-14.75.58-6.63,0-8.17-.13-9.24-.77-1.13-.64-1.48-1.34-1.6-3.07-.06-.45-.06-.77-.06-1.02l.06-3.71v-3.9ZM356.61,647.14h8.82v-7.49h-8.82v7.49ZM363.54,655.14c2.55.58,4.74,1.34,7.7,2.75,1.72.77,2.49,1.92,2.49,3.46s-.53,2.62-1.13,2.62-.59-.06-2.37-2.24c-.71-.96-2.43-2.56-3.91-3.84-.83-.64-1.54-1.09-3.08-1.98l.3-.77ZM378.41,616.23c1.95.38,3.67.96,4.97,1.54,1.36.64,1.84,1.22,1.84,2.24,0,.58-.24,1.54-.53,2.11-.18.45-.47.64-.83.64-.41,0-.41-.06-1.07-1.02q-.06-.13-1.6-2.05c-.77-.96-1.54-1.66-3.14-2.88l.36-.58ZM383.26,657.31c2.78,1.79,4.38,2.94,6.63,5.06,2.43,2.18,3.14,3.14,3.14,4.42,0,.96-.53,3.07-.95,3.71-.3.58-.71.83-1.07.83-.18,0-.53-.19-.71-.45q-.35-.38-1.3-2.75c-1.66-3.84-3.26-6.53-6.34-10.3l.59-.51Z"/>
    <path d="M432.29,667.93q0,1.6,5.98,1.6c5.45,0,6.81-.19,7.34-1.02.53-.9,1.72-5.06,3.26-11.77l.95.06-.3,9.54c-.06.64-.06,1.09-.06,1.22,0,.96.06,1.02,1.48,1.66.47.19.77.7.77,1.28,0,.96-.41,1.54-1.36,1.92-1.3.51-5.09.83-10.72.83-7.94,0-9.53-.13-10.48-1.02-.65-.51-.77-1.28-.77-3.84v-11.26h-6.16c-1.42,6.85-3.73,10.37-8.65,13.18-3.49,1.92-7.52,3.01-14.33,3.84l-.18-1.09c12.44-3.2,17.59-7.49,18.95-15.93h-4.5v2.05c0,.77-.47.9-2.78.9-.95,0-1.12-.13-1.18-.77.12-4.42.12-6.08.12-9.66,0-11.33-.06-16-.24-18.69,2.25,1.09,2.9,1.47,4.97,2.88h22.03c1.01-1.22,1.3-1.6,2.31-2.82,1.3,1.02,1.72,1.34,2.96,2.5.59.51.83.83.83,1.15,0,.38-.3.7-1.42,1.6-.12,4.16-.12,6.46-.12,8.19q0,2.94.18,13.82c0,.51-.12.77-.3.9-.35.26-1.48.45-2.55.45-1.01,0-1.24-.13-1.24-.83v-1.66h-4.8v10.82ZM445.38,626.27l2.72-3.26c2.25,1.98,2.9,2.62,5.03,4.67.53.64.71.9.71,1.15,0,.7-.95.96-4.5,1.09-2.49,2.75-3.38,3.65-5.92,5.76l-.59-.45c1.66-3.2,2.19-4.48,3.2-7.49h-39.68c-.3,2.75-.83,4.74-1.66,6.66-.95,2.11-2.25,3.52-3.26,3.52s-1.9-1.66-1.9-3.58c0-.7.18-1.28.53-1.79.18-.19.36-.32,1.48-1.09,1.13-.77,2.19-2.05,2.84-3.46.53-1.28.77-2.43,1.07-5.06l1.01.06v3.26h27.18c2.25-3.71,3.91-6.91,5.09-9.98,5.86,1.73,6.63,2.05,6.63,2.69,0,.19-.18.45-.36.51-.36.13-1.24.26-2.67.32-3.67,3.78-4.5,4.54-6.93,6.46h9.95ZM409.2,616.23c2.31.96,4.32,2.11,6.22,3.52,1.07.83,1.48,1.47,1.48,2.37,0,1.66-1.18,3.65-2.19,3.65-.47,0-.77-.38-1.18-1.34-1.07-2.75-2.49-4.93-4.86-7.49l.53-.7ZM437.09,635.3h-23.57v5.76h23.57v-5.76ZM413.52,642.53v5.82h23.57v-5.82h-23.57ZM413.52,649.82v5.82h23.57v-5.82h-23.57ZM421.16,615.46c2.49,1.34,4.38,2.75,5.86,4.16.65.7,1.01,1.34,1.01,2.05,0,1.79-1.24,3.9-2.31,3.9-.53,0-.83-.38-1.36-2.05-.77-2.43-2.01-4.93-3.79-7.49l.59-.58Z"/>
    <path d="M484.75,668.64c6.4-2.05,10.48-4.67,13.86-8.89,3.49-4.29,5.27-9.54,5.27-15.42,0-6.21-2.31-11.14-6.69-14.14-2.61-1.86-6.51-2.94-10.24-2.94-.71,0-1.13,0-2.07.13,1.42,2.24,1.84,3.46,1.84,5.31,0,4.99-3.32,14.33-7.82,22.14-3.73,6.4-6.63,9.54-8.82,9.54-1.01,0-1.95-.51-2.61-1.34-.53-.77-.65-1.02-1.66-4.1-.53-1.66-.89-2.43-2.61-6.02-.95-2.05-1.36-3.78-1.36-5.82,0-4.03,2.01-8.77,5.33-12.67,4.8-5.5,12.61-8.96,20.37-8.96,5.98,0,11.49,2.11,15.28,5.89,3.79,3.78,5.69,8.83,5.69,15.04,0,8-4.32,15.1-11.78,19.39-3.43,1.98-6.51,3.01-11.55,3.97l-.41-1.09ZM465.27,648.74c0,3.07.89,6.21,2.37,8.45.83,1.15,1.6,1.86,2.25,1.86,1.3,0,4.15-3.46,7.05-8.45,4.38-7.55,7.52-15.81,7.52-19.78,0-.96-.18-1.6-.83-3.2-10.3,1.98-18.36,11.26-18.36,21.12Z"/>
    <path d="M517.26,662.37c5.8-4.93,10.96-11.2,14.57-17.73,1.84-3.39,2.43-4.93,2.43-6.33,0-1.02-.83-2.05-2.96-3.65.65-.19.89-.26,1.3-.26,1.07,0,3.08.9,4.86,2.18,2.01,1.47,2.84,2.43,2.84,3.46,0,.51-.18.9-.71,1.41-1.07.96-1.18,1.09-2.49,2.94-4.74,6.85-6.99,9.34-12.44,14.01-2.78,2.24-4.5,3.46-6.93,4.67l-.47-.7ZM549,634.27c6.22,4.03,11.84,9.41,15.57,14.91,1.84,2.69,2.49,4.48,2.49,6.85,0,2.62-.95,4.67-2.25,4.67-.83,0-1.07-.38-1.95-2.94-2.96-8.64-7.99-16.51-14.51-22.65l.65-.83ZM568.72,627.94c0,3.9-2.9,7.04-6.46,7.04s-6.51-3.2-6.51-7.04,2.9-6.98,6.51-6.98,6.46,3.14,6.46,6.98ZM557.71,627.94c0,2.69,2.07,4.93,4.56,4.93s4.5-2.18,4.5-4.93-2.01-4.86-4.5-4.86-4.56,2.18-4.56,4.86Z"/>
    <path d="M579.91,667.68c5.69-3.84,11.55-9.02,15.93-14.01,3.55-4.03,7.82-10.05,11.31-15.93,1.9-3.14,2.9-5.25,4.03-8.26-2.84.19-5.98.9-12.5,2.82-2.84.83-3.08.9-4.97,1.73-.3.13-.65.19-1.01.19-1.3,0-2.55-1.15-3.85-3.65-.83-1.47-1.24-2.82-1.24-3.84,0-.38.12-.7.41-1.28,1.72,3.33,2.96,4.29,5.57,4.29,1.95,0,7.94-.83,12.44-1.79,3.43-.7,4.5-1.09,5.57-1.79.65-.45.95-.58,1.36-.58,1.24,0,4.62,3.26,4.62,4.48,0,.45-.24.83-.77,1.22q-1.24.9-3.38,4.35-2.84,4.61-7.46,11.14c8.35,4.74,13.03,8,15.34,10.81,1.6,1.86,2.25,3.71,2.25,6.34,0,2.05-.59,3.33-1.6,3.33-.41,0-.89-.32-1.36-1.02q-.24-.32-1.42-2.56c-2.96-5.38-8.05-11.07-14.09-15.68-4.8,6.27-8.65,10.17-14.33,14.4-3.73,2.82-6.28,4.35-10.36,6.27l-.47-.96Z"/>
    <path d="M643.92,671.71c5.62-3.97,7.7-5.63,11.07-8.9,4.26-4.16,7.17-7.55,9.95-11.58-.95-.19-1.3-.51-2.55-2.56-2.49-4.03-4.44-6.34-8.23-9.54-4.2,4.48-7.34,7.23-10.96,9.54l-.65-.96c4.2-3.9,7.76-8,11.43-13.25,3.73-5.38,5.86-9.47,5.86-11.14,0-1.47-1.01-2.5-3.79-3.84.59-.26.83-.32,1.3-.32,1.24,0,3.49.77,5.27,1.86,1.66.96,2.43,1.86,2.43,2.69,0,.9-.53,1.86-2.78,4.93.71.19,1.07.26,1.66.26,1.36,0,3.43-.38,7.88-1.41,3.08-.7,3.61-.9,4.68-1.73.3-.19.65-.32.95-.32.77,0,1.78.64,3.32,2.18,1.01,1.02,1.6,1.98,1.6,2.62,0,.45-.24.77-.83,1.28-.71.64-.95,1.02-1.95,2.94-6.1,12.29-12.32,20.93-20.02,27.9-5.03,4.48-10.07,7.94-15.16,10.3l-.47-.96ZM672.17,629.79q-4.8,1.28-5.45,1.54c-1.01.38-1.3.45-1.84.45-1.01,0-2.07-.51-3.55-1.73-2.25,3.26-3.79,5.25-6.28,8.06q4.38,2.05,5.69,2.88c2.61,1.54,3.97,2.94,5.15,4.99.53,1.02.65,1.54.77,2.88,4.2-6.08,8.11-13.76,10.07-19.97-1.48.13-2.55.38-4.56.9Z"/>
    <path d="M711.19,646.37c-.12.58-1.01,4.61-2.67,12.03-.83,3.78-1.01,4.8-1.01,6.78,0,1.86-.06,2.37-.18,2.75-.24.7-.77,1.09-1.42,1.09-1.01,0-1.9-.9-2.55-2.62-1.3-3.33-2.07-8.51-2.07-13.63,0-1.92.18-4.29.47-6.85q.41-3.71,2.07-12.1c.59-3.01.83-4.61.83-5.95,0-2.11-.47-3.71-1.66-6.02,1.3.06,2.37.9,3.97,3.14,1.48,1.98,2.19,3.65,2.19,5.06,0,1.02-.06,1.28-1.24,3.84-1.18,2.69-2.61,7.17-3.2,10.17-.53,2.43-.77,5.18-.77,7.94,0,3.52.3,5.76,1.12,8.45,1.01-2.24,1.48-3.52,2.13-5.44l3.14-8.96.83.32ZM718.65,649.57c-.12,1.28-.18,1.86-.18,2.69,0,7.04,3.73,9.92,12.91,9.92,1.72,0,3.44-.13,5.03-.45q1.24-.19,3.14-1.02c.36-.13.65-.19.89-.19,1.54,0,3.73,2.24,3.73,3.78,0,.77-.47,1.28-1.3,1.6-1.24.45-4.09.7-7.4.7-7.4,0-12.67-1.34-15.34-3.9-2.13-2.11-3.2-4.8-3.2-8.32,0-1.6.18-3.01.71-5.06l1.01.26ZM718.54,629.22c2.07,1.34,3.38,1.73,5.51,1.73,3.67,0,9.42-1.41,11.9-2.88.77-.45.89-.51,1.3-.51.47,0,1.24.32,2.07.9,1.24.77,1.84,1.54,1.84,2.37s-.41,1.22-1.66,1.47c-3.91.64-6.1,1.22-8.41,2.24-1.84.83-5.27,2.88-7.64,4.54l-.59-.64c2.67-2.43,4.68-4.22,5.63-4.99-1.24.06-1.9.13-2.43.13-3.32,0-5.51-.96-8.05-3.58l.53-.77Z"/>
    <path d="M759.27,629.67c2.84,2.88,4.5,3.71,7.46,3.71,1.54,0,3.14-.26,5.39-.77,1.48-4.16,2.13-6.85,2.13-9.09,0-2.11-.95-3.39-3.79-4.93.65-.38.95-.45,1.42-.45,1.18,0,3.02.58,4.74,1.47,2.01,1.09,2.78,1.79,2.78,2.69,0,.51-.12.9-.59,1.66-.24.51-1.48,3.14-3.61,7.87,4.38-1.66,4.92-1.98,6.57-3.52.47-.45.65-.51,1.24-.51,2.31,0,4.03.83,4.03,1.92,0,1.66-3.67,3.26-13.09,5.63-.53,1.28-1.54,3.9-3.14,7.74-1.78,4.42-6.34,15.17-6.87,16.25-.89,1.73-1.42,2.3-2.13,2.3-1.01,0-1.84-1.98-1.84-4.54,0-1.28.12-1.66.65-2.3,1.3-1.54,2.01-2.5,2.84-3.84,2.9-4.67,5.03-9.02,7.4-15.04-1.3.19-1.84.26-2.78.26-2.13,0-3.73-.38-5.21-1.34-1.78-1.09-3.14-2.62-4.32-4.67l.71-.51ZM790.6,633.25c4.09.38,7.4,1.54,10.13,3.52,2.31,1.6,3.73,3.52,3.73,4.99,0,1.09-.59,1.86-1.54,1.86-.47,0-.83-.13-1.36-.51-1.66-1.09-2.78-1.34-5.8-1.34-4.74,0-6.22,1.41-6.22,5.82,0,1.73.3,4.48,1.18,11.01,3.61,1.15,6.69,2.69,8.41,4.16,1.6,1.34,2.37,3.01,2.37,5.06,0,1.28-.47,2.18-1.18,2.18-.59,0-.83-.19-2.07-1.66-2.13-2.5-4.09-4.03-7.17-5.63v1.22c0,2.56-.47,4.03-1.66,5.44-1.6,1.73-4.38,2.75-7.7,2.75-5.33,0-9-2.75-9-6.78,0-4.48,4.5-7.62,11.07-7.62,1.36,0,2.01.06,3.55.32-.18-5.06-.18-5.57-.18-6.33,0-5.25.47-7.23,2.07-9.15,1.18-1.34,2.84-2.24,5.63-3.01.89-.26,1.01-.32,3.2-.83-1.6-1.86-3.44-2.88-7.64-4.42l.18-1.02ZM787.4,661.28c-1.84-.58-3.2-.77-5.09-.77-5.03,0-8.11,1.86-8.11,4.86,0,2.37,2.25,3.78,5.92,3.78,4.8,0,7.28-2.11,7.28-6.14v-1.73Z"/>
    <path d="M834.48,668.13c7.4-1.66,12.26-3.9,16.4-7.74,3.26-2.88,4.97-6.53,4.97-10.37,0-5.57-3.55-9.28-8.82-9.28-5.74,0-13.38,3.33-19.66,8.7-1.12.9-1.66,1.22-2.37,1.22-2.19,0-5.74-4.61-5.74-7.55,0-.32.12-.64.42-1.28.95,2.3,2.25,3.52,3.67,3.52.77,0,2.19-.51,5.21-1.79,5.33-2.3,10.13-3.9,13.5-4.54,1.42-.26,2.72-.38,4.62-.38,7.76,0,13.21,5.12,13.21,12.42,0,4.54-2.49,9.22-6.4,12.03-4.74,3.46-9.95,5.18-18.77,6.27l-.24-1.22Z"/>
    <path d="M878.29,631.46c.83.83,1.48,1.09,2.67,1.09,1.66,0,3.14-.32,16.4-3.78,2.49-.64,5.68-1.41,9.59-2.24,4.5-.96,6.22-1.41,8-2.05,1.18-.38,1.6-.51,2.07-.51.71,0,2.01.58,3.2,1.34,1.18.83,1.72,1.54,1.72,2.43,0,.96-.71,1.6-1.84,1.6-.24,0-.65,0-1.07-.06-.77-.13-1.07-.13-1.66-.13-10.13,0-19.9,10.43-19.9,21.18,0,5.89,2.72,10.24,7.82,12.61,1.95.9,4.32,1.47,6.04,1.54,1.18,0,1.6.19,2.49,1.02,1.07,1.15,1.78,2.3,1.78,3.07,0,1.09-.89,1.79-2.19,1.79-3.38,0-8.71-2.05-12.02-4.61-4.5-3.46-6.87-8.38-6.87-14.33,0-5.18,2.37-10.88,6.46-15.61,2.37-2.82,4.74-4.54,9.65-7.3-5.39.83-10.25,2.05-17,4.42-3.73,1.28-7.58,3.01-9.47,4.1-1.18.77-1.6.9-2.37.9-1.42,0-3.2-1.47-4.56-3.78-.95-1.54-1.54-3.26-1.54-4.29,0-.51.12-.9.65-1.66.53,1.54,1.01,2.37,1.95,3.26Z"/>
    <path d="M956.28,644.45c-4.32,10.75-5.57,14.53-5.57,17.09q0,.51.36,2.18c.06.32.12.7.12,1.02,0,.9-.59,1.6-1.3,1.6-1.66,0-4.68-2.5-6.51-5.44-2.01-3.14-3.43-7.68-4.03-12.8-.36-2.82-.41-4.42-.41-11.26-.06-5.95-.47-7.42-3.02-11.01h.53c.95,0,2.67,1.22,4.44,3.14,1.78,1.86,2.67,3.58,2.67,5.06,0,.38-.06.9-.18,1.66-.71,3.9-1.07,6.91-1.07,9.54,0,3.46.47,6.66,1.36,9.28s1.6,3.78,3.08,4.99q.65-1.02,1.95-3.39,1.9-3.46,4.97-9.02.95-1.66,1.72-3.07l.89.45ZM968.9,632.86c7.46,1.79,13.38,10.3,13.38,19.13,0,3.07-1.18,5.06-2.96,5.06-.59,0-.95-.13-1.78-.7-.77-.58-1.89-.77-4.44-.77-1.36,0-2.49,0-4.5.13l-.18-.96c4.8-1.41,7.46-2.24,7.99-2.43,1.18-.45,1.36-.7,1.36-1.92,0-2.37-.83-6.08-1.84-8.38-1.6-3.71-3.97-6.4-7.34-8.38l.3-.77Z"/>
    <path d="M999.39,628.9c3.14,2.82,5.03,3.46,9.53,3.46,2.55,0,4.86-.19,8.47-.77-.24-9.79-.65-10.69-5.15-11.39.83-.9,1.3-1.02,2.96-1.02s3.61.32,4.97.83c1.42.51,2.01,1.15,2.01,2.11q0,.38-.77,2.18c-.53,1.22-.89,3.46-1.07,6.78,5.86-1.22,9.06-2.3,11.01-3.78.18-.13.53-.26.71-.26.71,0,2.43.58,3.08,1.09.65.45,1.01.96,1.01,1.54,0,.9-.95,1.41-4.62,2.37-4.03,1.02-7.76,1.79-11.31,2.24-.06,1.66-.06,2.62-.06,4.1,0,1.73,0,3.01.06,5.82,2.43-.45,4.74-1.02,6.75-1.73,1.54-.58,1.84-.77,2.96-1.6.24-.19.53-.26.89-.26.83,0,2.31.45,3.02.96.47.26.71.7.71,1.22,0,1.15-.83,1.66-4.56,2.75-2.96.83-6.81,1.6-9.65,1.86.12,2.5.12,3.52.18,5.76.12,2.43.18,3.39.36,4.99,5.45,1.09,10.66,3.26,13.03,5.5,1.12,1.09,1.72,2.56,1.72,4.22,0,1.34-.53,2.24-1.3,2.24-.59,0-.83-.19-2.37-1.79-1.01-1.02-3.26-2.88-4.97-3.97-2.01-1.28-3.49-1.98-5.92-2.69.12,1.41.18,2.05.18,2.82,0,2.5-.65,4.16-2.01,5.38-1.66,1.47-4.74,2.37-7.94,2.37-5.92,0-10.01-2.82-10.01-6.85,0-4.54,5.51-7.74,13.38-7.74.95,0,1.54,0,2.96.06-.06-3.07-.06-3.52-.06-4.42v-5.57c-2.37.13-3.49.19-4.38.19-3.85,0-6.46-.45-7.88-1.41-1.72-1.09-2.67-2.88-2.67-4.86,0-.45.06-1.09.12-1.79l.89.06c.06,1.98.36,2.88,1.24,3.65.95.9,3.49,1.41,6.93,1.41,1.66,0,3.08-.13,5.74-.45v-4.48l-.12-4.67v-.77c-3.26.32-5.63.45-7.64.45-5.63,0-8.05-1.22-11.01-5.5l.59-.64ZM1012.54,660.38c-2.31,0-4.62.45-6.45,1.22-2.13.9-3.2,2.18-3.2,3.84,0,2.3,2.43,3.65,6.46,3.65,2.9,0,5.33-.83,6.75-2.3.77-.77,1.12-1.73,1.3-3.33.06-.45.12-1.92.12-2.43v-.19c-2.31-.32-3.38-.45-4.97-.45Z"/>
    <path d="M1068.26,672.73c6.87-5.06,9.77-9.15,11.25-16-1.36.9-2.43,1.28-3.79,1.28-4.14,0-7.28-3.97-7.28-9.21,0-5.63,3.26-9.79,7.64-9.79,1.12,0,1.78.19,3.32,1.09,0-1.09.06-4.61.06-6.66,0-.13,0-.7-.06-1.28-4.62.45-10.13,1.66-14.92,3.2-1.48.51-2.49.96-3.85,1.73-.36.13-1.01.32-1.36.32-1.07,0-2.43-.9-3.79-2.43-1.3-1.54-2.37-3.65-2.37-4.67,0-.13.12-.45.3-.77,1.54,2.18,3.38,3.26,5.74,3.26,1.18,0,2.49-.13,5.09-.58,6.99-1.22,9.12-1.54,15.16-2.24,0-3.84-.18-5.7-.65-7.1-.65-1.79-2.07-2.69-5.09-3.14.71-.96,1.12-1.15,2.72-1.15,2.01,0,4.03.32,5.75.9,1.42.51,2.25,1.34,2.25,2.24,0,.51-.06.64-.59,1.73-.65,1.34-1.07,3.14-1.3,6.21q1.54-.19,3.85-.38c5.69-.45,6.34-.58,7.88-1.15,1.48-.64,1.72-.7,2.19-.7,1.18,0,3.55,1.09,5.03,2.37.71.58.95,1.02.95,1.73s-.42,1.09-1.3,1.09c-.42,0-.53,0-3.2-.38-3.08-.45-5.63-.64-9.12-.64-2.19,0-3.91.06-6.34.26-.24,2.43-.42,6.33-.42,8.7,0,.45,0,1.22.06,2.18,1.48,3.26,1.89,5.25,1.89,8.51,0,6.27-2.31,12.09-6.4,16.25-2.25,2.3-5.15,4.35-8.82,6.08l-.47-.83ZM1075.78,640.54c-2.67,0-4.74,3.01-4.74,6.91s2.01,6.97,4.8,6.97c2.55,0,3.79-2.05,3.79-6.01,0-5.31-1.24-7.87-3.85-7.87Z"/>
    <path d="M1140.56,665.31c0,2.43-1.72,4.29-3.97,4.29s-3.97-1.86-3.97-4.29,1.72-4.29,3.97-4.29,3.97,1.79,3.97,4.29ZM1135.53,655.65c-.24-10.56-1.24-24.77-2.07-29.76-.18-.83-.24-1.6-.24-2.18,0-1.47,1.18-2.24,3.38-2.24,2.31,0,3.43.7,3.43,2.3,0,.51-.06,1.28-.18,2.11-.89,6.02-1.96,21.18-2.19,29.76h-2.13Z"/>
  </g>
  <rect class="st2" x="163.99" y="677.6" width="291.98" height="2.94"/>
</svg>