<?xml version="1.0" encoding="UTF-8"?>
<svg id="_レイヤー_1" data-name="レイヤー_1" xmlns="http://www.w3.org/2000/svg" version="1.1" viewBox="0 0 1280 1024">
  <!-- Generator: Adobe Illustrator 29.8.1, SVG Export Plug-In . SVG Version: 2.1.1 Build 2)  -->
  <defs>
    <style>
      .st0 {
        fill: none;
      }

      .st1 {
        fill: #ff3109;
        stroke: #000;
        stroke-miterlimit: 10;
      }

      .st2 {
        opacity: .02;
      }

      .st3 {
        display: none;
      }
    </style>
  </defs>
  <g class="st3">
    <rect class="st0" x="657.29" y="624.21" width="7.13" height="312.06"/>
  </g>
  <g>
    <path d="M254.8,373.69v43.06c-.07,1.01-.72,1.22-3.82,1.22-.86,0-1.22-.22-1.22-.86.36-9.43.43-19.66.43-46.8,0-7.92-.07-12.53-.22-18.58,2.52,1.15,3.31,1.58,5.69,3.1h14.19c1.15-1.51,1.51-1.94,2.59-3.46,1.87,1.3,2.45,1.66,4.18,3.02.5.43.65.72.65,1.01,0,.5-.5.86-2.3,1.87v3.6c0,2.59,0,4.61.22,15.27,0,.58-.14.72-.72.86-.36.14-1.94.29-2.81.29s-1.22-.29-1.22-.86v-2.74h-15.63ZM270.43,356.48h-15.63v6.77h15.63v-6.77ZM270.43,364.91h-15.63v7.13h15.63v-7.13ZM288.93,394.58h3.96c1.44-1.87,1.94-2.38,3.38-4.1,2.3,2.09,3.1,2.81,5.47,5.04.07.14.14.29.14.43s-.22.29-.43.29h-12.53v3.67c0,5.47,0,7.42.22,14.11v.22c0,.79-1.08,1.15-3.53,1.15-.79,0-1.22-.29-1.22-.86v-.22c.07-2.09.07-6.84.14-14.11v-3.96h-10.15c-.72,5.91-1.8,8.93-4.39,12.24-2.88,3.6-5.98,5.83-11.23,8.07l-.72-.86c5.04-3.17,8.06-6.26,10.15-10.58,1.15-2.38,1.51-3.96,1.94-8.86h-4.97c-2.38,0-4.18.14-5.83.43l-.65-2.66c1.87.43,3.53.58,6.48.58h5.11c.14-2.52.22-4.75.22-6.84,0-1.66,0-2.02-.07-3.67h-4.1c-2.52,0-3.46.07-5.33.36l-.65-2.66c1.94.5,3.38.65,5.98.65h24.34c1.51-1.8,1.94-2.38,3.31-4.18,2.52,2.09,3.31,2.81,5.69,4.97.14.22.22.36.22.5s-.29.36-.5.36h-10.44v10.51ZM274.82,384.06v3.31c0,2.59-.07,4.25-.29,7.2h10.01v-10.51h-9.72ZM288.93,373.69v2.38c-.07.58-.22.79-.65.94-.5.07-1.87.22-2.95.22-.94,0-1.22-.22-1.22-.94.22-5.18.22-6.62.22-12.17,0-7.42-.07-9.15-.29-12.39,2.38,1.3,3.1,1.66,5.26,3.1h14.4c1.3-1.51,1.66-2.02,2.95-3.53,1.8,1.3,2.3,1.66,4.18,2.88.65.5.94.79.94,1.08,0,.43-.36.79-2.02,1.94v33.48l.14,21.6c-.14,1.87-.65,2.74-2.52,3.82-1.37.79-2.81,1.22-5.98,1.73-.36-3.31-1.51-3.96-8.5-5.11v-1.08c7.13.22,7.27.22,8.57.22h2.38c.79-.07.79-.14.79-1.58v-36.58h-15.7ZM304.63,356.48h-15.7v6.77h15.7v-6.77ZM304.63,364.91h-15.7v7.13h15.7v-7.13Z"/>
    <path d="M318.52,381.47c1.73.36,3.31.58,4.9.58h5.4c1.01-1.37,1.37-1.8,2.52-3.1,1.87,1.22,2.45,1.66,4.18,3.02.5.43.72.72.72.94,0,.43-.5,1.01-2.09,2.09v17.57c1.15,2.45,2.16,3.53,4.54,4.9,3.74,2.09,7.49,2.81,14.62,2.81,13.54,0,25.49-.43,32.91-1.15v1.15c-2.52.5-3.6,1.66-4.32,4.75-2.59,0-4.54,0-12.89.14-3.02.07-5.76.07-8.21.07-12.82,0-16.71-.65-21.17-3.67-3.6-2.38-5.54-4.68-7.56-9-2.45,3.74-5.98,7.99-8.64,10.51.07.58.14,1.01.14,1.3.07.29.07.65.07.86,0,.65-.36,1.08-.94,1.08s-1.58-1.58-4.54-7.2c5.18-2.23,8.86-4.39,11.16-6.55v-18.87h-5.9c-1.51,0-2.38.07-4.18.5l-.72-2.74ZM320.97,354.04c2.74,1.66,4.9,3.24,8.14,5.83,2.52,2.09,3.31,3.31,3.31,5.33,0,2.52-1.3,5.18-2.45,5.18-.94,0-1.51-.79-2.3-3.02-1.58-4.46-3.96-8.35-7.63-12.6l.94-.72ZM376.41,355.69c1.22-1.73,1.58-2.23,2.95-3.89,2.88,2.09,3.74,2.74,6.34,4.82.29.29.43.43.43.65s-.14.36-.36.43c-.14.07-.58.22-1.3.36-1.01.14-1.22.22-2.3.5-1.87,1.87-2.45,2.38-4.75,4.32,1.15.86,1.73,1.37,3.31,2.66.36.36.5.65.5.86,0,.29-.36.5-.79.5h-17.43v5.9h10.23c1.01-1.37,1.37-1.73,2.52-2.95,1.94,1.3,2.59,1.66,4.39,2.95.43.43.65.65.65.79,0,.43-.72,1.01-2.38,2.02,0,9.43,0,10.73.22,17.57-.22.58-.65.72-2.16.79-.58,0-1.01,0-1.37.07h-.22c-.72,0-1.01-.22-1.08-.86v-1.3h-10.66v6.91h11.52c1.66-1.73,2.23-2.23,3.82-3.89,2.59,1.8,3.38,2.38,5.83,4.39.29.29.43.58.43.72,0,.29-.36.43-1.08.43h-20.52c.07.79.07,1.44.07,1.8,0,2.23,0,2.66.14,4.97v.14c0,.72-1.08,1.08-3.1,1.08-1.3,0-1.66-.22-1.73-.94q.07-5.47.07-7.06h-14.4c-2.66,0-3.53.07-5.76.5l-.65-2.88c1.58.36,4.75.72,6.41.72h14.4v-6.91h-10.44v3.02c-.14.43-.36.58-.94.65-.79.14-2.02.22-2.59.22-1.01,0-1.37-.29-1.37-1.08.22-4.9.29-8.35.29-12.17,0-5.26-.07-10.58-.22-12.75,2.38,1.22,3.1,1.58,5.33,3.02h9.94v-5.9h-10.95q-3.24.14-4.1.43l-.86-2.59c1.58.36,3.31.5,4.97.5h10.95c-.07-3.46-.07-4.1-.36-6.26q7.49.79,7.49,1.44c0,.65-.72,1.15-2.74,1.73v3.1h9.29c1.15-1.73,1.51-2.23,2.88-3.96l1.01.65c.5-1.51.72-2.3,1.22-4.61h-32.98c-.43,2.81-.79,4.1-1.73,5.62-1.22,2.02-2.88,3.46-4.03,3.46-.65,0-1.08-.43-1.44-1.44-.29-.72-.58-2.23-.58-2.81,0-1.08.29-1.37,2.52-2.81,2.09-1.37,3.82-4.39,4.25-7.56h1.01c.14,1.22.14,1.73.14,2.59v1.3h31.83ZM358.63,374.49h-10.44v6.7h10.44v-6.7ZM358.63,382.84h-10.44v7.42h10.44v-7.42ZM373.82,374.49h-10.73v6.7h10.73v-6.7ZM373.82,382.84h-10.73l.07,7.42h10.66v-7.42Z"/>
    <path d="M390.95,403.58c7.06-5.54,13.32-12.6,17.71-19.95,2.23-3.82,2.95-5.54,2.95-7.13,0-1.15-1.01-2.3-3.6-4.1.79-.22,1.08-.29,1.58-.29,1.3,0,3.74,1.01,5.9,2.45,2.45,1.66,3.46,2.74,3.46,3.89,0,.58-.22,1.01-.86,1.58-1.3,1.08-1.44,1.22-3.02,3.31-5.76,7.71-8.5,10.51-15.12,15.77-3.38,2.52-5.47,3.89-8.42,5.26l-.58-.79ZM429.55,371.97c7.56,4.54,14.4,10.58,18.94,16.78,2.23,3.02,3.02,5.04,3.02,7.71,0,2.95-1.15,5.26-2.74,5.26-1.01,0-1.3-.43-2.38-3.31-3.6-9.72-9.72-18.58-17.64-25.49l.79-.94ZM453.53,364.84c0,4.39-3.53,7.92-7.85,7.92s-7.92-3.6-7.92-7.92,3.53-7.85,7.92-7.85,7.85,3.53,7.85,7.85ZM440.13,364.84c0,3.02,2.52,5.54,5.54,5.54s5.47-2.45,5.47-5.54-2.45-5.47-5.47-5.47-5.54,2.45-5.54,5.47Z"/>
    <path d="M467.13,409.55c6.91-4.32,14.04-10.15,19.37-15.77,4.32-4.54,9.5-11.3,13.75-17.93,2.3-3.53,3.53-5.9,4.9-9.29-3.46.22-7.27,1.01-15.19,3.17-3.46.94-3.74,1.01-6.05,1.94-.36.14-.79.22-1.22.22-1.58,0-3.1-1.3-4.68-4.1-1.01-1.66-1.51-3.17-1.51-4.32,0-.43.14-.79.5-1.44,2.09,3.74,3.6,4.82,6.77,4.82,2.38,0,9.65-.94,15.12-2.02,4.18-.79,5.47-1.22,6.77-2.02.79-.5,1.15-.65,1.66-.65,1.51,0,5.62,3.67,5.62,5.04,0,.5-.29.94-.94,1.37q-1.51,1.01-4.1,4.9-3.46,5.18-9.07,12.53c10.15,5.33,15.84,9,18.65,12.17,1.94,2.09,2.74,4.18,2.74,7.13,0,2.3-.72,3.74-1.94,3.74-.5,0-1.08-.36-1.66-1.15q-.29-.36-1.73-2.88c-3.6-6.05-9.79-12.46-17.14-17.64-5.83,7.06-10.51,11.45-17.43,16.2-4.54,3.17-7.63,4.9-12.6,7.06l-.58-1.08Z"/>
    <path d="M544.96,414.09c6.84-4.46,9.36-6.34,13.47-10.01,5.18-4.68,8.71-8.5,12.1-13.03-1.15-.22-1.58-.58-3.1-2.88-3.02-4.54-5.4-7.13-10.01-10.73-5.11,5.04-8.93,8.14-13.32,10.73l-.79-1.08c5.11-4.39,9.43-9,13.9-14.91,4.54-6.05,7.13-10.66,7.13-12.53,0-1.66-1.22-2.81-4.61-4.32.72-.29,1.01-.36,1.58-.36,1.51,0,4.25.86,6.41,2.09,2.02,1.08,2.95,2.09,2.95,3.02,0,1.01-.65,2.09-3.38,5.54.86.22,1.3.29,2.02.29,1.66,0,4.18-.43,9.58-1.58,3.74-.79,4.39-1.01,5.69-1.94.36-.22.79-.36,1.15-.36.94,0,2.16.72,4.03,2.45,1.22,1.15,1.94,2.23,1.94,2.95,0,.5-.29.86-1.01,1.44-.86.72-1.15,1.15-2.38,3.31-7.42,13.83-14.98,23.55-24.34,31.39-6.12,5.04-12.24,8.93-18.43,11.59l-.58-1.08ZM579.31,366.93q-5.83,1.44-6.62,1.73c-1.22.43-1.58.5-2.23.5-1.22,0-2.52-.58-4.32-1.94-2.74,3.67-4.61,5.9-7.63,9.07q5.33,2.3,6.91,3.24c3.17,1.73,4.82,3.31,6.26,5.62.65,1.15.79,1.73.94,3.24,5.11-6.84,9.87-15.48,12.24-22.47-1.8.14-3.1.43-5.54,1.01Z"/>
    <path d="M646.56,384.71c0,3.67-2.95,6.62-6.55,6.62s-6.62-2.95-6.62-6.62,2.95-6.55,6.62-6.55,6.55,2.95,6.55,6.55Z"/>
    <path d="M696.59,384.64c-.5,6.34-1.87,11.38-4.32,15.77-1.73,3.02-3.31,4.54-4.97,4.54-1.3,0-2.16-1.73-2.16-4.18,0-1.44.36-2.09,1.8-2.88,3.74-2.16,7.56-8.21,8.35-13.39l1.3.14ZM688.82,371.46c2.45,3.02,4.25,3.89,8.42,3.89,2.16,0,6.19-.36,12.38-1.22v-1.66c0-6.77-.14-8.35-1.01-9.79-.72-1.37-1.87-2.09-4.83-3.1.65-.65,1.22-.86,2.16-.86,1.44,0,4.32.65,6.26,1.44,2.38,1.01,3.53,2.02,3.53,3.24,0,.72-.14,1.08-.79,2.23-.86,1.66-1.08,3.02-1.44,7.85,5.26-.65,11.59-2.45,12.67-3.53.58-.43.94-.58,1.3-.58.94,0,2.52.43,3.89,1.08,1.8.86,2.74,1.73,2.74,2.59,0,.94-.86,1.3-3.31,1.58q-3.1.36-9.14,1.22c-4.46.65-7.2,1.01-8.21,1.15-.07,3.75-.07,4.32-.07,6.05,0,8.5.22,13.68.79,19.44.07.79.07,1.51.07,2.38,0,2.3-.29,3.74-1.22,5.76-.79,1.87-1.66,2.66-2.88,2.66-.94,0-1.51-.65-2.09-2.3-.72-2.16-1.73-3.02-7.78-6.7-1.87-1.15-1.94-1.15-3.46-2.16l.36-.79c5.18,1.73,6.98,2.23,12.03,3.24.29-4.75.36-7.56.5-27.22-3.46.5-9,.94-11.31.94-5.54,0-8.14-1.58-10.51-6.27l.94-.58ZM723.6,383.42c5.33,3.38,8.86,6.19,11.23,9.07,1.73,2.09,2.23,3.31,2.23,5.33,0,3.02-1.3,5.69-2.74,5.69-.79,0-.94-.22-2.16-3.82-2.02-5.98-5.33-11.52-9.29-15.48l.72-.79ZM726.55,354.9c2.66,1.51,4.61,2.88,6.41,4.46,2.59,2.38,3.6,4.03,3.6,5.76s-1.01,3.02-2.23,3.02q-.94,0-3.17-4.68c-1.3-2.52-3.6-5.69-5.54-7.56l.94-1.01ZM733.96,350.72c2.59,1.22,4.68,2.45,6.91,4.18,2.74,2.09,3.67,3.53,3.67,5.54,0,1.73-.72,2.95-1.8,2.95-.65,0-1.08-.36-1.66-1.44-2.52-4.54-3.89-6.34-7.85-10.23l.72-1.01Z"/>
    <path d="M760.96,364.05c6.91,1.73,11.09,3.38,13.9,5.4,1.66,1.15,2.45,2.74,2.45,4.9,0,2.38-.79,4.03-2.02,4.03-.79,0-1.15-.36-3.1-2.88-3.53-4.68-6.12-7.06-11.74-10.58l.5-.86ZM812.16,368.15c-3.6,6.77-7.99,12.46-15.12,19.37-6.62,6.41-11.09,10.01-20.23,16.42-3.38,2.38-3.74,2.66-4.25,3.31-1.15,1.37-1.58,1.73-2.52,1.73-2.95,0-8.42-6.91-8.42-10.58,0-.43.07-.72.36-1.44,1.44,2.16,1.58,2.3,2.59,3.17,1.08,1.01,2.09,1.51,2.88,1.51,1.22,0,3.46-.94,6.99-3.02,8.06-4.68,10.87-6.7,17.21-11.88,8.86-7.2,13.18-11.59,19.37-19.23l1.15.65Z"/>
    <path d="M837.64,371.03c1.15.79,2.23,1.08,4.1,1.08,1.44,0,2.88-.07,5.04-.36q19.66-2.3,21.24-3.02c.72-.29,1.08-.43,1.37-.43.72,0,2.38,1.01,4.18,2.66,1.73,1.58,2.59,2.66,2.59,3.46,0,.5-.22.79-.72,1.3-.79.79-1.15,1.66-1.8,4.46-.36,1.66-1.08,5.18-3.31,17.07l.58.58c2.09,1.73,2.52,2.38,2.52,3.46,0,.65-.58,1.08-1.66,1.08q-.29,0-1.8-.22c-2.09-.29-4.03-.43-6.26-.43-8.35,0-19.01,1.66-23.19,3.6-.43.22-1.08.36-1.44.36-2.38,0-6.7-5.4-6.7-8.42,0-.36.07-.65.36-1.3,2.3,3.24,4.1,4.39,6.77,4.39.43,0,5.04-.43,13.9-1.3,6.26-.65,7.13-.65,12.31-.94.72-3.53,1.15-6.48,1.94-13.25.36-2.95,1.01-9.94,1.01-10.87,0-1.01-.5-1.3-2.02-1.3-1.01,0-7.34.58-9.65.86-5.11.65-9.86,1.73-14.83,3.38-.43.14-.86.22-1.3.22-1.51,0-3.1-1.3-4.82-3.89-1.08-1.66-1.8-3.31-1.8-4.32,0-.29.07-.65.36-1.3.94,1.51,1.8,2.45,3.02,3.38ZM872.35,357.06c2.66,1.51,4.61,2.88,6.41,4.46,2.59,2.38,3.6,4.03,3.6,5.76s-1.01,3.02-2.23,3.02q-.94,0-3.24-4.68c-1.3-2.52-3.53-5.69-5.47-7.56l.94-1.01ZM879.69,352.88c2.59,1.22,4.68,2.45,6.91,4.18,2.74,2.09,3.67,3.53,3.67,5.54,0,1.73-.72,2.95-1.8,2.95-.65,0-1.08-.36-1.66-1.44-2.52-4.54-3.89-6.34-7.85-10.23l.72-1.01Z"/>
    <path d="M955.08,378.95c-3.96,5.54-6.26,8.21-10.73,12.24-6.48,5.9-13.39,10.58-21.75,14.69-4.03,2.09-4.1,2.09-5.4,3.46-.58.65-1.08.94-1.66.94-1.44,0-4.75-4.25-4.75-6.19q0-.36.36-1.3c.5-1.58.58-3.24.58-11.02,0-15.91-.36-22.9-1.3-25.56-.65-1.8-1.8-2.66-4.97-3.74.86-.58,1.37-.72,2.23-.72,1.51,0,3.74.65,5.76,1.73,2.81,1.51,4.25,2.95,4.25,4.39q0,.43-.36,1.51c-.36,1.15-.72,3.82-.94,7.13-.36,4.39-.79,17.5-.79,22.83v3.6c10.37-3.82,16.78-7.13,24.55-12.75,5.47-3.96,10.44-8.28,13.97-12.1l.94.86Z"/>
    <path class="st1" d="M966.45,414.81c2.45-7.78,2.74-8.79,3.67-13.25,1.22-5.54,1.44-6.98,1.58-10.37,6.7,1.58,6.77,1.66,6.77,2.23,0,.5-.79.86-2.3,1.08-2.66,8.93-4.39,13.25-8.5,20.81l-1.22-.5ZM967.96,361.89c2.67,1.37,3.67,1.94,5.54,3.1,2.59-4.75,4.46-8.93,5.98-13.61,6.91,2.45,7.49,2.74,7.49,3.31s-1.01.94-2.59.94h-.79c-3.6,4.61-5.33,6.62-8.79,10.23,2.88,2.02,4.1,3.53,4.1,5.11,0,1.8-1.3,4.03-2.3,4.03-.5,0-.79-.36-1.66-2.16-1.94-3.82-3.53-5.83-7.63-9.87l.65-1.08ZM979.84,385q-6.48,1.22-9.07,1.66c-.58,1.8-.86,2.23-1.37,2.23-.72,0-1.15-1.3-2.09-6.62,2.02.14,2.81.22,3.6.22q.58,0,3.24-.14c3.96-5.18,4.1-5.33,6.19-8.57,3.17-4.82,5.4-8.86,7.27-13.03,6.05,2.3,6.91,2.74,6.91,3.31,0,.65-.79.86-2.88.86h-.5c-4.82,6.55-9.72,12.24-14.98,17.28,8.64-.43,10.08-.5,14.11-1.01-1.15-2.74-1.8-3.96-3.53-6.7l.86-.43c5.98,4.97,8.5,8.14,8.5,10.8,0,1.87-1.51,4.25-2.59,4.25-.65,0-.94-.43-1.3-2.09-.22-1.01-.65-2.3-1.44-4.54-2.81.86-3.38,1.01-6.41,1.66v16.2q0,5.11.29,15.77v.29c0,.36-.14.5-.65.65-1.01.29-2.09.43-3.24.43-1.01,0-1.22-.22-1.22-.86.22-5.4.29-8.93.29-16.27v-15.34ZM988.19,391.19c4.39,4.75,6.91,8.79,6.91,11.02,0,.94-.65,2.67-1.44,3.89-.43.72-.86,1.01-1.37,1.01-.72,0-1.01-.43-1.3-2.59-.58-4.18-1.94-8.79-3.74-12.82l.94-.5ZM1022.83,412q2.66-2.81,5.11-5.26c2.81,2.45,3.67,3.24,6.41,5.83.22.22.29.43.29.58,0,.29-.36.5-.86.5h-38.31c-2.3,0-3.17.07-5.54.5l-.58-2.81c2.59.5,3.82.65,6.12.65h12.75v-49.61h-8.28c-1.22,0-3.24.22-5.11.5l-.5-2.95c1.94.58,3.67.79,5.98.79h20.02c1.87-2.23,2.52-2.88,4.46-5.04,2.88,2.45,3.74,3.17,6.62,5.76.22.22.29.36.29.58s-.22.36-.65.36h-17.71v49.61h9.5Z"/>
  </g>
  <g class="st3">
    <rect class="st0" x="1449.28" y="567.45" width="0" height="2.26"/>
  </g>
  <rect class="st2" x="132.74" y="463.4" width="1014.51" height="419.38"/>
  <rect class="st0" x="955.43" y="378.14" width="86.3" height="0"/>
</svg>