<?xml version="1.0" encoding="UTF-8"?>
<svg id="_レイヤー_1" data-name="レイヤー_1" xmlns="http://www.w3.org/2000/svg" version="1.1" viewBox="0 0 1280 850.43">
  <!-- Generator: Adobe Illustrator 29.8.1, SVG Export Plug-In . SVG Version: 2.1.1 Build 2)  -->
  <defs>
    <style>
      .st0 {
        fill: none;
      }

      .st1 {
        fill: #ff3109;
        stroke: #000;
        stroke-miterlimit: 10;
      }

      .st2 {
        fill: #c69c6d;
      }

      .st3 {
        opacity: .02;
      }

      .st4 {
        display: none;
      }
    </style>
  </defs>
  <g class="st4">
    <rect class="st0" x="657.29" y="450.64" width="7.13" height="312.06"/>
  </g>
  <g>
    <path d="M126.4,153.41v57.4c-.1,1.34-.96,1.63-5.09,1.63-1.15,0-1.63-.29-1.63-1.15.48-12.58.58-26.21.58-62.4,0-10.56-.1-16.7-.29-24.77,3.36,1.54,4.42,2.11,7.58,4.13h18.91c1.54-2.02,2.02-2.59,3.46-4.61,2.5,1.73,3.26,2.21,5.57,4.03.67.58.86.96.86,1.34,0,.67-.67,1.15-3.07,2.5v4.8c0,3.46,0,6.14.29,20.35,0,.77-.19.96-.96,1.15-.48.19-2.59.38-3.74.38s-1.63-.38-1.63-1.15v-3.65h-20.83ZM147.23,130.47h-20.83v9.02h20.83v-9.02ZM147.23,141.7h-20.83v9.5h20.83v-9.5ZM171.9,181.25h5.28c1.92-2.5,2.59-3.17,4.51-5.47,3.07,2.78,4.13,3.74,7.3,6.72.1.19.19.38.19.58s-.29.38-.58.38h-16.7v4.9c0,7.29,0,9.89.29,18.81v.29c0,1.06-1.44,1.54-4.7,1.54-1.06,0-1.63-.38-1.63-1.15v-.29c.1-2.78.1-9.12.19-18.81v-5.28h-13.53c-.96,7.87-2.4,11.9-5.86,16.32-3.84,4.8-7.97,7.78-14.97,10.75l-.96-1.15c6.72-4.22,10.75-8.35,13.54-14.11,1.54-3.17,2.02-5.28,2.59-11.81h-6.62c-3.17,0-5.57.19-7.78.58l-.86-3.55c2.5.58,4.7.77,8.64.77h6.82c.19-3.36.29-6.34.29-9.12,0-2.21,0-2.69-.1-4.9h-5.47c-3.36,0-4.61.1-7.1.48l-.86-3.55c2.59.67,4.51.86,7.97.86h32.45c2.02-2.4,2.59-3.17,4.42-5.57,3.36,2.78,4.42,3.74,7.58,6.62.19.29.29.48.29.67s-.38.48-.67.48h-13.92v14.01ZM153.08,167.24v4.42c0,3.46-.1,5.66-.38,9.6h13.34v-14.01h-12.96ZM171.9,153.41v3.17c-.1.77-.29,1.06-.86,1.25-.67.1-2.5.29-3.94.29-1.25,0-1.63-.29-1.63-1.25.29-6.91.29-8.83.29-16.22,0-9.89-.1-12.19-.38-16.51,3.17,1.73,4.13,2.21,7.01,4.13h19.2c1.73-2.02,2.21-2.69,3.94-4.7,2.4,1.73,3.07,2.21,5.57,3.84.86.67,1.25,1.06,1.25,1.44,0,.58-.48,1.06-2.69,2.59v44.64l.19,28.8c-.19,2.5-.86,3.65-3.36,5.09-1.82,1.06-3.74,1.63-7.97,2.3-.48-4.42-2.02-5.28-11.33-6.82v-1.44c9.5.29,9.7.29,11.42.29h3.17c1.06-.1,1.06-.19,1.06-2.11v-48.76h-20.93ZM192.83,130.47h-20.93v9.02h20.93v-9.02ZM192.83,141.7h-20.93v9.5h20.93v-9.5Z"/>
    <path d="M211.36,163.78c2.3.48,4.42.77,6.53.77h7.2c1.34-1.82,1.82-2.4,3.36-4.13,2.5,1.63,3.26,2.21,5.57,4.03.67.58.96.96.96,1.25,0,.58-.67,1.34-2.78,2.78v23.42c1.54,3.26,2.88,4.7,6.05,6.53,4.99,2.78,9.98,3.74,19.49,3.74,18.05,0,33.98-.58,43.87-1.54v1.54c-3.36.67-4.8,2.21-5.76,6.33-3.46,0-6.05,0-17.18.19-4.03.1-7.68.1-10.94.1-17.09,0-22.27-.86-28.22-4.9-4.8-3.17-7.39-6.24-10.08-12-3.26,4.99-7.97,10.66-11.52,14.01.1.77.19,1.34.19,1.73.1.38.1.86.1,1.15,0,.86-.48,1.44-1.25,1.44s-2.11-2.11-6.05-9.6c6.91-2.98,11.81-5.86,14.88-8.74v-25.15h-7.87c-2.02,0-3.17.1-5.57.67l-.96-3.65ZM214.62,127.21c3.65,2.21,6.53,4.32,10.85,7.78,3.36,2.78,4.42,4.42,4.42,7.1,0,3.36-1.73,6.91-3.26,6.91-1.25,0-2.02-1.06-3.07-4.03-2.11-5.95-5.28-11.14-10.18-16.8l1.25-.96ZM288.54,129.41c1.63-2.3,2.11-2.98,3.94-5.18,3.84,2.78,4.99,3.65,8.45,6.43.38.38.58.58.58.86s-.19.48-.48.58c-.19.1-.77.29-1.73.48-1.34.19-1.63.29-3.07.67-2.5,2.5-3.26,3.17-6.34,5.76,1.54,1.15,2.3,1.82,4.42,3.55.48.48.67.86.67,1.15,0,.38-.48.67-1.06.67h-23.23v7.87h13.63c1.34-1.82,1.82-2.3,3.36-3.94,2.59,1.73,3.46,2.21,5.86,3.94.58.58.86.86.86,1.06,0,.58-.96,1.34-3.17,2.69,0,12.58,0,14.3.29,23.42-.29.77-.86.96-2.88,1.06-.77,0-1.34,0-1.82.1h-.29c-.96,0-1.34-.29-1.44-1.15v-1.73h-14.21v9.21h15.36c2.21-2.3,2.98-2.98,5.09-5.18,3.46,2.4,4.51,3.17,7.78,5.86.38.38.58.77.58.96,0,.38-.48.58-1.44.58h-27.36c.1,1.06.1,1.92.1,2.4,0,2.98,0,3.55.19,6.62v.19c0,.96-1.44,1.44-4.13,1.44-1.73,0-2.21-.29-2.3-1.25q.1-7.29.1-9.41h-19.2c-3.55,0-4.7.1-7.68.67l-.86-3.84c2.11.48,6.34.96,8.54.96h19.2v-9.21h-13.92v4.03c-.19.58-.48.77-1.25.86-1.06.19-2.69.29-3.46.29-1.34,0-1.82-.38-1.82-1.44.29-6.53.38-11.13.38-16.22,0-7.01-.1-14.11-.29-16.99,3.17,1.63,4.13,2.11,7.1,4.03h13.25v-7.87h-14.59q-4.32.19-5.47.58l-1.15-3.46c2.11.48,4.42.67,6.62.67h14.59c-.1-4.61-.1-5.47-.48-8.35q9.98,1.06,9.98,1.92c0,.86-.96,1.54-3.65,2.3v4.13h12.38c1.54-2.3,2.02-2.98,3.84-5.28l1.34.86c.67-2.02.96-3.07,1.63-6.14h-43.96c-.58,3.74-1.06,5.47-2.3,7.49-1.63,2.69-3.84,4.61-5.38,4.61-.86,0-1.44-.58-1.92-1.92-.38-.96-.77-2.98-.77-3.74,0-1.44.38-1.82,3.36-3.74,2.78-1.82,5.09-5.86,5.66-10.08h1.34c.19,1.63.19,2.3.19,3.46v1.73h42.43ZM264.83,154.47h-13.92v8.93h13.92v-8.93ZM264.83,165.6h-13.92v9.89h13.92v-9.89ZM285.08,154.47h-14.3v8.93h14.3v-8.93ZM285.08,165.6h-14.3l.1,9.89h14.21v-9.89Z"/>
    <path d="M307.94,193.25c9.41-7.39,17.76-16.8,23.61-26.59,2.98-5.09,3.94-7.39,3.94-9.5,0-1.54-1.34-3.07-4.8-5.47,1.06-.29,1.44-.38,2.11-.38,1.73,0,4.99,1.34,7.87,3.26,3.26,2.21,4.61,3.65,4.61,5.18,0,.77-.29,1.34-1.15,2.11-1.73,1.44-1.92,1.63-4.03,4.42-7.68,10.27-11.33,14.01-20.16,21.02-4.51,3.36-7.3,5.18-11.23,7.01l-.77-1.06ZM359.39,151.11c10.08,6.05,19.2,14.11,25.25,22.37,2.98,4.03,4.03,6.72,4.03,10.27,0,3.94-1.54,7.01-3.65,7.01-1.34,0-1.73-.58-3.17-4.42-4.8-12.96-12.96-24.77-23.52-33.98l1.06-1.25ZM391.35,141.61c0,5.86-4.7,10.56-10.46,10.56s-10.56-4.8-10.56-10.56,4.7-10.46,10.56-10.46,10.46,4.7,10.46,10.46ZM373.5,141.61c0,4.03,3.36,7.39,7.39,7.39s7.3-3.26,7.3-7.39-3.26-7.29-7.3-7.29-7.39,3.26-7.39,7.29Z"/>
    <path d="M409.5,201.22c9.22-5.76,18.72-13.54,25.82-21.02,5.76-6.05,12.67-15.07,18.33-23.9,3.07-4.7,4.7-7.87,6.53-12.38-4.61.29-9.7,1.34-20.25,4.22-4.61,1.25-4.99,1.34-8.06,2.59-.48.19-1.06.29-1.63.29-2.11,0-4.13-1.73-6.24-5.47-1.34-2.21-2.02-4.22-2.02-5.76,0-.58.19-1.06.67-1.92,2.78,4.99,4.8,6.43,9.02,6.43,3.17,0,12.86-1.25,20.16-2.69,5.57-1.06,7.3-1.63,9.02-2.69,1.06-.67,1.54-.86,2.21-.86,2.02,0,7.49,4.9,7.49,6.72,0,.67-.38,1.25-1.25,1.82q-2.02,1.34-5.47,6.53-4.61,6.91-12.1,16.7c13.54,7.1,21.12,12,24.86,16.22,2.59,2.78,3.65,5.57,3.65,9.5,0,3.07-.96,4.99-2.59,4.99-.67,0-1.44-.48-2.21-1.54q-.38-.48-2.3-3.84c-4.8-8.06-13.05-16.61-22.85-23.52-7.78,9.41-14.02,15.26-23.23,21.6-6.05,4.22-10.18,6.53-16.8,9.41l-.77-1.44Z"/>
    <path d="M513.28,207.26c9.12-5.95,12.48-8.45,17.95-13.34,6.91-6.24,11.62-11.33,16.13-17.38-1.54-.29-2.11-.77-4.13-3.84-4.03-6.05-7.2-9.5-13.34-14.3-6.82,6.72-11.9,10.85-17.76,14.3l-1.06-1.44c6.82-5.86,12.58-12,18.53-19.87,6.05-8.06,9.5-14.21,9.5-16.7,0-2.21-1.63-3.74-6.14-5.76.96-.38,1.34-.48,2.11-.48,2.02,0,5.66,1.15,8.54,2.78,2.69,1.44,3.94,2.78,3.94,4.03,0,1.34-.86,2.78-4.51,7.39,1.15.29,1.73.38,2.69.38,2.21,0,5.57-.58,12.77-2.11,4.99-1.06,5.86-1.34,7.58-2.59.48-.29,1.06-.48,1.54-.48,1.25,0,2.88.96,5.38,3.26,1.63,1.54,2.59,2.98,2.59,3.94,0,.67-.38,1.15-1.34,1.92-1.15.96-1.54,1.54-3.17,4.42-9.89,18.43-19.97,31.39-32.45,41.85-8.16,6.72-16.32,11.9-24.57,15.46l-.77-1.44ZM559.07,144.39q-7.78,1.92-8.83,2.3c-1.63.58-2.11.67-2.98.67-1.63,0-3.36-.77-5.76-2.59-3.65,4.9-6.14,7.87-10.18,12.1q7.1,3.07,9.22,4.32c4.22,2.3,6.43,4.42,8.35,7.49.86,1.54,1.06,2.3,1.25,4.32,6.82-9.12,13.15-20.64,16.32-29.95-2.4.19-4.13.58-7.39,1.34Z"/>
    <path d="M648.73,168.1c0,4.9-3.94,8.83-8.74,8.83s-8.83-3.94-8.83-8.83,3.94-8.74,8.83-8.74,8.74,3.94,8.74,8.74Z"/>
    <path d="M715.45,168c-.67,8.45-2.5,15.17-5.76,21.02-2.3,4.03-4.42,6.05-6.62,6.05-1.73,0-2.88-2.3-2.88-5.57,0-1.92.48-2.78,2.4-3.84,4.99-2.88,10.08-10.94,11.14-17.86l1.73.19ZM705.09,150.44c3.26,4.03,5.66,5.18,11.23,5.18,2.88,0,8.25-.48,16.51-1.63v-2.21c0-9.02-.19-11.13-1.34-13.05-.96-1.82-2.5-2.78-6.43-4.13.86-.86,1.63-1.15,2.88-1.15,1.92,0,5.76.86,8.35,1.92,3.17,1.34,4.7,2.69,4.7,4.32,0,.96-.19,1.44-1.06,2.98-1.15,2.21-1.44,4.03-1.92,10.46,7.01-.86,15.45-3.26,16.89-4.7.77-.58,1.25-.77,1.73-.77,1.25,0,3.36.58,5.18,1.44,2.4,1.15,3.65,2.3,3.65,3.46,0,1.25-1.15,1.73-4.42,2.11q-4.13.48-12.19,1.63c-5.95.86-9.6,1.34-10.94,1.54-.1,4.99-.1,5.76-.1,8.06,0,11.33.29,18.24,1.06,25.92.1,1.06.1,2.02.1,3.17,0,3.07-.38,4.99-1.63,7.68-1.06,2.5-2.21,3.55-3.84,3.55-1.25,0-2.02-.86-2.78-3.07-.96-2.88-2.3-4.03-10.37-8.93-2.5-1.54-2.59-1.54-4.61-2.88l.48-1.06c6.91,2.3,9.31,2.98,16.03,4.32.38-6.33.48-10.08.67-36.29-4.61.67-12,1.25-15.07,1.25-7.39,0-10.85-2.11-14.01-8.35l1.25-.77ZM751.45,166.37c7.1,4.51,11.81,8.25,14.98,12.09,2.3,2.78,2.98,4.42,2.98,7.1,0,4.03-1.73,7.58-3.65,7.58-1.06,0-1.25-.29-2.88-5.09-2.69-7.97-7.1-15.36-12.38-20.64l.96-1.06ZM755.39,128.36c3.55,2.02,6.14,3.84,8.54,5.95,3.46,3.17,4.8,5.38,4.8,7.68s-1.34,4.03-2.98,4.03q-1.25,0-4.22-6.24c-1.73-3.36-4.8-7.58-7.39-10.08l1.25-1.34ZM765.27,122.79c3.46,1.63,6.24,3.26,9.21,5.57,3.65,2.78,4.9,4.7,4.9,7.39,0,2.3-.96,3.94-2.4,3.94-.86,0-1.44-.48-2.21-1.92-3.36-6.05-5.18-8.45-10.46-13.63l.96-1.34Z"/>
    <path d="M801.28,140.55c9.22,2.3,14.78,4.51,18.53,7.2,2.21,1.54,3.26,3.65,3.26,6.53,0,3.17-1.06,5.38-2.69,5.38-1.06,0-1.54-.48-4.13-3.84-4.7-6.24-8.16-9.41-15.65-14.11l.67-1.15ZM869.53,146.02c-4.8,9.02-10.66,16.61-20.16,25.82-8.83,8.54-14.78,13.34-26.97,21.89-4.51,3.17-4.99,3.55-5.66,4.42-1.54,1.82-2.11,2.3-3.36,2.3-3.94,0-11.23-9.21-11.23-14.11,0-.58.1-.96.48-1.92,1.92,2.88,2.11,3.07,3.46,4.22,1.44,1.34,2.78,2.02,3.84,2.02,1.63,0,4.61-1.25,9.31-4.03,10.75-6.24,14.5-8.93,22.94-15.84,11.81-9.6,17.57-15.46,25.82-25.63l1.54.86Z"/>
    <path d="M903.52,149.86c1.54,1.06,2.98,1.44,5.47,1.44,1.92,0,3.84-.1,6.72-.48q26.21-3.07,28.32-4.03c.96-.38,1.44-.58,1.82-.58.96,0,3.17,1.34,5.57,3.55,2.3,2.11,3.46,3.55,3.46,4.61,0,.67-.29,1.06-.96,1.73-1.06,1.06-1.54,2.21-2.4,5.95-.48,2.21-1.44,6.91-4.42,22.75l.77.77c2.78,2.3,3.36,3.17,3.36,4.61,0,.86-.77,1.44-2.21,1.44q-.38,0-2.4-.29c-2.78-.38-5.38-.58-8.35-.58-11.13,0-25.34,2.21-30.91,4.8-.58.29-1.44.48-1.92.48-3.17,0-8.93-7.2-8.93-11.23,0-.48.1-.86.48-1.73,3.07,4.32,5.47,5.86,9.02,5.86.58,0,6.72-.58,18.53-1.73,8.35-.86,9.5-.86,16.42-1.25.96-4.7,1.54-8.64,2.59-17.66.48-3.94,1.34-13.25,1.34-14.5,0-1.34-.67-1.73-2.69-1.73-1.34,0-9.79.77-12.86,1.15-6.82.86-13.15,2.3-19.78,4.51-.58.19-1.15.29-1.73.29-2.02,0-4.13-1.73-6.43-5.18-1.44-2.21-2.4-4.42-2.4-5.76,0-.38.1-.86.48-1.73,1.25,2.02,2.4,3.26,4.03,4.51ZM949.79,131.24c3.55,2.02,6.14,3.84,8.54,5.95,3.46,3.17,4.8,5.38,4.8,7.68s-1.34,4.03-2.98,4.03q-1.25,0-4.32-6.24c-1.73-3.36-4.7-7.58-7.3-10.08l1.25-1.34ZM959.58,125.67c3.46,1.63,6.24,3.26,9.22,5.57,3.65,2.78,4.9,4.7,4.9,7.39,0,2.3-.96,3.94-2.4,3.94-.86,0-1.44-.48-2.21-1.92-3.36-6.05-5.18-8.45-10.46-13.63l.96-1.34Z"/>
    <path d="M1060.09,160.42c-5.28,7.39-8.35,10.94-14.3,16.32-8.64,7.87-17.85,14.11-28.99,19.58-5.38,2.78-5.47,2.78-7.2,4.61-.77.86-1.44,1.25-2.21,1.25-1.92,0-6.34-5.66-6.34-8.26q0-.48.48-1.73c.67-2.11.77-4.32.77-14.69,0-21.21-.48-30.53-1.73-34.08-.86-2.4-2.4-3.55-6.62-4.99,1.15-.77,1.82-.96,2.98-.96,2.02,0,4.99.86,7.68,2.3,3.74,2.02,5.66,3.94,5.66,5.86q0,.58-.48,2.02c-.48,1.54-.96,5.09-1.25,9.5-.48,5.86-1.06,23.33-1.06,30.43v4.8c13.82-5.09,22.37-9.5,32.73-16.99,7.29-5.28,13.92-11.04,18.62-16.13l1.25,1.15Z"/>
    <path class="st1" d="M1075.26,208.22c3.26-10.37,3.65-11.71,4.9-17.66,1.63-7.39,1.92-9.31,2.11-13.82,8.93,2.11,9.02,2.21,9.02,2.98,0,.67-1.06,1.15-3.07,1.44-3.55,11.9-5.86,17.66-11.33,27.74l-1.63-.67ZM1077.28,137.67c3.55,1.82,4.9,2.59,7.39,4.13,3.46-6.34,5.95-11.9,7.97-18.14,9.21,3.26,9.98,3.65,9.98,4.42s-1.34,1.25-3.46,1.25h-1.06c-4.8,6.14-7.1,8.83-11.71,13.63,3.84,2.69,5.47,4.7,5.47,6.82,0,2.4-1.73,5.38-3.07,5.38-.67,0-1.06-.48-2.21-2.88-2.59-5.09-4.7-7.78-10.17-13.15l.86-1.44ZM1093.12,168.48q-8.64,1.63-12.09,2.21c-.77,2.4-1.15,2.98-1.82,2.98-.96,0-1.54-1.73-2.78-8.83,2.69.19,3.74.29,4.8.29q.77,0,4.32-.19c5.28-6.91,5.47-7.1,8.25-11.42,4.22-6.43,7.2-11.81,9.7-17.37,8.06,3.07,9.22,3.65,9.22,4.42,0,.86-1.06,1.15-3.84,1.15h-.67c-6.43,8.74-12.96,16.32-19.97,23.04,11.52-.58,13.44-.67,18.81-1.34-1.54-3.65-2.4-5.28-4.7-8.93l1.15-.58c7.97,6.62,11.33,10.85,11.33,14.4,0,2.5-2.02,5.66-3.46,5.66-.86,0-1.25-.58-1.73-2.78-.29-1.34-.86-3.07-1.92-6.05-3.74,1.15-4.51,1.34-8.54,2.21v21.6q0,6.82.38,21.02v.38c0,.48-.19.67-.86.86-1.34.38-2.78.58-4.32.58-1.34,0-1.63-.29-1.63-1.15.29-7.2.38-11.9.38-21.69v-20.45ZM1104.25,176.74c5.86,6.34,9.21,11.71,9.21,14.69,0,1.25-.86,3.55-1.92,5.18-.58.96-1.15,1.34-1.82,1.34-.96,0-1.34-.58-1.73-3.46-.77-5.57-2.59-11.71-4.99-17.09l1.25-.67ZM1150.43,204.48q3.55-3.74,6.82-7.01c3.74,3.26,4.9,4.32,8.54,7.78.29.29.38.58.38.77,0,.38-.48.67-1.15.67h-51.07c-3.07,0-4.22.1-7.39.67l-.77-3.74c3.46.67,5.09.86,8.16.86h16.99v-66.14h-11.04c-1.63,0-4.32.29-6.82.67l-.67-3.94c2.59.77,4.9,1.06,7.97,1.06h26.69c2.5-2.98,3.36-3.84,5.95-6.72,3.84,3.26,4.99,4.22,8.83,7.68.29.29.38.48.38.77s-.29.48-.86.48h-23.61v66.14h12.67Z"/>
  </g>
  <g class="st4">
    <rect class="st0" x="1449.28" y="393.88" width="0" height="2.26"/>
  </g>
  <rect class="st3" x="132.74" y="289.83" width="1014.51" height="419.38"/>
  <rect class="st0" x="955.43" y="204.58" width="86.3" height="0"/>
  <g>
    <path d="M187.05,298.12l3.52-4.31c2.77,2.02,3.58,2.68,6.22,4.83.27.26.41.46.41.59,0,.2-.34.39-.74.39h-51.46c-.27,21.01-.41,24.53-1.22,30.73-1.22,9.59-3.58,15.59-8.39,21.73l-.88-.52c4.94-10.77,5.95-17.42,5.95-40.91,0-8.03-.14-11.48-.41-15.99,2.57,1.44,3.38,1.96,5.95,3.46h18.87v-2.09c0-1.37-.07-2.09-.34-3.78,1.56.2,2.71.33,3.45.46,3.11.33,4.06.59,4.06,1.17,0,.46-.54.72-2.77,1.37v2.87h17.79ZM171.9,346.54q0,1.11,3.58,1.17c-.14-.26-.68-1.76-1.62-4.44.74.07,1.22.13,1.69.13.07,0,.54,0,1.35-.07,1.49-3.52,1.96-5.09,2.3-7.11,3.99.98,5,1.31,5,1.7,0,.33-.34.46-2.23.78q-.81.91-2.91,3.78c-.14.2-.41.39-.68.78,1.15-.06,2.1-.13,2.71-.13,2.64-.13,2.77-.13,5-.33-.68-1.04-1.01-1.44-2.5-2.87l.61-.65c4.67,2.28,5.54,3,5.54,4.63,0,1.43-.54,2.48-1.22,2.48-.41,0-.81-.52-1.76-2.41-3.58,1.04-4.19,1.17-9.67,2.09-.34.85-.47,1.11-.88,1.63h3.58c1.89,0,8.39-.13,9.4-.2,1.76-.13,2.16-.33,2.64-1.57.27-.59.27-.65,3.38-10.9h1.01l-.74,9.92v1.11c0,.91,0,.98,1.83,1.44.68.13,1.08.65,1.08,1.31,0,.85-.68,1.37-2.1,1.63-1.83.39-7.24.59-13.93.59-12.24,0-12.58,0-13.59-.72-.68-.39-.88-1.24-.88-2.94v-12.27h-3.79c-1.62,5.35-3.92,8.55-8.18,11.42-4.26,2.94-8.52,4.44-15.69,5.55l-.27-.98c7.03-2.02,10.55-3.85,14.47-7.37,2.64-2.35,4.33-5.22,5.07-8.61h-5.27v2.02c-.07.65-.68.78-3.11.78-.95,0-1.15-.13-1.15-.65.07-3.07.2-7.63.2-12.79,0-2.22-.07-3.13-.27-5.29,2.03.85,2.64,1.11,4.53,2.22h11.43c1.22-2.09,2.23-4.37,2.57-5.94-2.23,1.24-3.38,1.76-6.09,2.74l-.41-.85c5.82-3.07,9.2-5.74,12.85-10.11h-15.49v1.96q4.26.72,5.07.98c1.49.52,1.96.91,1.96,2.02,0,1.31-.54,2.28-1.15,2.28-.41,0-.61-.13-1.89-1.37-1.08-1.04-2.71-2.15-3.99-2.74,0,2.87,0,4.05.13,8.29-.07.72-.47.85-2.57.85-.68,0-.88-.13-.88-.59v-2.09c.07-1.11.14-1.83.14-2.09v-3.92c-3.65,4.11-6.42,6.33-10.89,8.81l-.61-.72c4.87-3.78,7.91-7.31,10.28-11.68h-3.79c-1.35,0-2.84.13-4.46.46l-.54-2.48c1.83.33,3.52.52,5.27.52h4.4v-1.17c0-1.44-.07-2.09-.27-3.59,5.61.72,6.15.85,6.15,1.37,0,.46-.68.72-2.37,1.11v2.28h4.6c.95-1.3,1.22-1.7,2.16-2.87,1.62,1.24,2.1,1.63,3.65,2.87h7.1v-1.5c0-1.63-.07-1.96-.2-3.26,5.75.59,6.09.65,6.09,1.24,0,.39-.47.65-2.23,1.17v2.35h6.49c1.29-1.57,1.69-2.02,2.98-3.46,2.37,1.76,3.04,2.28,5.14,4.18.2.2.34.33.34.52s-.27.26-.68.26h-13.86c1.49,1.76,2.57,2.67,4.67,3.91,3.65,2.09,6.83,3.13,11.97,3.78v.72c-2.37.26-3.18.98-3.92,3.26-2.84-1.17-4.94-2.41-7.44-4.31-2.37-1.76-3.85-3.33-5.88-6.26l.14,3.78c0,2.61.07,4.11.07,4.76,0,.46-.07.78-.07,1.44-.07.52-.68.72-2.5.72-.81,0-1.01-.07-1.08-.52.2-4.76.2-4.83.2-6l.07-3.26c-3.04,2.68-4.94,4.05-8.32,6q1.89.39,2.43.52c2.23.52,3.04.78,3.04,1.24s-.54.59-2.37.85c-.54.46-1.01.85-1.22,1.11-1.69,1.57-1.76,1.7-2.77,2.41h15.69c.88-1.37,1.15-1.83,2.03-3.13,1.83,1.11,2.37,1.5,3.92,2.61.47.33.68.59.68.78,0,.39-.27.59-1.89,1.44v2.74c0,1.5,0,3.52.2,9.72-.07.39-.2.52-.68.65-.34.07-2.1.2-2.71.2s-.88-.13-.95-.52v-.78h-12.31v11.42ZM166.76,327.29v-4.37h-12.51v4.37h12.51ZM166.76,333.62v-4.83h-12.51v4.83h12.51ZM184.21,322.92h-13.53v4.37h13.53v-4.37ZM170.68,328.79v4.83h13.53v-4.83h-13.53Z"/>
    <path d="M211.13,337.53q0,9.13.13,13.51c0,.59-.13.78-.74.91-.68.13-1.49.2-1.96.2-1.28,0-1.83-.26-1.83-.91v-.2c.14-21.6.14-24.73.14-37.58,0-11.42-.07-15.46-.41-19.97,2.43,1.37,3.11,1.83,5.21,3.39h7.71c1.22-1.24,1.62-1.63,2.91-2.74,1.76,1.37,2.3,1.83,3.99,3.2.47.46.68.78.68,1.04,0,.52-.34.72-2.91,1.44-3.38,7.31-5.34,10.83-8.25,15.14,2.23,2.09,3.31,3.39,4.87,5.94,1.76,2.94,2.37,5.22,2.37,8.42s-.68,5.55-2.1,6.98c-1.35,1.44-2.57,1.96-5.14,2.35-.61-2.87-1.29-3.39-4.67-3.92v2.81ZM211.13,333.62c1.62.13,3.79.26,4.67.26,1.22,0,1.69-.13,2.1-.65.74-.98,1.22-2.81,1.22-4.89,0-2.54-.54-5.55-1.35-7.63-.74-1.89-1.62-3.13-3.65-5.29,2.3-5.55,3.45-9.07,5.34-17.03h-8.32v35.23ZM217.89,349.08c3.11-2.74,5.27-5.74,8.12-11.09,1.28-2.48,2.1-4.37,3.18-7.37,6.42,1.63,6.76,1.76,6.76,2.48,0,.52-.54.78-2.98,1.04-2.16,3.39-3.45,5.22-5.82,7.9-2.98,3.46-4.73,5.15-8.45,7.76l-.81-.72ZM220.6,316.91c4.4-3.13,8.39-7.11,12.44-12.33,3.58-4.63,5.95-8.55,7.03-11.61,6.02,1.44,6.97,1.76,6.97,2.41,0,.59-.61.78-2.84.98,2.71,4.31,5.61,7.37,9.81,10.31,4.13,2.94,7.44,4.37,12.98,5.68v.98c-2.3.52-3.45,1.44-4.67,3.59-5-2.81-7.91-5.02-11.09-8.35-3.18-3.26-5.14-6.2-7.78-11.29-3.18,4.76-6.15,8.22-10.55,12.14-4.33,3.85-7.17,5.87-11.63,8.35l-.68-.85ZM244.81,325.27h8.79c1.56-1.76,2.1-2.28,3.79-3.98,1.89,1.57,3.79,3,5.48,4.37.27.26.41.52.41.65,0,.26-.27.46-.61.46h-17.85v11.09c0,3.52,0,4.7.07,8.29,0,1.89-.47,2.74-2.1,3.72-1.35.85-2.71,1.24-5.41,1.57-.41-3.07-1.62-3.72-9.2-4.76v-1.11c4.4.46,6.83.59,9.47.59h1.69c.81-.07,1.01-.26,1.01-1.04v-18.33h-9.4q-3.38,0-5.75.26l-.47-2.22c1.56.39,2.57.46,5.75.46h9.87v-9.33h-5c-3.85,0-4.19,0-6.15.26l-.47-2.09q1.69.26,6.63.33h11.83c1.49-1.63,1.96-2.09,3.38-3.59,2.16,1.89,2.84,2.41,5,4.18.14.2.27.46.27.52,0,.2-.27.39-.61.39h-10.42v9.33ZM249.61,330.55c10.28,6.92,12.98,9.53,12.98,12.79,0,2.48-1.15,5.02-2.3,5.02-.34,0-.54-.2-.81-.78q-.14-.13-1.62-3.46c-.81-1.89-3.11-5.61-5.07-8.48-1.08-1.57-1.83-2.48-3.79-4.44l.61-.65Z"/>
    <path d="M290.87,320.83c-2.91,11.55-4.12,17.49-4.12,19.77v.72c.07.52.07.78.07,1.04,0,2.09-.54,3.07-1.69,3.07-1.01,0-2.03-.85-2.84-2.35-2.16-4.05-3.25-9.72-3.25-16.9,0-4.83.34-7.96,1.49-14.81.88-4.76,1.08-6.59,1.08-8.09,0-2.02-.81-4.05-2.43-6.26,1.49.06,2.84.91,4.46,2.54,1.96,2.09,2.98,3.85,2.98,5.22,0,.85-.07,1.24-.95,3.59-2.3,6.2-3.52,12.4-3.52,18.14,0,4.83.47,7.9,1.62,10.18.81-1.96,4.87-12.59,6.09-16.12l1.01.26ZM296.28,310.06c3.04,2.09,4.67,2.61,7.84,2.61,2.77,0,6.7-.52,9.74-1.37v-2.28c0-5.42-.2-8.03-.81-9.13-.68-1.3-2.57-2.28-5.75-3,1.01-.85,1.49-.98,3.72-.98,4.87,0,8.12,1.31,8.12,3.26,0,.26-.14.91-.34,1.57-.68,2.41-.74,3.2-.88,9.4,3.65-1.11,4.46-1.5,6.15-2.81.47-.33.81-.46,1.42-.46,2.16,0,4.06.91,4.06,1.96,0,.78-.47,1.17-2.37,2.09-2.16.98-4.26,1.63-9.2,2.87v9.59c0,10.31-1.83,15.59-6.9,20.75-2.98,2.94-5.95,5.09-10.28,7.11l-.54-.85c4.94-3.72,7.3-6.2,9.54-10.05,3.18-5.35,4.26-11.16,4.26-22.38v-3.33c-3.04.59-5.41.85-7.84.85-4.53,0-7.57-1.31-10.62-4.63l.68-.78Z"/>
    <path d="M368.92,345.95c7.3-2.09,11.97-4.76,15.82-9.07,3.99-4.37,6.02-9.72,6.02-15.72,0-6.33-2.64-11.35-7.64-14.42-2.98-1.89-7.44-3-11.7-3-.81,0-1.28,0-2.37.13,1.62,2.28,2.1,3.52,2.1,5.42,0,5.09-3.79,14.62-8.93,22.58-4.26,6.52-7.57,9.72-10.08,9.72-1.15,0-2.23-.52-2.98-1.37-.61-.78-.74-1.04-1.89-4.18-.61-1.7-1.01-2.48-2.98-6.13-1.08-2.09-1.56-3.85-1.56-5.94,0-4.11,2.3-8.94,6.09-12.92,5.48-5.61,14.4-9.13,23.26-9.13,6.83,0,13.12,2.15,17.45,6s6.49,9,6.49,15.33c0,8.16-4.94,15.4-13.46,19.77-3.92,2.02-7.44,3.07-13.19,4.05l-.47-1.11ZM346.67,325.66c0,3.13,1.01,6.33,2.71,8.61.95,1.17,1.83,1.89,2.57,1.89,1.49,0,4.73-3.52,8.05-8.61,5-7.7,8.59-16.12,8.59-20.16,0-.98-.2-1.63-.95-3.26-11.77,2.02-20.96,11.48-20.96,21.53Z"/>
    <path d="M418.29,327.94c-.14,1.44-.2,2.15-.2,2.94,0,7.76,5.07,11.42,15.96,11.42,5.41,0,10.96-.91,14.95-2.41.34-.13.81-.2,1.15-.2,1.01,0,2.57.52,3.72,1.3.95.72,1.49,1.5,1.49,2.28,0,.98-.74,1.7-2.16,2.02-3.11.78-9.74,1.3-15.76,1.3-7.57,0-12.38-.91-15.76-3.13-3.38-2.09-5.61-6.2-5.61-10.24,0-1.63.34-3.33,1.08-5.55l1.15.26ZM420.39,302.17c3.45,2.22,5.82,2.87,10.35,2.87s10.14-.78,14.07-1.96c.47-.13,1.01-.26,1.22-.26,1.76,0,4.06,1.96,4.06,3.39,0,1.11-.41,1.37-4.94,2.28-3.58.78-7.3,2.09-18.06,6.46l-.47-.98c1.89-1.11,3.11-1.76,4.94-2.74l4.4-2.28,1.29-.78c-1.49.13-3.85.2-5.07.2-2.5,0-5.61-.72-7.71-1.76-1.76-.91-2.84-1.76-4.73-3.78l.68-.65ZM451.23,296.43c2.5,1.37,4.33,2.61,6.02,4.05,2.43,2.15,3.38,3.65,3.38,5.22s-.95,2.74-2.1,2.74q-.88,0-3.04-4.24c-1.15-2.28-3.31-5.15-5.14-6.92l.88-.85ZM458.19,292.64c2.43,1.04,4.4,2.22,6.42,3.72,2.64,1.89,3.52,3.2,3.52,5.02,0,1.57-.68,2.67-1.69,2.67-.61,0-1.01-.33-1.56-1.24-2.37-4.11-3.72-5.81-7.44-9.33l.74-.85Z"/>
    <path d="M492.89,311.56h5.21c1.35-1.89,1.76-2.41,3.18-4.11,2.37,2.02,3.11,2.61,5.41,4.7.2.2.27.39.27.52,0,.2-.34.39-.74.39h-13.32v6.39c4.26,1.83,6.02,2.74,8.32,4.31s3.04,2.48,3.04,4.05c0,2.35-.88,4.18-2.03,4.18-.47,0-.74-.26-1.08-.98-1.15-2.48-3.04-5.35-4.8-7.18-.95-1.04-1.62-1.63-3.45-2.94v9.85c0,7.57,0,7.76.34,20.55,0,.39-.14.59-.47.65-.47.2-2.43.39-3.58.39-.54,0-.68-.13-.74-.65q.2-8.74.27-20.94l.34-12.72c-4.6,9.46-7.91,14.35-14.47,21.21l-.74-.59c4.06-5.87,6.15-9.46,8.99-15.33,1.96-4.05,2.64-5.74,3.99-10.24h-7.84c-1.22,0-2.3.07-3.72.33l-.41-2.28c1.96.33,3.18.46,4.8.46h8.79v-10.31c-5.61,1.17-7.57,1.5-12.65,2.02l-.27-.98c5.41-1.37,9.81-2.81,15.28-5.02,3.85-1.5,5.14-2.15,7.57-3.78,3.85,2.41,5.68,3.85,5.68,4.37,0,.26-.34.52-.81.52-.27,0-1.69-.26-2.84-.52-3.38,1.24-4.46,1.57-7.51,2.35v11.35ZM517.04,299.75c0,.46-.34.65-2.5,1.5q.07,26.56.27,35.17c0,.33-.13.46-.41.59-.54.2-2.43.39-3.72.39-.54,0-.74-.13-.74-.65q.07-4.57.07-6.07c0-23.75-.07-28.64-.34-32.62,6.97.91,7.37,1.04,7.37,1.7ZM526.23,300.93c-.07-2.15-.14-3.72-.27-7.05,5.82.85,6.36.91,6.9,1.11.54.13.81.39.81.72,0,.52-.47.78-2.71,1.63v35.23c0,.59.14,5.22.34,13.77,0,1.76-.34,2.54-1.62,3.52-1.49,1.11-3.04,1.63-6.15,2.15-.27-1.76-.68-2.48-1.83-3.2-.68-.39-2.43-.91-4.46-1.31l-2.43-.39-2.03-.39.07-1.11q3.04.2,7.37.39,2.98.06,5.07.2c.95,0,1.15-.2,1.15-1.04v-.2l-.2-44.04Z"/>
    <path d="M591.23,306.08c1.69-2.02,2.3-2.61,4.13-4.44,2.64,2.02,3.45,2.61,6.02,4.83.27.2.34.39.34.59,0,.26-.34.52-.74.52h-22.11c1.89,3.59,3.38,5.42,6.42,8.29,3.58,3.33,7.84,6.2,11.97,8.03,1.96.91,3.38,1.31,6.63,2.02v.72c-2.98.52-4.06,1.5-4.87,4.24-3.85-1.76-5.75-3-8.93-5.74-6.22-5.35-9.54-9.98-12.78-17.55h-10.69c-2.71,6.07-7.37,12.07-13.93,17.75,1.89.98,2.43,1.24,4.6,2.41h28.94c.95-1.04,1.22-1.37,2.23-2.28,1.83,1.44,2.37,1.83,4.06,3.26.54.46.74.72.74.98,0,.39-.34.65-1.76,1.3v16.96h1.76q2.23-2.28,4.33-4.5c2.64,2.02,3.45,2.67,6.02,4.89.14.26.2.39.2.59,0,.33-.27.52-.88.52h-54.57c-1.56,0-4.73.13-6.63.26l-.54-2.28c2.43.33,5.41.52,6.83.52h4.06v-22.05c-3.85,3.2-6.22,4.76-10.89,7.18l-.61-.85c6.36-4.37,10.08-8.16,14.88-14.94,2.64-3.78,4.06-6.33,5.41-9.72h-9.81c-2.03.07-3.65.07-4.67.07q-1.49,0-3.04.2l-.27-2.48c2.77.52,5.28.72,8.25.72h23.94c2.64-3.85,5.34-9.33,6.63-13.25,1.49.52,2.57.91,3.31,1.11,3.79,1.31,4.06,1.44,4.06,2.02,0,.65-1.01.98-3.04.98q-6.7,7.24-9.13,9.13h14.13ZM555.32,292.97c3.65,1.96,4.73,2.74,7.1,4.76,1.49,1.24,2.16,2.15,2.16,2.94,0,2.09-1.49,4.63-2.71,4.63-.61,0-.88-.33-1.56-2.02-1.08-2.94-3.04-6.33-5.55-9.79l.54-.52ZM556.54,329.25v18.73h7.1v-18.73h-7.1ZM567.97,347.97h7.37v-18.73h-7.37v18.73ZM579.6,347.97h7.51v-18.73h-7.51v18.73Z"/>
    <path d="M639.46,345.95c7.3-2.09,11.97-4.76,15.83-9.07,3.99-4.37,6.02-9.72,6.02-15.72,0-6.33-2.64-11.35-7.64-14.42-2.98-1.89-7.44-3-11.7-3-.81,0-1.28,0-2.37.13,1.62,2.28,2.1,3.52,2.1,5.42,0,5.09-3.79,14.62-8.93,22.58-4.26,6.52-7.57,9.72-10.08,9.72-1.15,0-2.23-.52-2.98-1.37-.61-.78-.74-1.04-1.89-4.18-.61-1.7-1.01-2.48-2.98-6.13-1.08-2.09-1.56-3.85-1.56-5.94,0-4.11,2.3-8.94,6.09-12.92,5.48-5.61,14.4-9.13,23.26-9.13,6.83,0,13.12,2.15,17.45,6s6.49,9,6.49,15.33c0,8.16-4.94,15.4-13.46,19.77-3.92,2.02-7.44,3.07-13.19,4.05l-.47-1.11ZM617.21,325.66c0,3.13,1.01,6.33,2.71,8.61.95,1.17,1.83,1.89,2.57,1.89,1.49,0,4.73-3.52,8.05-8.61,5-7.7,8.59-16.12,8.59-20.16,0-.98-.2-1.63-.95-3.26-11.77,2.02-20.96,11.48-20.96,21.53Z"/>
    <path d="M686.4,303.15c2.64,2.94,4.94,3.85,9.47,3.85,1.29,0,2.1-.06,3.92-.33.41-2.94.74-6.13.74-7.24,0-2.35-1.08-3.39-4.4-4.37.74-.59,1.08-.72,1.96-.72,1.49,0,4.06.65,5.88,1.5,1.69.85,2.5,1.63,2.5,2.67q0,.59-.88,1.7c-.81,1.11-1.28,2.35-2.1,5.87,6.42-1.31,10.41-2.81,12.71-4.63.74-.65,1.01-.72,1.69-.72.95,0,2.43.26,3.18.52.68.26,1.08.78,1.08,1.44,0,1.17-1.35,1.96-5.82,3.46-3.38,1.11-8.59,2.28-13.59,3.07-.61,2.94-1.15,6.92-1.29,9.85,3.86-1.24,7.17-1.89,10.82-2.09v-.39c0-1.24-.54-2.15-2.16-3.59.34-.07.61-.13.74-.13,1.76,0,3.72,1.76,4.33,3.91,6.02.65,9.74,1.96,13.12,4.63,3.04,2.54,4.6,5.94,4.6,10.31,0,9.92-10.48,17.36-26.38,18.66l-.2-1.04c13.73-3.26,21.37-10.05,21.37-19.12,0-3.98-1.76-7.24-4.94-9.27-1.89-1.17-4.19-1.83-7.84-2.28-1.01,3.33-2.1,5.55-4.26,8.94-2.37,3.59-4.4,6-7.24,8.48q.88,1.63,1.69,2.74c.47.72.74,1.57.74,2.74,0,1.76-.61,3-1.56,3-1.15,0-2.3-1.76-3.92-5.74-4.33,3.78-8.99,6.2-11.7,6.2-1.62,0-2.37-.72-3.25-3-.47-1.11-.61-1.37-1.29-2.48-1.01-1.57-1.29-2.48-1.29-3.91,0-3.39,2.1-6.79,6.36-10.24,2.5-1.96,5.14-3.52,9.13-5.22q.07-.98.41-4.83c.07-1.11.2-2.15.61-5.81-1.29.06-1.89.13-2.57.13-5.34,0-8.52-1.7-11.29-6l.88-.52ZM688.76,330.55c-1.42,2.09-2.1,4.11-2.1,6.13,0,2.41,1.01,3.98,2.57,3.98,2.16,0,6.36-2.22,10.08-5.29-.81-4.24-1.01-6.39-1.01-10.5v-2.35c-5.07,2.87-7.44,4.83-9.54,8.03ZM701.34,323.31c0,3.52.34,6.79.95,9.53,5.28-5.29,7.71-8.74,9.67-14.09-3.85.33-6.42.91-10.62,2.48v2.09Z"/>
    <path d="M780.81,301.71c-2.64.78-9,3.2-13.66,5.15-1.35.59-2.23.85-2.77.85-1.22,0-2.57-.91-3.86-2.74-1.22-1.76-1.89-3.46-1.89-4.83,0-.59.13-1.04.61-1.7,1.01,3.07,2.84,4.76,5.07,4.76,1.76,0,8.18-1.44,12.78-2.81,2.64-.85,2.77-.85,4.19-2.02.27-.2.61-.33.95-.33.88,0,1.96.65,3.65,2.28,1.56,1.44,2.03,2.15,2.03,2.94,0,.46-.34.85-1.15,1.24-1.96.98-2.64,1.5-5.61,4.37-4.26,4.11-6.76,6.52-9.94,9.79q-6.49,6.72-7.91,8.09l.13.13c7.24-4.37,12.71-6.2,18.39-6.2,8.66,0,14.47,4.89,14.47,12.2,0,9.33-8.99,16.25-21.24,16.25-6.63,0-10.89-2.54-10.89-6.53,0-3.2,3.11-5.55,7.3-5.55,3.31,0,6.36,1.17,8.59,3.2,1.22,1.11,1.96,2.15,2.98,4.04,5.14-2.15,8.18-6.65,8.18-12.2,0-3.59-1.49-6.52-4.19-8.09-1.42-.78-4.06-1.31-6.69-1.31-6.63,0-15.89,5.22-21.51,12.14-1.15,1.37-1.62,1.76-2.3,1.76-1.01,0-2.23-2.28-2.23-4.24,0-.78.47-1.5,1.42-2.28,2.57-1.89,3.65-2.94,9.4-9.07,8.25-8.94,10.82-11.81,16.16-18.46q.54-.72.68-1.04s-.14-.13-.2-.13c0,0-.07,0-.07.06h-.2s-.13.07-.34.13l-.34.13ZM770.4,339.16c-2.57,0-4.26,1.31-4.26,3.33,0,2.41,2.98,3.98,7.71,3.98,1.83,0,2.71-.13,4.8-.59-1.35-4.18-4.46-6.72-8.25-6.72Z"/>
    <path d="M812.6,343.8c3.45-4.57,5.41-7.83,7.64-12.92,1.69-3.85,2.3-5.68,2.91-9,1.35.46,2.37.78,3.04.98,3.25,1.04,4.53,1.7,4.53,2.35,0,.59-.81.78-2.98.98-2.43,4.57-3.79,6.72-6.22,9.85-2.64,3.46-4.4,5.22-8.25,8.35l-.68-.59ZM839.52,316.46c-.07,10.5-.95,15.79-3.52,20.62-2.3,4.5-6.02,8.16-11.43,11.22-2.71,1.57-4.73,2.41-9.33,3.98l-.41-.85c6.49-3.46,9.87-5.81,12.98-9.2,4.73-5.02,6.76-10.96,7.1-20.49v-5.29h-16.64c-1.62,0-3.04.13-4.67.39l-.47-2.48c1.96.46,3.31.59,5.14.59h22.38v-10.64h-16.84c-1.76,0-3.18.06-4.6.33l-.27-2.28c1.83.33,3.04.46,4.87.46h16.84v-2.02c0-3.91-.07-4.96-.27-7.9,7.03.72,7.71.85,7.71,1.63,0,.52-.68.91-2.77,1.5v6.79h11.83c1.96-2.09,2.57-2.74,4.46-4.63,2.98,2.22,3.92,2.87,6.83,5.29.2.2.27.39.27.52,0,.26-.2.33-.74.33h-22.66v10.64h17.31c2.03-2.09,2.64-2.68,4.67-4.7,2.98,2.28,3.79,3,6.49,5.42.2.2.27.33.27.46,0,.2-.2.33-.47.33h-21.91v19.64q0,7.63.07,10.64c-.14,3.33-1.22,4.11-7.1,5.09-.27-1.7-.61-2.41-1.55-3-.61-.39-1.89-.78-3.52-1.04-.2,0-1.49-.2-3.79-.46l.07-1.11c1.49.07,2.84.13,3.58.13,4.26.2,4.46.2,6.63.26.81,0,1.01-.2,1.01-.98v-29.17h-7.57ZM855.88,322.07c3.65,2.54,7.84,5.94,10.96,8.94,2.37,2.28,3.18,3.65,3.18,5.29,0,3.07-1.08,5.81-2.37,5.81-.54,0-.95-.39-1.35-1.44-2.37-5.81-4.6-9.27-11.23-17.81l.81-.78Z"/>
    <path d="M883.35,309.93c2.77,2.74,4.53,3.59,7.44,3.59,2.64,0,5.48-.39,8.59-1.24,1.35-4.24,2.3-8.81,2.3-11.09,0-1.96-1.01-2.81-4.8-4.05.88-.46,1.22-.59,2.1-.59,1.56,0,3.79.46,5.82,1.24,2.03.72,3.04,1.63,3.04,2.61q0,.46-.81,1.57c-.88,1.24-2.5,5.09-4.06,9.33,3.45-1.17,6.36-2.68,7.84-3.98,1.08-.98,1.35-1.11,1.89-1.11.88,0,2.5.33,3.58.72.74.26,1.08.65,1.08,1.17,0,1.11-1.08,1.96-3.92,3.13-3.04,1.37-7.57,2.81-11.83,3.85-.47,1.37-.81,2.28-.88,2.48-2.23,6.46-4.53,13.24-7.03,20.36-2.71,7.76-3.58,9.4-5,9.4-.68,0-1.15-.39-1.56-1.3-.54-1.04-.95-2.68-.95-3.79,0-1.04.07-1.24,1.49-3.2,3.18-4.31,6.22-11.09,10.62-23.36-2.57.46-4.53.65-6.49.65-4.13,0-6.76-1.7-9.26-5.87l.81-.52ZM910.33,332.44c-.07.98-.07,1.76-.07,2.02,0,3.72,1.83,6.52,5.14,7.89,1.83.78,4.6,1.24,7.24,1.24,2.77,0,4.33-.2,6.49-.98.47-.2.88-.26,1.15-.26.74,0,2.3.72,3.45,1.57.81.65,1.22,1.24,1.22,1.83,0,1.44-2.64,2.15-7.98,2.15s-9.54-.72-12.51-2.09c-3.65-1.7-5.75-5.09-5.75-9.46,0-1.44.14-2.54.61-4.11l1.01.2ZM912.16,320.37c4.87-2.87,10.42-4.44,15.69-4.44,1.42,0,3.18.46,4.26,1.17.68.39,1.08,1.11,1.08,1.83,0,1.11-.61,1.44-2.57,1.57-2.5.06-3.25.26-5.21,1.3-.95.46-1.76.91-2.23,1.24l-2.5,1.57c-.13.13-.61.39-1.35.78l-.41-.59c.54-.52.88-.85,1.01-.98l2.23-1.96c.47-.39,1.49-1.31,3.31-3.07h-.54c-3.72,0-8.25.91-12.38,2.41l-.41-.85ZM923.92,296.88c2.5,1.37,4.33,2.61,6.02,4.04,2.43,2.15,3.38,3.65,3.38,5.22s-.95,2.74-2.1,2.74q-.88,0-2.98-4.24c-1.22-2.28-3.38-5.15-5.21-6.85l.88-.91ZM930.89,293.1c2.43,1.04,4.4,2.22,6.49,3.72,2.57,1.89,3.45,3.26,3.45,5.02,0,1.57-.68,2.68-1.69,2.68-.61,0-1.01-.33-1.56-1.24-2.37-4.11-3.65-5.81-7.37-9.27l.68-.91Z"/>
    <path d="M983.71,301.71c-2.64.78-8.99,3.2-13.66,5.15-1.35.59-2.23.85-2.77.85-1.22,0-2.57-.91-3.85-2.74-1.22-1.76-1.89-3.46-1.89-4.83,0-.59.14-1.04.61-1.7,1.01,3.07,2.84,4.76,5.07,4.76,1.76,0,8.18-1.44,12.78-2.81,2.64-.85,2.77-.85,4.19-2.02.27-.2.61-.33.95-.33.88,0,1.96.65,3.65,2.28,1.56,1.44,2.03,2.15,2.03,2.94,0,.46-.34.85-1.15,1.24-1.96.98-2.64,1.5-5.61,4.37-4.26,4.11-6.76,6.52-9.94,9.79q-6.49,6.72-7.91,8.09l.13.13c7.24-4.37,12.71-6.2,18.39-6.2,8.66,0,14.47,4.89,14.47,12.2,0,9.33-9,16.25-21.24,16.25-6.63,0-10.89-2.54-10.89-6.53,0-3.2,3.11-5.55,7.3-5.55,3.31,0,6.36,1.17,8.59,3.2,1.22,1.11,1.96,2.15,2.98,4.04,5.14-2.15,8.18-6.65,8.18-12.2,0-3.59-1.49-6.52-4.19-8.09-1.42-.78-4.06-1.31-6.7-1.31-6.63,0-15.89,5.22-21.51,12.14-1.15,1.37-1.62,1.76-2.3,1.76-1.01,0-2.23-2.28-2.23-4.24,0-.78.47-1.5,1.42-2.28,2.57-1.89,3.65-2.94,9.4-9.07,8.25-8.94,10.82-11.81,16.16-18.46q.54-.72.68-1.04s-.14-.13-.2-.13c0,0-.07,0-.07.06h-.2s-.14.07-.34.13l-.34.13ZM973.3,339.16c-2.57,0-4.26,1.31-4.26,3.33,0,2.41,2.98,3.98,7.71,3.98,1.83,0,2.71-.13,4.8-.59-1.35-4.18-4.46-6.72-8.25-6.72Z"/>
    <path d="M1024.36,305.43c3.58,2.87,5.75,3.52,10.89,3.52,2.91,0,5.54-.2,9.67-.78-.27-9.98-.74-10.9-5.88-11.61.95-.91,1.49-1.04,3.38-1.04s4.13.33,5.68.85c1.62.52,2.3,1.17,2.3,2.15q0,.39-.88,2.22c-.61,1.24-1.01,3.52-1.22,6.92,6.7-1.24,10.35-2.35,12.58-3.85.2-.13.61-.26.81-.26.81,0,2.77.59,3.52,1.11.74.46,1.15.98,1.15,1.57,0,.91-1.08,1.44-5.27,2.41-4.6,1.04-8.86,1.83-12.92,2.28-.07,1.7-.07,2.68-.07,4.18,0,1.76,0,3.07.07,5.94,2.77-.46,5.41-1.04,7.71-1.76,1.76-.59,2.1-.78,3.38-1.63.27-.2.61-.26,1.01-.26.95,0,2.64.46,3.45.98.54.26.81.72.81,1.24,0,1.17-.95,1.7-5.21,2.81-3.38.85-7.78,1.63-11.02,1.89.14,2.54.14,3.59.2,5.87.14,2.48.2,3.46.41,5.09,6.22,1.11,12.17,3.33,14.88,5.61,1.28,1.11,1.96,2.61,1.96,4.31,0,1.37-.61,2.28-1.49,2.28-.68,0-.95-.2-2.71-1.83-1.15-1.04-3.72-2.94-5.68-4.05-2.3-1.3-3.99-2.02-6.76-2.74.14,1.44.2,2.09.2,2.87,0,2.54-.74,4.24-2.3,5.48-1.89,1.5-5.41,2.41-9.06,2.41-6.76,0-11.43-2.87-11.43-6.98,0-4.63,6.29-7.89,15.28-7.89,1.08,0,1.76,0,3.38.07-.07-3.13-.07-3.59-.07-4.5v-5.68c-2.71.13-3.99.2-5,.2-4.4,0-7.37-.46-8.99-1.44-1.96-1.11-3.04-2.94-3.04-4.96,0-.46.07-1.11.13-1.83l1.01.07c.07,2.02.41,2.94,1.42,3.72,1.08.91,3.99,1.44,7.91,1.44,1.89,0,3.52-.13,6.56-.46v-4.57l-.13-4.76v-.78c-3.72.33-6.42.46-8.72.46-6.42,0-9.2-1.24-12.58-5.61l.68-.65ZM1039.38,337.53c-2.64,0-5.27.46-7.37,1.24-2.43.91-3.65,2.22-3.65,3.91,0,2.35,2.77,3.72,7.37,3.72,3.31,0,6.09-.85,7.71-2.35.88-.78,1.29-1.76,1.49-3.39.07-.46.13-1.96.13-2.48v-.2c-2.64-.33-3.85-.46-5.68-.46Z"/>
    <path d="M1090.17,304.26c3.25,2.48,4.8,3.07,8.45,3.07,2.16,0,4.12-.26,7.24-.85,1.49-2.81,2.37-5.22,2.37-6.65,0-1.76-1.29-2.81-4.8-3.65,1.15-.59,1.76-.72,3.04-.72,1.56,0,3.52.39,5.28,1.11,1.69.65,2.43,1.37,2.43,2.15,0,.46-.27.91-1.08,1.89-.61.78-1.42,1.96-1.96,2.68q-1.22,1.89-1.69,2.54c5.68-1.57,7.51-2.35,9.74-4.18.41-.33.81-.46,1.29-.46,2.64,0,4.53.91,4.53,2.15,0,.78-.88,1.44-2.91,2.09-6.02,1.89-9.26,2.68-14.74,3.72-1.22,1.63-2.03,2.81-3.58,5.09-1.83,2.74-2.37,3.46-3.65,5.22,3.79-1.89,6.15-2.61,8.72-2.61,3.99,0,6.97,2.61,7.57,6.52q1.15-.52,6.63-3.2c6.69-3.26,8.32-4.31,8.32-5.48,0-1.11-1.15-2.28-3.11-3.07.74-.33,1.08-.39,1.55-.39,2.98,0,7.64,3.98,7.64,6.59,0,1.17-.54,1.63-2.43,2.02-4.06.91-12.85,4.18-18.12,6.72.07,2.09.07,2.48.07,5.28s-.2,4.96-.54,5.61c-.34.72-1.08,1.24-1.89,1.24-1.29,0-2.16-.85-2.16-1.96,0-.33,0-.65.07-1.11.27-1.89.41-4.11.47-6.98-4.19,2.22-6.15,3.52-7.91,5.15-2.23,2.09-3.31,4.11-3.31,6.07,0,3.52,3.72,5.22,11.29,5.22,4.73,0,9.47-.65,13.59-1.83.47-.13.95-.2,1.29-.2,2.1,0,4.73,1.83,4.73,3.26,0,.85-.74,1.5-2.1,1.76-2.77.52-7.91.91-12.11.91-6.36,0-11.02-.65-13.73-1.89-3.45-1.57-5-3.72-5-6.92s1.56-5.87,4.87-8.94c1.76-1.63,3.92-3.13,8.39-5.81-.07-2.74-.27-3.78-.95-5.15-.61-1.17-1.96-1.96-3.45-1.96-4.46,0-9.81,3.46-14.67,9.46-1.29,1.7-1.83,2.09-2.5,2.09-1.08,0-1.83-1.37-1.83-3.46,0-1.37.07-1.44,1.96-2.94,4.8-3.65,7.78-7.05,12.58-14.03-2.23.33-3.11.39-4.53.39-4.6,0-6.96-1.17-10.08-5.02l.74-.59Z"/>
    <path d="M308.39,446.11c8.45-4.37,17.52-10.96,25.43-18.53,6.7-6.33,11.02-11.61,11.02-13.51,0-1.24-1.08-2.28-3.79-3.72.74-.26.88-.26,1.35-.26,1.96,0,3.65.59,5.82,1.96,2.3,1.5,3.52,3,3.52,4.24,0,.59-.07.72-2.71,2.87q-.68.52-5.48,4.96c-4.73,4.37-5.14,4.7-8.05,7.05,2.64,1.89,3.79,2.87,4.13,3.65.27.65.41,3.72.47,9.59.07,4.57.2,8.74.34,12.46,0,1.44.07,3.33.07,3.72,0,2.28-.47,3.26-1.56,3.26-1.56,0-4.6-3.59-4.6-5.48q0-.46.41-1.7c.61-1.63,1.22-9.72,1.22-16.05,0-3.2-.13-5.15-.41-6.2-.2-.65-.47-.98-1.49-2.02-4.73,3.65-9.6,6.98-12.98,8.94-3.79,2.15-8.66,4.44-12.17,5.68l-.54-.91Z"/>
    <path d="M389.48,424.52c5.55,2.22,9.67,4.44,15.96,8.55,3.11-4.63,5.82-9.4,7.3-13.05.74-1.7.95-2.48.95-3.52,0-1.57-1.08-2.87-3.65-4.37.54-.33.74-.39,1.15-.39,1.15,0,3.18.72,5.07,1.83,2.71,1.63,4.46,3.39,4.46,4.63,0,.65-.27,1.11-1.15,2.02-1.22,1.24-2.03,2.28-3.72,5.02q-3.18,4.96-6.9,10.24c7.24,5.42,8.45,6.92,8.45,10.37,0,2.02-.68,3.52-1.62,3.52-.68,0-.81-.13-2.5-2.54-2.03-2.94-4.06-5.29-6.9-7.96-6.02,7.5-8.66,10.24-14.2,14.68-4.8,3.85-7.71,5.74-14.2,8.94l-.61-.98c5.54-3.92,8.66-6.39,12.85-10.5,4.73-4.57,7.3-7.5,13.19-15.07-5-4.37-8.66-6.98-14.54-10.57l.61-.85Z"/>
    <path d="M446.84,433.2c1.69,1.24,2.98,1.57,6.56,1.57q.74,0,8.32-.2c2.64-.07,24.14-.39,26.37-.39,6.09,0,7.57.13,8.79.59.68.33.95.72.95,1.3,0,.78-.61,1.5-1.56,1.76-1.83.59-3.45.65-16.23.78-6.29.06-21.78.46-24.14.59-3.18.2-3.79.26-4.87.85-.27.06-.74.2-1.01.2-1.01,0-2.1-.72-3.25-2.15-1.42-1.7-2.57-4.44-2.57-6,0-.91.07-1.04.54-1.5.81,1.5,1.15,1.96,2.1,2.61Z"/>
    <path d="M512.92,428.63c5.61,1.11,9.6,2.41,11.83,3.85,1.83,1.11,2.57,2.41,2.57,4.31,0,1.7-.88,3.13-1.89,3.13-.68,0-1.08-.26-2.1-1.5-3.45-4.18-6.63-6.79-10.82-8.94l.41-.85ZM565.12,427c-1.49,2.35-5.28,6.52-10.08,11.16-7.44,6.92-14.88,12.46-25.63,18.99-3.58,2.28-4.4,2.81-5.21,3.59-.54.46-1.01.65-1.56.65-1.35,0-2.91-1.24-4.8-3.92-1.22-1.76-2.1-3.78-2.1-5.02,0-.59.2-1.04.61-1.5,1.28,2.48,3.18,4.05,5.07,4.05,1.49,0,5.95-2.15,12.98-6.39,12.38-7.31,22.45-14.88,29.89-22.18l.81.59ZM520.35,417.08c10.82,2.48,14.27,4.5,14.27,8.29,0,1.83-.81,3.26-1.83,3.26q-.74,0-3.65-3.46c-2.64-3-6.02-5.61-9.27-7.18l.47-.91ZM549.3,411.47c2.5,1.3,4.33,2.54,6.02,3.98,2.43,2.15,3.38,3.65,3.38,5.22s-.95,2.74-2.1,2.74q-.88,0-3.04-4.24c-1.15-2.28-3.31-5.16-5.14-6.85l.88-.85ZM556.26,407.62c2.43,1.11,4.4,2.22,6.49,3.78,2.57,1.89,3.45,3.2,3.45,5.02,0,1.57-.68,2.68-1.69,2.68-.61,0-1.01-.33-1.56-1.31-2.37-4.11-3.72-5.74-7.44-9.26l.74-.91Z"/>
    <path d="M629.11,449.7c-6.49,8.48-15.35,13.51-23.74,13.51-5.14,0-9.13-2.02-11.23-5.55-1.35-2.28-1.89-5.48-1.89-11.03,0-3.59.2-9.79.54-15.72.41-7.05.47-8.87.47-11.22,0-5.61-.68-6.72-5.48-8.68.74-.52,1.15-.65,1.89-.65,1.56,0,3.99.59,6.09,1.5,2.57,1.17,3.92,2.48,3.92,3.85,0,.46-.07.85-.61,2.35-1.29,3.91-3.52,23.68-3.52,31.32,0,3.98.81,6.33,2.71,7.83,1.49,1.11,3.65,1.76,6.02,1.76,4.6,0,10.28-1.57,15.42-4.18,3.11-1.57,5.07-2.94,8.59-5.81l.81.72Z"/>
    <path d="M647.17,423.21c2.77,2.74,4.53,3.59,7.44,3.59,2.64,0,5.48-.39,8.59-1.24,1.35-4.24,2.3-8.81,2.3-11.03,0-2.02-1.01-2.87-4.8-4.11.88-.46,1.22-.59,2.1-.59,1.55,0,3.79.46,5.82,1.24,2.03.72,3.04,1.63,3.04,2.61q0,.46-.81,1.57c-.88,1.24-2.37,4.7-4.06,9.33,3.79-1.3,6.22-2.54,7.84-3.98,1.08-.98,1.35-1.11,1.89-1.11.88,0,2.5.33,3.58.72.74.26,1.08.65,1.08,1.17,0,1.11-1.08,1.96-3.92,3.2-3.04,1.3-7.57,2.74-11.83,3.78q-.81,2.22-2.84,8.29-1.35,3.92-5.07,14.55c-2.71,7.76-3.58,9.4-5,9.4-.68,0-1.15-.39-1.56-1.3-.54-1.04-.95-2.67-.95-3.78,0-1.04.07-1.24,1.49-3.2,3.38-4.76,6.02-10.44,10.62-23.36-2.57.46-4.53.65-6.49.65-4.12,0-6.76-1.7-9.26-5.87l.81-.52ZM674.15,445.72c-.07.98-.07,1.76-.07,2.02,0,3.72,1.83,6.53,5.14,7.9,1.83.78,4.6,1.24,7.24,1.24,2.77,0,4.33-.2,6.49-.98.47-.2.88-.26,1.15-.26.74,0,2.3.72,3.45,1.57.81.65,1.22,1.24,1.22,1.83,0,1.44-2.64,2.15-7.98,2.15s-9.54-.72-12.51-2.09c-3.65-1.7-5.75-5.09-5.75-9.46,0-1.44.13-2.54.61-4.11l1.01.2ZM675.98,433.65c4.87-2.81,10.41-4.37,15.69-4.37,1.42,0,3.18.46,4.26,1.17.68.39,1.08,1.11,1.08,1.83,0,1.04-.61,1.44-2.57,1.5-2.5.13-3.31.33-5.21,1.3-1.35.72-1.42.72-3.72,2.22q-1.29.78-2.37,1.37l-.41-.59q.81-.78,3.25-2.94c.61-.52,1.22-1.04,3.31-3.07-4.46,0-8.05.72-12.92,2.41l-.41-.85Z"/>
    <path d="M710.41,453.75c6.63-5.02,12.51-11.42,16.64-18.07,2.1-3.46,2.77-5.02,2.77-6.46,0-1.04-.95-2.09-3.38-3.72.74-.2,1.01-.26,1.49-.26,1.22,0,3.52.91,5.55,2.22,2.3,1.5,3.25,2.48,3.25,3.52,0,.52-.2.91-.81,1.43-1.22.98-1.35,1.11-2.84,3-5.41,6.98-7.98,9.53-14.2,14.29-3.18,2.28-5.14,3.52-7.91,4.76l-.54-.72ZM746.66,425.11c7.1,4.11,13.53,9.59,17.79,15.2,2.1,2.74,2.84,4.57,2.84,6.98,0,2.67-1.08,4.76-2.57,4.76-.95,0-1.22-.39-2.23-3-3.38-8.81-9.13-16.83-16.57-23.1l.74-.85ZM769.18,418.65c0,3.98-3.31,7.18-7.37,7.18s-7.44-3.26-7.44-7.18,3.31-7.11,7.44-7.11,7.37,3.2,7.37,7.11ZM756.6,418.65c0,2.74,2.37,5.02,5.21,5.02s5.14-2.22,5.14-5.02-2.3-4.96-5.14-4.96-5.21,2.22-5.21,4.96Z"/>
    <path d="M781.96,459.16c6.49-3.92,13.19-9.2,18.19-14.29,4.06-4.11,8.93-10.24,12.92-16.25,2.16-3.2,3.31-5.35,4.6-8.42-3.25.2-6.83.91-14.27,2.87-3.25.85-3.52.91-5.68,1.76-.34.13-.74.2-1.15.2-1.49,0-2.91-1.17-4.4-3.72-.95-1.5-1.42-2.87-1.42-3.91,0-.39.14-.72.47-1.31,1.96,3.39,3.38,4.37,6.36,4.37,2.23,0,9.06-.85,14.2-1.83,3.92-.72,5.14-1.11,6.36-1.83.74-.46,1.08-.59,1.55-.59,1.42,0,5.28,3.33,5.28,4.57,0,.46-.27.85-.88,1.24q-1.42.91-3.86,4.44-3.25,4.7-8.52,11.35c9.54,4.83,14.88,8.16,17.51,11.03,1.83,1.89,2.57,3.78,2.57,6.46,0,2.09-.68,3.39-1.83,3.39-.47,0-1.01-.33-1.55-1.04q-.27-.33-1.62-2.61c-3.38-5.48-9.2-11.29-16.1-15.99-5.48,6.39-9.87,10.37-16.37,14.68-4.26,2.87-7.17,4.44-11.83,6.39l-.54-.98Z"/>
    <path d="M855.08,463.28c6.42-4.05,8.79-5.74,12.65-9.07,4.87-4.24,8.18-7.7,11.36-11.81-1.08-.2-1.49-.52-2.91-2.61-2.84-4.11-5.07-6.46-9.4-9.72-4.8,4.57-8.39,7.37-12.51,9.72l-.74-.98c4.8-3.98,8.86-8.16,13.05-13.51,4.26-5.48,6.69-9.66,6.69-11.35,0-1.5-1.15-2.54-4.33-3.91.68-.26.95-.33,1.49-.33,1.42,0,3.99.78,6.02,1.89,1.89.98,2.77,1.89,2.77,2.74,0,.91-.61,1.89-3.18,5.02.81.2,1.22.26,1.89.26,1.55,0,3.92-.39,8.99-1.44,3.52-.72,4.12-.91,5.34-1.76.34-.2.74-.33,1.08-.33.88,0,2.03.65,3.79,2.22,1.15,1.04,1.83,2.02,1.83,2.67,0,.46-.27.78-.95,1.3-.81.65-1.08,1.04-2.23,3-6.97,12.53-14.07,21.34-22.86,28.45-5.75,4.57-11.5,8.09-17.31,10.5l-.54-.98ZM887.33,420.54q-5.48,1.3-6.22,1.57c-1.15.39-1.49.46-2.1.46-1.15,0-2.37-.52-4.06-1.76-2.57,3.33-4.33,5.35-7.17,8.22q5,2.09,6.49,2.94c2.98,1.57,4.53,3,5.88,5.09.61,1.04.74,1.57.88,2.94,4.8-6.2,9.26-14.03,11.5-20.36-1.69.13-2.91.39-5.21.91Z"/>
    <path d="M932.11,437.44c-1.22,4.11-3.11,11.22-3.92,14.42-.68,2.87-.88,3.91-.88,5.55-.07,2.09-.14,2.35-.47,2.87-.34.46-.74.72-1.29.72-1.15,0-2.1-.91-2.91-2.94-1.35-3.33-2.16-8.29-2.16-13.12,0-6,.74-11.48,3.04-21.73.88-4.04,1.01-4.76,1.01-5.87,0-1.96-.54-3.52-1.96-5.74,1.55.07,2.84.91,4.73,3.26,1.56,1.89,2.43,3.72,2.43,4.96q0,.72-1.08,2.87c-3.25,6.53-5.14,14.29-5.14,21.27,0,3.33.27,5.42,1.08,8.09l2.84-6.52,3.65-8.42,1.01.33ZM938.87,425.63c3.25,2.02,5.34,2.67,8.72,2.67,2.37,0,4.94-.33,7.71-.91v-2.87c0-7.31-.07-8.16-.95-9.07-.81-.85-2.3-1.3-4.46-1.5.95-.85,1.49-1.04,3.25-1.04,1.49,0,3.31.26,4.6.59,1.96.59,2.97,1.37,2.97,2.35,0,.46,0,.52-.61,2.02-.74,1.89-1.15,4.24-1.42,8.74,3.11-.85,5.07-1.7,6.22-2.67.68-.65.88-.72,1.49-.72.81,0,2.37.39,3.18.85.54.26.88.72.88,1.17,0,1.44-4.94,3.39-11.97,4.7,0,8.68.2,12.27.88,17.75,7.84,2.02,11.16,4.57,11.16,8.35,0,1.37-.61,2.41-1.35,2.41-.54,0-1.01-.33-2.37-1.63-2.98-2.94-4.67-4.11-7.3-5.22.07.59.07,1.11.07,1.57,0,4.7-4.06,7.5-10.82,7.5-5.88,0-10.01-2.74-10.01-6.66,0-4.5,5-7.37,12.71-7.37,1.29,0,2.23.06,4.13.2v-1.11l-.14-6.98-.07-8.35c-2.03.39-3.99.52-5.95.52-4.94,0-7.78-1.17-11.16-4.57l.61-.72ZM949.22,449.44c-5.34,0-8.66,1.7-8.66,4.57,0,2.28,2.64,3.85,6.63,3.85,3.72,0,6.36-1.04,7.44-3.07.68-1.17.88-2.15.88-4.57-1.89-.52-3.79-.78-6.29-.78Z"/>
    <path d="M165.07,534.01c8.59-1.7,13.32-3.13,21.71-6.53,6.63-2.67,10.21-4.44,12.85-6.26,1.22.98,2.1,1.7,2.71,2.15,2.3,1.76,3.11,2.61,3.11,3.2,0,.26-.27.39-.68.39-.61,0-1.15-.13-3.04-.65q-1.69.59-12.71,4.24c-4.6,1.5-16.97,4.18-22.52,4.83q-.13,0-1.42.13v5.22c0,1.04.88,1.5,2.98,1.5h1.83c.81,0,1.96,0,3.92.07,2.5.07,4.94.07,8.25.07,4.19,0,9.26-.07,14.74-.26,1.62,0,3.04-.06,3.58-.06,2.57-.07,3.11-.52,4.19-3.85.2-.59.68-1.89,1.42-3.72.41-1.04.95-2.61,1.69-4.7l.68.07-.68,8.55v.91q0,1.24,1.96,2.02c.81.33,1.15.78,1.15,1.5,0,1.04-1.15,2.09-2.71,2.41-1.42.33-2.03.39-6.49.46-4.06.13-14.4.33-15.28.33-16.37,0-19.48-.07-21.84-.33-2.71-.33-3.65-1.37-3.79-4.18v-2.15q0-.65.07-5.48v-7.11c0-2.02-.07-3.2-.41-5.61,3.65.33,6.29.72,6.9.91.27.13.54.52.54.72,0,.46-1.01,1.04-2.71,1.44v9.79ZM198.28,552.41c1.15-1.31,1.49-1.7,2.71-2.87,1.89,1.17,2.43,1.57,4.06,2.87.54.46.68.72.68.98,0,.39-.74.98-2.23,1.76.07,12.27.07,16.12.2,23.68,0,.65-.14.85-.47,1.04-.41.13-1.89.33-2.84.39h-.68c-.61,0-.88-.26-.88-.78v-3.85h-30.16v3.72q-.07.98-3.52,1.11c-.74,0-1.08-.33-1.08-.98v-.26q.14-4.96.14-14.62c0-7.24-.14-11.29-.47-15.2,2.57,1.17,3.31,1.57,5.48,3h29.08ZM198.82,553.91h-30.16v8.61h30.16v-8.61ZM168.66,564.03v10.11h30.16v-10.11h-30.16Z"/>
    <path d="M255.36,548.04v-12.59h-7.57c-1.28.06-2.3.06-3.04.13-.95,0-1.01,0-2.03.2l-.47-2.48c1.83.46,3.38.65,5.54.65h7.57v-7.05c0-2.94-.07-3.72-.27-5.87,1.42.2,2.57.26,3.25.33,3.38.2,4.33.46,4.33,1.11,0,.59-.74.91-2.64,1.37v10.11h8.66c1.49-1.89,1.96-2.41,3.52-4.05,2.57,1.83,3.31,2.48,5.75,4.5.13.26.2.46.2.59,0,.26-.27.46-.68.46h-17.45v12.59h10.41q1.89-2.09,3.85-4.37c2.64,2.09,3.45,2.74,5.95,4.76.2.2.27.46.27.59,0,.26-.34.52-.61.52h-19.21c.54,1.11,1.15,2.09,2.64,4.37,3.25,4.89,6.76,8.29,11.63,11.42,2.98,1.83,5.07,2.81,8.86,3.98l-.14.85c-2.3.46-3.65,1.63-4.8,4.11-5.54-3.52-8.32-6.07-11.77-10.83-3.04-4.04-5-7.7-7.1-12.92v11.35q.07,11.22.2,17.36c-.13.59-.34.78-.81.91-.61.2-1.62.33-2.64.33-.88,0-1.22-.26-1.22-.91v-.2c.14-8.55.2-14.35.27-17.49v-8.09c-4.19,6.33-7.64,10.18-13.53,14.88-4.4,3.59-7.57,5.55-13.19,8.29l-.81-.85c5.55-3.46,10.55-7.5,15.42-12.59,4.06-4.37,6.15-7.31,9.6-13.96h-13.25v2.87c0,4.63,0,4.83.07,7.44,0,1.11-.68,1.37-3.18,1.37-.74,0-1.01-.26-1.01-.98v-3.07h-8.59v5.61c-.07.98-.61,1.17-2.5,1.24h-.68c-.88,0-1.22-.2-1.35-.78.14-5.81.2-15.59.2-21.99,0-5.61-.07-10.37-.27-14.09,2.43,1.17,3.18,1.5,5.41,2.74h7.37c1.01-1.17,1.35-1.57,2.43-2.74,1.83,1.17,2.37,1.57,3.99,2.68.47.46.68.72.68.98,0,.13-.13.39-.27.52-.07.13-.88.59-2.37,1.44,0,7.89,0,12.98.07,15.27h15.28ZM227.36,555.68h8.59v-24.27h-8.59v24.27Z"/>
    <path d="M302.57,566.05c5.14,2.81,9.06,4.44,10.48,4.44s2.64-1.37,4.4-5.48c2.37-5.35,3.99-12.53,3.99-17.49,0-2.74-.61-4.5-1.83-5.29-.68-.46-1.56-.65-3.04-.65-1.89,0-3.18.26-7.03,1.3q-.95,2.28-3.92,8.87c-.34.78-1.69,3.85-3.99,9.13-2.71,6.13-4.94,10.83-6.02,12.66-.47.85-1.01,1.24-1.62,1.24-1.22,0-1.96-1.7-1.96-4.5,0-1.63.2-2.15,1.56-3.65,3.04-3.59,5.95-8.94,12.44-22.71-4.53,1.44-7.37,2.54-8.79,3.39-1.01.59-1.42.72-1.96.72-.74,0-2.1-.85-2.98-1.96-1.22-1.5-2.23-3.78-2.23-4.96,0-.33.14-.78.41-1.44,1.42,2.68,2.64,3.59,5.14,3.59,1.49,0,6.49-.98,11.5-2.28,1.56-3.72,2.77-8.48,2.77-10.7,0-2.02-1.35-3.2-5.21-4.37.81-.59,1.22-.72,1.96-.72,1.01,0,2.77.33,4.6.85,3.04.85,4.73,2.09,4.73,3.46,0,.46-.14.72-.95,1.89-1.28,2.15-2.37,4.24-4.33,8.81,2.98-.59,4.19-.72,5.88-.72,5.82,0,8.59,3.33,8.59,10.18,0,8.35-3.45,19.18-7.37,23.36-1.69,1.7-4.33,2.94-6.49,2.94-1.15,0-1.69-.46-1.83-1.5-.14-1.7-.41-2.02-7.51-7.63l.61-.78ZM332.4,539.76c5.27,1.5,9.4,4.11,12.38,7.83,2.57,3.2,3.85,6.33,3.85,9.2,0,2.28-1.01,3.59-2.71,3.59-.54,0-.81-.07-1.56-.46-1.15-.65-1.49-.72-2.77-.72-2.37,0-2.71,0-8.45.59l-.27-.85c6.7-1.96,8.39-2.54,10.35-3.33-.81-6.33-5.41-12.33-11.36-14.94l.54-.91ZM334.69,526.71c2.5,1.3,4.33,2.54,6.02,4.04,2.43,2.09,3.38,3.59,3.38,5.15s-.95,2.74-2.1,2.74q-.88,0-2.98-4.24c-1.22-2.28-3.38-5.09-5.21-6.85l.88-.85ZM341.66,522.92c2.43,1.04,4.4,2.15,6.49,3.72,2.57,1.89,3.45,3.2,3.45,5.02,0,1.57-.68,2.68-1.69,2.68-.61,0-1.01-.33-1.56-1.24-2.37-4.11-3.72-5.81-7.44-9.33l.74-.85Z"/>
    <path d="M380.42,571.33c6.22-1.5,10.69-3.13,14.95-5.48,7.91-4.31,12.44-10.7,12.44-17.55s-5-10.96-12.38-10.96c-7.91,0-18.26,4.18-27.19,10.9-1.08.85-1.76,1.11-2.57,1.11-3.18,0-8.12-4.57-8.12-7.5,0-.46.14-.85.54-1.63.68,1.37,1.08,1.83,1.89,2.41,1.01.72,1.83,1.04,2.77,1.04,1.76,0,4.33-.72,8.18-2.35,10.69-4.5,17.72-6.26,24.75-6.26,10.28,0,17.31,5.81,17.31,14.35,0,8.09-5.68,15.07-15.55,19.12-5.14,2.09-10.08,3.2-16.7,3.79l-.34-.98Z"/>
    <path d="M432.57,533.82c3.58,2.87,5.75,3.52,10.89,3.52,2.91,0,5.55-.2,9.67-.78-.27-9.98-.74-10.9-5.88-11.61.95-.91,1.49-1.04,3.38-1.04s4.13.33,5.68.85c1.62.52,2.3,1.17,2.3,2.15q0,.39-.88,2.22c-.61,1.24-1.01,3.52-1.22,6.92,6.7-1.24,10.35-2.35,12.58-3.85.2-.13.61-.26.81-.26.81,0,2.77.59,3.52,1.11.74.46,1.15.98,1.15,1.57,0,.91-1.08,1.44-5.27,2.41-4.6,1.04-8.86,1.83-12.92,2.28-.07,1.7-.07,2.68-.07,4.18,0,1.76,0,3.07.07,5.94,2.77-.46,5.41-1.04,7.71-1.76,1.76-.59,2.1-.78,3.38-1.63.27-.2.61-.26,1.01-.26.95,0,2.64.46,3.45.98.54.26.81.72.81,1.24,0,1.17-.95,1.7-5.21,2.8-3.38.85-7.78,1.63-11.02,1.89.14,2.54.14,3.59.2,5.87.14,2.48.2,3.46.41,5.09,6.22,1.11,12.17,3.33,14.88,5.61,1.28,1.11,1.96,2.61,1.96,4.31,0,1.37-.61,2.28-1.49,2.28-.68,0-.95-.2-2.71-1.83-1.15-1.04-3.72-2.94-5.68-4.05-2.3-1.3-3.99-2.02-6.76-2.74.14,1.44.2,2.09.2,2.87,0,2.54-.74,4.24-2.3,5.48-1.89,1.5-5.41,2.41-9.06,2.41-6.76,0-11.43-2.87-11.43-6.98,0-4.63,6.29-7.89,15.28-7.89,1.08,0,1.76,0,3.38.07-.07-3.13-.07-3.59-.07-4.5v-5.68c-2.71.13-3.99.2-5,.2-4.4,0-7.37-.46-8.99-1.43-1.96-1.11-3.04-2.94-3.04-4.96,0-.46.07-1.11.14-1.83l1.01.07c.07,2.02.41,2.94,1.42,3.72,1.08.91,3.99,1.44,7.91,1.44,1.89,0,3.52-.13,6.56-.46v-4.57l-.14-4.76v-.78c-3.72.33-6.42.46-8.72.46-6.42,0-9.2-1.24-12.58-5.61l.68-.65ZM447.58,565.92c-2.64,0-5.27.46-7.37,1.24-2.43.91-3.65,2.22-3.65,3.92,0,2.35,2.77,3.72,7.37,3.72,3.31,0,6.09-.85,7.71-2.35.88-.78,1.29-1.76,1.49-3.39.07-.46.13-1.96.13-2.48v-.2c-2.64-.33-3.85-.46-5.68-.46Z"/>
    <path d="M514.74,573.81c8.45-1.7,14-3.98,18.73-7.89,3.72-2.94,5.68-6.66,5.68-10.57,0-5.68-4.06-9.46-10.08-9.46-6.56,0-15.28,3.39-22.45,8.87-1.29.91-1.89,1.24-2.71,1.24-2.5,0-6.56-4.7-6.56-7.7,0-.33.13-.65.47-1.31,1.08,2.35,2.57,3.59,4.19,3.59.88,0,2.5-.52,5.95-1.83,6.09-2.35,11.56-3.98,15.42-4.63,1.62-.26,3.11-.39,5.27-.39,8.86,0,15.08,5.22,15.08,12.66,0,4.63-2.84,9.4-7.3,12.27-5.41,3.52-11.36,5.29-21.44,6.39l-.27-1.24Z"/>
    <path d="M562.63,537.41c2.77,2.74,4.53,3.59,7.44,3.59,2.64,0,5.48-.39,8.59-1.24,1.35-4.24,2.3-8.81,2.3-11.03,0-2.02-1.01-2.87-4.8-4.11.88-.46,1.22-.59,2.1-.59,1.56,0,3.79.46,5.82,1.24,2.03.72,3.04,1.63,3.04,2.61q0,.46-.81,1.57c-.88,1.24-2.37,4.7-4.06,9.33,3.79-1.3,6.22-2.54,7.84-3.98,1.08-.98,1.35-1.11,1.89-1.11.88,0,2.5.33,3.58.72.74.26,1.08.65,1.08,1.17,0,1.11-1.08,1.96-3.92,3.2-3.04,1.3-7.57,2.74-11.83,3.78q-.81,2.22-2.84,8.29-1.35,3.92-5.07,14.55c-2.71,7.76-3.58,9.4-5,9.4-.68,0-1.15-.39-1.56-1.3-.54-1.04-.95-2.67-.95-3.78,0-1.04.07-1.24,1.49-3.2,3.38-4.76,6.02-10.44,10.62-23.36-2.57.46-4.53.65-6.49.65-4.13,0-6.76-1.7-9.27-5.87l.81-.52ZM589.61,559.92c-.07.98-.07,1.76-.07,2.02,0,3.72,1.83,6.53,5.14,7.9,1.83.78,4.6,1.24,7.24,1.24,2.77,0,4.33-.2,6.49-.98.47-.2.88-.26,1.15-.26.74,0,2.3.72,3.45,1.57.81.65,1.22,1.24,1.22,1.83,0,1.44-2.64,2.15-7.98,2.15s-9.54-.72-12.51-2.09c-3.65-1.7-5.75-5.09-5.75-9.46,0-1.44.14-2.54.61-4.11l1.01.2ZM591.44,547.85c4.87-2.81,10.41-4.37,15.69-4.37,1.42,0,3.18.46,4.26,1.17.68.39,1.08,1.11,1.08,1.83,0,1.04-.61,1.44-2.57,1.5-2.5.13-3.31.33-5.21,1.3-1.35.72-1.42.72-3.72,2.22q-1.28.78-2.37,1.37l-.41-.59q.81-.78,3.25-2.94c.61-.52,1.22-1.04,3.31-3.07-4.46,0-8.05.72-12.92,2.41l-.41-.85Z"/>
    <path d="M645.95,524.16c1.42,0,2.91.33,5,1.11,2.84,1.04,4.46,2.35,4.46,3.59q0,.46-.41,1.44c-.81,1.76-1.22,6.66-1.22,14.22,5.07.46,11.77,2.02,15.76,3.65,3.04,1.37,4.19,2.67,4.19,5.02,0,1.89-.61,3-1.62,3-.68,0-.74,0-2.5-1.57-4.46-3.98-9.67-6.72-15.89-8.48.07,4.11.07,6.13.07,8.09v9.53q0,1.96.13,7.44c.07,1.37.07,2.48.07,3.46,0,1.24-.07,1.83-.34,2.22-.2.33-.74.59-1.22.59-1.62,0-4.33-3.52-4.33-5.68,0-.65.07-1.04.34-1.83,1.01-3.13,1.42-11.61,1.42-28.25,0-4.7-.2-9.46-.47-11.22-.41-2.94-1.89-4.57-5.14-5.81.81-.46,1.08-.52,1.69-.52Z"/>
    <path d="M713.38,552.02c5.54,2.67,7.84,4.04,11.29,6.59,8.18-7.57,11.83-11.29,15.49-15.79,1.62-2.02,2.16-2.74,2.16-3.07s-.41-.52-1.08-.52c-3.11,0-12.44,1.3-20.96,2.94-7.71,1.44-10.55,2.22-13.32,3.52-.88.39-1.35.52-1.89.52-1.22,0-2.91-1.24-4.53-3.39-1.49-1.96-2.37-3.78-2.37-4.96,0-.52.13-.98.41-1.5.81,1.44,1.83,2.48,3.25,3.26,1.08.59,2.03.78,4.12.78,3.25,0,9.06-.59,22.38-2.35,6.36-.78,9.81-1.24,10.42-1.37q1.15-.2,2.16-.78c.54-.33,1.08-.46,1.69-.46,1.15,0,2.5.91,4.73,3.13,1.96,1.96,2.84,3.2,2.84,4.05,0,.59-.27,1.04-.81,1.3q-.34.13-1.69.59c-.81.26-1.76.85-3.79,2.41-.61.46-2.37,1.76-5,3.59-1.42,1.04-3.38,2.48-5.75,4.24-3.45,2.54-4.67,3.46-7.1,4.96,4.53,3.72,5.82,5.48,5.82,8.22,0,2.54-.95,4.31-2.3,4.31-.95,0-1.49-.52-2.37-2.35-1.22-2.54-4.06-6.65-6.56-9.59-2.16-2.48-4.12-4.37-7.84-7.44l.61-.85Z"/>
    <path d="M781.22,524.16c1.42,0,2.91.33,5,1.11,2.84,1.04,4.46,2.35,4.46,3.59q0,.46-.41,1.44c-.81,1.76-1.22,6.66-1.22,14.22,5.07.46,11.77,2.02,15.76,3.65,3.04,1.37,4.19,2.67,4.19,5.02,0,1.89-.61,3-1.62,3-.68,0-.74,0-2.5-1.57-4.46-3.98-9.67-6.72-15.89-8.48.07,4.11.07,6.13.07,8.09v9.53q0,1.96.14,7.44c.07,1.37.07,2.48.07,3.46,0,1.24-.07,1.83-.34,2.22-.2.33-.74.59-1.22.59-1.62,0-4.33-3.52-4.33-5.68,0-.65.07-1.04.34-1.83,1.01-3.13,1.42-11.61,1.42-28.25,0-4.7-.2-9.46-.47-11.22-.41-2.94-1.89-4.57-5.14-5.81.81-.46,1.08-.52,1.69-.52Z"/>
    <path d="M834.18,542.82c5.61,1.11,9.6,2.41,11.83,3.85,1.83,1.11,2.57,2.41,2.57,4.31,0,1.7-.88,3.13-1.89,3.13-.68,0-1.08-.26-2.1-1.5-3.45-4.18-6.63-6.79-10.82-8.94l.41-.85ZM886.38,541.19c-1.49,2.35-5.27,6.52-10.08,11.16-7.44,6.92-14.88,12.46-25.63,18.99-3.58,2.28-4.4,2.81-5.21,3.59-.54.46-1.01.65-1.56.65-1.35,0-2.91-1.24-4.8-3.92-1.22-1.76-2.1-3.78-2.1-5.02,0-.59.2-1.04.61-1.5,1.29,2.48,3.18,4.05,5.07,4.05,1.49,0,5.95-2.15,12.98-6.39,12.38-7.31,22.45-14.88,29.89-22.18l.81.59ZM841.62,531.27c10.82,2.48,14.27,4.5,14.27,8.29,0,1.83-.81,3.26-1.83,3.26q-.74,0-3.65-3.46c-2.64-3-6.02-5.61-9.26-7.18l.47-.91ZM870.56,525.66c2.5,1.3,4.33,2.54,6.02,3.98,2.43,2.15,3.38,3.65,3.38,5.22s-.95,2.74-2.1,2.74q-.88,0-3.04-4.24c-1.15-2.28-3.31-5.16-5.14-6.85l.88-.85ZM877.53,521.81c2.44,1.11,4.4,2.22,6.49,3.78,2.57,1.89,3.45,3.2,3.45,5.02,0,1.57-.68,2.68-1.69,2.68-.61,0-1.01-.33-1.56-1.31-2.37-4.11-3.72-5.74-7.44-9.26l.74-.91Z"/>
    <path d="M919.06,547.65c2.23,0,6.22-.52,9.67-1.24,1.76-.39,2.1-.46,2.84-.85.27-.2.61-.33.88-.46.47-.2.61-.26,1.01-.26.68,0,2.16.98,3.38,2.22,1.08,1.11,1.35,1.57,1.35,2.22,0,.39-.07.59-.47,1.04-.54.65-.81,1.57-1.56,4.5-1.01,3.72-2.43,9.46-2.91,11.48q.61-.07,2.77-.2c4.94-.26,5.48-.33,7.1-.91.68-.26.88-.33,1.15-.33.54,0,1.83.52,2.84,1.11,1.62.91,2.64,2.09,2.64,3,0,.72-.68,1.3-1.55,1.3q-.54,0-3.65-.72c-1.69-.39-4.4-.59-8.12-.59-6.49,0-11.5.59-17.58,2.02-2.71.59-4.33,1.11-5.88,1.83-.88.46-1.15.52-1.76.52-1.22,0-2.64-.78-3.85-2.15-1.15-1.31-2.23-3.33-2.23-4.31,0-.26.07-.59.27-1.11,1.42,2.02,3.11,3.07,5.14,3.07.68,0,2.43-.2,4.6-.46,4.33-.65,7.71-1.11,10.28-1.37q2.77-.33,4.13-.52c1.08-5.22,2.64-15.72,2.64-17.88,0-.2-.07-.26-.2-.26-.81,0-5.75,1.04-8.12,1.7-1.96.59-2.57.78-3.86,1.37-.47.2-1.15.33-1.62.33-1.22,0-2.37-.91-3.38-2.61-.81-1.37-1.29-2.61-1.29-3.52,0-.46.07-.72.41-1.3,1.08,2.22,2.77,3.33,4.94,3.33Z"/>
    <path d="M1020.5,545.63c-3.72,5.02-5.88,7.44-10.08,11.09-6.09,5.35-12.58,9.59-20.42,13.31-3.79,1.89-3.85,1.89-5.07,3.13-.54.59-1.01.85-1.56.85-1.35,0-4.46-3.85-4.46-5.61q0-.33.34-1.17c.47-1.44.54-2.94.54-9.98,0-14.42-.34-20.75-1.22-23.16-.61-1.63-1.69-2.41-4.67-3.39.81-.52,1.29-.65,2.1-.65,1.42,0,3.52.59,5.41,1.57,2.64,1.37,3.99,2.67,3.99,3.98q0,.39-.34,1.37c-.34,1.04-.68,3.46-.88,6.46-.34,3.98-.74,15.85-.74,20.68v3.26c9.74-3.46,15.76-6.46,23.06-11.55,5.14-3.59,9.81-7.5,13.12-10.96l.88.78Z"/>
    <path d="M1052.77,524.03c2.03,0,5.21.59,6.83,1.24,1.35.52,1.89,1.17,1.89,2.09v.13c0,.52-.07.52-.54,1.7-.81,2.22-1.49,7.83-1.49,13.24,0,3.85.54,4.83,2.64,4.83,1.42,0,2.91-.52,9.06-3.33,1.22-.59,1.96-.78,2.77-.78,1.62,0,3.25,1.37,3.25,2.74,0,.85-.47,1.57-1.42,1.96-.47.2-1.42.52-4.53,1.37-8.18,2.22-12.65,4.18-16.91,7.31-3.65,2.74-5.27,5.29-5.27,8.35,0,4.7,3.85,7.11,11.36,7.11,4.19,0,10.82-.78,15.69-1.89.68-.13.95-.2,1.35-.2,1.76,0,3.65,1.63,3.65,3.2,0,1.17-.74,1.76-2.91,2.15s-8.93.85-12.98.85c-4.94,0-8.66-.52-11.5-1.5-4.53-1.63-7.37-5.35-7.37-9.66,0-3.78,2.16-7.37,6.63-10.96,2.03-1.7,4.26-3.13,8.25-5.22-1.49,0-2.1-.2-3.25-.98-1.01-.72-1.62-2.15-1.96-4.96-.2-1.57-.27-3-.47-7.89-.2-5.55-.27-6.52-.81-7.5-.74-1.24-2.03-1.89-4.87-2.35,1.01-.85,1.56-1.04,2.91-1.04Z"/>
    <path d="M1100.99,565.4c5.14,1.83,10.42,4.31,13.19,6.26,2.64,1.89,3.58,3.39,3.58,5.74,0,2.09-1.28,4.31-2.43,4.31-.2,0-.68-.2-.95-.39q-.47-.39-3.45-4.7c-2.3-3.26-5.95-6.92-10.41-10.37l.47-.85Z"/>
    <path d="M223.57,660.28c1.42-1.89,1.89-2.48,3.31-4.24,2.3,2.02,2.98,2.67,5.14,4.83.14.2.2.39.2.52,0,.26-.27.39-.68.39h-9.6c.07,3.65.07,5.42.34,10.18-.14.59-.27.72-.88.78-1.42.2-2.43.26-2.98.26-.61,0-.81-.13-.88-.65v-1.83h-28.34c-1.49,0-3.58.13-5.82.39l-.47-2.61c1.76.46,3.85.72,6.22.72h10.62v-7.24h-19.41c-.34,8.16-.88,12-2.23,16.83-1.83,6.33-3.92,10.37-8.05,15.2l-1.08-.65c3.31-5.15,4.67-9.4,5.88-17.68.74-5.35,1.01-10.77,1.01-20.29,0-6.33-.07-11.75-.2-15.79,2.5,1.37,3.25,1.76,5.68,3.26h18.39v-3.26c0-1.76-.07-2.54-.34-4.57,5.61.59,6.63.72,7.44,1.3.34.2.47.39.47.59,0,.52-.61.85-2.91,1.57v4.37h15.76c1.76-2.02,2.3-2.61,4.19-4.63,2.91,2.15,3.79,2.87,6.76,5.29.07.13.14.33.14.39,0,.26-.27.46-.68.46h-49.98v4.5c0,3.33-.07,6.46-.2,11.61h19.34v-6.59h-10.55q-4.26.07-5.48.26l-.41-2.41c1.76.46,3.45.65,5.88.65h10.55v-.85c0-2.22-.07-3.33-.34-5.55,5.07.39,7.17.91,7.17,1.63,0,.52-.41.72-2.5,1.3v3.46h13.05c1.15-1.24,1.49-1.63,2.57-2.81,1.89,1.24,2.5,1.63,4.06,2.81.34.46.47.65.47.78,0,.46-.41.78-2.3,1.89v5.42h1.62ZM216.88,676.52c1.08-1.11,1.42-1.44,2.5-2.41,1.69.98,2.23,1.3,3.79,2.41.41.39.68.72.68.85,0,.39-.34.65-1.89,1.57.14,7.96.2,12.98.34,15.2-.2.46-.34.59-.88.72-.88.13-2.16.26-3.04.26-.54,0-.74-.13-.81-.65v-3.78h-27.66v3.46c-.07.46-.14.65-.54.72-.34.13-2.57.33-3.18.33-.54,0-.74-.2-.81-.72.14-8.87.2-13.83.2-15.01,0-1.89-.07-3.26-.2-5.87,2.37,1.24,3.11,1.63,5.41,2.94h26.1ZM189.89,689.18h27.66v-11.16h-27.66v11.16ZM217.55,653.69h-13.46v6.59h13.46v-6.59ZM204.09,661.78v7.24h13.53v-7.24h-13.53Z"/>
    <path d="M269.56,674.76h15.76c1.76-2.22,2.37-2.87,4.19-5.02,3.11,2.41,3.99,3.13,6.97,5.74.14.13.2.33.2.46,0,.26-.2.33-.88.33h-26.24v3.78q0,2.74.13,13.38c-.07.59-.2.78-.74.98-.47.13-1.89.26-3.11.26-1.01,0-1.29-.2-1.35-.85.07-5.02.14-11.75.14-13.77v-3.78h-17.72c-2.64,0-4.73.2-6.42.52l-.47-2.8c1.96.52,3.99.78,6.76.78h17.85v-11.22h-21.57c-2.16,0-4.13.2-5.55.59l-.41-2.74c1.69.46,3.38.65,5.95.65h28.54c2.84-5.09,5.68-11.55,6.63-15.07,5.88,1.63,7.98,2.41,7.98,3s-.81.85-3.52.98c-2.57,3.59-5.54,7.11-9.47,11.09h15.22c1.69-2.09,2.16-2.74,3.92-4.83,2.91,2.28,3.79,3,6.49,5.48.2.2.27.39.27.52,0,.2-.2.33-.54.33h-29.01v11.22ZM285.52,644.36c1.76-2.02,2.3-2.61,4.06-4.5,2.84,2.09,3.65,2.74,6.22,5.02.27.2.47.52.47.59,0,.2-.2.39-.47.39h-47.54c-2.64,0-4.26.13-6.09.59l-.41-2.74c1.76.46,3.99.65,6.49.65h16.37v-3.85c0-1.89-.07-3.2-.2-5.68q8.25,1.11,8.25,1.76c0,.52-.88.98-3.11,1.57v6.2h15.96ZM252.18,646.84c5.27,3.98,8.39,7.63,8.39,9.79,0,.91-.68,2.61-1.49,3.59-.47.72-1.01,1.04-1.56,1.04-.34,0-.61-.26-.88-.72s-.27-.46-1.08-3.85c-.61-2.35-2.43-6.79-4.06-9.53l.68-.33Z"/>
    <path d="M348.22,639.92c1.35-1.57,1.76-2.02,3.18-3.46,2.77,1.83,3.58,2.41,6.09,4.24.81.59,1.15.91,1.15,1.24,0,.2-.2.46-.41.59-.41.33-.47.33-4.26.72-1.22.98-2.23,1.7-2.84,2.15-6.42,4.83-7.64,5.68-11.9,8.09.2,0,.34.07.47.07.88.2,1.35.52,1.35.85,0,.46-.34.72-2.77,1.76v6.72h17.04c1.96-2.28,2.64-3,4.73-5.22,3.04,2.35,3.92,3.07,6.83,5.55.2.26.27.46.27.59,0,.33-.34.59-.68.59h-28.2v16.12l.07,6.72v1.57c-.07,2.28-.74,3.26-2.84,4.37-1.08.59-2.1.91-5.55,1.83-.95-2.61-1.56-3.39-3.11-4.04-1.49-.65-3.25-.91-10.08-1.57l.13-1.17,15.49.59c.88-.07,1.01-.2,1.01-1.37v-23.03h-21.3c-2.37,0-4.13.07-6.69.33l-.74-2.41c3.18.46,4.46.59,7.44.59h21.3v-1.24q0-6.2-.41-9.46c2.1.33,3.18.59,4.4.85,4.19-3.65,8.25-8.03,10.82-11.61h-30.36c-2.5,0-4.6.13-6.36.33l-.61-2.48c2.5.46,4.8.65,7.44.65h29.89Z"/>
    <path d="M387.11,680.24c5.14,2.8,9.06,4.44,10.48,4.44s2.64-1.37,4.4-5.48c2.37-5.35,3.99-12.53,3.99-17.49,0-2.74-.61-4.5-1.83-5.29-.68-.46-1.56-.65-3.04-.65-1.89,0-3.18.26-7.03,1.3q-.95,2.28-3.92,8.87c-.34.78-1.69,3.85-3.99,9.13-2.71,6.13-4.94,10.83-6.02,12.66-.47.85-1.01,1.24-1.62,1.24-1.22,0-1.96-1.7-1.96-4.5,0-1.63.2-2.15,1.56-3.65,3.04-3.59,5.95-8.94,12.44-22.71-4.53,1.44-7.37,2.54-8.79,3.39-1.01.59-1.42.72-1.96.72-.74,0-2.1-.85-2.98-1.96-1.22-1.5-2.23-3.78-2.23-4.96,0-.33.14-.78.41-1.44,1.42,2.68,2.64,3.59,5.14,3.59,1.49,0,6.49-.98,11.5-2.28,1.56-3.72,2.77-8.48,2.77-10.7,0-2.02-1.35-3.2-5.21-4.37.81-.59,1.22-.72,1.96-.72,1.01,0,2.77.33,4.6.85,3.04.85,4.73,2.09,4.73,3.46,0,.46-.14.72-.95,1.89-1.28,2.15-2.37,4.24-4.33,8.81,2.98-.59,4.19-.72,5.88-.72,5.82,0,8.59,3.33,8.59,10.18,0,8.35-3.45,19.18-7.37,23.36-1.69,1.7-4.33,2.94-6.49,2.94-1.15,0-1.69-.46-1.83-1.5-.14-1.7-.41-2.02-7.51-7.63l.61-.78ZM416.94,653.95c5.27,1.5,9.4,4.11,12.38,7.83,2.57,3.2,3.85,6.33,3.85,9.2,0,2.28-1.01,3.59-2.71,3.59-.54,0-.81-.07-1.56-.46-1.15-.65-1.49-.72-2.77-.72-2.37,0-2.71,0-8.45.59l-.27-.85c6.7-1.96,8.39-2.54,10.35-3.33-.81-6.33-5.41-12.33-11.36-14.94l.54-.91ZM419.24,640.9c2.5,1.3,4.33,2.54,6.02,4.04,2.43,2.09,3.38,3.59,3.38,5.15s-.95,2.74-2.1,2.74q-.88,0-2.98-4.24c-1.22-2.28-3.38-5.09-5.21-6.85l.88-.85ZM426.2,637.11c2.43,1.04,4.4,2.15,6.49,3.72,2.57,1.89,3.45,3.2,3.45,5.02,0,1.57-.68,2.68-1.69,2.68-.61,0-1.01-.33-1.56-1.24-2.37-4.11-3.72-5.81-7.44-9.33l.74-.85Z"/>
    <path d="M439.19,668.3c3.65-4.05,6.29-7.76,8.66-12.46,1.35-2.68,1.89-4.05,2.5-6.2,6.36,1.96,7.03,2.28,7.03,2.74,0,.59-.68.78-3.18,1.11-7.57,10.18-8.66,11.35-14.47,15.53l-.54-.72ZM449.14,664.39c4.06,1.83,6.02,2.94,9.4,5.29,1.96-3.72,3.11-6.46,4.12-9.92,4.46,1.63,6.15,2.48,6.15,2.94s-.2.52-2.71,1.11c-1.76,3.52-2.77,5.42-4.46,8.22,6.49,5.02,7.03,5.61,7.03,8.03s-.54,3.78-1.56,3.78c-.61,0-1.08-.52-2.37-2.54-.88-1.44-2.3-3.2-5-6.26-2.71,3.85-5.27,6.79-8.52,9.92-4.06,3.85-6.7,5.74-11.5,8.09l-.54-.85c7.17-5.35,13.05-12,17.85-19.96-2.5-2.48-4.26-3.98-8.39-7.05l.47-.78ZM468.95,645.6c1.29-1.89,1.69-2.41,3.18-4.18,2.43,1.96,3.18,2.61,5.48,4.83.14.13.27.33.27.46,0,.2-.27.39-.54.39h-29.01c-2.84,0-5.14.13-7.3.46l-.41-2.54c3.25.46,5.27.59,7.71.59h7.57v-5.87c0-1.37-.14-2.94-.41-4.44,6.76.72,7.71.85,7.71,1.5,0,.46-.68.78-2.77,1.37v7.44h8.52ZM461.44,649.77c3.99,1.7,8.39,4.11,11.09,6.07,2.1,1.5,2.5,2.09,2.5,3.59,0,.98-.27,2.74-.47,3.26-.2.59-.54.91-.95.91s-.54-.13-1.69-2.02c-2.23-3.39-6.97-8.29-10.96-11.09l.47-.72ZM486.87,652.58c-.47,9.33-1.76,15.92-4.06,21.4-2.84,6.79-7.17,12.4-12.78,16.51-2.43,1.83-4.12,2.81-7.98,4.57l-.47-1.04c4.4-2.54,6.63-4.37,9.47-7.63,4.67-5.42,8.32-12.92,9.81-20.36.88-4.18,1.35-7.89,1.69-13.44h-2.98c-2.16,0-3.85.13-5.82.39l-.54-2.48c2.37.46,4.19.59,6.36.59h3.04c.13-2.81.27-8.03.27-11.42,0-1.17-.07-2.28-.2-4.5,3.11.39,6.15.85,7.1,1.11.41.13.61.26.61.46,0,.46-.54.78-2.84,1.76-.14,5.02-.2,6.33-.61,12.59h7.84c1.01-1.44,1.35-1.83,2.57-3.07,2.03,1.37,2.64,1.83,4.6,3.33.2.2.34.39.34.52,0,.33-.27.52-2.43,1.89-.95,18.33-1.83,27.14-3.38,33.08-.68,2.81-1.42,3.85-3.25,4.89-1.49.85-2.91,1.17-5.82,1.43-.27-1.96-.81-2.8-2.3-3.46-.68-.26-1.69-.59-3.85-.98l-2.84-.59v-.98c4.46.33,10.69.72,11.63.72,1.42,0,1.83-.39,2.23-2.15,1.62-7.96,2.43-16.44,3.04-33.15h-8.45Z"/>
    <path d="M535.5,663.87c-4.94,10.96-6.36,14.81-6.36,17.42q0,.52.41,2.22c.07.33.13.72.13,1.04,0,.91-.68,1.63-1.49,1.63-1.89,0-5.34-2.54-7.44-5.55-2.3-3.2-3.92-7.83-4.6-13.05-.41-2.87-.47-4.5-.47-11.48-.07-6.07-.54-7.57-3.45-11.22h.61c1.08,0,3.04,1.24,5.07,3.2,2.03,1.89,3.04,3.65,3.04,5.15,0,.39-.07.91-.2,1.7-.81,3.98-1.22,7.05-1.22,9.72,0,3.52.54,6.79,1.56,9.46s1.83,3.85,3.52,5.09q.74-1.04,2.23-3.46,2.16-3.52,5.68-9.2,1.08-1.7,1.96-3.13l1.01.46ZM549.91,652.06c8.52,1.83,15.28,10.5,15.28,19.51,0,3.13-1.35,5.15-3.38,5.15-.68,0-1.08-.13-2.03-.72-.88-.59-2.16-.78-5.07-.78-1.56,0-2.84,0-5.14.13l-.2-.98c5.48-1.43,8.52-2.28,9.13-2.48,1.35-.46,1.56-.72,1.56-1.96,0-2.41-.95-6.2-2.1-8.55-1.83-3.78-4.53-6.52-8.39-8.55l.34-.78Z"/>
    <path d="M579.54,651.6c2.77,2.74,4.53,3.59,7.44,3.59,2.64,0,5.48-.39,8.59-1.24,1.35-4.24,2.3-8.81,2.3-11.03,0-2.02-1.01-2.87-4.8-4.11.88-.46,1.22-.59,2.1-.59,1.56,0,3.79.46,5.82,1.24,2.03.72,3.04,1.63,3.04,2.61q0,.46-.81,1.57c-.88,1.24-2.37,4.7-4.06,9.33,3.79-1.3,6.22-2.54,7.84-3.98,1.08-.98,1.35-1.11,1.89-1.11.88,0,2.5.33,3.58.72.74.26,1.08.65,1.08,1.17,0,1.11-1.08,1.96-3.92,3.2-3.04,1.3-7.57,2.74-11.83,3.78q-.81,2.22-2.84,8.29-1.35,3.92-5.07,14.55c-2.71,7.76-3.58,9.4-5,9.4-.68,0-1.15-.39-1.56-1.3-.54-1.04-.95-2.67-.95-3.78,0-1.04.07-1.24,1.49-3.2,3.38-4.76,6.02-10.44,10.62-23.36-2.57.46-4.53.65-6.49.65-4.12,0-6.76-1.7-9.26-5.87l.81-.52ZM606.52,674.11c-.07.98-.07,1.76-.07,2.02,0,3.72,1.83,6.53,5.14,7.9,1.83.78,4.6,1.24,7.24,1.24,2.77,0,4.33-.2,6.49-.98.47-.2.88-.26,1.15-.26.74,0,2.3.72,3.45,1.57.81.65,1.22,1.24,1.22,1.83,0,1.44-2.64,2.15-7.98,2.15s-9.54-.72-12.51-2.09c-3.65-1.7-5.75-5.09-5.75-9.46,0-1.44.13-2.54.61-4.11l1.01.2ZM608.34,662.04c4.87-2.81,10.41-4.37,15.69-4.37,1.42,0,3.18.46,4.26,1.17.68.39,1.08,1.11,1.08,1.83,0,1.04-.61,1.44-2.57,1.5-2.5.13-3.31.33-5.21,1.31-1.35.72-1.42.72-3.72,2.22q-1.29.78-2.37,1.37l-.41-.59q.81-.78,3.25-2.94c.61-.52,1.22-1.04,3.31-3.07-4.46,0-8.05.72-12.92,2.41l-.41-.85Z"/>
    <path d="M649.94,666.34c.81,0,1.62-.39,2.91-1.5,1.15-.85,1.62-1.37,6.09-5.42,5-4.57,6.7-5.68,8.66-5.68s1.89,0,11.97,7.11c11.36,7.9,15.89,10.7,19.75,12.2,1.56.59,3.72,4.44,3.72,6.66,0,1.04-.54,1.63-1.49,1.63-1.96,0-4.87-2.15-21.23-15.53-11.16-9.2-11.63-9.53-12.98-9.53-1.42,0-2.84,1.31-6.22,5.55-2.37,3.07-3.85,5.29-5.27,8.09-.54,1.11-1.29,1.63-2.3,1.63-2.84,0-7.84-4.5-7.84-7.11q0-.13.13-.85c1.49,1.7,3.11,2.74,4.13,2.74ZM696.74,647.62c0,3.98-3.31,7.18-7.37,7.18s-7.44-3.2-7.44-7.18,3.31-7.11,7.44-7.11,7.37,3.2,7.37,7.11ZM684.16,647.62c0,2.74,2.37,5.02,5.21,5.02s5.14-2.22,5.14-5.02-2.3-4.96-5.14-4.96-5.21,2.22-5.21,4.96Z"/>
    <path d="M717.58,666.34c.81,0,1.62-.39,2.91-1.5,1.15-.85,1.62-1.37,6.09-5.42,5-4.57,6.7-5.68,8.66-5.68s1.89,0,11.97,7.11c11.36,7.9,15.89,10.7,19.75,12.2,1.56.59,3.72,4.44,3.72,6.66,0,1.04-.54,1.63-1.49,1.63-1.96,0-4.87-2.15-21.24-15.53-11.16-9.2-11.63-9.53-12.98-9.53-1.42,0-2.84,1.31-6.22,5.55-2.37,3.07-3.85,5.29-5.28,8.09-.54,1.11-1.28,1.63-2.3,1.63-2.84,0-7.84-4.5-7.84-7.11q0-.13.14-.85c1.49,1.7,3.11,2.74,4.12,2.74ZM764.37,647.62c0,3.98-3.31,7.18-7.37,7.18s-7.44-3.2-7.44-7.18,3.31-7.11,7.44-7.11,7.37,3.2,7.37,7.11ZM751.79,647.62c0,2.74,2.37,5.02,5.21,5.02s5.14-2.22,5.14-5.02-2.3-4.96-5.14-4.96-5.21,2.22-5.21,4.96Z"/>
    <path d="M786.36,648.34c1.96,0,3.65.65,7.64,2.94,2.43-.07,10.62-.78,21.1-1.83,5.88-.65,6.63-.78,7.84-1.3.61-.33.81-.39,1.15-.39.81,0,2.03.78,3.52,2.22,1.56,1.5,2.23,2.48,2.23,3.26,0,.46-.14.72-.54,1.24-.68.85-.95,1.5-1.62,3.59-.68,2.15-1.01,3.59-2.84,11.03q-1.22,5.09-1.69,6.72c2.3.98,3.38,2.09,3.38,3.33,0,.78-.54,1.37-1.28,1.37q-.47,0-3.31-.46c-1.69-.2-5.75-.39-9.6-.39-5.28,0-9.67.26-15.55.98.07,1.63.07,1.7.07,2.41,0,1.76-.34,2.35-1.49,2.35-1.08,0-2.03-.91-3.04-2.94-.61-1.17-.95-2.28-.95-3,0-.33,0-.46.27-1.3.13-.59.2-2.54.2-5.22,0-7.63-1.01-16.57-2.16-19.51-.88-2.22-2.23-3.59-4.67-4.7.61-.33.81-.39,1.35-.39ZM796.57,677.5c5.07-.2,18.46-1.11,22.32-1.5,1.56-6.72,3.52-18.01,4.19-24.08-.88-.07-1.22-.07-1.83-.07-1.35,0-4.87.26-13.32.85-7.3.59-9.6.85-13.12,1.37.34,6.66,1.15,17.55,1.76,23.42Z"/>
    <path d="M855.08,646.31c6.49,1.57,10.42,3.07,13.05,4.89,1.56,1.04,2.3,2.48,2.3,4.44,0,2.15-.74,3.65-1.89,3.65-.74,0-1.08-.33-2.91-2.61-3.31-4.24-5.75-6.39-11.02-9.59l.47-.78ZM903.16,650.03c-3.38,6.13-7.51,11.29-14.2,17.55-6.22,5.81-10.41,9.07-19,14.88-3.18,2.15-3.52,2.41-3.99,3-1.08,1.24-1.49,1.57-2.37,1.57-2.77,0-7.91-6.26-7.91-9.59,0-.39.07-.65.34-1.31,1.35,1.96,1.49,2.09,2.44,2.87,1.01.91,1.96,1.37,2.71,1.37,1.15,0,3.25-.85,6.56-2.74,7.57-4.24,10.21-6.07,16.16-10.77,8.32-6.52,12.38-10.5,18.19-17.42l1.08.59Z"/>
    <path d="M924.4,652.58c5.55-1.5,12.11-3.92,16.97-6.39,2.64-1.3,5.75-3.13,7.24-4.31.47-.39.74-.78.74-1.17,0-.72-1.01-1.57-2.97-2.48.47-.33.74-.39,1.22-.39,2.98,0,8.39,3.26,8.39,5.02,0,.78-.34,1.04-2.84,2.22-1.62.72-5.41,2.22-9.81,3.85,3.72,1.5,5.75,3,5.75,4.31,0,.13-.07.65-.27,1.7-.07.65-.2,2.22-.41,4.37,11.02-.98,11.9-1.11,13.39-1.7.47-.2,1.08-.33,1.69-.33,2.64,0,6.76,2.35,6.76,3.91,0,.78-.61,1.31-1.42,1.31-.47,0-.54,0-2.16-.26-3.04-.46-5.61-.65-9.87-.65-.34,0-2.98.07-8.52.26-.88,7.96-2.91,14.09-6.36,19.64-2.91,4.57-6.76,8.55-11.09,11.42l-.81-.78c7.91-7.37,12.44-17.29,13.59-29.75-6.9.85-14.07,2.54-17.79,4.18-.68.26-1.15.39-1.62.39-2.57,0-6.56-4.11-6.56-6.72,0-.26.07-.39.27-.72,1.89,2.28,3.18,2.94,5.75,2.94,1.15,0,2.84-.2,8.79-1.04,4.46-.72,7.84-1.11,11.36-1.57.13-1.76.2-2.67.2-3.98,0-3.72-.54-5.02-2.64-6.13-6.09,2.02-11.02,3.2-16.7,3.85l-.27-.98Z"/>
    <path d="M987.91,661.58c1.69,1.24,2.98,1.57,6.56,1.57q.74,0,8.32-.2c2.64-.07,24.14-.39,26.37-.39,6.09,0,7.57.13,8.79.59.68.33.95.72.95,1.3,0,.78-.61,1.5-1.55,1.76-1.83.59-3.45.65-16.23.78-6.29.06-21.78.46-24.14.59-3.18.2-3.79.26-4.87.85-.27.07-.74.2-1.01.2-1.01,0-2.1-.72-3.25-2.15-1.42-1.7-2.57-4.44-2.57-6,0-.91.07-1.04.54-1.5.81,1.5,1.15,1.96,2.1,2.61Z"/>
    <path d="M1057.44,688.46c8.39-6.07,16.03-14.35,22.59-24.66,5.27-8.22,8.18-14.42,8.18-17.36,0-1.96-1.01-3.33-3.72-5.09.54-.2.88-.26,1.49-.26,1.28,0,4.06,1.3,6.42,3,2.03,1.5,3.04,2.74,3.04,3.79,0,.78-.2,1.11-1.15,2.02-.95.98-1.69,2.02-3.11,4.5-9.6,16.83-20.49,28.45-33.07,35.04l-.68-.98Z"/>
  </g>
  <rect class="st0" x="1331.52" y="468.03" width="0" height="2.12"/>
  <rect class="st2" x="646.83" y="693.44" width="448.62" height="3.49"/>
</svg>