<?xml version="1.0" encoding="UTF-8"?>
<svg id="_レイヤー_1" data-name="レイヤー_1" xmlns="http://www.w3.org/2000/svg" version="1.1" viewBox="0 0 1280 1024">
  <!-- Generator: Adobe Illustrator 29.8.1, SVG Export Plug-In . SVG Version: 2.1.1 Build 2)  -->
  <defs>
    <style>
      .st0 {
        fill: none;
      }

      .st1 {
        fill: #e71f19;
        stroke: #000;
        stroke-miterlimit: 10;
      }

      .st2 {
        opacity: .13;
      }
    </style>
  </defs>
  <g>
    <path d="M446.08,367.54c-.07.25-.32.4-.76.4-.4,2.99-1.15,6.44-2.16,8.6-.61-.4-1.69-.9-2.41-1.19.94-2.02,1.55-5.44,1.94-8.6l3.38.79ZM467.61,359.66c.36,1.8.79,3.53,1.37,5.18,1.26-1.12,2.7-2.45,3.6-3.49l2.56,2.7c-.11.11-.32.14-.54.14-.11,0-.25,0-.36-.04-1.04.9-2.81,2.23-4.28,3.2,1.33,2.99,3.1,5.44,5.36,6.91-.68.61-1.69,1.84-2.16,2.66-4.32-3.24-6.7-9.4-8.03-16.59-.83.76-1.8,1.51-2.84,2.2,3.46,2.99,4.79,6.98,4.79,10.29,0,2.3-.61,6.62-5.15,6.62-.68,0-1.44-.04-2.23-.07-.04-.79-.22-1.98-.76-2.92.94.14,1.62.18,2.38.18s1.3-.11,1.73-.68c.58-.5.97-1.73.97-3.24,0-.36-.04-.68-.07-1.04-2.63,2.34-6.19,4.64-9.18,6.01-.47-.76-1.26-1.73-1.94-2.34,3.6-1.26,7.96-4,10.44-6.59-.18-.54-.43-1.12-.76-1.66-1.94,1.55-4.43,3.06-6.52,4-.4-.68-1.15-1.73-1.76-2.3,2.23-.76,5.04-2.2,6.91-3.67-.36-.4-.76-.83-1.19-1.22-1.22.68-2.48,1.26-3.74,1.73-.22-.43-.68-1.08-1.12-1.62h-.04c.11.32.22.61.29.9l-2.63,1.19c-.14-.54-.36-1.22-.61-1.91l-2.38.14v15.12h-2.99v-14.94c-1.76.11-3.38.22-4.64.25-.04.29-.32.47-.58.5l-.72-3.53,2.48-.04c.65-.83,1.37-1.8,2.09-2.77-1.08-1.66-2.81-3.71-4.36-5.22l1.73-2.27c.32.29.65.58.97.9,1.12-2.05,2.3-4.64,2.99-6.62l3.46,1.37c-.14.22-.43.32-.86.32-.9,2.05-2.45,4.86-3.74,6.88.58.68,1.15,1.37,1.58,1.98,1.4-2.2,2.7-4.43,3.64-6.33l3.35,1.48c-.14.25-.47.4-.9.4-1.73,2.92-4.46,6.84-6.91,9.86l4.68-.11c-.5-1.08-1.12-2.2-1.69-3.17l2.45-1.04c1.15,1.87,2.38,4.18,3.1,6.05,2.45-.86,5.11-2.2,7.13-3.74h-8.1v-2.74h13.71v-2.34h-10.51v-2.52h10.51v-2.3h-11.52v-2.66h14.79v9.83h4.03v2.74h-7.27ZM452.27,373.66c-.29-1.73-1.12-4.28-1.94-6.26l2.52-.79c.86,1.91,1.73,4.46,2.09,6.12l-2.66.94Z"/>
    <path d="M487.7,367.62v6.55c2.7,1.08,5.36,1.08,13.1,1.08,3.89,0,8.71-.04,10.44-.11-.54.79-1.12,2.34-1.33,3.38h-14.04c-7.38,0-11.73-1.08-14.47-5.76-.43,2.77-1.08,5.22-2.05,7.02-.61-.47-1.84-1.12-2.63-1.44,1.84-3.42,2.27-9.68,2.38-16.05l3.82.5c-.07.32-.29.47-.76.5-.04,1.3-.11,2.59-.18,3.85.65,2.16,1.48,3.78,2.59,4.97v-11.99h-7.23v-3.06h7.16v-4.25h-6.12v-2.99h6.12v-4.14l4.03.25c-.04.29-.25.47-.83.54v3.35h5.4v2.99h-5.4v4.25h6.23v3.06h-6.23v4.5h5.54v2.99h-5.54ZM505.44,357.25v-6.98h-10.87v-3.06h14.15v14.25h-3.28v-1.19h-6.59v8.13c0,1.22.25,1.44,1.87,1.44h5.18c1.48,0,1.73-.68,1.87-4.97.72.54,2.12,1.08,3.02,1.33-.4,5.29-1.33,6.7-4.61,6.7h-5.87c-3.67,0-4.79-.94-4.79-4.46v-11.19h9.9Z"/>
    <path d="M526.25,352.71c-.07.32-.43.54-.97.61-1.37,8.57-4.32,17.6-8.49,23-.94-.68-2.3-1.37-3.42-1.84,4-5,6.98-13.75,8.06-22.75l4.82.97ZM542.74,376.11c-1.69-6.05-5.58-16.09-9.21-22.96l3.38-1.62c3.67,6.55,7.7,16.52,9.58,23l-3.74,1.58ZM543.35,345.34c2.16,0,3.96,1.76,3.96,3.96s-1.8,3.96-3.96,3.96-4-1.76-4-3.96,1.84-3.96,4-3.96ZM546.02,349.3c0-1.51-1.19-2.7-2.66-2.7s-2.7,1.19-2.7,2.7,1.19,2.7,2.7,2.7,2.66-1.3,2.66-2.7Z"/>
    <path d="M576.33,350.7c-.14.25-.32.4-.61.5-1.98,4.61-4.03,8.24-6.95,12.13,3.71,2.99,9.32,8.06,12.6,11.63l-3.17,2.74c-2.95-3.49-8.39-8.82-11.73-11.55-3.28,3.85-8.35,8.67-13.28,11.55-.58-.79-1.8-2.05-2.63-2.77,9.4-5.11,16.99-14.51,20.27-22.17h-16.92v-3.42h18.9l.65-.22,2.88,1.58Z"/>
    <path d="M614.42,353c-.07.25-.29.43-.54.54-1.33,4.32-3.1,8.46-5.15,11.59,1.4.83,3.13,1.91,4.28,2.77l-2.05,3.42c-1.19-.94-2.99-2.12-4.39-2.99-3.24,4.32-7.42,7.74-12.53,10.26-.54-.83-1.87-2.12-2.81-2.7,4.9-2.23,9.04-5.47,12.24-9.43-2.3-1.33-4.68-2.52-7.02-3.38l1.98-2.81c2.3.83,4.75,1.91,7.13,3.17,1.66-2.56,2.92-5.29,3.85-8.24h-11.05c-2.2,3.56-5.04,7.05-8.03,9.47-.65-.65-2.05-1.73-2.92-2.27,4.9-3.64,9-9.83,11.16-15.91l4.64,1.08c-.14.36-.5.5-1.08.5-.43,1.08-1.19,2.63-1.8,3.82h10.73l.65-.18,2.7,1.3Z"/>
    <path d="M642.17,362.58c0,2.3-1.87,4.18-4.18,4.18s-4.18-1.87-4.18-4.18,1.87-4.18,4.18-4.18,4.18,1.94,4.18,4.18Z"/>
    <path d="M668.02,363.05c-1.66,4.18-3.82,7.85-6.51,10.47l-2.99-1.84c2.56-2.41,4.79-5.72,6.23-9.9l3.28,1.26ZM675.8,357.72v15.8c0,4.79-3.63,4.75-9,4.68-.18-.94-.61-2.3-1.04-3.31,1.08.04,2.41.07,3.46.07,2.2,0,2.95,0,2.95-1.37v-15.87h-11.77v-3.42h11.77v-7.2l4.61.22c-.07.4-.32.72-.97.79v6.19h11.74v3.42h-11.74ZM682.24,361.53c2.59,2.92,5.47,7.06,7.27,10.19l-3.24,1.84c-1.58-3.13-4.68-7.88-6.95-10.51l2.92-1.51ZM681.56,346.7c1.58,1.37,3.38,3.56,4.36,5.04l-1.76,1.37c-.94-1.48-2.92-3.85-4.28-5.08l1.69-1.33ZM686.88,345.12c1.58,1.4,3.42,3.49,4.39,5l-1.76,1.33c-.97-1.48-2.92-3.74-4.32-5l1.69-1.33Z"/>
    <path d="M697.87,349.44c3.67,1.12,7.99,3.02,10.62,4.79l-1.87,3.24c-2.59-1.8-6.88-3.71-10.44-4.97l1.69-3.06ZM697.18,374.06c12.42-3.82,20.84-10.94,25.09-20.88,1.04.83,2.27,1.51,3.31,2.09-4.46,9.83-13.17,17.53-25.23,21.67-.04.36-.29.72-.58.86l-2.59-3.74Z"/>
    <path d="M758.52,352.46v24.33h-3.71v-1.91h-21.74v-3.42h21.74v-15.59h-21.38v-3.42h25.09ZM754.17,345.62c1.58,1.3,3.53,3.53,4.54,4.97l-1.73,1.4c-1.01-1.51-2.99-3.71-4.46-4.97l1.66-1.4ZM759.32,344.76c1.62,1.26,3.53,3.35,4.54,4.86l-1.73,1.44c-1.01-1.51-2.92-3.71-4.43-4.93l1.62-1.37Z"/>
    <path d="M775.73,373.05c8.42-2.41,15.41-6.91,19.51-14.07.65.83,1.91,1.98,2.63,2.56-4.75,7.88-12.99,12.96-23.68,15.73-.07.32-.32.68-.65.79l-2.05-3.38.5-.76v-25.99l4.82.25c-.04.4-.36.72-1.08.83v24.04Z"/>
    <path class="st1" d="M807.48,368.18c-.12.28-.36.44-.88.44-.56,3.32-1.56,7.2-2.84,9.6-.72-.48-2.04-1.08-2.88-1.44,1.2-2.24,2.04-6.04,2.56-9.56l4.04.96ZM814.96,356.82c2,2.4,4.2,5.68,5.04,7.88l-2.96,1.64c-.24-.6-.56-1.28-.92-2.04l-4.04.24v16.8h-3.6v-16.6c-2.28.12-4.32.24-5.96.28-.08.36-.36.52-.64.56l-.84-3.92,2.68-.04c.88-.96,1.8-2.04,2.72-3.16-1.32-1.68-3.44-3.76-5.28-5.24l1.8-2.56c.32.24.64.48.96.76,1.52-2.32,3.16-5.28,4.16-7.56l4,1.72c-.12.24-.52.36-1,.36-1.2,2.2-3.16,5.24-4.84,7.48.84.8,1.64,1.6,2.24,2.36,1.84-2.52,3.56-5.12,4.8-7.32l3.88,1.8c-.16.28-.52.4-1.04.4-2.16,3.24-5.56,7.56-8.6,10.92l6.92-.12c-.72-1.12-1.48-2.24-2.24-3.2l2.76-1.44ZM816.16,375.54c-.48-2-1.8-5.08-3.04-7.4l3-1.12c1.28,2.24,2.6,5.2,3.2,7.16l-3.16,1.36ZM829.67,376.3h8.92v3.64h-22.08v-3.64h9.2v-24.8h-7.72v-3.64h19.64v3.64h-7.96v24.8Z"/>
    <path d="M515.3,444.26v-23.29h-.07l-4.57,2.52-.94-3.06,6.12-3.28h3.53v27.1h-4.07Z"/>
    <path d="M541.61,415.96h23.97v30.81h-3.64v-2.23h-16.85v2.38h-3.49v-30.96ZM561.95,419.42h-16.85v9.03h16.85v-9.03ZM545.1,441.09h16.85v-9.25h-16.85v9.25Z"/>
    <path d="M596.44,444.26h-3.92v-7.16h-11.34v-2.7l10.62-17.24h4.64v16.77h3.38v3.17h-3.38v7.16ZM585.1,433.93h7.42v-8.14c0-1.55.07-3.17.18-4.72h-.14c-.83,1.73-1.51,3.06-2.27,4.5l-5.18,8.28v.07Z"/>
    <path d="M601.95,430.76c0-8.85,3.35-14.04,8.96-14.04s8.6,5.54,8.6,13.75c0,9.18-3.31,14.18-8.89,14.18s-8.67-5.58-8.67-13.89ZM615.3,430.61c0-6.44-1.37-10.58-4.54-10.58-2.74,0-4.61,3.82-4.61,10.58s1.66,10.69,4.54,10.69c3.53,0,4.61-5.08,4.61-10.69Z"/>
    <path d="M657.92,436.62c.72-.5,1.4-1.01,1.94-1.48l2.92,2.41c-.11.11-.32.18-.58.18-.11,0-.22,0-.36-.04-1.76,1.22-4.5,2.81-6.91,4.07,2.63,1.33,5.83,2.23,9.47,2.7-.72.68-1.62,2.05-2.05,2.99-7.81-1.37-13.39-4.64-16.56-10.33h-4.72v6.26c2.66-.22,5.51-.43,8.32-.68l.04,2.81c-5.33.61-10.94,1.15-14.43,1.48-.07.32-.32.5-.61.58l-1.08-3.64,4.39-.29v-18.68c-1.58.97-3.24,1.87-4.9,2.63-.47-.76-1.3-2.02-1.98-2.7,6.12-2.66,12.2-7.34,15.08-11.37l4.68.22c-.07.32-.36.54-.79.61,3.49,4.03,9.86,8.06,15.23,10.08-.76.83-1.58,2.02-2.16,3.02-1.58-.72-3.28-1.58-4.93-2.59v11.77ZM649.43,424.35h7.67c-3.67-2.27-7.16-5.04-9.39-7.67-2.05,2.52-5.29,5.29-9.04,7.67h7.27v-4.07l4.32.29c-.04.29-.25.5-.83.58v3.2ZM641.08,427.01v2.41h13.39v-2.41h-13.39ZM641.08,431.91v2.59h13.39v-2.59h-13.39ZM649.29,437.13c.79,1.12,1.8,2.12,2.99,2.99,1.55-.83,3.35-1.91,4.93-2.99h-7.92Z"/>
    <path d="M678.12,415.17l2.23,1.22c-.07.18-.18.36-.32.47-.94,2.84-2.3,6.62-3.56,9.54,2.77,2.88,3.71,5.22,3.71,7.49,0,5.69-3.71,5.54-6.59,5.44-.04-.86-.36-2.16-.79-2.99.54.07,1.04.11,1.48.11,1.84,0,2.7-.4,2.7-2.84,0-1.87-.97-4.14-3.6-6.8,1.01-2.52,2.02-5.87,2.77-8.42h-4.39v29.08h-3.2v-32.18h9.03l.54-.11ZM691.4,431.91c.47,1.62,1.04,3.2,1.73,4.61,1.48-1.3,3.02-2.84,4.03-4.07l3.06,2.3c-.14.18-.5.25-.9.18-1.19,1.19-3.13,2.81-4.79,4.07,1.62,2.41,3.71,4.32,6.33,5.47-.76.65-1.76,1.98-2.27,2.84-5.36-2.77-8.46-8.31-10.15-15.41h-3.38v10.33c1.94-.36,3.96-.76,5.97-1.15l.29,2.99c-4.32,1.01-8.82,2.02-11.66,2.63-.07.32-.29.54-.54.58l-1.37-3.67c1.15-.22,2.48-.43,4-.72v-27.54h16.59v16.56h-6.95ZM695,418.34h-9.93v3.78h9.93v-3.78ZM685.07,424.96v4h9.93v-4h-9.93Z"/>
    <path d="M721.57,436.66v6.59c1.58.25,3.35.36,5.18.36,1.58,0,7.74,0,9.83-.07-.54.79-1.12,2.45-1.26,3.46h-8.75c-7.24,0-12.53-1.22-15.87-7.02-1.22,3.13-2.95,5.76-5.26,7.6-.58-.61-1.84-1.69-2.63-2.23,3.89-2.77,5.83-8.17,6.59-14.65l4.17.65c-.07.32-.36.5-.83.5-.18,1.33-.43,2.63-.72,3.89,1.29,3.49,3.35,5.47,6.01,6.59v-14.25h-8.28v-3.28h20.19v3.28h-8.39v5.4h10.47v3.2h-10.47ZM708,421.07v5.18h-3.35v-8.42h13.32v-4.18l4.5.25c-.04.32-.25.54-.86.61v3.31h13.43v8.42h-3.49v-5.18h-23.54Z"/>
    <path d="M752.93,441.74c0-1.62,1.26-2.92,2.84-2.92s2.88,1.3,2.88,2.92-1.3,2.95-2.88,2.95-2.84-1.37-2.84-2.95ZM754.19,435.8l-.72-19.11h4.75l-.72,19.11h-3.31Z"/>
    <path d="M340.15,490.52v3.24h-15.37v.04l1.66.07c-.04.29-.29.5-.86.58v4.54h13.07v3.24h-13.07v8.24h-3.56v-8.24h-12.63v-3.24h12.63v-5.22h-14.36v-3.24h8.96c-.4-1.51-1.26-3.74-2.12-5.4l2.77-.83h-7.16v-3.13h11.91v-4.43l4.43.25c-.04.29-.29.5-.86.61v3.56h12.42v3.13h-6.3l2.59.79c-.11.25-.43.4-.9.4-.65,1.48-1.66,3.53-2.59,5.04h9.36ZM327.66,490.05c.79-1.55,1.73-3.92,2.34-5.76h-12.31c.94,1.76,1.94,4.1,2.3,5.58l-1.98.65h10.83l-1.19-.47Z"/>
    <path d="M374.46,485.77c-2.99.83-7.34,1.44-11.37,1.76,1.37,4.46,2.95,7.06,6.48,8.64l-2.52,3.06c-1.55-1.37-3.67-2.48-7.92-2.48l-.79-2.92c1.44.07,2.92.25,3.82.43-1.08-1.4-1.98-3.49-2.77-6.44-1.51.11-3.38.18-5.36.18-2.2,0-6.3-.04-8.67-.11v-3.42c2.09.07,4.93.14,8.71.14,1.51,0,3.2-.07,4.5-.18-.43-1.98-.79-4.43-1.15-6.98l5.04.11c-.04.43-.36.76-.97.86.14,1.98.47,3.92.79,5.76,3.89-.29,8.57-1.08,11.52-2.02l.68,3.6ZM367.84,509.02c-1.76.04-3.74.04-6.66.04-8.13,0-12.99-2.84-12.99-7.45,0-2.12,1.12-4.1,3.17-6.08l2.7,2.05c-1.51,1.22-2.23,2.66-2.23,3.89,0,3.1,4.07,4.18,9.47,4.18,2.99,0,5-.07,6.84-.18l-.29,3.56Z"/>
    <path d="M404.09,480.15v3.46h-9.5l-.9,6.44c.54-.04,1.04-.11,1.8-.11,4.93,0,9.18,2.88,9.18,8.42,0,5.22-4,9.29-9.9,9.29-2.66,0-5.08-.72-6.33-1.51l.94-3.17c1.08.61,3.06,1.37,5.26,1.37,3.06,0,5.79-2.09,5.79-5.62s-2.38-5.69-7.2-5.69c-1.37,0-2.38.07-3.28.22l1.69-13.1h12.45Z"/>
    <path d="M432.42,499.59l.14,2.88-9.32,1.76v6.19h-3.24v-5.62l-1.22.22c-.04.32-.29.5-.54.58l-1.22-3.71c.9-.11,1.91-.25,2.99-.43v-21.96l2.12.65c2.92-.94,5.98-2.2,7.81-3.38l3.1,2.52c-.14.18-.29.18-.83.18-2.23,1.15-5.69,2.38-8.96,3.31v3.38h7.92v3.17h-7.92v3.82h8.24v3.2h-8.24v4.64l9.18-1.4ZM447,492.71l2.16.83c-.07.25-.22.36-.36.5-1.12,3.92-2.99,7.13-5.44,9.68,2.23,1.66,4.9,2.88,7.96,3.64-.76.72-1.76,2.09-2.23,3.02-3.2-.94-5.98-2.38-8.24-4.32-2.48,1.94-5.33,3.38-8.46,4.43-.4-.9-1.22-2.27-1.91-2.99,2.92-.79,5.62-2.09,7.96-3.82-1.76-2.05-3.17-4.46-4.25-7.2l2.09-.58h-3.38v-3.1h.61c-.54-.68-1.62-1.76-2.27-2.16,3.28-1.98,3.67-4.72,3.67-7.16v-5.33h11.27v8.75c0,1.15,0,1.33.65,1.33,1.48,0,1.69,0,1.84-.9.07-.5.11-1.58.14-2.95.61.5,1.73,1.04,2.56,1.33-.07,1.4-.18,2.99-.43,3.6-.47,1.3-1.8,1.66-2.99,1.66h-1.91c-3.06,0-3.06-2.12-3.06-4.14v-5.65h-4.93v2.38c0,3.13-.65,6.88-4.21,9.25h12.6l.58-.11ZM437.28,495.92c.86,2.09,2.09,4,3.6,5.62,1.55-1.62,2.81-3.49,3.74-5.62h-7.34Z"/>
    <path d="M463.27,478.17l2.16,1.15c-.04.18-.18.36-.29.47-.79,2.77-2.02,6.55-3.1,9.47,2.38,2.88,3.24,5.22,3.24,7.45s-.54,3.71-1.69,4.54c-1.04.79-2.12.79-4.21.79,0-.86-.32-2.12-.76-2.88.72.04,1.37.04,1.84.04.94,0,1.73-.32,1.73-2.77,0-1.8-.83-4.1-3.13-6.77.86-2.52,1.76-5.8,2.38-8.28h-3.67v29.08h-3.02v-32.18h8.03l.5-.11ZM475.12,487.46l.25,2.52c-3.31.97-6.77,1.91-9.03,2.48-.04.29-.22.5-.47.58l-1.44-3.38,2.45-.47v-12.06l3.85.25c-.04.29-.25.47-.79.54v3.6h4.93v2.74h-4.93v4.28l5.18-1.08ZM472.42,495.16c.43-1.22.9-2.74,1.15-3.89l4.1,1.04c-.11.25-.4.4-.9.4-.29.72-.68,1.58-1.12,2.45h8.89v15.12h-3.31v-1.15h-10.69v1.33h-3.17v-15.3h5.04ZM481.24,500.74v-2.7h-10.69v2.7h10.69ZM470.55,506.28h10.69v-2.88h-10.69v2.88ZM479.08,488.11c0,1.01.11,1.12,1.08,1.12h2.99c.83,0,1.01-.43,1.12-3.31.61.54,1.87,1.01,2.74,1.22-.32,3.92-1.15,4.97-3.49,4.97h-3.82c-3.02,0-3.71-.9-3.71-4v-10.98l3.89.22c-.04.29-.25.47-.79.58v4.32c1.87-.86,3.71-1.91,4.86-2.84l2.48,2.38c-.11.11-.4.18-.72.14-1.62,1.04-4.21,2.12-6.62,3.02v3.17Z"/>
    <path d="M498.45,479.5c-.07.4-.43.61-1.15.65-1.3,6.12-1.87,12.56-1.87,15.98,0,2.38.07,4.64.32,6.08.58-1.4,2.05-4.79,2.52-6.01l1.84,2.48c-1.33,3.06-2.52,5.08-3.02,6.73-.18.61-.29,1.15-.29,1.69,0,.43.07.83.18,1.22l-3.56.58c-1.19-3.46-1.62-7.81-1.62-12.63s.72-11.41,1.76-17.49l4.9.72ZM520.69,506.1c-1.26.07-2.59.11-3.92.11-2.45,0-4.82-.11-6.52-.36-4.72-.65-6.77-3.2-6.77-6.19,0-2.52,1.3-4.68,3.24-7.06l3.38,1.22c-1.73,1.73-2.88,3.46-2.88,5.36,0,3.35,4.5,3.56,8.64,3.56,1.62,0,3.38-.07,4.93-.25l-.11,3.6ZM504.13,483.46c4.36-.11,10.87-.58,15.44-1.37l.36,3.53c-4.43.76-11.52,1.22-15.69,1.3l-.11-3.46Z"/>
    <path d="M536.71,491.89l.58,2.84c-1.4.58-2.84,1.15-4.25,1.69v10.22c0,3.31-1.48,3.89-6.33,3.82-.11-.83-.5-2.27-.94-3.17.68.04,1.3.04,1.87.04,2.27,0,2.27-.04,2.27-.68v-9c-1.22.47-2.3.9-3.24,1.22,0,.29-.25.54-.5.65l-1.12-3.78c1.33-.4,3.02-.94,4.86-1.51v-7.09h-4.43v-3.13h4.43v-7.24l3.96.18c-.04.32-.25.5-.83.58v6.48h3.82v3.13h-3.82v6.01l3.67-1.26ZM538.84,481.27c1.33,1.94,2.66,4.46,3.42,6.44v-11.01l3.96.25c-.04.29-.25.47-.79.54v15.48c0,7.45-.97,13.53-8.24,17.53-.47-.76-1.48-2.02-2.2-2.56,4.79-2.56,6.48-6.08,7.02-10.29-1.76,1.37-3.53,2.7-4.79,3.6.04.32-.07.58-.32.76l-2.02-3.2c1.84-1.08,4.61-2.92,7.27-4.79l.11.22v-5.29l-2.38,1.33c-.58-2.09-2.12-5.26-3.6-7.63l2.56-1.37ZM551.54,505.06c0,1.51.11,1.76.94,1.76h2.56c.72,0,.86-.97.97-4.36.76.58,1.98,1.19,2.88,1.37-.29,4.39-1.12,6.05-3.6,6.05h-3.38c-2.81,0-3.6-1.01-3.6-4.86v-28.29l4.07.22c-.04.32-.29.5-.83.61v11.45c1.3-2.16,2.92-5.47,3.78-7.92l3.49,1.91c-.14.25-.5.36-.94.32-.97,2.16-2.77,5.36-4.14,7.34,0,0-1.69-1.01-2.2-1.33v4.18l.79-.79c2.48,2.05,5.4,4.82,6.88,6.62l-2.23,2.41c-1.15-1.51-3.35-3.85-5.44-5.8v9.11Z"/>
    <path d="M580.38,504.27h-7.88v6.19h-3.28v-6.19h-8.03v-3.06h8.03v-2.7h-6.55v-13.14h16.63v13.14h-6.8v2.7h7.88v3.06ZM564,477.56c1.15,1.84,2.27,4.32,2.59,5.98l-2.99,1.04c-.25-1.62-1.3-4.18-2.38-6.12l2.77-.9ZM565.59,488v2.66h3.82v-2.66h-3.82ZM565.59,493.18v2.7h3.82v-2.7h-3.82ZM570.81,476.84c.83,1.94,1.55,4.54,1.73,6.12l-3.06.79c-.14-1.62-.79-4.25-1.55-6.26l2.88-.65ZM576.28,490.66v-2.66h-3.96v2.66h3.96ZM576.28,495.88v-2.7h-3.96v2.7h3.96ZM581.25,478.24c-.14.25-.43.36-.9.36-.9,1.94-2.41,4.72-3.6,6.44-.04,0-2.63-1.08-2.66-1.08,1.15-1.91,2.52-4.9,3.24-7.06l3.92,1.33ZM586.79,489.91c.25,2.81.61,5.44,1.04,7.81,1.26-2.09,2.3-4.36,3.13-6.77l3.82,1.15c-.11.29-.43.43-.9.4-1.3,3.46-3.02,6.66-5.11,9.47.9,3.17,1.94,5.15,3.13,5.15.76,0,1.19-1.91,1.3-6.12.68.76,1.73,1.62,2.56,1.98-.54,5.9-1.58,7.49-4.25,7.49-2.23,0-3.92-2.12-5.22-5.51-1.91,2.02-4.03,3.78-6.37,5.18-.47-.68-1.48-1.87-2.12-2.48,2.77-1.55,5.29-3.67,7.45-6.26-.79-3.2-1.33-7.02-1.73-11.09l-3.42.43-.4-3.2,3.56-.43c-.22-3.42-.32-6.91-.36-10.33l4.25.25c0,.36-.29.54-.86.61-.04,2.99.07,6.08.25,9.07l8.24-1.01.4,3.17-8.39,1.04ZM590.5,477.31c1.62,1.87,3.35,4.39,4.07,6.08l-2.77,1.58c-.65-1.73-2.3-4.39-3.89-6.3l2.59-1.37Z"/>
    <path d="M610.08,478.39c-.07.43-.4.72-1.12.79-.29,4.54-.65,13.46-.65,18.75,0,5,2.48,7.34,6.66,7.34,3.96,0,8.17-1.98,12.27-6.37.43.79,1.58,2.56,2.12,3.13-4.36,4.64-9.25,6.95-14.43,6.95-7.31,0-10.51-4.1-10.51-11.05,0-4.68.29-15.48.58-19.87l5.08.32Z"/>
    <path d="M635.03,481.34c1.08,0,2.63-.04,3.64-.11,3.67-.29,20.52-1.4,25.92-1.55l.04,3.82c-2.95-.11-4.86.11-7.63,1.98-4.64,2.95-9.68,8.31-9.68,12.67s3.56,7.2,11.95,8.21l-1.73,3.56c-10.26-1.33-14.15-5.44-14.15-11.73,0-4.72,4.5-10.65,10.44-14.58-3.96.22-13.64,1.04-17.57,1.44-.11.25-.54.5-.86.58l-.36-4.28Z"/>
    <path d="M671.9,499.91c2.56,2.12,6.12,5.69,7.92,7.81l-2.95,2.7c-1.69-2.2-5.36-6.08-7.67-8.13l2.7-2.38Z"/>
    <path d="M722.4,497.83h-3.64c-.11.07-.25.11-.47.11v9.54c0,2.59-.97,2.99-4.93,2.99-.11-.79-.5-1.91-.9-2.63,1.19.04,2.23.04,2.59.04.32-.04.43-.14.43-.47v-9.57h-3.92v-13.21h3.24c.22-1.04.43-2.27.54-3.31h-5.51v10.4c0,5.36-.32,13.14-2.48,18.18-.5-.5-1.8-1.44-2.48-1.73,1.91-4.72,2.05-11.48,2.05-16.45v-13.39h15.55v2.99h-3.35c-.14.14-.36.22-.72.22-.18.9-.47,2.05-.76,3.1h4.75v13.21ZM714.92,500.24c-.07.25-.32.4-.76.36-.47,2.38-1.37,5.11-2.45,6.84-.54-.4-1.55-.9-2.2-1.19,1.01-1.62,1.8-4.32,2.27-6.84l3.13.83ZM714.23,487.06v2.95h5.4v-2.95h-5.4ZM714.23,492.35v3.02h5.4v-3.02h-5.4ZM721.47,499.41c.9,1.84,1.84,4.28,2.2,5.76l-2.38.94c-.32-1.51-1.22-4.03-2.05-5.94l2.23-.76ZM730.14,505.67c-.11.14-.36.25-.65.25-1.26,1.55-4,3.49-6.3,4.61-.47-.61-1.48-1.55-2.12-2.12,2.27-1.01,4.86-2.88,6.12-4.39l2.95,1.66ZM724.31,484.36h4.39c.18-.97.4-2.09.54-3.1h-6.05v-2.92h15.8v2.92h-6.59c-.21.94-.47,2.05-.76,3.1h6.16v19.15h-13.5v-19.15ZM734.75,489.98v-3.02h-7.52v3.02h7.52ZM734.75,495.41v-3.02h-7.52v3.02h7.52ZM734.75,500.96v-3.1h-7.52v3.1h7.52ZM736.91,510.5c-1.01-1.33-3.2-3.42-4.97-4.86l2.45-1.58c1.73,1.37,4,3.35,5.11,4.64l-2.59,1.8Z"/>
    <path d="M748.58,481.7c-.07.32-.47.58-.97.61-.5,2.81-.79,6.41-.79,9.65,0,9.79,3.2,11.91,5.04,11.91,1.33-.04,3.02-3.67,4.03-7.13.72.65,2.09,1.76,2.95,2.2-2.05,6.41-4.36,8.78-7.16,8.78-5.08,0-7.99-6.3-8.39-12.6-.11-1.37-.14-2.88-.14-4.46,0-3.17.18-6.66.58-9.9l4.86.94ZM770.5,498.76c-1.04-6.37-4.14-10.55-8.78-13.21l2.27-2.7c5.15,2.77,9.18,7.85,10.26,14.72l-3.74,1.19Z"/>
    <path d="M809.38,493.04c-.07.04-.14.04-.22.04-.22,0-.43-.07-.61-.18-2.7.83-6.44,2.12-9.29,3.28.07.79.11,1.69.11,2.7s-.04,2.05-.11,3.24l-3.64.25c.14-1.55.22-3.56.14-4.79-3.38,1.69-6.05,3.78-6.05,5.54s2.23,2.66,6.73,2.66c3.31,0,6.7-.14,9-.43l.04,3.35c-2.02.22-5.15.29-9.07.29-6.91,0-10.19-1.58-10.19-5.69,0-3.02,3.96-6.19,9.18-8.85-.18-1.62-.9-2.66-2.16-2.66-2.52,0-5.15,1.37-8.21,4.82-.94,1.04-2.3,2.45-3.89,3.92l-2.48-2.45c1.69-1.51,3.6-3.2,4.75-4.68,1.58-2.02,3.24-5.18,3.96-7.77l-1.66.04c-1.44,0-4,0-5.79-.04v-3.24c2.12.07,4.68.11,6.19.11l2.2-.04c.32-1.55.61-3.06.86-4.97l4.54.5c-.07.36-.4.58-.86.65-.25,1.3-.54,2.48-.86,3.67,2.66-.07,7.42-.65,11.63-2.05l.61,3.42c-3.96,1.22-9.18,1.69-13.17,1.84-.72,2.3-1.48,4.14-2.16,5.11h.04c1.44-1.19,3.53-2.02,5.36-2.02,2.23,0,3.92,1.58,4.43,4.43,2.92-1.3,6.48-2.63,9.25-3.71l1.4,3.71Z"/>
    <path d="M847.03,489.29v3.35h-9.03v17.82h-3.53v-17.82h-8.67v7.52h-8.06v3.28h-3.17v-22.93h11.23v8.78h8.67v-11.91l4.39.29c-.04.29-.29.5-.86.61v11.01h9.03ZM822.55,496.96v-13.28h-4.82v13.28h4.82Z"/>
    <path d="M865.43,496.85c1.12-.54,2.27-.76,3.28-.76,1.91,0,3.2,1.51,3.2,3.56,0,.94-.07,2.05-.07,2.84,0,3.24,1.8,3.24,4.28,3.24,1.55,0,3.46-.11,4.86-.36-.04,2.27.11,3.49.11,3.56-1.44.14-3.17.22-4.75.22-1.4,0-2.7-.07-3.6-.18-2.77-.36-4.36-2.2-4.39-4.5,0-.86.07-2.38.07-3.38,0-1.3-.54-2.05-1.62-2.05-1.73,0-4.1.97-6.19,2.95-1.94,1.91-5.76,5.72-6.88,7.06,0,0-.58-.72-2.7-2.77,3.53-3.46,14-13.43,17.31-16.59-2.48.25-9.65.65-13.53.86-.18.29-.29.43-.58.43l-.29-3.92c4.97-.11,14.22-.5,17.93-.83l.61-.36,2.77,2.59c-.22.14-.5.29-.9.29-2.27,1.94-6.12,5.44-8.93,8.06v.04ZM873.31,483.35c-3.78-1.08-10.47-2.09-15.04-2.38l.79-3.35c4.86.25,11.05,1.12,15.15,2.27l-.9,3.46Z"/>
    <path d="M913.71,507.47c-2.74-2.23-6.41-4.57-9.72-5.87.07,1.69-.36,3.53-.86,4.46-.47,1.87-2.38,3.35-6.37,3.35-4.82,0-8.71-2.41-8.78-6.23-.04-4,4-6.19,8.53-6.23,1.04,0,2.59.07,3.71.25-.04-.76-.14-1.44-.22-2.09-.29-4.75-.68-12.78-.68-17.46l4.82.25c0,.36-.29.68-.94.83l.04,6.44c2.27-.07,7.38-.47,11.37-1.22l.36,3.6c-3.67.58-8.68.97-11.7,1.01,0,2.59.22,4.86.36,6.91.07.72.18,1.55.22,2.34,4.36,1.37,8.71,3.74,12.2,6.3l-2.34,3.35ZM896.39,499.91c-3.06.04-5.22,1.33-5.18,3.17.04,2.16,2.52,3.2,5.22,3.2,2.3,0,3.96-1.04,3.96-2.99,0-1.04,0-2.05-.07-2.88-1.3-.4-2.74-.5-3.92-.5Z"/>
    <path d="M925.66,489.87c5.47-1.48,12.31-2.99,15.12-2.99,5.18,0,8.93,2.74,8.86,8.67-.07,6.77-5.22,11.48-15.37,14.4-.47-.9-1.55-2.3-2.38-3.13,9.36-2.27,13.79-6.48,13.79-11.09,0-3.2-1.48-5.4-5.11-5.4-2.95,0-8.21,1.22-12.74,2.92.04.32-.36.72-.76.9l-1.4-4.28ZM931.13,477.49c4.97.36,10.58,1.33,14.33,2.63l-.97,3.56c-3.82-1.3-9.68-2.41-14.25-2.74l.9-3.46Z"/>
    <path d="M967.35,505.38c0,2.77-2.27,5.04-5.04,5.04s-5.04-2.27-5.04-5.04,2.27-5.04,5.04-5.04,5.04,2.34,5.04,5.04ZM965.83,505.38c0-1.94-1.58-3.53-3.53-3.53s-3.56,1.58-3.56,3.53,1.58,3.56,3.56,3.56,3.53-1.66,3.53-3.56Z"/>
    <path d="M373.7,558.49v4.32h-20.5v.05l2.21.1c-.05.38-.38.67-1.15.77v6.05h17.43v4.32h-17.43v10.99h-4.75v-10.99h-16.85v-4.32h16.85v-6.96h-19.15v-4.32h11.95c-.53-2.02-1.68-4.99-2.83-7.2l3.7-1.1h-9.55v-4.18h15.89v-5.9l5.9.34c-.05.38-.38.67-1.15.82v4.75h16.56v4.18h-8.4l3.46,1.06c-.14.34-.58.53-1.2.53-.86,1.97-2.21,4.7-3.46,6.72h12.48ZM357.04,557.87c1.06-2.06,2.3-5.23,3.12-7.68h-16.42c1.25,2.35,2.59,5.47,3.07,7.44l-2.64.86h14.45l-1.58-.62Z"/>
    <path d="M387.28,546.73c-.1.43-.62.77-1.3.82-.67,3.74-1.06,8.54-1.06,12.87,0,13.06,4.27,15.89,6.72,15.89,1.78-.05,4.03-4.9,5.38-9.5.96.86,2.78,2.35,3.94,2.93-2.74,8.54-5.81,11.71-9.55,11.71-6.77,0-10.66-8.4-11.18-16.8-.14-1.82-.19-3.84-.19-5.95,0-4.22.24-8.88.77-13.2l6.48,1.25ZM416.52,569.49c-1.39-8.5-5.52-14.06-11.71-17.62l3.02-3.6c6.86,3.7,12.24,10.46,13.68,19.63l-4.99,1.58Z"/>
    <path d="M430.43,582.3c-1.44-4.27-2.16-11.04-2.16-17.28,0-6.58,1.34-14.54,2.78-22.13l6.05,1.01c-.1.48-.62.86-1.3.91-1.68,6.34-3.02,14.69-3.02,20.16,0,3.07.05,6.58.34,8.21.58-1.82,2.26-6.14,3.31-8.69l2.64,2.98c-1.63,3.36-4.46,9.26-4.46,12,0,.62.1,1.25.29,2.02l-4.46.82ZM443.44,545.05h6.48c5.86,0,11.9-.38,15.75-1.25l.48,4.18c-2.02.43-4.94.67-7.87.86l.77.1c-.05.34-.38.62-.86.72-.05,2.06.1,5.66.19,7.49,3.22-.29,6.62-.82,9.02-1.49l.48,4.32c-2.4.58-6,1.01-9.31,1.3.19,3.31.43,7.01.58,9.12,3.31,1.54,6.48,3.55,9.26,5.86l-2.35,4.22c-2.16-1.97-4.8-4.03-6.96-5.23.14,6.19-3.22,7.63-7.97,7.63-5.42,0-9.55-2.59-9.55-6.96s4.51-7.06,9.46-7.06c1.2,0,2.4.19,3.6.48-.14-2.06-.29-5.18-.48-7.83-4.61.19-10.99.1-11.67.1v-4.03h7.87c1.2,0,2.4,0,3.6-.05-.19-3.12-.34-6.19-.43-8.45-1.2.05-2.59.1-3.79.1h-6.29v-4.13ZM450.98,572.56c-3.12,0-5.42,1.15-5.42,3.31s2.26,3.31,5.33,3.31,3.98-1.39,3.98-4.37c0-.34-.05-.86-.1-1.49-1.25-.48-2.54-.77-3.79-.77Z"/>
    <path d="M511.56,558.25c-.14.05-.29.05-.43.05-.38,0-.77-.1-1.1-.29-14.35,4.03-26.16,9.7-26.11,15.51.05,4.08,4.46,5.57,11.76,5.57s13.49-.67,16.85-1.2l.43,4.85c-3.46.48-9.7.91-17.47.91-9.31,0-16.42-2.26-16.51-9.84-.05-5.14,4.8-9.5,12.15-13.39-1.73-3.22-2.3-8.69-2.21-19.25l6.96.58c-.1.62-.53,1.06-1.54,1.15-.1,7.58.1,12.58,1.3,15.31,4.27-1.92,9.17-3.75,14.26-5.47l1.68,5.52ZM505.41,541.84c2.3,2.02,4.51,4.75,5.81,6.96l-2.59,1.82c-1.2-2.16-3.41-4.99-5.66-6.96l2.45-1.82ZM512.13,539.29c2.35,2.06,4.56,4.66,5.76,6.91l-2.45,1.82c-1.25-2.21-3.5-4.99-5.62-6.91l2.3-1.82Z"/>
    <path d="M544.39,568.24h-4.85c-.14.1-.34.14-.62.14v12.72c0,3.46-1.3,3.98-6.58,3.98-.14-1.06-.67-2.54-1.2-3.5,1.58.05,2.98.05,3.46.05.43-.05.58-.19.58-.62v-12.77h-5.23v-17.62h4.32c.29-1.39.58-3.02.72-4.42h-7.34v13.87c0,7.15-.43,17.52-3.31,24.24-.67-.67-2.4-1.92-3.31-2.3,2.54-6.29,2.74-15.31,2.74-21.94v-17.86h20.74v3.98h-4.46c-.19.19-.48.29-.96.29-.24,1.2-.62,2.74-1.01,4.13h6.34v17.62ZM534.4,571.46c-.1.34-.43.53-1.01.48-.62,3.17-1.82,6.82-3.26,9.12-.72-.53-2.06-1.2-2.93-1.58,1.34-2.16,2.4-5.76,3.02-9.12l4.18,1.1ZM533.49,553.89v3.94h7.2v-3.94h-7.2ZM533.49,560.94v4.03h7.2v-4.03h-7.2ZM543.14,570.35c1.2,2.45,2.45,5.71,2.93,7.68l-3.17,1.25c-.43-2.02-1.63-5.38-2.74-7.92l2.98-1.01ZM554.71,578.7c-.14.19-.48.34-.86.34-1.68,2.06-5.33,4.66-8.4,6.14-.62-.82-1.97-2.06-2.83-2.83,3.02-1.34,6.48-3.84,8.16-5.86l3.94,2.21ZM546.93,550.29h5.86c.24-1.3.53-2.78.72-4.13h-8.06v-3.89h21.07v3.89h-8.78c-.29,1.25-.62,2.74-1.01,4.13h8.21v25.54h-18v-25.54ZM560.85,557.77v-4.03h-10.03v4.03h10.03ZM560.85,565.02v-4.03h-10.03v4.03h10.03ZM560.85,572.42v-4.13h-10.03v4.13h10.03ZM563.73,585.14c-1.34-1.78-4.27-4.56-6.62-6.48l3.26-2.11c2.3,1.82,5.33,4.46,6.82,6.19l-3.46,2.4Z"/>
    <path d="M579.28,546.73c-.1.43-.62.77-1.3.82-.67,3.74-1.06,8.54-1.06,12.87,0,13.06,4.27,15.89,6.72,15.89,1.78-.05,4.03-4.9,5.38-9.5.96.86,2.78,2.35,3.94,2.93-2.74,8.54-5.81,11.71-9.55,11.71-6.77,0-10.66-8.4-11.18-16.8-.14-1.82-.19-3.84-.19-5.95,0-4.22.24-8.88.77-13.2l6.48,1.25ZM608.52,569.49c-1.39-8.5-5.52-14.06-11.71-17.62l3.02-3.6c6.86,3.7,12.24,10.46,13.68,19.63l-4.99,1.58Z"/>
    <path d="M637.03,542.46c-.14.67-.72.91-1.58.96-.53,2.5-1.3,6.86-1.87,9.7,1.73-.19,3.55-.34,4.66-.34,7.63-.05,10.08,5.14,10.08,12.48,0,1.92-.34,6.62-1.44,10.13-1.49,5.38-4.66,8.02-8.93,8.02-1.92,0-4.66-.91-8.69-4.08.67-1.2,1.3-2.69,1.68-4.08,3.55,2.64,5.52,3.22,6.91,3.22,2.3,0,3.65-1.68,4.51-4.56.77-2.54,1.25-6.72,1.25-8.83-.05-5.09-1.68-7.87-5.76-7.82-1.3,0-3.07.1-5.18.38-2.3,9.26-4.99,17.71-9.36,25.44l-4.42-2.11c4.27-7.34,6.82-14.31,8.93-22.8l-7.92,1.1-.38-4.7,9.22-1.01c.67-3.5,1.34-7.73,1.82-11.86l6.48.77ZM650.85,549.33c-1.15-2.06-3.94-5.18-5.91-6.72l2.26-1.63c2.26,1.73,4.85,4.56,6.1,6.62l-2.45,1.73ZM657.09,568.81c-1.34-6.48-4.8-12.58-8.79-16.03l3.94-2.54c4.61,4.03,8.4,10.22,9.84,16.85l-4.99,1.73ZM658.29,547.36c-1.15-2.02-3.94-5.14-5.95-6.67l2.3-1.68c2.26,1.78,4.8,4.61,6.1,6.67l-2.45,1.68Z"/>
    <path d="M706.92,555.9h-31.92c0,6.34-.14,20.35-5.81,29.14-.86-.77-2.88-1.92-4.03-2.35,4.85-7.49,5.28-18.34,5.28-26.07v-14.21h36.48v13.49ZM702.36,546.59h-27.36v5.18h27.36v-5.18ZM694.39,561.66h12.91v23.38h-4.46v-1.63h-20.98v1.63h-4.27v-23.38h12.39v-5.38l5.52.34c-.05.38-.34.67-1.1.77v4.27ZM689.97,565.74h-8.11v4.75h8.11v-4.75ZM681.86,574.19v5.14h8.11v-5.14h-8.11ZM702.84,565.74h-8.45v4.75h8.45v-4.75ZM694.39,579.33h8.45v-5.14h-8.45v5.14Z"/>
    <path d="M743.49,584.66c-4.42-5.18-11.81-12.05-18.58-17.38-2.69-2.11-3.46-3.46-3.46-5.47,0-1.49.67-2.88,2.4-4.51,4.61-4.27,13.01-12.43,17.14-16.75l5.52,3.6c-.24.29-.62.53-1.2.53-.19,0-.34,0-.53-.05-4.61,4.32-11.71,10.56-15.65,14.21-1.15,1.1-2.16,2.02-2.16,2.74,0,.82,1.06,1.78,2.78,3.02,6.1,4.51,12.77,10.42,18.53,16.42l-4.8,3.65Z"/>
    <path d="M781.03,542.46c-.14.67-.72.91-1.58.96-.53,2.5-1.3,6.86-1.87,9.7,1.73-.19,3.55-.34,4.66-.34,7.63-.05,10.08,5.14,10.08,12.48,0,1.92-.34,6.62-1.44,10.13-1.49,5.38-4.66,8.02-8.93,8.02-1.92,0-4.66-.91-8.69-4.08.67-1.2,1.3-2.69,1.68-4.08,3.55,2.64,5.52,3.22,6.91,3.22,2.3,0,3.65-1.68,4.51-4.56.77-2.54,1.25-6.72,1.25-8.83-.05-5.09-1.68-7.87-5.76-7.82-1.3,0-3.07.1-5.18.38-2.3,9.26-4.99,17.71-9.36,25.44l-4.42-2.11c4.27-7.34,6.82-14.31,8.93-22.8l-7.92,1.1-.38-4.7,9.22-1.01c.67-3.5,1.34-7.73,1.82-11.86l6.48.77ZM801.33,565.89c-1.34-6.67-5.71-12.67-10.13-16.18l3.65-2.69c5.04,3.65,10.08,10.51,11.38,16.99l-4.9,1.87Z"/>
    <path d="M837.96,567.38c-2.88.34-6.96.58-10.71.58-.24,2.45-.24,2.74-.24,3.55,0,6.29,3.74,7.44,8.69,7.44,2.02,0,4.18-.29,6.05-.82,2.74-.72,4.13-2.64,4.13-5.18,0-2.4-1.2-5.33-3.65-8.35,1.25-.38,3.26-1.1,4.37-1.58,2.88,3.94,4.32,7.63,4.32,10.75,0,9.65-12.53,9.65-15.31,9.65-7.1,0-13.25-1.82-13.25-12.1,0-1.1.1-2.3.19-3.55-3.5-.14-10.27-.48-10.27-5.86.05-2.02,1.25-4.27,4.03-6.38l3.6,1.78c-1.92,1.2-3.12,2.69-3.12,3.89,0,2.16,3.17,2.26,6.1,2.35.29-2.93.62-6.29,1.06-9.7-3.26-.29-7.1-1.15-9.7-2.4l1.06-4.42c2.54,1.2,5.76,2.06,9.12,2.45.34-2.83.72-5.76.96-8.21l6.62.77c-.1.58-.72.96-1.63,1.06-.34,1.87-.72,4.32-1.1,6.77,1.3.1,2.79.14,4.27.14,1.68,0,3.41-.05,4.9-.19l-.19,4.42c-1.39.1-3.07.14-4.75.14s-3.36-.05-4.85-.14c-.38,3.22-.77,6.48-1.06,9.46,3.5-.05,7.3-.29,10.32-.72l.05,4.42Z"/>
    <path d="M867.47,562.57c0,1.92-1.54,3.46-3.46,3.46s-3.46-1.54-3.46-3.46,1.54-3.46,3.46-3.46c2.02,0,3.46,1.63,3.46,3.46ZM883.46,562.57c0,1.92-1.54,3.46-3.46,3.46s-3.46-1.54-3.46-3.46,1.54-3.46,3.46-3.46c2.02,0,3.46,1.63,3.46,3.46ZM899.44,562.57c0,1.92-1.54,3.46-3.46,3.46s-3.46-1.54-3.46-3.46,1.54-3.46,3.46-3.46c2.02,0,3.46,1.63,3.46,3.46Z"/>
    <path d="M924.35,569.97c-.05-.34-.24-2.16-.24-2.59,0-2.69,1.25-5.23,4.32-8.11,3.03-2.74,4.85-4.51,4.85-6.96s-2.21-4.37-7.01-4.37c-2.83,0-5.81.77-7.68,1.82l-1.63-3.94c2.59-1.3,6.24-2.3,10.08-2.3,8.59,0,11.95,4.03,11.95,8.11s-2.74,6.58-6.1,9.41c-2.59,2.3-3.74,4.37-3.74,6.82,0,.43,0,.58.19,2.11h-4.99ZM923.39,577.65c0-2.59,1.73-3.89,3.6-3.89,2.11,0,3.55,1.58,3.55,3.79,0,1.97-1.25,3.74-3.65,3.74-2.02,0-3.5-1.58-3.5-3.65Z"/>
    <path d="M400.02,643.38v1.55c1.87,1.26,6.73,4.9,7.92,5.87l-2.12,2.77c-1.15-1.26-3.71-3.6-5.8-5.36v9.29h-3.24v-9.83c-2.09,3.02-4.72,5.9-7.16,7.77-.43-.86-1.3-2.12-1.98-2.84,3.06-1.94,6.41-5.62,8.42-9.21h-7.52v-2.99h8.24v-3.56l4.07.25c-.04.29-.29.47-.83.58v2.74h7.6v2.99h-7.6ZM407.4,627.01c-.07.07-.22.11-.4.11-.11,0-.22,0-.36-.04-4.32,1.08-11.3,2.05-17.24,2.59-.11-.79-.54-1.98-.9-2.7,5.83-.61,12.63-1.69,16.74-2.84l2.16,2.88ZM391.42,630.71c1.01,1.84,1.94,4.28,2.27,5.87l-2.77.97c-.29-1.62-1.15-4.14-2.12-5.97l2.63-.86ZM398.11,629.74c.72,1.87,1.3,4.32,1.48,5.94l-2.92.61c-.11-1.62-.68-4.14-1.3-6.01l2.74-.54ZM408.52,630.75c-.14.22-.43.36-.86.36-.9,2.05-2.38,4.93-3.6,6.77-.72-.29-1.8-.72-2.52-.97,1.12-1.98,2.52-5.11,3.24-7.34l3.74,1.19ZM422.56,646.19c-.11.25-.43.4-.83.4-2.66,4.21-7.27,8.28-12.13,10.91-.58-.86-1.58-2.05-2.48-2.77,4.54-2.12,9.11-5.87,11.52-9.93l3.92,1.4ZM420.86,625.75c-.11.25-.4.4-.83.4-2.16,2.88-5.8,6.12-9.14,8.24-.61-.76-1.58-1.76-2.48-2.41,3.06-1.73,6.66-4.79,8.57-7.59l3.89,1.37ZM421.69,635.86c-.11.22-.36.36-.79.36-2.34,3.02-6.33,6.37-9.93,8.57-.58-.72-1.58-1.76-2.45-2.41,3.35-1.8,7.27-5,9.4-7.96l3.78,1.44Z"/>
    <path d="M428.28,631.29v4.28h-3.06v-6.41h13.89v-1.66h-11.59v-2.45h26.6v2.45h-11.7v1.66h14.04v6.41h-3.17v-4.28h-10.87v7.05h-3.31v-7.05h-10.83ZM439.48,654.26h-9.68v3.17h-3.13v-18.18h12.63v6.84h-9.5v1.76h9.4v2.23h-9.4v1.91h9.68v2.27ZM429.51,637.73v-1.8h7.88v1.8h-7.88ZM436.17,641.37h-6.37v2.59h6.37v-2.59ZM429.98,632.69h7.38v1.8h-7.38v-1.8ZM453.37,647.34l1.94.76c-.04.18-.18.29-.29.43-.97,2.02-2.45,3.64-4.28,4.93,2.02.72,4.32,1.26,6.73,1.55-.65.61-1.44,1.73-1.84,2.48-2.81-.47-5.44-1.26-7.7-2.38-2.3,1.12-4.9,1.87-7.63,2.41-.32-.72-.97-1.8-1.51-2.38,2.27-.32,4.43-.9,6.41-1.69-1.22-.86-2.27-1.87-3.1-3.02l2.38-.79h-3.49v-2.23h11.84l.54-.07ZM441.96,643.78h9.54v-2.45h-9.43v-2.12h12.6v6.73h-12.71v-2.16ZM444.12,632.69h7.52v1.8h-7.52v-1.8ZM444.12,637.73v-1.8h8.03v1.8h-8.03ZM444.77,649.65c.76.94,1.8,1.8,3.1,2.52,1.19-.72,2.2-1.55,3.02-2.52h-6.12Z"/>
    <path d="M490.74,625.82l2.56,1.55c-.11.22-.36.32-.65.4-1.44,2.66-3.74,5.87-6.12,8.17,2.12,1.98,4.75,3.49,7.85,4.46-.76.68-1.73,1.98-2.16,2.88-3.1-1.15-5.72-2.77-7.88-4.86v1.84h-14.33v-1.8c-2.41,2.3-5.26,4.03-8.31,5.25-.4-.79-1.22-2.02-1.87-2.66,2.41-.83,4.72-2.09,6.73-3.71-.97-.83-2.27-1.73-3.31-2.41l1.73-1.51c1.08.65,2.41,1.48,3.42,2.27.58-.61,1.15-1.22,1.69-1.91-1.08-.68-2.45-1.48-3.6-2.05l1.48-1.69c1.08.5,2.38,1.22,3.42,1.83.65-1.01,1.19-2.09,1.66-3.24h-5.22c-1.51,2.16-3.49,4.32-6.05,6.19-.5-.68-1.51-1.73-2.23-2.2,3.74-2.52,6.3-6.01,7.63-8.93l3.78.61c-.07.29-.32.47-.79.5l-.68,1.22h5.08l.54-.11,2.09.86c-.07.22-.22.32-.36.47-1.15,3.92-3.06,7.24-5.51,9.9h11.81c-2.88-3.24-4.93-7.38-6.3-12.35l2.95-.65c1.01,3.67,2.56,6.91,4.72,9.54,1.33-1.4,2.63-3.2,3.6-4.86h-6.34v-2.84h8.46l.54-.18ZM471.12,649.43c-.14.25-.43.4-.86.32-1.66,2.59-4.39,5.29-7.06,6.98-.61-.61-1.84-1.62-2.63-2.12,2.56-1.48,5.15-4,6.62-6.52l3.92,1.33ZM490.99,646.8h-12.38v7.16c0,3.24-1.55,3.53-7.74,3.53-.18-.94-.68-2.2-1.15-3.06,1.19.04,2.41.07,3.31.07,2.02,0,2.12-.04,2.12-.61v-7.09h-12.02v-3.1h27.86v3.1ZM489.84,656.99c-1.44-1.98-4.61-5.08-7.23-7.16l2.81-1.66c2.63,1.98,5.87,4.93,7.45,6.91l-3.02,1.91Z"/>
    <path d="M513.03,654.26v-23.29h-.07l-4.57,2.52-.94-3.06,6.12-3.28h3.53v27.1h-4.07Z"/>
    <path d="M539.34,625.96h23.97v30.81h-3.64v-2.23h-16.85v2.38h-3.49v-30.96ZM559.68,629.42h-16.85v9.04h16.85v-9.04ZM542.83,651.09h16.85v-9.25h-16.85v9.25Z"/>
    <path d="M574.66,626.14h24.87v31.28h-3.6v-2.38h-17.82v2.38h-3.46v-31.28ZM595.93,629.49h-17.82v5.18h17.82v-5.18ZM595.93,637.91h-17.82v5.29h17.82v-5.29ZM578.12,651.7h17.82v-5.29h-17.82v5.29Z"/>
    <path d="M608.03,628.34c1.08,0,2.63-.04,3.64-.11,3.67-.29,20.52-1.4,25.92-1.55l.04,3.82c-2.95-.11-4.86.11-7.63,1.98-4.64,2.95-9.68,8.32-9.68,12.67s3.56,7.2,11.95,8.21l-1.73,3.56c-10.26-1.33-14.15-5.44-14.15-11.74,0-4.71,4.5-10.65,10.44-14.58-4.21.32-13.64,1.04-17.57,1.44-.11.25-.54.5-.86.58l-.36-4.28ZM631.75,636.22c1.62,1.26,3.6,3.38,4.61,4.93l-1.76,1.37c-.9-1.44-3.06-3.82-4.46-4.93l1.62-1.37ZM635.82,633.02c1.69,1.33,3.64,3.31,4.61,4.9l-1.73,1.4c-.9-1.37-2.92-3.67-4.5-4.93l1.62-1.37Z"/>
    <path d="M654.07,625.24c-.14.29-.43.4-.94.4-.9,2.41-1.98,4.82-3.17,7.13l1.12.32c-.04.29-.29.47-.79.54v23.86h-3.35v-19.51c-1.19,1.8-2.45,3.46-3.71,4.89-.32-.83-1.19-2.56-1.66-3.38,3.28-3.53,6.59-9.58,8.6-15.59l3.89,1.33ZM675.67,635h-8.53c2.12,5.47,5.69,10.94,9.39,13.89-.83.61-1.94,1.8-2.55,2.66-3.42-3.2-6.62-8.6-8.82-14.25v10.4h5.29v3.06h-5.29v6.73h-3.35v-6.73h-5.25v-3.06h5.25v-10.19c-2.27,5.69-5.51,10.94-9,14.15-.58-.79-1.69-2.02-2.45-2.59,3.78-2.95,7.38-8.5,9.57-14.07h-7.96v-3.28h9.83v-7.59l4.18.25c-.04.29-.29.5-.83.58v6.77h10.51v3.28Z"/>
    <path d="M681.65,646.77c-.18,3.31-.54,6.7-2.02,8.71l-1.83-1.01c1.29-1.84,1.73-5,1.87-8.06l1.98.36ZM692.09,641.62l1.62.18c-.04.25-.07.61-.07.94-.4,9.11-.79,12.38-1.66,13.5-.54.72-1.15,1.19-3.74,1.19-.5,0-1.01,0-1.55-.04-.04-.83-.29-1.98-.72-2.7,1.12.11,2.09.11,2.56.11,1.29,0,1.51-1.26,1.8-4.32l-1.19.43c-.25-1.3-1.04-3.28-1.8-4.75l1.44-.5c.65,1.12,1.22,2.52,1.62,3.71h.04c.07-1.33.18-2.95.25-4.97h-7.88v.86h-2.84v-20.12h13.14v2.81h-4.5v2.74h3.74v2.66h-3.74v2.81h3.74v2.66h-3.74v2.84h2.88l.61-.04ZM682.73,653.72c.11-1.84-.07-4.57-.4-6.73l1.62-.18c.4,2.16.54,4.9.47,6.7l-1.69.22ZM685.83,627.94h-3.02v2.74h3.02v-2.74ZM685.83,636.15v-2.81h-3.02v2.81h3.02ZM682.8,638.81v2.84h3.02v-2.84h-3.02ZM686.44,646.41c.65,1.87,1.19,4.28,1.33,5.83l-1.66.36c-.11-1.58-.65-4.03-1.26-5.9l1.58-.29ZM710.59,647.17h-5.51c1.44,3.46,3.92,6.26,7.31,7.67-.72.61-1.69,1.84-2.2,2.74-3.28-1.69-5.65-4.64-7.24-8.31-1.15,3.13-3.46,6.05-7.96,8.31-.43-.72-1.4-1.84-2.09-2.38,4.5-2.2,6.55-5.04,7.42-8.03h-5.58v-9.32h6.23v-2.2h-4.03v-2.2c-.94.83-1.91,1.55-2.92,2.2-.36-.83-1.01-2.02-1.62-2.74,3.46-2.05,6.84-5.87,8.35-9.14l3.89.18c-.07.22-.25.4-.54.47,1.91,3.02,5.33,6.33,8.42,7.99-.61.79-1.33,2.05-1.8,2.99-.83-.54-1.69-1.19-2.56-1.91v2.16h-4.14v2.2h6.55v9.32ZM707.53,632.91c-2.02-1.83-3.92-4.03-5.15-6.05-1.12,1.94-2.81,4.14-4.86,6.05h10.01ZM697.6,644.54h3.24c.11-.94.14-1.91.14-2.84v-1.22h-3.38v4.07ZM707.64,640.47h-3.6v1.26c0,.94-.04,1.87-.11,2.81h3.71v-4.07Z"/>
    <path d="M727.08,625.39c-.07.43-.4.72-1.12.79-.29,4.54-.65,13.46-.65,18.75,0,5,2.48,7.34,6.66,7.34,3.96,0,8.17-1.98,12.27-6.37.43.79,1.58,2.56,2.12,3.13-4.36,4.64-9.25,6.95-14.43,6.95-7.31,0-10.51-4.1-10.51-11.05,0-4.68.29-15.48.58-19.87l5.07.32Z"/>
    <path d="M752.03,628.34c1.08,0,2.63-.04,3.64-.11,3.67-.29,20.52-1.4,25.92-1.55l.04,3.82c-2.95-.11-4.86.11-7.63,1.98-4.64,2.95-9.68,8.32-9.68,12.67s3.56,7.2,11.95,8.21l-1.73,3.56c-10.26-1.33-14.15-5.44-14.15-11.74,0-4.71,4.5-10.65,10.44-14.58-3.96.22-13.64,1.04-17.57,1.44-.11.25-.54.5-.86.58l-.36-4.28Z"/>
    <path d="M816.86,634.28c-.14.43-.54.68-1.08.68-.4,2.23-.97,4.86-1.58,7.09,1.76.76,3.78,1.69,5.65,2.63l-1.55,3.46c-1.8-.94-3.53-1.8-5.18-2.59-1.69,4.9-4.1,8.57-7.7,10.98-.72-.68-2.02-1.55-2.92-2.05,3.53-2.3,5.79-5.62,7.34-10.4-3.1-1.26-5.94-2.09-8.28-2.38-2.38,8.24-4.5,11.12-9.29,11.12-3.89,0-5.47-2.77-5.47-6.08,0-5.65,5.9-8.42,12.06-8.42.68-2.63,1.29-5.87,1.73-9.11-1.69.14-6.8.54-9.54.72-.22.29-.5.43-.86.54l-.36-3.89c3.49-.11,10.01-.54,11.88-.72.4-.07.65-.25.86-.43l2.95,1.58c-.18.25-.5.47-.9.61-.58,3.56-1.48,7.92-2.23,10.94,2.48.22,5.29,1.08,8.39,2.2.58-1.98,1.12-4.79,1.48-7.49l4.61,1.01ZM798.07,641.41c-4.54.07-8.03,2.05-8.03,5.33,0,1.73.83,2.92,2.23,2.92,2.52,0,3.89-1.48,5.79-8.24Z"/>
    <path d="M824.03,628.34c1.08,0,2.63-.04,3.64-.11,3.67-.29,20.52-1.4,25.92-1.55l.04,3.82c-2.95-.11-4.86.11-7.63,1.98-4.64,2.95-9.68,8.32-9.68,12.67s3.56,7.2,11.95,8.21l-1.73,3.56c-10.26-1.33-14.15-5.44-14.15-11.74,0-4.71,4.5-10.65,10.44-14.58-3.96.22-13.64,1.04-17.57,1.44-.11.25-.54.5-.86.58l-.36-4.28Z"/>
    <path d="M872.2,651.74c0-1.62,1.26-2.92,2.84-2.92s2.88,1.3,2.88,2.92-1.3,2.95-2.88,2.95-2.84-1.37-2.84-2.95ZM873.46,645.8l-.72-19.11h4.75l-.72,19.11h-3.31Z"/>
  </g>
  <rect class="st2" x="106.9" y="296.23" width="1044.96" height="431.54"/>
  <rect x="1431.2" y="173.06" width="23.18" height="5.35"/>
  <rect class="st0" x="657.29" y="624.21" width="7.13" height="312.06"/>
  <rect x="578.53" y="451.76" width="187.01" height="1.98"/>
</svg>