<?xml version="1.0" encoding="UTF-8"?>
<svg id="_レイヤー_1" data-name="レイヤー_1" xmlns="http://www.w3.org/2000/svg" version="1.1" viewBox="0 0 1400.12 277.27">
  <!-- Generator: Adobe Illustrator 29.8.1, SVG Export Plug-In . SVG Version: 2.1.1 Build 2)  -->
  <path d="M203.76,124.34c14.53-4.67,22.73-7,24.6-7s3.67.63,5.4,1.9c1.73,1.27,2.6,2.43,2.6,3.5,0,2.4-3.6,3.8-10.8,4.2-4.8.13-12.27,1.33-22.4,3.6-.67,10.4-1,16.8-1,19.2l.8,45.6c0,6.13-.53,10.8-1.6,14-1.07,3.2-2.47,4.8-4.2,4.8s-3.47-2-5.2-6c-1.73-4-2.6-6.93-2.6-8.8s.47-4.17,1.4-6.9c.93-2.73,1.83-8.17,2.7-16.3.87-8.13,1.57-17.8,2.1-29-9.6,15.6-19.7,27.03-30.3,34.3-10.6,7.27-17.17,10.9-19.7,10.9-.67,0-1-.33-1-1s.87-1.73,2.6-3.2c9.87-8.27,19-17.33,27.4-27.2,8.4-9.87,14.67-19.27,18.8-28.2-13.33,3.2-24.03,6.07-32.1,8.6-8.07,2.53-13.3,3.8-15.7,3.8s-4.97-1.1-7.7-3.3c-2.73-2.2-4.1-3.83-4.1-4.9s1.93-1.6,5.8-1.6,11.8-.93,23.8-2.8c12-1.87,22.87-3.8,32.6-5.8,0-5.47-.87-9.33-2.6-11.6-1.2-2-1.8-3.5-1.8-4.5s.83-1.5,2.5-1.5,4.03.33,7.1,1c3.07.67,4.6,1.9,4.6,3.7s-.27,3.4-.8,4.8c-.53,1.4-.93,3.3-1.2,5.7ZM163.16,94.14c1.73,0,4.87,1.2,9.4,3.6,4.53,2.4,6.8,5.6,6.8,9.6s-1.53,6-4.6,6c-2.8,0-5.77-2.53-8.9-7.6-3.13-5.07-4.7-8.27-4.7-9.6s.67-2,2-2ZM223.16,63.94c0,1.87-7.53,5.43-22.6,10.7-15.07,5.27-23.33,7.9-24.8,7.9s-2.2-.47-2.2-1.4.73-1.73,2.2-2.4c17.33-8,26.73-14.67,28.2-20,.67-2.67,1.97-4,3.9-4s4.97,1.23,9.1,3.7c4.13,2.47,6.2,4.3,6.2,5.5ZM189.16,85.94c2.93,0,6.17.77,9.7,2.3,3.53,1.53,5.3,4.63,5.3,9.3,0,2.4-1,3.6-3,3.6-2.67,0-5.8-1.7-9.4-5.1-3.6-3.4-5.4-6.1-5.4-8.1,0-1.33.93-2,2.8-2ZM206.36,147.34c2,0,5.33.2,10,.6,4.67.4,7.73,2.13,9.2,5.2,1.47,3.07,2.2,5.27,2.2,6.6,0,2.13-1.2,3.2-3.6,3.2-1.73,0-3.67-.73-5.8-2.2l-9.4-6c-4.27-2.67-6.4-4.57-6.4-5.7s1.27-1.7,3.8-1.7ZM226.96,76.14c1.2,0,3.73,1.3,7.6,3.9,3.87,2.6,5.8,4.63,5.8,6.1s-1.63,2.8-4.9,4c-3.27,1.2-10.7,4.6-22.3,10.2-.93.4-1.67.6-2.2.6s-.8-.3-.8-.9.8-1.7,2.4-3.3c7.47-6.93,11.43-12.1,11.9-15.5.47-3.4,1.3-5.1,2.5-5.1ZM297.56,163.74c0,1.87-1.27,3.27-3.8,4.2-1.33.54-5.73,5-13.2,13.4-14.93,16.67-28.47,28.03-40.6,34.1-12.13,6.07-19.87,9.1-23.2,9.1-.93,0-1.4-.37-1.4-1.1s1-1.7,3-2.9c7.73-4.53,16.57-11,26.5-19.4,9.93-8.4,18.37-16.9,25.3-25.5,6.93-8.6,10.4-15.03,10.4-19.3l-.2-3c0-2.13.9-3.2,2.7-3.2s4.67,1.67,8.6,5c3.93,3.33,5.9,6.2,5.9,8.6ZM292.16,120.94c0,.8-1,1.8-3,3-2,1.2-6.27,4.9-12.8,11.1-6.53,6.2-13.5,11.23-20.9,15.1-7.4,3.87-11.9,5.8-13.5,5.8-.8,0-1.2-.33-1.2-1s.87-1.6,2.6-2.8c11.2-8.4,19.53-16.27,25-23.6,5.47-7.33,8.27-12.4,8.4-15.2.13-2.8.93-4.2,2.4-4.2s4,1.63,7.6,4.9c3.6,3.27,5.4,5.57,5.4,6.9ZM298.56,71.74c0,1.07-.8,2.03-2.4,2.9-1.6.87-3.57,2.4-5.9,4.6-2.33,2.2-6.9,6.83-13.7,13.9-6.8,7.07-13.43,12.73-19.9,17-6.47,4.27-10.17,6.4-11.1,6.4s-1.4-.33-1.4-1,.73-1.6,2.2-2.8c5.87-5.07,12.2-12,19-20.8,6.8-8.8,11-14.8,12.6-18,1.6-3.2,2.4-6.73,2.4-10.6,0-2,.83-3,2.5-3s4.7,1.43,9.1,4.3c4.4,2.87,6.6,5.23,6.6,7.1Z"/>
  <path d="M422.16,80.34c27.47-4.67,42.67-7.5,45.6-8.5,2.93-1,4.87-1.5,5.8-1.5,2.67,0,7.17,2.17,13.5,6.5,6.33,4.33,9.5,7.6,9.5,9.8s-1.7,3.3-5.1,3.3-7.47.43-12.2,1.3c-4.73.87-8.4,1.77-11,2.7-2.6.93-4.2,1.4-4.8,1.4s-.9-.2-.9-.6c0-.53,1.4-2.43,4.2-5.7,2.8-3.27,4.2-5.73,4.2-7.4s-1.8-2.5-5.4-2.5-18.2,2-43.8,6c-.27,6.53-.4,13.53-.4,21s-.37,12.57-1.1,15.3c-.73,2.73-1.7,4.1-2.9,4.1s-2.37-1.17-3.5-3.5c-1.13-2.33-1.7-4.43-1.7-6.3s.13-3.67.4-5.4c.53-4,.93-11.87,1.2-23.6-10.93,1.73-18.7,3.07-23.3,4-4.6.93-8.27,1.4-11,1.4s-5.43-.4-8.1-1.2c-2.27,7.47-5.5,14.53-9.7,21.2-4.2,6.67-7.37,10-9.5,10s-3.2-2.4-3.2-7.2c0-3.73,1.2-6.9,3.6-9.5,2.4-2.6,4.7-5.9,6.9-9.9,2.2-4,3.63-7.53,4.3-10.6.67-3.07,1.6-4.6,2.8-4.6s2.87,2.4,5,7.2c8.8-.27,22.87-2.13,42.2-5.6-.13-6.27-.93-11.27-2.4-15-5.47.67-9.5,1-12.1,1s-5-.47-7.2-1.4c-2.2-.93-3.3-1.73-3.3-2.4s1.87-1.17,5.6-1.5c3.73-.33,9.87-1.33,18.4-3,8.53-1.67,15.27-3.4,20.2-5.2,4.93-1.8,8.93-2.7,12-2.7s5.63.43,7.7,1.3c2.07.87,3.1,1.77,3.1,2.7,0,1.6-2.33,3-7,4.2-4.67,1.2-14.8,3.2-30.4,6,2.27,1.2,3.77,2.13,4.5,2.8.73.67,1.1,1.43,1.1,2.3s-.23,2-.7,3.4c-.47,1.4-.83,3.37-1.1,5.9ZM373.16,139.14c4-.27,8.13-.93,12.4-2,4.27-1.07,7.4-2.23,9.4-3.5,2-1.27,3.63-1.9,4.9-1.9s3.6.6,7,1.8c3.4,1.2,5.1,2.23,5.1,3.1s-.73,1.93-2.2,3.2c-1.47,1.27-2.73,2.97-3.8,5.1-1.07,2.13-1.6,3.77-1.6,4.9s.13,2.1.4,2.9c.27.8.4,1.57.4,2.3s-.53,1.33-1.6,1.8c-1.07.47-4.73,1.37-11,2.7-6.27,1.33-11.8,2-16.6,2,.13,2.27.07,7.13-.2,14.6,5.6-.67,10.17-1.67,13.7-3,3.53-1.33,5.93-2,7.2-2s2.43.23,3.5.7c1.07.47,1.6,1.1,1.6,1.9,0,1.6-2.3,2.93-6.9,4-4.6,1.07-8.17,1.6-10.7,1.6s-5.4-.2-8.6-.6l-.6,14c6.53-.67,11.9-1.8,16.1-3.4s6.9-2.4,8.1-2.4,2.33.3,3.4.9c1.07.6,1.6,1.17,1.6,1.7,0,1.47-2.77,3.07-8.3,4.8-5.53,1.73-9.83,2.6-12.9,2.6s-5.8-.53-8.2-1.6c-1.07,12.93-2.07,21.2-3,24.8-.93,3.6-2.2,5.4-3.8,5.4s-3-1.53-4.2-4.6c-1.2-3.07-1.8-5.77-1.8-8.1s.7-5.37,2.1-9.1c1.4-3.73,2.57-9.5,3.5-17.3.93-7.8,1.4-14.63,1.4-20.5,0-10.4-1.53-18.27-4.6-23.6-.8-1.47-1.2-2.67-1.2-3.6s.77-1.4,2.3-1.4,4.1.6,7.7,1.8ZM375.96,158.14c9.33-1.73,15.17-3.27,17.5-4.6,2.33-1.33,3.5-4.47,3.5-9.4,0-1.6-.13-2.7-.4-3.3-.27-.6-.8-.9-1.6-.9s-3,.47-6.6,1.4c-3.6.93-8.07,1.27-13.4,1,.53,3.47.87,8.73,1,15.8ZM386.16,116.34c9.2,0,13.8,2.33,13.8,7,0,2.4-1,3.6-3,3.6-1.47,0-4.3-1.27-8.5-3.8-4.2-2.53-6.3-4.3-6.3-5.3s1.33-1.5,4-1.5ZM389.76,100.74c3.33,0,6.07.63,8.2,1.9,2.13,1.27,3.2,2.83,3.2,4.7s-1.03,2.8-3.1,2.8-5-1.07-8.8-3.2c-3.8-2.13-5.7-3.53-5.7-4.2s.73-1.17,2.2-1.5c1.47-.33,2.8-.5,4-.5ZM447.76,191.54c9.47,6.4,17.47,10.67,24,12.8,6.53,2.13,17.4,4.4,32.6,6.8,2.8.4,4.2,1.13,4.2,2.2,0,.53-.3.93-.9,1.2-.6.27-3.67,1.07-9.2,2.4-5.53,1.33-10.13,2.33-13.8,3-3.67.67-6.97,1-9.9,1s-5.73-1.03-8.4-3.1c-2.67-2.07-10.2-9.17-22.6-21.3-10.27,11.6-23,17.4-38.2,17.4-5.87,0-8.8-.6-8.8-1.8,0-.8.87-1.33,2.6-1.6,9.47-1.73,17.1-4.1,22.9-7.1,5.8-3,10.77-7.17,14.9-12.5-3.73-3.6-7.63-6.7-11.7-9.3-4.07-2.6-7.07-4.23-9-4.9-1.93-.67-2.9-1.43-2.9-2.3s.6-1.3,1.8-1.3,3.2.4,6,1.2c2.8.8,5.47,2.13,8,4l11,8.2c2.4-3.6,4.23-7.4,5.5-11.4,1.27-4,1.9-6.87,1.9-8.6s-.57-2.6-1.7-2.6-3.5.5-7.1,1.5-6.43,1.8-8.5,2.4c-2.07.6-4.03.9-5.9.9s-3.7-.47-5.5-1.4c-1.8-.93-2.7-1.6-2.7-2s1.73-.7,5.2-.9c3.47-.2,7.73-1.07,12.8-2.6,5.07-1.53,8.43-2.93,10.1-4.2,1.67-1.27,3.3-1.9,4.9-1.9s4.23.87,7.9,2.6c3.67,1.73,5.5,3.2,5.5,4.4,0,.67-.87,1.93-2.6,3.8-1.73,1.87-3.07,4.4-4,7.6-2,6.93-4.8,12.73-8.4,17.4ZM469.16,128.34c0,.93-1.3,2.07-3.9,3.4-2.6,1.33-4.93,3.3-7,5.9-2.07,2.6-2.77,5.03-2.1,7.3.13.67.2,1.43.2,2.3s-1.07,1.37-3.2,1.5c-4.4.27-10.6,1.33-18.6,3.2-1.87.4-3.7.6-5.5.6s-3.27-.3-4.4-.9c-1.13-.6-1.7-1.23-1.7-1.9s1.27-1.1,3.8-1.3c2.53-.2,5.6-.77,9.2-1.7l8.2-2.2c2-.53,3.4-1.43,4.2-2.7.8-1.27,1.37-2.93,1.7-5,.33-2.07.5-3.73.5-5s-.73-1.9-2.2-1.9c-.4,0-2.83.4-7.3,1.2-4.47.8-7.8,1.43-10,1.9-2.2.47-4.2.7-6,.7s-3.13-.3-4-.9c-.87-.6-1.3-1.17-1.3-1.7s1-.93,3-1.2c5.07-.67,10.33-1.7,15.8-3.1,5.47-1.4,9.13-2.7,11-3.9,1.87-1.2,3.63-1.8,5.3-1.8s4.47.87,8.4,2.6c3.93,1.73,5.9,3.27,5.9,4.6ZM438.36,109.14c3.87,0,6.8.7,8.8,2.1s3,2.93,3,4.6-.97,2.5-2.9,2.5-5.07-.97-9.4-2.9c-4.33-1.93-6.5-3.47-6.5-4.6s2.33-1.7,7-1.7ZM441.56,93.14c3.07,0,5.33.8,6.8,2.4,1.47,1.6,2.2,3.07,2.2,4.4,0,1.47-.8,2.2-2.4,2.2s-4.77-.77-9.5-2.3c-4.73-1.53-7.1-2.83-7.1-3.9s1.27-1.8,3.8-2.2c2.53-.4,4.6-.6,6.2-.6Z"/>
  <path d="M555.56,81.34c.4,12.8.6,26.37.6,40.7s-.47,31.4-1.4,51.2c-.93,19.8-2,31.33-3.2,34.6-1.2,3.27-2.33,4.9-3.4,4.9s-2.57-2.07-4.5-6.2c-1.93-4.13-2.9-7.87-2.9-11.2s.67-7.33,2-12c3.47-13.07,5.2-35,5.2-65.8,0-12.27-.47-21.27-1.4-27-.93-5.73-2.07-9.73-3.4-12-.8-1.07-1.2-2.13-1.2-3.2s1.07-1.6,3.2-1.6,5.07,1,8.8,3c7.6-.4,13.27-3,17-7.8.67-.93,1.8-1.4,3.4-1.4s4.43,1.03,8.5,3.1c4.07,2.07,6.1,3.97,6.1,5.7,0,1.2-1.44,2.93-4.3,5.2-2.87,2.27-5.57,5.47-8.1,9.6-2.53,4.13-3.87,6.57-4,7.3-.13.73-.2,1.5-.2,2.3,0,3.47.47,5.93,1.4,7.4,4.67,7.2,7,13.87,7,20,0,3.2-.7,6-2.1,8.4-1.4,2.4-2.57,3.6-3.5,3.6s-1.73-.47-2.4-1.4c-2.53-4.13-7.13-8.73-13.8-13.8-1.07-.93-1.6-1.63-1.6-2.1s.67-.57,2-.3c4.4.8,7.47,1.2,9.2,1.2s2.6-.47,2.6-1.4-.3-3.07-.9-6.4c-.6-3.33-1.33-6-2.2-8-.87-2-1.3-3.57-1.3-4.7s.27-2.63.8-4.5c.53-1.87,1.23-5.03,2.1-9.5.87-4.47,1.3-7.43,1.3-8.9s-.73-2-2.2-1.6c-4.13,1.2-8.53,2.07-13.2,2.6ZM608.76,84.34c-4,5.87-9.17,11.43-15.5,16.7-6.33,5.27-9.9,7.9-10.7,7.9s-1.2-.3-1.2-.9.47-1.43,1.4-2.5c7.73-9.07,13.77-17.5,18.1-25.3,4.33-7.8,6.5-13.7,6.5-17.7,0-.67-.07-1.3-.2-1.9-.13-.6-.2-1.1-.2-1.5,0-1.47.7-2.2,2.1-2.2s3.7,1.07,6.9,3.2c3.2,2.13,4.8,3.83,4.8,5.1s-.7,2.53-2.1,3.8c-1.4,1.27-3.7,4.7-6.9,10.3,2.67.13,5.37-.03,8.1-.5,2.73-.47,4.67-1.03,5.8-1.7,1.13-.67,2.23-1,3.3-1s2.93,1,5.6,3c2.67,2,4,3.73,4,5.2,0,.53-.13,1.07-.4,1.6,3.46,2.53,8.4,7.27,14.8,14.2,1.87-2.8,4.23-6.97,7.1-12.5,2.87-5.53,4.3-8.9,4.3-10.1s-.43-1.8-1.3-1.8-2.57.4-5.1,1.2c-2.54.8-4.6,1.2-6.2,1.2s-3.5-.53-5.7-1.6c-2.2-1.07-3.3-2.03-3.3-2.9s.8-1.37,2.4-1.5c7.07-.53,12.2-1.7,15.4-3.5,3.2-1.8,5.6-2.7,7.2-2.7s4.33,1.6,8.2,4.8c3.87,3.2,5.8,5.53,5.8,7,0,1.2-1.37,2.43-4.1,3.7-2.73,1.27-5.9,3.8-9.5,7.6-3.6,3.8-7.6,8.7-12,14.7,9.33,10,17.43,17.07,24.3,21.2,6.87,4.13,16.23,7.73,28.1,10.8,2.8.67,4.2,1.47,4.2,2.4,0,1.33-3.83,2.5-11.5,3.5-7.67,1-12.8,1.5-15.4,1.5s-5.1-.5-7.5-1.5c-2.4-1-5.2-3.57-8.4-7.7-19.87-26.13-31.54-40.93-35-44.4-1.87,2.4-4.13,6-6.8,10.8-10.54,20.93-21.3,35.43-32.3,43.5-11,8.07-17.7,12.1-20.1,12.1-.53,0-.8-.37-.8-1.1s.87-1.83,2.6-3.3c11.73-10.13,20.07-18.27,25-24.4,4.93-6.13,9.53-13.6,13.8-22.4,4.27-8.8,6.4-14.33,6.4-16.6s-1-3.33-3-3.2c-2,.13-3.9.2-5.7.2s-3.57-.27-5.3-.8ZM597.96,173.94c.8,0,1.46.97,2,2.9.53,1.93.8,3.97.8,6.1,0,5.47-1.8,10.9-5.4,16.3-3.6,5.4-6.63,8.1-9.1,8.1s-3.7-2.13-3.7-6.4c0-3.87,1.2-7.07,3.6-9.6,4.53-4.67,7.87-9.8,10-15.4.53-1.33,1.13-2,1.8-2ZM599.56,123.74c0,1.33-.37,2.7-1.1,4.1-.73,1.4-1.57,2.1-2.5,2.1-2,0-4-2.37-6-7.1-2-4.73-3-8.03-3-9.9,0-.93.63-1.4,1.9-1.4s3.37,1.23,6.3,3.7c2.93,2.47,4.4,5.3,4.4,8.5ZM625.76,163.34c-7.2,1.07-12.73,1.6-16.6,1.6s-7.5-.46-10.9-1.4c-3.4-.93-5.1-1.8-5.1-2.6s1.33-1.27,4-1.4c17.07-.93,33.93-3.93,50.6-9,4.53-1.47,8.27-2.2,11.2-2.2s5.4.6,7.4,1.8,3,2.23,3,3.1-1.23,1.73-3.7,2.6c-2.47.87-12.9,2.83-31.3,5.9,4.27,2.53,6.4,4.87,6.4,7,0,.67-.2,1.53-.6,2.6-.8,2-1.2,6.87-1.2,14.6l.6,15.2c0,5.6-1.4,10.47-4.2,14.6-2.8,4.13-5.13,6.2-7,6.2s-3.27-.93-4.2-2.8c-3.07-5.6-7.67-10.33-13.8-14.2-1.47-1.07-2.2-2.03-2.2-2.9s.67-1.3,2-1.3c.53,0,2.33.4,5.4,1.2,3.06.8,5.8,1.2,8.2,1.2s3.87-.63,4.4-1.9c.53-1.27.8-4.3.8-9.1,0-12.53-1.07-22.13-3.2-28.8ZM612.96,106.74c0,3.73-.87,5.6-2.6,5.6-.93,0-2.17-.63-3.7-1.9-1.54-1.27-3.1-3.27-4.7-6-1.6-2.73-2.4-4.6-2.4-5.6s.7-1.5,2.1-1.5,3.63.87,6.7,2.6c3.07,1.73,4.6,4,4.6,6.8ZM644.16,126.94c1.2,0,2.9.3,5.1.9,2.2.6,3.3,1.43,3.3,2.5,0,2.27-3.87,4.4-11.6,6.4-7.73,2-13.04,3-15.9,3s-5.9-.33-9.1-1c-3.2-.67-4.8-1.5-4.8-2.5s.73-1.63,2.2-1.9c6-.67,12.13-2.07,18.4-4.2,6.27-2.13,10.4-3.2,12.4-3.2ZM650.56,172.74c1.6,0,5.87,1.23,12.8,3.7,6.93,2.47,12.07,5.23,15.4,8.3,3.33,3.07,5,7,5,11.8s-1.07,7.2-3.2,7.2c-1.33,0-2.87-.8-4.6-2.4l-13.6-12.8c-7.33-6.93-11.43-10.9-12.3-11.9-.87-1-1.3-1.9-1.3-2.7s.6-1.2,1.8-1.2Z"/>
  <path d="M845.96,197.14h-58.2v-6.4h13c3.2,0,5.7-.7,7.5-2.1,1.8-1.4,2.7-3.3,2.7-5.7v-111.6l-19.6,2.6v-5.8c12.53-2,23.27-6.07,32.2-12.2v127c0,5.2,3.47,7.8,10.4,7.8h12v6.4Z"/>
  <path d="M988.56,85.74c6.13,0,14.6-.97,25.4-2.9,10.8-1.93,18.4-3.93,22.8-6,4.4-2.07,8-3.1,10.8-3.1s7.03,1.63,12.7,4.9c5.67,3.27,8.5,6.03,8.5,8.3,0,1.33-1.27,4.17-3.8,8.5-2.54,4.33-3.8,15.23-3.8,32.7,0,7.87.27,16.9.8,27.1.53,10.2.8,18.1.8,23.7,0,12.4-1.53,21.3-4.6,26.7-3.07,5.4-5.47,8.1-7.2,8.1-.8,0-1.47-.47-2-1.4-.54-.93-1.2-3-2-6.2-3.2-12-5.23-18.5-6.1-19.5-.87-1-3.43-1.5-7.7-1.5s-10.53.67-18.8,2c-8.27,1.33-13.97,2-17.1,2s-6.17-.27-9.1-.8c-1.07,7.73-2.67,11.6-4.8,11.6-1.33,0-2.83-1.7-4.5-5.1-1.67-3.4-2.5-6.87-2.5-10.4s.5-6.53,1.5-9c1-2.46,1.83-7.6,2.5-15.4.67-7.8,1-17.4,1-28.8s-.7-20.9-2.1-28.5c-1.4-7.6-2.7-12.13-3.9-13.6-2.13-2.4-3.2-4.13-3.2-5.2s1.07-1.6,3.2-1.6,6.53,1.13,13.2,3.4ZM1042.96,184.54c.67.27,1.33.4,2,.4s1.27-.43,1.8-1.3c.53-.87,1.13-5.33,1.8-13.4.67-8.07,1-19.13,1-33.2s-.43-25-1.3-32.8c-.87-7.8-1.9-12.67-3.1-14.6-1.2-1.93-3.6-2.9-7.2-2.9-7.33,0-19.4,1.67-36.2,5-4.13.8-6.93,1.2-8.4,1.2s-2.8-.13-4-.4c1.87,9.6,2.73,23.2,2.6,40.8,3.33.27,11.33-1.67,24-5.8,2.8-1.07,5.7-1.6,8.7-1.6s5.67.87,8,2.6c2.33,1.73,3.5,3,3.5,3.8s-.37,1.4-1.1,1.8c-.73.4-4,1.23-9.8,2.5-5.8,1.27-10.73,2.2-14.8,2.8-4.07.6-7.54.9-10.4.9s-5.63-.53-8.3-1.6c-.4,14.8-1.33,29.27-2.8,43.4,6.67.4,15.8-.87,27.4-3.8,6.93-1.73,11.63-2.6,14.1-2.6s4.53.6,6.2,1.8c1.67,1.2,3.77,3.53,6.3,7Z"/>
  <path d="M1186.76,82.54c10.13-.8,20.17-2.2,30.1-4.2,9.93-2,16.23-3.77,18.9-5.3,2.67-1.53,5.47-2.3,8.4-2.3s7.37,1.87,13.3,5.6c5.93,3.73,8.9,6.53,8.9,8.4s-.7,3.93-2.1,6.2c-1.4,2.27-2.33,4.53-2.8,6.8-.47,2.27-.7,5.43-.7,9.5s.4,14.83,1.2,32.3l2.4,44.6c0,4.8-1.2,10.4-3.6,16.8-2.4,6.4-4.27,10.6-5.6,12.6-1.33,2-2.67,3-4,3-.8,0-1.63-1-2.5-3-.87-2-2.57-7-5.1-15-1.73-5.33-3.5-8.93-5.3-10.8-1.8-1.87-4.63-2.8-8.5-2.8s-10.3.63-19.3,1.9c-9,1.27-14.8,1.9-17.4,1.9s-4.97-.13-7.1-.4c-.67,5.2-1.43,9.73-2.3,13.6-.87,3.87-2.03,5.8-3.5,5.8s-2.83-2.83-4.1-8.5c-1.27-5.67-1.9-9.83-1.9-12.5s.73-5.6,2.2-8.8c1.73-4,2.6-17.87,2.6-41.6,0-13.47-.4-25-1.2-34.6s-1.77-15.27-2.9-17c-1.13-1.73-1.7-3-1.7-3.8,0-1.6,1.2-2.4,3.6-2.4,4.4,0,7.73,1.33,10,4ZM1186.36,182.94c13.2-.93,22.83-2.17,28.9-3.7,6.07-1.53,10.93-2.3,14.6-2.3s6.97,1.54,9.9,4.6c2.93,3.07,4.93,4.6,6,4.6s1.87-.83,2.4-2.5c.53-1.67,1-5.37,1.4-11.1.4-5.73.6-13.1.6-22.1s-.4-20.47-1.2-34.4c-.8-13.93-1.47-22.33-2-25.2-.54-2.87-1.7-5-3.5-6.4-1.8-1.4-4.4-2.1-7.8-2.1s-7.97.47-13.7,1.4c-15.73,2.8-27.07,4.47-34,5,.53,8.4.8,18.27.8,29.6,11.47-1.87,20.73-3.67,27.8-5.4,2.8-.67,5.87-1,9.2-1s5.73.53,7.2,1.6c1.46,1.07,2.2,2.07,2.2,3,0,2.13-4.5,3.77-13.5,4.9-9,1.13-16.1,1.7-21.3,1.7s-9.07-.2-11.6-.6c0,8.53-.2,17.33-.6,26.4,6.53-.13,16.67-1.73,30.4-4.8,4.27-.93,7.93-1.4,11-1.4s5.03.53,5.9,1.6c.87,1.07,1.3,1.87,1.3,2.4,0,1.73-4.07,3.4-12.2,5-8.13,1.6-15.27,2.4-21.4,2.4s-11.2-.33-15.2-1c-.27,10.67-.8,20.6-1.6,29.8Z"/>
</svg>