<?xml version="1.0" encoding="UTF-8"?>
<svg id="_レイヤー_1" data-name="レイヤー_1" xmlns="http://www.w3.org/2000/svg" version="1.1" viewBox="0 0 2621.67 750.94">
  <!-- Generator: Adobe Illustrator 29.8.1, SVG Export Plug-In . SVG Version: 2.1.1 Build 2)  -->
  <defs>
    <style>
      .st0 {
        fill: none;
        stroke: #000;
        stroke-miterlimit: 10;
      }
    </style>
  </defs>
  <g>
    <g>
      <path d="M769.76,637.32c-120.73-30.65-241.45,30.65-362.18,0v-21.29c120.73,30.65,241.45-30.65,362.18,0v21.29Z"/>
      <path class="st0" d="M769.76,637.32c-120.73-30.65-241.45,30.65-362.18,0v-21.29c120.73,30.65,241.45-30.65,362.18,0v21.29Z"/>
    </g>
    <g>
      <path d="M1131.94,637.32c-120.73-30.65-241.45,30.65-362.18,0v-21.29c120.73,30.65,241.45-30.65,362.18,0v21.29Z"/>
      <path class="st0" d="M1131.94,637.32c-120.73-30.65-241.45,30.65-362.18,0v-21.29c120.73,30.65,241.45-30.65,362.18,0v21.29Z"/>
    </g>
    <g>
      <path d="M1491.92,637.32c-120.73-30.65-241.45,30.65-362.18,0v-21.29c120.73,30.65,241.45-30.65,362.18,0v21.29Z"/>
      <path class="st0" d="M1491.92,637.32c-120.73-30.65-241.45,30.65-362.18,0v-21.29c120.73,30.65,241.45-30.65,362.18,0v21.29Z"/>
    </g>
    <g>
      <path d="M1854.1,637.32c-120.73-30.65-241.45,30.65-362.18,0v-21.29c120.73,30.65,241.45-30.65,362.18,0v21.29Z"/>
      <path class="st0" d="M1854.1,637.32c-120.73-30.65-241.45,30.65-362.18,0v-21.29c120.73,30.65,241.45-30.65,362.18,0v21.29Z"/>
    </g>
    <g>
      <path d="M2214.09,637.32c-120.73-30.65-241.45,30.65-362.18,0v-21.29c120.73,30.65,241.45-30.65,362.18,0v21.29Z"/>
      <path class="st0" d="M2214.09,637.32c-120.73-30.65-241.45,30.65-362.18,0v-21.29c120.73,30.65,241.45-30.65,362.18,0v21.29Z"/>
    </g>
  </g>
  <g>
    <path d="M614.01,334.88c1.5,12.78,2.11,24.87,2.11,35.62,0,17.81-2.11,32.25-7.81,40.33-3.92,5.72-8.12,8.41-11.73,8.41-3.02,0-8.71-3.02-8.71-8.08,0-3.02,1.5-6.72,4.82-11.42,11.73-17.48,13.84-30.56,17.14-64.86h4.2-.02ZM680.16,296.93c-3.02-11.09-9.62-25.53-18.36-35.96l3.02-2.35c15.93,13.11,33.08,29.24,33.08,44.01,0,6.72-3.3,14.44-9.93,14.44-2.71,0-6.01-3.35-6.01-8.41,0-1.69-.31-3.71-.59-6.06-46.92,6.72-63.76,10.76-70.67,17.48-1.21,1-2.11,1.69-2.71,1.69-.9,0-1.5-.66-2.11-2.35l-8.71-21.85c9.93-1.69,16.84-4.7,22.87-12.78,11.14-15.79,22.25-33.94,31.58-51.06-24.36,3.71-39.7,7.39-46.02,11.76-1.5,1-2.71,1.69-3.3,1.69-.9,0-1.5-.66-2.11-2.02l-8.12-21.16c11.14-2.68,14.75-5.03,20.75-15.46,10.83-19.14,28.57-59.8,35.5-79.3l19.54,11.76c1.8,1,2.71,1.69,2.71,2.68,0,.66-1.21,1.35-3.3,2.35-5.72,2.35-7.22,3.35-10.23,7.72l-47.52,72.58,46.3-.33c9.02-16.79,16.24-32.25,21.06-43.67l16.84,13.11c1.8,1.35,2.71,2.35,2.71,3.02,0,1-1.21,2.02-3.92,3.02-6.32,2.35-7.53,3.35-10.83,8.41-20.45,31.25-41.82,62.15-63.76,89.37l62.26-2.35-.02.05ZM636.87,329.18c12.04,20.5,18.05,39.99,18.05,53.41,0,11.76-6.01,19.83-12.32,19.83-4.2,0-6.91-3.02-6.91-7.72,0-2.02.31-4.37,1.21-6.72,1.8-5.37,2.71-12.42,2.71-20.16,0-10.76-1.8-23.51-6.01-35.96l3.3-2.68h-.02ZM665.72,323.46c24.67,28.9,27.97,45.36,27.97,52.08,0,8.41-5.41,16.79-10.52,16.79-4.82,0-6.63-3.35-6.63-12.45,0-15.46-4.51-36.95-14.13-53.77l3.3-2.68v.03ZM811.6,207.21h-61.64c-6.32,0-15.03,1.35-20.16,3.71l-8.43-12.09c7.53.66,15.03,1.35,21.97,1.35h68.27l1.21-36.29h-75.8c-6.32,0-15.03,1.35-20.16,3.71l-8.43-12.42c7.53.66,15.03,1.35,21.97,1.35h79.1l9.33-13.77,18.36,15.79c1.8,1.69,2.4,2.68,2.4,3.71,0,.66-.59,1.69-2.11,2.35l-11.14,6.39-2.4,70.56h16.55l10.83-16.13,14.13,16.79c2.11,2.35,3.02,3.71,3.02,4.7,0,1.35-1.5,1.69-4.2,1.69h-68.27c-11.14,9.74-19.26,16.13-33.08,25.86,13.54,12.42,22.87,25.86,28.88,41.99,21.97-17.81,35.79-33.61,51.13-52.08l14.44,15.13c1.8,1.69,2.71,3.02,2.71,3.71,0,1-1.21,1.35-3.61,1.35-7.81,0-11.73,1.69-52.93,30.56,13.54,44.7,29.18,63.5,68.27,79.3v4.04c-13.54.66-18.05,3.71-22.56,8.74-1.21,1.35-2.4,2.02-3.3,2.02s-1.5-.33-2.11-1.02c-27.38-31.92-37.31-52.41-44.81-90.06-1.8,1.35-3.61,2.68-5.41,3.71,6.32,21.16,6.91,45.03,6.91,59.8,0,32.25-8.71,44.7-28.88,57.78-.9.66-1.5,1-2.11,1-1.21,0-2.11-1-2.4-3.02-1.8-8.74-4.2-11.42-30.99-21.16l1.21-5.03c10.83,2.68,19.26,3.71,25.86,3.71,14.75,0,24.36-5.03,24.36-44.01,0-10.07-.9-20.5-2.71-31.25-36.4,42.34-70.38,62.84-106.76,78.28l-1.5-4.04c45.71-27.55,75.18-51.42,104.36-92.41-2.11-6.72-4.51-13.11-7.81-19.5-34.6,34.27-44.81,40.99-70.67,54.76l-1.8-4.7c29.78-20.83,44.81-36.95,64.97-63.5-2.71-3.71-5.11-7.39-7.81-11.09-15.34,9.74-31.58,17.48-52.93,26.22l-1.21-4.37c36.09-20.5,49.63-29.9,71.88-50.73h-59.84c-6.32,0-15.03,1.35-20.16,3.71l-8.43-12.09c7.53.66,15.03,1.35,21.97,1.35h101.35l1.21-34.27-.05-.08Z"/>
    <path d="M1170.09,418.55c-13.84,2.68-21.35,8.74-24.67,17.81-1.21,3.02-2.4,4.04-6.01,4.04-35.19-.66-112.49-4.04-129.32-7.39-43.62-8.74-65.25-27.88-80.31-72.91-7.81,35.27-20.75,62.48-39.39,85.33l-3.61-3.02c23.46-37.64,34.29-88.7,36.69-151.87l21.35,12.78c1.5.66,2.4,1.35,2.4,2.35,0,.66-.9,1.35-2.4,2.35l-7.81,5.37c-1.21,13.44-3.02,25.86-5.11,37.29,9.02,25.2,19.85,42.34,37.9,53.77v-138.43h-51.72c-6.32,0-15.03,1.35-20.16,3.71l-8.43-12.42c7.53.66,15.03,1.35,21.97,1.35h52.93v-60.49h-29.47c-6.32,0-15.03,1.35-20.16,3.71l-8.43-12.42c7.53.66,15.03,1.35,21.97,1.35h36.09v-15.46c0-12.42-.31-32.92-.9-44.34l20.45,10.43c2.4,1.35,3.92,2.35,3.92,3.35,0,1.35-1.21,2.02-9.62,7.72v38.31h26.76l10.83-18.48,16.24,19.14c2.11,2.68,3.3,4.37,3.3,5.37s-1.5,1.35-4.2,1.35h-52.93v60.49h31.58l11.42-17.15,15.93,17.81c2.4,2.68,3.61,4.37,3.61,5.37s-1.5,1.35-4.51,1.35h-52.34v58.8h26.48l11.42-16.46,15.34,17.48c2.4,2.68,3.3,4.37,3.3,5.37s-1.21,1.35-4.2,1.35h-52.34v78.97c19.26,7.05,49.91,9.74,82.4,9.74,35.79,0,73.99-3.02,103.15-6.72l.59,4.04.02-.08ZM1143.33,302.63c0,30.56,4.2,39.3,11.14,44.34,1.5,1.35,2.4,2.35,2.4,3.71,0,1-.31,2.35-1.21,4.04-8.43,17.81-14.44,18.81-29.78,20.5-9.93,1.02-20.75,2.02-33.98,2.02-17.74,0-40.3,0-40.3-21.16v-74.93c0-12.42-.31-32.92-.9-44.34l18.05,16.13h52.03v-72.24h-52.62c-6.32,0-15.03,1.35-20.16,3.71l-8.43-11.76c7.53.66,15.03,1.35,21.97,1.35h54.43l9.33-14.77,19.26,16.13c1.5,1.35,2.4,2.35,2.4,3.35s-.9,2.02-2.4,3.02l-9.62,6.39v48.38c0,9.07.31,17.81.9,25.2v1.69c0,3.71-1.21,4.7-9.02,8.41-2.11,1-3.3,1.35-4.2,1.35-1.5,0-1.8-1-1.8-2.68v-10.76h-55.04v89.37c0,10.43,4.51,13.77,24.36,13.77,8.12,0,20.75-.33,33.39-2.02,11.73-1.35,15.34-3.37,15.34-58.14h4.51l-.02-.03Z"/>
    <path d="M1248.29,215.95c3.3-7.72,8.43-8.41,12.32-8.41,12.94,0,33.08,12.78,33.08,22.51,0,7.39-5.41,3.02-10.83,21.16-13.84,47.05-43.62,102.14-82.4,137.77l-6.63-7.05c50.53-55.1,73.99-134.06,73.99-148.17,0-10.76-7.53-17.48-19.26-17.48l-.31-.33h.02ZM1361.96,216.97c52.34,37.98,99.54,111.88,99.54,148.17,0,8.74-.59,17.81-8.71,17.81-5.72,0-8.71-4.37-11.42-15.13-11.73-45.69-38.8-101.81-86.01-143.47l6.63-7.39h-.02ZM1421.52,142.37c18.64,0,33.98,17.15,33.98,37.98s-15.34,38.31-33.98,38.31-34.29-17.15-34.29-38.31,15.93-37.98,34.29-37.98ZM1445.88,180.35c0-14.77-11.14-27.22-24.36-27.22s-24.36,12.42-24.36,27.22,10.83,27.22,24.36,27.22,24.36-12.78,24.36-27.22Z"/>
    <path d="M1505.41,410.5c70.98-45.69,147.96-145.82,172.94-219.06.59-1.35.59-2.35.59-3.02,0-1-.59-1.69-2.71-1.69-4.82,0-62.55,6.06-91.42,12.09-7.53,1.69-10.52,3.35-13.23,5.37-2.4,1.69-3.61,4.04-8.43,4.04-9.62,0-25.27-17.15-25.27-27.88,0-9.4,5.72-11.76,6.32-11.76,1.5,16.46,15.93,16.46,27.38,16.46,8.71,0,79.41-5.72,99.85-8.41,4.2-.66,6.32-2.35,8.12-4.37,1.5-1.69,5.72-5.37,7.53-5.37,5.11,0,22.25,15.13,22.25,19.83,0,5.03-4.2,6.06-8.43,7.72-4.2,2.02-6.91,6.39-8.43,9.74-10.23,21.49-34.29,65.52-52.65,90.39,28.28,18.48,63.76,46.02,81.5,65.19,13.82,15.46,26.17,32.58,26.17,41.99,0,7.39-3.61,14.11-9.02,14.11-6.01,0-11.42-12.45-22.87-30.56-14.44-23.84-55.33-64.17-82.4-82.31-26.17,35.62-72.78,86.35-123,114.9l-4.82-7.39h.02Z"/>
    <path d="M1820,297.93c38.8-34.27,76.7-86.35,87.53-122.64,1.8-6.06,3.61-10.76,3.61-14.11,0-8.74-15.34-10.07-17.45-10.07,1.21-6.06,5.11-8.74,11.42-8.74,12.63,0,32.79,10.76,32.79,19.5,0,3.71-3.3,5.72-5.41,7.39-3.02,2.35-5.11,5.37-8.43,13.11-2.4,5.72-5.11,11.42-8.43,17.15,3.3.66,6.63.66,9.93.66,9.93,0,52.03-2.68,70.67-5.72,6.63-1,6.63-.66,9.02-3.35,1.8-2.02,5.72-5.37,7.22-5.37,5.41,0,21.35,17.81,21.35,21.16,0,4.04-2.71,4.7-6.91,6.39-3.3,1.35-7.53,3.02-9.33,7.72-9.62,24.87-27.07,63.17-40.91,85,11.73,8.74,33.7,25.2,33.7,39.3,0,5.72-3.92,8.74-7.81,8.74-4.51,0-9.33-6.39-13.23-11.09-6.01-7.39-15.65-15.46-22.25-21.49-30.99,41.99-74.59,81.65-130.22,107.51l-5.11-7.39c50.84-27.22,95.34-68.87,123-109.86-14.13-10.43-37-23.84-68.27-33.61l3.3-8.08c29.16,6.39,56.54,18.48,73.68,28.21,28.57-47.05,40.3-87.35,40.3-90.72,0-2.02-1.21-2.68-3.92-2.68-12.32,0-70.98,10.43-77.89,10.43-4.82,0-9.33-1.69-12.63-4.37-19.26,32.92-44.52,64.5-83.92,94.07l-5.41-7.05h.02Z"/>
  </g>
</svg>