<?xml version="1.0" encoding="UTF-8"?>
<svg id="_レイヤー_1" data-name="レイヤー_1" xmlns="http://www.w3.org/2000/svg" version="1.1" viewBox="0 0 1259.54 237.5">
  <!-- Generator: Adobe Illustrator 29.8.1, SVG Export Plug-In . SVG Version: 2.1.1 Build 2)  -->
  <path d="M336.32,137.35c.63,5,.89,9.73.89,13.94,0,6.97-.89,12.62-3.29,15.78-1.65,2.24-3.42,3.29-4.94,3.29-1.27,0-3.67-1.18-3.67-3.16,0-1.18.63-2.63,2.03-4.47,4.94-6.84,5.83-11.96,7.22-25.38h1.77ZM364.18,122.5c-1.27-4.34-4.05-9.99-7.73-14.07l1.27-.92c6.71,5.13,13.93,11.44,13.93,17.22,0,2.63-1.39,5.65-4.18,5.65-1.14,0-2.53-1.31-2.53-3.29,0-.66-.13-1.45-.25-2.37-19.76,2.63-26.85,4.21-29.76,6.84-.51.39-.89.66-1.14.66-.38,0-.63-.26-.89-.92l-3.67-8.55c4.18-.66,7.09-1.84,9.63-5,4.69-6.18,9.37-13.28,13.3-19.98-10.26,1.45-16.72,2.89-19.38,4.6-.63.39-1.14.66-1.39.66-.38,0-.63-.26-.89-.79l-3.42-8.28c4.69-1.05,6.21-1.97,8.74-6.05,4.56-7.49,12.03-23.4,14.95-31.03l8.23,4.6c.76.39,1.14.66,1.14,1.05,0,.26-.51.53-1.39.92-2.41.92-3.04,1.31-4.31,3.02l-20.01,28.4,19.5-.13c3.8-6.57,6.84-12.62,8.87-17.09l7.09,5.13c.76.53,1.14.92,1.14,1.18,0,.39-.51.79-1.65,1.18-2.66.92-3.17,1.31-4.56,3.29-8.61,12.23-17.61,24.32-26.85,34.97l26.22-.92ZM345.95,135.12c5.07,8.02,7.6,15.65,7.6,20.9,0,4.6-2.53,7.76-5.19,7.76-1.77,0-2.91-1.18-2.91-3.02,0-.79.13-1.71.51-2.63.76-2.1,1.14-4.86,1.14-7.89,0-4.21-.76-9.2-2.53-14.07l1.39-1.05ZM358.1,132.88c10.39,11.31,11.78,17.75,11.78,20.38,0,3.29-2.28,6.57-4.43,6.57-2.03,0-2.79-1.31-2.79-4.87,0-6.05-1.9-14.46-5.95-21.04l1.39-1.05ZM419.53,87.39h-25.96c-2.66,0-6.33.53-8.49,1.45l-3.55-4.73c3.17.26,6.33.53,9.25.53h28.75l.51-14.2h-31.92c-2.66,0-6.33.53-8.49,1.45l-3.55-4.86c3.17.26,6.33.53,9.25.53h33.31l3.93-5.39,7.73,6.18c.76.66,1.01,1.05,1.01,1.45,0,.26-.25.66-.89.92l-4.69,2.5-1.01,27.61h6.97l4.56-6.31,5.95,6.57c.89.92,1.27,1.45,1.27,1.84,0,.53-.63.66-1.77.66h-28.75c-4.69,3.81-8.11,6.31-13.93,10.12,5.7,4.86,9.63,10.12,12.16,16.43,9.25-6.97,15.07-13.15,21.53-20.38l6.08,5.92c.76.66,1.14,1.18,1.14,1.45,0,.39-.51.53-1.52.53-3.29,0-4.94.66-22.29,11.96,5.7,17.49,12.29,24.85,28.75,31.03v1.58c-5.7.26-7.6,1.45-9.5,3.42-.51.53-1.01.79-1.39.79s-.63-.13-.89-.4c-11.53-12.49-15.71-20.51-18.87-35.24-.76.53-1.52,1.05-2.28,1.45,2.66,8.28,2.91,17.62,2.91,23.4,0,12.62-3.67,17.49-12.16,22.61-.38.26-.63.39-.89.39-.51,0-.89-.39-1.01-1.18-.76-3.42-1.77-4.47-13.05-8.28l.51-1.97c4.56,1.05,8.11,1.45,10.89,1.45,6.21,0,10.26-1.97,10.26-17.22,0-3.94-.38-8.02-1.14-12.23-15.33,16.57-29.64,24.59-44.96,30.63l-.63-1.58c19.25-10.78,31.66-20.12,43.95-36.16-.89-2.63-1.9-5.13-3.29-7.63-14.57,13.41-18.87,16.04-29.76,21.43l-.76-1.84c12.54-8.15,18.87-14.46,27.36-24.85-1.14-1.45-2.15-2.89-3.29-4.34-6.46,3.81-13.3,6.84-22.29,10.26l-.51-1.71c15.2-8.02,20.9-11.7,30.27-19.85h-25.2c-2.66,0-6.33.53-8.49,1.45l-3.55-4.73c3.17.26,6.33.53,9.25.53h42.68l.51-13.41Z"/>
  <path d="M570.5,170.09c-5.83,1.05-8.99,3.42-10.39,6.97-.51,1.18-1.01,1.58-2.53,1.58-14.82-.26-47.37-1.58-54.46-2.89-18.37-3.42-27.48-10.91-33.82-28.53-3.29,13.8-8.74,24.45-16.59,33.39l-1.52-1.18c9.88-14.73,14.44-34.71,15.45-59.43l8.99,5c.63.26,1.01.53,1.01.92,0,.26-.38.53-1.01.92l-3.29,2.1c-.51,5.26-1.27,10.12-2.15,14.59,3.8,9.86,8.36,16.57,15.96,21.04v-54.17h-21.78c-2.66,0-6.33.53-8.49,1.45l-3.55-4.86c3.17.26,6.33.53,9.25.53h22.29v-23.67h-12.41c-2.66,0-6.33.53-8.49,1.45l-3.55-4.86c3.17.26,6.33.53,9.25.53h15.2v-6.05c0-4.86-.13-12.88-.38-17.35l8.61,4.08c1.01.53,1.65.92,1.65,1.31,0,.53-.51.79-4.05,3.02v14.99h11.27l4.56-7.23,6.84,7.49c.89,1.05,1.39,1.71,1.39,2.1s-.63.53-1.77.53h-22.29v23.67h13.3l4.81-6.71,6.71,6.97c1.01,1.05,1.52,1.71,1.52,2.1s-.63.53-1.9.53h-22.04v23.01h11.15l4.81-6.44,6.46,6.84c1.01,1.05,1.39,1.71,1.39,2.1s-.51.53-1.77.53h-22.04v30.9c8.11,2.76,21.02,3.81,34.7,3.81,15.07,0,31.16-1.18,43.44-2.63l.25,1.58ZM559.23,124.73c0,11.96,1.77,15.38,4.69,17.35.63.53,1.01.92,1.01,1.45,0,.39-.13.92-.51,1.58-3.55,6.97-6.08,7.36-12.54,8.02-4.18.4-8.74.79-14.31.79-7.47,0-16.97,0-16.97-8.28v-29.32c0-4.86-.13-12.88-.38-17.35l7.6,6.31h21.91v-28.27h-22.16c-2.66,0-6.33.53-8.49,1.45l-3.55-4.6c3.17.26,6.33.53,9.25.53h22.92l3.93-5.78,8.11,6.31c.63.53,1.01.92,1.01,1.31s-.38.79-1.01,1.18l-4.05,2.5v18.93c0,3.55.13,6.97.38,9.86v.66c0,1.45-.51,1.84-3.8,3.29-.89.39-1.39.53-1.77.53-.63,0-.76-.39-.76-1.05v-4.21h-23.18v34.97c0,4.08,1.9,5.39,10.26,5.39,3.42,0,8.74-.13,14.06-.79,4.94-.53,6.46-1.32,6.46-22.75h1.9Z"/>
  <path d="M603.43,90.81c1.39-3.02,3.55-3.29,5.19-3.29,5.45,0,13.93,5,13.93,8.81,0,2.89-2.28,1.18-4.56,8.28-5.83,18.41-18.37,39.97-34.7,53.91l-2.79-2.76c21.28-21.56,31.16-52.46,31.16-57.98,0-4.21-3.17-6.84-8.11-6.84l-.13-.13ZM651.3,91.21c22.04,14.86,41.92,43.78,41.92,57.98,0,3.42-.25,6.97-3.67,6.97-2.41,0-3.67-1.71-4.81-5.92-4.94-17.88-16.34-39.84-36.22-56.14l2.79-2.89ZM676.38,62.02c7.85,0,14.31,6.71,14.31,14.86s-6.46,14.99-14.31,14.99-14.44-6.71-14.44-14.99,6.71-14.86,14.44-14.86ZM686.64,76.88c0-5.78-4.69-10.65-10.26-10.65s-10.26,4.86-10.26,10.65,4.56,10.65,10.26,10.65,10.26-5,10.26-10.65Z"/>
  <path d="M711.71,166.94c29.89-17.88,62.31-57.06,72.83-85.72.25-.53.25-.92.25-1.18,0-.39-.25-.66-1.14-.66-2.03,0-26.34,2.37-38.5,4.73-3.17.66-4.43,1.31-5.57,2.1-1.01.66-1.52,1.58-3.55,1.58-4.05,0-10.64-6.71-10.64-10.91,0-3.68,2.41-4.6,2.66-4.6.63,6.44,6.71,6.44,11.53,6.44,3.67,0,33.44-2.24,42.05-3.29,1.77-.26,2.66-.92,3.42-1.71.63-.66,2.41-2.1,3.17-2.1,2.15,0,9.37,5.92,9.37,7.76,0,1.97-1.77,2.37-3.55,3.02-1.77.79-2.91,2.5-3.55,3.81-4.31,8.41-14.44,25.64-22.17,35.37,11.91,7.23,26.85,18.01,34.32,25.51,5.82,6.05,11.02,12.75,11.02,16.43,0,2.89-1.52,5.52-3.8,5.52-2.53,0-4.81-4.87-9.63-11.96-6.08-9.33-23.3-25.11-34.7-32.21-11.02,13.94-30.65,33.79-51.8,44.96l-2.03-2.89Z"/>
  <path d="M844.19,122.89c16.34-13.41,32.3-33.79,36.86-47.99.76-2.37,1.52-4.21,1.52-5.52,0-3.42-6.46-3.94-7.35-3.94.51-2.37,2.15-3.42,4.81-3.42,5.32,0,13.81,4.21,13.81,7.63,0,1.45-1.39,2.24-2.28,2.89-1.27.92-2.15,2.1-3.55,5.13-1.01,2.24-2.15,4.47-3.55,6.71,1.39.26,2.79.26,4.18.26,4.18,0,21.91-1.05,29.76-2.24,2.79-.39,2.79-.26,3.8-1.31.76-.79,2.41-2.1,3.04-2.1,2.28,0,8.99,6.97,8.99,8.28,0,1.58-1.14,1.84-2.91,2.5-1.39.53-3.17,1.18-3.93,3.02-4.05,9.73-11.4,24.72-17.23,33.26,4.94,3.42,14.19,9.86,14.19,15.38,0,2.24-1.65,3.42-3.29,3.42-1.9,0-3.93-2.5-5.57-4.34-2.53-2.89-6.59-6.05-9.37-8.41-13.05,16.43-31.41,31.95-54.84,42.07l-2.15-2.89c21.41-10.65,40.15-26.95,51.8-42.99-5.95-4.08-15.58-9.33-28.75-13.15l1.39-3.16c12.28,2.5,23.81,7.23,31.03,11.04,12.03-18.41,16.97-34.18,16.97-35.5,0-.79-.51-1.05-1.65-1.05-5.19,0-29.89,4.08-32.8,4.08-2.03,0-3.93-.66-5.32-1.71-8.11,12.88-18.75,25.24-35.34,36.81l-2.28-2.76Z"/>
</svg>