<?xml version="1.0" encoding="UTF-8"?>
<svg id="_レイヤー_1" data-name="レイヤー_1" xmlns="http://www.w3.org/2000/svg" version="1.1" viewBox="0 0 2304.08 1098.34">
  <!-- Generator: Adobe Illustrator 29.8.1, SVG Export Plug-In . SVG Version: 2.1.1 Build 2)  -->
  <defs>
    <style>
      .st0 {
        fill: none;
      }

      .st1 {
        fill: #ff3109;
      }

      .st1, .st2, .st3 {
        stroke: #000;
        stroke-miterlimit: 10;
        stroke-width: 2px;
      }

      .st3 {
        fill: #fff;
      }
    </style>
  </defs>
  <g>
    <path d="M47.31,349.16c-.77,14.27-4.11,19.3-7.7,19.3-4.62,0-8.98-10.07-8.98-16.78s1.54-15.38,2.05-29.93c2.57-52.02,2.57-106.56,2.57-149.64,0-15.38-1.28-23.77-3.08-30.77-.51-1.68-.77-2.8-.77-3.36,0-1.68,1.28-2.52,2.31-2.52,2.82,0,10.78,4.76,13.86,6.99,14.37-1.4,31.05-2.52,43.63-3.64,5.9-.56,6.67-3.36,9.5-3.36s6.67,2.24,9.75,4.76c4.62,3.36,7.7,6.71,7.7,9.23,0,1.96-1.03,3.91-1.8,5.31-1.28,2.52-2.31,5.03-2.31,9.51-.26,7.55-.26,29.93-.51,42.79-.26,10.35-3.08,13.43-7.44,13.43-2.57,0-6.42-2.8-7.19-8.67-16.68.84-33.11,2.24-49.53,4.2-.77,54.26-1.8,125.02-2.05,133.14ZM99.92,179.11c-16.68.84-33.62,2.24-50.04,4.2-.26,7.27-.26,14.54-.51,21.82,16.94-1.68,33.62-3.36,50.56-4.75v-21.26ZM99.67,150.02c0-.84-.77-1.4-1.54-1.4-13.34.28-31.57,1.68-47.99,3.92,0,1.96,0,9.51-.26,20.42,16.68-1.68,33.36-3.36,49.79-4.47v-18.46ZM102.49,266.09c-.26-7.55-.51-13.43-1.8-17.62-2.57.28-7.96.84-11.81,1.4-1.8.28-2.57.28-3.59.28-1.8,0-3.08-.56-4.62-2.24-3.08-3.08-5.39-6.43-5.39-7.83,0-.84.77-1.4,2.31-1.4,3.59-.28,10.78-.84,14.89-1.12,11.55-.56,36.44-3.08,56.97-4.76,6.16-.56,10.01-1.12,15.4-3.36,1.8-.84,3.59-1.4,5.39-1.4,2.05,0,4.36.56,7.44,1.96,4.11,1.68,8.21,5.04,8.21,8.11,0,3.64-1.8,4.75-6.67,4.75-6.93,0-14.37.56-22.07.84,3.59,3.64,4.36,5.32,4.36,7.55,0,3.08-1.54,5.87-1.54,11.47v10.63c3.59-.56,6.67-.56,9.24-.84,3.34-.28,7.19-1.12,9.5-1.96,1.28-.56,2.82-1.4,4.62-1.4,2.05,0,6.16,1.68,10.52,4.76,2.57,1.68,4.88,4.2,4.88,6.71,0,2.24-2.05,4.2-5.65,4.2h-11.81c-6.16,0-13.6,0-21.56.56,0,18.74,0,40.28.26,55.94,0,8.39-1.8,14.27-6.16,14.27s-8.98-8.67-8.98-16.78c0-4.2,1.54-7.27,1.54-11.19.26-12.87.51-27.97.51-41.67-10.52.84-21.3,1.68-31.82,2.52-1.28,10.35-3.34,18.46-5.9,25.45-6.16,16.78-15.14,28.25-27.2,37.76-.77.56-1.54.84-2.05.84-1.03,0-2.05-.84-2.05-2.24,0-.56.26-1.4.77-1.96,9.75-12.59,15.4-24.05,19.5-39.16,1.54-5.03,2.82-11.75,3.59-19.58-8.21.84-16.17,1.68-23.61,2.52-1.54.28-2.05.28-2.82.28-1.03,0-2.05-.28-3.34-1.4-5.13-4.48-6.93-7.27-6.93-8.39s.77-1.4,1.8-1.4c9.24-.56,21.81-1.68,35.67-2.8v-12.31ZM146.63,264.69c0-8.67-.26-15.1-1.28-20.14-10.52.56-24.12,1.96-32.08,2.52,3.34,2.24,4.62,4.75,4.62,6.71,0,3.92-1.54,6.15-1.54,10.91,0,4.48-.26,8.39-.51,12.31l30.8-2.52v-9.79ZM158.95,212.67c0,5.59-2.05,8.39-6.16,8.39-4.36,0-8.73-8.39-8.73-16.22,0-3.36,1.54-7.55,1.54-19.3,0-10.63,0-29.65-.51-36.36-.51-6.71-1.54-10.63-2.31-12.87-.51-1.12-.77-1.96-.77-2.8,0-1.4.77-2.52,2.31-2.52,2.31,0,7.7,3.08,11.81,6.15,18.99-1.68,36.19-2.52,49.53-3.64,3.34-.28,6.67-3.91,8.73-3.91,3.34,0,7.7,2.8,12.57,7.27,3.08,3.08,7.19,7.27,7.19,10.07s-1.03,4.2-2.57,6.71c-1.54,2.52-2.57,5.59-2.57,13.42,0,51.19.51,111.6,1.54,168.38,0,13.98-1.28,23.49-3.85,29.09-2.82,6.43-4.36,7.83-6.93,7.83-4.62,0-10.52-5.6-16.68-12.03-4.62-4.76-9.75-10.91-14.11-17.06-.77-1.12-1.28-1.96-1.28-2.52,0-.84.51-1.4,1.54-1.4,2.05,0,14.37,4.2,21.04,4.2,3.34,0,4.11-1.96,4.11-5.87,0-45.87-.26-87.27-.26-128.94-18.48.28-41.32,2.24-55.18,3.92ZM213.87,175.19c-18.22.56-36.7,1.68-54.66,3.36-.26,7.83-.26,15.66-.26,23.49,18.22-1.96,36.7-3.64,54.92-4.47v-22.38ZM213.87,145.26c0-.84-.51-1.4-1.03-1.4-16.94.56-35.93,1.68-53.38,3.64-.26,4.75-.26,9.51-.26,14.26v6.71c17.96-1.68,36.44-3.36,54.66-4.48v-18.74Z"/>
    <path d="M310.12,315.6c8.47,0,19.51,1.4,24.64,2.52,18.48,3.64,81.35,17.62,92.13,20.42,10.78,2.52,34.65,6.43,48.5,7.55,10.52.84,24.12,2.52,31.57,2.8,3.08.28,4.88,1.4,4.88,2.52s-1.03,2.52-3.59,3.91c-10.26,5.87-25.41,13.15-35.16,14.55-1.8.28-4.11.56-6.67.56-3.34,0-7.19-.56-10.78-1.96-8.98-3.64-33.36-11.47-46.19-15.94-27.72-9.79-65.7-21.54-85.97-23.77-4.88-.56-11.55-.84-17.45-.84-8.73,0-13.6.56-18.73,3.64-2.31,1.4-4.62,2.24-6.16,2.24-1.03,0-1.8-.28-2.31-.84-2.57-2.52-4.88-5.03-5.65-8.11-.51-1.96-1.03-3.92-1.03-5.59,0-2.24,1.03-3.92,4.11-3.92,2.31,0,4.88.28,7.44.28,2.05,0,4.36-.28,6.42-.84,9.75-2.8,18.99-10.35,26.69-19.02,1.28-1.4,1.8-2.8,1.8-3.64,0-1.4-1.03-2.8-2.31-4.2-2.31-2.8-6.67-10.35-9.5-17.34-.77-2.24-1.28-4.76-1.28-7.27,0-1.96.26-3.64.77-5.03,2.82-8.11,5.13-13.98,6.93-20.14-5.65,1.96-15.66,5.87-21.82,8.67-1.28.56-2.82,1.68-4.62,1.68-.51,0-1.28-.28-2.05-.84-5.39-3.92-7.7-6.99-7.7-9.51,0-.84.51-1.4,2.05-1.68,3.34-.28,21.04-6.43,31.57-10.07,6.16-2.24,5.65-5.87,8.73-6.43h.51c4.11,0,10.52,3.64,13.6,6.99,1.03,1.12,1.8,2.24,1.8,3.64,0,1.12-.51,2.24-1.54,3.64-6.67,8.39-13.35,18.18-16.94,24.33-1.28,1.96-1.8,3.36-1.8,4.48s.51,2.52,2.05,4.2c7.44,7.83,16.17,16.22,18.48,23.21.51,1.4.77,2.8.77,3.92,0,2.52-1.28,4.2-3.08,5.87-7.96,7.55-16.17,10.91-26.43,15.38h3.34ZM326.29,182.18c-3.59,0-10.27-5.03-16.17-12.31-8.73-10.63-15.91-21.82-15.91-24.05,0-.84.51-1.12,1.28-1.12,1.28,0,13.09,4.47,19.76,8.11,10.27,5.31,17.71,13.98,17.71,22.1,0,4.2-2.05,7.27-6.67,7.27ZM413.29,294.34c-17.96,1.68-37.21,4.2-49.27,6.43-1.54.28-3.34.56-4.11.56s-2.05-.28-3.34-1.68c-3.85-3.92-7.44-8.39-7.44-9.79,0-.84.51-1.12,1.28-1.12,20.79-1.68,40.55-3.92,63.13-5.59.26-6.71.51-13.43.51-19.86-7.96.56-17.71,1.68-28.74,3.36-.51,3.64-2.82,5.32-5.65,5.32-1.54,0-2.57-.56-3.08-1.12-2.57-2.8-3.34-8.11-3.85-15.38-1.03-13.15-2.57-27.69-3.59-35.24-.77-4.76-2.31-10.35-4.62-15.38-.77-1.68-1.03-2.8-1.03-3.92s.77-1.96,2.05-1.96c2.57,0,6.93,1.68,11.81,4.2,6.67-.56,23.1-2.52,36.96-3.64v-17.9c-9.24.84-17.71,1.96-25.41,3.36-1.8.28-3.08.56-3.59.56-1.03,0-1.54-.28-2.57-1.12-4.11-4.2-7.44-7.55-7.44-9.51,0-.84,1.28-1.4,3.59-1.4,6.16-.28,11.29-.56,17.19-1.12,6.67-.84,14.37-1.4,18.22-1.68v-1.4c0-4.47-.51-8.67-2.31-12.59-.26-.84-.51-1.4-.51-1.96,0-1.4.77-2.24,2.31-2.24,1.8,0,6.16,1.4,10.52,3.36,3.85,1.96,6.42,3.64,6.42,5.59,0,1.68-1.03,3.36-1.54,5.03-.26.84-.51,1.68-.77,3.08,3.34-.28,7.7-.56,11.81-1.12,4.11-.28,8.98-1.96,11.04-3.08,1.8-.84,2.82-1.12,4.11-1.12,2.05,0,4.36.84,7.44,2.24,4.88,2.24,8.21,5.87,8.21,8.11,0,3.36-2.82,4.47-6.93,4.47-12.32.28-24.64.56-36.44,1.4,0,3.64-.26,12.87-.26,17.62,9.24-.84,17.2-1.4,23.1-1.96,3.85-.28,6.16-.56,8.72-2.24,1.03-.56,2.05-.84,3.08-.84,1.54,0,3.08.56,4.62,1.4,4.62,3.08,7.96,5.31,10.52,8.11,1.54,1.68,2.05,3.36,2.05,5.03,0,1.4-.51,3.08-1.8,5.03-1.54,2.52-2.31,5.03-3.59,12.59-2.31,12.87-4.88,28.25-6.16,33.56-1.28,5.59-3.85,8.95-7.19,8.95-3.08,0-5.65-1.4-6.42-6.43-13.09,0-21.3.56-27.97.84-.26,7.27-.26,13.98-.26,19.86,19.5-1.4,29.77-1.96,37.47-2.52,3.59-.28,6.93-.84,8.98-1.68,1.54-.56,3.34-.84,5.65-.84,3.85,0,10.01,3.64,12.83,6.71,1.8,1.96,2.57,3.36,2.57,5.87,0,3.08-1.54,3.92-6.16,3.92-1.54,0-2.57,0-5.13-.28-7.19-.56-16.94-.84-27.72-.84-9.24,0-18.99.28-28.23.84,0,4.76,0,6.99.26,13.71v6.43c0,3.64,0,6.15-.77,10.07-.77,3.92-2.31,6.99-5.9,6.99-4.62,0-8.21-8.67-8.21-18.46,0-4.2.77-8.39,1.28-14.54l.26-3.08ZM361.96,131.56c0-1.12.51-1.68,1.28-1.68.51,0,1.28.28,2.05,1.12,2.31,2.52,3.59,5.03,4.62,8.67,32.34-3.92,71.6-6.43,93.42-7.55,8.21-.28,7.44-1.96,12.06-1.96,3.08,0,6.16,2.8,10.27,7.27,3.34,3.64,5.9,6.15,7.44,8.95.26.56.51,1.12.51,1.68,0,1.4-1.8,2.8-3.59,3.64-6.16,3.08-10.52,5.03-21.56,8.11-1.8.56-3.08.84-4.11.84s-1.54-.56-1.54-1.12.26-1.12,1.03-2.24c2.57-3.64,6.16-10.63,6.16-11.75s-.51-1.68-2.05-1.68c-31.05.56-64.16,2.8-97.01,6.71,0,10.35-.51,19.3-3.85,26.01-1.8,3.92-4.11,5.59-6.16,5.59-1.03,0-2.31-.56-3.08-1.4-2.82-3.08-4.88-7.27-4.88-12.87,0-2.24.26-3.36,1.54-5.03,2.31-2.52,3.85-5.31,5.13-9.79,1.28-5.03,2.31-10.91,2.31-17.9v-3.64ZM382.23,216.86l.77,11.75c10.52-1.12,22.58-2.52,31.31-3.64v-15.1c-10.52,1.12-22.33,2.52-32.08,3.92v3.08ZM414.31,234.49c-10.27.84-20.27,2.24-30.54,3.64.51,6.15,1.28,14.82,1.54,18.46,9.5-1.4,19.25-2.52,29-3.36v-18.74ZM426.37,252.11c12.83-.84,22.33-1.4,31.31-1.68.51-4.2,1.03-8.67,1.54-12.87l.77-5.87c-11.04.28-22.33.56-33.36,1.68l-.26,18.74ZM426.89,223.58c5.39-.56,10.52-1.12,15.14-1.4,4.88-.28,7.7-2.24,10.01-2.24,3.34,0,6.16,1.68,8.73,3.64.51-5.03,1.03-9.23,1.28-12.59v-.56c0-3.08-1.54-3.92-3.85-3.92-10.52.56-20.79,1.12-31.05,2.24l-.26,14.82Z"/>
    <path d="M624.76,183.02c3.34-1.12,7.19-4.47,10.52-5.87,2.31-.84,4.36-1.4,6.42-1.4,2.57,0,5.13.84,8.21,2.52,3.08,1.68,4.88,3.92,4.88,5.87,0,2.24-1.28,4.2-4.88,5.32-11.55,4.2-23.87,8.95-36.19,12.87-10.01,38.88-23.87,92.58-37.73,141.53-1.54,5.59-4.62,9.23-8.47,9.23-3.59,0-6.16-2.8-7.7-7.83-.51-1.4-.77-2.8-.77-4.2,0-3.64,1.03-7.55,2.31-11.75,1.03-3.08,2.82-6.99,5.13-14.26,7.96-23.77,21.3-68.81,31.05-107.96-8.73,3.08-17.45,5.03-25.92,6.99-3.08.84-6.16,1.12-8.47,1.12-3.85,0-7.44-1.12-11.29-3.92-5.9-4.48-7.44-6.43-7.44-7.83,0-1.12.77-1.96,2.82-1.96,4.36,0,13.86-.84,20.02-1.96,10.78-1.96,22.84-5.32,34.13-8.39,2.05-8.95,3.59-17.62,4.88-24.89,1.03-6.15,1.54-11.75,1.54-16.78,0-4.48-.51-8.39-1.54-11.75-.26-.84-.51-1.68-.51-2.52,0-1.4,1.03-2.24,2.82-2.24,3.59,0,10.52,3.92,15.65,9.23,4.36,4.48,5.39,6.15,5.39,8.11,0,1.68-.77,3.08-2.05,4.2-1.8,1.4-3.34,4.75-4.62,10.35-1.28,5.87-3.08,12.87-5.13,20.98,2.57-1.12,4.88-1.96,6.93-2.8ZM701.24,242.6c-12.32,0-28.49,1.4-45.94,4.48-1.54.28-2.82.56-3.85.56-2.57,0-3.85-1.4-3.85-3.36,0-1.68,1.03-3.36,2.57-4.48,10.27-6.71,28.74-10.07,47.48-11.75,3.85-.28,7.19-.56,10.01-.56,9.24,0,15.4,1.4,19.51,3.92,4.88,2.52,6.42,5.87,6.42,8.95,0,3.64-2.05,6.43-6.16,7.55-3.34.84-5.9,1.68-8.98,2.8-5.39,1.68-8.21,3.36-12.32,5.87-1.8,1.12-3.34,1.68-3.85,1.68-1.54,0-2.57-1.4-2.57-2.8,0-.84.51-1.68,1.28-2.52,6.16-6.15,7.19-7.83,7.19-9.23,0-.56-.26-1.12-1.54-1.12h-5.39ZM650.43,313.64c-.26-.84-.26-1.4-.26-1.96,0-2.52,1.03-3.36,2.31-3.36.51,0,1.28.28,2.05,1.4,7.44,9.23,14.88,13.15,19.5,15.1,19.5,7.55,33.36,7.55,45.94,7.55,11.55,0,13.34,0,15.91,1.68,1.54,1.12,3.59,3.36,3.59,6.99,0,5.03-1.28,8.95-10.52,9.79-2.31.28-4.88.28-7.96.28-12.83,0-31.31-2.24-45.94-9.79-10.01-5.59-20.79-15.66-24.64-27.69ZM732.04,176.87c0,3.36-3.08,6.99-5.9,6.99-2.31,0-4.88-1.68-10.27-8.95-5.9-8.11-12.57-16.5-16.17-20.42-.77-.84-.77-1.12-.77-1.68,0-.84.51-1.68,1.54-1.68,2.57,0,13.35,3.08,21.81,9.79,6.42,5.03,9.75,11.19,9.75,15.94ZM751.03,155.61c0,5.03-2.31,8.39-6.16,8.39-2.82,0-4.62-2.52-10.01-8.39-5.9-6.99-12.32-14.27-17.19-19.02-.77-.84-1.03-1.12-1.03-1.68,0-.84.77-1.4,1.8-1.4,2.31,0,12.57,1.68,21.56,7.83,6.42,4.48,11.03,10.91,11.03,14.27Z"/>
    <path d="M963.02,280.92c0-18.74-10.01-36.64-35.16-36.64-28.23,0-57.49,14.54-83.92,43.63-5.65,6.15-9.24,12.87-12.06,16.5-1.03,1.4-2.57,2.24-4.36,2.24-1.54,0-3.34-.84-5.13-2.8-3.08-3.64-4.88-7.27-4.88-9.79,0-2.8,1.28-4.48,4.36-6.71,6.16-4.47,17.71-19.3,23.87-26.57,15.14-18.18,43.37-56.78,72.37-101.25-6.93,1.4-13.6,2.8-23.87,5.59-7.7,2.24-14.63,3.92-20.02,5.59-5.65,1.96-9.75,3.92-11.81,3.92-2.82,0-5.39-2.24-8.47-5.32-4.36-4.75-6.67-8.39-6.67-9.79s1.03-1.96,2.31-1.96c2.05,0,4.62.56,8.21.56,3.34,0,7.19-.28,12.06-1.12,10.78-1.96,24.12-4.76,43.37-9.79,4.36-1.12,8.47-2.8,10.52-4.2,1.54-1.12,4.11-4.2,5.9-4.2,2.82,0,6.16,1.12,8.98,3.08,3.85,2.8,6.16,5.03,6.16,7.55,0,2.8-3.85,6.99-6.93,11.19-12.32,16.5-30.28,40.28-49.79,65.73-5.65,7.27-9.75,13.71-19.76,23.77,22.58-11.75,35.67-16.78,59.03-16.78,31.05,0,54.15,21.26,54.15,53.98,0,30.49-28.23,66.29-75.96,66.29-28.74,0-39.52-11.75-39.52-22.09,0-11.19,12.06-22.94,28.74-22.94,13.09,0,20.02,5.31,26.95,10.63,3.34,2.52,8.47,7.83,13.09,13.43,16.17-8.11,28.23-27.41,28.23-51.74ZM906.3,325.11c-5.13-4.47-11.55-7.27-17.2-7.27-6.67,0-10.52,5.87-10.52,13.15,0,7.83,6.67,12.03,17.96,12.03,10.01,0,17.19-1.68,22.07-3.08-3.08-5.03-5.9-9.23-12.32-14.82Z"/>
    <path d="M1169.36,202.04c0,10.91.26,24.05.51,38.04,6.41-1.12,12.57-2.8,17.71-3.92,3.59-.84,8.47-2.8,11.81-5.03,1.8-1.12,4.62-1.68,7.19-1.68,1.02,0,2.05,0,3.08.28,6.16,1.4,10.27,5.32,10.27,8.95,0,2.8-1.8,5.32-6.67,6.71-13.6,3.36-27.72,6.43-43.11,8.67.25,17.34.51,34.68.51,47.83,0,4.2-.26,8.39-.51,12.03,17.19,5.31,35.41,12.59,49.53,18.18,9.75,3.92,11.04,8.11,11.04,12.31,0,5.31-3.08,8.67-7.44,8.67-2.82,0-12.06-5.03-24.64-10.63-9.24-4.2-20.02-9.23-31.57-13.71-1.54,5.03-3.6,8.67-4.88,10.63-6.42,9.79-22.07,17.34-37.73,17.34-20.27,0-39.27-15.66-39.27-25.45,0-15.66,23.87-26.57,40.81-26.57,8.47,0,18.73,1.96,30.03,5.03.77-8.39,1.03-18.46,1.03-24.33,0-8.39,0-18.18-.26-29.37-14.63,1.68-27.72,2.52-32.85,2.52-6.67,0-11.04-.28-16.94-3.64-5.65-3.36-10.26-8.95-10.26-11.47,0-1.96,1.03-2.8,2.57-2.8.51,0,1.28,0,2.31.56,5.65,2.8,11.04,3.64,17.96,3.64h2.82c11.55-.28,23.35-1.4,34.13-2.8-.51-16.5-.77-33.84-1.28-49.23-14.37,2.24-29.77,4.76-43.37,6.99-1.8.28-4.11.84-7.44,1.96-1.03.28-2.57.56-4.11.56-1.8,0-3.59-.28-5.65-1.4-5.13-2.8-8.98-7.55-8.98-9.51,0-1.12,1.28-1.68,3.85-2.24,19.76-3.91,43.37-7.55,65.44-10.63-.51-20.42.51-32.72-2.31-40.84-.51-1.4-.77-3.08-.77-4.76s.77-2.24,2.57-2.24c2.57,0,8.47,2.52,13.6,6.15,4.62,3.36,6.67,5.59,6.67,8.11,0,1.4-.77,3.08-1.54,5.03-2.05,6.71-3.34,15.94-3.59,26.85,8.72-.84,16.68-1.68,24.12-2.52,4.11-.28,7.44-1.12,10.26-1.96,1.54-.56,2.31-.56,3.34-.56,2.05,0,4.88.28,6.42.84,6.93,1.96,10.26,5.31,10.26,10.35,0,4.2-4.11,5.03-7.7,5.03-3.34,0-9.24.28-20.53.84-7.96.28-16.68,1.12-26.44,2.24v10.91ZM1134.21,317c-5.9-1.4-11.55-1.68-15.91-1.68-9.75,0-20.79,9.79-20.79,18.46,0,6.15,10.78,12.59,24.38,12.59s26.18-7.83,31.57-22.94c-7.44-3.08-14.11-5.31-19.25-6.43Z"/>
    <path d="M1421.13,310.56c0,5.59.26,14.26.26,25.45s-.51,17.9-2.82,20.98c-2.57,3.36-5.39,3.64-6.93,3.64-2.31,0-3.85-1.68-5.65-3.64-7.19-7.83-16.42-17.9-24.9-28.25-.77-.84-1.02-1.68-1.02-2.8,0-1.68,1.28-3.36,2.82-3.36.77,0,1.8.28,3.08.84,6.67,3.64,15.14,6.99,17.19,6.99,1.28,0,2.05-.84,2.05-3.64,0-36.92,0-74.4-.26-106.28-16.94,1.96-37.98,5.03-58.51,9.23-3.85.84-6.67,1.68-10.78,3.08-1.02.28-2.05.56-3.08.56-1.54,0-3.59-.84-5.13-2.52-4.11-3.92-7.96-9.23-7.96-10.91s1.02-2.52,2.82-2.8c2.83-.28,8.21-.84,14.63-1.68,6.16-.84,13.35-1.96,23.36-3.36,9.75-1.4,23.87-3.64,44.65-6.43,0-12.87-.26-24.61-.26-34.12,0-8.39-.77-21.26-3.34-26.85-1.02-1.96-1.8-3.92-1.8-5.32,0-2.24,2.31-3.36,4.36-3.36,2.82,0,9.5,2.52,14.89,6.15,6.67,4.48,7.95,6.71,7.95,9.51,0,1.68-.51,3.08-1.28,4.47-2.57,4.2-3.59,11.19-3.85,21.54-.26,5.87-.26,15.38-.51,26.01,14.89-1.68,30.54-3.36,42.09-4.47,5.39-.56,10.01-1.68,13.6-3.36,2.31-1.12,4.36-1.68,6.16-1.68,2.83,0,5.9.56,9.5,1.96,5.65,1.96,10.78,5.32,10.78,9.79,0,5.87-2.05,7.27-10.78,7.55-22.58.56-50.3,2.8-71.35,5.03v92.02ZM1358.77,252.67c1.29,0,2.57,1.4,3.08,3.36.51,2.24.77,4.47.77,6.71,0,11.47-5.65,25.73-15.14,41.12-4.62,7.27-10.01,14.54-15.14,14.54-3.59,0-6.67-5.59-6.67-13.42,0-4.48,2.56-7.83,6.16-11.75,8.47-9.51,18.22-20.7,22.84-36.08.51-2.24,1.54-4.48,4.1-4.48ZM1455.27,251.55c0-2.24,2.05-3.64,3.85-3.64.77,0,1.8.28,2.82.84,15.14,9.51,28.74,22.66,37.47,37.48,3.59,6.15,5.65,12.87,5.65,18.18s-2.56,10.91-7.95,10.91c-3.59,0-8.21-4.75-12.32-12.87-8.72-16.5-20.53-35.52-28.48-48.39-.77-1.12-1.02-1.96-1.02-2.52ZM1501.2,168.76c0,3.64-3.08,6.99-6.16,6.99-2.05,0-4.62-1.4-10.01-8.95-5.9-7.83-12.57-16.5-16.68-20.42-.51-.56-.51-.84-.51-1.4,0-.84.51-1.68,1.54-1.68,2.31,0,13.6,2.8,22.07,9.51,6.41,5.31,9.75,11.19,9.75,15.94ZM1519.94,147.5c0,5.03-2.05,8.67-5.9,8.67-2.82,0-4.87-2.8-10.01-8.67-5.9-6.99-12.32-14.27-17.2-18.74-.77-.84-1.02-1.4-1.02-1.96,0-.84.77-1.4,1.8-1.4,3.08,0,13.6,2.52,21.56,8.11,6.67,4.48,10.78,10.91,10.78,13.99Z"/>
    <path d="M1598.22,166.24c0-1.96,1.28-3.64,3.34-3.64.77,0,2.31.28,4.11.84,14.89,4.2,28.74,11.19,37.47,19.58,4.36,4.2,6.93,9.51,6.93,14.54,0,4.76-3.59,10.63-8.72,10.63-2.05,0-5.39-1.96-8.47-5.03-9.24-9.23-23.1-24.05-32.85-33.56-1.28-1.12-1.8-2.24-1.8-3.36ZM1603.1,316.44c1.8,0,6.16,2.24,9.5,2.24,3.08,0,5.65-1.12,8.21-2.52,22.58-12.87,46.19-29.09,67.75-47.27,24.63-20.7,49.02-45.03,67.24-67.41,1.28-1.68,2.82-2.24,4.11-2.24,2.31,0,3.85,1.68,3.85,4.2,0,.84-.25,1.96-.77,3.08-12.83,24.33-36.96,50.9-60.82,73-21.04,19.58-43.88,36.92-62.87,50.07-6.93,4.47-11.81,7.55-16.17,11.47-1.54,1.4-3.08,1.96-5.14,1.96-2.82,0-7.44-3.64-13.86-13.15-2.83-4.2-3.85-7.55-3.85-9.79,0-2.52,1.02-3.64,2.82-3.64Z"/>
    <path d="M1977.29,193.09c0-1.68-.26-2.24-2.57-2.24-34.65,2.24-72.88,7.27-93.42,10.63-6.41,1.12-16.68,3.36-19.76,3.36-2.05,0-3.34-.28-6.16-3.36-3.85-4.2-7.7-9.51-7.7-12.59,0-1.4,1.02-1.96,3.59-1.96,5.9,0,12.32-.28,21.04-1.12,28.74-2.8,67.5-7.55,93.67-10.35,3.59-.28,8.21-.84,10.01-1.96,1.29-.84,2.05-1.12,3.34-1.12,3.08,0,6.93,1.68,13.6,5.31,5.39,3.08,8.21,6.43,8.21,8.39s-1.03,4.76-2.05,6.71c-1.29,2.52-2.83,8.67-3.34,13.43-2.82,26.01-8.47,66.29-13.34,95.1,2.05.56,3.85,1.4,5.39,3.08,2.56,2.52,4.62,6.71,4.62,9.23,0,3.92-4.36,5.31-8.98,5.31h-10.01c-26.44,0-65.96,3.08-97.52,6.71-3.59.28-8.72,1.68-11.8,2.52-1.03.28-2.05.56-3.08.56-1.28,0-3.08-.56-5.13-2.52-5.65-5.03-9.24-9.79-9.24-12.03,0-1.12.51-1.96,2.57-1.96,4.87,0,8.21-.28,14.89-1.12,37.72-4.2,79.81-7.55,102.14-8.95,5.39-40.28,8.98-66.01,11.04-107.4v-1.68ZM2027.07,170.99c0,3.64-3.08,6.99-6.16,6.99-2.05,0-4.62-1.4-10.01-8.95-5.9-7.83-12.57-16.5-16.68-20.42-.51-.56-.51-.84-.51-1.4,0-.84.51-1.68,1.54-1.68,2.56,0,14.11,3.08,22.07,9.51,6.41,5.31,9.75,11.19,9.75,15.94ZM2045.81,149.74c0,5.03-2.05,8.67-5.9,8.67-2.82,0-4.87-2.8-10.01-8.67-5.9-6.99-12.32-14.27-17.2-18.74-.77-.84-1.02-1.4-1.02-1.96,0-.84.77-1.4,1.8-1.4,3.08,0,13.6,2.52,21.56,8.11,6.67,4.47,10.78,10.91,10.78,13.98Z"/>
    <path d="M2133.33,192.25c0-17.9-.77-27.41-5.13-38.32-.26-.56-.51-1.4-.51-2.24,0-2.24,1.29-4.2,3.34-4.2,2.31,0,14.12,5.03,20.79,10.91,2.31,2.24,3.34,4.48,3.34,7.27,0,1.4-.26,3.08-1.02,4.47-2.05,3.92-2.57,10.35-3.08,24.61-.77,24.89-1.54,70.48-1.8,124.74,52.36-23.77,85.97-54.82,116.77-88.94,1.28-1.4,2.82-2.24,4.1-2.24,1.8,0,3.34,1.68,3.34,3.64,0,1.12-.25,1.68-1.02,3.08-23.35,41.12-64.93,74.68-114.72,102.65-2.57,1.68-5.9,3.36-8.21,5.31-2.05,1.68-4.36,2.8-6.41,2.8-1.54,0-3.08-.56-4.36-1.96-7.19-9.23-8.47-13.71-8.47-16.22,0-1.12.26-2.8,1.02-3.92,1.03-1.68,1.29-4.48,1.29-11.19.51-28.25.77-66.57.77-95.38v-24.89Z"/>
    <path class="st1" d="M674.9,876.1c0,3.26-2.24,6.1-4.48,8.54-1.87,2.03-4.85,5.7-5.97,7.32-13.44,15.05-26.13,30.11-42.93,43.13-1.12.81-2.24,1.22-2.99,1.22-1.49,0-2.61-.81-2.61-2.44,0-1.22.37-2.44,1.49-4.07,10.45-12.61,21.65-32.96,28.37-49.63,2.24-6.1,3.73-10.99,3.73-16.27,0-1.22-.37-3.66-.37-6.1,0-2.85,1.49-4.47,3.73-4.47,3.73,0,15.68,9.76,20.16,17.9,1.49,2.44,1.87,3.66,1.87,4.88ZM684.24,627.53c0-4.48,1.12-7.73,3.73-7.73,3.36,0,16.05,7.73,22.02,14.65,1.87,2.03,2.99,4.47,2.99,6.92,0,2.04-.75,4.48-2.61,7.33-2.24,3.25-4.85,7.73-5.6,9.36-13.44,24-31.36,53.3-47.41,72.42,13.81,8.14,22.77,14.24,33.6,23.19,9.71-14.24,17.54-26.44,23.52-38.24,8.96-17.09,11.2-25.22,11.57-37.02.37-4.88,1.12-6.92,2.99-6.92,3.73,0,19.41,8.95,25.38,16.68,1.87,2.44,2.24,3.66,2.24,4.88,0,2.44-1.49,4.47-3.36,6.1-2.24,2.03-4.48,5.7-8.59,11.39-25.76,34.58-53.38,69.98-80.26,100.08,22.02-4.88,48.9-10.98,72.79-16.68-4.48-7.32-7.47-12.61-11.2-19.12-.75-1.22-1.12-2.44-1.12-3.66s.75-2.04,2.61-2.04,12.69,5.7,21.28,12.61c10.83,8.95,17.17,19.12,17.17,27.67,0,6.51-4.48,10.58-8.96,10.58-2.61,0-5.6-1.63-8.21-5.29-2.24-3.26-4.48-6.92-6.35-10.99-11.95,4.88-24.26,8.95-36.21,13.43,1.49,1.22,2.61,2.44,4.11,4.07,2.24,2.44,2.61,4.07,2.61,6.92,0,1.63,0,2.85-.37,7.32-.37,18.31-1.12,50.45-1.12,100.08,0,7.33,0,13.83-.37,22.38,0,10.17-2.99,15.05-10.08,15.05-4.85,0-7.47-4.07-9.71-9.76-2.24-6.1-3.73-12.21-3.73-16.27,0-7.32,2.24-12.2,2.61-18.72,1.12-15.87,1.87-41.5,2.61-61.84,0-20.34,0-27.66-.37-33.36,0-2.44,0-6.51-.37-10.58-11.2,4.07-21.28,8.14-29.12,11.8-2.99,1.22-10.08,3.66-14.93,6.1-.75.41-2.24.81-3.73.81-2.24,0-4.85-.81-6.35-4.48-2.24-4.88-5.97-14.65-5.97-19.12,0-3.26,1.87-4.88,7.84-6.1,5.23-.81,11.2-3.26,16.05-9.76,10.08-13.02,19.04-24.82,26.5-35.4-12.32-6.92-23.89-11.8-28.37-13.42-4.85-2.04-8.96-3.26-11.95-3.66-2.61-.41-6.35-2.44-6.35-13.02,0-8.95,1.49-11.8,5.97-13.43,4.85-1.63,7.84-4.47,11.2-9.76,11.95-18.72,22.77-45.16,29.49-66.32,1.49-5.29,1.87-10.17,1.87-14.24v-4.88ZM729.4,842.74c0-1.22.75-2.03,2.24-2.03,3.36,0,14.93,8.14,20.9,15.05,7.84,8.54,11.95,17.9,11.95,26.04,0,5.7-2.61,12.61-8.59,12.61-2.99,0-7.47-2.03-10.08-7.73-5.97-12.61-9.71-27.66-15.68-40.68-.37-.81-.75-2.44-.75-3.26ZM860.8,741.85c3.36,2.03,5.97,5.29,5.97,8.14,0,4.47-1.12,7.32-2.24,10.58-1.49,4.88-2.24,12.2-2.61,26.04-.75,27.66-1.49,59.81-2.24,114.73,19.41-1.22,36.21-1.22,50.39-1.63,5.97,0,8.96-.81,14.18-2.44,5.23-1.63,7.84-2.03,10.45-2.03,2.99,0,11.57,2.85,18.66,8.54,5.23,4.47,7.47,9.36,7.47,11.8,0,4.88-2.24,7.32-10.45,7.32-5.97,0-21.28-2.03-50.39-2.03-10.83,0-22.77.41-34.72.81-29.12,1.22-55.25,3.25-91.08,9.36-1.87.41-3.73.81-5.97.81-1.87,0-3.36-.41-6.72-4.07-7.09-7.73-10.08-12.61-10.08-13.83,0-1.63.75-2.85,3.36-3.26,27.25-2.85,55.99-5.29,84.36-7.73.37-48.82.37-83.4.37-113.51,0-18.31-.37-28.07-1.12-33.77-.75-4.88-1.87-11.39-4.48-18.31-31.36,3.66-42.93,4.88-51.14,6.1-1.87.41-2.61.41-3.73.41-.75,0-1.87-.81-3.36-2.44-4.85-5.29-8.96-14.24-8.96-15.46,0-1.63,1.49-2.03,2.99-2.44,12.69-.41,22.02-1.63,30.24-2.44,22.4-2.44,66.07-6.51,90.71-9.76,5.97-.81,9.71-2.85,11.95-4.07,3.36-2.03,9.33-3.26,11.2-3.26,2.99,0,8.21,1.63,11.95,4.07,6.72,3.66,11.2,7.73,11.2,10.99,0,6.92-2.24,10.58-15.3,11.39-23.52,1.22-50.39,3.66-73.54,5.7,4.85,1.63,9.33,3.66,12.69,5.7Z"/>
    <path class="st2" d="M1186.7,797.58c0,17.9-11.95,30.92-28.37,30.92s-28.37-13.02-28.37-30.92,11.95-30.92,28.37-30.92,28.37,13.02,28.37,30.92Z"/>
    <path class="st3" d="M1451.37,946.89c0,9.76-4.85,14.65-9.7,14.65-3.74,0-7.47-2.44-9.71-7.73-4.11-8.95-5.97-15.87-5.97-21.97,0-1.22,0-2.44.37-3.66.75-3.26,1.12-7.32,1.12-11.8,0-5.7-.37-11.8-1.12-19.53-1.87-34.58-5.22-81.37-8.96-120.83-2.61-26.85-5.22-37.43-9.33-45.57-.74-1.22-1.12-3.26-1.12-4.47,0-2.85,1.49-4.88,4.48-4.88,3.36,0,13.07,5.29,21.28,10.58,8.21-.81,16.42-1.22,24.63-2.04,17.55-24.82,33.97-50.85,41.44-68.75,8.59-18.72,9.7-25.22,9.7-31.73,0-2.03-.37-5.29-.37-7.73,0-4.07,1.49-5.7,4.11-5.7s12.69,5.7,19.41,12.61c6.72,6.1,8.96,8.95,8.96,13.02s-2.61,8.14-5.6,12.61c-2.99,4.47-10.08,14.24-23.52,31.33-10.08,12.61-24.63,30.1-38.82,43.12,46.29-4.07,93.7-7.32,126.92-9.36,8.21-.41,14.56-1.22,20.53-4.88,2.24-1.63,4.11-2.44,7.09-2.44s8.96,3.26,17.92,11.8c8.21,8.14,13.44,15.46,13.44,19.53,0,2.44-1.12,5.29-3.74,8.54-2.99,4.47-4.48,11.8-5.6,28.07-3.74,59.4-8.96,119.2-14.93,160.3-1.49,10.98-5.6,16.68-10.83,16.68-4.1,0-8.96-3.66-13.44-12.2-1.12-2.44-1.87-4.47-2.61-6.51-51.89,1.22-109.38,3.26-156.04,6.51v2.44ZM1440.18,753.65c1.49,21.16,2.99,44.75,4.48,69.57,55.25-4.07,107.88-8.14,143.72-10.58,4.48-.41,7.84-3.26,11.2-3.26,4.86,0,10.83,1.63,21.28,6.92,1.49-23.6,3.36-61.02,3.36-67.94,0-8.14-1.49-9.36-5.97-9.36-48.53,2.44-129.53,7.73-178.06,12.2v2.44ZM1612.26,915.57c2.61-17.09,5.22-44.75,7.47-81.37-57.86.41-116.09,3.26-173.95,8.54,2.24,41.09,3.74,61.03,4.48,81.37,47.78-2.85,107.51-5.29,161.64-6.51l.37-2.03Z"/>
  </g>
  <rect class="st0" x="426.04" y="835.84" width="55.02" height="0"/>
  <rect class="st0" x="427.08" y="856.67" width="46.88" height="0"/>
</svg>