<?xml version="1.0" encoding="UTF-8"?>
<svg id="_レイヤー_1" data-name="レイヤー_1" xmlns="http://www.w3.org/2000/svg" version="1.1" viewBox="0 0 1024 461.46">
  <!-- Generator: Adobe Illustrator 29.8.1, SVG Export Plug-In . SVG Version: 2.1.1 Build 2)  -->
  <defs>
    <style>
      .st0 {
        fill: none;
      }

      .st1 {
        fill: #ff3109;
      }

      .st1, .st2, .st3 {
        stroke: #000;
        stroke-miterlimit: 10;
        stroke-width: 2px;
      }

      .st3 {
        fill: #fff;
      }
    </style>
  </defs>
  <g>
    <path d="M39.69,161.59c-.33,5.61-1.75,7.59-3.27,7.59-1.96,0-3.82-3.96-3.82-6.6s.65-6.05.87-11.77c1.09-20.46,1.09-41.91,1.09-58.85,0-6.05-.55-9.35-1.31-12.1-.22-.66-.33-1.1-.33-1.32,0-.66.55-.99.98-.99,1.2,0,4.58,1.87,5.89,2.75,6.11-.55,13.2-.99,18.55-1.43,2.51-.22,2.84-1.32,4.04-1.32s2.84.88,4.15,1.87c1.96,1.32,3.27,2.64,3.27,3.63,0,.77-.44,1.54-.76,2.09-.55.99-.98,1.98-.98,3.74-.11,2.97-.11,11.77-.22,16.83-.11,4.07-1.31,5.28-3.16,5.28-1.09,0-2.73-1.1-3.05-3.41-7.09.33-14.07.88-21.06,1.65-.33,21.34-.76,49.17-.87,52.36ZM62.05,94.71c-7.09.33-14.29.88-21.27,1.65-.11,2.86-.11,5.72-.22,8.58,7.2-.66,14.29-1.32,21.49-1.87v-8.36ZM61.94,83.27c0-.33-.33-.55-.65-.55-5.67.11-13.42.66-20.4,1.54,0,.77,0,3.74-.11,8.03,7.09-.66,14.18-1.32,21.17-1.76v-7.26ZM63.14,128.92c-.11-2.97-.22-5.28-.76-6.93-1.09.11-3.38.33-5.02.55-.76.11-1.09.11-1.53.11-.76,0-1.31-.22-1.96-.88-1.31-1.21-2.29-2.53-2.29-3.08,0-.33.33-.55.98-.55,1.53-.11,4.58-.33,6.33-.44,4.91-.22,15.49-1.21,24.22-1.87,2.62-.22,4.25-.44,6.55-1.32.76-.33,1.53-.55,2.29-.55.87,0,1.85.22,3.16.77,1.75.66,3.49,1.98,3.49,3.19,0,1.43-.76,1.87-2.84,1.87-2.95,0-6.11.22-9.38.33,1.53,1.43,1.85,2.09,1.85,2.97,0,1.21-.65,2.31-.65,4.51v4.18c1.53-.22,2.84-.22,3.93-.33,1.42-.11,3.05-.44,4.04-.77.55-.22,1.2-.55,1.96-.55.87,0,2.62.66,4.47,1.87,1.09.66,2.07,1.65,2.07,2.64,0,.88-.87,1.65-2.4,1.65h-5.02c-2.62,0-5.78,0-9.16.22,0,7.37,0,15.84.11,22,0,3.3-.76,5.61-2.62,5.61s-3.82-3.41-3.82-6.6c0-1.65.65-2.86.65-4.4.11-5.06.22-11,.22-16.39-4.47.33-9.06.66-13.53.99-.55,4.07-1.42,7.26-2.51,10.01-2.62,6.6-6.44,11.11-11.56,14.85-.33.22-.65.33-.87.33-.44,0-.87-.33-.87-.88,0-.22.11-.55.33-.77,4.15-4.95,6.55-9.46,8.29-15.4.65-1.98,1.2-4.62,1.53-7.7-3.49.33-6.87.66-10.04.99-.65.11-.87.11-1.2.11-.44,0-.87-.11-1.42-.55-2.18-1.76-2.95-2.86-2.95-3.3s.33-.55.76-.55c3.93-.22,9.27-.66,15.17-1.1v-4.84ZM81.91,128.37c0-3.41-.11-5.94-.55-7.92-4.47.22-10.26.77-13.64.99,1.42.88,1.96,1.87,1.96,2.64,0,1.54-.65,2.42-.65,4.29,0,1.76-.11,3.3-.22,4.84l13.09-.99v-3.85ZM87.15,107.91c0,2.2-.87,3.3-2.62,3.3-1.85,0-3.71-3.3-3.71-6.38,0-1.32.65-2.97.65-7.59,0-4.18,0-11.66-.22-14.3-.22-2.64-.65-4.18-.98-5.06-.22-.44-.33-.77-.33-1.1,0-.55.33-.99.98-.99.98,0,3.27,1.21,5.02,2.42,8.07-.66,15.38-.99,21.06-1.43,1.42-.11,2.84-1.54,3.71-1.54,1.42,0,3.27,1.1,5.35,2.86,1.31,1.21,3.05,2.86,3.05,3.96s-.44,1.65-1.09,2.64c-.65.99-1.09,2.2-1.09,5.28,0,20.13.22,43.89.65,66.22,0,5.5-.55,9.24-1.64,11.44-1.2,2.53-1.85,3.08-2.95,3.08-1.96,0-4.47-2.2-7.09-4.73-1.96-1.87-4.15-4.29-6-6.71-.33-.44-.55-.77-.55-.99,0-.33.22-.55.65-.55.87,0,6.11,1.65,8.95,1.65,1.42,0,1.75-.77,1.75-2.31,0-18.04-.11-34.32-.11-50.71-7.85.11-17.56.88-23.46,1.54ZM110.49,93.17c-7.75.22-15.6.66-23.24,1.32-.11,3.08-.11,6.16-.11,9.24,7.75-.77,15.6-1.43,23.35-1.76v-8.8ZM110.49,81.4c0-.33-.22-.55-.44-.55-7.2.22-15.27.66-22.69,1.43-.11,1.87-.11,3.74-.11,5.61v2.64c7.64-.66,15.49-1.32,23.24-1.76v-7.37Z"/>
    <path d="M151.41,148.39c3.6,0,8.29.55,10.47.99,7.86,1.43,34.58,6.93,39.17,8.03,4.58.99,14.73,2.53,20.62,2.97,4.47.33,10.26.99,13.42,1.1,1.31.11,2.07.55,2.07.99s-.44.99-1.53,1.54c-4.36,2.31-10.8,5.17-14.95,5.72-.76.11-1.75.22-2.84.22-1.42,0-3.06-.22-4.58-.77-3.82-1.43-14.18-4.51-19.64-6.27-11.78-3.85-27.93-8.47-36.55-9.35-2.07-.22-4.91-.33-7.42-.33-3.71,0-5.78.22-7.96,1.43-.98.55-1.96.88-2.62.88-.44,0-.76-.11-.98-.33-1.09-.99-2.07-1.98-2.4-3.19-.22-.77-.44-1.54-.44-2.2,0-.88.44-1.54,1.75-1.54.98,0,2.07.11,3.16.11.87,0,1.85-.11,2.73-.33,4.15-1.1,8.07-4.07,11.35-7.48.55-.55.76-1.1.76-1.43,0-.55-.44-1.1-.98-1.65-.98-1.1-2.84-4.07-4.04-6.82-.33-.88-.55-1.87-.55-2.86,0-.77.11-1.43.33-1.98,1.2-3.19,2.18-5.5,2.95-7.92-2.4.77-6.66,2.31-9.27,3.41-.55.22-1.2.66-1.96.66-.22,0-.55-.11-.87-.33-2.29-1.54-3.27-2.75-3.27-3.74,0-.33.22-.55.87-.66,1.42-.11,8.95-2.53,13.42-3.96,2.62-.88,2.4-2.31,3.71-2.53h.22c1.75,0,4.47,1.43,5.78,2.75.44.44.76.88.76,1.43,0,.44-.22.88-.65,1.43-2.84,3.3-5.67,7.15-7.2,9.57-.55.77-.76,1.32-.76,1.76s.22.99.87,1.65c3.16,3.08,6.87,6.38,7.86,9.13.22.55.33,1.1.33,1.54,0,.99-.55,1.65-1.31,2.31-3.38,2.97-6.87,4.29-11.24,6.05h1.42ZM158.28,95.92c-1.53,0-4.36-1.98-6.87-4.84-3.71-4.18-6.76-8.58-6.76-9.46,0-.33.22-.44.55-.44.55,0,5.56,1.76,8.4,3.19,4.36,2.09,7.53,5.5,7.53,8.69,0,1.65-.87,2.86-2.84,2.86ZM195.27,140.03c-7.64.66-15.82,1.65-20.95,2.53-.65.11-1.42.22-1.75.22s-.87-.11-1.42-.66c-1.64-1.54-3.16-3.3-3.16-3.85,0-.33.22-.44.55-.44,8.84-.66,17.24-1.54,26.84-2.2.11-2.64.22-5.28.22-7.81-3.38.22-7.53.66-12.22,1.32-.22,1.43-1.2,2.09-2.4,2.09-.65,0-1.09-.22-1.31-.44-1.09-1.1-1.42-3.19-1.64-6.05-.44-5.17-1.09-10.89-1.53-13.86-.33-1.87-.98-4.07-1.96-6.05-.33-.66-.44-1.1-.44-1.54s.33-.77.87-.77c1.09,0,2.95.66,5.02,1.65,2.84-.22,9.82-.99,15.71-1.43v-7.04c-3.93.33-7.53.77-10.8,1.32-.76.11-1.31.22-1.53.22-.44,0-.65-.11-1.09-.44-1.75-1.65-3.16-2.97-3.16-3.74,0-.33.55-.55,1.53-.55,2.62-.11,4.8-.22,7.31-.44,2.84-.33,6.11-.55,7.75-.66v-.55c0-1.76-.22-3.41-.98-4.95-.11-.33-.22-.55-.22-.77,0-.55.33-.88.98-.88.76,0,2.62.55,4.47,1.32,1.64.77,2.73,1.43,2.73,2.2,0,.66-.44,1.32-.65,1.98-.11.33-.22.66-.33,1.21,1.42-.11,3.27-.22,5.02-.44,1.75-.11,3.82-.77,4.69-1.21.76-.33,1.2-.44,1.75-.44.87,0,1.85.33,3.16.88,2.07.88,3.49,2.31,3.49,3.19,0,1.32-1.2,1.76-2.95,1.76-5.24.11-10.47.22-15.49.55,0,1.43-.11,5.06-.11,6.93,3.93-.33,7.31-.55,9.82-.77,1.64-.11,2.62-.22,3.71-.88.44-.22.87-.33,1.31-.33.65,0,1.31.22,1.96.55,1.96,1.21,3.38,2.09,4.47,3.19.65.66.87,1.32.87,1.98,0,.55-.22,1.21-.76,1.98-.65.99-.98,1.98-1.53,4.95-.98,5.06-2.07,11.11-2.62,13.2-.55,2.2-1.64,3.52-3.05,3.52-1.31,0-2.4-.55-2.73-2.53-5.56,0-9.06.22-11.89.33-.11,2.86-.11,5.5-.11,7.81,8.29-.55,12.66-.77,15.93-.99,1.53-.11,2.95-.33,3.82-.66.65-.22,1.42-.33,2.4-.33,1.64,0,4.25,1.43,5.46,2.64.76.77,1.09,1.32,1.09,2.31,0,1.21-.65,1.54-2.62,1.54-.65,0-1.09,0-2.18-.11-3.05-.22-7.2-.33-11.78-.33-3.93,0-8.07.11-12,.33,0,1.87,0,2.75.11,5.39v2.53c0,1.43,0,2.42-.33,3.96-.33,1.54-.98,2.75-2.51,2.75-1.96,0-3.49-3.41-3.49-7.26,0-1.65.33-3.3.55-5.72l.11-1.21ZM173.45,76.01c0-.44.22-.66.55-.66.22,0,.55.11.87.44.98.99,1.53,1.98,1.96,3.41,13.75-1.54,30.44-2.53,39.71-2.97,3.49-.11,3.16-.77,5.13-.77,1.31,0,2.62,1.1,4.36,2.86,1.42,1.43,2.51,2.42,3.16,3.52.11.22.22.44.22.66,0,.55-.76,1.1-1.53,1.43-2.62,1.21-4.47,1.98-9.16,3.19-.76.22-1.31.33-1.75.33s-.65-.22-.65-.44.11-.44.44-.88c1.09-1.43,2.62-4.18,2.62-4.62s-.22-.66-.87-.66c-13.2.22-27.27,1.1-41.24,2.64,0,4.07-.22,7.59-1.64,10.23-.76,1.54-1.75,2.2-2.62,2.2-.44,0-.98-.22-1.31-.55-1.2-1.21-2.07-2.86-2.07-5.06,0-.88.11-1.32.65-1.98.98-.99,1.64-2.09,2.18-3.85.55-1.98.98-4.29.98-7.04v-1.43ZM182.07,109.56l.33,4.62c4.47-.44,9.6-.99,13.31-1.43v-5.94c-4.47.44-9.49.99-13.64,1.54v1.21ZM195.7,116.49c-4.36.33-8.62.88-12.98,1.43.22,2.42.55,5.83.65,7.26,4.04-.55,8.18-.99,12.33-1.32v-7.37ZM200.83,123.42c5.46-.33,9.49-.55,13.31-.66.22-1.65.44-3.41.65-5.06l.33-2.31c-4.69.11-9.49.22-14.18.66l-.11,7.37ZM201.05,112.2c2.29-.22,4.47-.44,6.44-.55,2.07-.11,3.27-.88,4.25-.88,1.42,0,2.62.66,3.71,1.43.22-1.98.44-3.63.55-4.95v-.22c0-1.21-.65-1.54-1.64-1.54-4.47.22-8.84.44-13.2.88l-.11,5.83Z"/>
    <path d="M285.17,96.25c1.42-.44,3.05-1.76,4.47-2.31.98-.33,1.85-.55,2.73-.55,1.09,0,2.18.33,3.49.99,1.31.66,2.07,1.54,2.07,2.31,0,.88-.55,1.65-2.07,2.09-4.91,1.65-10.15,3.52-15.38,5.06-4.25,15.29-10.15,36.41-16.04,55.66-.65,2.2-1.96,3.63-3.6,3.63-1.53,0-2.62-1.1-3.27-3.08-.22-.55-.33-1.1-.33-1.65,0-1.43.44-2.97.98-4.62.44-1.21,1.2-2.75,2.18-5.61,3.38-9.35,9.06-27.06,13.2-42.46-3.71,1.21-7.42,1.98-11.02,2.75-1.31.33-2.62.44-3.6.44-1.64,0-3.16-.44-4.8-1.54-2.51-1.76-3.16-2.53-3.16-3.08,0-.44.33-.77,1.2-.77,1.85,0,5.89-.33,8.51-.77,4.58-.77,9.71-2.09,14.51-3.3.87-3.52,1.53-6.93,2.07-9.79.44-2.42.65-4.62.65-6.6,0-1.76-.22-3.3-.65-4.62-.11-.33-.22-.66-.22-.99,0-.55.44-.88,1.2-.88,1.53,0,4.47,1.54,6.65,3.63,1.85,1.76,2.29,2.42,2.29,3.19,0,.66-.33,1.21-.87,1.65-.76.55-1.42,1.87-1.96,4.07-.55,2.31-1.31,5.06-2.18,8.25,1.09-.44,2.07-.77,2.95-1.1ZM317.68,119.68c-5.24,0-12.11.55-19.53,1.76-.65.11-1.2.22-1.64.22-1.09,0-1.64-.55-1.64-1.32,0-.66.44-1.32,1.09-1.76,4.36-2.64,12.22-3.96,20.18-4.62,1.64-.11,3.06-.22,4.25-.22,3.93,0,6.55.55,8.29,1.54,2.07.99,2.73,2.31,2.73,3.52,0,1.43-.87,2.53-2.62,2.97-1.42.33-2.51.66-3.82,1.1-2.29.66-3.49,1.32-5.24,2.31-.76.44-1.42.66-1.64.66-.65,0-1.09-.55-1.09-1.1,0-.33.22-.66.55-.99,2.62-2.42,3.05-3.08,3.05-3.63,0-.22-.11-.44-.65-.44h-2.29ZM296.08,147.62c-.11-.33-.11-.55-.11-.77,0-.99.44-1.32.98-1.32.22,0,.55.11.87.55,3.16,3.63,6.33,5.17,8.29,5.94,8.29,2.97,14.18,2.97,19.53,2.97,4.91,0,5.67,0,6.76.66.65.44,1.53,1.32,1.53,2.75,0,1.98-.55,3.52-4.47,3.85-.98.11-2.07.11-3.38.11-5.46,0-13.31-.88-19.53-3.85-4.25-2.2-8.84-6.16-10.47-10.89ZM330.77,93.83c0,1.32-1.31,2.75-2.51,2.75-.98,0-2.07-.66-4.36-3.52-2.51-3.19-5.35-6.49-6.87-8.03-.33-.33-.33-.44-.33-.66,0-.33.22-.66.65-.66,1.09,0,5.67,1.21,9.27,3.85,2.73,1.98,4.15,4.4,4.15,6.27ZM338.85,85.47c0,1.98-.98,3.3-2.62,3.3-1.2,0-1.96-.99-4.25-3.3-2.51-2.75-5.24-5.61-7.31-7.48-.33-.33-.44-.44-.44-.66,0-.33.33-.55.76-.55.98,0,5.35.66,9.16,3.08,2.73,1.76,4.69,4.29,4.69,5.61Z"/>
    <path d="M428.97,134.75c0-7.37-4.25-14.41-14.95-14.41-12,0-24.44,5.72-35.68,17.16-2.4,2.42-3.93,5.06-5.13,6.49-.44.55-1.09.88-1.85.88-.65,0-1.42-.33-2.18-1.1-1.31-1.43-2.07-2.86-2.07-3.85,0-1.1.55-1.76,1.85-2.64,2.62-1.76,7.53-7.59,10.15-10.45,6.44-7.15,18.44-22.33,30.77-39.82-2.95.55-5.78,1.1-10.15,2.2-3.27.88-6.22,1.54-8.51,2.2-2.4.77-4.15,1.54-5.02,1.54-1.2,0-2.29-.88-3.6-2.09-1.85-1.87-2.84-3.3-2.84-3.85s.44-.77.98-.77c.87,0,1.96.22,3.49.22,1.42,0,3.05-.11,5.13-.44,4.58-.77,10.26-1.87,18.44-3.85,1.85-.44,3.6-1.1,4.47-1.65.65-.44,1.75-1.65,2.51-1.65,1.2,0,2.62.44,3.82,1.21,1.64,1.1,2.62,1.98,2.62,2.97,0,1.1-1.64,2.75-2.95,4.4-5.24,6.49-12.87,15.84-21.17,25.85-2.4,2.86-4.15,5.39-8.4,9.35,9.6-4.62,15.17-6.6,25.09-6.6,13.2,0,23.02,8.36,23.02,21.23,0,11.99-12,26.07-32.29,26.07-12.22,0-16.8-4.62-16.8-8.69,0-4.4,5.13-9.02,12.22-9.02,5.56,0,8.51,2.09,11.46,4.18,1.42.99,3.6,3.08,5.56,5.28,6.87-3.19,12-10.78,12-20.35ZM404.86,152.13c-2.18-1.76-4.91-2.86-7.31-2.86-2.84,0-4.47,2.31-4.47,5.17,0,3.08,2.84,4.73,7.64,4.73,4.25,0,7.31-.66,9.38-1.21-1.31-1.98-2.51-3.63-5.24-5.83Z"/>
    <path d="M516.69,103.73c0,4.29.11,9.46.22,14.96,2.73-.44,5.35-1.1,7.53-1.54,1.53-.33,3.6-1.1,5.02-1.98.76-.44,1.96-.66,3.05-.66.44,0,.87,0,1.31.11,2.62.55,4.36,2.09,4.36,3.52,0,1.1-.76,2.09-2.84,2.64-5.78,1.32-11.78,2.53-18.33,3.41.11,6.82.22,13.64.22,18.81,0,1.65-.11,3.3-.22,4.73,7.31,2.09,15.05,4.95,21.06,7.15,4.15,1.54,4.69,3.19,4.69,4.84,0,2.09-1.31,3.41-3.16,3.41-1.2,0-5.13-1.98-10.47-4.18-3.93-1.65-8.51-3.63-13.42-5.39-.66,1.98-1.53,3.41-2.07,4.18-2.73,3.85-9.38,6.82-16.04,6.82-8.62,0-16.69-6.16-16.69-10.01,0-6.16,10.15-10.45,17.35-10.45,3.6,0,7.96.77,12.76,1.98.33-3.3.44-7.26.44-9.57,0-3.3,0-7.15-.11-11.55-6.22.66-11.78.99-13.96.99-2.84,0-4.69-.11-7.2-1.43-2.4-1.32-4.36-3.52-4.36-4.51,0-.77.44-1.1,1.09-1.1.22,0,.55,0,.98.22,2.4,1.1,4.69,1.43,7.64,1.43h1.2c4.91-.11,9.93-.55,14.51-1.1-.22-6.49-.33-13.31-.55-19.36-6.11.88-12.66,1.87-18.44,2.75-.76.11-1.75.33-3.16.77-.44.11-1.09.22-1.75.22-.76,0-1.53-.11-2.4-.55-2.18-1.1-3.82-2.97-3.82-3.74,0-.44.55-.66,1.64-.88,8.4-1.54,18.44-2.97,27.82-4.18-.22-8.03.22-12.87-.98-16.06-.22-.55-.33-1.21-.33-1.87s.33-.88,1.09-.88c1.09,0,3.6.99,5.78,2.42,1.96,1.32,2.84,2.2,2.84,3.19,0,.55-.33,1.21-.65,1.98-.87,2.64-1.42,6.27-1.53,10.56,3.71-.33,7.09-.66,10.26-.99,1.75-.11,3.16-.44,4.36-.77.65-.22.98-.22,1.42-.22.87,0,2.07.11,2.73.33,2.95.77,4.36,2.09,4.36,4.07,0,1.65-1.75,1.98-3.27,1.98-1.42,0-3.93.11-8.73.33-3.38.11-7.09.44-11.24.88v4.29ZM501.74,148.94c-2.51-.55-4.91-.66-6.76-.66-4.15,0-8.84,3.85-8.84,7.26,0,2.42,4.58,4.95,10.36,4.95s11.13-3.08,13.42-9.02c-3.16-1.21-6-2.09-8.18-2.53Z"/>
    <path d="M623.72,146.41c0,2.2.11,5.61.11,10.01s-.22,7.04-1.2,8.25c-1.09,1.32-2.29,1.43-2.95,1.43-.98,0-1.64-.66-2.4-1.43-3.05-3.08-6.98-7.04-10.58-11.11-.33-.33-.44-.66-.44-1.1,0-.66.54-1.32,1.2-1.32.33,0,.76.11,1.31.33,2.84,1.43,6.44,2.75,7.31,2.75.54,0,.87-.33.87-1.43,0-14.52,0-29.26-.11-41.8-7.2.77-16.15,1.98-24.88,3.63-1.64.33-2.84.66-4.58,1.21-.44.11-.87.22-1.31.22-.65,0-1.53-.33-2.18-.99-1.75-1.54-3.38-3.63-3.38-4.29s.44-.99,1.2-1.1c1.2-.11,3.49-.33,6.22-.66,2.62-.33,5.67-.77,9.93-1.32,4.14-.55,10.15-1.43,18.98-2.53,0-5.06-.11-9.68-.11-13.42,0-3.3-.33-8.36-1.42-10.56-.44-.77-.76-1.54-.76-2.09,0-.88.98-1.32,1.86-1.32,1.2,0,4.04.99,6.33,2.42,2.84,1.76,3.38,2.64,3.38,3.74,0,.66-.22,1.21-.54,1.76-1.09,1.65-1.53,4.4-1.64,8.47-.11,2.31-.11,6.05-.22,10.23,6.33-.66,12.98-1.32,17.89-1.76,2.29-.22,4.26-.66,5.78-1.32.98-.44,1.85-.66,2.62-.66,1.2,0,2.51.22,4.04.77,2.4.77,4.58,2.09,4.58,3.85,0,2.31-.87,2.86-4.58,2.97-9.6.22-21.38,1.1-30.33,1.98v36.19ZM597.21,123.64c.55,0,1.09.55,1.31,1.32.22.88.33,1.76.33,2.64,0,4.51-2.4,10.12-6.44,16.17-1.96,2.86-4.26,5.72-6.44,5.72-1.53,0-2.84-2.2-2.84-5.28,0-1.76,1.09-3.08,2.62-4.62,3.6-3.74,7.75-8.14,9.71-14.19.22-.88.65-1.76,1.74-1.76ZM638.23,123.2c0-.88.87-1.43,1.64-1.43.33,0,.76.11,1.2.33,6.44,3.74,12.22,8.91,15.93,14.74,1.53,2.42,2.4,5.06,2.4,7.15s-1.09,4.29-3.38,4.29c-1.53,0-3.49-1.87-5.24-5.06-3.71-6.49-8.73-13.97-12.11-19.03-.33-.44-.44-.77-.44-.99ZM657.76,90.64c0,1.43-1.31,2.75-2.62,2.75-.87,0-1.96-.55-4.26-3.52-2.51-3.08-5.35-6.49-7.09-8.03-.22-.22-.22-.33-.22-.55,0-.33.22-.66.65-.66.98,0,5.78,1.1,9.38,3.74,2.73,2.09,4.14,4.4,4.14,6.27ZM665.72,82.28c0,1.98-.87,3.41-2.51,3.41-1.2,0-2.07-1.1-4.25-3.41-2.51-2.75-5.24-5.61-7.31-7.37-.33-.33-.44-.55-.44-.77,0-.33.33-.55.76-.55,1.31,0,5.78.99,9.16,3.19,2.84,1.76,4.58,4.29,4.58,5.5Z"/>
    <path d="M699,89.65c0-.77.54-1.43,1.42-1.43.33,0,.98.11,1.75.33,6.33,1.65,12.22,4.4,15.93,7.7,1.85,1.65,2.95,3.74,2.95,5.72,0,1.87-1.53,4.18-3.71,4.18-.87,0-2.29-.77-3.6-1.98-3.93-3.63-9.82-9.46-13.96-13.2-.54-.44-.76-.88-.76-1.32ZM701.08,148.72c.77,0,2.62.88,4.04.88,1.31,0,2.4-.44,3.49-.99,9.6-5.06,19.64-11.44,28.8-18.59,10.47-8.14,20.84-17.71,28.58-26.51.54-.66,1.2-.88,1.75-.88.98,0,1.63.66,1.63,1.65,0,.33-.11.77-.33,1.21-5.46,9.57-15.71,20.02-25.86,28.71-8.95,7.7-18.66,14.52-26.73,19.69-2.95,1.76-5.02,2.97-6.87,4.51-.66.55-1.31.77-2.18.77-1.2,0-3.16-1.43-5.89-5.17-1.2-1.65-1.64-2.97-1.64-3.85,0-.99.44-1.43,1.2-1.43Z"/>
    <path d="M860.15,100.21c0-.66-.11-.88-1.09-.88-14.73.88-30.98,2.86-39.71,4.18-2.73.44-7.09,1.32-8.4,1.32-.87,0-1.42-.11-2.62-1.32-1.64-1.65-3.27-3.74-3.27-4.95,0-.55.44-.77,1.53-.77,2.51,0,5.24-.11,8.95-.44,12.22-1.1,28.69-2.97,39.82-4.07,1.53-.11,3.49-.33,4.25-.77.55-.33.87-.44,1.42-.44,1.31,0,2.95.66,5.78,2.09,2.29,1.21,3.49,2.53,3.49,3.3s-.44,1.87-.87,2.64c-.55.99-1.2,3.41-1.42,5.28-1.2,10.23-3.6,26.07-5.67,37.4.87.22,1.64.55,2.29,1.21,1.09.99,1.96,2.64,1.96,3.63,0,1.54-1.85,2.09-3.82,2.09h-4.25c-11.24,0-28.04,1.21-41.46,2.64-1.53.11-3.71.66-5.02.99-.44.11-.87.22-1.31.22-.54,0-1.31-.22-2.18-.99-2.4-1.98-3.93-3.85-3.93-4.73,0-.44.22-.77,1.09-.77,2.07,0,3.49-.11,6.33-.44,16.04-1.65,33.93-2.97,43.42-3.52,2.29-15.84,3.82-25.96,4.69-42.24v-.66ZM881.31,91.52c0,1.43-1.31,2.75-2.62,2.75-.87,0-1.96-.55-4.26-3.52-2.51-3.08-5.35-6.49-7.09-8.03-.22-.22-.22-.33-.22-.55,0-.33.22-.66.65-.66,1.09,0,6,1.21,9.38,3.74,2.73,2.09,4.14,4.4,4.14,6.27ZM889.28,83.16c0,1.98-.87,3.41-2.51,3.41-1.2,0-2.07-1.1-4.25-3.41-2.51-2.75-5.24-5.61-7.31-7.37-.33-.33-.44-.55-.44-.77,0-.33.33-.55.76-.55,1.31,0,5.78.99,9.16,3.19,2.84,1.76,4.58,4.29,4.58,5.5Z"/>
    <path d="M926.49,99.88c0-7.04-.33-10.78-2.18-15.07-.11-.22-.22-.55-.22-.88,0-.88.55-1.65,1.42-1.65.98,0,6,1.98,8.84,4.29.98.88,1.42,1.76,1.42,2.86,0,.55-.11,1.21-.44,1.76-.87,1.54-1.09,4.07-1.31,9.68-.33,9.79-.66,27.72-.77,49.06,22.26-9.35,36.55-21.56,49.64-34.98.54-.55,1.2-.88,1.74-.88.76,0,1.42.66,1.42,1.43,0,.44-.11.66-.44,1.21-9.93,16.17-27.6,29.37-48.77,40.37-1.09.66-2.51,1.32-3.49,2.09-.87.66-1.85,1.1-2.73,1.1-.65,0-1.31-.22-1.86-.77-3.05-3.63-3.6-5.39-3.6-6.38,0-.44.11-1.1.44-1.54.44-.66.55-1.76.55-4.4.22-11.11.33-26.18.33-37.51v-9.79Z"/>
    <path class="st1" d="M306.49,368.83c0,1.28-.95,2.4-1.9,3.36-.79.8-2.06,2.24-2.54,2.88-5.71,5.92-11.11,11.84-18.25,16.96-.48.32-.95.48-1.27.48-.63,0-1.11-.32-1.11-.96,0-.48.16-.96.63-1.6,4.44-4.96,9.2-12.96,12.06-19.52.95-2.4,1.59-4.32,1.59-6.4,0-.48-.16-1.44-.16-2.4,0-1.12.63-1.76,1.59-1.76,1.59,0,6.67,3.84,8.57,7.04.63.96.79,1.44.79,1.92ZM310.45,271.07c0-1.76.48-3.04,1.59-3.04,1.43,0,6.82,3.04,9.36,5.76.79.8,1.27,1.76,1.27,2.72,0,.8-.32,1.76-1.11,2.88-.95,1.28-2.06,3.04-2.38,3.68-5.71,9.44-13.33,20.96-20.15,28.48,5.87,3.2,9.68,5.6,14.28,9.12,4.13-5.6,7.46-10.4,10-15.04,3.81-6.72,4.76-9.92,4.92-14.56.16-1.92.48-2.72,1.27-2.72,1.59,0,8.25,3.52,10.79,6.56.79.96.95,1.44.95,1.92,0,.96-.63,1.76-1.43,2.4-.95.8-1.9,2.24-3.65,4.48-10.95,13.6-22.69,27.52-34.12,39.36,9.36-1.92,20.79-4.32,30.94-6.56-1.9-2.88-3.17-4.96-4.76-7.52-.32-.48-.48-.96-.48-1.44s.32-.8,1.11-.8,5.4,2.24,9.05,4.96c4.6,3.52,7.3,7.52,7.3,10.88,0,2.56-1.9,4.16-3.81,4.16-1.11,0-2.38-.64-3.49-2.08-.95-1.28-1.9-2.72-2.7-4.32-5.08,1.92-10.31,3.52-15.39,5.28.63.48,1.11.96,1.75,1.6.95.96,1.11,1.6,1.11,2.72,0,.64,0,1.12-.16,2.88-.16,7.2-.48,19.84-.48,39.36,0,2.88,0,5.44-.16,8.8,0,4-1.27,5.92-4.28,5.92-2.06,0-3.17-1.6-4.13-3.84-.95-2.4-1.59-4.8-1.59-6.4,0-2.88.95-4.8,1.11-7.36.48-6.24.79-16.32,1.11-24.32,0-8,0-10.88-.16-13.12,0-.96,0-2.56-.16-4.16-4.76,1.6-9.05,3.2-12.38,4.64-1.27.48-4.28,1.44-6.35,2.4-.32.16-.95.32-1.59.32-.95,0-2.06-.32-2.7-1.76-.95-1.92-2.54-5.76-2.54-7.52,0-1.28.79-1.92,3.33-2.4,2.22-.32,4.76-1.28,6.82-3.84,4.28-5.12,8.09-9.76,11.27-13.92-5.24-2.72-10.16-4.64-12.06-5.28-2.06-.8-3.81-1.28-5.08-1.44-1.11-.16-2.7-.96-2.7-5.12,0-3.52.63-4.64,2.54-5.28,2.06-.64,3.33-1.76,4.76-3.84,5.08-7.36,9.68-17.76,12.54-26.08.63-2.08.79-4,.79-5.6v-1.92ZM329.65,355.71c0-.48.32-.8.95-.8,1.43,0,6.35,3.2,8.89,5.92,3.33,3.36,5.08,7.04,5.08,10.24,0,2.24-1.11,4.96-3.65,4.96-1.27,0-3.17-.8-4.28-3.04-2.54-4.96-4.13-10.88-6.67-16-.16-.32-.32-.96-.32-1.28ZM385.51,316.03c1.43.8,2.54,2.08,2.54,3.2,0,1.76-.48,2.88-.95,4.16-.63,1.92-.95,4.8-1.11,10.24-.32,10.88-.63,23.52-.95,45.12,8.25-.48,15.39-.48,21.42-.64,2.54,0,3.81-.32,6.03-.96s3.33-.8,4.44-.8c1.27,0,4.92,1.12,7.93,3.36,2.22,1.76,3.17,3.68,3.17,4.64,0,1.92-.95,2.88-4.44,2.88-2.54,0-9.05-.8-21.42-.8-4.6,0-9.68.16-14.76.32-12.38.48-23.49,1.28-38.72,3.68-.79.16-1.59.32-2.54.32-.79,0-1.43-.16-2.86-1.6-3.02-3.04-4.28-4.96-4.28-5.44,0-.64.32-1.12,1.43-1.28,11.58-1.12,23.8-2.08,35.86-3.04.16-19.2.16-32.8.16-44.64,0-7.2-.16-11.04-.48-13.28-.32-1.92-.79-4.48-1.9-7.2-13.33,1.44-18.25,1.92-21.74,2.4-.79.16-1.11.16-1.59.16-.32,0-.79-.32-1.43-.96-2.06-2.08-3.81-5.6-3.81-6.08,0-.64.63-.8,1.27-.96,5.4-.16,9.36-.64,12.85-.96,9.52-.96,28.09-2.56,38.56-3.84,2.54-.32,4.13-1.12,5.08-1.6,1.43-.8,3.97-1.28,4.76-1.28,1.27,0,3.49.64,5.08,1.6,2.86,1.44,4.76,3.04,4.76,4.32,0,2.72-.95,4.16-6.51,4.48-10,.48-21.42,1.44-31.26,2.24,2.06.64,3.97,1.44,5.4,2.24Z"/>
    <path class="st2" d="M524.06,337.95c0,7.04-5.08,12.16-12.06,12.16s-12.06-5.12-12.06-12.16,5.08-12.16,12.06-12.16,12.06,5.12,12.06,12.16Z"/>
    <path class="st3" d="M636.58,396.67c0,3.84-2.06,5.76-4.12,5.76-1.59,0-3.17-.96-4.13-3.04-1.75-3.52-2.54-6.24-2.54-8.64,0-.48,0-.96.16-1.44.32-1.28.48-2.88.48-4.64,0-2.24-.16-4.64-.48-7.68-.79-13.6-2.22-32-3.81-47.52-1.11-10.56-2.22-14.72-3.97-17.92-.32-.48-.48-1.28-.48-1.76,0-1.12.63-1.92,1.9-1.92,1.43,0,5.55,2.08,9.05,4.16,3.49-.32,6.98-.48,10.47-.8,7.46-9.76,14.44-20,17.62-27.04,3.65-7.36,4.12-9.92,4.12-12.48,0-.8-.16-2.08-.16-3.04,0-1.6.63-2.24,1.75-2.24s5.39,2.24,8.25,4.96c2.86,2.4,3.81,3.52,3.81,5.12s-1.11,3.2-2.38,4.96c-1.27,1.76-4.29,5.6-10,12.32-4.28,4.96-10.47,11.84-16.5,16.96,19.68-1.6,39.83-2.88,53.96-3.68,3.49-.16,6.19-.48,8.73-1.92.95-.64,1.75-.96,3.02-.96s3.81,1.28,7.62,4.64c3.49,3.2,5.71,6.08,5.71,7.68,0,.96-.48,2.08-1.59,3.36-1.27,1.76-1.9,4.64-2.38,11.04-1.59,23.36-3.81,46.88-6.35,63.04-.63,4.32-2.38,6.56-4.6,6.56-1.74,0-3.81-1.44-5.71-4.8-.47-.96-.79-1.76-1.11-2.56-22.06.48-46.5,1.28-66.33,2.56v.96ZM631.82,320.67c.63,8.32,1.27,17.6,1.9,27.36,23.49-1.6,45.86-3.2,61.1-4.16,1.9-.16,3.33-1.28,4.76-1.28,2.06,0,4.6.64,9.05,2.72.63-9.28,1.43-24,1.43-26.72,0-3.2-.63-3.68-2.54-3.68-20.63.96-55.07,3.04-75.7,4.8v.96ZM704.97,384.35c1.11-6.72,2.22-17.6,3.17-32-24.6.16-49.35,1.28-73.95,3.36.95,16.16,1.59,24,1.9,32,20.31-1.12,45.7-2.08,68.71-2.56l.16-.8Z"/>
  </g>
  <rect class="st0" x="426.04" y="198.96" width="55.02" height="0"/>
  <rect class="st0" x="427.08" y="219.79" width="46.88" height="0"/>
</svg>