<?xml version="1.0" encoding="UTF-8"?>
<svg id="_レイヤー_1" data-name="レイヤー_1" xmlns="http://www.w3.org/2000/svg" version="1.1" viewBox="0 0 1024 768">
  <!-- Generator: Adobe Illustrator 29.8.1, SVG Export Plug-In . SVG Version: 2.1.1 Build 2)  -->
  <defs>
    <style>
      .st0 {
        fill: #fff;
      }
    </style>
  </defs>
  <g>
    <rect x="171.73" y="111.75" width="676.65" height="102.34"/>
    <path d="M847.88,112.25v101.34H172.23v-101.34h675.65M848.88,111.25H171.23v103.34h677.65v-103.34h0Z"/>
  </g>
  <g>
    <rect class="st0" x="162.54" y="319.7" width="698.92" height="128.6"/>
    <path d="M853.46,327.7v112.6H170.54v-112.6h682.92M869.46,311.7H154.54v144.6h714.92v-144.6h0Z"/>
  </g>
  <g>
    <rect x="175.62" y="553.91" width="676.65" height="102.34"/>
    <path d="M851.77,554.41v101.34H176.12v-101.34h675.65M852.77,553.41H175.12v103.34h677.65v-103.34h0Z"/>
  </g>
  <g>
    <path d="M287.14,396.45c0,9.2.3,11.9,1.5,13.6,1.2,1.8,3.3,2.6,7.3,2.7v2.5h-21.6v-2.5c3.5-.1,5.6-.9,6.8-2.7,1.5-1.9,2-5.8,2-13.6v-41c0-5.2-.4-7.4-1.5-8.7-1.1-1.1-2.1-1.4-6-1.6v-2.4h19.1l23.5,59.2,23.4-59.2h18.6v2.4c-7.2.4-7.7,1-7.7,10.3v47.1c0,9.2.6,10,7.7,10.2v2.5h-24.3v-2.5c7-.2,7.7-1.1,7.7-10.2v-54.7l-26,66.5h-4.3l-26.2-66.4v48.5Z"/>
    <path d="M449.04,387.05c.1,6.9.7,10.9,2.3,15,2.9,7.4,7.8,11,15,11s12.5-3.7,16.5-11.3l2.3,1.3c-4.5,9.2-11.3,13.5-21.1,13.5-14.3,0-24.1-10.6-24.1-25.9,0-16.2,9.6-27.3,23.7-27.3,9.1,0,16,4.6,19.1,12.7,1,2.7,1.4,5.1,1.6,11h-35.3ZM475.65,384.35c-.1-5.3-.6-8.2-1.9-11.1-2.2-4.9-5.6-7.4-10.3-7.4s-8.8,2.7-11.5,7.8c-1.5,2.9-2.1,5.5-2.7,10.7h26.4Z"/>
    <path d="M574.04,373.95c4.4-7.7,9.3-10.6,17.6-10.6,6.3,0,10.4,1.9,13.1,6.2,1.9,2.9,2.6,6.4,2.6,12.5v20.7c0,9.4.5,10.1,7.3,10.3v2.2h-22.7v-2.2c3.3-.1,5.1-.5,5.9-1.5.6-.8.9-1.6,1-3.3.1-1.1.3-4.8.3-5.5v-20.1c0-5-.5-8.5-1.6-10.8-1.6-3.5-4.6-5.3-8.8-5.3-4.7,0-8.5,2.2-11.3,6.7-2.1,3.3-3.4,8.1-3.4,12.2v17.3c0,9.4.5,10.1,7.3,10.3v2.2h-22.8v-2.2c6.7-.2,7.3-1,7.3-10.3v-26.8c0-7.5-1.2-9-6.9-9v-2.2l15.1-1.1v10.3Z"/>
    <path d="M727.84,415.95c-.3-2.4-.5-5.4-.5-10.3-3.9,6.8-10.4,10.8-17.8,10.8-6.4,0-11.3-3.1-13.3-8.4-1-2.7-1.4-6.8-1.4-15.5v-16.5c0-5.2-.4-7.3-1.5-8.2-.6-.6-1.5-.8-3.4-.9h-1.8v-2.2l15.5-1c-.5,9.3-.6,11.7-.6,18.6v8.7c0,10.1.2,12.8,1.4,16.3,1.2,3.7,4,5.6,8.1,5.6,5.5,0,10.4-3.6,13-9.7,1.5-3.4,1.8-5.6,1.8-11.8v-15.4c0-5.3-.3-7.2-1.5-8.1-.6-.6-1.6-.9-3.4-1h-1.8v-2.2l15.5-1c-.3,7.5-.5,14.1-.5,18.6v18.9c0,10,.9,11.8,6.1,11.8h.7v2.2l-14.6.7Z"/>
  </g>
  <text/>
  <text/>
  <text/>
</svg>