<?xml version="1.0" encoding="UTF-8"?>
<svg id="_レイヤー_1" data-name="レイヤー_1" xmlns="http://www.w3.org/2000/svg" version="1.1" viewBox="0 0 1024 768">
  <!-- Generator: Adobe Illustrator 29.8.1, SVG Export Plug-In . SVG Version: 2.1.1 Build 2)  -->
  <defs>
    <style>
      .st0 {
        fill: #fff;
      }
    </style>
  </defs>
  <g>
    <rect x="171.73" y="111.75" width="676.65" height="102.34"/>
    <path d="M847.88,112.25v101.34H172.23v-101.34h675.65M848.88,111.25H171.23v103.34h677.65v-103.34h0Z"/>
  </g>
  <g>
    <rect class="st0" x="164.48" y="319.7" width="698.92" height="128.6"/>
    <path d="M855.41,327.7v112.6H172.48v-112.6h682.92M871.41,311.7H156.48v144.6h714.92v-144.6h0Z"/>
  </g>
  <g>
    <rect x="175.62" y="553.91" width="676.65" height="102.34"/>
    <path d="M851.77,554.41v101.34H176.12v-101.34h675.65M852.77,553.41H175.12v103.34h677.65v-103.34h0Z"/>
  </g>
  <g>
    <path d="M268.2,406.27c0,12.2.35,15.78,1.73,18.03,1.39,2.39,3.81,3.45,8.43,3.58v3.32h-24.94v-3.32c4.04-.13,6.47-1.19,7.85-3.58,1.73-2.52,2.31-7.69,2.31-18.03v-54.35c0-6.89-.46-9.81-1.73-11.53-1.27-1.46-2.42-1.86-6.93-2.12v-3.18h22.05l27.13,78.48,27.02-78.48h21.47v3.18c-8.31.53-8.89,1.33-8.89,13.65v62.44c0,12.2.69,13.26,8.89,13.52v3.32h-28.05v-3.32c8.08-.26,8.89-1.46,8.89-13.52v-72.51l-30.02,88.16h-4.96l-30.25-88.02v64.3Z"/>
    <path d="M455.11,393.81c.12,9.15.81,14.45,2.66,19.89,3.35,9.81,9.01,14.58,17.32,14.58s14.43-4.9,19.05-14.98l2.66,1.72c-5.2,12.2-13.05,17.9-24.36,17.9-16.51,0-27.82-14.05-27.82-34.33,0-21.48,11.08-36.19,27.36-36.19,10.51,0,18.47,6.1,22.05,16.84,1.15,3.58,1.62,6.76,1.85,14.58h-40.75ZM485.82,390.23c-.12-7.03-.69-10.87-2.19-14.71-2.54-6.5-6.47-9.81-11.89-9.81s-10.16,3.58-13.28,10.34c-1.73,3.84-2.42,7.29-3.12,14.18h30.48Z"/>
    <path d="M599.41,376.44c5.08-10.21,10.74-14.05,20.32-14.05,7.27,0,12.01,2.52,15.12,8.22,2.19,3.84,3,8.48,3,16.57v27.44c0,12.46.58,13.39,8.43,13.65v2.92h-26.21v-2.92c3.81-.13,5.89-.66,6.81-1.99.69-1.06,1.04-2.12,1.15-4.38.12-1.46.35-6.36.35-7.29v-26.65c0-6.63-.58-11.27-1.85-14.32-1.85-4.64-5.31-7.03-10.16-7.03-5.43,0-9.81,2.92-13.05,8.88-2.42,4.37-3.92,10.74-3.92,16.17v22.93c0,12.46.58,13.39,8.43,13.65v2.92h-26.32v-2.92c7.74-.27,8.43-1.33,8.43-13.65v-35.53c0-9.94-1.39-11.93-7.97-11.93v-2.92l17.43-1.46v13.65Z"/>
    <path d="M776.97,432.12c-.35-3.18-.58-7.16-.58-13.65-4.5,9.01-12.01,14.32-20.55,14.32-7.39,0-13.05-4.11-15.36-11.14-1.15-3.58-1.62-9.01-1.62-20.55v-21.87c0-6.89-.46-9.68-1.73-10.87-.69-.8-1.73-1.06-3.93-1.19h-2.08v-2.92l17.9-1.33c-.58,12.33-.69,15.51-.69,24.66v11.53c0,13.39.23,16.97,1.62,21.61,1.39,4.9,4.62,7.42,9.35,7.42,6.35,0,12.01-4.77,15.01-12.86,1.73-4.51,2.08-7.42,2.08-15.64v-20.42c0-7.03-.35-9.55-1.73-10.74-.69-.8-1.85-1.19-3.93-1.33h-2.08v-2.92l17.9-1.33c-.35,9.94-.58,18.69-.58,24.66v25.06c0,13.26,1.04,15.64,7.04,15.64h.81v2.92l-16.86.93Z"/>
  </g>
</svg>