<?xml version="1.0" encoding="UTF-8"?>
<svg id="_レイヤー_1" data-name="レイヤー_1" xmlns="http://www.w3.org/2000/svg" version="1.1" viewBox="0 0 1080 263.15">
  <!-- Generator: Adobe Illustrator 29.8.1, SVG Export Plug-In . SVG Version: 2.1.1 Build 2)  -->
  <path d="M105.76,88.53c-1,.2-1.75.3-2.25.3-1.3,0-2.25-.25-2.85-.75-.6-.5-1.05-1.05-1.35-1.65-2.6-5.7-5.7-9.85-9.3-12.45-3.6-2.6-8.5-3.9-14.7-3.9-2.4,0-4.68.33-6.83.98-2.15.65-4.03,1.6-5.62,2.85-1.6,1.25-2.88,2.78-3.82,4.58-.95,1.8-1.43,3.8-1.43,6,0,4.7,1.97,8.55,5.93,11.55,3.95,3,9.77,6.05,17.48,9.15,9.6,3.8,16.67,8.02,21.22,12.67,4.55,4.65,6.83,10.38,6.83,17.17,0,4.1-.63,7.93-1.88,11.48-1.25,3.55-3.2,6.65-5.85,9.3-2.65,2.65-6.07,4.72-10.27,6.22s-9.25,2.25-15.15,2.25c-6.2,0-11.83-.65-16.88-1.95-5.05-1.3-9.33-3-12.83-5.1-.3-4.2-.75-8.25-1.35-12.15-.6-3.9-1.3-7.8-2.1-11.7.7-.3,1.55-.45,2.55-.45,1.2,0,2.12.28,2.77.83.65.55,1.22,1.42,1.73,2.62,2.5,7.2,5.72,12.5,9.67,15.9,3.95,3.4,9.47,5.1,16.58,5.1,3.2,0,6-.45,8.4-1.35,2.4-.9,4.4-2.15,6-3.75,1.6-1.6,2.8-3.4,3.6-5.4.8-2,1.2-4.15,1.2-6.45,0-5.2-1.78-9.3-5.33-12.3-3.55-3-8.62-5.7-15.23-8.1-4.3-1.6-8.2-3.27-11.7-5.02-3.5-1.75-6.5-3.77-9-6.07-2.5-2.3-4.43-4.97-5.78-8.03-1.35-3.05-2.02-6.67-2.02-10.88,0-3.7.68-7.17,2.02-10.42,1.35-3.25,3.3-6.08,5.85-8.48,2.55-2.4,5.62-4.3,9.23-5.7,3.6-1.4,7.65-2.1,12.15-2.1s9.2.45,13.5,1.35c4.3.9,9.15,2.4,14.55,4.5.2,3,.47,6.22.82,9.67.35,3.45.83,6.67,1.43,9.67Z"/>
  <path d="M177.17,148.53c.7-.7,1.45-1.05,2.24-1.05,1,0,1.94.85,2.84,2.55-1.3,1.8-2.8,3.55-4.5,5.25-1.7,1.7-3.73,3.23-6.07,4.58-2.35,1.35-5.03,2.43-8.03,3.23-3,.8-6.45,1.2-10.35,1.2s-7.8-.65-11.4-1.95c-3.6-1.3-6.78-3.3-9.52-6-2.75-2.7-4.95-6.05-6.6-10.05-1.65-4-2.47-8.7-2.47-14.1,0-5.1.97-9.8,2.92-14.1,1.95-4.3,4.47-7.97,7.58-11.02,3.1-3.05,6.52-5.42,10.27-7.12,3.75-1.7,7.37-2.55,10.88-2.55,9.3,0,16.07,2.7,20.32,8.1,4.25,5.4,6.38,12.45,6.38,21.15,0,.6-.3.9-.9.9l-43.35,1.95c0,3.9.55,7.5,1.64,10.8,1.1,3.3,2.64,6.15,4.64,8.55,1.99,2.4,4.41,4.27,7.25,5.62,2.84,1.35,6.05,2.02,9.64,2.02,3.19,0,6.25-.75,9.19-2.25,2.94-1.5,5.41-3.4,7.4-5.7ZM152.93,102.78c-4.98,0-8.86,1.95-11.64,5.85-2.79,3.9-4.18,9-4.18,15.3l28.21-1.35c1.49,0,2.24-.65,2.24-1.95,0-1.9-.3-3.9-.9-6-.6-2.1-1.49-4.02-2.69-5.77-1.2-1.75-2.71-3.2-4.55-4.35-1.84-1.15-4.01-1.73-6.49-1.73Z"/>
  <path d="M227.85,153.63c.5-.5.92-.8,1.27-.9.35-.1.62-.15.83-.15.9,0,1.7.65,2.4,1.95-2.6,2.9-5.4,5.25-8.4,7.05-3,1.8-6.2,2.7-9.6,2.7-2,0-3.9-.22-5.7-.67-1.8-.45-3.35-1.32-4.65-2.62-1.3-1.3-2.32-3.08-3.07-5.33s-1.12-5.17-1.12-8.77v-41.4h-9v-1.65c0-.7.12-1.35.38-1.95.25-.6.77-.9,1.57-.9,2.7,0,4.9-.7,6.6-2.1,1.7-1.4,3.1-3.2,4.2-5.4,1.2-2.4,2.25-4.65,3.15-6.75s1.9-3.15,3-3.15h2.7v15.6h17.55c0,2.1-.23,3.67-.68,4.72-.45,1.05-1.27,1.58-2.47,1.58h-14.4v37.2c0,3.2.15,5.78.45,7.72.3,1.95.75,3.45,1.35,4.5.6,1.05,1.3,1.73,2.1,2.03.8.3,1.7.45,2.7.45,1.7,0,3.27-.38,4.73-1.12,1.45-.75,2.82-1.62,4.12-2.62Z"/>
  <path d="M272.4,153.63c.5-.5.92-.8,1.27-.9.35-.1.62-.15.83-.15.9,0,1.7.65,2.4,1.95-2.6,2.9-5.4,5.25-8.4,7.05-3,1.8-6.2,2.7-9.6,2.7-2,0-3.9-.22-5.7-.67-1.8-.45-3.35-1.32-4.65-2.62-1.3-1.3-2.32-3.08-3.07-5.33s-1.12-5.17-1.12-8.77v-41.4h-9v-1.65c0-.7.12-1.35.38-1.95.25-.6.77-.9,1.57-.9,2.7,0,4.9-.7,6.6-2.1,1.7-1.4,3.1-3.2,4.2-5.4,1.2-2.4,2.25-4.65,3.15-6.75s1.9-3.15,3-3.15h2.7v15.6h17.55c0,2.1-.23,3.67-.68,4.72-.45,1.05-1.27,1.58-2.47,1.58h-14.4v37.2c0,3.2.15,5.78.45,7.72.3,1.95.75,3.45,1.35,4.5.6,1.05,1.3,1.73,2.1,2.03.8.3,1.7.45,2.7.45,1.7,0,3.27-.38,4.73-1.12,1.45-.75,2.82-1.62,4.12-2.62Z"/>
  <path d="M336.02,148.53c.7-.7,1.45-1.05,2.24-1.05,1,0,1.94.85,2.84,2.55-1.3,1.8-2.8,3.55-4.5,5.25-1.7,1.7-3.73,3.23-6.07,4.58-2.35,1.35-5.03,2.43-8.03,3.23-3,.8-6.45,1.2-10.35,1.2s-7.8-.65-11.4-1.95c-3.6-1.3-6.78-3.3-9.52-6-2.75-2.7-4.95-6.05-6.6-10.05-1.65-4-2.47-8.7-2.47-14.1,0-5.1.97-9.8,2.92-14.1,1.95-4.3,4.47-7.97,7.58-11.02,3.1-3.05,6.52-5.42,10.27-7.12,3.75-1.7,7.37-2.55,10.88-2.55,9.3,0,16.07,2.7,20.32,8.1,4.25,5.4,6.38,12.45,6.38,21.15,0,.6-.3.9-.9.9l-43.35,1.95c0,3.9.55,7.5,1.64,10.8,1.1,3.3,2.64,6.15,4.64,8.55,1.99,2.4,4.41,4.27,7.25,5.62,2.84,1.35,6.05,2.02,9.64,2.02,3.19,0,6.25-.75,9.19-2.25,2.94-1.5,5.41-3.4,7.4-5.7ZM311.78,102.78c-4.98,0-8.86,1.95-11.64,5.85-2.79,3.9-4.18,9-4.18,15.3l28.21-1.35c1.49,0,2.24-.65,2.24-1.95,0-1.9-.3-3.9-.9-6-.6-2.1-1.49-4.02-2.69-5.77-1.2-1.75-2.71-3.2-4.55-4.35-1.84-1.15-4.01-1.73-6.49-1.73Z"/>
  <path d="M384.45,113.73c0-6.9,1.25-13.4,3.75-19.5,2.5-6.1,5.9-11.45,10.2-16.05,4.3-4.6,9.3-8.25,15-10.95,5.7-2.7,11.7-4.05,18-4.05,8.7,0,16.3,1.38,22.8,4.12,6.5,2.75,11.87,6.45,16.12,11.1,4.25,4.65,7.42,10.03,9.52,16.12,2.1,6.1,3.15,12.5,3.15,19.2,0,7.9-1.3,14.98-3.9,21.23-2.6,6.25-6.18,11.55-10.73,15.9-4.55,4.35-9.9,7.68-16.05,9.98-6.15,2.3-12.73,3.45-19.73,3.45s-13.6-1.2-19.5-3.6c-5.9-2.4-10.98-5.82-15.23-10.28-4.25-4.45-7.55-9.77-9.9-15.97-2.35-6.2-3.52-13.1-3.52-20.7ZM436.05,157.08c4.7,0,9-.9,12.9-2.7s7.25-4.3,10.05-7.5c2.8-3.2,4.97-7,6.53-11.4,1.55-4.4,2.32-9.2,2.32-14.4,0-7.2-.75-13.88-2.25-20.02-1.5-6.15-3.78-11.5-6.82-16.05-3.05-4.55-6.9-8.12-11.55-10.73-4.65-2.6-10.08-3.9-16.27-3.9-4.1,0-8.02.78-11.77,2.33-3.75,1.55-7.05,3.8-9.9,6.75-2.85,2.95-5.13,6.58-6.83,10.88-1.7,4.3-2.55,9.25-2.55,14.85,0,7.4.8,14.28,2.4,20.62,1.6,6.35,3.92,11.85,6.98,16.5,3.05,4.65,6.82,8.28,11.32,10.88,4.5,2.6,9.65,3.9,15.45,3.9Z"/>
  <path d="M530.55,153.63c.5-.5.92-.8,1.27-.9.35-.1.62-.15.83-.15.9,0,1.7.65,2.4,1.95-2.6,2.9-5.4,5.25-8.4,7.05-3,1.8-6.2,2.7-9.6,2.7-2,0-3.9-.22-5.7-.67-1.8-.45-3.35-1.32-4.65-2.62-1.3-1.3-2.32-3.08-3.07-5.33s-1.12-5.17-1.12-8.77v-41.4h-9v-1.65c0-.7.12-1.35.38-1.95.25-.6.77-.9,1.57-.9,2.7,0,4.9-.7,6.6-2.1,1.7-1.4,3.1-3.2,4.2-5.4,1.2-2.4,2.25-4.65,3.15-6.75s1.9-3.15,3-3.15h2.7v15.6h17.55c0,2.1-.23,3.67-.68,4.72-.45,1.05-1.27,1.58-2.47,1.58h-14.4v37.2c0,3.2.15,5.78.45,7.72.3,1.95.75,3.45,1.35,4.5.6,1.05,1.3,1.73,2.1,2.03.8.3,1.7.45,2.7.45,1.7,0,3.27-.38,4.73-1.12,1.45-.75,2.82-1.62,4.12-2.62Z"/>
  <path d="M575.1,153.63c.5-.5.92-.8,1.27-.9.35-.1.62-.15.83-.15.9,0,1.7.65,2.4,1.95-2.6,2.9-5.4,5.25-8.4,7.05-3,1.8-6.2,2.7-9.6,2.7-2,0-3.9-.22-5.7-.67-1.8-.45-3.35-1.32-4.65-2.62-1.3-1.3-2.33-3.08-3.08-5.33s-1.12-5.17-1.12-8.77v-41.4h-9v-1.65c0-.7.12-1.35.38-1.95.25-.6.77-.9,1.57-.9,2.7,0,4.9-.7,6.6-2.1,1.7-1.4,3.1-3.2,4.2-5.4,1.2-2.4,2.25-4.65,3.15-6.75s1.9-3.15,3-3.15h2.7v15.6h17.55c0,2.1-.22,3.67-.68,4.72-.45,1.05-1.27,1.58-2.47,1.58h-14.4v37.2c0,3.2.15,5.78.45,7.72.3,1.95.75,3.45,1.35,4.5.6,1.05,1.3,1.73,2.1,2.03.8.3,1.7.45,2.7.45,1.7,0,3.27-.38,4.73-1.12,1.45-.75,2.82-1.62,4.12-2.62Z"/>
  <path d="M587.4,113.73c0-6.9,1.25-13.4,3.75-19.5,2.5-6.1,5.9-11.45,10.2-16.05,4.3-4.6,9.3-8.25,15-10.95,5.7-2.7,11.7-4.05,18-4.05,8.7,0,16.3,1.38,22.8,4.12,6.5,2.75,11.87,6.45,16.12,11.1,4.25,4.65,7.42,10.03,9.52,16.12,2.1,6.1,3.15,12.5,3.15,19.2,0,7.9-1.3,14.98-3.9,21.23-2.6,6.25-6.18,11.55-10.73,15.9-4.55,4.35-9.9,7.68-16.05,9.98-6.15,2.3-12.73,3.45-19.73,3.45s-13.6-1.2-19.5-3.6c-5.9-2.4-10.98-5.82-15.23-10.28-4.25-4.45-7.55-9.77-9.9-15.97-2.35-6.2-3.52-13.1-3.52-20.7ZM639,157.08c4.7,0,9-.9,12.9-2.7,3.9-1.8,7.25-4.3,10.05-7.5,2.8-3.2,4.97-7,6.53-11.4,1.55-4.4,2.33-9.2,2.33-14.4,0-7.2-.75-13.88-2.25-20.02-1.5-6.15-3.78-11.5-6.83-16.05-3.05-4.55-6.9-8.12-11.55-10.73-4.65-2.6-10.08-3.9-16.27-3.9-4.1,0-8.03.78-11.78,2.33-3.75,1.55-7.05,3.8-9.9,6.75-2.85,2.95-5.12,6.58-6.82,10.88-1.7,4.3-2.55,9.25-2.55,14.85,0,7.4.8,14.28,2.4,20.62,1.6,6.35,3.92,11.85,6.97,16.5,3.05,4.65,6.83,8.28,11.33,10.88,4.5,2.6,9.65,3.9,15.45,3.9Z"/>
  <path d="M757.65,120.18v30.75c0,2.3,1.1,3.93,3.3,4.88,2.2.95,5.5,1.72,9.9,2.33,1.2.2,1.8,1.05,1.8,2.55,0,.7-.1,1.55-.3,2.55-2.9-.2-6.2-.38-9.9-.52-3.7-.15-7.7-.23-12-.23-2.6,0-5.55.08-8.85.23-3.3.15-6.4.32-9.3.52-.2-1-.3-1.8-.3-2.4,0-1.4.5-2.2,1.5-2.4,4-.8,6.67-1.58,8.02-2.33s2.02-2.12,2.02-4.12v-76.35c0-2-.78-3.45-2.32-4.35-1.55-.9-4.33-1.6-8.33-2.1-1-.2-1.5-1.1-1.5-2.7,0-.7.1-1.45.3-2.25,2.8.2,5.78.38,8.93.52,3.15.15,6.12.23,8.92.23h21.15c10.8,0,18.9,2.55,24.3,7.65,5.4,5.1,8.1,11.7,8.1,19.8,0,3.2-.73,6.45-2.18,9.75-1.45,3.3-3.55,6.28-6.3,8.92-2.75,2.65-6.15,4.83-10.2,6.52-4.05,1.7-8.62,2.55-13.72,2.55h-13.05ZM765.6,114.03c7,0,12.4-1.55,16.2-4.65,3.8-3.1,5.7-8.35,5.7-15.75,0-3.1-.35-6-1.05-8.7-.7-2.7-1.9-5.07-3.6-7.12-1.7-2.05-3.95-3.68-6.75-4.88-2.8-1.2-6.3-1.8-10.5-1.8h-7.95v42.9h7.95Z"/>
  <path d="M867.15,158.43c1.1,0,1.7,1.05,1.8,3.15-2.6,1.8-5.9,2.7-9.9,2.7-2.21,0-4.13-.33-5.75-.97-1.62-.65-2.99-1.52-4.1-2.62-1.12-1.1-1.98-2.35-2.58-3.75-.61-1.4-1.01-2.85-1.22-4.35-2.5,4.5-5.48,7.57-8.93,9.22-3.45,1.65-7.42,2.47-11.92,2.47-2,0-4.12-.18-6.38-.52-2.25-.35-4.38-1.08-6.38-2.17-2-1.1-3.65-2.65-4.95-4.65-1.3-2-1.95-4.65-1.95-7.95,0-3.7.87-6.83,2.62-9.38,1.75-2.55,4-4.65,6.75-6.3,2.75-1.65,5.75-2.97,9-3.98,3.25-1,6.38-1.85,9.38-2.55,1.7-.3,3.27-.62,4.72-.97,1.45-.35,2.72-.72,3.82-1.12,1.4-.4,2.27-.95,2.62-1.65.35-.7.53-2.05.53-4.05,0-4.7-.9-8.57-2.7-11.62-1.8-3.05-5-4.58-9.6-4.58-1.7,0-3.15.2-4.35.6-1.2.4-2.2,1.03-3,1.88-.8.85-1.5,1.98-2.1,3.38-.6,1.4-1.2,3.05-1.8,4.95-.3,1.1-.98,1.9-2.02,2.4-1.05.5-2.83,1.1-5.33,1.8-.6.2-1.35.4-2.25.6-.9.2-1.65.3-2.25.3-1,0-1.5-1.05-1.5-3.15s.85-4.4,2.55-6.6c1.7-2.2,3.87-4.15,6.53-5.85,2.65-1.7,5.52-3.08,8.62-4.12,3.1-1.05,6.05-1.58,8.85-1.58,3.5,0,6.66.3,9.47.9,2.81.6,5.23,1.7,7.26,3.3,2.03,1.6,3.57,3.75,4.63,6.45,1.06,2.7,1.59,6.2,1.59,10.5v25.8c0,3.5.12,6.03.38,7.57.25,1.55.62,2.78,1.12,3.68.7,1.4,1.47,2.32,2.33,2.77.85.45,1.72.67,2.62.67,1.1,0,1.88-.1,2.32-.3.45-.2.92-.3,1.43-.3ZM844.35,129.18l-4.83.75c-2.62.5-5.16,1.1-7.62,1.8-2.47.7-4.65,1.68-6.56,2.92-1.91,1.25-3.45,2.83-4.6,4.73-1.16,1.9-1.73,4.25-1.73,7.05,0,3.8.98,6.7,2.94,8.7,1.96,2,4.4,3,7.32,3,1.91,0,3.8-.42,5.66-1.28,1.86-.85,3.47-2.05,4.83-3.6,1.36-1.55,2.47-3.38,3.32-5.48.85-2.1,1.28-4.4,1.28-6.9v-11.7Z"/>
  <path d="M916.05,115.83c-.8,0-1.38-.17-1.73-.52-.35-.35-.58-.72-.67-1.12-.7-4.1-2.33-7.02-4.88-8.78-2.55-1.75-5.73-2.62-9.53-2.62-2.9,0-5.47.83-7.72,2.48s-3.38,3.93-3.38,6.83c0,2.6,1.02,4.78,3.08,6.52,2.05,1.75,5.77,3.48,11.17,5.17,2.9.9,5.57,1.9,8.03,3,2.45,1.1,4.55,2.43,6.3,3.98,1.75,1.55,3.12,3.45,4.12,5.7,1,2.25,1.5,4.93,1.5,8.02,0,2.6-.48,5.1-1.42,7.5-.95,2.4-2.4,4.5-4.35,6.3-1.95,1.8-4.4,3.25-7.35,4.35-2.95,1.1-6.48,1.65-10.58,1.65-3.2,0-6.78-.38-10.72-1.12-3.95-.75-7.53-2.02-10.73-3.82-.2-2.6-.38-5.33-.52-8.18-.15-2.85-.23-5.72-.23-8.62h1.5c1,0,1.85.18,2.55.53.7.35,1.1.93,1.2,1.72.4,4.2,2.03,7.58,4.88,10.12,2.85,2.55,6.83,3.83,11.92,3.83,4.1,0,7.25-.92,9.45-2.77,2.2-1.85,3.3-4.37,3.3-7.58s-1.2-5.82-3.6-7.58c-2.4-1.75-5.95-3.32-10.65-4.72-5.9-1.8-10.53-4.15-13.88-7.05-3.35-2.9-5.02-7.15-5.02-12.75,0-2.6.5-5.05,1.5-7.35,1-2.3,2.4-4.3,4.2-6,1.8-1.7,4-3.05,6.6-4.05,2.6-1,5.5-1.5,8.7-1.5,4,0,7.77.52,11.33,1.58,3.55,1.05,6.32,2.17,8.32,3.38.1.8.2,1.78.3,2.92.1,1.15.17,2.35.22,3.6.05,1.25.1,2.5.15,3.75.05,1.25.07,2.38.07,3.38l-3.45-.15Z"/>
  <path d="M968.7,153.63c.5-.5.92-.8,1.28-.9.35-.1.62-.15.82-.15.9,0,1.7.65,2.4,1.95-2.6,2.9-5.4,5.25-8.4,7.05-3,1.8-6.2,2.7-9.6,2.7-2,0-3.9-.22-5.7-.67s-3.35-1.32-4.65-2.62c-1.3-1.3-2.33-3.08-3.08-5.33s-1.12-5.17-1.12-8.77v-41.4h-9v-1.65c0-.7.12-1.35.38-1.95.25-.6.77-.9,1.58-.9,2.7,0,4.9-.7,6.6-2.1,1.7-1.4,3.1-3.2,4.2-5.4,1.2-2.4,2.25-4.65,3.15-6.75.9-2.1,1.9-3.15,3-3.15h2.7v15.6h17.55c0,2.1-.22,3.67-.67,4.72-.45,1.05-1.27,1.58-2.47,1.58h-14.4v37.2c0,3.2.15,5.78.45,7.72.3,1.95.75,3.45,1.35,4.5.6,1.05,1.3,1.73,2.1,2.03.8.3,1.7.45,2.7.45,1.7,0,3.27-.38,4.72-1.12,1.45-.75,2.82-1.62,4.12-2.62Z"/>
  <path d="M1042.19,158.43c1.1,0,1.7,1.05,1.8,3.15-2.6,1.8-5.9,2.7-9.9,2.7-2.21,0-4.13-.33-5.75-.97-1.62-.65-2.99-1.52-4.1-2.62-1.12-1.1-1.98-2.35-2.58-3.75-.61-1.4-1.01-2.85-1.22-4.35-2.5,4.5-5.48,7.57-8.92,9.22-3.45,1.65-7.43,2.47-11.93,2.47-2,0-4.12-.18-6.38-.52-2.25-.35-4.38-1.08-6.38-2.17-2-1.1-3.65-2.65-4.95-4.65-1.3-2-1.95-4.65-1.95-7.95,0-3.7.87-6.83,2.62-9.38,1.75-2.55,4-4.65,6.75-6.3,2.75-1.65,5.75-2.97,9-3.98,3.25-1,6.38-1.85,9.38-2.55,1.7-.3,3.27-.62,4.72-.97,1.45-.35,2.72-.72,3.83-1.12,1.4-.4,2.27-.95,2.62-1.65.35-.7.53-2.05.53-4.05,0-4.7-.9-8.57-2.7-11.62-1.8-3.05-5-4.58-9.6-4.58-1.7,0-3.15.2-4.35.6-1.2.4-2.2,1.03-3,1.88-.8.85-1.5,1.98-2.1,3.38-.6,1.4-1.2,3.05-1.8,4.95-.3,1.1-.97,1.9-2.02,2.4-1.05.5-2.83,1.1-5.33,1.8-.6.2-1.35.4-2.25.6-.9.2-1.65.3-2.25.3-1,0-1.5-1.05-1.5-3.15s.85-4.4,2.55-6.6c1.7-2.2,3.87-4.15,6.53-5.85,2.65-1.7,5.52-3.08,8.62-4.12,3.1-1.05,6.05-1.58,8.85-1.58,3.5,0,6.66.3,9.47.9,2.81.6,5.23,1.7,7.26,3.3,2.02,1.6,3.57,3.75,4.63,6.45,1.06,2.7,1.59,6.2,1.59,10.5v25.8c0,3.5.12,6.03.38,7.57.25,1.55.62,2.78,1.12,3.68.7,1.4,1.47,2.32,2.33,2.77.85.45,1.72.67,2.62.67,1.1,0,1.88-.1,2.33-.3.45-.2.92-.3,1.42-.3ZM1019.39,129.18l-4.83.75c-2.62.5-5.16,1.1-7.62,1.8-2.47.7-4.65,1.68-6.56,2.92-1.91,1.25-3.45,2.83-4.6,4.73-1.16,1.9-1.73,4.25-1.73,7.05,0,3.8.98,6.7,2.94,8.7,1.96,2,4.4,3,7.32,3,1.91,0,3.8-.42,5.66-1.28,1.86-.85,3.47-2.05,4.83-3.6,1.36-1.55,2.47-3.38,3.32-5.48.85-2.1,1.28-4.4,1.28-6.9v-11.7Z"/>
</svg>