<?xml version="1.0" encoding="UTF-8"?>
<svg id="_レイヤー_1" data-name="レイヤー_1" xmlns="http://www.w3.org/2000/svg" version="1.1" viewBox="0 0 1080 263.15">
  <!-- Generator: Adobe Illustrator 29.8.1, SVG Export Plug-In . SVG Version: 2.1.1 Build 2)  -->
  <path d="M69.55,153.48c0,5.89-1.03,11.06-3.09,15.49-2.06,4.43-4.84,8.02-8.32,10.77-3.19,2.52-6.85,4.42-10.97,5.71s-8.7,1.93-13.71,1.93c-2.72,0-5.54-.11-8.45-.34-2.91-.23-4.6-.37-5.07-.43l-.51-12.36c.59.11,2.25.33,4.97.64,2.72.31,5.93.47,9.62.47,2.25,0,5.16-.4,8.73-1.2s6.31-1.83,8.22-3.09c2.51-1.66,4.43-3.66,5.77-6.01s2.01-5.32,2.01-8.92c0-3.83-.67-7.08-2.01-9.74-1.34-2.66-3.56-5.22-6.66-7.68-2-1.6-4.59-3.4-7.77-5.41-3.19-2-6.05-4.06-8.6-6.18-4.33-3.55-7.42-7.42-9.27-11.63s-2.77-8.88-2.77-14.03.84-9.82,2.52-13.69c1.68-3.86,3.86-7.16,6.54-9.91,2.72-2.75,6.05-4.81,9.98-6.18s8.31-2.06,13.11-2.06c2.64,0,5.31.1,8.01.3,2.7.2,4.24.33,4.63.39l.89,12.44c-.38-.06-1.93-.26-4.65-.6-2.72-.34-6.07-.51-10.07-.51-2.38,0-4.83.36-7.36,1.07-2.53.72-4.75,1.82-6.66,3.3-1.7,1.32-3.14,3.15-4.33,5.49-1.19,2.35-1.78,5.09-1.78,8.24,0,2.8.63,5.51,1.88,8.11,1.25,2.6,3.6,5.28,7.04,8.02,1.74,1.43,4.05,3.08,6.91,4.93,2.87,1.86,5.68,3.88,8.44,6.05,4.25,3.38,7.44,7.25,9.59,11.63,2.14,4.38,3.22,9.37,3.22,14.97Z"/>
  <path d="M141.66,139.24h-46.06c.04,6.06,1,11.63,2.87,16.69,1.87,5.06,4.74,9.25,8.6,12.57,2.46,2.12,5.27,3.7,8.41,4.76,3.14,1.06,6.92,1.59,11.34,1.59,2.42,0,4.64-.09,6.66-.26,2.02-.17,3.26-.29,3.73-.34l-1.15,11.41c-.34.06-1.47.16-3.38.3s-4.16.21-6.75.21c-6.8,0-12.71-1.19-17.74-3.56-5.03-2.37-9.16-5.65-12.39-9.82-2.76-3.49-5.11-7.95-7.04-13.39-1.93-5.43-2.9-11.47-2.9-18.1s.72-12.41,2.17-17.68c1.44-5.26,3.61-10.15,6.5-14.67,2.51-3.89,5.62-6.89,9.33-9.01,3.72-2.12,7.57-3.17,11.56-3.17s7.45.8,10.51,2.4c3.06,1.6,5.71,4.03,7.96,7.29,2.51,3.66,4.42,8.17,5.73,13.51,1.32,5.35,2,11.77,2.04,19.26ZM131.79,129.63c-.68-7.09-2.47-12.66-5.38-16.69-2.91-4.03-6.74-6.05-11.5-6.05s-8.73,2.05-11.91,6.14c-3.19,4.09-5.39,9.62-6.63,16.6h35.42Z"/>
  <path d="M203.96,175.19l-1.15,10.9c-.3.06-1.03.11-2.2.17-1.17.06-2.18.09-3.03.09-8.71,0-15.29-2.45-19.75-7.34-4.46-4.89-6.69-12.4-6.69-22.52,0-6.35.03-13.16.1-20.42.06-7.26.1-16.27.1-27.03h-10.7v-10.04h11.28v-20.34h9.24v20.34h22.81v10.04h-22.81c0,1.2-.03,4.78-.1,10.73-.06,5.95-.1,10.35-.1,13.21v21.28c0,7.44,1.49,12.8,4.46,16.09,2.97,3.29,7.56,4.93,13.76,4.93.76,0,1.68-.01,2.74-.04,1.06-.03,1.74-.04,2.04-.04Z"/>
  <path d="M265.56,175.19l-1.15,10.9c-.3.06-1.03.11-2.2.17-1.17.06-2.18.09-3.03.09-8.71,0-15.29-2.45-19.75-7.34-4.46-4.89-6.69-12.4-6.69-22.52,0-6.35.03-13.16.1-20.42.06-7.26.1-16.27.1-27.03h-10.7v-10.04h11.28v-20.34h9.24v20.34h22.81v10.04h-22.81c0,1.2-.03,4.78-.1,10.73-.06,5.95-.1,10.35-.1,13.21v21.28c0,7.44,1.49,12.8,4.46,16.09,2.97,3.29,7.56,4.93,13.76,4.93.76,0,1.68-.01,2.74-.04,1.06-.03,1.74-.04,2.04-.04Z"/>
  <path d="M346.91,185.66c-.38,0-3.21-.03-8.47-.09-5.27-.06-11.79-.09-19.56-.09-5.39,0-10.33.03-14.81.09-4.48.06-8.27.09-11.37.09.08-3.32.16-10.5.22-21.54.06-11.04.1-22.45.1-34.24,0-6.46-.02-15.02-.06-25.66-.04-10.64-.13-21.65-.25-33.03,3.02,0,6.79.03,11.31.09,4.52.06,9.18.09,13.98.09,8.11,0,14.72-.03,19.81-.09,5.1-.06,7.86-.09,8.28-.09v11.93c-.42,0-3.09-.04-8-.13s-11.01-.13-18.32-.13c-3.19,0-6.31.01-9.37.04-3.06.03-5.48.04-7.26.04,0,6.46-.04,12.91-.13,19.35-.09,6.44-.13,12.51-.13,18.23,1.91,0,4.17.01,6.79.04,2.61.03,4.94.04,6.98.04,7.48,0,14.15-.04,20.04-.13,5.88-.09,9.01-.13,9.4-.13v11.84c-.34,0-3.84-.04-10.51-.13-6.67-.09-12.76-.13-18.28-.13-2.04,0-4.47.01-7.29.04-2.82.03-5.19.04-7.1.04,0,10.81.02,19.39.06,25.74.04,6.35.08,11.67.13,15.96,2.51.06,5.54.1,9.11.13s7.41.04,11.53.04c6.33,0,11.65-.03,15.96-.09,4.31-.06,6.72-.09,7.23-.09v11.93Z"/>
  <path d="M479.62,128.43c0,9.27-1.18,17.78-3.53,25.53-2.36,7.75-5.42,14.14-9.2,19.18-4.2,5.61-8.66,9.68-13.37,12.23-4.71,2.54-9.76,3.82-15.15,3.82s-10.23-1.22-14.9-3.65c-4.67-2.43-8.87-6.05-12.61-10.85-4.12-5.2-7.44-11.77-9.96-19.69-2.53-7.92-3.79-16.83-3.79-26.73,0-8.81,1-16.83,2.99-24.07,1.99-7.24,4.99-13.74,8.98-19.52,3.69-5.38,8.08-9.54,13.18-12.48,5.09-2.95,10.46-4.42,16.11-4.42s11.03,1.39,15.91,4.16c4.88,2.77,9.1,6.62,12.67,11.54,4.16,5.72,7.31,12.46,9.45,20.21,2.14,7.75,3.21,16,3.21,24.76ZM468.79,129.8c0-7.44-.93-14.74-2.77-21.92-1.85-7.18-4.67-13.2-8.45-18.06-2.55-3.32-5.41-5.89-8.58-7.72-3.17-1.83-6.71-2.75-10.62-2.75s-7.39.93-10.68,2.79c-3.3,1.86-6.28,4.59-8.96,8.19-3.4,4.58-6.05,10.24-7.94,16.99-1.89,6.75-2.84,13.79-2.84,21.11,0,8.24.97,15.62,2.9,22.14s4.67,12.04,8.2,16.56c2.42,3.15,5.29,5.68,8.61,7.59,3.32,1.92,6.87,2.87,10.65,2.87s7.32-.93,10.62-2.79c3.3-1.86,6.28-4.53,8.96-8.02,3.19-4.12,5.8-9.37,7.85-15.75,2.04-6.38,3.06-13.46,3.06-21.24Z"/>
  <path d="M545.04,175.19l-1.15,10.9c-.3.06-1.03.11-2.2.17-1.17.06-2.18.09-3.03.09-8.71,0-15.29-2.45-19.75-7.34s-6.69-12.4-6.69-22.52c0-6.35.03-13.16.1-20.42.06-7.26.1-16.27.1-27.03h-10.7v-10.04h11.28v-20.34h9.24v20.34h22.81v10.04h-22.81c0,1.2-.03,4.78-.1,10.73-.06,5.95-.1,10.35-.1,13.21v21.28c0,7.44,1.49,12.8,4.46,16.09,2.97,3.29,7.56,4.93,13.76,4.93.76,0,1.68-.01,2.74-.04,1.06-.03,1.74-.04,2.04-.04Z"/>
  <path d="M606.64,175.19l-1.15,10.9c-.3.06-1.03.11-2.2.17-1.17.06-2.18.09-3.03.09-8.71,0-15.29-2.45-19.75-7.34-4.46-4.89-6.69-12.4-6.69-22.52,0-6.35.03-13.16.1-20.42.06-7.26.1-16.27.1-27.03h-10.7v-10.04h11.28v-20.34h9.24v20.34h22.81v10.04h-22.81c0,1.2-.03,4.78-.1,10.73-.06,5.95-.1,10.35-.1,13.21v21.28c0,7.44,1.49,12.8,4.46,16.09,2.97,3.29,7.56,4.93,13.76,4.93.76,0,1.68-.01,2.74-.04,1.06-.03,1.74-.04,2.04-.04Z"/>
  <path d="M689.83,142.42c0,6.64-.88,12.99-2.64,19.05-1.76,6.06-4.3,11.24-7.61,15.53-2.8,3.6-5.91,6.35-9.33,8.24-3.42,1.89-7.29,2.83-11.63,2.83-4.08,0-7.9-.93-11.47-2.79s-6.75-4.59-9.56-8.19c-3.23-4.18-5.72-9.32-7.49-15.44-1.76-6.12-2.64-12.58-2.64-19.39s.75-12.63,2.26-18.15c1.51-5.52,3.85-10.48,7.04-14.89,2.85-4,6.16-7.08,9.94-9.22,3.78-2.15,7.77-3.22,11.98-3.22,4.42,0,8.42.99,12.01,2.96,3.59,1.97,6.79,4.93,9.59,8.88,3.23,4.52,5.63,9.6,7.2,15.23,1.57,5.63,2.36,11.83,2.36,18.58ZM679.64,143.02c0-5.38-.65-10.61-1.94-15.7-1.3-5.09-3.3-9.38-6.02-12.87-1.66-2.17-3.62-3.85-5.89-5.02-2.27-1.17-4.64-1.76-7.1-1.76-2.93,0-5.48.63-7.65,1.89-2.17,1.26-4.2,3.23-6.12,5.92-2.25,3.09-4.03,7.04-5.32,11.84-1.3,4.81-1.94,9.78-1.94,14.93,0,5.83.66,11.2,1.98,16.09,1.32,4.89,3.44,9.11,6.37,12.66,1.66,2,3.57,3.53,5.73,4.59s4.46,1.59,6.88,1.59c2.68,0,5.17-.63,7.49-1.89,2.31-1.26,4.34-3.09,6.08-5.49,2.42-3.32,4.27-7.32,5.54-12.01s1.91-9.61,1.91-14.76Z"/>
  <path d="M796.54,110.24c0,8.35-2,15.9-6.01,22.65-4.01,6.75-9.36,11.33-16.06,13.73-2.88,1.03-6.03,1.77-9.45,2.23-3.41.46-7.22.69-11.42.69l.13,36.3h-10.51c.04-3.43.11-9.8.19-19.09.08-9.3.13-23.67.13-43.12,0-6.18-.02-13.76-.06-22.74-.04-8.98-.13-18.96-.25-29.95,1.82-.06,3.62-.09,5.38-.09h4.3c7.34,0,13.59.63,18.74,1.89,5.16,1.26,9.49,3.4,13.01,6.44,3.86,3.26,6.81,7.51,8.84,12.74,2.04,5.23,3.06,11.34,3.06,18.32ZM785.71,110.24c0-5.89-1-10.91-2.99-15.06-2-4.15-5.05-7.42-9.17-9.82-2.55-1.49-5.31-2.42-8.28-2.79-2.97-.37-6.03-.56-9.17-.56h-2.36c0,.63-.04,4.92-.13,12.87-.09,7.95-.13,14.24-.13,18.88,0,4.23.01,9.24.03,15.02.02,5.78.03,9.07.03,9.87h2.55c2.85,0,5.87-.26,9.08-.77,3.21-.51,5.96-1.46,8.25-2.83,3.99-2.29,7.04-5.46,9.14-9.53,2.1-4.06,3.15-9.15,3.15-15.27Z"/>
  <path d="M860.63,136.92c0,14.19-.02,25.74-.06,34.67-.04,8.92-.06,13.73-.06,14.42-.43.06-2.4.27-5.93.64-3.53.37-8.07.56-13.63.56-3.48,0-6.99-.43-10.51-1.29-3.53-.86-6.56-2.09-9.11-3.69-3.4-2.12-6.15-5.01-8.25-8.67s-3.15-8.07-3.15-13.21c0-5.43,1.24-10.14,3.73-14.11,2.48-3.98,5.94-7.19,10.35-9.65,2.76-1.54,6.44-2.93,11.05-4.16,4.61-1.23,9.86-2.16,15.77-2.79-.25-4.46-1.08-8.12-2.48-10.98-1.4-2.86-3.46-5.03-6.18-6.52-1.87-1.03-3.95-1.76-6.24-2.19s-4.97-.64-8.03-.64c-1.91,0-3.54.06-4.87.17-1.34.11-3.15.26-5.45.43l1.02-11.41c.64-.06,1.9-.16,3.79-.3,1.89-.14,4.47-.21,7.74-.21,5.01,0,9.48.7,13.41,2.1,3.93,1.4,7.19,3.68,9.78,6.82,2.42,2.97,4.25,6.65,5.48,11.03,1.23,4.38,1.85,10.71,1.85,19.01ZM850.89,157.6v-7.38c0-2.97-.02-6.41-.06-10.3-1.87.11-5.14.61-9.81,1.5-4.67.89-8.6,2.16-11.79,3.82-2.38,1.2-4.49,3-6.34,5.41-1.85,2.4-2.77,5.38-2.77,8.92,0,3.89.78,7.02,2.36,9.4,1.57,2.37,3.72,4.19,6.43,5.45,2.08.97,4.38,1.67,6.91,2.1,2.53.43,5.19.64,8,.64.85,0,1.89-.03,3.12-.09,1.23-.06,2.53-.11,3.89-.17,0-.4.01-2.29.03-5.66.02-3.38.03-7.92.03-13.64Z"/>
  <path d="M926.31,160.69c0,4.23-.77,8.01-2.3,11.33-1.53,3.32-3.53,6.01-6,8.07-2.6,2.17-5.67,3.82-9.22,4.93-3.55,1.12-7.48,1.67-11.77,1.67-2.08,0-4.24-.13-6.48-.39s-3.5-.42-3.8-.47l-.38-11.24c.38.06,1.86.21,4.43.47,2.57.26,5.13.39,7.68.39,1.49,0,3.4-.17,5.73-.51,2.34-.34,4.27-.97,5.8-1.89,2.12-1.26,3.7-2.8,4.71-4.63s1.53-4.03,1.53-6.61c0-2.35-.45-4.25-1.34-5.71s-2.12-2.87-3.7-4.25c-1.7-1.54-4.03-3.19-6.98-4.93-2.95-1.75-5.43-3.42-7.42-5.02-2.85-2.35-5.02-5.12-6.53-8.32-1.51-3.2-2.26-6.92-2.26-11.16s.86-8.04,2.58-11.41c1.72-3.37,4.03-6.09,6.93-8.15,2.51-1.83,5.29-3.05,8.33-3.65,3.04-.6,5.99-.9,8.84-.9,2.59,0,4.72.06,6.38.17,1.66.11,2.62.17,2.87.17l.7,11.41c-.3,0-1.61-.11-3.93-.34-2.32-.23-4.86-.34-7.63-.34-1.96,0-3.82.23-5.59.69-1.77.46-3.27,1.12-4.5,1.97-1.83,1.26-3.14,2.77-3.93,4.55-.79,1.77-1.18,3.49-1.18,5.15,0,2.29.55,4.26,1.66,5.92s2.41,3.06,3.9,4.2c1.75,1.37,4.13,3,7.15,4.89s5.21,3.4,6.58,4.55c2.98,2.52,5.25,5.32,6.8,8.41,1.55,3.09,2.33,6.75,2.33,10.98Z"/>
  <path d="M989.76,175.19l-1.15,10.9c-.3.06-1.03.11-2.2.17-1.17.06-2.18.09-3.03.09-8.71,0-15.29-2.45-19.75-7.34-4.46-4.89-6.69-12.4-6.69-22.52,0-6.35.03-13.16.1-20.42.06-7.26.1-16.27.1-27.03h-10.7v-10.04h11.28v-20.34h9.24v20.34h22.81v10.04h-22.81c0,1.2-.03,4.78-.1,10.73-.06,5.95-.1,10.35-.1,13.21v21.28c0,7.44,1.49,12.8,4.46,16.09,2.97,3.29,7.56,4.93,13.76,4.93.76,0,1.68-.01,2.74-.04,1.06-.03,1.74-.04,2.04-.04Z"/>
  <path d="M1060.59,136.92c0,14.19-.02,25.74-.06,34.67-.04,8.92-.06,13.73-.06,14.42-.43.06-2.4.27-5.93.64-3.53.37-8.07.56-13.63.56-3.48,0-6.99-.43-10.51-1.29-3.53-.86-6.56-2.09-9.11-3.69-3.4-2.12-6.15-5.01-8.25-8.67s-3.15-8.07-3.15-13.21c0-5.43,1.24-10.14,3.73-14.11s5.94-7.19,10.35-9.65c2.76-1.54,6.44-2.93,11.05-4.16,4.61-1.23,9.86-2.16,15.77-2.79-.25-4.46-1.08-8.12-2.48-10.98-1.4-2.86-3.46-5.03-6.18-6.52-1.87-1.03-3.95-1.76-6.24-2.19s-4.97-.64-8.03-.64c-1.91,0-3.54.06-4.87.17-1.34.11-3.15.26-5.45.43l1.02-11.41c.64-.06,1.9-.16,3.79-.3,1.89-.14,4.47-.21,7.74-.21,5.01,0,9.48.7,13.41,2.1,3.93,1.4,7.19,3.68,9.78,6.82,2.42,2.97,4.25,6.65,5.48,11.03,1.23,4.38,1.85,10.71,1.85,19.01ZM1050.84,157.6v-7.38c0-2.97-.02-6.41-.06-10.3-1.87.11-5.14.61-9.81,1.5-4.67.89-8.6,2.16-11.79,3.82-2.38,1.2-4.49,3-6.34,5.41-1.85,2.4-2.77,5.38-2.77,8.92,0,3.89.78,7.02,2.36,9.4,1.57,2.37,3.72,4.19,6.43,5.45,2.08.97,4.38,1.67,6.91,2.1,2.53.43,5.19.64,8,.64.85,0,1.89-.03,3.12-.09,1.23-.06,2.53-.11,3.89-.17,0-.4.01-2.29.03-5.66.02-3.38.03-7.92.03-13.64Z"/>
</svg>