<?xml version="1.0" encoding="UTF-8"?>
<svg id="_レイヤー_1" data-name="レイヤー_1" xmlns="http://www.w3.org/2000/svg" version="1.1" viewBox="0 0 1080 263.15">
  <!-- Generator: Adobe Illustrator 29.8.1, SVG Export Plug-In . SVG Version: 2.1.1 Build 2)  -->
  <g>
    <path d="M83.07,145.29c0,3.35-.79,6.29-2.37,8.81-1.58,2.52-3.71,4.57-6.38,6.13-2.44,1.43-5.25,2.51-8.41,3.25s-6.67,1.1-10.51,1.1c-2.09,0-4.25-.07-6.48-.2-2.23-.13-3.53-.21-3.89-.24l-.39-7.03c.46.07,1.73.19,3.81.37,2.08.18,4.54.27,7.37.27,1.73,0,3.96-.23,6.69-.68s4.83-1.04,6.3-1.76c1.92-.94,3.39-2.08,4.42-3.42s1.54-3.03,1.54-5.08c0-2.18-.51-4.03-1.54-5.54s-2.73-2.97-5.1-4.37c-1.53-.91-3.52-1.94-5.96-3.08s-4.64-2.31-6.59-3.52c-3.32-2.02-5.69-4.22-7.1-6.62s-2.12-5.05-2.12-7.98.64-5.59,1.93-7.79c1.29-2.2,2.96-4.08,5.01-5.64,2.09-1.56,4.64-2.73,7.65-3.52s6.37-1.17,10.05-1.17c2.02,0,4.07.06,6.14.17,2.07.11,3.25.19,3.54.22l.68,7.08c-.29-.03-1.48-.15-3.56-.34-2.08-.2-4.66-.29-7.71-.29-1.82,0-3.7.2-5.64.61-1.94.41-3.64,1.03-5.1,1.88-1.3.75-2.41,1.79-3.32,3.12-.91,1.33-1.37,2.9-1.37,4.69,0,1.6.48,3.13,1.44,4.61.96,1.48,2.76,3,5.4,4.57,1.33.81,3.1,1.75,5.3,2.81,2.2,1.06,4.35,2.21,6.47,3.44,3.25,1.92,5.7,4.13,7.35,6.62,1.64,2.49,2.47,5.33,2.47,8.52Z"/>
    <path d="M138.34,137.19h-35.3c.03,3.45.76,6.62,2.2,9.5,1.43,2.88,3.63,5.27,6.59,7.15,1.89,1.2,4.04,2.11,6.45,2.71,2.41.6,5.31.9,8.69.9,1.86,0,3.56-.05,5.1-.15,1.55-.1,2.5-.16,2.86-.2l-.88,6.49c-.26.03-1.12.09-2.59.17s-3.19.12-5.18.12c-5.21,0-9.74-.68-13.6-2.03s-7.02-3.21-9.5-5.59c-2.12-1.99-3.91-4.52-5.4-7.62-1.48-3.09-2.22-6.53-2.22-10.3s.55-7.06,1.66-10.06c1.11-2.99,2.77-5.78,4.98-8.35,1.92-2.21,4.3-3.92,7.15-5.13,2.85-1.2,5.8-1.81,8.86-1.81s5.71.46,8.06,1.37c2.34.91,4.38,2.29,6.1,4.15,1.92,2.08,3.39,4.65,4.39,7.69,1.01,3.04,1.53,6.7,1.56,10.96ZM130.77,131.72c-.52-4.04-1.9-7.2-4.13-9.5-2.23-2.29-5.17-3.44-8.81-3.44s-6.69,1.16-9.13,3.49c-2.44,2.33-4.13,5.48-5.08,9.45h27.15Z"/>
    <path d="M186.09,157.65l-.88,6.2c-.23.03-.79.06-1.68.1-.9.03-1.67.05-2.32.05-6.67,0-11.72-1.39-15.14-4.17s-5.13-7.06-5.13-12.82c0-3.61.02-7.49.07-11.62s.07-9.26.07-15.38h-8.2v-5.71h8.64v-11.57h7.08v11.57h17.48v5.71h-17.48c0,.68-.02,2.72-.07,6.1-.05,3.39-.07,5.89-.07,7.52v12.11c0,4.23,1.14,7.28,3.42,9.16,2.28,1.87,5.79,2.81,10.55,2.81.59,0,1.29,0,2.1-.02.81-.02,1.33-.02,1.56-.02Z"/>
    <path d="M233.29,157.65l-.88,6.2c-.23.03-.79.06-1.68.1-.9.03-1.67.05-2.32.05-6.67,0-11.72-1.39-15.14-4.17s-5.13-7.06-5.13-12.82c0-3.61.02-7.49.07-11.62s.07-9.26.07-15.38h-8.2v-5.71h8.64v-11.57h7.08v11.57h17.48v5.71h-17.48c0,.68-.02,2.72-.07,6.1-.05,3.39-.07,5.89-.07,7.52v12.11c0,4.23,1.14,7.28,3.42,9.16,2.28,1.87,5.79,2.81,10.55,2.81.59,0,1.29,0,2.1-.02.81-.02,1.33-.02,1.56-.02Z"/>
    <path d="M295.64,163.6c-.29,0-2.46-.02-6.49-.05-4.04-.03-9.03-.05-14.99-.05-4.13,0-7.92.02-11.35.05-3.43.03-6.34.05-8.72.05.06-1.89.12-5.97.17-12.26s.07-12.78.07-19.48c0-3.68-.02-8.55-.05-14.6-.03-6.05-.1-12.32-.2-18.8,2.31,0,5.2.02,8.67.05,3.47.03,7.04.05,10.72.05,6.22,0,11.28-.02,15.19-.05,3.91-.03,6.02-.05,6.35-.05v6.79c-.33,0-2.37-.02-6.13-.07s-8.44-.07-14.04-.07c-2.44,0-4.83,0-7.18.02-2.34.02-4.2.02-5.57.02,0,3.68-.03,7.35-.1,11.01-.07,3.66-.1,7.12-.1,10.38,1.46,0,3.2,0,5.2.02,2,.02,3.78.02,5.35.02,5.73,0,10.85-.02,15.36-.07,4.51-.05,6.91-.07,7.2-.07v6.74c-.26,0-2.95-.02-8.06-.07-5.11-.05-9.78-.07-14.01-.07-1.56,0-3.43,0-5.59.02-2.17.02-3.98.02-5.44.02,0,6.15.02,11.04.05,14.65.03,3.61.06,6.64.1,9.08,1.92.03,4.25.06,6.98.07s5.68.02,8.84.02c4.85,0,8.93-.02,12.23-.05,3.3-.03,5.15-.05,5.54-.05v6.79Z"/>
    <path d="M397.35,131.04c0,5.27-.9,10.12-2.71,14.53-1.81,4.41-4.16,8.05-7.05,10.91-3.22,3.19-6.64,5.51-10.25,6.96-3.61,1.45-7.48,2.17-11.61,2.17s-7.84-.69-11.42-2.08c-3.58-1.38-6.8-3.44-9.66-6.18-3.16-2.96-5.7-6.7-7.63-11.21-1.94-4.51-2.9-9.58-2.9-15.21,0-5.01.76-9.58,2.29-13.7,1.53-4.12,3.82-7.82,6.88-11.11,2.83-3.06,6.2-5.43,10.1-7.1,3.9-1.68,8.02-2.51,12.34-2.51s8.46.79,12.2,2.37c3.74,1.58,6.98,3.77,9.71,6.57,3.19,3.26,5.6,7.09,7.25,11.5,1.64,4.41,2.46,9.11,2.46,14.09ZM389.05,131.82c0-4.23-.71-8.39-2.13-12.48-1.42-4.08-3.58-7.51-6.48-10.28-1.96-1.89-4.15-3.35-6.57-4.39-2.43-1.04-5.14-1.56-8.14-1.56s-5.66.53-8.19,1.59c-2.53,1.06-4.81,2.61-6.87,4.66-2.61,2.6-4.64,5.83-6.09,9.67-1.45,3.84-2.17,7.85-2.17,12.01,0,4.69.74,8.89,2.22,12.6s3.58,6.85,6.28,9.42c1.86,1.79,4.06,3.23,6.6,4.32,2.54,1.09,5.26,1.64,8.16,1.64s5.61-.53,8.14-1.59,4.81-2.58,6.87-4.57c2.44-2.34,4.45-5.33,6.01-8.96,1.56-3.63,2.35-7.66,2.35-12.08Z"/>
    <path d="M447.49,157.65l-.88,6.2c-.23.03-.79.06-1.68.1-.9.03-1.67.05-2.32.05-6.67,0-11.72-1.39-15.14-4.17s-5.13-7.06-5.13-12.82c0-3.61.02-7.49.07-11.62s.07-9.26.07-15.38h-8.2v-5.71h8.64v-11.57h7.08v11.57h17.48v5.71h-17.48c0,.68-.02,2.72-.07,6.1-.05,3.39-.07,5.89-.07,7.52v12.11c0,4.23,1.14,7.28,3.42,9.16,2.28,1.87,5.79,2.81,10.55,2.81.59,0,1.29,0,2.1-.02.81-.02,1.33-.02,1.56-.02Z"/>
    <path d="M494.7,157.65l-.88,6.2c-.23.03-.79.06-1.68.1-.9.03-1.67.05-2.32.05-6.67,0-11.72-1.39-15.14-4.17s-5.13-7.06-5.13-12.82c0-3.61.02-7.49.07-11.62s.07-9.26.07-15.38h-8.2v-5.71h8.64v-11.57h7.08v11.57h17.48v5.71h-17.48c0,.68-.02,2.72-.07,6.1-.05,3.39-.07,5.89-.07,7.52v12.11c0,4.23,1.14,7.28,3.42,9.16,2.28,1.87,5.79,2.81,10.55,2.81.59,0,1.29,0,2.1-.02.81-.02,1.33-.02,1.56-.02Z"/>
    <path d="M558.46,138.99c0,3.78-.68,7.39-2.03,10.84-1.35,3.45-3.3,6.4-5.83,8.84-2.15,2.05-4.53,3.61-7.15,4.69-2.62,1.07-5.59,1.61-8.91,1.61-3.12,0-6.05-.53-8.79-1.59s-5.18-2.61-7.32-4.66c-2.47-2.38-4.39-5.31-5.74-8.79-1.35-3.48-2.03-7.16-2.03-11.04s.58-7.19,1.73-10.33c1.16-3.14,2.95-5.96,5.4-8.47,2.18-2.28,4.72-4.03,7.62-5.25,2.9-1.22,5.96-1.83,9.18-1.83,3.38,0,6.45.56,9.2,1.68,2.75,1.12,5.2,2.81,7.35,5.05,2.47,2.57,4.31,5.46,5.52,8.67,1.2,3.21,1.81,6.73,1.81,10.57ZM550.65,139.34c0-3.06-.5-6.04-1.49-8.94-.99-2.9-2.53-5.34-4.61-7.32-1.27-1.24-2.78-2.19-4.52-2.86-1.74-.67-3.56-1-5.44-1-2.25,0-4.2.36-5.86,1.07-1.66.72-3.22,1.84-4.69,3.37-1.73,1.76-3.08,4-4.08,6.74-.99,2.73-1.49,5.57-1.49,8.5,0,3.32.5,6.37,1.51,9.16,1.01,2.78,2.64,5.18,4.88,7.2,1.27,1.14,2.73,2.01,4.39,2.61s3.42.9,5.27.9c2.05,0,3.96-.36,5.74-1.07,1.77-.72,3.33-1.76,4.66-3.12,1.86-1.89,3.27-4.17,4.25-6.84s1.46-5.47,1.46-8.4Z"/>
    <path d="M640.25,120.68c0,4.75-1.54,9.05-4.61,12.89-3.07,3.84-7.18,6.45-12.31,7.81-2.21.59-4.62,1.01-7.24,1.27-2.62.26-5.53.39-8.75.39l.1,20.65h-8.06c.03-1.95.08-5.57.15-10.86.06-5.29.1-13.47.1-24.54,0-3.52-.02-7.83-.05-12.94-.03-5.11-.1-10.79-.2-17.04,1.4-.03,2.77-.05,4.12-.05h3.29c5.62,0,10.41.36,14.36,1.07,3.95.72,7.28,1.94,9.97,3.66,2.96,1.86,5.22,4.27,6.78,7.25,1.56,2.98,2.34,6.45,2.34,10.42ZM631.95,120.68c0-3.35-.77-6.21-2.29-8.57-1.53-2.36-3.87-4.22-7.03-5.59-1.95-.85-4.07-1.38-6.35-1.59-2.28-.21-4.62-.32-7.03-.32h-1.81c0,.36-.03,2.8-.1,7.32-.07,4.52-.1,8.11-.1,10.74,0,2.41,0,5.26.02,8.55.02,3.29.02,5.16.02,5.62h1.95c2.18,0,4.5-.15,6.96-.44,2.46-.29,4.57-.83,6.32-1.61,3.06-1.3,5.4-3.11,7.01-5.42,1.61-2.31,2.42-5.21,2.42-8.69Z"/>
    <path d="M689.37,135.87c0,8.07-.02,14.65-.05,19.73-.03,5.08-.05,7.81-.05,8.2-.33.03-1.84.15-4.54.37-2.7.21-6.19.32-10.45.32-2.67,0-5.36-.24-8.06-.73-2.7-.49-5.03-1.19-6.98-2.1-2.6-1.2-4.71-2.85-6.32-4.93s-2.42-4.59-2.42-7.52c0-3.09.95-5.77,2.86-8.03s4.55-4.09,7.93-5.49c2.12-.88,4.94-1.67,8.47-2.37,3.53-.7,7.56-1.23,12.08-1.59-.2-2.54-.83-4.62-1.9-6.25-1.07-1.63-2.65-2.86-4.74-3.71-1.43-.59-3.03-1-4.79-1.25s-3.81-.37-6.15-.37c-1.46,0-2.71.03-3.74.1-1.03.07-2.42.15-4.17.24l.78-6.49c.49-.03,1.46-.09,2.91-.17,1.45-.08,3.43-.12,5.93-.12,3.84,0,7.27.4,10.28,1.2,3.01.8,5.51,2.09,7.5,3.88,1.86,1.69,3.25,3.78,4.2,6.27.94,2.49,1.42,6.1,1.42,10.82ZM681.9,147.64v-4.2c0-1.69-.02-3.65-.05-5.86-1.43.07-3.94.35-7.52.85-3.58.5-6.59,1.23-9.03,2.17-1.82.68-3.44,1.71-4.86,3.08s-2.12,3.06-2.12,5.08c0,2.21.6,4,1.81,5.35,1.2,1.35,2.85,2.38,4.93,3.1,1.59.55,3.36.95,5.3,1.2,1.94.24,3.98.37,6.13.37.65,0,1.45-.02,2.39-.05.94-.03,1.94-.07,2.98-.1,0-.23,0-1.3.02-3.22.02-1.92.02-4.51.02-7.76Z"/>
    <path d="M739.7,149.4c0,2.41-.59,4.56-1.76,6.45-1.17,1.89-2.71,3.42-4.6,4.59-1.99,1.24-4.35,2.17-7.07,2.81-2.72.63-5.73.95-9.02.95-1.6,0-3.25-.07-4.96-.22s-2.68-.24-2.91-.27l-.29-6.4c.29.03,1.42.12,3.39.27,1.97.15,3.93.22,5.88.22,1.14,0,2.6-.1,4.39-.29,1.79-.2,3.27-.55,4.44-1.07,1.63-.72,2.83-1.59,3.61-2.64s1.17-2.29,1.17-3.76c0-1.33-.34-2.42-1.03-3.25s-1.63-1.64-2.83-2.42c-1.3-.88-3.08-1.81-5.35-2.81-2.26-.99-4.16-1.95-5.69-2.86-2.18-1.33-3.85-2.91-5-4.74-1.16-1.82-1.73-3.94-1.73-6.35s.66-4.57,1.98-6.49c1.32-1.92,3.09-3.47,5.31-4.64,1.92-1.04,4.05-1.73,6.38-2.08,2.33-.34,4.59-.51,6.78-.51,1.99,0,3.62.03,4.89.1,1.27.07,2,.1,2.2.1l.54,6.49c-.23,0-1.23-.06-3.01-.2-1.78-.13-3.73-.2-5.85-.2-1.5,0-2.93.13-4.28.39-1.35.26-2.5.63-3.45,1.12-1.4.72-2.41,1.58-3.01,2.59-.6,1.01-.91,1.99-.91,2.93,0,1.3.42,2.43,1.27,3.37s1.84,1.74,2.99,2.39c1.34.78,3.17,1.71,5.48,2.78s4,1.94,5.04,2.59c2.28,1.43,4.02,3.03,5.21,4.79,1.19,1.76,1.79,3.84,1.79,6.25Z"/>
    <path d="M788.33,157.65l-.88,6.2c-.23.03-.79.06-1.68.1-.9.03-1.67.05-2.32.05-6.67,0-11.72-1.39-15.14-4.17s-5.13-7.06-5.13-12.82c0-3.61.02-7.49.07-11.62s.07-9.26.07-15.38h-8.2v-5.71h8.64v-11.57h7.08v11.57h17.48v5.71h-17.48c0,.68-.02,2.72-.07,6.1-.05,3.39-.07,5.89-.07,7.52v12.11c0,4.23,1.14,7.28,3.42,9.16,2.28,1.87,5.79,2.81,10.55,2.81.59,0,1.29,0,2.1-.02.81-.02,1.33-.02,1.56-.02Z"/>
    <path d="M842.62,135.87c0,8.07-.02,14.65-.05,19.73-.03,5.08-.05,7.81-.05,8.2-.33.03-1.84.15-4.54.37-2.7.21-6.19.32-10.45.32-2.67,0-5.36-.24-8.06-.73-2.7-.49-5.03-1.19-6.98-2.1-2.6-1.2-4.71-2.85-6.32-4.93s-2.42-4.59-2.42-7.52c0-3.09.95-5.77,2.86-8.03s4.55-4.09,7.93-5.49c2.12-.88,4.94-1.67,8.47-2.37,3.53-.7,7.56-1.23,12.08-1.59-.2-2.54-.83-4.62-1.9-6.25-1.07-1.63-2.65-2.86-4.74-3.71-1.43-.59-3.03-1-4.79-1.25s-3.81-.37-6.15-.37c-1.46,0-2.71.03-3.74.1-1.03.07-2.42.15-4.17.24l.78-6.49c.49-.03,1.46-.09,2.91-.17,1.45-.08,3.43-.12,5.93-.12,3.84,0,7.27.4,10.28,1.2,3.01.8,5.51,2.09,7.5,3.88,1.86,1.69,3.25,3.78,4.2,6.27.94,2.49,1.42,6.1,1.42,10.82ZM835.15,147.64v-4.2c0-1.69-.02-3.65-.05-5.86-1.43.07-3.94.35-7.52.85-3.58.5-6.59,1.23-9.03,2.17-1.82.68-3.44,1.71-4.86,3.08s-2.12,3.06-2.12,5.08c0,2.21.6,4,1.81,5.35,1.2,1.35,2.85,2.38,4.93,3.1,1.59.55,3.36.95,5.3,1.2,1.94.24,3.98.37,6.13.37.65,0,1.45-.02,2.39-.05.94-.03,1.94-.07,2.98-.1,0-.23,0-1.3.02-3.22.02-1.92.02-4.51.02-7.76Z"/>
  </g>
  <text/>
</svg>