<?xml version="1.0" encoding="UTF-8"?>
<svg id="_レイヤー_1" data-name="レイヤー_1" xmlns="http://www.w3.org/2000/svg" version="1.1" viewBox="0 0 1600.78 467.99">
  <!-- Generator: Adobe Illustrator 29.8.1, SVG Export Plug-In . SVG Version: 2.1.1 Build 2)  -->
  <defs>
    <style>
      .st0 {
        fill: none;
      }
    </style>
  </defs>
  <g>
    <path d="M38.47,38.99c3.77,6.65,8.11,11.93,13.08,15.78l-1.14,3.18c-4.97-3.99-9.22-9.27-12.72-15.73-3.23,6.08-7.46,11.31-12.72,15.78l-1.14-3.23c5.24-4.18,9.61-9.46,13.08-15.78h1.56ZM48.08,62.37v2.61c-1.95,7.7-5.84,13.59-11.71,17.58l-1.44-2.95c5.09-3.33,8.65-7.98,10.63-14.06h-18.5v-3.18h21.02ZM44.69,53.05v3.23h-14.04v-3.23h14.04Z"/>
    <path d="M79.6,81.75h-2.1v-2.04h-19.82v2.04h-2.1v-39.96h24.01v39.96ZM77.51,76.67v-31.84h-19.82v31.84h19.82ZM73.41,52.2v16.92h-11.56v-16.92h11.56ZM71.37,55.14h-7.51v11.07h7.51v-11.07Z"/>
    <path d="M106.58,49.44c2.16,3.23,3.26,7.22,3.26,11.97,0,5.32-1.02,9.46-2.99,12.5-1.8,2.76-4.61,4.75-8.41,5.99l-.75-3.23c3.56-1.09,6.14-2.95,7.72-5.51,1.44-2.38,2.19-5.65,2.19-9.74s-.93-7.22-2.78-9.79c-1.68-2.33-3.65-3.61-5.93-3.8l-.63,8.84c-.45,4.89-1.08,8.89-1.89,11.97-1.32,5.32-3.08,7.98-5.24,7.98-1.74,0-3.17-1.24-4.28-3.71-1.08-2.38-1.59-5.32-1.59-8.74,0-5.32,1.14-9.84,3.41-13.59,2.42-4.09,5.6-6.08,9.52-6.08,3.35,0,6.14,1.62,8.38,4.94ZM95.41,61.84c.6-4.23,1.05-8.89,1.29-13.92-2.37.38-4.4,1.9-6.08,4.47-2.1,3.14-3.11,7.08-3.11,11.78,0,2.66.36,4.85,1.08,6.6.66,1.71,1.53,2.57,2.54,2.57,1.74,0,3.17-3.85,4.28-11.5Z"/>
    <path d="M121.34,60.61v-4.7h2.16v4.7h5.93v3.33h-5.93v2.95c1.86,1.71,3.77,3.66,5.72,5.89l-1.26,3.04c-1.74-2.47-3.23-4.37-4.46-5.8v12.45h-2.16v-14.68c-1.8,4.61-3.86,8.46-6.26,11.5l-1.29-2.95c2.99-3.52,5.36-7.65,7.07-12.4h-6.05v-3.33h6.53ZM129.58,42.36c-3.77,1.9-8.77,2.85-15.06,2.85l-.63-3.04c5.87,0,10.78-.9,14.67-2.66l1.02,2.85ZM118.71,55.62l-1.77.71c-.6-2.85-1.35-5.61-2.25-8.17l1.71-.9c.87,2.42,1.65,5.23,2.31,8.36ZM123.56,53.29l-1.83,1.05c-.48-2.47-1.08-4.85-1.77-7.17l1.83-.81c.75,2.52,1.35,4.85,1.77,6.94ZM129.04,46.35c-.6,3.75-1.35,7.03-2.28,9.88l-1.74-1c.84-2.52,1.56-5.7,2.22-9.6l1.8.71ZM141.34,67.07c-2.84,6.13-6.41,11.21-10.66,15.25l-.99-3.23c4.13-3.66,7.51-8.51,10.18-14.59l1.47,2.57ZM139.13,41.13c-2.18,4.37-4.91,7.98-8.14,10.88l-.93-3.14c3.08-2.57,5.63-6.03,7.63-10.31l1.44,2.57ZM140.41,54c-2.4,4.7-5.36,8.6-8.92,11.69l-.96-3.14c3.44-2.8,6.26-6.51,8.47-11.07l1.41,2.52Z"/>
    <path d="M169.1,40.18v2.66h-10.66v2.33h11.59v8.22h-2.01v-5.65h-9.58v8.6h-2.04v-8.6h-9.58v5.65h-2.01v-8.22h11.59v-2.33h-10.66v-2.66h23.35ZM156.61,66.93h-8.53v2.9h8.56v2.66h-8.56v2.95h8.65v2.66h-8.65v4.47h-2.04v-24.42h10.57v8.79ZM154.76,64.41v-3.75h-6.68v3.75h6.68ZM154.73,55.38c-1.29.38-3.35.71-6.23.95l-.39-2.04c2.81-.19,4.88-.43,6.2-.81l.42,1.9ZM154.76,50.34l-.48,1.9c-1.86-.38-3.83-.62-5.87-.81l.63-1.9c1.98.19,3.86.43,5.72.81ZM169.19,68.73v2.33c-1.05,2.47-2.31,4.51-3.8,6.22,1.53,1.09,3.41,2.04,5.66,2.9l-.87,2.57c-2.63-1.05-4.79-2.28-6.47-3.75-1.86,1.62-3.98,2.8-6.38,3.56l-.84-2.66c2.04-.57,3.86-1.47,5.48-2.71-1.38-1.71-2.31-3.61-2.81-5.8h-1.17v-2.66h11.2ZM158.59,66.31v-2.42h8.11v-3.23h-8.08v-2.47h10.09v8.13h-10.12ZM166.67,54.48l-.54,2.04c-1.92-.57-3.92-.95-5.99-1.24l.57-1.81c2.07.24,4.04.57,5.96,1ZM160.24,50.34c2.1-.19,3.95-.57,5.57-1.14l.51,2.04c-1.68.48-3.62.85-5.84,1.09l-.24-2ZM163.56,75.77c1.2-1.24,2.28-2.71,3.17-4.37h-5.72c.39,1.62,1.23,3.04,2.54,4.37Z"/>
    <path d="M199.01,42.17v2.09c-.66,3.99-2.07,7.27-4.22,9.93,1.86,2.28,4.01,4.37,6.5,6.18l-1.32,2.42c-2.21-1.71-4.13-3.56-5.81-5.56v2.76h-12.36v-2.76c-1.98,2.38-4.34,4.28-7.09,5.8l-1.05-2.95c2.21-1.05,4.1-2.33,5.72-3.9-.84-1.47-1.83-2.99-3.02-4.56-.42.43-.81.86-1.17,1.24l-1.23-2.52c3.29-3.14,5.51-6.98,6.65-11.5l2.1.43c-.24,1-.54,1.95-.84,2.9h5.6v2.61c-1.02,4.8-2.78,8.84-5.33,12.07h11.74c-2.58-3.18-4.52-6.79-5.84-10.83l1.53-1.38c.96,2.76,2.25,5.27,3.8,7.6,1.74-2.23,2.9-4.66,3.5-7.27h-7.04v-2.8h9.19ZM182.63,72.34c-1.8,3.56-4.01,6.7-6.62,9.36l-1.29-2.71c2.54-2.47,4.7-5.37,6.44-8.7l1.47,2.04ZM198.89,64.98v3.23h-10v10.26c0,2.57-.84,3.9-2.49,3.9h-3.77l-.45-3.18c1.2.14,2.36.24,3.5.24.72,0,1.08-.62,1.08-1.76v-9.46h-10.9v-3.23h23.02ZM177.66,50.06c1.2,1.52,2.25,3.09,3.11,4.61.6-.76,1.17-1.52,1.68-2.38-.93-1.47-2-2.99-3.23-4.51-.51.81-1.02,1.57-1.56,2.28ZM185.41,45.02h-4.73c-.12.29-.27.57-.39.85,1.26,1.43,2.33,2.9,3.26,4.32.78-1.62,1.38-3.33,1.86-5.18ZM199.87,79.33l-1.5,2.38c-1.62-2.95-3.86-6.08-6.68-9.41l1.41-2.14c2.67,3.04,4.91,6.13,6.77,9.17Z"/>
    <path d="M229.16,47.21l-5.39.38c-.9,0-2.07.85-3.44,2.57-1.5,1.81-2.75,3.94-3.74,6.42-1.17,2.85-1.74,5.75-1.74,8.65,0,3.33.9,5.99,2.72,7.94,1.95,2,4.79,3.09,8.56,3.28l-.42,3.28c-4.37-.1-7.69-1.43-9.94-3.99-2.16-2.42-3.23-5.84-3.23-10.26,0-3.8.78-7.41,2.37-10.74,1.29-2.85,2.93-5.18,4.97-6.98-4.43.57-9.28,1.24-14.49,2.09l-.3-3.37c9.58-1.47,17.57-2.28,24.01-2.42l.06,3.18ZM227.24,60.47l-1.29,1.43c-.9-2.38-1.95-4.47-3.14-6.37l1.2-1.52c1.29,2,2.37,4.13,3.23,6.46ZM230.12,57.19l-1.29,1.47c-.9-2.38-1.95-4.51-3.11-6.37l1.17-1.47c1.32,2.04,2.4,4.18,3.23,6.37Z"/>
    <path d="M255.36,42.5h2.16v16.3h-9.16v17.44h8.44v-12.97h2.19v18.91h-2.19v-2.66h-19.1v2.66h-2.19v-18.91h2.19v12.97h8.44v-17.44h-9.16v-16.3h2.16v12.97h7.01v-16.58h2.21v16.58h7.01v-12.97Z"/>
    <path d="M279.49,43.6h11.02v3.33h-22.06v10.41c-.09,10.36-1.17,18.67-3.26,24.95l-1.62-2.28c1.77-5.42,2.69-12.97,2.75-22.67v-13.73h10.99c-.45-1.57-.96-2.99-1.5-4.32l2.25-.57c.48,1.43.96,3.09,1.44,4.89ZM280.06,48.92v5.65h9.88v3.23h-9.88v6.94h7.87v17.72h-2.13v-2.38h-12.63v2.38h-2.12v-17.72h6.83v-15.82h2.19ZM285.8,76.86v-8.93h-12.63v8.93h12.63Z"/>
    <path d="M311.43,39.89l.09,6.46,8.29-.19v3.18l-8.26.19v.38c.06,6.6.12,10.64.12,12.12,0,5.42-.69,9.46-2.07,12.16-1.29,2.47-3.68,4.75-7.16,6.75l-1.05-3.09c2.12-1.09,3.8-2.33,5-3.71,1.38-1.57,2.34-3.61,2.87-6.18-.9,2-2.07,2.99-3.5,2.99-1.86,0-3.29-.9-4.37-2.66-1.02-1.71-1.5-3.8-1.5-6.27s.48-4.42,1.47-6.13c1.08-1.9,2.54-2.85,4.4-2.85,1.74,0,3.02,1.09,3.86,3.28-.12-1.52-.21-3.33-.21-5.51l-.03-1.24-14.64.33v-3.18l14.61-.33-.09-6.51h2.16ZM302.96,58.04c-.66,1.09-.96,2.42-.96,3.99,0,1.66.33,3.04.99,4.09.66,1.09,1.59,1.66,2.78,1.66,1.08,0,2.01-.57,2.72-1.71.66-1.14,1.02-2.47,1.02-3.9,0-1.71-.36-3.14-1.05-4.28-.72-1.19-1.62-1.76-2.69-1.76-1.2,0-2.13.62-2.81,1.9Z"/>
    <path d="M344.58,44.83c-3.17,4.18-6.89,9.12-11.14,14.92,2.33-2.19,4.55-3.23,6.65-3.23,2.49,0,4.43.95,5.84,2.85,1.38,1.9,2.07,4.47,2.07,7.79,0,3.71-1.05,6.7-3.08,8.98-2.1,2.28-4.7,3.42-7.81,3.42-2.04,0-3.65-.62-4.85-1.85-1.2-1.28-1.77-2.95-1.77-5.04,0-1.9.42-3.47,1.29-4.7.9-1.38,2.1-2.04,3.59-2.04,2.04,0,3.62,1,4.79,3.09.87,1.47,1.5,3.47,1.86,5.94l.75-.62c2.01-1.81,3.02-4.23,3.02-7.18,0-2.52-.57-4.42-1.65-5.7-1.02-1.19-2.42-1.76-4.28-1.76-2.12,0-4.34.86-6.68,2.57-2.01,1.52-3.86,3.47-5.54,5.89l-1.44-2.42,14.67-20.24-12.33.95-.12-3.33,14.91-.76,1.26,2.47ZM339.82,75.1c-.69-4.04-2.19-6.03-4.46-6.03-.84,0-1.5.33-1.98,1.05-.51.67-.75,1.52-.75,2.52s.3,1.85.96,2.57c.78.86,1.95,1.28,3.5,1.28,1.02,0,1.95-.19,2.84-.48-.06-.38-.09-.67-.12-.9Z"/>
    <path d="M369.31,43.6h11.02v3.33h-22.06v10.41c-.09,10.36-1.17,18.67-3.26,24.95l-1.62-2.28c1.77-5.42,2.69-12.97,2.75-22.67v-13.73h10.99c-.45-1.57-.96-2.99-1.5-4.32l2.25-.57c.48,1.43.96,3.09,1.44,4.89ZM369.88,48.92v5.65h9.88v3.23h-9.88v6.94h7.87v17.72h-2.13v-2.38h-12.63v2.38h-2.12v-17.72h6.83v-15.82h2.19ZM375.63,76.86v-8.93h-12.63v8.93h12.63Z"/>
    <path d="M390.42,39.46c1.68,2.47,3.5,5.51,5.48,9.12l-1.29,2.71c-2.01-3.85-3.62-6.7-4.82-8.51-1.35,3.52-3.2,7.03-5.57,10.55l-1.26-2.8c2.39-3.42,4.4-7.08,5.96-11.07h1.5ZM388.86,52.67v-4.75h1.98v4.75h3.2v2.95h-3.2v3.99h4.31v3.04h-10.63v-3.04h4.34v-3.99h-3.2v-2.95h3.2ZM394.46,81.8h-2.01v-2.14h-5.21v2.61h-1.98v-16.11h9.19v15.63ZM392.45,76.72v-7.65h-5.21v7.65h5.21ZM402,44.69v-5.61h2.04v5.61h3.65c-.6-1.52-1.35-3.09-2.25-4.8l1.44-1.43c1.02,1.9,1.77,3.52,2.31,4.94l-1.14,1.28h2.48v3.09h-6.5v4.7h5.54v25.47c0,2.85-.84,4.28-2.48,4.28h-1.62l-.51-3.09,1.5.14c.72,0,1.08-.67,1.08-2v-5.23h-3.5v10.22h-2.04v-10.22h-3.41v10.36h-1.98v-29.94h5.39v-4.7h-6.23v-3.09h6.23ZM398.59,55.52v5.46h3.41v-5.46h-3.41ZM398.59,69.11h3.41v-5.18h-3.41v5.18ZM407.54,55.52h-3.5v5.46h3.5v-5.46ZM407.54,63.93h-3.5v5.18h3.5v-5.18Z"/>
    <path d="M422.54,82.37h-2.16v-16.77c-1.86.95-3.8,1.81-5.9,2.61l-1.14-3.28c5.18-1.71,9.49-3.9,12.93-6.65-1.32-1.76-3.11-3.66-5.39-5.7l1.86-1.85c2.27,2.23,4.07,4.23,5.36,5.99,3.05-2.9,5.27-6.27,6.68-10.17h-11.08c-2.04,2.99-4.61,5.65-7.78,8.03l-1.44-2.95c5.12-3.47,8.56-7.75,10.36-12.78l2.36.43c-.48,1.43-1.02,2.76-1.62,4.04h11.68v3.04c-2.16,6.51-6.02,11.83-11.65,15.97h12.48v20.05h-2.19v-2.8h-13.38v2.8ZM435.93,65.5h-13.38v10.74h13.38v-10.74Z"/>
    <path d="M449.31,41.79c-.9,6.42-1.32,13.68-1.32,21.81,0,5.8.54,10.83,1.65,15.16l-2.07,1.19c-1.23-4.56-1.83-9.98-1.83-16.35,0-8.17.42-15.63,1.32-22.38l2.25.57ZM469.49,51.96c-1.5.33-3.17.57-5.06.76.18,6.37.27,11.4.3,15.06,1.86,1.52,3.77,3.75,5.72,6.6l-1.35,2.61c-1.74-2.47-3.2-4.32-4.46-5.56-.18,2-.6,3.66-1.26,5.04-1.08,2.14-2.72,3.23-4.88,3.23-1.71,0-3.08-.57-4.16-1.62-1.26-1.28-1.89-3.14-1.89-5.56s.54-4.23,1.68-5.56c1.08-1.33,2.46-1.95,4.16-1.95,1.35,0,2.72.38,4.13,1.14-.03-3.18-.12-7.6-.27-13.3-1.29.05-2.63.1-4.04.1-2.19,0-4.13-.1-5.84-.24l-.03-3.47c1.92.19,3.89.29,5.87.29,1.38,0,2.69-.05,3.95-.09l-.27-8.51,2.28-.05c.09,2.99.18,5.8.27,8.41,1.92-.19,3.62-.43,5.12-.76l.03,3.42ZM458.29,68.31c-1.08,0-1.95.33-2.54,1.09-.66.76-.99,1.81-.99,3.14,0,1.43.42,2.47,1.29,3.14.6.48,1.44.71,2.46.71,1.38,0,2.42-.76,3.08-2.23.48-1.14.78-2.61.84-4.47-1.38-.95-2.75-1.38-4.13-1.38Z"/>
    <path d="M51.73,121.61v9.03h-4.94v20.1h-5.69v-29.13h10.63ZM42.63,148.31h2.6v-20.1h4.91v-4.18h-7.51v24.28Z"/>
    <path d="M67.66,128.92c1.44,1.81,2.25,4.51,2.46,8.08h-2.42c-.27-2.47-.87-4.28-1.8-5.46-.96-1.24-2.31-1.81-4.04-1.81-1.59,0-2.81.38-3.71,1.24-1.02.95-1.53,2.38-1.53,4.32,0,1.71.6,3.09,1.83,4.13.54.48,1.86,1.19,3.92,2.14,2.81,1.33,4.67,2.42,5.57,3.28,1.77,1.71,2.67,4.09,2.67,7.18s-.75,5.32-2.25,7.03c-1.5,1.66-3.5,2.52-6.05,2.52s-4.49-.85-5.93-2.57c-1.68-2.04-2.6-5.13-2.78-9.31h2.42c.21,2.95.87,5.13,1.95,6.51.99,1.24,2.42,1.9,4.34,1.9,1.74,0,3.17-.52,4.25-1.57,1.08-1.05,1.62-2.47,1.62-4.28,0-2.14-.72-3.8-2.13-4.99-.6-.57-2.13-1.38-4.52-2.47-2.58-1.24-4.22-2.19-4.91-2.76-1.65-1.52-2.45-3.71-2.45-6.56s.78-5.27,2.36-6.89c1.41-1.52,3.23-2.28,5.45-2.28,2.39,0,4.31.85,5.69,2.61Z"/>
    <path d="M85.41,139.66c1.14,2.38,1.74,5.75,1.8,10.03h-12.21c.12,2.76.57,4.89,1.41,6.41.84,1.52,2.01,2.28,3.47,2.28,1.26,0,2.31-.52,3.08-1.52.66-.85,1.17-2.14,1.56-3.85h2.4c-.36,2.38-1.05,4.28-2.1,5.8-1.29,1.81-2.93,2.76-4.94,2.76-2.21,0-4.01-1.19-5.33-3.47-1.38-2.38-2.04-5.51-2.04-9.5,0-3.61.63-6.65,1.95-9.08,1.32-2.57,3.08-3.85,5.33-3.85,2.49,0,4.37,1.33,5.63,3.99ZM76.52,140.99c-.84,1.43-1.32,3.33-1.47,5.75h9.67c-.3-5.27-1.95-7.89-4.88-7.89-1.38,0-2.49.71-3.32,2.14Z"/>
    <path d="M94.16,136.34h3.83v3.18h-3.83v15.63c0,.9.09,1.57.33,1.95.21.38.6.62,1.14.62h1.98v3.18h-2.33c-1.26,0-2.19-.52-2.72-1.57-.51-.95-.75-2.33-.75-4.18v-15.63h-3.11v-3.18h3.11v-6.37l2.37-1.57v7.94Z"/>
    <path d="M104.79,136.34h3.83v3.18h-3.83v15.63c0,.9.09,1.57.33,1.95.21.38.6.62,1.14.62h1.98v3.18h-2.33c-1.26,0-2.19-.52-2.72-1.57-.51-.95-.75-2.33-.75-4.18v-15.63h-3.11v-3.18h3.11v-6.37l2.37-1.57v7.94Z"/>
    <path d="M123.29,139.66c1.14,2.38,1.74,5.75,1.8,10.03h-12.21c.12,2.76.57,4.89,1.41,6.41.84,1.52,2.01,2.28,3.47,2.28,1.26,0,2.31-.52,3.08-1.52.66-.85,1.17-2.14,1.56-3.85h2.4c-.36,2.38-1.05,4.28-2.1,5.8-1.29,1.81-2.93,2.76-4.94,2.76-2.21,0-4.01-1.19-5.33-3.47-1.38-2.38-2.04-5.51-2.04-9.5,0-3.61.63-6.65,1.95-9.08,1.32-2.57,3.08-3.85,5.33-3.85,2.49,0,4.37,1.33,5.63,3.99ZM114.4,140.99c-.84,1.43-1.32,3.33-1.47,5.75h9.67c-.3-5.27-1.95-7.89-4.88-7.89-1.38,0-2.49.71-3.32,2.14Z"/>
    <path d="M155.08,131.39c1.74,3.23,2.63,7.41,2.63,12.59s-.9,9.27-2.63,12.5c-1.86,3.37-4.4,5.08-7.6,5.08s-5.72-1.71-7.57-5.08c-1.77-3.23-2.63-7.41-2.63-12.5s.87-9.31,2.63-12.54c1.86-3.42,4.37-5.13,7.6-5.13s5.72,1.66,7.57,5.08ZM141.7,133.82c-1.32,2.57-1.98,5.94-1.98,10.17s.66,7.55,1.98,10.12c1.38,2.66,3.32,3.99,5.78,3.99s4.4-1.33,5.78-3.9c1.32-2.57,2.01-5.94,2.01-10.22s-.69-7.75-2.01-10.31c-1.38-2.61-3.29-3.9-5.75-3.9s-4.4,1.33-5.81,4.04Z"/>
    <path d="M164.97,136.34h3.83v3.18h-3.83v15.63c0,.9.09,1.57.33,1.95.21.38.6.62,1.14.62h1.98v3.18h-2.33c-1.26,0-2.19-.52-2.72-1.57-.51-.95-.75-2.33-.75-4.18v-15.63h-3.11v-3.18h3.11v-6.37l2.37-1.57v7.94Z"/>
    <path d="M175.59,136.34h3.83v3.18h-3.83v15.63c0,.9.09,1.57.33,1.95.21.38.6.62,1.14.62h1.98v3.18h-2.33c-1.26,0-2.19-.52-2.72-1.57-.51-.95-.75-2.33-.75-4.18v-15.63h-3.11v-3.18h3.11v-6.37l2.37-1.57v7.94Z"/>
    <path d="M194.55,139.47c1.32,2.42,1.98,5.46,1.98,9.17s-.66,6.7-1.95,9.08c-1.41,2.57-3.26,3.85-5.57,3.85s-4.16-1.28-5.54-3.85c-1.32-2.38-1.98-5.42-1.98-9.08s.66-6.75,1.98-9.17c1.38-2.57,3.2-3.8,5.54-3.8s4.16,1.24,5.54,3.8ZM185.18,141.85c-.84,1.81-1.23,4.04-1.23,6.79s.39,4.94,1.23,6.75c.9,2,2.19,2.99,3.83,2.99s2.9-1,3.86-2.99c.81-1.81,1.23-4.09,1.23-6.75s-.42-4.99-1.23-6.79c-.96-2-2.25-2.99-3.86-2.99s-2.93,1-3.83,2.99Z"/>
    <path d="M218.65,126.98c4.91,0,7.36,3.33,7.36,9.98s-2.48,10.07-7.39,10.07h-6.26v13.87h-2.46v-33.93h8.74ZM212.36,143.65h6.14c1.74,0,2.99-.57,3.83-1.66.81-1.09,1.23-2.76,1.23-5.04s-.42-3.94-1.26-4.94c-.84-1.14-2.1-1.66-3.8-1.66h-6.14v13.3Z"/>
    <path d="M240.47,138.43c.9,1.62,1.38,3.85,1.38,6.7v15.78h-2.25v-4.13c-.6,1.33-1.41,2.42-2.37,3.28-1.14,1-2.42,1.52-3.86,1.52-1.56,0-2.78-.62-3.71-1.85-.96-1.28-1.44-2.95-1.44-4.94,0-2.8.69-4.89,2.12-6.32,1.26-1.33,3.05-2.04,5.39-2.09l3.71-.09v-1.28c0-4.13-1.35-6.18-4.04-6.18-1.14,0-2.07.33-2.78,1.09-.81.76-1.32,1.95-1.56,3.52l-2.37-.29c.33-2.57,1.14-4.51,2.4-5.75,1.14-1.14,2.6-1.71,4.46-1.71,2.22,0,3.83.9,4.91,2.76ZM235.89,149.21c-3.47.1-5.21,1.9-5.21,5.46,0,1.14.27,2.04.87,2.8.6.71,1.38,1.09,2.34,1.09,1.47,0,2.75-.76,3.89-2.28,1.11-1.47,1.68-3.18,1.68-5.08v-2.09l-3.56.09Z"/>
    <path d="M257.39,143.32h-2.33c-.21-1.52-.6-2.66-1.2-3.33-.66-.76-1.62-1.14-2.84-1.14-1.08,0-1.92.29-2.51.95-.66.62-.99,1.47-.99,2.57s.42,1.95,1.32,2.66c.57.43,1.65.95,3.2,1.62,1.86.71,3.17,1.47,3.98,2.28,1.23,1.24,1.86,2.9,1.86,5.04,0,5.04-2.19,7.6-6.56,7.6-4.07,0-6.29-2.85-6.65-8.51h2.33c.18,1.95.63,3.33,1.29,4.18.66.76,1.65,1.14,2.96,1.14,2.75,0,4.16-1.43,4.16-4.18,0-1.38-.51-2.42-1.47-3.18-.51-.38-1.62-.9-3.29-1.57-1.83-.71-3.11-1.43-3.83-2.19-1.2-1.14-1.77-2.71-1.77-4.8s.57-3.71,1.74-4.94c1.08-1.24,2.51-1.85,4.25-1.85,3.83,0,5.93,2.52,6.35,7.65Z"/>
    <path d="M264.82,136.34h3.83v3.18h-3.83v15.63c0,.9.09,1.57.33,1.95.21.38.6.62,1.14.62h1.98v3.18h-2.33c-1.26,0-2.19-.52-2.72-1.57-.51-.95-.75-2.33-.75-4.18v-15.63h-3.11v-3.18h3.11v-6.37l2.37-1.57v7.94Z"/>
    <path d="M282.96,138.43c.9,1.62,1.38,3.85,1.38,6.7v15.78h-2.25v-4.13c-.6,1.33-1.41,2.42-2.37,3.28-1.14,1-2.42,1.52-3.86,1.52-1.56,0-2.78-.62-3.71-1.85-.96-1.28-1.44-2.95-1.44-4.94,0-2.8.69-4.89,2.12-6.32,1.26-1.33,3.05-2.04,5.39-2.09l3.71-.09v-1.28c0-4.13-1.35-6.18-4.04-6.18-1.14,0-2.07.33-2.78,1.09-.81.76-1.32,1.95-1.56,3.52l-2.37-.29c.33-2.57,1.14-4.51,2.4-5.75,1.14-1.14,2.6-1.71,4.46-1.71,2.22,0,3.83.9,4.91,2.76ZM278.38,149.21c-3.47.1-5.21,1.9-5.21,5.46,0,1.14.27,2.04.87,2.8.6.71,1.38,1.09,2.34,1.09,1.47,0,2.75-.76,3.89-2.28,1.11-1.47,1.68-3.18,1.68-5.08v-2.09l-3.56.09Z"/>
    <path d="M304.4,121.61c-1.23,3.14-2.18,6.41-2.84,9.84-.9,4.18-1.32,8.27-1.32,12.35s.42,8.17,1.32,12.35c.66,3.37,1.62,6.65,2.84,9.84h-2.09c-1.32-3.09-2.34-6.37-3.08-9.79-.9-4.09-1.32-8.22-1.32-12.35s.42-8.36,1.32-12.45c.75-3.47,1.77-6.75,3.08-9.79h2.09Z"/>
    <path d="M318.05,123.7l-.12,12.35,14.04-3.23,1.56,1.81c-2.39,6.75-5.3,12.31-8.65,16.73l-1.56-2.71c2.57-3.37,4.82-7.41,6.74-12.07l-12.15,2.9c-.06,5.61-.06,10.74-.06,15.3,0,1.85.42,3.09,1.26,3.75.78.57,2.33.9,4.61.9,2.72,0,5.69-.29,8.89-.85l-.03,3.47c-3.47.52-6.41.81-8.86.81-3.11,0-5.24-.48-6.32-1.43-1.29-1.09-1.92-3.28-1.92-6.51,0-4.47,0-9.46.06-14.87l-6.38,1.52-.39-3.42,6.8-1.57c.03-4.09.09-8.36.15-12.88h2.33Z"/>
    <path d="M347.42,147.36l-1.86,1.81c-1.17-3.52-2.42-6.84-3.8-9.98l1.89-1.81c1.5,3.52,2.75,6.84,3.77,9.98ZM360.26,136.48c-.78,6.7-2.12,12.21-4.07,16.49-2.13,4.51-5.09,7.94-8.86,10.26l-1.26-2.95c3.53-2.23,6.26-5.32,8.17-9.31,1.8-3.8,3.05-8.84,3.77-15.11l2.25.62ZM350.95,139.71c.66,1.62,1.23,3.28,1.77,4.89l-1.89,1.76c-.99-2.99-2.25-6.37-3.8-10.07l1.86-1.71c.81,1.95,1.5,3.66,2.07,5.13Z"/>
    <path d="M393.11,138.38v3.42h-10.81c-.15,5.08-.78,9.22-1.86,12.4-1.29,3.71-3.53,6.94-6.74,9.79l-1.56-2.76c2.87-2.47,4.91-5.32,6.08-8.51,1.02-2.76,1.59-6.41,1.71-10.93h-11.44v-3.42h24.61ZM389.75,126.74v3.42h-18.65v-3.42h18.65Z"/>
    <path d="M426.1,123.79v8.55h6.86v3.42h-6.86v22.43c0,3.42-1.17,5.13-3.44,5.13-1.05,0-2.4-.19-4.04-.48v-3.42c1.74.38,3.02.62,3.92.62.78,0,1.2-.67,1.2-1.95v-18.72c-.9,2.85-2.69,6.32-5.39,10.45-2.66,4.09-5.24,7.32-7.75,9.74l-1.5-2.95c2.69-2.66,5.27-5.75,7.66-9.31,2.51-3.75,4.58-7.6,6.23-11.55h-13.23v-3.42h13.98v-8.55h2.37Z"/>
    <path d="M447.21,147.36l-1.86,1.81c-1.17-3.52-2.42-6.84-3.8-9.98l1.89-1.81c1.5,3.52,2.75,6.84,3.77,9.98ZM460.05,136.48c-.78,6.7-2.12,12.21-4.07,16.49-2.13,4.51-5.09,7.94-8.86,10.26l-1.26-2.95c3.53-2.23,6.26-5.32,8.17-9.31,1.8-3.8,3.05-8.84,3.77-15.11l2.25.62ZM450.74,139.71c.66,1.62,1.23,3.28,1.77,4.89l-1.89,1.76c-.99-2.99-2.25-6.37-3.8-10.07l1.86-1.71c.81,1.95,1.5,3.66,2.07,5.13Z"/>
    <path d="M477.72,123.84v15.06c2.25.62,4.64,1.62,7.16,2.95,2.33,1.19,4.52,2.57,6.56,4.13l-1.02,3.14c-1.86-1.43-3.89-2.71-6.05-3.85-2.37-1.24-4.58-2.19-6.65-2.76v21.33h-2.37v-40.01h2.37Z"/>
    <path d="M516.82,129.02c-.33,6.27-1.11,12.16-2.33,17.77-1.29,5.75-2.99,10.93-5.15,15.49l-2.19-1.76c2.13-4.37,3.8-9.27,5.06-14.78,1.23-5.42,1.98-11.12,2.25-17.15l2.36.43ZM530.14,143.37c1.77,6.37,3.08,12.4,3.92,18.01l-2.36.76c-.81-5.42-2.07-11.26-3.77-17.49-1.68-6.08-3.41-11.21-5.21-15.44l2.04-1.71c1.86,4.42,3.65,9.69,5.39,15.87ZM533.62,123.55c.6.95.93,2.14.93,3.56,0,1.33-.33,2.52-.93,3.52-.63.95-1.38,1.43-2.22,1.43s-1.62-.48-2.21-1.43c-.63-1-.93-2.19-.93-3.52,0-1.43.3-2.61.93-3.56.6-1,1.35-1.47,2.21-1.47s1.59.48,2.22,1.47ZM530.12,125.03c-.36.57-.54,1.24-.54,2.09,0,.76.18,1.47.54,2.04.36.52.78.81,1.29.81.48,0,.93-.29,1.29-.81.36-.57.54-1.28.54-2.04,0-.86-.18-1.52-.54-2.09s-.81-.86-1.29-.86c-.51,0-.93.29-1.29.86Z"/>
    <path d="M551.34,149.17c-3.14,5.61-7.16,10.36-12.04,14.25l-1.44-3.04c8.32-6.32,14.22-16.01,17.69-29.03h-14.64v-3.47h16.29l1.47,1.57c-1.65,6.46-3.59,12.07-5.81,16.77,1.77,1.9,3.5,3.94,5.21,6.13,2.42,3.09,4.37,5.89,5.81,8.46l-1.83,2.42c-1.38-2.42-3.23-5.13-5.57-8.12-1.74-2.28-3.44-4.28-5.09-6.03l-.06.1Z"/>
    <path d="M580.27,124.31c-.36,1.62-.75,3.23-1.23,4.85h10.18l1.44,1.28c-.78,7.46-2.54,14.06-5.36,19.86-2.96,6.03-6.74,10.5-11.29,13.35l-1.26-3.18c4.07-2.57,7.45-6.32,10.15-11.26.09-.19.18-.33.27-.52-.84-.95-1.77-1.95-2.72-2.95-1.62-1.66-3.11-3.04-4.46-4.09l1.38-2.66c1.38,1.14,2.87,2.47,4.43,3.99.99.95,1.89,1.9,2.72,2.85,1.68-3.99,2.87-8.36,3.53-13.21h-10.18c-.48,1.33-1.02,2.61-1.59,3.9-1.68,3.66-3.56,6.84-5.72,9.55l-1.59-2.47c2.1-2.76,3.95-5.89,5.57-9.41,1.59-3.61,2.75-7.27,3.53-10.98l2.19,1.09Z"/>
    <path d="M599.37,121.61c1.29,3.04,2.31,6.32,3.08,9.79.87,4.09,1.32,8.22,1.32,12.45s-.45,8.27-1.32,12.35c-.78,3.42-1.8,6.7-3.08,9.79h-2.1c1.2-3.18,2.16-6.46,2.84-9.84.87-4.18,1.32-8.32,1.32-12.35s-.45-8.17-1.32-12.35c-.69-3.42-1.65-6.7-2.84-9.84h2.1Z"/>
    <path d="M617.03,136.86v29.13h-10.63v-9.03h4.94v-20.1h5.69ZM612.9,159.38h-4.91v4.18h7.51v-24.28h-2.6v20.1Z"/>
    <path d="M649.1,133.72c.21,1.71.57,3.33,1.05,4.85,2.37-1.43,5.33-2.85,8.86-4.32l.84,3.23c-4.91,2-8.71,3.99-11.35,5.99-3.95,2.9-5.9,6.08-5.9,9.5,0,4.32,2.99,6.51,8.98,6.51,2.93,0,5.9-.33,8.83-.9l.21,3.52c-3.05.52-6.08.81-9.04.81-3.86,0-6.71-.81-8.53-2.38-1.89-1.62-2.81-4.09-2.81-7.46,0-4.56,2.04-8.5,6.14-11.88.48-.43,1.02-.85,1.62-1.24-.6-1.95-1.02-4.09-1.26-6.46-.3-2.52-.48-5.94-.54-10.31l2.3-.1c.06,4.61.27,8.17.6,10.64Z"/>
    <path d="M681.64,133.01c-1.86.24-3.83.43-5.9.57-.45,2.42-.96,4.8-1.5,7.13-1.41,5.94-3.02,11.17-4.88,15.63l-1.92-1.95c1.8-4.09,3.38-9.12,4.76-15.11.42-1.81.81-3.66,1.17-5.56-1.65.05-3.35.1-5.09.1v-3.28c1.98,0,3.86-.05,5.69-.14.42-2.52.78-5.08,1.11-7.75l2.21.76c-.3,2.28-.63,4.56-.99,6.84,1.8-.14,3.53-.33,5.18-.52l.15,3.28ZM687.12,150.88c2.1,1.43,4.28,3.66,6.5,6.65l-1.44,2.61c-1.86-2.47-3.53-4.32-5.03-5.56-.06,2.95-.6,5.13-1.62,6.65-1.02,1.47-2.42,2.23-4.22,2.23s-3.17-.57-4.25-1.62c-1.32-1.28-1.95-3.14-1.95-5.56s.57-4.28,1.77-5.65c1.05-1.28,2.42-1.9,4.1-1.9,1.26,0,2.57.29,3.89.86-.06-3.14-.18-7.13-.33-11.88l2.25-.19c.18,5.51.27,9.98.33,13.35ZM680.99,151.97c-1.14,0-2.04.43-2.69,1.33-.63.81-.93,1.81-.93,2.99,0,1.33.39,2.33,1.23,3.04.69.57,1.59.9,2.72.9s2.01-.57,2.67-1.71c.6-1.14.93-2.71.93-4.7v-.76c-1.32-.76-2.63-1.09-3.92-1.09ZM689.1,130.4c1.44,1.38,2.75,2.9,3.95,4.56l-1.47,2.52c-1.11-1.52-2.37-2.95-3.74-4.28-1.38-1.28-2.72-2.23-3.98-2.9l.87-3.09c1.41.76,2.87,1.81,4.37,3.18Z"/>
    <path d="M704.67,126.41c-.36,1.81-.69,4.13-.96,6.94-.27,2.85-.39,5.27-.39,7.22,0,3.04.18,5.42.6,7.03.3-2.38.78-4.42,1.5-6.22l1.83,1.38c-.96,2.47-1.71,5.46-2.25,8.98l-1.86.52c-.75-1.33-1.29-3.18-1.65-5.61-.3-1.9-.42-3.94-.42-6.08,0-2.66.15-5.42.45-8.27.24-2.57.57-4.85.99-6.89l2.16,1ZM719.52,140c0,6.13-.81,11.02-2.39,14.73-1.56,3.61-4.22,6.7-7.93,9.31l-1.29-3.04c3.41-2.28,5.84-4.94,7.21-8.08,1.38-3.14,2.07-7.46,2.07-12.92,0-5.13-.36-9.69-1.08-13.68l2.25-.86c.78,4.18,1.17,9.03,1.17,14.54Z"/>
    <path d="M751.43,132.34c-3.32.19-6.53.33-9.61.43.03,2.47.06,4.7.12,6.75,2.93-.05,5.9-.14,8.89-.29v3.28c-2.87.1-5.81.14-8.83.19.06,3.28.09,5.89.09,7.84.63.38,1.26.76,1.92,1.24,2.57,1.76,5.06,4.13,7.45,7.13l-1.38,2.71c-2.25-2.8-4.49-5.04-6.77-6.75-.45-.33-.9-.62-1.32-.9-.18,2.47-.63,4.47-1.35,5.94-1.08,2.14-2.78,3.23-5.12,3.23-1.68,0-3.08-.62-4.16-1.76-1.23-1.28-1.83-3.09-1.83-5.42s.6-4.18,1.86-5.51c1.08-1.24,2.45-1.81,4.19-1.81,1.35,0,2.75.29,4.22.86l-.09-6.75h-2.9c-1.35,0-3.38-.05-6.08-.14l-.84-.05v-3.23c.6,0,1.5.05,2.69.1,1.62.09,3.02.14,4.19.14h2.9c-.06-2.04-.09-4.28-.12-6.75h-2.37c-1.41,0-2.93-.05-4.58-.05l-3.11-.14-.03-3.23,3.14.14c1.62.05,3.14.09,4.58.09h2.3l-.12-6.27,2.21-.09c.06,2.19.09,4.32.15,6.32,2.87-.1,6.11-.29,9.67-.52v3.28ZM735.6,151.73c-1.08,0-1.98.33-2.69,1.09-.78.76-1.17,1.81-1.17,3.14s.36,2.28,1.14,2.99c.66.67,1.56,1,2.66,1,1.53,0,2.66-.76,3.38-2.19.57-1.19.87-2.85.93-5.04-1.5-.67-2.9-1-4.25-1Z"/>
    <path d="M764.55,124.41v26.56c0,5.8,1.95,8.7,5.87,8.7,4.37,0,7.72-5.13,10.12-15.35l2.22,1.33c-1.2,5.04-2.58,8.98-4.19,11.78-2.22,3.85-4.94,5.8-8.14,5.8-5.51,0-8.23-3.94-8.23-11.78v-27.04h2.37Z"/>
    <path d="M803.32,132.77c-2.16.43-4.67.76-7.54,1.05-.42,3.42-.9,6.79-1.38,10.03-1.14,7.46-2.4,13.87-3.77,19.24l-2.19-1.19c1.38-5.27,2.63-11.55,3.77-18.86.42-2.95.84-5.99,1.23-9.03-1.83.1-3.77.19-5.84.24l-.09-3.37c2.21,0,4.31-.1,6.32-.19.3-2.66.57-5.32.81-8.03l2.31.48c-.24,2.47-.51,4.94-.78,7.36,2.46-.24,4.7-.57,6.8-1l.36,3.28ZM801.17,150.21c-.96,2.09-1.44,3.85-1.44,5.37,0,1.24.57,2.23,1.74,2.9,1.08.62,2.57.95,4.55.95,2.22,0,4.25-.29,6.05-.85l.06,3.37c-1.74.48-3.77.76-6.11.76-5.72,0-8.56-2.28-8.56-6.79,0-2.38.57-4.8,1.77-7.36l1.95,1.66ZM811.73,140.61c-4.22,0-8.5.28-12.87.9l-.12-3.42c4.37-.57,8.68-.86,12.99-.86v3.37Z"/>
    <path d="M47.48,209.17c-2.25,3.9-4.97,7.7-8.14,11.45v25.8h-2.33v-23.19c-3.53,3.75-7.01,6.79-10.45,9.12l-1.23-3.14c3.53-2.38,7.21-5.75,11.11-10.03,3.8-4.28,6.89-8.41,9.28-12.45l1.77,2.42Z"/>
    <path d="M67.3,207.46c-.36,1.62-.75,3.23-1.23,4.85h10.18l1.44,1.28c-.78,7.46-2.54,14.07-5.36,19.86-2.96,6.03-6.74,10.5-11.29,13.35l-1.26-3.18c4.07-2.57,7.45-6.32,10.15-11.26.09-.19.18-.33.27-.52-.84-.95-1.77-1.95-2.72-2.95-1.62-1.66-3.11-3.04-4.46-4.09l1.38-2.66c1.38,1.14,2.87,2.47,4.43,3.99.99.95,1.89,1.9,2.72,2.85,1.68-3.99,2.87-8.36,3.53-13.21h-10.18c-.48,1.33-1.02,2.61-1.59,3.9-1.68,3.66-3.56,6.84-5.72,9.55l-1.59-2.47c2.1-2.76,3.95-5.89,5.57-9.41,1.59-3.61,2.75-7.27,3.53-10.98l2.19,1.09Z"/>
    <path d="M91.52,209.74v22.86h-2.37v-22.86h2.37ZM105.92,208.74v15.63c0,5.99-.87,10.83-2.58,14.45-1.83,3.85-4.7,6.56-8.65,8.17l-1.08-3.28c3.68-1.47,6.32-3.94,7.9-7.36,1.38-2.99,2.07-7.08,2.07-12.21v-15.4h2.33Z"/>
    <path d="M138.29,210.02l1.23,1.76c-1.11,3.42-2.28,6.42-3.5,8.98-1.44,2.9-3.08,5.51-4.94,7.84l-1.65-2.61c3.11-3.9,5.39-8.03,6.86-12.5h-19.91v-3.47h21.91ZM128.23,218.34v6.51c0,5.23-.63,9.55-1.83,13.07-1.32,3.75-3.38,6.7-6.23,8.89l-1.47-2.95c2.51-1.95,4.37-4.37,5.51-7.32,1.11-2.95,1.68-6.84,1.68-11.69v-6.51h2.34Z"/>
    <path d="M169.28,213.49l-5.39.38c-.9,0-2.07.86-3.44,2.57-1.5,1.81-2.75,3.94-3.74,6.41-1.17,2.85-1.74,5.75-1.74,8.65,0,3.33.9,5.99,2.72,7.93,1.95,2,4.79,3.09,8.56,3.28l-.42,3.28c-4.37-.09-7.69-1.43-9.94-3.99-2.16-2.42-3.23-5.84-3.23-10.26,0-3.8.78-7.41,2.37-10.74,1.29-2.85,2.93-5.18,4.97-6.99-4.43.57-9.28,1.24-14.49,2.09l-.3-3.37c9.58-1.47,17.57-2.28,24.01-2.42l.06,3.18ZM167.36,226.75l-1.29,1.43c-.9-2.38-1.95-4.47-3.14-6.37l1.2-1.52c1.29,2,2.37,4.13,3.23,6.46ZM170.23,223.47l-1.29,1.47c-.9-2.38-1.95-4.51-3.11-6.37l1.17-1.47c1.32,2.04,2.4,4.18,3.23,6.37Z"/>
    <path d="M179.85,208.07c-.9,6.42-1.32,13.68-1.32,21.81,0,5.8.54,10.83,1.65,15.16l-2.07,1.19c-1.23-4.56-1.83-9.98-1.83-16.35,0-8.17.42-15.63,1.32-22.38l2.25.57ZM200.03,218.24c-1.5.33-3.17.57-5.06.76.18,6.37.27,11.4.3,15.06,1.86,1.52,3.77,3.75,5.72,6.6l-1.35,2.61c-1.74-2.47-3.2-4.32-4.46-5.56-.18,2-.6,3.66-1.26,5.04-1.08,2.14-2.72,3.23-4.88,3.23-1.71,0-3.08-.57-4.16-1.62-1.26-1.28-1.89-3.14-1.89-5.56s.54-4.23,1.68-5.56c1.08-1.33,2.46-1.95,4.16-1.95,1.35,0,2.72.38,4.13,1.14-.03-3.18-.12-7.6-.27-13.3-1.29.05-2.63.09-4.04.09-2.19,0-4.13-.09-5.84-.24l-.03-3.47c1.92.19,3.89.29,5.87.29,1.38,0,2.69-.05,3.95-.09l-.27-8.51,2.28-.05c.09,2.99.18,5.8.27,8.41,1.92-.19,3.62-.43,5.12-.76l.03,3.42ZM188.83,234.59c-1.08,0-1.95.33-2.54,1.09-.66.76-.99,1.8-.99,3.14,0,1.42.42,2.47,1.29,3.14.6.48,1.44.71,2.46.71,1.38,0,2.42-.76,3.08-2.23.48-1.14.78-2.61.84-4.47-1.38-.95-2.75-1.38-4.13-1.38Z"/>
    <path d="M213.44,212.16c-.33,6.27-1.11,12.16-2.33,17.77-1.29,5.75-2.99,10.93-5.15,15.49l-2.19-1.76c2.13-4.37,3.8-9.27,5.06-14.78,1.23-5.42,1.98-11.12,2.25-17.15l2.36.43ZM226.76,226.51c1.77,6.37,3.08,12.4,3.92,18.01l-2.36.76c-.81-5.42-2.07-11.26-3.77-17.49-1.68-6.08-3.41-11.21-5.21-15.44l2.04-1.71c1.86,4.42,3.65,9.69,5.39,15.87ZM230.24,206.7c.6.95.93,2.14.93,3.56,0,1.33-.33,2.52-.93,3.52-.63.95-1.38,1.43-2.22,1.43s-1.62-.48-2.21-1.43c-.63-1-.93-2.19-.93-3.52,0-1.42.3-2.61.93-3.56.6-1,1.35-1.47,2.21-1.47s1.59.47,2.22,1.47ZM226.73,208.17c-.36.57-.54,1.24-.54,2.09,0,.76.18,1.47.54,2.04.36.52.78.81,1.29.81.48,0,.93-.29,1.29-.81.36-.57.54-1.28.54-2.04,0-.85-.18-1.52-.54-2.09-.36-.57-.81-.86-1.29-.86-.51,0-.93.29-1.29.86Z"/>
    <path d="M247.96,232.31c-3.14,5.61-7.16,10.36-12.04,14.25l-1.44-3.04c8.32-6.32,14.22-16.01,17.69-29.03h-14.64v-3.47h16.29l1.47,1.57c-1.65,6.46-3.59,12.07-5.81,16.77,1.77,1.9,3.5,3.94,5.21,6.13,2.42,3.09,4.37,5.89,5.81,8.46l-1.83,2.42c-1.38-2.42-3.23-5.13-5.57-8.12-1.74-2.28-3.44-4.28-5.09-6.03l-.06.09Z"/>
    <path d="M276.88,207.46c-.36,1.62-.75,3.23-1.23,4.85h10.18l1.44,1.28c-.78,7.46-2.54,14.07-5.36,19.86-2.96,6.03-6.74,10.5-11.29,13.35l-1.26-3.18c4.07-2.57,7.45-6.32,10.15-11.26.09-.19.18-.33.27-.52-.84-.95-1.77-1.95-2.72-2.95-1.62-1.66-3.11-3.04-4.46-4.09l1.38-2.66c1.38,1.14,2.87,2.47,4.43,3.99.99.95,1.89,1.9,2.72,2.85,1.68-3.99,2.87-8.36,3.53-13.21h-10.18c-.48,1.33-1.02,2.61-1.59,3.9-1.68,3.66-3.56,6.84-5.72,9.55l-1.59-2.47c2.1-2.76,3.95-5.89,5.57-9.41,1.59-3.61,2.75-7.27,3.53-10.98l2.19,1.09Z"/>
    <path d="M305.96,207.27c-.42,3.18-.87,6.27-1.35,9.31.54-.05,1.05-.05,1.56-.05,2.1,0,3.68,1,4.79,3.04,1.08,2,1.62,4.85,1.62,8.5,0,4.75-.33,8.55-.96,11.5-.96,4.47-2.63,6.75-5,6.75-1.44,0-3.02-.52-4.7-1.47l.33-3.37c1.62.95,3.08,1.42,4.34,1.42,1.53,0,2.58-2.04,3.17-6.03.33-2.38.51-5.32.51-8.79,0-5.51-1.41-8.27-4.16-8.27-.66,0-1.35,0-2.07.1-1.8,10.17-4.04,19.05-6.68,26.66l-2.1-1.57c2.51-7.32,4.64-15.58,6.32-24.8-1.8.29-3.83.71-6.08,1.28l-.33-3.33c2.51-.67,4.85-1.14,7.01-1.38.54-3.33,1.05-6.7,1.5-10.22l2.28.71ZM321.25,233.16l-2.13,1.19c-.57-4.09-1.26-7.55-2.07-10.41-.99-3.42-2.25-6.37-3.77-8.88l1.74-2.14c2.99,4.94,5.09,11.69,6.23,20.24ZM318.53,212.54l-1.26,1.43c-.9-2.38-1.95-4.47-3.14-6.37l1.2-1.52c1.29,2,2.37,4.13,3.2,6.46ZM321.79,210.16l-1.29,1.47c-.9-2.38-1.95-4.51-3.11-6.37l1.17-1.47c1.32,2.04,2.39,4.18,3.23,6.37Z"/>
    <path d="M332.57,238.53v10.17h-2.04v-24.85c-1.68,3.33-3.62,6.42-5.78,9.17l-1.41-2.9c3.77-4.75,6.68-10.17,8.74-16.3h-7.93v-3.33h8.92c.51-1.85.96-3.71,1.32-5.56l2.19.43c-.36,1.76-.72,3.47-1.14,5.13h14.88v3.33h-15.78c-.6,1.9-1.23,3.75-1.95,5.51h13.89v25.66c0,2.33-.84,3.52-2.51,3.61h-3.35l-.54-3.14c1.14.09,2.22.19,3.2.19.78,0,1.17-.57,1.17-1.71v-5.42h-11.88ZM332.57,227.51h11.88v-5.18h-11.88v5.18ZM332.57,230.5v5.04h11.88v-5.04h-11.88Z"/>
    <path d="M362.66,248.65h-2.16v-16.77c-1.86.95-3.8,1.81-5.9,2.61l-1.14-3.28c5.18-1.71,9.49-3.9,12.93-6.65-1.32-1.76-3.11-3.66-5.39-5.7l1.86-1.85c2.27,2.23,4.07,4.23,5.36,5.99,3.05-2.9,5.27-6.27,6.68-10.17h-11.08c-2.04,2.99-4.61,5.65-7.78,8.03l-1.44-2.95c5.12-3.47,8.56-7.75,10.36-12.78l2.36.43c-.48,1.43-1.02,2.76-1.62,4.04h11.68v3.04c-2.16,6.51-6.02,11.83-11.65,15.97h12.48v20.05h-2.19v-2.8h-13.38v2.8ZM376.04,231.78h-13.38v10.74h13.38v-10.74Z"/>
    <path d="M395.63,216.86c.21,1.71.57,3.33,1.05,4.85,2.37-1.43,5.33-2.85,8.86-4.32l.84,3.23c-4.91,2-8.71,3.99-11.35,5.99-3.95,2.9-5.9,6.08-5.9,9.5,0,4.32,2.99,6.51,8.98,6.51,2.93,0,5.9-.33,8.83-.9l.21,3.52c-3.05.52-6.08.81-9.04.81-3.86,0-6.71-.81-8.53-2.38-1.89-1.62-2.81-4.09-2.81-7.46,0-4.56,2.04-8.51,6.14-11.88.48-.43,1.02-.86,1.62-1.24-.6-1.95-1.02-4.09-1.26-6.46-.3-2.52-.48-5.94-.54-10.31l2.3-.09c.06,4.61.27,8.17.6,10.64Z"/>
    <path d="M417.9,211.97c-.39,4.09-.57,8.32-.57,12.59,0,5.18.45,9.36,1.38,12.59.84,2.85,1.83,4.32,3.02,4.32.78,0,1.5-1.28,2.16-3.85.42-1.62.75-3.47.99-5.46l2.31.86c-.51,3.61-1.17,6.41-1.98,8.46-.96,2.42-2.1,3.66-3.41,3.66-2.16,0-3.83-1.95-5.06-5.84-1.2-3.75-1.77-8.65-1.77-14.73,0-4.28.18-8.6.6-13.02l2.33.43ZM440.24,238.1l-2.33.19c-.36-10.55-2.04-18.63-5.06-24.33l1.89-2.23c3.29,6.32,5.15,15.11,5.51,26.37Z"/>
    <path d="M464.88,220.43c1.35,1.95,2.04,4.66,2.04,8.17,0,4.94-1.23,9.03-3.68,12.21-2.4,2.99-5.87,5.08-10.45,6.32l-.96-3.37c4.01-.95,7.12-2.66,9.28-5.13,2.28-2.57,3.44-5.89,3.44-9.88,0-2.47-.48-4.37-1.38-5.7-.96-1.47-2.37-2.19-4.16-2.19-2.51,0-6.44,1.24-11.77,3.71l-.63-3.33c2.13-.95,4.16-1.76,6.08-2.38,2.69-.9,4.79-1.33,6.29-1.33,2.54,0,4.52.95,5.9,2.9ZM463.47,210.07l-.63,3.28c-3.74-1.57-7.84-2.66-12.33-3.23l.33-3.37c4.79.67,9.01,1.76,12.63,3.33Z"/>
    <path d="M481.35,229.79c-1.86,3.18-2.75,5.56-2.75,7.13,0,3.75,2.93,5.65,8.8,5.65,3.5,0,6.77-.48,9.76-1.38l.36,3.37c-3.02.9-6.41,1.38-10.12,1.38-7.42,0-11.11-2.95-11.11-8.84,0-2.61,1.08-5.8,3.29-9.5l1.77,2.19ZM487.03,212.35c3.47,0,6.38-.19,8.71-.57l.84,2.99c-2.63,2.28-5.15,4.8-7.6,7.6l-1.29-2.71c1.65-1.71,3.23-3.23,4.76-4.56-1.44.33-3.26.52-5.42.52-3.62,0-6.68-.38-9.19-1.09l.3-3.33c2.51.76,5.48,1.14,8.89,1.14Z"/>
    <path d="M515.39,216.86c.21,1.71.57,3.33,1.05,4.85,2.37-1.43,5.33-2.85,8.86-4.32l.84,3.23c-4.91,2-8.71,3.99-11.35,5.99-3.95,2.9-5.9,6.08-5.9,9.5,0,4.32,2.99,6.51,8.98,6.51,2.93,0,5.9-.33,8.83-.9l.21,3.52c-3.05.52-6.08.81-9.04.81-3.86,0-6.71-.81-8.53-2.38-1.89-1.62-2.81-4.09-2.81-7.46,0-4.56,2.04-8.51,6.14-11.88.48-.43,1.02-.86,1.62-1.24-.6-1.95-1.02-4.09-1.26-6.46-.3-2.52-.48-5.94-.54-10.31l2.3-.09c.06,4.61.27,8.17.6,10.64Z"/>
    <path d="M545.48,207.27c-.42,3.18-.87,6.27-1.35,9.31.54-.05,1.05-.05,1.56-.05,2.1,0,3.68,1,4.79,3.04,1.08,2,1.62,4.85,1.62,8.5,0,4.75-.33,8.55-.96,11.5-.96,4.47-2.63,6.75-5,6.75-1.44,0-3.02-.52-4.7-1.47l.33-3.37c1.62.95,3.08,1.42,4.34,1.42,1.53,0,2.58-2.04,3.17-6.03.33-2.38.51-5.32.51-8.79,0-5.51-1.41-8.27-4.16-8.27-.66,0-1.35,0-2.07.1-1.8,10.17-4.04,19.05-6.68,26.66l-2.1-1.57c2.51-7.32,4.64-15.58,6.32-24.8-1.8.29-3.83.71-6.08,1.28l-.33-3.33c2.51-.67,4.85-1.14,7.01-1.38.54-3.33,1.05-6.7,1.5-10.22l2.28.71ZM560.78,233.16l-2.13,1.19c-.57-4.09-1.26-7.55-2.07-10.41-.99-3.42-2.25-6.37-3.77-8.88l1.74-2.14c2.99,4.94,5.09,11.69,6.23,20.24Z"/>
    <path d="M570.81,214.77c-.36,7.51-.87,12.64-1.56,15.39,1.32-1.71,2.81-3.04,4.55-3.94,1.74-1,3.53-1.47,5.39-1.47,2.16,0,3.95.85,5.39,2.57,1.5,1.81,2.25,4.23,2.25,7.22,0,3.99-1.08,6.98-3.17,9.08-1.98,1.9-4.58,2.9-7.87,2.9-1.8,0-3.71-.14-5.69-.33l.12-3.47c1.98.24,3.83.38,5.57.38,2.84,0,5.03-.76,6.53-2.28,1.5-1.52,2.25-3.61,2.25-6.27,0-1.81-.48-3.33-1.41-4.56-1.02-1.33-2.33-1.95-3.95-1.95-2.04,0-3.89.52-5.6,1.57-1.71,1.04-3.44,2.71-5.21,5.08l-1.86-1.33c1.02-4.37,1.71-10.69,2.04-18.86l2.25.29ZM576.23,208.45c3.02,1.09,5.27,2.09,6.71,2.99l-.84,3.04c-1.38-.86-3.5-1.76-6.38-2.8-2.63-.95-4.79-1.57-6.47-1.85l.48-3.28c1.62.29,3.77.9,6.5,1.9Z"/>
    <path d="M616.35,209.17c-2.25,3.9-4.97,7.7-8.14,11.45v25.8h-2.33v-23.19c-3.53,3.75-7.01,6.79-10.45,9.12l-1.23-3.14c3.53-2.38,7.21-5.75,11.11-10.03,3.8-4.28,6.89-8.41,9.28-12.45l1.77,2.42Z"/>
    <path d="M636.17,207.46c-.36,1.62-.75,3.23-1.23,4.85h10.18l1.44,1.28c-.78,7.46-2.54,14.07-5.36,19.86-2.96,6.03-6.74,10.5-11.29,13.35l-1.26-3.18c4.07-2.57,7.45-6.32,10.15-11.26.09-.19.18-.33.27-.52-.84-.95-1.77-1.95-2.72-2.95-1.62-1.66-3.11-3.04-4.46-4.09l1.38-2.66c1.38,1.14,2.87,2.47,4.43,3.99.99.95,1.89,1.9,2.72,2.85,1.68-3.99,2.87-8.36,3.53-13.21h-10.18c-.48,1.33-1.02,2.61-1.59,3.9-1.68,3.66-3.56,6.84-5.72,9.55l-1.59-2.47c2.1-2.76,3.95-5.89,5.57-9.41,1.59-3.61,2.75-7.27,3.53-10.98l2.19,1.09Z"/>
    <path d="M660.39,209.74v22.86h-2.37v-22.86h2.37ZM674.79,208.74v15.63c0,5.99-.87,10.83-2.58,14.45-1.83,3.85-4.7,6.56-8.65,8.17l-1.08-3.28c3.68-1.47,6.32-3.94,7.9-7.36,1.38-2.99,2.07-7.08,2.07-12.21v-15.4h2.33Z"/>
    <path d="M707.16,210.02l1.23,1.76c-1.11,3.42-2.28,6.42-3.5,8.98-1.44,2.9-3.08,5.51-4.94,7.84l-1.65-2.61c3.11-3.9,5.39-8.03,6.86-12.5h-19.91v-3.47h21.91ZM697.1,218.34v6.51c0,5.23-.63,9.55-1.83,13.07-1.32,3.75-3.38,6.7-6.23,8.89l-1.47-2.95c2.51-1.95,4.37-4.37,5.51-7.32,1.11-2.95,1.68-6.84,1.68-11.69v-6.51h2.34Z"/>
    <path d="M717.43,211.3c-.51-1.9-1.14-3.71-1.86-5.42l2.04-.95c.75,2.09,1.32,3.99,1.71,5.7l-1.08.67h4.28v3.14h-9.64v-3.14h4.55ZM715.78,248.75h-2.01v-16.73h8.05v16.01h-1.95v-2.19h-4.1v2.9ZM721.56,218.19v2.99h-7.57v-2.99h7.57ZM721.56,224.89v3.04h-7.57v-3.04h7.57ZM719.88,235.06h-4.1v7.65h4.1v-7.65ZM739.04,207.08v3.09h-7.75l-.66,5.37h6.98v9.36h2.28v3.14h-16.44v-3.14h4.01l.78-6.37h-3.59v-2.99h3.98l.66-5.37h-5.63v-3.09h15.39ZM738.05,248.89h-2.01v-2.19h-9.04v2.19h-2.04v-16.39h13.08v16.39ZM736.05,243.62v-8.08h-9.04v8.08h9.04ZM735.6,224.89v-6.37h-5.36l-.78,6.37h6.14Z"/>
    <path d="M765.63,214.63c-3.02.52-6.89.81-11.62.9-1.08,2.99-2.22,5.51-3.38,7.6,1.59-2,3.17-2.95,4.76-2.95s2.69.9,3.47,2.71c.18.48.36,1,.51,1.57,2.1-1.19,4.52-2.33,7.28-3.42l.63,3.23c-2.75,1-5.24,2.14-7.42,3.42.06.71.09,1.47.09,2.33v8.22h-2.12v-7.7c0-.57-.03-1.09-.03-1.57-.33.19-.63.43-.93.67-3.71,2.71-5.57,5.51-5.57,8.36,0,1.76.66,3.04,2.04,3.85,1.11.62,2.72.95,4.88.95,2.7,0,5.27-.38,7.72-1.04l.21,3.33c-2.6.67-5.24,1-7.93,1-2.87,0-5.06-.57-6.56-1.71-1.74-1.33-2.6-3.47-2.6-6.37,0-3.85,1.89-7.32,5.72-10.41.78-.67,1.65-1.28,2.6-1.9-.48-1.76-1.26-2.61-2.33-2.61-2.58,0-5.48,2.99-8.71,8.98l-1.56-2.28c2.33-4.09,4.22-7.79,5.63-11.12.42-1.05.81-2.09,1.23-3.14-1.56,0-3.68-.05-6.32-.09l.03-3.23c2.58,0,5.06.05,7.39.05.6-2,1.17-4.04,1.71-6.18l2.01,1.24c-.45,1.71-.9,3.37-1.35,4.94,4.31-.09,7.75-.33,10.39-.81l.15,3.18Z"/>
    <path d="M772.85,228.51l-.72-3.61c3.11-5.8,5.36-12.45,6.74-19.96l2.04,1.47c-.75,3.71-1.68,7.22-2.78,10.5v31.98h-2.16v-26.51c-.96,2.14-1.98,4.18-3.11,6.13ZM789.28,210.07v-4.85h2.19v4.85h8.23v3.28h-8.23v4.51h7.01v13.45h-7.12c-.24,4.28-.75,7.55-1.56,9.93,2.99,2.61,6.47,4.09,10.39,4.42l-.54,3.28c-4.19-.43-7.87-2.09-11.05-5.04-1.62,2.61-4.16,4.32-7.63,5.13l-.93-3.14c3.05-.52,5.3-1.85,6.68-3.94-1.77-2-3.35-4.42-4.73-7.22l1.65-1.81c1.29,2.57,2.72,4.7,4.31,6.51.63-2.09,1.05-4.8,1.23-8.12h-6.71v-13.45h6.83v-4.51h-7.84v-3.28h7.84ZM789.28,227.08v-6.18h-4.79v7.32h4.76c0-.38.03-.76.03-1.14ZM796.44,220.9h-4.97v6.18c0,.38-.03.76-.03,1.14h5v-7.32Z"/>
    <path d="M804.05,248.37l-1.65-2.33c1.92-4.23,2.9-9.6,2.96-16.11v-22.81h22.3v35.59c0,3.33-1.05,4.99-3.14,4.99h-3.44l-.57-3.37c1.2.09,2.3.19,3.32.19,1.08,0,1.65-1,1.65-2.99v-8.27h-8.14v13.92h-2.22v-13.92h-7.72c-.33,6.08-1.44,11.12-3.35,15.11ZM807.52,210.45v8.17h7.6v-8.17h-7.6ZM807.52,230.12h7.6v-8.32h-7.6v8.32ZM825.48,210.45h-8.14v8.17h8.14v-8.17ZM825.48,221.81h-8.14v8.32h8.14v-8.32Z"/>
    <path d="M840.42,207.55v26.56c0,5.8,1.95,8.7,5.87,8.7,4.37,0,7.72-5.13,10.12-15.35l2.22,1.33c-1.2,5.04-2.58,8.98-4.19,11.78-2.22,3.85-4.94,5.8-8.14,5.8-5.51,0-8.23-3.94-8.23-11.78v-27.04h2.37Z"/>
    <path d="M887.19,215.49c-3.32.19-6.53.33-9.61.43.03,2.47.06,4.7.12,6.75,2.93-.05,5.9-.14,8.89-.29v3.28c-2.87.09-5.81.14-8.83.19.06,3.28.09,5.89.09,7.84.63.38,1.26.76,1.92,1.24,2.57,1.76,5.06,4.13,7.45,7.13l-1.38,2.71c-2.25-2.8-4.49-5.04-6.77-6.75-.45-.33-.9-.62-1.32-.9-.18,2.47-.63,4.47-1.35,5.94-1.08,2.14-2.78,3.23-5.12,3.23-1.68,0-3.08-.62-4.16-1.76-1.23-1.28-1.83-3.09-1.83-5.42s.6-4.18,1.86-5.51c1.08-1.24,2.45-1.81,4.19-1.81,1.35,0,2.75.29,4.22.86l-.09-6.75h-2.9c-1.35,0-3.38-.05-6.08-.14l-.84-.05v-3.23c.6,0,1.5.05,2.69.09,1.62.1,3.02.14,4.19.14h2.9c-.06-2.04-.09-4.28-.12-6.75h-2.37c-1.41,0-2.93-.05-4.58-.05l-3.11-.14-.03-3.23,3.14.14c1.62.05,3.14.09,4.58.09h2.3l-.12-6.27,2.21-.1c.06,2.19.09,4.32.15,6.32,2.87-.1,6.11-.29,9.67-.52v3.28ZM871.35,234.87c-1.08,0-1.98.33-2.69,1.09-.78.76-1.17,1.81-1.17,3.14s.36,2.28,1.14,2.99c.66.67,1.56,1,2.66,1,1.53,0,2.66-.76,3.38-2.19.57-1.19.87-2.85.93-5.04-1.5-.67-2.9-1-4.25-1Z"/>
    <path d="M900.3,207.55v26.56c0,5.8,1.95,8.7,5.87,8.7,4.37,0,7.72-5.13,10.12-15.35l2.22,1.33c-1.2,5.04-2.58,8.98-4.19,11.78-2.22,3.85-4.94,5.8-8.14,5.8-5.51,0-8.23-3.94-8.23-11.78v-27.04h2.37Z"/>
    <path d="M939.07,215.91c-2.16.43-4.67.76-7.54,1.05-.42,3.42-.9,6.79-1.38,10.03-1.14,7.46-2.4,13.88-3.77,19.24l-2.19-1.19c1.38-5.27,2.63-11.55,3.77-18.86.42-2.95.84-5.99,1.23-9.03-1.83.09-3.77.19-5.84.24l-.09-3.37c2.21,0,4.31-.09,6.32-.19.3-2.66.57-5.32.81-8.03l2.31.47c-.24,2.47-.51,4.94-.78,7.37,2.46-.24,4.7-.57,6.8-1l.36,3.28ZM936.92,233.35c-.96,2.09-1.44,3.85-1.44,5.37,0,1.24.57,2.23,1.74,2.9,1.08.62,2.57.95,4.55.95,2.22,0,4.25-.29,6.05-.86l.06,3.37c-1.74.48-3.77.76-6.11.76-5.72,0-8.56-2.28-8.56-6.79,0-2.38.57-4.8,1.77-7.37l1.95,1.66ZM947.49,223.75c-4.22,0-8.5.29-12.87.9l-.12-3.42c4.37-.57,8.68-.86,12.99-.86v3.37Z"/>
    <path d="M48.86,298.63c-3.32.19-6.53.33-9.61.43.03,2.47.06,4.7.12,6.75,2.93-.05,5.9-.14,8.89-.29v3.28c-2.87.09-5.81.14-8.83.19.06,3.28.09,5.89.09,7.84.63.38,1.26.76,1.92,1.24,2.57,1.76,5.06,4.13,7.45,7.13l-1.38,2.71c-2.25-2.8-4.49-5.04-6.77-6.75-.45-.33-.9-.62-1.32-.9-.18,2.47-.63,4.47-1.35,5.94-1.08,2.14-2.78,3.23-5.12,3.23-1.68,0-3.08-.62-4.16-1.76-1.23-1.28-1.83-3.09-1.83-5.42s.6-4.18,1.86-5.51c1.08-1.24,2.45-1.81,4.19-1.81,1.35,0,2.75.29,4.22.85l-.09-6.75h-2.9c-1.35,0-3.38-.05-6.08-.14l-.84-.05v-3.23c.6,0,1.5.05,2.69.09,1.62.1,3.02.14,4.19.14h2.9c-.06-2.04-.09-4.28-.12-6.75h-2.37c-1.41,0-2.93-.05-4.58-.05l-3.11-.14-.03-3.23,3.14.14c1.62.05,3.14.09,4.58.09h2.3l-.12-6.27,2.21-.1c.06,2.19.09,4.32.15,6.32,2.87-.1,6.11-.29,9.67-.52v3.28ZM33.02,318.01c-1.08,0-1.98.33-2.69,1.09-.78.76-1.17,1.81-1.17,3.14s.36,2.28,1.14,2.99c.66.67,1.56,1,2.66,1,1.53,0,2.66-.76,3.38-2.19.57-1.19.87-2.85.93-5.04-1.5-.67-2.9-1-4.25-1Z"/>
    <path d="M70.8,299.06c-2.16.43-4.67.76-7.54,1.04-.42,3.42-.9,6.79-1.38,10.03-1.14,7.46-2.4,13.88-3.77,19.24l-2.19-1.19c1.38-5.27,2.63-11.55,3.77-18.86.42-2.95.84-5.99,1.23-9.03-1.83.09-3.77.19-5.84.24l-.09-3.37c2.21,0,4.31-.09,6.32-.19.3-2.66.57-5.32.81-8.03l2.31.47c-.24,2.47-.51,4.94-.78,7.37,2.45-.24,4.7-.57,6.79-1l.36,3.28ZM68.65,316.49c-.96,2.09-1.44,3.85-1.44,5.37,0,1.24.57,2.23,1.74,2.9,1.08.62,2.57.95,4.55.95,2.22,0,4.25-.29,6.05-.86l.06,3.37c-1.74.48-3.77.76-6.11.76-5.72,0-8.56-2.28-8.56-6.79,0-2.38.57-4.8,1.77-7.37l1.95,1.66ZM79.22,306.9c-4.22,0-8.5.29-12.87.9l-.12-3.42c4.37-.57,8.68-.86,12.99-.86v3.37Z"/>
    <path d="M98.65,308.99c.99,1.62,1.86,3.28,2.58,4.89l-1.5,2c-.72-1.62-1.59-3.28-2.54-4.89-1.11-1.85-2.21-3.42-3.32-4.75l1.35-2c1.14,1.24,2.28,2.85,3.44,4.75Z"/>
    <path d="M130.68,299.06c-2.16.43-4.67.76-7.54,1.04-.42,3.42-.9,6.79-1.38,10.03-1.14,7.46-2.4,13.88-3.77,19.24l-2.19-1.19c1.38-5.27,2.63-11.55,3.77-18.86.42-2.95.84-5.99,1.23-9.03-1.83.09-3.77.19-5.84.24l-.09-3.37c2.21,0,4.31-.09,6.32-.19.3-2.66.57-5.32.81-8.03l2.31.47c-.24,2.47-.51,4.94-.78,7.37,2.45-.24,4.7-.57,6.79-1l.36,3.28ZM128.53,316.49c-.96,2.09-1.44,3.85-1.44,5.37,0,1.24.57,2.23,1.74,2.9,1.08.62,2.57.95,4.55.95,2.22,0,4.25-.29,6.05-.86l.06,3.37c-1.74.48-3.77.76-6.11.76-5.72,0-8.56-2.28-8.56-6.79,0-2.38.57-4.8,1.77-7.37l1.95,1.66ZM139.1,306.9c-4.22,0-8.5.29-12.87.9l-.12-3.42c4.37-.57,8.68-.86,12.99-.86v3.37ZM137.09,296.97l-1.29,1.42c-.9-2.38-1.95-4.47-3.14-6.37l1.23-1.47c1.26,1.95,2.33,4.09,3.2,6.42ZM140.05,293.35l-1.29,1.52c-.9-2.42-1.95-4.56-3.11-6.42l1.17-1.47c1.32,2.04,2.39,4.18,3.23,6.37Z"/>
    <path d="M164.94,294.26c-3.17,4.18-6.89,9.12-11.14,14.92,2.33-2.19,4.55-3.23,6.65-3.23,2.49,0,4.43.95,5.84,2.85,1.38,1.9,2.07,4.47,2.07,7.79,0,3.71-1.05,6.7-3.08,8.98-2.1,2.28-4.7,3.42-7.81,3.42-2.04,0-3.65-.62-4.85-1.85-1.2-1.28-1.77-2.95-1.77-5.04,0-1.9.42-3.47,1.29-4.7.9-1.38,2.1-2.04,3.59-2.04,2.04,0,3.62,1,4.79,3.09.87,1.47,1.5,3.47,1.86,5.94l.75-.62c2.01-1.81,3.02-4.23,3.02-7.17,0-2.52-.57-4.42-1.65-5.7-1.02-1.19-2.42-1.76-4.28-1.76-2.12,0-4.34.85-6.68,2.57-2.01,1.52-3.86,3.47-5.54,5.89l-1.44-2.42,14.67-20.24-12.33.95-.12-3.33,14.91-.76,1.26,2.47ZM160.18,324.52c-.69-4.04-2.19-6.03-4.46-6.03-.84,0-1.5.33-1.98,1.04-.51.67-.75,1.52-.75,2.52s.3,1.85.96,2.57c.78.85,1.95,1.28,3.5,1.28,1.02,0,1.95-.19,2.84-.47-.06-.38-.09-.67-.12-.9Z"/>
    <path d="M198.56,298.63c-3.32.19-6.53.33-9.61.43.03,2.47.06,4.7.12,6.75,2.93-.05,5.9-.14,8.89-.29v3.28c-2.87.09-5.81.14-8.83.19.06,3.28.09,5.89.09,7.84.63.38,1.26.76,1.92,1.24,2.57,1.76,5.06,4.13,7.45,7.13l-1.38,2.71c-2.25-2.8-4.49-5.04-6.77-6.75-.45-.33-.9-.62-1.32-.9-.18,2.47-.63,4.47-1.35,5.94-1.08,2.14-2.78,3.23-5.12,3.23-1.68,0-3.08-.62-4.16-1.76-1.23-1.28-1.83-3.09-1.83-5.42s.6-4.18,1.86-5.51c1.08-1.24,2.45-1.81,4.19-1.81,1.35,0,2.75.29,4.22.85l-.09-6.75h-2.9c-1.35,0-3.38-.05-6.08-.14l-.84-.05v-3.23c.6,0,1.5.05,2.69.09,1.62.1,3.02.14,4.19.14h2.9c-.06-2.04-.09-4.28-.12-6.75h-2.37c-1.41,0-2.93-.05-4.58-.05l-3.11-.14-.03-3.23,3.14.14c1.62.05,3.14.09,4.58.09h2.3l-.12-6.27,2.21-.1c.06,2.19.09,4.32.15,6.32,2.87-.1,6.11-.29,9.67-.52v3.28ZM182.72,318.01c-1.08,0-1.98.33-2.69,1.09-.78.76-1.17,1.81-1.17,3.14s.36,2.28,1.14,2.99c.66.67,1.56,1,2.66,1,1.53,0,2.67-.76,3.38-2.19.57-1.19.87-2.85.93-5.04-1.5-.67-2.9-1-4.25-1Z"/>
    <path d="M209.79,291.22c-.9,6.42-1.32,13.68-1.32,21.81,0,5.8.54,10.83,1.65,15.16l-2.07,1.19c-1.23-4.56-1.83-9.98-1.83-16.35,0-8.17.42-15.63,1.32-22.38l2.25.57ZM229.97,301.38c-1.5.33-3.17.57-5.06.76.18,6.37.27,11.4.3,15.06,1.86,1.52,3.77,3.75,5.72,6.6l-1.35,2.61c-1.74-2.47-3.2-4.32-4.46-5.56-.18,2-.6,3.66-1.26,5.04-1.08,2.14-2.72,3.23-4.88,3.23-1.71,0-3.08-.57-4.16-1.62-1.26-1.28-1.89-3.14-1.89-5.56s.54-4.23,1.68-5.56c1.08-1.33,2.46-1.95,4.16-1.95,1.35,0,2.72.38,4.13,1.14-.03-3.18-.12-7.6-.27-13.3-1.29.05-2.63.09-4.04.09-2.19,0-4.13-.09-5.84-.24l-.03-3.47c1.92.19,3.89.29,5.87.29,1.38,0,2.69-.05,3.95-.09l-.27-8.51,2.28-.05c.09,2.99.18,5.8.27,8.41,1.92-.19,3.62-.43,5.12-.76l.03,3.42ZM218.77,317.73c-1.08,0-1.95.33-2.54,1.09-.66.76-.99,1.81-.99,3.14,0,1.43.42,2.47,1.29,3.14.6.48,1.44.71,2.46.71,1.38,0,2.42-.76,3.08-2.23.48-1.14.78-2.61.84-4.47-1.38-.95-2.75-1.38-4.13-1.38Z"/>
    <path d="M234.04,311.22l-.72-3.61c2.39-5.65,4.13-12.12,5.21-19.39l1.95,1.43c-.48,2.99-1.08,5.84-1.8,8.6v33.78h-2.07v-27.08c-.78,2.19-1.65,4.28-2.57,6.27ZM251.49,327.18c-3.35,1.47-6.92,2.71-10.75,3.71l-.48-3.18c1.62-.38,3.17-.81,4.73-1.28v-9.17h-4.07v-3.14h4.07v-5.51h2.1v5.51h3.95v3.14h-3.95v8.46c1.5-.57,2.96-1.19,4.4-1.85v3.33ZM251.34,290.36v3.14h-5.24c-.93,4.8-1.8,8.41-2.63,10.83,1.77-.38,3.44-.85,5.03-1.42-.48-1.71-1.02-3.37-1.59-5.08l1.59-1.57c1.38,3.99,2.39,7.51,3.11,10.55l-1.59,1.81c-.24-1.04-.51-2.09-.81-3.14-2.54.86-5.3,1.62-8.26,2.19l-.48-2.95c.36-.1.63-.19.81-.33.78-1.71,1.68-5.32,2.75-10.88h-2.96v-3.14h10.27ZM254.85,292.74v29.41h-1.98v-29.41h1.98ZM254.01,331.51l-.45-3.23c1.05.14,2.04.24,2.99.24.78,0,1.17-.71,1.17-2.04v-37.87h2.1v38.73c0,2.76-.87,4.18-2.54,4.18h-3.26Z"/>
    <path d="M284.97,298.3c.78,1.28,1.2,3.04,1.2,5.32,0,1.62-.18,4.51-.48,8.6-.39,4.7-.57,7.75-.57,9.08,0,2.19.48,3.33,1.44,3.33,1.08,0,2.18-1.47,3.26-4.42l1.83,2.09c-.81,1.9-1.53,3.28-2.16,4.13-.9,1.04-1.89,1.57-2.96,1.57-2.49,0-3.71-2.23-3.71-6.7,0-1.05.18-4.09.6-9.08.33-4.28.51-7.17.51-8.6,0-2.66-.84-3.99-2.49-3.99-2.12,0-4.85,2.42-8.14,7.37-.3.43-.63.9-.93,1.43-.15,8.93-.21,16.16-.21,21.76h-2.19c0-5.13.03-11.12.12-17.96-1.41,2.47-2.93,5.37-4.55,8.74l-1.8-2.23c2.25-4.66,4.4-8.55,6.44-11.78l.12-6.41-5.27.52-.12-3.28,5.45-.52.12-7.98,2.19.05c-.06,1.85-.09,4.47-.12,7.79l.96,1.28-1.05,3.47c0,.57-.03,1.19-.03,1.76l.06-.09c3.47-4.85,6.47-7.22,8.95-7.22,1.53,0,2.69.67,3.53,2Z"/>
    <path d="M318.98,296.63l-5.39.38c-.9,0-2.07.86-3.44,2.57-1.5,1.81-2.75,3.94-3.74,6.41-1.17,2.85-1.74,5.75-1.74,8.65,0,3.33.9,5.99,2.72,7.93,1.95,2,4.79,3.09,8.56,3.28l-.42,3.28c-4.37-.09-7.69-1.43-9.94-3.99-2.16-2.42-3.23-5.84-3.23-10.26,0-3.8.78-7.41,2.37-10.74,1.29-2.85,2.93-5.18,4.97-6.99-4.43.57-9.28,1.24-14.49,2.09l-.3-3.37c9.58-1.47,17.57-2.28,24.01-2.42l.06,3.18Z"/>
    <path d="M345.03,299.15c-2.96.19-6.41.29-10.33.38-.18,2.66-.33,5.13-.45,7.32,3.11-.14,6.41-.33,9.88-.57v3.37c-3.44.29-6.8.47-10.06.62-.18,3.37-.24,6.04-.24,7.98,0,2.61.51,4.56,1.53,5.84.93,1.14,2.39,1.76,4.37,1.76,1.86,0,3.38-.38,4.58-1.05,1.74-.95,2.6-2.57,2.6-4.85,0-1.71-.51-4.09-1.53-7.03l2.1-1.52c1.14,3.66,1.71,6.56,1.71,8.7,0,6.08-3.17,9.12-9.46,9.12-2.7,0-4.73-.86-6.08-2.57-1.41-1.81-2.1-4.61-2.1-8.41,0-2,.06-4.61.21-7.89-2.28.05-4.52.09-6.68.09v-3.37c2.16,0,4.46-.05,6.86-.14.12-2.23.27-4.7.45-7.36-2.16,0-4.43.05-6.83.05v-3.28c2.49,0,4.82-.05,7.04-.05l.51-7.13h2.31l-.51,7.08c3.86-.1,7.25-.19,10.15-.38l-.03,3.28Z"/>
    <path d="M371.32,289.31l.09,6.46,8.29-.19v3.18l-8.26.19v.38c.06,6.61.12,10.64.12,12.12,0,5.42-.69,9.46-2.07,12.16-1.29,2.47-3.68,4.75-7.16,6.75l-1.05-3.09c2.12-1.09,3.8-2.33,5-3.71,1.38-1.57,2.34-3.61,2.87-6.18-.9,2-2.07,2.99-3.5,2.99-1.86,0-3.29-.9-4.37-2.66-1.02-1.71-1.5-3.8-1.5-6.27s.48-4.42,1.47-6.13c1.08-1.9,2.54-2.85,4.4-2.85,1.74,0,3.02,1.09,3.86,3.28-.12-1.52-.21-3.33-.21-5.51l-.03-1.24-14.64.33v-3.18l14.61-.33-.09-6.51h2.16ZM362.84,307.47c-.66,1.09-.96,2.42-.96,3.99,0,1.66.33,3.04.99,4.09.66,1.09,1.59,1.66,2.78,1.66,1.08,0,2.01-.57,2.72-1.71.66-1.14,1.02-2.47,1.02-3.9,0-1.71-.36-3.14-1.05-4.28-.72-1.19-1.62-1.76-2.69-1.76-1.2,0-2.13.62-2.81,1.9Z"/>
    <path d="M404.91,292.02c-1.92,3.04-4.07,6.08-6.41,9.17-2.46,3.14-4.76,5.8-6.86,7.94-.45.43-.66.81-.66,1.14s.24.76.75,1.24c2.16,2,4.61,4.61,7.33,7.79,2.63,3.09,4.94,6.03,6.98,8.89l-1.68,2.9c-2.1-2.95-4.49-5.99-7.21-9.22-2.75-3.28-5.24-6.03-7.51-8.22-1.05-1.04-1.56-2.19-1.56-3.37s.42-2.14,1.29-2.95c1.86-1.9,4.13-4.56,6.89-8.08,2.81-3.66,5.12-6.89,6.86-9.74l1.8,2.52ZM409.25,299.67l-1.29,1.43c-.9-2.38-1.95-4.47-3.14-6.37l1.23-1.52c1.26,2,2.33,4.13,3.2,6.46ZM411.73,295.25l-1.29,1.47c-.9-2.38-1.95-4.51-3.11-6.37l1.17-1.52c1.32,2.04,2.4,4.18,3.23,6.42Z"/>
    <path d="M420.24,291.45c-1.14,6.79-1.68,13.59-1.68,20.43,0,6.27.57,11.74,1.74,16.34l-2.13,1.28c-1.26-5.04-1.89-10.93-1.89-17.63,0-7.03.57-14.16,1.74-21.29l2.21.85ZM426.85,312.55c-1.08,2.71-1.62,4.94-1.62,6.7,0,1.66.66,2.9,1.98,3.71,1.2.71,3.08,1.09,5.63,1.09,1.8,0,3.86-.24,6.2-.62l.12,3.56c-2.72.33-4.82.52-6.32.52-3.38,0-5.87-.62-7.42-1.85-1.68-1.28-2.51-3.37-2.51-6.27,0-2.28.6-5.13,1.86-8.55l2.09,1.71ZM437.96,299.29c-5.12,0-9.88.24-14.31.76l-.36-3.42c4.88-.57,9.79-.86,14.76-.86l-.09,3.52Z"/>
    <path d="M451.59,288.22v6.46h4.7v3.14h-4.7v6.99h5.09v3.14h-4.52v6.7h4.25v3.14h-4.25v8.98c1.89.76,5.45,1.19,10.69,1.19,3.47,0,6.05-.09,7.75-.24l-.36,3.33h-6.92c-6.89,0-11.2-.67-12.93-1.95-1.5-1.14-2.81-3.09-3.95-5.89-.45,3.14-1.05,6.03-1.8,8.74l-1.65-2.33c1.5-5.51,2.3-11.74,2.48-18.63l1.92.33c-.06,2.8-.24,5.46-.48,8.03.96,2.66,2.01,4.66,3.17,5.89v-17.3h-6.2v-3.14h5.54v-6.99h-4.97v-3.14h4.97v-6.46h2.16ZM468.56,307.04h-8.14v11.26c0,1.14.42,1.76,1.32,1.76h4.25c.69-.05,1.17-.52,1.44-1.43.21-.76.39-2.61.51-5.61l2.04,1.05c-.18,2.9-.39,4.99-.66,6.22-.45,1.9-1.35,2.9-2.69,2.99h-5.69c-1.77,0-2.63-1.28-2.63-3.8v-28.04h10.27v15.59ZM466.49,303.9v-9.36h-6.08v9.36h6.08Z"/>
    <path d="M496.41,297.01c-2.9.62-5.78,1.09-8.59,1.47.6,1.81,1.2,3.56,1.83,5.23,2.9-.48,5.78-1,8.62-1.66l.39,3.23c-2.54.62-5.15,1.14-7.78,1.57,1.44,3.42,2.9,6.46,4.46,9.08l-1.35,2.42c-1.47-1.24-2.93-2.19-4.4-2.85-1.65-.81-3.14-1.19-4.52-1.19-2.04,0-3.56.52-4.58,1.57-1.05,1-1.56,2.42-1.56,4.23,0,1.71.6,3.14,1.86,4.18,1.44,1.24,3.62,1.85,6.56,1.85,2.3,0,4.4-.29,6.29-.76l.15,3.23c-1.71.47-3.86.76-6.44.76-3.41,0-6.05-.81-7.84-2.33-1.92-1.62-2.84-3.94-2.84-6.94s.66-4.99,2.04-6.46c1.41-1.57,3.5-2.33,6.32-2.33,2.1,0,4.34.86,6.74,2.66-1.08-1.62-2.19-3.85-3.35-6.79-4.34.52-8.83.81-13.47.86v-3.23c4.13-.05,8.23-.29,12.3-.76-.6-1.62-1.17-3.37-1.77-5.27-3.17.33-6.26.52-9.31.57v-3.23c2.67,0,5.45-.19,8.32-.48-.54-1.71-1.05-3.47-1.56-5.32l2.1-1.38c.6,2.23,1.2,4.37,1.83,6.41,2.93-.38,6.02-.95,9.19-1.62l.39,3.28Z"/>
    <path d="M516.41,288.36v14.68h11.11v3.33h-11.11v20.34h13.65v3.33h-26.64v-3.33h10.78v-38.34h2.22Z"/>
    <path d="M545.48,290.41c-.42,3.18-.87,6.27-1.35,9.31.54-.05,1.05-.05,1.56-.05,2.1,0,3.68,1,4.79,3.04,1.08,2,1.62,4.85,1.62,8.51,0,4.75-.33,8.55-.96,11.5-.96,4.47-2.63,6.75-5,6.75-1.44,0-3.02-.52-4.7-1.47l.33-3.37c1.62.95,3.08,1.42,4.34,1.42,1.53,0,2.58-2.04,3.17-6.03.33-2.38.51-5.32.51-8.79,0-5.51-1.41-8.27-4.16-8.27-.66,0-1.35,0-2.07.1-1.8,10.17-4.04,19.05-6.68,26.66l-2.1-1.57c2.51-7.32,4.64-15.58,6.32-24.8-1.8.28-3.83.71-6.08,1.28l-.33-3.33c2.51-.67,4.85-1.14,7.01-1.38.54-3.33,1.05-6.7,1.5-10.22l2.28.71ZM560.78,316.3l-2.13,1.19c-.57-4.09-1.26-7.55-2.07-10.41-.99-3.42-2.25-6.37-3.77-8.88l1.74-2.14c2.99,4.94,5.09,11.69,6.23,20.24ZM558.05,295.68l-1.26,1.43c-.9-2.38-1.95-4.47-3.14-6.37l1.2-1.52c1.29,2,2.37,4.13,3.2,6.46ZM561.32,293.31l-1.29,1.47c-.9-2.38-1.95-4.51-3.11-6.37l1.17-1.47c1.32,2.04,2.39,4.18,3.23,6.37Z"/>
    <path d="M584.1,294.26c-3.17,4.18-6.89,9.12-11.14,14.92,2.33-2.19,4.55-3.23,6.65-3.23,2.49,0,4.43.95,5.84,2.85,1.38,1.9,2.07,4.47,2.07,7.79,0,3.71-1.05,6.7-3.08,8.98-2.1,2.28-4.7,3.42-7.81,3.42-2.04,0-3.65-.62-4.85-1.85-1.2-1.28-1.77-2.95-1.77-5.04,0-1.9.42-3.47,1.29-4.7.9-1.38,2.1-2.04,3.59-2.04,2.04,0,3.62,1,4.79,3.09.87,1.47,1.5,3.47,1.86,5.94l.75-.62c2.01-1.81,3.02-4.23,3.02-7.17,0-2.52-.57-4.42-1.65-5.7-1.02-1.19-2.42-1.76-4.28-1.76-2.12,0-4.34.85-6.68,2.57-2.01,1.52-3.86,3.47-5.54,5.89l-1.44-2.42,14.67-20.24-12.33.95-.12-3.33,14.91-.76,1.26,2.47ZM579.34,324.52c-.69-4.04-2.19-6.03-4.46-6.03-.84,0-1.5.33-1.98,1.04-.51.67-.75,1.52-.75,2.52s.3,1.85.96,2.57c.78.85,1.95,1.28,3.5,1.28,1.02,0,1.95-.19,2.84-.47-.06-.38-.09-.67-.12-.9Z"/>
    <path d="M601.11,312.93c-1.86,3.18-2.75,5.56-2.75,7.13,0,3.75,2.93,5.65,8.8,5.65,3.5,0,6.77-.48,9.76-1.38l.36,3.37c-3.02.9-6.41,1.38-10.12,1.38-7.42,0-11.11-2.95-11.11-8.84,0-2.61,1.08-5.8,3.29-9.5l1.77,2.19ZM606.8,295.49c3.47,0,6.38-.19,8.71-.57l.84,2.99c-2.63,2.28-5.15,4.8-7.6,7.6l-1.29-2.71c1.65-1.71,3.23-3.23,4.76-4.56-1.44.33-3.26.52-5.42.52-3.62,0-6.68-.38-9.19-1.09l.3-3.33c2.51.76,5.48,1.14,8.89,1.14Z"/>
    <path d="M635.15,300.01c.21,1.71.57,3.33,1.05,4.85,2.37-1.43,5.33-2.85,8.86-4.32l.84,3.23c-4.91,2-8.71,3.99-11.35,5.99-3.95,2.9-5.9,6.08-5.9,9.5,0,4.32,2.99,6.51,8.98,6.51,2.93,0,5.9-.33,8.83-.9l.21,3.52c-3.05.52-6.08.81-9.04.81-3.86,0-6.71-.81-8.53-2.38-1.89-1.62-2.81-4.09-2.81-7.46,0-4.56,2.04-8.51,6.14-11.88.48-.43,1.02-.86,1.62-1.24-.6-1.95-1.02-4.09-1.26-6.46-.3-2.52-.48-5.94-.54-10.31l2.3-.09c.06,4.61.27,8.17.6,10.64Z"/>
    <path d="M665.24,290.41c-.42,3.18-.87,6.27-1.35,9.31.54-.05,1.05-.05,1.56-.05,2.1,0,3.68,1,4.79,3.04,1.08,2,1.62,4.85,1.62,8.51,0,4.75-.33,8.55-.96,11.5-.96,4.47-2.63,6.75-5,6.75-1.44,0-3.02-.52-4.7-1.47l.33-3.37c1.62.95,3.08,1.42,4.34,1.42,1.53,0,2.58-2.04,3.17-6.03.33-2.38.51-5.32.51-8.79,0-5.51-1.41-8.27-4.16-8.27-.66,0-1.35,0-2.07.1-1.8,10.17-4.04,19.05-6.68,26.66l-2.1-1.57c2.51-7.32,4.64-15.58,6.32-24.8-1.8.28-3.83.71-6.08,1.28l-.33-3.33c2.51-.67,4.85-1.14,7.01-1.38.54-3.33,1.05-6.7,1.5-10.22l2.28.71ZM680.54,316.3l-2.13,1.19c-.57-4.09-1.26-7.55-2.07-10.41-.99-3.42-2.25-6.37-3.77-8.88l1.74-2.14c2.99,4.94,5.09,11.69,6.23,20.24Z"/>
    <path d="M690.57,297.92c-.36,7.51-.87,12.64-1.56,15.39,1.32-1.71,2.81-3.04,4.55-3.94,1.74-1,3.53-1.47,5.39-1.47,2.16,0,3.95.85,5.39,2.57,1.5,1.81,2.25,4.23,2.25,7.22,0,3.99-1.08,6.98-3.17,9.08-1.98,1.9-4.58,2.9-7.87,2.9-1.8,0-3.71-.14-5.69-.33l.12-3.47c1.98.24,3.83.38,5.57.38,2.84,0,5.03-.76,6.53-2.28,1.5-1.52,2.25-3.61,2.25-6.27,0-1.81-.48-3.33-1.41-4.56-1.02-1.33-2.33-1.95-3.95-1.95-2.04,0-3.89.52-5.6,1.57-1.71,1.05-3.44,2.71-5.21,5.08l-1.86-1.33c1.02-4.37,1.71-10.69,2.04-18.86l2.25.29ZM695.99,291.59c3.02,1.09,5.27,2.09,6.71,2.99l-.84,3.04c-1.38-.86-3.5-1.76-6.38-2.8-2.63-.95-4.79-1.57-6.47-1.85l.48-3.28c1.62.29,3.77.9,6.5,1.9Z"/>
    <path d="M740.36,287.89v3.18h-7.4v25.94h-2.18v-29.13h9.58Z"/>
    <path d="M769.67,302.9l-14.85,4.32v18.67c0,1,.27,1.52.81,1.52h12.81v3.33h-13.41c-1.62,0-2.42-1.38-2.42-4.04v-18.82l-9.64,2.8-.33-3.28,9.97-2.9v-15.97h2.21v15.3l14.52-4.23.33,3.28Z"/>
    <path d="M777.64,299.39v-3.75h-4.79v-3.04h4.79v-4.13h1.98v4.13h4.61v3.04h-4.61v3.75h4.01v18.96h-4.01v3.75h4.7v3.04h-4.7v6.6h-1.98v-6.6h-4.85v-3.04h4.85v-3.75h-4.1v-18.96h4.1ZM777.79,307.47v-5.23h-2.42v5.23h2.42ZM777.79,310.13h-2.42v5.37h2.42v-5.37ZM779.46,307.47h2.4v-5.23h-2.4v5.23ZM781.86,310.13h-2.4v5.37h2.4v-5.37ZM799.61,305.14v3.33h-7.78c-1.02,7.22-2.1,12.97-3.23,17.15,2.75-.62,5.39-1.38,7.9-2.33-.69-3.33-1.44-6.51-2.28-9.6l1.89-.95c1.44,5.08,2.69,10.93,3.8,17.53l-2.01.81c-.27-1.62-.54-3.18-.81-4.7-2.46.95-6.32,2.04-11.59,3.33l-.54-3.23c.72-.19,1.17-.71,1.41-1.47,1.2-3.9,2.3-9.41,3.32-16.54h-4.7v-3.33h14.61ZM798.26,291.98v3.33h-12.09v-3.33h12.09Z"/>
    <path d="M825.21,301.76c1.35,2.66,3.02,5.08,5.03,7.27l-1.35,2.99c-2.3-2.57-4.13-5.65-5.45-9.17.27,1.33.51,2.9.69,4.66.18,1.66.27,3.14.27,4.47,0,5.32-.78,9.5-2.31,12.59-1.74,3.37-4.25,5.08-7.54,5.08-2.84,0-5.12-1.24-6.8-3.71-1.71-2.57-2.54-6.03-2.54-10.41,0-2.66.39-5.51,1.17-8.5.84-3.28,2.04-6.42,3.65-9.36-1.14.86-2.42,1.57-3.83,2.09-1.38.43-2.72.67-4.1.67v-3.47c3.77-.14,7.01-1.33,9.73-3.56l1.47,2.33c-2.21,4.42-3.77,8.31-4.67,11.69-.75,2.76-1.11,5.46-1.11,8.12,0,3.37.63,5.99,1.89,7.89,1.26,1.81,2.96,2.76,5.15,2.76,2.51,0,4.43-1.33,5.75-3.9,1.23-2.47,1.86-5.89,1.86-10.36,0-5.75-.78-11.83-2.34-18.25l2.16-1.24c.72,3.33,1.8,6.46,3.23,9.31ZM827.67,296.58l-1.29,1.43c-.9-2.38-1.95-4.47-3.14-6.37l1.23-1.47c1.26,1.95,2.33,4.09,3.2,6.41ZM830.69,293.35l-1.29,1.52c-.93-2.42-1.98-4.56-3.14-6.42l1.2-1.47c1.32,2.04,2.39,4.18,3.23,6.37Z"/>
    <path d="M843.18,292.45c-1.68,16.63-4.76,29.46-9.22,38.58l-1.41-2.8c4.19-8.98,7.04-21.1,8.5-36.35l2.12.57ZM859.61,328.09l-1.14,3.14c-5.93-8.46-9.34-21.81-10.24-40.15l2.01-1c.69,17.01,3.8,29.65,9.37,38.01Z"/>
    <path d="M870.75,288.22v6.46h4.7v3.14h-4.7v6.99h5.09v3.14h-4.52v6.7h4.25v3.14h-4.25v8.98c1.89.76,5.45,1.19,10.69,1.19,3.47,0,6.05-.09,7.75-.24l-.36,3.33h-6.92c-6.89,0-11.2-.67-12.93-1.95-1.5-1.14-2.81-3.09-3.95-5.89-.45,3.14-1.05,6.03-1.8,8.74l-1.65-2.33c1.5-5.51,2.3-11.74,2.48-18.63l1.92.33c-.06,2.8-.24,5.46-.48,8.03.96,2.66,2.01,4.66,3.17,5.89v-17.3h-6.2v-3.14h5.54v-6.99h-4.97v-3.14h4.97v-6.46h2.16ZM887.73,307.04h-8.14v11.26c0,1.14.42,1.76,1.32,1.76h4.25c.69-.05,1.17-.52,1.44-1.43.21-.76.39-2.61.51-5.61l2.04,1.05c-.18,2.9-.39,4.99-.66,6.22-.45,1.9-1.35,2.9-2.69,2.99h-5.69c-1.77,0-2.63-1.28-2.63-3.8v-28.04h10.27v15.59ZM885.66,303.9v-9.36h-6.08v9.36h6.08Z"/>
    <path d="M915.57,297.01c-2.9.62-5.78,1.09-8.59,1.47.6,1.81,1.2,3.56,1.83,5.23,2.9-.48,5.78-1,8.62-1.66l.39,3.23c-2.54.62-5.15,1.14-7.78,1.57,1.44,3.42,2.9,6.46,4.46,9.08l-1.35,2.42c-1.47-1.24-2.93-2.19-4.4-2.85-1.65-.81-3.14-1.19-4.52-1.19-2.04,0-3.56.52-4.58,1.57-1.05,1-1.56,2.42-1.56,4.23,0,1.71.6,3.14,1.86,4.18,1.44,1.24,3.62,1.85,6.56,1.85,2.3,0,4.4-.29,6.29-.76l.15,3.23c-1.71.47-3.86.76-6.44.76-3.41,0-6.05-.81-7.84-2.33-1.92-1.62-2.84-3.94-2.84-6.94s.66-4.99,2.04-6.46c1.41-1.57,3.5-2.33,6.32-2.33,2.1,0,4.34.86,6.74,2.66-1.08-1.62-2.19-3.85-3.35-6.79-4.34.52-8.83.81-13.47.86v-3.23c4.13-.05,8.23-.29,12.3-.76-.6-1.62-1.17-3.37-1.77-5.27-3.17.33-6.26.52-9.31.57v-3.23c2.67,0,5.45-.19,8.32-.48-.54-1.71-1.05-3.47-1.56-5.32l2.1-1.38c.6,2.23,1.2,4.37,1.83,6.41,2.93-.38,6.02-.95,9.19-1.62l.39,3.28Z"/>
    <path d="M931.38,303.14v29.13h-9.58v-3.18h7.39v-25.94h2.19Z"/>
    <path d="M974.85,298.87c2.16,3.23,3.26,7.22,3.26,11.97,0,5.32-1.02,9.46-2.99,12.5-1.8,2.76-4.61,4.75-8.41,5.99l-.75-3.23c3.56-1.09,6.14-2.95,7.72-5.51,1.44-2.38,2.19-5.65,2.19-9.74s-.93-7.22-2.78-9.79c-1.68-2.33-3.65-3.61-5.93-3.8l-.63,8.84c-.45,4.89-1.08,8.88-1.89,11.97-1.32,5.32-3.08,7.98-5.24,7.98-1.74,0-3.17-1.24-4.28-3.71-1.08-2.38-1.59-5.32-1.59-8.74,0-5.32,1.14-9.84,3.41-13.59,2.42-4.09,5.6-6.08,9.52-6.08,3.35,0,6.14,1.62,8.38,4.94ZM963.69,311.27c.6-4.23,1.05-8.89,1.29-13.92-2.37.38-4.4,1.9-6.08,4.47-2.1,3.14-3.11,7.08-3.11,11.78,0,2.66.36,4.85,1.08,6.61.66,1.71,1.53,2.57,2.54,2.57,1.74,0,3.17-3.85,4.28-11.5Z"/>
    <path d="M1005.57,292.31c-2.25,3.9-4.97,7.7-8.14,11.45v25.8h-2.33v-23.19c-3.53,3.75-7.01,6.79-10.45,9.12l-1.23-3.14c3.53-2.38,7.21-5.75,11.11-10.03,3.8-4.28,6.89-8.41,9.28-12.45l1.77,2.42Z"/>
    <path d="M1027.4,307.18c1.5-4.56,2.81-9.98,3.95-16.25l2.33.9c-1.2,6.75-2.6,12.54-4.28,17.49,2.99,3.28,5.9,7.13,8.71,11.55l-1.62,2.66c-2.75-4.18-5.54-7.84-8.29-10.98-.24.52-.45,1.04-.66,1.57-2.93,6.75-6.77,11.93-11.47,15.54l-1.5-2.95c4.55-3.42,8.2-8.31,10.99-14.68.21-.52.42-1.05.66-1.62-2.78-2.85-5.78-5.42-8.95-7.6l1.05-3.28c3.23,2.28,6.26,4.8,9.07,7.65Z"/>
    <path d="M1066.77,308.27v3.47h-22.24v-3.47h22.24Z"/>
    <path d="M1083.51,308.04l-1.2,3.14c-2.54-2.28-5.39-4.13-8.56-5.46l.96-3.33c2.93,1.14,5.87,3.04,8.8,5.66ZM1097.4,302.14c-1.77,6.56-4.37,12.21-7.81,17.06-3.74,5.23-8.05,8.84-12.9,10.74l-1.08-3.42c4.55-1.81,8.59-5.08,12.18-9.93,3.35-4.56,5.81-9.79,7.42-15.78l2.19,1.33ZM1086.17,297.49l-1.26,2.9c-2.22-2.23-5.06-4.09-8.53-5.56l.96-3.33c3.44,1.47,6.38,3.47,8.83,5.99ZM1095.51,297.2l-1.26,1.43c-.9-2.38-1.98-4.47-3.17-6.37l1.23-1.47c1.26,1.95,2.33,4.09,3.2,6.42ZM1098.51,293.88l-1.32,1.47c-.9-2.38-1.95-4.51-3.11-6.37l1.2-1.47c1.32,2.04,2.39,4.18,3.23,6.37Z"/>
    <path d="M1114.35,290.41c-.42,3.18-.87,6.27-1.35,9.31.54-.05,1.05-.05,1.56-.05,2.1,0,3.68,1,4.79,3.04,1.08,2,1.62,4.85,1.62,8.51,0,4.75-.33,8.55-.96,11.5-.96,4.47-2.63,6.75-5,6.75-1.44,0-3.02-.52-4.7-1.47l.33-3.37c1.62.95,3.08,1.42,4.34,1.42,1.53,0,2.58-2.04,3.17-6.03.33-2.38.51-5.32.51-8.79,0-5.51-1.41-8.27-4.16-8.27-.66,0-1.35,0-2.07.1-1.8,10.17-4.04,19.05-6.68,26.66l-2.1-1.57c2.51-7.32,4.64-15.58,6.32-24.8-1.8.28-3.83.71-6.08,1.28l-.33-3.33c2.51-.67,4.85-1.14,7.01-1.38.54-3.33,1.05-6.7,1.5-10.22l2.28.71ZM1129.65,316.3l-2.13,1.19c-.57-4.09-1.26-7.55-2.07-10.41-.99-3.42-2.25-6.37-3.77-8.88l1.74-2.14c2.99,4.94,5.09,11.69,6.23,20.24ZM1126.92,295.68l-1.26,1.43c-.9-2.38-1.95-4.47-3.14-6.37l1.2-1.52c1.29,2,2.37,4.13,3.2,6.46ZM1130.18,293.31l-1.29,1.47c-.9-2.38-1.95-4.51-3.11-6.37l1.17-1.47c1.32,2.04,2.39,4.18,3.23,6.37Z"/>
    <path d="M1156.98,297.2c-3.62.33-8.08.57-13.41.76-.12,2-.21,4.04-.24,6.13,1.38-.52,2.87-.76,4.46-.76.51,0,1.02,0,1.53.09.12-.86.27-1.76.42-2.66l2.04.71c-.15.86-.3,1.71-.42,2.57,1.11.48,2.13,1.24,3.08,2.28,2.13,2.33,3.2,5.51,3.2,9.5,0,4.23-.9,7.51-2.69,9.88-1.68,2.19-4.16,3.61-7.45,4.32l-.75-2.95c2.81-.57,4.97-1.76,6.44-3.56,1.53-1.95,2.31-4.51,2.31-7.7s-.87-5.51-2.6-7.22c-.66-.67-1.35-1.14-2.1-1.47-.9,4.32-2.01,8.08-3.29,11.31-2.63,6.37-5.81,9.6-9.55,9.6-1.47,0-2.6-.76-3.41-2.19-.84-1.43-1.23-3.33-1.23-5.8,0-4.42,1.35-8.27,4.04-11.55,1.14-1.43,2.42-2.57,3.8-3.37.03-2.42.12-4.8.27-7.13-2.4,0-4.94.05-7.63.05l-.03-3.18c2.81,0,5.42-.05,7.87-.05.15-2,.36-3.99.6-5.94l2.13.76c-.21,1.66-.39,3.37-.54,5.13,5.33-.14,9.67-.38,13.05-.71l.12,3.14ZM1138.81,310.89c-2.27,2.71-3.38,5.75-3.38,9.17,0,3.23.84,4.85,2.51,4.85,1.44,0,2.78-.67,4.04-1.95-.57-4.18-.87-8.98-.87-14.3-.84.57-1.59,1.33-2.31,2.23ZM1147.79,306.47c-1.62,0-3.14.29-4.52.9v.67c0,4.66.18,8.79.6,12.4.6-1.05,1.2-2.28,1.8-3.66,1.2-2.95,2.21-6.37,3.05-10.26-.3-.05-.63-.05-.93-.05Z"/>
    <path d="M1182.91,294.26c-3.17,4.18-6.89,9.12-11.14,14.92,2.33-2.19,4.55-3.23,6.65-3.23,2.49,0,4.43.95,5.84,2.85,1.38,1.9,2.07,4.47,2.07,7.79,0,3.71-1.05,6.7-3.08,8.98-2.1,2.28-4.7,3.42-7.81,3.42-2.04,0-3.65-.62-4.85-1.85-1.2-1.28-1.77-2.95-1.77-5.04,0-1.9.42-3.47,1.29-4.7.9-1.38,2.1-2.04,3.59-2.04,2.04,0,3.62,1,4.79,3.09.87,1.47,1.5,3.47,1.86,5.94l.75-.62c2.01-1.81,3.02-4.23,3.02-7.17,0-2.52-.57-4.42-1.65-5.7-1.02-1.19-2.42-1.76-4.28-1.76-2.12,0-4.34.85-6.68,2.57-2.01,1.52-3.86,3.47-5.54,5.89l-1.44-2.42,14.67-20.24-12.33.95-.12-3.33,14.91-.76,1.26,2.47ZM1178.15,324.52c-.69-4.04-2.19-6.03-4.46-6.03-.84,0-1.5.33-1.98,1.04-.51.67-.75,1.52-.75,2.52s.3,1.85.96,2.57c.78.85,1.95,1.28,3.5,1.28,1.02,0,1.95-.19,2.84-.47-.06-.38-.09-.67-.12-.9Z"/>
    <path d="M1208.54,299.06c-2.16.43-4.67.76-7.54,1.04-.42,3.42-.9,6.79-1.38,10.03-1.14,7.46-2.4,13.88-3.77,19.24l-2.19-1.19c1.38-5.27,2.63-11.55,3.77-18.86.42-2.95.84-5.99,1.23-9.03-1.83.09-3.77.19-5.84.24l-.09-3.37c2.21,0,4.31-.09,6.32-.19.3-2.66.57-5.32.81-8.03l2.31.47c-.24,2.47-.51,4.94-.78,7.37,2.45-.24,4.7-.57,6.79-1l.36,3.28ZM1206.38,316.49c-.96,2.09-1.44,3.85-1.44,5.37,0,1.24.57,2.23,1.74,2.9,1.08.62,2.57.95,4.55.95,2.22,0,4.25-.29,6.05-.86l.06,3.37c-1.74.48-3.77.76-6.11.76-5.72,0-8.56-2.28-8.56-6.79,0-2.38.57-4.8,1.77-7.37l1.95,1.66ZM1216.95,306.9c-4.22,0-8.5.29-12.87.9l-.12-3.42c4.37-.57,8.68-.86,12.99-.86v3.37Z"/>
    <path d="M1238.87,290.36c-.06,2.47-.18,4.8-.33,7.03,2.33.38,4.31,1.62,5.93,3.71,2.16,2.8,3.23,6.7,3.23,11.64s-1.14,8.84-3.41,11.88c-2.04,2.71-4.73,4.47-8.14,5.32l-.81-3.18c3.14-.76,5.6-2.33,7.4-4.66,1.86-2.47,2.78-5.56,2.78-9.36,0-3.99-.87-7.08-2.58-9.26-1.26-1.62-2.78-2.57-4.64-2.85-.42,4.75-1.08,9.03-1.92,12.73-2.01,8.7-5,13.07-8.98,13.07-1.44,0-2.61-.81-3.47-2.33-.93-1.62-1.38-3.75-1.38-6.51,0-5.46,1.47-10.22,4.4-14.25.21-.33.45-.62.69-.9-.3-3.04-.48-6.18-.54-9.46l2.19-.29c.03,2.57.15,5.08.36,7.55,2.04-1.9,4.28-2.9,6.74-2.99.15-2.33.24-4.7.3-7.18l2.19.29ZM1228.45,308.61c-.15-.81-.27-1.62-.36-2.38-2.25,3.33-3.35,7.13-3.35,11.36,0,1.66.27,3.04.81,4.09.51.95,1.14,1.47,1.92,1.47,1.5,0,2.84-1,4.04-2.99-1.29-3.33-2.3-7.17-3.05-11.55ZM1230.01,303.81c.12,1.14.27,2.23.45,3.33.6,3.85,1.41,7.22,2.43,10.07.6-1.66,1.14-3.66,1.65-5.99.72-3.33,1.26-6.89,1.62-10.69-2.21.14-4.28,1.24-6.14,3.28Z"/>
    <path d="M47.48,375.45c-2.25,3.9-4.97,7.7-8.14,11.45v25.8h-2.33v-23.19c-3.53,3.75-7.01,6.79-10.45,9.12l-1.23-3.14c3.53-2.38,7.21-5.75,11.11-10.03,3.8-4.28,6.89-8.41,9.28-12.45l1.77,2.42Z"/>
    <path d="M67.3,373.74c-.36,1.62-.75,3.23-1.23,4.85h10.18l1.44,1.28c-.78,7.46-2.54,14.07-5.36,19.86-2.96,6.03-6.74,10.5-11.29,13.35l-1.26-3.18c4.07-2.57,7.45-6.32,10.15-11.26.09-.19.18-.33.27-.52-.84-.95-1.77-1.95-2.72-2.95-1.62-1.66-3.11-3.04-4.46-4.09l1.38-2.66c1.38,1.14,2.87,2.47,4.43,3.99.99.95,1.89,1.9,2.72,2.85,1.68-3.99,2.87-8.36,3.53-13.21h-10.18c-.48,1.33-1.02,2.61-1.59,3.9-1.68,3.66-3.56,6.84-5.72,9.55l-1.59-2.47c2.1-2.76,3.95-5.89,5.57-9.41,1.59-3.61,2.75-7.27,3.53-10.98l2.19,1.09Z"/>
    <path d="M91.52,376.02v22.86h-2.37v-22.86h2.37ZM105.92,375.02v15.63c0,5.99-.87,10.83-2.58,14.45-1.83,3.85-4.7,6.56-8.65,8.17l-1.08-3.28c3.68-1.47,6.32-3.94,7.9-7.36,1.38-2.99,2.07-7.08,2.07-12.21v-15.4h2.33Z"/>
    <path d="M138.29,376.3l1.23,1.76c-1.11,3.42-2.28,6.42-3.5,8.98-1.44,2.9-3.08,5.51-4.94,7.84l-1.65-2.61c3.11-3.9,5.39-8.03,6.86-12.5h-19.91v-3.47h21.91ZM128.23,384.62v6.51c0,5.23-.63,9.55-1.83,13.07-1.32,3.75-3.38,6.7-6.23,8.89l-1.47-2.95c2.51-1.95,4.37-4.37,5.51-7.32,1.11-2.95,1.68-6.84,1.68-11.69v-6.51h2.34Z"/>
    <path d="M148.56,377.59c-.51-1.9-1.14-3.71-1.86-5.42l2.04-.95c.75,2.09,1.32,3.99,1.71,5.7l-1.08.67h4.28v3.14h-9.64v-3.14h4.55ZM146.91,415.03h-2.01v-16.73h8.05v16.01h-1.95v-2.19h-4.1v2.9ZM152.69,384.48v2.99h-7.57v-2.99h7.57ZM152.69,391.18v3.04h-7.57v-3.04h7.57ZM151.01,401.34h-4.1v7.65h4.1v-7.65ZM170.17,373.36v3.09h-7.75l-.66,5.37h6.98v9.36h2.28v3.14h-16.44v-3.14h4.01l.78-6.37h-3.59v-2.99h3.98l.66-5.37h-5.63v-3.09h15.39ZM169.19,415.17h-2.01v-2.19h-9.04v2.19h-2.04v-16.39h13.08v16.39ZM167.18,409.9v-8.08h-9.04v8.08h9.04ZM166.73,391.18v-6.37h-5.36l-.78,6.37h6.14Z"/>
    <path d="M196.4,382.01c2.16,3.23,3.26,7.22,3.26,11.97,0,5.32-1.02,9.46-2.99,12.5-1.8,2.76-4.61,4.75-8.41,5.99l-.75-3.23c3.56-1.09,6.14-2.95,7.72-5.51,1.44-2.38,2.19-5.65,2.19-9.74s-.93-7.22-2.78-9.79c-1.68-2.33-3.65-3.61-5.93-3.8l-.63,8.84c-.45,4.89-1.08,8.88-1.89,11.97-1.32,5.32-3.08,7.98-5.24,7.98-1.74,0-3.17-1.24-4.28-3.71-1.08-2.38-1.59-5.32-1.59-8.74,0-5.32,1.14-9.84,3.41-13.59,2.42-4.09,5.6-6.08,9.52-6.08,3.35,0,6.14,1.62,8.38,4.94ZM185.24,394.41c.6-4.23,1.05-8.89,1.29-13.92-2.37.38-4.4,1.9-6.08,4.47-2.1,3.14-3.11,7.08-3.11,11.78,0,2.66.36,4.85,1.08,6.61.66,1.71,1.53,2.57,2.54,2.57,1.74,0,3.17-3.85,4.28-11.5Z"/>
    <path d="M217.39,376.4v3.18l-7.87,30.74h-2.6l7.96-30.36h-11.53v-3.56h14.04Z"/>
    <path d="M247.75,371.03v3.18h-7.4v25.94h-2.18v-29.13h9.58Z"/>
    <path d="M262.33,392.74h-2.33c-.21-1.52-.6-2.66-1.2-3.33-.66-.76-1.62-1.14-2.84-1.14-1.08,0-1.92.28-2.51.95-.66.62-.99,1.47-.99,2.57s.42,1.95,1.32,2.66c.57.43,1.65.95,3.2,1.62,1.86.71,3.17,1.47,3.98,2.28,1.23,1.24,1.86,2.9,1.86,5.04,0,5.04-2.19,7.6-6.56,7.6-4.07,0-6.29-2.85-6.65-8.5h2.33c.18,1.95.63,3.33,1.29,4.18.66.76,1.65,1.14,2.96,1.14,2.75,0,4.16-1.42,4.16-4.18,0-1.38-.51-2.42-1.47-3.18-.51-.38-1.62-.9-3.29-1.57-1.83-.71-3.11-1.43-3.83-2.19-1.2-1.14-1.77-2.71-1.77-4.8s.57-3.71,1.74-4.94c1.08-1.24,2.51-1.85,4.25-1.85,3.83,0,5.93,2.52,6.35,7.65Z"/>
    <path d="M277.63,389.09c1.14,2.38,1.74,5.75,1.8,10.03h-12.21c.12,2.76.57,4.89,1.41,6.42.84,1.52,2.01,2.28,3.47,2.28,1.26,0,2.31-.52,3.08-1.52.66-.86,1.17-2.14,1.56-3.85h2.4c-.36,2.38-1.05,4.28-2.1,5.8-1.29,1.81-2.93,2.76-4.94,2.76-2.21,0-4.01-1.19-5.33-3.47-1.38-2.38-2.04-5.51-2.04-9.5,0-3.61.63-6.65,1.95-9.08,1.32-2.57,3.08-3.85,5.33-3.85,2.49,0,4.37,1.33,5.63,3.99ZM268.74,390.42c-.84,1.43-1.32,3.33-1.47,5.75h9.67c-.3-5.27-1.95-7.89-4.88-7.89-1.38,0-2.49.71-3.32,2.14Z"/>
    <path d="M286.37,385.76h3.83v3.18h-3.83v15.63c0,.9.09,1.57.33,1.95.21.38.6.62,1.14.62h1.98v3.18h-2.33c-1.26,0-2.19-.52-2.72-1.57-.51-.95-.75-2.33-.75-4.18v-15.63h-3.11v-3.18h3.11v-6.37l2.37-1.57v7.94Z"/>
    <path d="M297,385.76h3.83v3.18h-3.83v15.63c0,.9.09,1.57.33,1.95.21.38.6.62,1.14.62h1.98v3.18h-2.33c-1.26,0-2.19-.52-2.72-1.57-.51-.95-.75-2.33-.75-4.18v-15.63h-3.11v-3.18h3.11v-6.37l2.37-1.57v7.94Z"/>
    <path d="M315.51,389.09c1.14,2.38,1.74,5.75,1.8,10.03h-12.21c.12,2.76.57,4.89,1.41,6.42.84,1.52,2.01,2.28,3.47,2.28,1.26,0,2.31-.52,3.08-1.52.66-.86,1.17-2.14,1.56-3.85h2.4c-.36,2.38-1.05,4.28-2.1,5.8-1.29,1.81-2.93,2.76-4.94,2.76-2.21,0-4.01-1.19-5.33-3.47-1.38-2.38-2.04-5.51-2.04-9.5,0-3.61.63-6.65,1.95-9.08,1.32-2.57,3.08-3.85,5.33-3.85,2.49,0,4.37,1.33,5.63,3.99ZM306.62,390.42c-.84,1.43-1.32,3.33-1.47,5.75h9.67c-.3-5.27-1.95-7.89-4.88-7.89-1.38,0-2.49.71-3.32,2.14Z"/>
    <path d="M326.49,371.03c-1.23,3.14-2.18,6.41-2.84,9.84-.9,4.18-1.32,8.27-1.32,12.35s.42,8.17,1.32,12.35c.66,3.37,1.62,6.65,2.84,9.84h-2.09c-1.32-3.09-2.34-6.37-3.08-9.79-.9-4.09-1.32-8.22-1.32-12.35s.42-8.36,1.32-12.45c.75-3.47,1.77-6.75,3.08-9.79h2.09Z"/>
    <path d="M340.15,373.12l-.12,12.35,14.04-3.23,1.56,1.81c-2.39,6.75-5.3,12.31-8.65,16.73l-1.56-2.71c2.57-3.37,4.82-7.41,6.74-12.07l-12.15,2.9c-.06,5.61-.06,10.74-.06,15.3,0,1.85.42,3.09,1.26,3.75.78.57,2.33.9,4.61.9,2.72,0,5.69-.29,8.89-.86l-.03,3.47c-3.47.52-6.41.81-8.86.81-3.11,0-5.24-.48-6.32-1.43-1.29-1.09-1.92-3.28-1.92-6.51,0-4.47,0-9.46.06-14.87l-6.38,1.52-.39-3.42,6.8-1.57c.03-4.09.09-8.36.15-12.88h2.33Z"/>
    <path d="M369.52,396.78l-1.86,1.81c-1.17-3.52-2.42-6.84-3.8-9.98l1.89-1.81c1.5,3.52,2.75,6.84,3.77,9.98ZM382.36,385.9c-.78,6.7-2.12,12.21-4.07,16.49-2.13,4.51-5.09,7.94-8.86,10.26l-1.26-2.95c3.53-2.23,6.26-5.32,8.17-9.31,1.8-3.8,3.05-8.84,3.77-15.11l2.25.62ZM373.05,389.13c.66,1.62,1.23,3.28,1.77,4.89l-1.89,1.76c-.99-2.99-2.25-6.37-3.8-10.07l1.86-1.71c.81,1.95,1.5,3.66,2.07,5.13Z"/>
    <path d="M415.21,387.8v3.42h-10.81c-.15,5.08-.78,9.22-1.86,12.4-1.29,3.71-3.53,6.94-6.74,9.79l-1.56-2.76c2.87-2.47,4.91-5.32,6.08-8.51,1.02-2.76,1.59-6.41,1.71-10.93h-11.44v-3.42h24.61ZM411.85,376.16v3.42h-18.65v-3.42h18.65Z"/>
    <path d="M421.89,371.03c1.29,3.04,2.31,6.32,3.08,9.79.87,4.09,1.32,8.22,1.32,12.45s-.45,8.27-1.32,12.35c-.78,3.42-1.8,6.7-3.08,9.79h-2.1c1.2-3.18,2.16-6.46,2.84-9.84.87-4.18,1.32-8.31,1.32-12.35s-.45-8.17-1.32-12.35c-.69-3.42-1.65-6.7-2.84-9.84h2.1Z"/>
    <path d="M438.5,386.28v29.13h-9.58v-3.18h7.39v-25.94h2.19Z"/>
    <path d="M471.62,383.15c.21,1.71.57,3.33,1.05,4.85,2.37-1.43,5.33-2.85,8.86-4.32l.84,3.23c-4.91,2-8.71,3.99-11.35,5.99-3.95,2.9-5.9,6.08-5.9,9.5,0,4.32,2.99,6.51,8.98,6.51,2.93,0,5.9-.33,8.83-.9l.21,3.52c-3.05.52-6.08.81-9.04.81-3.86,0-6.71-.81-8.53-2.38-1.89-1.62-2.81-4.09-2.81-7.46,0-4.56,2.04-8.51,6.14-11.88.48-.43,1.02-.86,1.62-1.24-.6-1.95-1.02-4.09-1.26-6.46-.3-2.52-.48-5.94-.54-10.31l2.3-.09c.06,4.61.27,8.17.6,10.64Z"/>
    <path d="M503.98,392.13c.99,1.62,1.86,3.28,2.58,4.89l-1.5,2c-.72-1.62-1.59-3.28-2.54-4.89-1.11-1.85-2.21-3.42-3.32-4.75l1.35-2c1.14,1.24,2.28,2.85,3.44,4.75Z"/>
    <path d="M542.63,375.45c-2.25,3.9-4.97,7.7-8.14,11.45v25.8h-2.33v-23.19c-3.53,3.75-7.01,6.79-10.45,9.12l-1.23-3.14c3.53-2.38,7.21-5.75,11.11-10.03,3.8-4.28,6.89-8.41,9.28-12.45l1.77,2.42Z"/>
    <path d="M562.45,373.74c-.36,1.62-.75,3.23-1.23,4.85h10.18l1.44,1.28c-.78,7.46-2.54,14.07-5.36,19.86-2.96,6.03-6.74,10.5-11.29,13.35l-1.26-3.18c4.07-2.57,7.45-6.32,10.15-11.26.09-.19.18-.33.27-.52-.84-.95-1.77-1.95-2.72-2.95-1.62-1.66-3.11-3.04-4.46-4.09l1.38-2.66c1.38,1.14,2.87,2.47,4.43,3.99.99.95,1.89,1.9,2.72,2.85,1.68-3.99,2.87-8.36,3.53-13.21h-10.18c-.48,1.33-1.02,2.61-1.59,3.9-1.68,3.66-3.56,6.84-5.72,9.55l-1.59-2.47c2.1-2.76,3.95-5.89,5.57-9.41,1.59-3.61,2.75-7.27,3.53-10.98l2.19,1.09Z"/>
    <path d="M586.68,376.02v22.86h-2.37v-22.86h2.37ZM601.08,375.02v15.63c0,5.99-.87,10.83-2.58,14.45-1.83,3.85-4.7,6.56-8.65,8.17l-1.08-3.28c3.68-1.47,6.32-3.94,7.9-7.36,1.38-2.99,2.07-7.08,2.07-12.21v-15.4h2.33Z"/>
    <path d="M633.44,376.3l1.23,1.76c-1.11,3.42-2.28,6.42-3.5,8.98-1.44,2.9-3.08,5.51-4.94,7.84l-1.65-2.61c3.11-3.9,5.39-8.03,6.86-12.5h-19.91v-3.47h21.91ZM623.38,384.62v6.51c0,5.23-.63,9.55-1.83,13.07-1.32,3.75-3.38,6.7-6.23,8.89l-1.47-2.95c2.51-1.95,4.37-4.37,5.51-7.32,1.11-2.95,1.68-6.84,1.68-11.69v-6.51h2.34Z"/>
    <path d="M664.43,379.77l-5.39.38c-.9,0-2.07.86-3.44,2.57-1.5,1.81-2.75,3.94-3.74,6.41-1.17,2.85-1.74,5.75-1.74,8.65,0,3.33.9,5.99,2.72,7.93,1.95,2,4.79,3.09,8.56,3.28l-.42,3.28c-4.37-.09-7.69-1.43-9.94-3.99-2.16-2.42-3.23-5.84-3.23-10.26,0-3.8.78-7.41,2.37-10.74,1.29-2.85,2.93-5.18,4.97-6.99-4.43.57-9.28,1.24-14.49,2.09l-.3-3.37c9.58-1.47,17.57-2.28,24.01-2.42l.06,3.18ZM662.51,393.03l-1.29,1.43c-.9-2.38-1.95-4.47-3.14-6.37l1.2-1.52c1.29,2,2.37,4.13,3.23,6.46ZM665.39,389.75l-1.29,1.47c-.9-2.38-1.95-4.51-3.11-6.37l1.17-1.47c1.32,2.04,2.4,4.18,3.23,6.37Z"/>
    <path d="M671.92,403.39c-.18,4.09-.63,7.75-1.29,10.88l-1.86-.9c.72-2.99,1.14-6.42,1.32-10.31l1.83.33ZM679.55,399.63l-1.71.71c-.15-.95-.3-1.9-.48-2.8-2.6,1.28-5.12,2.14-7.54,2.61l-.54-2.99c.36-.24.66-.52.93-.9,1.02-1.71,2.28-4.51,3.77-8.41-1.5.47-3.02.9-4.52,1.28l-.51-3.04c.33-.24.63-.67.87-1.24,1.5-3.94,2.75-8.46,3.83-13.54l1.95,1.24c-1.41,5.56-2.81,9.98-4.25,13.3,1.26-.24,2.49-.57,3.71-.95.66-1.9,1.35-3.94,2.07-6.08l1.86,1.09c-2.75,7.98-5,13.59-6.74,16.82,1.56-.47,3.08-1.04,4.61-1.76-.3-1.43-.6-2.85-.96-4.18l1.62-.81c.75,2.8,1.44,6.03,2.04,9.65ZM676.14,412.32l-1.86.71c-.27-3.71-.6-6.94-.96-9.79l1.71-.57c.39,2.95.75,6.18,1.11,9.65ZM679.91,409.8l-1.77.71c-.42-2.9-.99-5.65-1.65-8.32l1.59-.81c.66,2.47,1.29,5.27,1.83,8.41ZM690.93,386.09v-3.47h-9.46v-2.85h9.46v-3.52h-9.82v-3.04h11.83v12.88h2.88v3.04h-7.6c-.24.43-.45.86-.69,1.24.96,1.71,1.65,3.9,2.12,6.56,1.44-1.38,2.81-3.42,4.13-6.18l1.41,2.23c-1.23,2.47-2.58,4.42-4.07,5.84,1.11,4.23,2.9,7.6,5.36,10.17l-1.44,2.71c-2.16-2.85-3.77-6.32-4.85-10.41.09,1.47.15,2.99.15,4.61,0,3.47-.42,5.89-1.26,7.27-.6.81-1.53,1.24-2.72,1.24-.87,0-1.56-.05-2.1-.09l-.57-3.04c.66.14,1.38.24,2.16.24.9,0,1.53-.33,1.89-.9.42-.81.66-2.47.69-4.94,0-1-.03-1.9-.06-2.76-1.95,3.47-4.49,6.32-7.6,8.6l-1.05-2.9c3.62-2.38,6.41-5.42,8.38-9.17-.15-1.05-.3-1.95-.48-2.76-1.65,2.85-3.8,5.18-6.47,6.98l-.96-2.66c2.84-1.81,5.09-4.04,6.71-6.79-.27-.71-.54-1.33-.84-1.85-1.38,1.57-3.11,2.99-5.15,4.28l-1.05-2.61c2.81-1.47,4.88-3.09,6.17-4.89h-6.89v-3.04h11.8Z"/>
    <path d="M707.22,371.36v6.46h4.7v3.14h-4.7v6.99h5.09v3.14h-4.52v6.7h4.25v3.14h-4.25v8.98c1.89.76,5.45,1.19,10.69,1.19,3.47,0,6.05-.09,7.75-.24l-.36,3.33h-6.92c-6.89,0-11.2-.67-12.93-1.95-1.5-1.14-2.81-3.09-3.95-5.89-.45,3.14-1.05,6.03-1.8,8.74l-1.65-2.33c1.5-5.51,2.3-11.74,2.48-18.63l1.92.33c-.06,2.8-.24,5.46-.48,8.03.96,2.66,2.01,4.66,3.17,5.89v-17.3h-6.2v-3.14h5.54v-6.99h-4.97v-3.14h4.97v-6.46h2.16ZM724.19,390.18h-8.14v11.26c0,1.14.42,1.76,1.32,1.76h4.25c.69-.05,1.17-.52,1.44-1.43.21-.76.39-2.61.51-5.61l2.04,1.05c-.18,2.9-.39,4.99-.66,6.22-.45,1.9-1.35,2.9-2.69,2.99h-5.69c-1.77,0-2.63-1.28-2.63-3.8v-28.04h10.27v15.59ZM722.13,387.04v-9.36h-6.08v9.36h6.08Z"/>
    <path d="M751.44,382.01c2.16,3.23,3.26,7.22,3.26,11.97,0,5.32-1.02,9.46-2.99,12.5-1.8,2.76-4.61,4.75-8.41,5.99l-.75-3.23c3.56-1.09,6.14-2.95,7.72-5.51,1.44-2.38,2.19-5.65,2.19-9.74s-.93-7.22-2.78-9.79c-1.68-2.33-3.65-3.61-5.93-3.8l-.63,8.84c-.45,4.89-1.08,8.88-1.89,11.97-1.32,5.32-3.08,7.98-5.24,7.98-1.74,0-3.17-1.24-4.28-3.71-1.08-2.38-1.59-5.32-1.59-8.74,0-5.32,1.14-9.84,3.41-13.59,2.42-4.09,5.6-6.08,9.52-6.08,3.35,0,6.14,1.62,8.38,4.94ZM740.27,394.41c.6-4.23,1.05-8.89,1.29-13.92-2.37.38-4.4,1.9-6.08,4.47-2.1,3.14-3.11,7.08-3.11,11.78,0,2.66.36,4.85,1.08,6.61.66,1.71,1.53,2.57,2.54,2.57,1.74,0,3.17-3.85,4.28-11.5Z"/>
    <path d="M763.36,378.25c-.39,4.09-.57,8.32-.57,12.59,0,5.18.45,9.36,1.38,12.59.84,2.85,1.83,4.32,3.02,4.32.78,0,1.5-1.28,2.16-3.85.42-1.62.75-3.47.99-5.46l2.31.86c-.51,3.61-1.17,6.41-1.98,8.46-.96,2.42-2.1,3.66-3.41,3.66-2.16,0-3.83-1.95-5.06-5.84-1.2-3.75-1.77-8.65-1.77-14.73,0-4.28.18-8.6.6-13.02l2.33.43ZM785.69,404.39l-2.33.19c-.36-10.55-2.04-18.63-5.06-24.33l1.89-2.23c3.29,6.32,5.15,15.11,5.51,26.37Z"/>
    <path d="M793.3,378.25c-.39,4.09-.57,8.32-.57,12.59,0,5.18.45,9.36,1.38,12.59.84,2.85,1.83,4.32,3.02,4.32.78,0,1.5-1.28,2.16-3.85.42-1.62.75-3.47.99-5.46l2.31.86c-.51,3.61-1.17,6.41-1.98,8.46-.96,2.42-2.1,3.66-3.41,3.66-2.16,0-3.83-1.95-5.06-5.84-1.2-3.75-1.77-8.65-1.77-14.73,0-4.28.18-8.6.6-13.02l2.33.43ZM815.63,404.39l-2.33.19c-.36-10.55-2.04-18.63-5.06-24.33l1.89-2.23c3.29,6.32,5.15,15.11,5.51,26.37Z"/>
    <path d="M826.29,393.79c-.21.95-.42,1.85-.66,2.8h6.38v2.8c-.66,3.14-1.77,5.84-3.32,8.12,1.41,1.05,2.78,2.14,4.13,3.33l-1.14,2.66c-1.32-1.28-2.87-2.57-4.64-3.9-2.01,2.19-4.52,3.99-7.57,5.32l-1.02-2.85c2.54-1.04,4.7-2.38,6.47-3.99-1.35-.95-2.78-1.85-4.31-2.8.78-2,1.44-3.9,2.04-5.7h-3.5v-2.99h4.37c.3-1.14.54-2.19.78-3.18l2.01.38ZM825.15,380.63v-9.08h1.98v9.08h5.42v2.99h-5.42v.86c1.59,1.38,3.17,2.95,4.76,4.7l-1.11,2.66c-1.41-2.04-2.63-3.66-3.65-4.85v5.8h-1.98v-7.94c-1.14,3.33-2.96,6.22-5.54,8.7l-1.11-2.8c2.57-2.09,4.37-4.47,5.39-7.13h-4.64v-2.99h5.9ZM823.51,377.97l-1.56,1.09c-.63-2.28-1.32-4.28-2.04-6.03l1.74-.9c.72,1.81,1.32,3.75,1.86,5.84ZM830.03,399.59h-5.24c-.48,1.52-1.02,2.99-1.59,4.37,1.2.67,2.36,1.38,3.5,2.19,1.5-1.9,2.6-4.09,3.32-6.56ZM832.37,373.12c-.6,2.04-1.38,4.04-2.3,5.99l-1.53-1.24c.9-2,1.65-3.99,2.22-5.94l1.62,1.19ZM833.32,394.17l-1.32-2.61c1.98-4.94,3.29-11.69,3.98-20.15l2.07.57c-.24,2.42-.51,4.7-.81,6.79h8.41v3.28h-2.19c-.15,8.03-1.11,14.87-2.84,20.57,1.53,3.75,3.35,7.08,5.45,9.98l-1.38,2.57c-2.01-2.8-3.74-5.89-5.18-9.31-1.47,3.71-3.29,6.79-5.51,9.36l-1.14-2.9c2.27-2.47,4.1-5.61,5.48-9.41-1.41-3.8-2.51-7.98-3.35-12.54l1.68-1.52c.72,3.8,1.62,7.37,2.75,10.6,1.29-4.89,1.98-10.69,2.1-17.39h-4.79c-.87,4.85-2.01,8.88-3.41,12.12Z"/>
    <path d="M870.15,384.81v3.18c-1.95,2.19-4.13,4.28-6.53,6.37v3.18h11.8v3.33h-11.8v10.07c0,2.61-.87,3.94-2.6,3.94h-3.68l-.51-3.14c1.05.05,2.19.09,3.44.09.78,0,1.17-.71,1.17-2.09v-8.89h-12.51v-3.33h12.51v-4.66c2.43-2,4.25-3.66,5.48-4.89h-12.84v-3.18h16.08ZM874.85,386.99h-2.16v-7.32h-21.08v7.32h-2.16v-10.6h11.77c-.42-1.71-.87-3.23-1.35-4.61l2.46-.66c.42,1.57.84,3.33,1.23,5.27h11.29v10.6Z"/>
    <path d="M890.78,383.15c.21,1.71.57,3.33,1.05,4.85,2.37-1.43,5.33-2.85,8.86-4.32l.84,3.23c-4.91,2-8.71,3.99-11.35,5.99-3.95,2.9-5.9,6.08-5.9,9.5,0,4.32,2.99,6.51,8.98,6.51,2.93,0,5.9-.33,8.83-.9l.21,3.52c-3.05.52-6.08.81-9.04.81-3.86,0-6.71-.81-8.53-2.38-1.89-1.62-2.81-4.09-2.81-7.46,0-4.56,2.04-8.51,6.14-11.88.48-.43,1.02-.86,1.62-1.24-.6-1.95-1.02-4.09-1.26-6.46-.3-2.52-.48-5.94-.54-10.31l2.3-.09c.06,4.61.27,8.17.6,10.64Z"/>
    <path d="M921.47,377.54c-.48-1.9-1.02-3.71-1.65-5.42l2.25-1c.66,2.09,1.17,3.99,1.53,5.7l-1.2.71h13.08v3.23h-26.85v-3.23h12.84ZM932.1,415.17h-2.1v-2.28h-15.93v2.28h-2.1v-15.35h20.12v15.35ZM931.62,384.9v3.09h-19.13v-3.09h19.13ZM931.62,392.17v3.09h-19.13v-3.09h19.13ZM930,409.66v-6.6h-15.93v6.6h15.93Z"/>
    <path d="M963.42,386c1.47,2.66,2.21,6.03,2.21,10.07,0,4.51-1.02,8.17-3.02,11.02-2.07,2.85-5.06,4.61-8.98,5.32l-.81-3.28c3.47-.57,6.11-2.04,7.93-4.32,1.74-2.28,2.6-5.18,2.6-8.74,0-3.14-.54-5.75-1.62-7.84-1.2-2.23-2.84-3.33-4.88-3.33-2.63,0-5.54,2.04-8.71,6.18-.33.38-.66.86-1.02,1.38-.12,8.41-.18,15.35-.18,20.86h-2.19c0-5.56.03-11.36.12-17.44-1.44,2.28-3.05,5.13-4.82,8.46l-1.68-2.28c2.51-4.75,4.7-8.55,6.59-11.31l.12-7.08-5.27.52-.12-3.28,5.45-.57.12-7.94,2.19.05c-.06,1.9-.09,4.51-.12,7.75l.93,1.33-1.02,3.47c-.03.9-.03,1.81-.03,2.71,3.29-4.18,6.53-6.22,9.64-6.22,2.75,0,4.94,1.47,6.56,4.51Z"/>
    <path d="M989.7,381.44c.78,1.28,1.2,3.04,1.2,5.32,0,1.62-.18,4.51-.48,8.6-.39,4.7-.57,7.75-.57,9.08,0,2.19.48,3.33,1.44,3.33,1.08,0,2.18-1.47,3.26-4.42l1.83,2.09c-.81,1.9-1.53,3.28-2.16,4.13-.9,1.04-1.89,1.57-2.96,1.57-2.49,0-3.71-2.23-3.71-6.7,0-1.05.18-4.09.6-9.08.33-4.28.51-7.17.51-8.6,0-2.66-.84-3.99-2.49-3.99-2.12,0-4.85,2.42-8.14,7.37-.3.43-.63.9-.93,1.43-.15,8.93-.21,16.16-.21,21.76h-2.19c0-5.13.03-11.12.12-17.96-1.41,2.47-2.93,5.37-4.55,8.74l-1.8-2.23c2.25-4.66,4.4-8.55,6.44-11.78l.12-6.41-5.27.52-.12-3.28,5.45-.52.12-7.98,2.19.05c-.06,1.85-.09,4.47-.12,7.79l.96,1.28-1.05,3.47c0,.57-.03,1.19-.03,1.76l.06-.09c3.47-4.85,6.47-7.22,8.95-7.22,1.53,0,2.69.67,3.53,2Z"/>
    <path d="M1023.72,379.77l-5.39.38c-.9,0-2.07.86-3.44,2.57-1.5,1.81-2.75,3.94-3.74,6.41-1.17,2.85-1.74,5.75-1.74,8.65,0,3.33.9,5.99,2.72,7.93,1.95,2,4.79,3.09,8.56,3.28l-.42,3.28c-4.37-.09-7.69-1.43-9.94-3.99-2.16-2.42-3.23-5.84-3.23-10.26,0-3.8.78-7.41,2.37-10.74,1.29-2.85,2.93-5.18,4.97-6.99-4.43.57-9.28,1.24-14.49,2.09l-.3-3.37c9.58-1.47,17.57-2.28,24.01-2.42l.06,3.18Z"/>
    <path d="M1032.82,378.25c-.39,4.09-.57,8.32-.57,12.59,0,5.18.45,9.36,1.38,12.59.84,2.85,1.83,4.32,3.02,4.32.78,0,1.5-1.28,2.16-3.85.42-1.62.75-3.47.99-5.46l2.31.86c-.51,3.61-1.17,6.41-1.98,8.46-.96,2.42-2.1,3.66-3.41,3.66-2.16,0-3.83-1.95-5.06-5.84-1.2-3.75-1.77-8.65-1.77-14.73,0-4.28.18-8.6.6-13.02l2.33.43ZM1055.15,404.39l-2.33.19c-.36-10.55-2.04-18.63-5.06-24.33l1.89-2.23c3.29,6.32,5.15,15.11,5.51,26.37Z"/>
    <path d="M1079.26,377.4c-3.17,4.18-6.89,9.12-11.14,14.92,2.33-2.19,4.55-3.23,6.65-3.23,2.49,0,4.43.95,5.84,2.85,1.38,1.9,2.07,4.47,2.07,7.79,0,3.71-1.05,6.7-3.08,8.98-2.1,2.28-4.7,3.42-7.81,3.42-2.04,0-3.65-.62-4.85-1.85-1.2-1.28-1.77-2.95-1.77-5.04,0-1.9.42-3.47,1.29-4.7.9-1.38,2.1-2.04,3.59-2.04,2.04,0,3.62,1,4.79,3.09.87,1.47,1.5,3.47,1.86,5.94l.75-.62c2.01-1.81,3.02-4.23,3.02-7.17,0-2.52-.57-4.42-1.65-5.7-1.02-1.19-2.42-1.76-4.28-1.76-2.12,0-4.34.85-6.68,2.57-2.01,1.52-3.86,3.47-5.54,5.89l-1.44-2.42,14.67-20.24-12.33.95-.12-3.33,14.91-.76,1.26,2.47ZM1074.5,407.66c-.69-4.04-2.19-6.03-4.46-6.03-.84,0-1.5.33-1.98,1.04-.51.67-.75,1.52-.75,2.52s.3,1.85.96,2.57c.78.85,1.95,1.28,3.5,1.28,1.02,0,1.95-.19,2.84-.47-.06-.38-.09-.67-.12-.9Z"/>
    <path d="M1100.93,378.49c1.14,1.66,1.74,3.75,1.74,6.22,0,1.81-.27,3.33-.81,4.56-.6,1.33-1.44,2.33-2.54,2.95v.09c1.11.43,2.07,1.43,2.84,2.95.84,1.62,1.26,3.52,1.26,5.7,0,2.99-.66,5.42-1.98,7.22-1.38,1.85-3.29,2.8-5.75,2.8s-4.4-.95-5.75-2.8c-1.32-1.8-1.98-4.23-1.98-7.22,0-2.19.42-4.09,1.26-5.7.78-1.52,1.71-2.52,2.84-2.95v-.09c-1.14-.62-1.98-1.62-2.54-2.95-.54-1.24-.81-2.76-.81-4.56,0-2.47.57-4.56,1.74-6.22,1.26-1.85,2.99-2.76,5.24-2.76s3.98.9,5.24,2.76ZM1091.71,396.02c-.9,1.24-1.32,2.9-1.32,4.94s.42,3.66,1.32,4.89c.9,1.28,2.25,1.95,3.98,1.95s3.05-.67,4.01-2c.84-1.24,1.29-2.85,1.29-4.85s-.45-3.71-1.29-4.94c-.96-1.38-2.31-2.04-4.01-2.04s-3.05.67-3.98,2.04ZM1092.13,380.77c-.75,1.04-1.11,2.42-1.11,4.09s.33,3.14.99,4.18c.78,1.24,2.01,1.9,3.68,1.9s2.87-.67,3.68-1.9c.66-1.04.99-2.47.99-4.18s-.39-3.04-1.11-4.09c-.87-1.24-2.07-1.85-3.56-1.85s-2.72.62-3.56,1.85Z"/>
    <path d="M1133.72,371.03v3.18h-7.4v25.94h-2.18v-29.13h9.58Z"/>
    <path d="M1148.93,388.9c1.32,2.42,1.98,5.46,1.98,9.17s-.66,6.7-1.95,9.08c-1.41,2.57-3.26,3.85-5.57,3.85s-4.16-1.28-5.54-3.85c-1.32-2.38-1.98-5.42-1.98-9.08s.66-6.75,1.98-9.17c1.38-2.57,3.2-3.8,5.54-3.8s4.16,1.24,5.54,3.8ZM1139.56,391.27c-.84,1.81-1.23,4.04-1.23,6.79s.39,4.94,1.23,6.75c.9,2,2.19,2.99,3.83,2.99s2.9-1,3.86-2.99c.81-1.81,1.23-4.09,1.23-6.75s-.42-4.99-1.23-6.79c-.96-2-2.25-2.99-3.86-2.99s-2.93,1-3.83,2.99Z"/>
    <path d="M1158.15,385.76h3.83v3.18h-3.83v15.63c0,.9.09,1.57.33,1.95.21.38.6.62,1.14.62h1.98v3.18h-2.33c-1.26,0-2.19-.52-2.72-1.57-.51-.95-.75-2.33-.75-4.18v-15.63h-3.11v-3.18h3.11v-6.37l2.37-1.57v7.94Z"/>
    <path d="M1168.78,385.76h3.83v3.18h-3.83v15.63c0,.9.09,1.57.33,1.95.21.38.6.62,1.14.62h1.98v3.18h-2.33c-1.26,0-2.19-.52-2.72-1.57-.51-.95-.75-2.33-.75-4.18v-15.63h-3.11v-3.18h3.11v-6.37l2.37-1.57v7.94Z"/>
    <path d="M1187.73,388.9c1.32,2.42,1.98,5.46,1.98,9.17s-.66,6.7-1.95,9.08c-1.41,2.57-3.26,3.85-5.57,3.85s-4.16-1.28-5.54-3.85c-1.32-2.38-1.98-5.42-1.98-9.08s.66-6.75,1.98-9.17c1.38-2.57,3.2-3.8,5.54-3.8s4.16,1.24,5.54,3.8ZM1178.36,391.27c-.84,1.81-1.23,4.04-1.23,6.79s.39,4.94,1.23,6.75c.9,2,2.19,2.99,3.83,2.99s2.9-1,3.86-2.99c.81-1.81,1.23-4.09,1.23-6.75s-.42-4.99-1.23-6.79c-.96-2-2.25-2.99-3.86-2.99s-2.93,1-3.83,2.99Z"/>
    <path d="M1199.2,371.03c-1.23,3.14-2.18,6.41-2.84,9.84-.9,4.18-1.32,8.27-1.32,12.35s.42,8.17,1.32,12.35c.66,3.37,1.62,6.65,2.84,9.84h-2.09c-1.32-3.09-2.34-6.37-3.08-9.79-.9-4.09-1.32-8.22-1.32-12.35s.42-8.36,1.32-12.45c.75-3.47,1.77-6.75,3.08-9.79h2.09Z"/>
    <path d="M1221.11,373.21v8.55h6.86v3.42h-6.86v22.43c0,3.42-1.17,5.13-3.44,5.13-1.05,0-2.4-.19-4.04-.47v-3.42c1.74.38,3.02.62,3.92.62.78,0,1.2-.67,1.2-1.95v-18.72c-.9,2.85-2.69,6.32-5.39,10.45-2.66,4.09-5.24,7.32-7.75,9.74l-1.5-2.95c2.69-2.66,5.27-5.75,7.66-9.31,2.51-3.75,4.58-7.6,6.23-11.55h-13.23v-3.42h13.98v-8.55h2.37Z"/>
    <path d="M1242.22,396.78l-1.86,1.81c-1.17-3.52-2.42-6.84-3.8-9.98l1.89-1.81c1.5,3.52,2.75,6.84,3.77,9.98ZM1255.06,385.9c-.78,6.7-2.12,12.21-4.07,16.49-2.13,4.51-5.09,7.94-8.86,10.26l-1.26-2.95c3.53-2.23,6.26-5.32,8.17-9.31,1.8-3.8,3.05-8.84,3.77-15.11l2.25.62ZM1245.75,389.13c.66,1.62,1.23,3.28,1.77,4.89l-1.89,1.76c-.99-2.99-2.25-6.37-3.8-10.07l1.86-1.71c.81,1.95,1.5,3.66,2.07,5.13Z"/>
    <path d="M1272.73,373.26v15.06c2.25.62,4.64,1.62,7.16,2.95,2.33,1.19,4.52,2.57,6.56,4.13l-1.02,3.14c-1.86-1.42-3.89-2.71-6.05-3.85-2.37-1.24-4.58-2.19-6.65-2.76v21.33h-2.37v-40.01h2.37Z"/>
    <path d="M1294.59,371.03c1.29,3.04,2.31,6.32,3.08,9.79.87,4.09,1.32,8.22,1.32,12.45s-.45,8.27-1.32,12.35c-.78,3.42-1.8,6.7-3.08,9.79h-2.1c1.2-3.18,2.16-6.46,2.84-9.84.87-4.18,1.32-8.31,1.32-12.35s-.45-8.17-1.32-12.35c-.69-3.42-1.65-6.7-2.84-9.84h2.1Z"/>
    <path d="M1311.2,386.28v29.13h-9.58v-3.18h7.39v-25.94h2.19Z"/>
    <path d="M1355.03,380.91c-3.02.52-6.89.81-11.62.9-1.08,2.99-2.22,5.51-3.38,7.6,1.59-2,3.17-2.95,4.76-2.95s2.69.9,3.47,2.71c.18.48.36,1,.51,1.57,2.1-1.19,4.52-2.33,7.27-3.42l.63,3.23c-2.75,1-5.24,2.14-7.42,3.42.06.71.09,1.47.09,2.33v8.22h-2.13v-7.7c0-.57-.03-1.09-.03-1.57-.33.19-.63.43-.93.67-3.71,2.71-5.57,5.51-5.57,8.36,0,1.76.66,3.04,2.04,3.85,1.11.62,2.72.95,4.88.95,2.69,0,5.27-.38,7.72-1.05l.21,3.33c-2.6.67-5.24,1-7.93,1-2.87,0-5.06-.57-6.56-1.71-1.74-1.33-2.6-3.47-2.6-6.37,0-3.85,1.89-7.32,5.72-10.41.78-.67,1.65-1.28,2.6-1.9-.48-1.76-1.26-2.61-2.33-2.61-2.58,0-5.48,2.99-8.71,8.98l-1.56-2.28c2.33-4.09,4.22-7.79,5.63-11.12.42-1.05.81-2.09,1.23-3.14-1.56,0-3.68-.05-6.32-.09l.03-3.23c2.58,0,5.06.05,7.39.05.6-2,1.17-4.04,1.71-6.18l2.01,1.24c-.45,1.71-.9,3.37-1.35,4.94,4.31-.09,7.75-.33,10.39-.81l.15,3.18Z"/>
    <path d="M1376.56,373.36v3.23h-2.25v38.49h-2.1v-7.79c-3.02,1.04-6.26,1.95-9.67,2.66l-.51-3.37c.9-.19,1.8-.33,2.63-.52v-29.46h-2.37v-3.23h14.25ZM1372.22,383.91v-7.32h-5.45v7.32h5.45ZM1372.22,394.22v-7.18h-5.45v7.18h5.45ZM1372.22,403.86v-6.56h-5.45v8.27c1.86-.47,3.68-1.04,5.45-1.71ZM1377.76,379.25h-1.17v-3.33h11.53v3.14c-.66,8.79-2.01,16.3-4.07,22.52,1.44,3.9,3.2,7.46,5.33,10.74l-1.44,2.61c-1.98-3.23-3.65-6.65-5.03-10.26-1.62,4.04-3.53,7.46-5.78,10.26l-1.47-2.66c2.46-3.04,4.46-6.7,6.05-10.98-2.22-6.75-3.53-14.06-3.95-22.05ZM1379.74,379.25c.36,6.84,1.38,13.07,3.11,18.67,1.62-5.42,2.72-11.64,3.26-18.67h-6.38Z"/>
    <path d="M1399.89,375.83c-.36,1.8-.69,4.13-.96,6.94-.27,2.85-.39,5.27-.39,7.22,0,3.04.18,5.42.6,7.03.3-2.38.78-4.42,1.5-6.22l1.83,1.38c-.96,2.47-1.71,5.46-2.25,8.98l-1.86.52c-.75-1.33-1.29-3.18-1.65-5.61-.3-1.9-.42-3.94-.42-6.08,0-2.66.15-5.42.45-8.27.24-2.57.57-4.85.99-6.89l2.16,1ZM1414.74,389.42c0,6.13-.81,11.02-2.39,14.73-1.56,3.61-4.22,6.7-7.93,9.31l-1.29-3.04c3.41-2.28,5.84-4.94,7.21-8.08,1.38-3.14,2.07-7.46,2.07-12.92,0-5.13-.36-9.69-1.08-13.68l2.25-.86c.78,4.18,1.17,9.03,1.17,14.54Z"/>
    <path d="M1430.31,376.78v-3.33h6.11c.84,14.49,5.03,27.23,12.57,38.16l-1.23,2.95c-6.35-9.03-10.42-19.48-12.18-31.36-2.13,13.5-6.32,23.9-12.54,31.22l-1.29-2.9c6.77-7.93,11.11-19.53,13.02-34.73h-4.46Z"/>
    <path d="M1473.18,381.44c.78,1.28,1.2,3.04,1.2,5.32,0,1.62-.18,4.51-.48,8.6-.39,4.7-.57,7.75-.57,9.08,0,2.19.48,3.33,1.44,3.33,1.08,0,2.18-1.47,3.26-4.42l1.83,2.09c-.81,1.9-1.53,3.28-2.16,4.13-.9,1.04-1.89,1.57-2.96,1.57-2.49,0-3.71-2.23-3.71-6.7,0-1.05.18-4.09.6-9.08.33-4.28.51-7.17.51-8.6,0-2.66-.84-3.99-2.49-3.99-2.12,0-4.85,2.42-8.14,7.37-.3.43-.63.9-.93,1.43-.15,8.93-.21,16.16-.21,21.76h-2.19c0-5.13.03-11.12.12-17.96-1.41,2.47-2.93,5.37-4.55,8.74l-1.8-2.23c2.25-4.66,4.4-8.55,6.44-11.78l.12-6.41-5.27.52-.12-3.28,5.45-.52.12-7.98,2.19.05c-.06,1.85-.09,4.47-.12,7.79l.96,1.28-1.05,3.47c0,.57-.03,1.19-.03,1.76l.06-.09c3.47-4.85,6.47-7.22,8.95-7.22,1.53,0,2.69.67,3.53,2Z"/>
    <path d="M1506.53,381.77c-3.32.19-6.53.33-9.61.43.03,2.47.06,4.7.12,6.75,2.93-.05,5.9-.14,8.89-.29v3.28c-2.87.09-5.81.14-8.83.19.06,3.28.09,5.89.09,7.84.63.38,1.26.76,1.92,1.24,2.57,1.76,5.06,4.13,7.45,7.13l-1.38,2.71c-2.25-2.8-4.49-5.04-6.77-6.75-.45-.33-.9-.62-1.32-.9-.18,2.47-.63,4.47-1.35,5.94-1.08,2.14-2.78,3.23-5.12,3.23-1.68,0-3.08-.62-4.16-1.76-1.23-1.28-1.83-3.09-1.83-5.42s.6-4.18,1.86-5.51c1.08-1.24,2.45-1.81,4.19-1.81,1.35,0,2.75.29,4.22.85l-.09-6.75h-2.9c-1.35,0-3.38-.05-6.08-.14l-.84-.05v-3.23c.6,0,1.5.05,2.69.09,1.62.1,3.02.14,4.19.14h2.9c-.06-2.04-.09-4.28-.12-6.75h-2.37c-1.41,0-2.93-.05-4.58-.05l-3.11-.14-.03-3.23,3.14.14c1.62.05,3.14.09,4.58.09h2.3l-.12-6.27,2.21-.1c.06,2.19.09,4.32.15,6.32,2.87-.1,6.11-.29,9.67-.52v3.28ZM1490.7,401.15c-1.08,0-1.98.33-2.69,1.09-.78.76-1.17,1.81-1.17,3.14s.36,2.28,1.14,2.99c.66.67,1.56,1,2.66,1,1.53,0,2.66-.76,3.38-2.19.57-1.19.87-2.85.93-5.04-1.5-.67-2.9-1-4.25-1Z"/>
    <path d="M1519.65,373.83v26.56c0,5.8,1.95,8.7,5.87,8.7,4.37,0,7.72-5.13,10.12-15.35l2.22,1.33c-1.2,5.04-2.58,8.98-4.19,11.78-2.22,3.85-4.94,5.8-8.14,5.8-5.51,0-8.23-3.94-8.23-11.78v-27.04h2.37Z"/>
    <path d="M1558.42,382.2c-2.16.43-4.67.76-7.54,1.04-.42,3.42-.9,6.79-1.38,10.03-1.14,7.46-2.4,13.88-3.77,19.24l-2.19-1.19c1.38-5.27,2.63-11.55,3.77-18.86.42-2.95.84-5.99,1.23-9.03-1.83.09-3.77.19-5.84.24l-.09-3.37c2.21,0,4.31-.09,6.32-.19.3-2.66.57-5.32.81-8.03l2.31.47c-.24,2.47-.51,4.94-.78,7.37,2.46-.24,4.7-.57,6.8-1l.36,3.28ZM1556.27,399.63c-.96,2.09-1.44,3.85-1.44,5.37,0,1.24.57,2.23,1.74,2.9,1.08.62,2.57.95,4.55.95,2.22,0,4.25-.29,6.05-.86l.06,3.37c-1.74.48-3.77.76-6.11.76-5.72,0-8.56-2.28-8.56-6.79,0-2.38.57-4.8,1.77-7.37l1.95,1.66ZM1566.83,390.04c-4.22,0-8.5.29-12.87.9l-.12-3.42c4.37-.57,8.68-.86,12.99-.86v3.37Z"/>
    <path d="M1575.43,405.53c.36.57.54,1.24.54,2.09,0,.81-.18,1.47-.54,2.04s-.81.86-1.29.86c-.54,0-.96-.29-1.29-.86-.36-.57-.54-1.24-.54-2.04,0-.86.18-1.52.54-2.09.33-.57.75-.86,1.29-.86.48,0,.93.29,1.29.86Z"/>
  </g>
  <rect class="st0" x="1814.76" y="456.83" width="0" height="2.35"/>
</svg>