<?xml version="1.0" encoding="UTF-8"?>
<svg id="_レイヤー_1" data-name="レイヤー_1" xmlns="http://www.w3.org/2000/svg" version="1.1" viewBox="0 0 4167.82 627.15">
  <!-- Generator: Adobe Illustrator 29.8.1, SVG Export Plug-In . SVG Version: 2.1.1 Build 2)  -->
  <defs>
    <style>
      .st0 {
        fill: none;
      }
    </style>
  </defs>
  <rect class="st0" x="6590.08" y="2912.12" width="0" height="2.35"/>
  <g>
    <path d="M345,49.66c8.64,9.23,18.58,16.55,29.96,21.9l-2.61,4.42c-11.38-5.54-21.12-12.86-29.14-21.83-7.4,8.44-17.07,15.7-29.14,21.9l-2.61-4.48c12-5.8,22.01-13.12,29.96-21.9h3.56ZM367.01,82.11v3.63c-4.46,10.68-13.37,18.86-26.81,24.4l-3.29-4.09c11.65-4.62,19.81-11.08,24.34-19.52h-42.37v-4.42h48.13ZM359.26,69.18v4.48h-32.15v-4.48h32.15Z"/>
    <path d="M439.2,109.01h-4.8v-2.83h-45.39v2.83h-4.8v-55.46h54.98v55.46ZM434.4,101.96v-44.19h-45.39v44.19h45.39ZM425.01,67.99v23.48h-26.46v-23.48h26.46ZM420.35,72.08h-17.21v15.37h17.21v-15.37Z"/>
    <path d="M500.97,64.17c4.94,4.48,7.47,10.02,7.47,16.62,0,7.39-2.33,13.12-6.86,17.34-4.11,3.83-10.56,6.59-19.26,8.31l-1.71-4.48c8.16-1.52,14.05-4.09,17.69-7.65,3.29-3.3,5-7.85,5-13.52s-2.13-10.02-6.38-13.58c-3.84-3.23-8.36-5.01-13.57-5.28l-1.44,12.27c-1.03,6.79-2.47,12.33-4.32,16.62-3.02,7.39-7.06,11.08-12,11.08-3.98,0-7.27-1.71-9.8-5.14-2.47-3.3-3.63-7.39-3.63-12.13,0-7.39,2.61-13.65,7.82-18.86,5.55-5.67,12.82-8.44,21.8-8.44,7.68,0,14.05,2.24,19.2,6.86ZM475.4,81.38c1.37-5.87,2.4-12.33,2.95-19.32-5.42.53-10.08,2.64-13.92,6.2-4.8,4.35-7.13,9.83-7.13,16.36,0,3.69.82,6.73,2.47,9.17,1.51,2.37,3.5,3.56,5.83,3.56,3.98,0,7.27-5.34,9.8-15.96Z"/>
    <path d="M534.77,79.67v-6.53h4.94v6.53h13.57v4.62h-13.57v4.09c4.25,2.37,8.64,5.08,13.09,8.18l-2.88,4.22c-3.98-3.43-7.4-6.07-10.22-8.05v17.28h-4.94v-20.38c-4.11,6.4-8.84,11.74-14.33,15.96l-2.95-4.09c6.86-4.88,12.27-10.62,16.18-17.21h-13.85v-4.62h14.95ZM553.62,54.34c-8.64,2.64-20.09,3.96-34.48,3.96l-1.44-4.22c13.44,0,24.68-1.25,33.59-3.69l2.33,3.96ZM528.74,72.74l-4.04.99c-1.37-3.96-3.08-7.78-5.14-11.34l3.91-1.25c1.99,3.36,3.77,7.25,5.28,11.61ZM539.84,69.51l-4.18,1.45c-1.1-3.43-2.47-6.73-4.04-9.96l4.18-1.12c1.71,3.5,3.08,6.73,4.04,9.63ZM552.39,59.88c-1.37,5.21-3.09,9.76-5.21,13.72l-3.98-1.38c1.92-3.5,3.56-7.91,5.07-13.32l4.11.99ZM580.57,88.63c-6.51,8.51-14.67,15.56-24.41,21.17l-2.26-4.48c9.46-5.08,17.21-11.8,23.31-20.25l3.36,3.56ZM575.49,52.63c-5,6.07-11.24,11.08-18.65,15.1l-2.13-4.35c7.06-3.56,12.89-8.38,17.48-14.31l3.29,3.56ZM578.44,70.5c-5.48,6.53-12.27,11.94-20.43,16.22l-2.19-4.35c7.88-3.89,14.33-9.04,19.4-15.37l3.22,3.5Z"/>
    <path d="M644.12,51.31v3.69h-24.41v3.23h26.53v11.41h-4.59v-7.85h-21.94v11.94h-4.66v-11.94h-21.94v7.85h-4.59v-11.41h26.53v-3.23h-24.41v-3.69h53.48ZM615.53,88.44h-19.54v4.02h19.61v3.69h-19.61v4.09h19.81v3.69h-19.81v6.2h-4.66v-33.9h24.2v12.2ZM611.28,84.94v-5.21h-15.29v5.21h15.29ZM611.21,72.41c-2.95.53-7.68.99-14.26,1.32l-.89-2.84c6.44-.26,11.17-.59,14.19-1.12l.96,2.64ZM611.28,65.42l-1.1,2.64c-4.25-.53-8.78-.86-13.44-1.12l1.44-2.64c4.52.26,8.84.59,13.09,1.12ZM644.33,90.94v3.23c-2.4,3.43-5.28,6.26-8.71,8.64,3.5,1.52,7.82,2.84,12.96,4.02l-1.99,3.56c-6.03-1.45-10.97-3.17-14.81-5.21-4.25,2.24-9.12,3.89-14.6,4.95l-1.92-3.69c4.66-.79,8.84-2.04,12.55-3.76-3.15-2.37-5.28-5.01-6.44-8.04h-2.67v-3.69h25.64ZM620.06,87.58v-3.36h18.58v-4.48h-18.51v-3.43h23.1v11.28h-23.17ZM638.57,71.16l-1.23,2.84c-4.39-.79-8.98-1.32-13.71-1.71l1.3-2.51c4.73.33,9.26.79,13.64,1.38ZM623.83,65.42c4.8-.26,9.05-.79,12.75-1.58l1.17,2.84c-3.84.66-8.3,1.19-13.37,1.52l-.55-2.77ZM631.44,100.7c2.74-1.71,5.21-3.76,7.27-6.07h-13.09c.89,2.24,2.81,4.22,5.83,6.07Z"/>
    <path d="M712.61,54.08v2.9c-1.51,5.54-4.73,10.09-9.67,13.78,4.25,3.17,9.19,6.07,14.88,8.57l-3.02,3.36c-5.07-2.37-9.46-4.95-13.3-7.72v3.83h-28.31v-3.83c-4.52,3.3-9.94,5.94-16.25,8.05l-2.4-4.09c5.07-1.45,9.39-3.23,13.09-5.41-1.92-2.04-4.18-4.16-6.92-6.33-.96.59-1.85,1.19-2.67,1.71l-2.81-3.5c7.54-4.35,12.61-9.69,15.22-15.96l4.8.59c-.55,1.39-1.23,2.7-1.92,4.02h12.82v3.63c-2.33,6.66-6.38,12.27-12.2,16.75h26.87c-5.9-4.42-10.35-9.43-13.37-15.04l3.5-1.91c2.19,3.83,5.14,7.32,8.71,10.55,3.98-3.1,6.65-6.46,8.02-10.09h-16.11v-3.89h21.05ZM675.11,95.95c-4.11,4.95-9.19,9.3-15.15,12.99l-2.95-3.76c5.83-3.43,10.76-7.45,14.74-12.07l3.36,2.84ZM712.33,85.73v4.48h-22.9v14.25c0,3.56-1.92,5.41-5.69,5.41h-8.64l-1.03-4.42c2.74.2,5.42.33,8.02.33,1.65,0,2.47-.86,2.47-2.44v-13.12h-24.96v-4.48h52.72ZM663.73,65.02c2.74,2.11,5.14,4.29,7.13,6.4,1.37-1.06,2.67-2.11,3.84-3.3-2.13-2.04-4.59-4.15-7.4-6.26-1.17,1.12-2.33,2.18-3.56,3.17ZM681.48,58.03h-10.83c-.27.4-.62.79-.89,1.19,2.88,1.98,5.35,4.02,7.47,6,1.78-2.24,3.15-4.62,4.25-7.19ZM714.6,105.65l-3.43,3.3c-3.7-4.09-8.84-8.44-15.29-13.06l3.22-2.97c6.1,4.22,11.24,8.51,15.49,12.73Z"/>
    <path d="M781.65,61.07l-12.34.53c-2.06,0-4.73,1.19-7.88,3.56-3.43,2.51-6.31,5.47-8.57,8.9-2.67,3.96-3.98,7.98-3.98,12,0,4.62,2.06,8.31,6.24,11.01,4.46,2.77,10.97,4.29,19.61,4.55l-.96,4.55c-10.01-.13-17.62-1.98-22.76-5.54-4.94-3.36-7.4-8.11-7.4-14.25,0-5.28,1.78-10.29,5.42-14.9,2.95-3.96,6.72-7.19,11.38-9.69-10.15.79-21.25,1.71-33.18,2.9l-.69-4.68c21.94-2.04,40.24-3.17,54.98-3.36l.14,4.42ZM777.26,79.47l-2.95,1.98c-2.06-3.3-4.46-6.2-7.2-8.84l2.74-2.11c2.95,2.77,5.42,5.74,7.4,8.97ZM783.84,74.92l-2.95,2.04c-2.06-3.3-4.46-6.26-7.13-8.84l2.67-2.04c3.02,2.83,5.48,5.8,7.4,8.84Z"/>
    <path d="M841.63,54.54h4.94v22.62h-20.98v24.2h19.33v-18h5v26.25h-5v-3.69h-43.74v3.69h-5v-26.25h5v18h19.33v-24.2h-20.98v-22.62h4.94v18h16.04v-23.02h5.07v23.02h16.04v-18Z"/>
    <path d="M896.89,56.06h25.23v4.62h-50.53v14.44c-.21,14.38-2.67,25.92-7.47,34.62l-3.7-3.17c4.04-7.52,6.17-18,6.31-31.46v-19.06h25.16c-1.03-2.18-2.19-4.16-3.43-6l5.14-.79c1.1,1.98,2.19,4.29,3.29,6.79ZM898.19,63.44v7.85h22.62v4.48h-22.62v9.63h18.03v24.6h-4.87v-3.3h-28.93v3.3h-4.87v-24.6h15.63v-21.96h5ZM911.36,102.22v-12.4h-28.93v12.4h28.93Z"/>
    <path d="M970.04,50.91l.21,8.97,18.99-.26v4.42l-18.92.26v.53c.14,9.17.27,14.77.27,16.82,0,7.52-1.58,13.12-4.73,16.88-2.95,3.43-8.43,6.59-16.39,9.36l-2.4-4.29c4.87-1.52,8.71-3.23,11.45-5.14,3.15-2.18,5.35-5.01,6.58-8.57-2.06,2.77-4.73,4.16-8.02,4.16-4.25,0-7.54-1.25-10.01-3.69-2.33-2.37-3.43-5.28-3.43-8.71s1.1-6.13,3.36-8.51c2.47-2.64,5.83-3.96,10.08-3.96,3.98,0,6.92,1.52,8.84,4.55-.27-2.11-.48-4.62-.48-7.65l-.07-1.71-33.52.46v-4.42l33.46-.46-.21-9.04h4.94ZM950.64,76.1c-1.51,1.52-2.19,3.36-2.19,5.54,0,2.31.75,4.22,2.26,5.67,1.51,1.52,3.63,2.31,6.38,2.31,2.47,0,4.59-.79,6.24-2.37,1.51-1.58,2.33-3.43,2.33-5.41,0-2.38-.82-4.35-2.4-5.94-1.65-1.65-3.7-2.44-6.17-2.44-2.74,0-4.87.86-6.44,2.64Z"/>
    <path d="M1045.94,57.77c-7.27,5.8-15.77,12.66-25.5,20.71,5.35-3.03,10.42-4.48,15.22-4.48,5.69,0,10.15,1.32,13.37,3.96,3.15,2.64,4.73,6.2,4.73,10.82,0,5.14-2.4,9.3-7.06,12.46-4.8,3.17-10.76,4.75-17.89,4.75-4.66,0-8.36-.86-11.11-2.57-2.74-1.78-4.04-4.09-4.04-6.99,0-2.64.96-4.81,2.95-6.53,2.06-1.91,4.8-2.84,8.23-2.84,4.66,0,8.3,1.39,10.97,4.29,1.99,2.04,3.43,4.81,4.25,8.24l1.71-.86c4.59-2.51,6.92-5.87,6.92-9.96,0-3.5-1.3-6.13-3.77-7.91-2.33-1.65-5.55-2.44-9.8-2.44-4.87,0-9.94,1.19-15.29,3.56-4.59,2.11-8.84,4.81-12.68,8.18l-3.29-3.36,33.59-28.09-28.25,1.32-.27-4.62,34.14-1.05,2.88,3.43ZM1035.04,99.78c-1.58-5.61-5-8.38-10.22-8.38-1.92,0-3.43.46-4.52,1.45-1.17.92-1.71,2.11-1.71,3.5s.69,2.57,2.19,3.56c1.78,1.19,4.46,1.78,8.02,1.78,2.33,0,4.46-.26,6.51-.66-.14-.53-.21-.92-.27-1.25Z"/>
    <path d="M1102.57,56.06h25.23v4.62h-50.53v14.44c-.21,14.38-2.67,25.92-7.47,34.62l-3.7-3.17c4.04-7.52,6.17-18,6.31-31.46v-19.06h25.16c-1.03-2.18-2.19-4.16-3.43-6l5.14-.79c1.1,1.98,2.19,4.29,3.29,6.79ZM1103.87,63.44v7.85h22.62v4.48h-22.62v9.63h18.03v24.6h-4.87v-3.3h-28.93v3.3h-4.87v-24.6h15.63v-21.96h5ZM1117.03,102.22v-12.4h-28.93v12.4h28.93Z"/>
    <path d="M1150.9,50.32c3.84,3.43,8.02,7.65,12.55,12.66l-2.95,3.76c-4.59-5.34-8.3-9.3-11.04-11.8-3.08,4.88-7.34,9.76-12.75,14.64l-2.88-3.89c5.48-4.75,10.08-9.83,13.64-15.37h3.43ZM1147.33,68.65v-6.59h4.52v6.59h7.34v4.09h-7.34v5.54h9.87v4.22h-24.34v-4.22h9.94v-5.54h-7.34v-4.09h7.34ZM1160.15,109.08h-4.59v-2.97h-11.93v3.63h-4.52v-22.36h21.05v21.7ZM1155.56,102.02v-10.62h-11.93v10.62h11.93ZM1177.43,57.57v-7.78h4.66v7.78h8.36c-1.37-2.11-3.08-4.29-5.14-6.66l3.29-1.98c2.33,2.64,4.04,4.88,5.28,6.86l-2.6,1.78h5.69v4.29h-14.88v6.53h12.68v35.35c0,3.96-1.92,5.94-5.69,5.94h-3.7l-1.17-4.29,3.43.2c1.65,0,2.47-.92,2.47-2.77v-7.25h-8.02v14.18h-4.66v-14.18h-7.82v14.38h-4.52v-41.55h12.34v-6.53h-14.26v-4.29h14.26ZM1169.62,72.61v7.58h7.82v-7.58h-7.82ZM1169.62,91.47h7.82v-7.19h-7.82v7.19ZM1190.11,72.61h-8.02v7.58h8.02v-7.58ZM1190.11,84.28h-8.02v7.19h8.02v-7.19Z"/>
    <path d="M1224.46,109.87h-4.94v-23.28c-4.25,1.32-8.71,2.51-13.51,3.63l-2.61-4.55c11.86-2.37,21.73-5.41,29.62-9.23-3.02-2.44-7.13-5.08-12.34-7.91l4.25-2.57c5.21,3.1,9.32,5.87,12.27,8.31,6.99-4.02,12.07-8.71,15.29-14.11h-25.37c-4.66,4.15-10.56,7.85-17.83,11.15l-3.29-4.09c11.72-4.81,19.61-10.75,23.72-17.74l5.42.59c-1.1,1.98-2.33,3.83-3.7,5.61h26.74v4.22c-4.94,9.03-13.78,16.42-26.67,22.16h28.59v27.83h-5v-3.89h-30.65v3.89ZM1255.11,86.46h-30.65v14.9h30.65v-14.9Z"/>
    <path d="M1285.75,53.55c-2.06,8.9-3.02,18.99-3.02,30.27,0,8.05,1.23,15.04,3.77,21.04l-4.73,1.65c-2.81-6.33-4.18-13.85-4.18-22.69,0-11.34.96-21.7,3.02-31.06l5.14.79ZM1331.96,67.66c-3.43.46-7.27.79-11.59,1.06.41,8.84.62,15.83.69,20.91,4.25,2.11,8.64,5.21,13.09,9.17l-3.08,3.63c-3.98-3.43-7.34-6-10.22-7.72-.41,2.77-1.37,5.08-2.88,6.99-2.47,2.97-6.24,4.49-11.17,4.49-3.91,0-7.06-.79-9.53-2.24-2.88-1.78-4.32-4.35-4.32-7.72s1.23-5.87,3.84-7.72c2.47-1.85,5.62-2.7,9.53-2.7,3.08,0,6.24.53,9.46,1.58-.07-4.42-.27-10.55-.62-18.47-2.95.07-6.03.13-9.25.13-5,0-9.46-.13-13.37-.33l-.07-4.81c4.39.26,8.91.4,13.44.4,3.15,0,6.17-.07,9.05-.13l-.62-11.8,5.21-.07c.21,4.15.41,8.04.62,11.67,4.39-.26,8.3-.59,11.72-1.06l.07,4.75ZM1306.32,90.35c-2.47,0-4.46.46-5.83,1.52-1.51,1.06-2.26,2.51-2.26,4.35,0,1.98.96,3.43,2.95,4.35,1.37.66,3.29.99,5.62.99,3.15,0,5.55-1.05,7.06-3.1,1.1-1.58,1.78-3.63,1.92-6.2-3.15-1.32-6.31-1.91-9.46-1.91Z"/>
    <path d="M375.37,164.34v12.53h-11.31v27.9h-13.03v-40.43h24.34ZM354.53,201.4h5.96v-27.9h11.24v-5.8h-17.21v33.7Z"/>
    <path d="M411.85,174.49c3.29,2.51,5.14,6.27,5.62,11.21h-5.55c-.62-3.43-1.99-5.94-4.11-7.58-2.19-1.71-5.28-2.51-9.26-2.51-3.63,0-6.44.53-8.5,1.71-2.33,1.32-3.5,3.3-3.5,6,0,2.38,1.37,4.29,4.18,5.74,1.23.66,4.25,1.65,8.98,2.97,6.44,1.85,10.7,3.36,12.75,4.55,4.04,2.37,6.1,5.67,6.1,9.96s-1.71,7.39-5.14,9.76c-3.43,2.31-8.02,3.5-13.85,3.5s-10.28-1.19-13.57-3.56c-3.84-2.84-5.96-7.12-6.38-12.93h5.55c.48,4.09,1.99,7.12,4.46,9.04,2.26,1.71,5.55,2.64,9.94,2.64,3.98,0,7.27-.72,9.74-2.18s3.7-3.43,3.7-5.94c0-2.97-1.65-5.28-4.87-6.92-1.37-.79-4.87-1.91-10.35-3.43-5.9-1.71-9.67-3.03-11.24-3.83-3.77-2.11-5.62-5.14-5.62-9.1s1.78-7.32,5.42-9.56c3.22-2.11,7.4-3.17,12.48-3.17,5.48,0,9.87,1.19,13.03,3.63Z"/>
    <path d="M452.5,189.4c2.61,3.3,3.98,7.98,4.11,13.92h-27.97c.27,3.83,1.3,6.79,3.22,8.9,1.92,2.11,4.59,3.17,7.95,3.17,2.88,0,5.28-.73,7.06-2.11,1.51-1.19,2.67-2.97,3.56-5.34h5.48c-.82,3.3-2.4,5.93-4.8,8.04-2.95,2.51-6.72,3.83-11.31,3.83-5.07,0-9.19-1.65-12.2-4.81-3.15-3.3-4.66-7.65-4.66-13.19,0-5.01,1.44-9.23,4.46-12.6,3.02-3.56,7.06-5.34,12.2-5.34,5.69,0,10.01,1.85,12.89,5.54ZM432.14,191.24c-1.92,1.98-3.02,4.62-3.36,7.98h22.14c-.69-7.32-4.46-10.95-11.18-10.95-3.15,0-5.69.99-7.61,2.97Z"/>
    <path d="M472.52,184.78h8.78v4.42h-8.78v21.7c0,1.25.21,2.18.75,2.7.48.53,1.37.86,2.61.86h4.52v4.42h-5.35c-2.88,0-5-.73-6.24-2.18-1.17-1.32-1.71-3.23-1.71-5.8v-21.7h-7.13v-4.42h7.13v-8.84l5.42-2.18v11.01Z"/>
    <path d="M496.86,184.78h8.78v4.42h-8.78v21.7c0,1.25.21,2.18.75,2.7.48.53,1.37.86,2.61.86h4.52v4.42h-5.35c-2.88,0-5-.73-6.24-2.18-1.17-1.32-1.71-3.23-1.71-5.8v-21.7h-7.13v-4.42h7.13v-8.84l5.42-2.18v11.01Z"/>
    <path d="M539.22,189.4c2.61,3.3,3.98,7.98,4.11,13.92h-27.97c.27,3.83,1.3,6.79,3.22,8.9,1.92,2.11,4.59,3.17,7.95,3.17,2.88,0,5.28-.73,7.06-2.11,1.51-1.19,2.67-2.97,3.56-5.34h5.48c-.82,3.3-2.4,5.93-4.8,8.04-2.95,2.51-6.72,3.83-11.31,3.83-5.07,0-9.19-1.65-12.2-4.81-3.15-3.3-4.66-7.65-4.66-13.19,0-5.01,1.44-9.23,4.46-12.6,3.02-3.56,7.06-5.34,12.2-5.34,5.69,0,10.01,1.85,12.89,5.54ZM518.86,191.24c-1.92,1.98-3.02,4.62-3.36,7.98h22.14c-.69-7.32-4.46-10.95-11.17-10.95-3.15,0-5.69.99-7.61,2.97Z"/>
    <path d="M612.03,177.92c3.98,4.48,6.03,10.29,6.03,17.48s-2.06,12.86-6.03,17.34c-4.25,4.68-10.08,7.06-17.41,7.06s-13.09-2.37-17.34-7.06c-4.04-4.48-6.03-10.29-6.03-17.34s1.99-12.93,6.03-17.41c4.25-4.75,10.01-7.12,17.41-7.12s13.09,2.31,17.35,7.06ZM581.39,181.29c-3.02,3.56-4.52,8.24-4.52,14.11s1.51,10.49,4.52,14.05c3.15,3.69,7.61,5.54,13.23,5.54s10.08-1.85,13.23-5.41c3.02-3.56,4.59-8.24,4.59-14.18s-1.58-10.75-4.59-14.31c-3.15-3.63-7.54-5.41-13.16-5.41s-10.08,1.85-13.3,5.61Z"/>
    <path d="M634.66,184.78h8.78v4.42h-8.78v21.7c0,1.25.21,2.18.75,2.7.48.53,1.37.86,2.61.86h4.52v4.42h-5.35c-2.88,0-5-.73-6.24-2.18-1.17-1.32-1.71-3.23-1.71-5.8v-21.7h-7.13v-4.42h7.13v-8.84l5.42-2.18v11.01Z"/>
    <path d="M658.99,184.78h8.78v4.42h-8.78v21.7c0,1.25.21,2.18.75,2.7.48.53,1.37.86,2.61.86h4.52v4.42h-5.35c-2.88,0-5-.73-6.24-2.18-1.17-1.32-1.71-3.23-1.71-5.8v-21.7h-7.13v-4.42h7.13v-8.84l5.42-2.18v11.01Z"/>
    <path d="M702.39,189.13c3.02,3.36,4.52,7.58,4.52,12.73s-1.51,9.3-4.46,12.6c-3.22,3.56-7.47,5.34-12.75,5.34s-9.53-1.78-12.68-5.34c-3.02-3.3-4.52-7.52-4.52-12.6s1.51-9.37,4.52-12.73c3.15-3.56,7.34-5.28,12.68-5.28s9.53,1.71,12.68,5.28ZM680.93,192.43c-1.92,2.51-2.81,5.61-2.81,9.43s.89,6.86,2.81,9.36c2.06,2.77,5,4.16,8.78,4.16s6.65-1.39,8.84-4.16c1.85-2.51,2.81-5.67,2.81-9.36s-.96-6.92-2.81-9.43c-2.19-2.77-5.14-4.16-8.84-4.16s-6.72,1.38-8.78,4.16Z"/>
    <path d="M757.58,171.79c11.24,0,16.87,4.62,16.87,13.85s-5.69,13.98-16.93,13.98h-14.33v19.26h-5.62v-47.09h20.02ZM743.18,194.94h14.05c3.98,0,6.86-.79,8.78-2.31,1.85-1.52,2.81-3.82,2.81-6.99s-.96-5.47-2.88-6.86c-1.92-1.58-4.8-2.31-8.71-2.31h-14.05v18.47Z"/>
    <path d="M807.56,187.68c2.06,2.24,3.15,5.34,3.15,9.3v21.9h-5.14v-5.74c-1.37,1.85-3.22,3.36-5.42,4.55-2.6,1.38-5.55,2.11-8.84,2.11-3.56,0-6.38-.86-8.5-2.57-2.19-1.78-3.29-4.09-3.29-6.86,0-3.89,1.58-6.79,4.87-8.77,2.88-1.85,6.99-2.84,12.34-2.9l8.5-.13v-1.78c0-5.74-3.08-8.57-9.26-8.57-2.6,0-4.73.46-6.38,1.52-1.85,1.05-3.02,2.7-3.57,4.88l-5.42-.4c.75-3.56,2.61-6.26,5.48-7.98,2.6-1.58,5.96-2.37,10.21-2.37,5.07,0,8.78,1.25,11.24,3.82ZM797.07,202.65c-7.95.13-11.93,2.64-11.93,7.58,0,1.58.62,2.84,1.99,3.89,1.37.99,3.15,1.52,5.35,1.52,3.36,0,6.31-1.06,8.91-3.17,2.54-2.04,3.84-4.42,3.84-7.06v-2.9l-8.16.13Z"/>
    <path d="M846.29,194.48h-5.35c-.48-2.11-1.37-3.69-2.74-4.62-1.51-1.05-3.7-1.58-6.51-1.58-2.47,0-4.39.4-5.76,1.32-1.51.86-2.26,2.04-2.26,3.56s.96,2.7,3.02,3.69c1.3.59,3.77,1.32,7.34,2.24,4.25.99,7.27,2.04,9.12,3.17,2.81,1.71,4.25,4.02,4.25,6.99,0,6.99-5,10.55-15.01,10.55-9.32,0-14.4-3.96-15.22-11.8h5.35c.41,2.7,1.44,4.62,2.95,5.8,1.51,1.05,3.77,1.58,6.79,1.58,6.31,0,9.53-1.98,9.53-5.8,0-1.91-1.17-3.36-3.36-4.42-1.17-.53-3.7-1.25-7.54-2.18-4.18-.99-7.13-1.98-8.78-3.03-2.74-1.58-4.04-3.76-4.04-6.66s1.3-5.14,3.98-6.86c2.47-1.71,5.76-2.57,9.73-2.57,8.78,0,13.57,3.5,14.53,10.62Z"/>
    <path d="M863.29,184.78h8.78v4.42h-8.78v21.7c0,1.25.21,2.18.75,2.7.48.53,1.37.86,2.61.86h4.52v4.42h-5.35c-2.88,0-5-.73-6.24-2.18-1.17-1.32-1.71-3.23-1.71-5.8v-21.7h-7.13v-4.42h7.13v-8.84l5.42-2.18v11.01Z"/>
    <path d="M904.84,187.68c2.06,2.24,3.15,5.34,3.15,9.3v21.9h-5.14v-5.74c-1.37,1.85-3.22,3.36-5.42,4.55-2.6,1.38-5.55,2.11-8.84,2.11-3.56,0-6.38-.86-8.5-2.57-2.19-1.78-3.29-4.09-3.29-6.86,0-3.89,1.58-6.79,4.87-8.77,2.88-1.85,6.99-2.84,12.34-2.9l8.5-.13v-1.78c0-5.74-3.08-8.57-9.26-8.57-2.6,0-4.73.46-6.38,1.52-1.85,1.05-3.02,2.7-3.57,4.88l-5.42-.4c.75-3.56,2.61-6.26,5.48-7.98,2.6-1.58,5.96-2.37,10.21-2.37,5.07,0,8.78,1.25,11.24,3.82ZM894.35,202.65c-7.95.13-11.93,2.64-11.93,7.58,0,1.58.62,2.84,1.99,3.89,1.37.99,3.15,1.52,5.35,1.52,3.36,0,6.31-1.06,8.91-3.17,2.54-2.04,3.84-4.42,3.84-7.06v-2.9l-8.16.13Z"/>
    <path d="M953.93,164.34c-2.81,4.35-5,8.9-6.51,13.65-2.06,5.8-3.02,11.48-3.02,17.15s.96,11.34,3.02,17.15c1.51,4.68,3.7,9.23,6.51,13.65h-4.8c-3.02-4.29-5.35-8.84-7.06-13.59-2.06-5.67-3.02-11.41-3.02-17.15s.96-11.61,3.02-17.28c1.71-4.81,4.04-9.37,7.06-13.59h4.8Z"/>
    <path d="M985.19,167.24l-.27,17.15,32.15-4.48,3.56,2.51c-5.48,9.36-12.13,17.08-19.81,23.21l-3.56-3.76c5.9-4.68,11.04-10.29,15.43-16.75l-27.83,4.02c-.14,7.78-.14,14.9-.14,21.24,0,2.57.96,4.29,2.88,5.21,1.78.79,5.35,1.25,10.56,1.25,6.24,0,13.03-.4,20.36-1.19l-.07,4.81c-7.95.72-14.67,1.12-20.29,1.12-7.13,0-12-.66-14.47-1.98-2.95-1.52-4.39-4.55-4.39-9.04,0-6.2,0-13.12.14-20.64l-14.6,2.11-.89-4.75,15.56-2.18c.07-5.67.21-11.61.34-17.87h5.35Z"/>
    <path d="M1052.44,200.08l-4.25,2.51c-2.67-4.88-5.55-9.5-8.71-13.85l4.32-2.51c3.43,4.88,6.31,9.5,8.64,13.85ZM1081.85,184.98c-1.78,9.3-4.87,16.95-9.32,22.88-4.87,6.27-11.65,11.01-20.29,14.25l-2.88-4.09c8.09-3.1,14.33-7.39,18.72-12.93,4.11-5.28,6.99-12.27,8.64-20.97l5.14.86ZM1060.53,189.46c1.51,2.24,2.81,4.55,4.04,6.79l-4.32,2.44c-2.26-4.15-5.14-8.84-8.71-13.98l4.25-2.38c1.85,2.7,3.43,5.08,4.73,7.12Z"/>
    <path d="M1157.06,187.62v4.75h-24.75c-.34,7.06-1.78,12.79-4.25,17.21-2.95,5.14-8.09,9.63-15.43,13.58l-3.56-3.83c6.58-3.43,11.24-7.39,13.92-11.8,2.33-3.82,3.63-8.9,3.91-15.17h-26.19v-4.75h56.35ZM1149.38,171.46v4.75h-42.71v-4.75h42.71Z"/>
    <path d="M1232.61,167.37v11.87h15.7v4.75h-15.7v31.13c0,4.75-2.67,7.12-7.88,7.12-2.4,0-5.48-.26-9.26-.66v-4.75c3.98.53,6.92.86,8.98.86,1.78,0,2.74-.92,2.74-2.7v-25.98c-2.06,3.96-6.17,8.77-12.34,14.51-6.1,5.67-12,10.16-17.76,13.52l-3.43-4.09c6.17-3.69,12.07-7.98,17.55-12.93,5.76-5.21,10.49-10.55,14.26-16.03h-30.3v-4.75h32.02v-11.87h5.42Z"/>
    <path d="M1280.95,200.08l-4.25,2.51c-2.67-4.88-5.55-9.5-8.71-13.85l4.32-2.51c3.43,4.88,6.31,9.5,8.64,13.85ZM1310.36,184.98c-1.78,9.3-4.87,16.95-9.32,22.88-4.87,6.27-11.65,11.01-20.29,14.25l-2.88-4.09c8.09-3.1,14.33-7.39,18.72-12.93,4.11-5.28,6.99-12.27,8.64-20.97l5.14.86ZM1289.04,189.46c1.51,2.24,2.81,4.55,4.04,6.79l-4.32,2.44c-2.26-4.15-5.14-8.84-8.71-13.98l4.25-2.38c1.85,2.7,3.43,5.08,4.73,7.12Z"/>
    <path d="M1350.81,167.44v20.91c5.14.86,10.63,2.24,16.39,4.09,5.35,1.65,10.35,3.56,15.01,5.74l-2.33,4.35c-4.25-1.98-8.91-3.76-13.85-5.34-5.42-1.71-10.49-3.03-15.22-3.83v29.61h-5.42v-55.53h5.42Z"/>
    <path d="M1440.34,174.62c-.75,8.71-2.54,16.88-5.35,24.67-2.95,7.98-6.86,15.17-11.79,21.5l-5-2.44c4.87-6.07,8.71-12.86,11.59-20.51,2.81-7.52,4.52-15.43,5.14-23.81l5.42.59ZM1470.85,194.54c4.04,8.84,7.06,17.21,8.98,24.99l-5.42,1.06c-1.85-7.52-4.73-15.63-8.64-24.27-3.84-8.44-7.82-15.56-11.93-21.43l4.66-2.37c4.25,6.13,8.36,13.45,12.34,22.03ZM1478.81,167.04c1.37,1.32,2.12,2.97,2.12,4.95,0,1.85-.75,3.5-2.12,4.88-1.44,1.32-3.15,1.98-5.07,1.98s-3.7-.66-5.07-1.98c-1.44-1.38-2.12-3.03-2.12-4.88,0-1.98.69-3.63,2.12-4.95,1.37-1.38,3.09-2.04,5.07-2.04s3.63.66,5.07,2.04ZM1470.78,169.09c-.82.79-1.23,1.71-1.23,2.9,0,1.06.41,2.04,1.23,2.84.82.73,1.78,1.12,2.95,1.12,1.1,0,2.12-.4,2.95-1.12.82-.79,1.23-1.78,1.23-2.84,0-1.19-.41-2.11-1.23-2.9-.82-.79-1.85-1.19-2.95-1.19-1.17,0-2.13.4-2.95,1.19Z"/>
    <path d="M1519.39,202.59c-7.2,7.78-16.39,14.38-27.56,19.78l-3.29-4.22c19.06-8.77,32.56-22.22,40.52-40.29h-33.52v-4.81h37.3l3.36,2.18c-3.77,8.97-8.23,16.75-13.3,23.28,4.04,2.64,8.02,5.47,11.93,8.51,5.55,4.29,10.01,8.18,13.3,11.74l-4.18,3.36c-3.15-3.36-7.4-7.12-12.75-11.28-3.98-3.17-7.88-5.94-11.65-8.38l-.14.13Z"/>
    <path d="M1585.62,168.1c-.82,2.24-1.71,4.48-2.81,6.73h23.31l3.29,1.78c-1.78,10.35-5.83,19.52-12.27,27.57-6.79,8.38-15.43,14.58-25.85,18.53l-2.88-4.42c9.32-3.56,17.07-8.77,23.24-15.63.21-.26.41-.46.62-.73-1.92-1.32-4.04-2.7-6.24-4.09-3.7-2.31-7.13-4.22-10.22-5.67l3.15-3.69c3.15,1.58,6.58,3.43,10.15,5.54,2.26,1.32,4.32,2.64,6.24,3.96,3.84-5.54,6.58-11.61,8.09-18.33h-23.31c-1.1,1.85-2.33,3.63-3.63,5.41-3.84,5.08-8.16,9.5-13.09,13.26l-3.63-3.43c4.8-3.82,9.05-8.18,12.75-13.06,3.63-5.01,6.31-10.09,8.09-15.23l5,1.52Z"/>
    <path d="M1629.36,164.34c2.95,4.22,5.28,8.77,7.06,13.59,1.99,5.67,3.02,11.41,3.02,17.28s-1.03,11.47-3.02,17.15c-1.78,4.75-4.11,9.3-7.06,13.59h-4.8c2.74-4.42,4.94-8.97,6.51-13.65,1.99-5.8,3.02-11.54,3.02-17.15s-1.03-11.34-3.02-17.15c-1.58-4.75-3.77-9.3-6.51-13.65h4.8Z"/>
    <path d="M1669.81,185.51v40.43h-24.34v-12.53h11.31v-27.9h13.03ZM1660.35,216.77h-11.24v5.8h17.21v-33.7h-5.96v27.9Z"/>
    <path d="M1743.23,181.15c.48,2.37,1.3,4.62,2.4,6.73,5.42-1.98,12.2-3.96,20.29-6l1.92,4.48c-11.24,2.77-19.95,5.54-25.98,8.31-9.05,4.02-13.51,8.44-13.51,13.19,0,6,6.86,9.04,20.57,9.04,6.72,0,13.51-.46,20.22-1.25l.48,4.88c-6.99.73-13.92,1.12-20.7,1.12-8.84,0-15.36-1.12-19.54-3.3-4.32-2.24-6.44-5.67-6.44-10.35,0-6.33,4.66-11.8,14.05-16.49,1.1-.59,2.33-1.19,3.7-1.71-1.37-2.7-2.33-5.67-2.88-8.97-.69-3.5-1.1-8.24-1.23-14.31l5.28-.13c.14,6.4.62,11.34,1.37,14.77Z"/>
    <path d="M1817.76,180.16c-4.25.33-8.78.59-13.51.79-1.03,3.36-2.19,6.66-3.43,9.89-3.22,8.24-6.92,15.5-11.17,21.7l-4.39-2.7c4.11-5.67,7.75-12.66,10.9-20.97.96-2.51,1.85-5.08,2.67-7.72-3.77.07-7.68.13-11.65.13v-4.55c4.52,0,8.84-.07,13.03-.2.96-3.5,1.78-7.06,2.54-10.75l5.07,1.06c-.69,3.17-1.44,6.33-2.26,9.5,4.11-.2,8.09-.46,11.86-.73l.34,4.55ZM1830.3,204.96c4.8,1.98,9.8,5.08,14.88,9.23l-3.29,3.63c-4.25-3.43-8.09-6-11.52-7.72-.14,4.09-1.37,7.12-3.7,9.23-2.33,2.04-5.55,3.1-9.67,3.1s-7.27-.79-9.74-2.24c-3.02-1.78-4.46-4.35-4.46-7.72s1.3-5.94,4.04-7.85c2.4-1.78,5.55-2.64,9.39-2.64,2.88,0,5.9.4,8.91,1.19-.14-4.35-.41-9.89-.75-16.49l5.14-.26c.41,7.65.62,13.85.75,18.53ZM1816.25,206.48c-2.61,0-4.66.59-6.17,1.85-1.44,1.12-2.12,2.51-2.12,4.15,0,1.85.89,3.23,2.81,4.22,1.58.79,3.63,1.25,6.24,1.25s4.59-.79,6.1-2.37c1.37-1.58,2.13-3.76,2.13-6.53v-1.06c-3.02-1.05-6.03-1.52-8.98-1.52ZM1834.83,176.54c3.29,1.91,6.31,4.02,9.05,6.33l-3.36,3.5c-2.54-2.11-5.42-4.09-8.57-5.94-3.15-1.78-6.24-3.1-9.12-4.02l1.99-4.29c3.22,1.06,6.58,2.51,10.01,4.42Z"/>
    <path d="M1870.48,171c-.82,2.51-1.58,5.74-2.19,9.63-.62,3.96-.89,7.32-.89,10.02,0,4.22.41,7.52,1.37,9.76.69-3.3,1.78-6.13,3.43-8.64l4.18,1.91c-2.19,3.43-3.91,7.58-5.14,12.46l-4.25.73c-1.71-1.85-2.95-4.42-3.77-7.78-.69-2.64-.96-5.47-.96-8.44,0-3.69.34-7.52,1.03-11.47.55-3.56,1.3-6.73,2.26-9.56l4.94,1.38ZM1904.48,189.86c0,8.51-1.85,15.3-5.48,20.44-3.56,5.01-9.67,9.3-18.17,12.93l-2.95-4.22c7.82-3.17,13.37-6.86,16.52-11.21,3.15-4.35,4.73-10.35,4.73-17.94,0-7.12-.82-13.45-2.47-18.99l5.14-1.19c1.78,5.8,2.67,12.53,2.67,20.18Z"/>
    <path d="M1977.56,179.24c-7.61.26-14.95.46-22.01.59.07,3.43.14,6.53.27,9.37,6.72-.07,13.51-.2,20.36-.4v4.55c-6.58.13-13.3.2-20.22.26.14,4.55.21,8.18.21,10.88,1.44.53,2.88,1.05,4.39,1.71,5.9,2.44,11.59,5.74,17.07,9.89l-3.15,3.76c-5.14-3.89-10.28-6.99-15.49-9.37-1.03-.46-2.06-.86-3.02-1.25-.41,3.43-1.44,6.2-3.08,8.24-2.47,2.97-6.38,4.48-11.72,4.48-3.84,0-7.06-.86-9.53-2.44-2.81-1.78-4.18-4.29-4.18-7.52s1.37-5.8,4.25-7.65c2.47-1.71,5.62-2.51,9.6-2.51,3.08,0,6.31.4,9.67,1.19l-.21-9.36h-6.65c-3.08,0-7.75-.07-13.92-.2l-1.92-.07v-4.48c1.37,0,3.43.07,6.17.13,3.7.13,6.92.2,9.6.2h6.65c-.14-2.84-.21-5.94-.27-9.36h-5.42c-3.22,0-6.72-.07-10.49-.07l-7.13-.2-.07-4.48,7.2.2c3.7.07,7.2.13,10.49.13h5.28l-.27-8.71,5.07-.13c.14,3.03.21,6,.34,8.77,6.58-.13,13.99-.4,22.14-.73v4.55ZM1941.3,206.15c-2.47,0-4.52.46-6.17,1.52-1.78,1.06-2.67,2.51-2.67,4.35s.82,3.17,2.6,4.15c1.51.92,3.56,1.38,6.1,1.38,3.5,0,6.1-1.05,7.75-3.03,1.3-1.65,1.99-3.96,2.13-6.99-3.43-.92-6.65-1.38-9.74-1.38Z"/>
    <path d="M2007.59,168.23v36.87c0,8.05,4.46,12.07,13.44,12.07,10.01,0,17.69-7.12,23.17-21.3l5.07,1.85c-2.74,6.99-5.9,12.46-9.6,16.36-5.07,5.34-11.31,8.05-18.65,8.05-12.61,0-18.85-5.47-18.85-16.36v-37.52h5.42Z"/>
    <path d="M2096.38,179.83c-4.94.59-10.7,1.06-17.28,1.45-.96,4.75-2.06,9.43-3.15,13.92-2.61,10.35-5.48,19.26-8.64,26.71l-5-1.65c3.15-7.32,6.03-16.03,8.64-26.18.96-4.09,1.92-8.31,2.81-12.53-4.18.13-8.64.26-13.37.33l-.21-4.68c5.07,0,9.87-.13,14.47-.26.69-3.69,1.3-7.39,1.85-11.15l5.28.66c-.55,3.43-1.17,6.86-1.78,10.22,5.62-.33,10.76-.79,15.56-1.38l.82,4.55ZM2091.44,204.04c-2.19,2.9-3.29,5.34-3.29,7.45,0,1.71,1.3,3.1,3.98,4.02,2.47.86,5.9,1.32,10.42,1.32,5.07,0,9.74-.4,13.85-1.19l.14,4.68c-3.98.66-8.64,1.06-13.99,1.06-13.09,0-19.61-3.17-19.61-9.43,0-3.3,1.3-6.66,4.04-10.22l4.46,2.31ZM2115.64,190.72c-9.67,0-19.47.4-29.48,1.25l-.27-4.75c10.01-.79,19.88-1.19,29.75-1.19v4.68Z"/>
    <path d="M365.64,285.87c-5.14,5.41-11.38,10.68-18.65,15.89v35.81h-5.35v-32.18c-8.09,5.21-16.04,9.43-23.93,12.66l-2.81-4.35c8.09-3.3,16.52-7.98,25.43-13.92,8.71-5.94,15.77-11.67,21.25-17.28l4.04,3.36Z"/>
    <path d="M411.02,283.5c-.82,2.24-1.71,4.48-2.81,6.73h23.31l3.29,1.78c-1.78,10.35-5.83,19.52-12.27,27.57-6.79,8.38-15.43,14.58-25.85,18.53l-2.88-4.42c9.32-3.56,17.07-8.77,23.24-15.63.21-.26.41-.46.62-.73-1.92-1.32-4.04-2.7-6.24-4.09-3.7-2.31-7.13-4.22-10.22-5.67l3.15-3.69c3.15,1.58,6.58,3.43,10.15,5.54,2.26,1.32,4.32,2.64,6.24,3.96,3.84-5.54,6.58-11.61,8.09-18.33h-23.31c-1.1,1.85-2.33,3.63-3.63,5.41-3.84,5.08-8.16,9.5-13.09,13.26l-3.63-3.43c4.8-3.82,9.05-8.18,12.75-13.06,3.63-5.01,6.31-10.09,8.09-15.23l5,1.52Z"/>
    <path d="M466.49,286.66v31.72h-5.42v-31.72h5.42ZM499.46,285.28v21.7c0,8.31-1.99,15.04-5.9,20.05-4.18,5.34-10.76,9.1-19.81,11.34l-2.47-4.55c8.43-2.04,14.47-5.47,18.1-10.22,3.15-4.16,4.73-9.83,4.73-16.95v-21.37h5.35Z"/>
    <path d="M573.57,287.06l2.81,2.44c-2.54,4.75-5.21,8.9-8.02,12.46-3.29,4.02-7.06,7.65-11.31,10.88l-3.77-3.63c7.13-5.41,12.34-11.15,15.7-17.34h-45.59v-4.81h50.18ZM550.54,298.6v9.04c0,7.25-1.44,13.26-4.18,18.14-3.02,5.21-7.75,9.3-14.26,12.33l-3.36-4.09c5.76-2.7,10.01-6.07,12.61-10.16,2.54-4.09,3.84-9.5,3.84-16.22v-9.04h5.35Z"/>
    <path d="M644.53,291.87l-12.34.53c-2.06,0-4.73,1.19-7.88,3.56-3.43,2.51-6.31,5.47-8.57,8.9-2.67,3.96-3.98,7.98-3.98,12,0,4.62,2.06,8.31,6.24,11.01,4.46,2.77,10.97,4.29,19.61,4.55l-.96,4.55c-10.01-.13-17.62-1.98-22.76-5.54-4.94-3.36-7.4-8.11-7.4-14.25,0-5.28,1.78-10.29,5.42-14.9,2.95-3.96,6.72-7.19,11.38-9.69-10.15.79-21.25,1.71-33.18,2.9l-.69-4.68c21.94-2.04,40.24-3.17,54.98-3.36l.14,4.42ZM640.14,310.27l-2.95,1.98c-2.06-3.3-4.46-6.2-7.2-8.84l2.74-2.11c2.95,2.77,5.42,5.74,7.4,8.97ZM646.72,305.72l-2.95,2.04c-2.06-3.3-4.46-6.26-7.13-8.84l2.67-2.04c3.02,2.83,5.48,5.8,7.4,8.84Z"/>
    <path d="M668.73,284.36c-2.06,8.9-3.02,18.99-3.02,30.27,0,8.05,1.23,15.04,3.77,21.04l-4.73,1.65c-2.81-6.33-4.18-13.85-4.18-22.69,0-11.34.96-21.7,3.02-31.06l5.14.79ZM714.94,298.47c-3.43.46-7.27.79-11.59,1.06.41,8.84.62,15.83.69,20.91,4.25,2.11,8.64,5.21,13.09,9.17l-3.09,3.63c-3.98-3.43-7.34-6-10.22-7.72-.41,2.77-1.37,5.08-2.88,6.99-2.47,2.97-6.24,4.49-11.17,4.49-3.91,0-7.06-.79-9.53-2.24-2.88-1.78-4.32-4.35-4.32-7.72s1.23-5.87,3.84-7.72c2.47-1.85,5.62-2.7,9.53-2.7,3.09,0,6.24.53,9.46,1.58-.07-4.42-.27-10.55-.62-18.47-2.95.07-6.03.13-9.26.13-5,0-9.46-.13-13.37-.33l-.07-4.81c4.39.26,8.91.4,13.44.4,3.15,0,6.17-.07,9.05-.13l-.62-11.8,5.21-.07c.21,4.15.41,8.04.62,11.67,4.39-.26,8.3-.59,11.72-1.06l.07,4.75ZM689.3,321.16c-2.47,0-4.46.46-5.83,1.52-1.51,1.06-2.26,2.51-2.26,4.35,0,1.98.96,3.43,2.95,4.35,1.37.66,3.29.99,5.62.99,3.15,0,5.55-1.05,7.06-3.1,1.1-1.58,1.78-3.63,1.92-6.2-3.15-1.32-6.31-1.91-9.46-1.91Z"/>
    <path d="M745.65,290.03c-.75,8.71-2.54,16.88-5.35,24.67-2.95,7.98-6.86,15.17-11.79,21.5l-5-2.44c4.87-6.07,8.71-12.86,11.59-20.51,2.81-7.52,4.52-15.43,5.14-23.81l5.42.59ZM776.16,309.94c4.04,8.84,7.06,17.21,8.98,24.99l-5.42,1.06c-1.85-7.52-4.73-15.63-8.64-24.27-3.84-8.44-7.82-15.56-11.93-21.43l4.66-2.37c4.25,6.13,8.36,13.45,12.34,22.03ZM784.11,282.44c1.37,1.32,2.12,2.97,2.12,4.95,0,1.85-.75,3.5-2.12,4.88-1.44,1.32-3.15,1.98-5.07,1.98s-3.7-.66-5.07-1.98c-1.44-1.38-2.13-3.03-2.13-4.88,0-1.98.69-3.63,2.13-4.95,1.37-1.38,3.08-2.04,5.07-2.04s3.63.66,5.07,2.04ZM776.09,284.49c-.82.79-1.23,1.71-1.23,2.9,0,1.06.41,2.04,1.23,2.84.82.73,1.78,1.12,2.95,1.12,1.1,0,2.12-.4,2.95-1.12.82-.79,1.23-1.78,1.23-2.84,0-1.19-.41-2.11-1.23-2.9-.82-.79-1.85-1.19-2.95-1.19-1.17,0-2.13.4-2.95,1.19Z"/>
    <path d="M824.7,317.99c-7.2,7.78-16.39,14.38-27.56,19.78l-3.29-4.22c19.06-8.77,32.56-22.22,40.52-40.29h-33.52v-4.81h37.3l3.36,2.18c-3.77,8.97-8.23,16.75-13.3,23.28,4.04,2.64,8.02,5.47,11.93,8.51,5.55,4.29,10.01,8.18,13.3,11.74l-4.18,3.36c-3.15-3.36-7.4-7.12-12.75-11.28-3.98-3.17-7.88-5.94-11.65-8.38l-.14.13Z"/>
    <path d="M890.93,283.5c-.82,2.24-1.71,4.48-2.81,6.73h23.31l3.29,1.78c-1.78,10.35-5.83,19.52-12.27,27.57-6.79,8.38-15.43,14.58-25.85,18.53l-2.88-4.42c9.32-3.56,17.07-8.77,23.24-15.63.21-.26.41-.46.62-.73-1.92-1.32-4.04-2.7-6.24-4.09-3.7-2.31-7.13-4.22-10.22-5.67l3.15-3.69c3.15,1.58,6.58,3.43,10.15,5.54,2.26,1.32,4.32,2.64,6.24,3.96,3.84-5.54,6.58-11.61,8.09-18.33h-23.31c-1.1,1.85-2.33,3.63-3.63,5.41-3.84,5.08-8.16,9.5-13.09,13.26l-3.63-3.43c4.8-3.82,9.05-8.18,12.75-13.06,3.63-5.01,6.31-10.09,8.09-15.23l5,1.52Z"/>
    <path d="M957.5,283.24c-.96,4.42-1.99,8.71-3.08,12.93,1.23-.07,2.4-.07,3.56-.07,4.8,0,8.43,1.38,10.97,4.22,2.47,2.77,3.7,6.73,3.7,11.8,0,6.59-.75,11.87-2.19,15.96-2.19,6.2-6.03,9.36-11.45,9.36-3.29,0-6.92-.73-10.76-2.04l.75-4.68c3.7,1.32,7.06,1.98,9.94,1.98,3.5,0,5.9-2.84,7.27-8.38.75-3.3,1.17-7.39,1.17-12.2,0-7.65-3.22-11.47-9.53-11.47-1.51,0-3.08,0-4.73.13-4.11,14.11-9.26,26.45-15.29,37l-4.8-2.18c5.76-10.16,10.63-21.63,14.47-34.42-4.11.4-8.78.99-13.92,1.78l-.75-4.62c5.76-.92,11.11-1.58,16.04-1.91,1.23-4.62,2.4-9.3,3.43-14.18l5.21.99ZM992.53,319.18l-4.87,1.65c-1.3-5.67-2.88-10.49-4.73-14.44-2.26-4.75-5.14-8.84-8.64-12.33l3.98-2.97c6.86,6.86,11.65,16.22,14.26,28.09ZM986.29,290.56l-2.88,1.98c-2.06-3.3-4.46-6.2-7.2-8.84l2.74-2.11c2.95,2.77,5.42,5.74,7.34,8.97ZM993.76,287.26l-2.95,2.04c-2.06-3.3-4.46-6.26-7.13-8.84l2.67-2.04c3.02,2.84,5.48,5.8,7.4,8.84Z"/>
    <path d="M1018.45,326.63v14.11h-4.66v-34.49c-3.84,4.62-8.3,8.9-13.23,12.73l-3.22-4.02c8.64-6.59,15.29-14.11,20.02-22.62h-18.17v-4.62h20.43c1.17-2.57,2.19-5.14,3.02-7.72l5,.59c-.82,2.44-1.65,4.81-2.61,7.12h34.07v4.62h-36.13c-1.37,2.64-2.81,5.21-4.46,7.65h31.81v35.61c0,3.23-1.92,4.88-5.76,5.01h-7.68l-1.23-4.35c2.61.13,5.07.26,7.34.26,1.78,0,2.67-.79,2.67-2.37v-7.52h-27.22ZM1018.45,311.33h27.22v-7.19h-27.22v7.19ZM1018.45,315.48v6.99h27.22v-6.99h-27.22Z"/>
    <path d="M1087.35,340.68h-4.94v-23.28c-4.25,1.32-8.71,2.51-13.51,3.63l-2.61-4.55c11.86-2.37,21.73-5.41,29.62-9.23-3.02-2.44-7.13-5.08-12.34-7.91l4.25-2.57c5.21,3.1,9.32,5.87,12.27,8.31,6.99-4.02,12.07-8.71,15.29-14.11h-25.37c-4.66,4.15-10.56,7.85-17.83,11.15l-3.29-4.09c11.72-4.81,19.61-10.75,23.72-17.74l5.42.59c-1.1,1.98-2.33,3.83-3.7,5.61h26.74v4.22c-4.94,9.03-13.78,16.42-26.67,22.16h28.59v27.83h-5v-3.89h-30.65v3.89ZM1117.99,317.27h-30.65v14.9h30.65v-14.9Z"/>
    <path d="M1162.83,296.56c.48,2.37,1.3,4.62,2.4,6.73,5.42-1.98,12.2-3.96,20.29-6l1.92,4.48c-11.24,2.77-19.95,5.54-25.98,8.31-9.05,4.02-13.51,8.44-13.51,13.19,0,6,6.86,9.04,20.57,9.04,6.72,0,13.51-.46,20.22-1.25l.48,4.88c-6.99.73-13.92,1.12-20.7,1.12-8.84,0-15.36-1.12-19.54-3.3-4.32-2.24-6.44-5.67-6.44-10.35,0-6.33,4.66-11.8,14.05-16.49,1.1-.59,2.33-1.19,3.7-1.71-1.37-2.7-2.33-5.67-2.88-8.97-.69-3.5-1.1-8.24-1.23-14.31l5.28-.13c.14,6.4.62,11.34,1.37,14.77Z"/>
    <path d="M1213.84,289.76c-.89,5.67-1.3,11.54-1.3,17.48,0,7.19,1.03,12.99,3.15,17.48,1.92,3.96,4.18,6,6.92,6,1.78,0,3.43-1.78,4.94-5.34.96-2.24,1.71-4.81,2.26-7.58l5.28,1.19c-1.17,5.01-2.67,8.9-4.52,11.74-2.19,3.36-4.8,5.08-7.82,5.08-4.94,0-8.78-2.7-11.59-8.11-2.74-5.21-4.04-12-4.04-20.44,0-5.94.41-11.94,1.37-18.07l5.35.59ZM1264.98,326.04l-5.35.26c-.82-14.64-4.66-25.85-11.59-33.77l4.32-3.1c7.54,8.77,11.79,20.97,12.61,36.6Z"/>
    <path d="M1321.4,301.5c3.09,2.7,4.66,6.46,4.66,11.34,0,6.86-2.81,12.53-8.43,16.95-5.48,4.15-13.44,7.06-23.93,8.77l-2.19-4.68c9.19-1.32,16.32-3.69,21.25-7.12,5.21-3.56,7.88-8.18,7.88-13.72,0-3.43-1.1-6.07-3.15-7.91-2.19-2.04-5.42-3.03-9.53-3.03-5.76,0-14.74,1.71-26.94,5.14l-1.44-4.62c4.87-1.32,9.53-2.44,13.92-3.3,6.17-1.25,10.97-1.85,14.4-1.85,5.83,0,10.35,1.32,13.51,4.02ZM1318.18,287.13l-1.44,4.55c-8.57-2.18-17.96-3.69-28.25-4.49l.75-4.68c10.97.92,20.64,2.44,28.93,4.62Z"/>
    <path d="M1359.11,314.49c-4.25,4.42-6.31,7.72-6.31,9.89,0,5.21,6.72,7.85,20.16,7.85,8.02,0,15.49-.66,22.35-1.91l.82,4.68c-6.92,1.25-14.67,1.91-23.17,1.91-17,0-25.44-4.09-25.44-12.27,0-3.63,2.47-8.05,7.54-13.19l4.04,3.03ZM1372.14,290.29c7.95,0,14.6-.26,19.95-.79l1.92,4.16c-6.03,3.17-11.79,6.66-17.41,10.55l-2.95-3.76c3.77-2.37,7.4-4.48,10.9-6.33-3.29.46-7.47.73-12.41.73-8.3,0-15.29-.53-21.05-1.52l.69-4.62c5.76,1.05,12.55,1.58,20.36,1.58Z"/>
    <path d="M1437.06,296.56c.48,2.37,1.3,4.62,2.4,6.73,5.42-1.98,12.2-3.96,20.29-6l1.92,4.48c-11.24,2.77-19.95,5.54-25.98,8.31-9.05,4.02-13.51,8.44-13.51,13.19,0,6,6.86,9.04,20.57,9.04,6.72,0,13.51-.46,20.22-1.25l.48,4.88c-6.99.73-13.92,1.12-20.7,1.12-8.84,0-15.36-1.12-19.54-3.3-4.32-2.24-6.44-5.67-6.44-10.35,0-6.33,4.66-11.8,14.05-16.49,1.1-.59,2.33-1.19,3.7-1.71-1.37-2.7-2.33-5.67-2.88-8.97-.69-3.5-1.1-8.24-1.23-14.31l5.28-.13c.14,6.4.62,11.34,1.37,14.77Z"/>
    <path d="M1505.96,283.24c-.96,4.42-1.99,8.71-3.08,12.93,1.23-.07,2.4-.07,3.56-.07,4.8,0,8.43,1.38,10.97,4.22,2.47,2.77,3.7,6.73,3.7,11.8,0,6.59-.75,11.87-2.19,15.96-2.19,6.2-6.03,9.36-11.45,9.36-3.29,0-6.92-.73-10.76-2.04l.75-4.68c3.7,1.32,7.06,1.98,9.94,1.98,3.5,0,5.9-2.84,7.27-8.38.75-3.3,1.17-7.39,1.17-12.2,0-7.65-3.22-11.47-9.53-11.47-1.51,0-3.08,0-4.73.13-4.11,14.11-9.26,26.45-15.29,37l-4.8-2.18c5.76-10.16,10.63-21.63,14.47-34.42-4.11.4-8.78.99-13.92,1.78l-.75-4.62c5.76-.92,11.11-1.58,16.04-1.91,1.23-4.62,2.4-9.3,3.43-14.18l5.21.99ZM1541,319.18l-4.87,1.65c-1.3-5.67-2.88-10.49-4.73-14.44-2.26-4.75-5.14-8.84-8.64-12.33l3.98-2.97c6.86,6.86,11.65,16.22,14.26,28.09Z"/>
    <path d="M1563.96,293.66c-.82,10.42-1.99,17.54-3.56,21.37,3.02-2.37,6.44-4.22,10.42-5.47,3.98-1.39,8.09-2.04,12.34-2.04,4.94,0,9.05,1.19,12.34,3.56,3.43,2.51,5.14,5.87,5.14,10.02,0,5.54-2.47,9.69-7.27,12.6-4.52,2.64-10.49,4.02-18.03,4.02-4.11,0-8.5-.2-13.03-.46l.27-4.81c4.52.33,8.78.53,12.75.53,6.51,0,11.52-1.05,14.95-3.17,3.43-2.11,5.14-5.01,5.14-8.71,0-2.51-1.1-4.62-3.22-6.33-2.33-1.85-5.35-2.7-9.05-2.7-4.66,0-8.91.73-12.82,2.18-3.91,1.45-7.88,3.76-11.93,7.06l-4.25-1.85c2.33-6.07,3.91-14.84,4.66-26.18l5.14.4ZM1576.37,284.88c6.92,1.52,12.07,2.9,15.36,4.15l-1.92,4.22c-3.15-1.19-8.02-2.44-14.6-3.89-6.03-1.32-10.97-2.18-14.81-2.57l1.1-4.55c3.7.4,8.64,1.25,14.88,2.64Z"/>
    <path d="M1668.24,285.87c-5.14,5.41-11.38,10.68-18.65,15.89v35.81h-5.35v-32.18c-8.09,5.21-16.04,9.43-23.93,12.66l-2.81-4.35c8.09-3.3,16.52-7.98,25.43-13.92,8.71-5.94,15.77-11.67,21.25-17.28l4.04,3.36Z"/>
    <path d="M1713.62,283.5c-.82,2.24-1.71,4.48-2.81,6.73h23.31l3.29,1.78c-1.78,10.35-5.83,19.52-12.27,27.57-6.79,8.38-15.43,14.58-25.85,18.53l-2.88-4.42c9.32-3.56,17.07-8.77,23.24-15.63.21-.26.41-.46.62-.73-1.92-1.32-4.04-2.7-6.24-4.09-3.7-2.31-7.13-4.22-10.22-5.67l3.15-3.69c3.15,1.58,6.58,3.43,10.15,5.54,2.26,1.32,4.32,2.64,6.24,3.96,3.84-5.54,6.58-11.61,8.09-18.33h-23.31c-1.1,1.85-2.33,3.63-3.63,5.41-3.84,5.08-8.16,9.5-13.09,13.26l-3.63-3.43c4.8-3.82,9.05-8.18,12.75-13.06,3.63-5.01,6.31-10.09,8.09-15.23l5,1.52Z"/>
    <path d="M1769.09,286.66v31.72h-5.42v-31.72h5.42ZM1802.06,285.28v21.7c0,8.31-1.99,15.04-5.9,20.05-4.18,5.34-10.76,9.1-19.81,11.34l-2.47-4.55c8.43-2.04,14.47-5.47,18.1-10.22,3.15-4.16,4.73-9.83,4.73-16.95v-21.37h5.35Z"/>
    <path d="M1876.18,287.06l2.81,2.44c-2.54,4.75-5.21,8.9-8.02,12.46-3.29,4.02-7.06,7.65-11.31,10.88l-3.77-3.63c7.13-5.41,12.34-11.15,15.7-17.34h-45.59v-4.81h50.18ZM1853.14,298.6v9.04c0,7.25-1.44,13.26-4.18,18.14-3.02,5.21-7.75,9.3-14.26,12.33l-3.36-4.09c5.76-2.7,10.01-6.07,12.61-10.16,2.54-4.09,3.84-9.5,3.84-16.22v-9.04h5.35Z"/>
    <path d="M1899.69,288.84c-1.17-2.64-2.61-5.14-4.25-7.52l4.66-1.32c1.71,2.9,3.02,5.54,3.91,7.91l-2.47.92h9.8v4.35h-22.08v-4.35h10.42ZM1895.92,340.81h-4.59v-23.21h18.44v22.22h-4.46v-3.03h-9.39v4.02ZM1909.15,298.4v4.15h-17.35v-4.15h17.35ZM1909.15,307.7v4.22h-17.35v-4.22h17.35ZM1905.31,321.81h-9.39v10.62h9.39v-10.62ZM1949.19,282.97v4.29h-17.76l-1.51,7.45h15.97v12.99h5.21v4.35h-37.64v-4.35h9.19l1.78-8.84h-8.23v-4.15h9.12l1.51-7.45h-12.89v-4.29h35.24ZM1946.93,341.01h-4.59v-3.03h-20.7v3.03h-4.66v-22.75h29.96v22.75ZM1942.33,333.69v-11.21h-20.7v11.21h20.7ZM1941.31,307.7v-8.84h-12.27l-1.78,8.84h14.05Z"/>
    <path d="M2010.07,293.46c-6.92.73-15.77,1.12-26.6,1.25-2.47,4.15-5.07,7.65-7.75,10.55,3.63-2.77,7.27-4.09,10.9-4.09s6.17,1.25,7.95,3.76c.41.66.82,1.39,1.17,2.18,4.8-1.65,10.35-3.23,16.66-4.75l1.44,4.48c-6.31,1.38-12,2.97-17,4.75.14.99.21,2.04.21,3.23v11.41h-4.87v-10.68c0-.79-.07-1.52-.07-2.18-.75.26-1.44.59-2.12.92-8.5,3.76-12.75,7.65-12.75,11.61,0,2.44,1.51,4.22,4.66,5.34,2.54.86,6.24,1.32,11.17,1.32,6.17,0,12.07-.53,17.69-1.45l.48,4.62c-5.96.92-12,1.39-18.17,1.39-6.58,0-11.59-.79-15.01-2.38-3.98-1.85-5.96-4.81-5.96-8.84,0-5.34,4.32-10.16,13.09-14.44,1.78-.92,3.77-1.78,5.96-2.64-1.1-2.44-2.88-3.63-5.35-3.63-5.9,0-12.55,4.16-19.95,12.46l-3.56-3.17c5.35-5.67,9.67-10.82,12.89-15.43.96-1.45,1.85-2.9,2.81-4.35-3.57,0-8.43-.07-14.47-.13l.07-4.48c5.9,0,11.59.07,16.93.07,1.37-2.77,2.67-5.61,3.91-8.57l4.59,1.71c-1.03,2.37-2.06,4.68-3.08,6.86,9.87-.13,17.76-.46,23.79-1.12l.34,4.42Z"/>
    <path d="M2026.59,312.71l-1.65-5.01c7.13-8.05,12.27-17.28,15.43-27.7l4.66,2.04c-1.71,5.14-3.84,10.02-6.38,14.57v44.38h-4.94v-36.8c-2.19,2.97-4.52,5.8-7.13,8.51ZM2064.23,287.13v-6.73h5v6.73h18.85v4.55h-18.85v6.26h16.04v18.66h-16.32c-.55,5.94-1.71,10.49-3.56,13.78,6.86,3.63,14.81,5.67,23.79,6.13l-1.23,4.55c-9.6-.59-18.03-2.9-25.3-6.99-3.7,3.63-9.53,6-17.48,7.12l-2.12-4.35c6.99-.72,12.13-2.57,15.29-5.47-4.04-2.77-7.68-6.13-10.83-10.02l3.77-2.51c2.95,3.56,6.24,6.53,9.87,9.04,1.44-2.9,2.4-6.66,2.81-11.28h-15.36v-18.66h15.63v-6.26h-17.96v-4.55h17.96ZM2064.23,310.74v-8.57h-10.97v10.16h10.9c0-.53.07-1.06.07-1.58ZM2080.62,302.16h-11.38v8.57c0,.53-.07,1.06-.07,1.58h11.45v-10.16Z"/>
    <path d="M2098.03,340.28l-3.77-3.23c4.39-5.87,6.65-13.32,6.79-22.36v-31.66h51.08v49.4c0,4.62-2.4,6.92-7.2,6.92h-7.88l-1.3-4.68c2.74.13,5.28.26,7.61.26,2.47,0,3.77-1.38,3.77-4.15v-11.48h-18.65v19.32h-5.07v-19.32h-17.69c-.75,8.44-3.29,15.43-7.68,20.97ZM2105.98,287.65v11.34h17.41v-11.34h-17.41ZM2105.98,314.96h17.41v-11.54h-17.41v11.54ZM2147.12,287.65h-18.65v11.34h18.65v-11.34ZM2147.12,303.42h-18.65v11.54h18.65v-11.54Z"/>
    <path d="M2181.33,283.63v36.87c0,8.05,4.46,12.07,13.44,12.07,10.01,0,17.69-7.12,23.17-21.3l5.07,1.85c-2.74,6.99-5.9,12.46-9.6,16.36-5.07,5.34-11.31,8.05-18.65,8.05-12.61,0-18.85-5.47-18.85-16.36v-37.52h5.42Z"/>
    <path d="M2288.42,294.64c-7.61.26-14.95.46-22.01.59.07,3.43.14,6.53.27,9.37,6.72-.07,13.51-.2,20.36-.4v4.55c-6.58.13-13.3.2-20.22.26.14,4.55.21,8.18.21,10.88,1.44.53,2.88,1.05,4.39,1.71,5.9,2.44,11.59,5.74,17.07,9.89l-3.15,3.76c-5.14-3.89-10.28-6.99-15.49-9.37-1.03-.46-2.06-.86-3.02-1.25-.41,3.43-1.44,6.2-3.08,8.24-2.47,2.97-6.38,4.48-11.72,4.48-3.84,0-7.06-.86-9.53-2.44-2.81-1.78-4.18-4.29-4.18-7.52s1.37-5.8,4.25-7.65c2.47-1.71,5.62-2.51,9.6-2.51,3.08,0,6.31.4,9.67,1.19l-.21-9.36h-6.65c-3.08,0-7.75-.07-13.92-.2l-1.92-.07v-4.48c1.37,0,3.43.07,6.17.13,3.7.13,6.92.2,9.6.2h6.65c-.14-2.84-.21-5.94-.27-9.36h-5.42c-3.22,0-6.72-.07-10.49-.07l-7.13-.2-.07-4.48,7.2.2c3.7.07,7.2.13,10.49.13h5.28l-.27-8.71,5.07-.13c.14,3.03.21,6,.34,8.77,6.58-.13,13.99-.4,22.14-.73v4.55ZM2252.15,321.55c-2.47,0-4.52.46-6.17,1.52-1.78,1.06-2.67,2.51-2.67,4.35s.82,3.17,2.6,4.15c1.51.92,3.56,1.38,6.1,1.38,3.5,0,6.1-1.05,7.75-3.03,1.3-1.65,1.99-3.96,2.13-6.99-3.43-.92-6.65-1.38-9.74-1.38Z"/>
    <path d="M2318.44,283.63v36.87c0,8.05,4.46,12.07,13.44,12.07,10.01,0,17.69-7.12,23.17-21.3l5.07,1.85c-2.74,6.99-5.9,12.46-9.6,16.36-5.07,5.34-11.31,8.05-18.65,8.05-12.61,0-18.85-5.47-18.85-16.36v-37.52h5.42Z"/>
    <path d="M2407.23,295.24c-4.94.59-10.7,1.06-17.28,1.45-.96,4.75-2.06,9.43-3.15,13.92-2.61,10.35-5.48,19.26-8.64,26.71l-5-1.65c3.15-7.32,6.03-16.03,8.64-26.18.96-4.09,1.92-8.31,2.81-12.53-4.18.13-8.64.26-13.37.33l-.21-4.68c5.07,0,9.87-.13,14.47-.26.69-3.69,1.3-7.39,1.85-11.15l5.28.66c-.55,3.43-1.17,6.86-1.78,10.22,5.62-.33,10.76-.79,15.56-1.38l.82,4.55ZM2402.29,319.44c-2.19,2.9-3.29,5.34-3.29,7.45,0,1.71,1.3,3.1,3.98,4.02,2.47.86,5.9,1.32,10.42,1.32,5.07,0,9.74-.4,13.85-1.19l.14,4.68c-3.98.66-8.64,1.06-13.99,1.06-13.09,0-19.61-3.17-19.61-9.43,0-3.3,1.3-6.66,4.04-10.22l4.46,2.31ZM2426.49,306.12c-9.67,0-19.47.4-29.48,1.25l-.27-4.75c10.01-.79,19.88-1.19,29.75-1.19v4.68Z"/>
    <path d="M368.79,410.05c-7.61.26-14.95.46-22.01.59.07,3.43.14,6.53.27,9.37,6.72-.07,13.51-.2,20.36-.4v4.55c-6.58.13-13.3.2-20.22.26.14,4.55.21,8.18.21,10.88,1.44.53,2.88,1.05,4.39,1.71,5.9,2.44,11.59,5.74,17.07,9.89l-3.15,3.76c-5.14-3.89-10.28-6.99-15.49-9.37-1.03-.46-2.06-.86-3.02-1.25-.41,3.43-1.44,6.2-3.08,8.24-2.47,2.97-6.38,4.48-11.72,4.48-3.84,0-7.06-.86-9.53-2.44-2.81-1.78-4.18-4.29-4.18-7.52s1.37-5.8,4.25-7.65c2.47-1.71,5.62-2.51,9.6-2.51,3.09,0,6.31.4,9.67,1.19l-.21-9.36h-6.65c-3.09,0-7.75-.07-13.92-.2l-1.92-.07v-4.48c1.37,0,3.43.07,6.17.13,3.7.13,6.92.2,9.6.2h6.65c-.14-2.84-.21-5.94-.27-9.36h-5.42c-3.22,0-6.72-.07-10.49-.07l-7.13-.2-.07-4.48,7.2.2c3.7.07,7.2.13,10.49.13h5.28l-.27-8.71,5.07-.13c.14,3.03.21,6,.34,8.77,6.58-.13,13.99-.4,22.14-.73v4.55ZM332.52,436.95c-2.47,0-4.52.46-6.17,1.52-1.78,1.06-2.67,2.51-2.67,4.35s.82,3.17,2.6,4.15c1.51.92,3.57,1.38,6.1,1.38,3.5,0,6.1-1.05,7.75-3.03,1.3-1.65,1.99-3.96,2.13-6.99-3.43-.92-6.65-1.38-9.74-1.38Z"/>
    <path d="M419.04,410.64c-4.94.59-10.7,1.06-17.28,1.45-.96,4.75-2.06,9.43-3.15,13.92-2.61,10.35-5.48,19.26-8.64,26.71l-5-1.65c3.15-7.32,6.03-16.03,8.64-26.18.96-4.09,1.92-8.31,2.81-12.53-4.18.13-8.64.26-13.37.33l-.21-4.68c5.07,0,9.87-.13,14.47-.26.69-3.69,1.3-7.39,1.85-11.15l5.28.66c-.55,3.43-1.17,6.86-1.78,10.22,5.62-.33,10.76-.79,15.56-1.38l.82,4.55ZM414.11,434.84c-2.19,2.9-3.29,5.34-3.29,7.45,0,1.71,1.3,3.1,3.98,4.02,2.47.86,5.9,1.32,10.42,1.32,5.07,0,9.74-.4,13.85-1.19l.14,4.68c-3.98.66-8.64,1.06-13.99,1.06-13.09,0-19.61-3.17-19.61-9.43,0-3.3,1.3-6.66,4.04-10.22l4.46,2.31ZM438.31,421.52c-9.67,0-19.47.4-29.48,1.25l-.27-4.75c10.01-.79,19.88-1.19,29.75-1.19v4.68Z"/>
    <path d="M482.8,424.42c2.26,2.24,4.25,4.55,5.9,6.79l-3.43,2.77c-1.65-2.24-3.63-4.55-5.83-6.79-2.54-2.57-5.07-4.75-7.61-6.6l3.09-2.77c2.61,1.71,5.21,3.96,7.88,6.59Z"/>
    <path d="M556.16,410.64c-4.94.59-10.7,1.06-17.28,1.45-.96,4.75-2.06,9.43-3.15,13.92-2.61,10.35-5.48,19.26-8.64,26.71l-5-1.65c3.15-7.32,6.03-16.03,8.64-26.18.96-4.09,1.92-8.31,2.81-12.53-4.18.13-8.64.26-13.37.33l-.21-4.68c5.07,0,9.87-.13,14.47-.26.69-3.69,1.3-7.39,1.85-11.15l5.28.66c-.55,3.43-1.17,6.86-1.78,10.22,5.62-.33,10.76-.79,15.56-1.38l.82,4.55ZM551.22,434.84c-2.19,2.9-3.29,5.34-3.29,7.45,0,1.71,1.3,3.1,3.98,4.02,2.47.86,5.9,1.32,10.42,1.32,5.07,0,9.74-.4,13.85-1.19l.14,4.68c-3.98.66-8.64,1.06-13.99,1.06-13.09,0-19.61-3.17-19.61-9.43,0-3.3,1.3-6.66,4.04-10.22l4.46,2.31ZM575.42,421.52c-9.67,0-19.47.4-29.48,1.25l-.27-4.75c10.01-.79,19.88-1.19,29.75-1.19v4.68ZM570.83,407.74l-2.95,1.98c-2.06-3.3-4.46-6.2-7.2-8.84l2.81-2.04c2.88,2.7,5.35,5.67,7.34,8.9ZM577.62,402.73l-2.95,2.11c-2.06-3.36-4.46-6.33-7.13-8.9l2.67-2.04c3.02,2.84,5.48,5.8,7.4,8.84Z"/>
    <path d="M634.59,403.98c-7.27,5.8-15.77,12.66-25.5,20.71,5.35-3.03,10.42-4.48,15.22-4.48,5.69,0,10.15,1.32,13.37,3.96,3.15,2.64,4.73,6.2,4.73,10.82,0,5.14-2.4,9.3-7.06,12.46-4.8,3.17-10.76,4.75-17.89,4.75-4.66,0-8.36-.86-11.11-2.57-2.74-1.78-4.04-4.09-4.04-6.99,0-2.64.96-4.81,2.95-6.53,2.06-1.91,4.8-2.84,8.23-2.84,4.66,0,8.3,1.39,10.97,4.29,1.99,2.04,3.43,4.81,4.25,8.24l1.71-.86c4.59-2.51,6.92-5.87,6.92-9.96,0-3.5-1.3-6.13-3.77-7.91-2.33-1.65-5.55-2.44-9.8-2.44-4.87,0-9.94,1.19-15.29,3.56-4.59,2.11-8.84,4.81-12.68,8.18l-3.29-3.36,33.59-28.09-28.25,1.32-.27-4.62,34.14-1.05,2.88,3.43ZM623.69,445.99c-1.58-5.61-5-8.38-10.22-8.38-1.92,0-3.43.46-4.52,1.45-1.17.92-1.71,2.11-1.71,3.5s.69,2.57,2.19,3.56c1.78,1.19,4.46,1.78,8.02,1.78,2.33,0,4.46-.26,6.51-.66-.14-.53-.21-.92-.27-1.25Z"/>
    <path d="M711.58,410.05c-7.61.26-14.95.46-22.01.59.07,3.43.14,6.53.27,9.37,6.72-.07,13.51-.2,20.36-.4v4.55c-6.58.13-13.3.2-20.22.26.14,4.55.21,8.18.21,10.88,1.44.53,2.88,1.05,4.39,1.71,5.9,2.44,11.59,5.74,17.07,9.89l-3.15,3.76c-5.14-3.89-10.28-6.99-15.49-9.37-1.03-.46-2.06-.86-3.02-1.25-.41,3.43-1.44,6.2-3.08,8.24-2.47,2.97-6.38,4.48-11.72,4.48-3.84,0-7.06-.86-9.53-2.44-2.81-1.78-4.18-4.29-4.18-7.52s1.37-5.8,4.25-7.65c2.47-1.71,5.62-2.51,9.6-2.51,3.09,0,6.31.4,9.67,1.19l-.21-9.36h-6.65c-3.09,0-7.75-.07-13.92-.2l-1.92-.07v-4.48c1.37,0,3.43.07,6.17.13,3.7.13,6.92.2,9.6.2h6.65c-.14-2.84-.21-5.94-.27-9.36h-5.42c-3.22,0-6.72-.07-10.49-.07l-7.13-.2-.07-4.48,7.2.2c3.7.07,7.2.13,10.49.13h5.28l-.27-8.71,5.07-.13c.14,3.03.21,6,.34,8.77,6.58-.13,13.99-.4,22.14-.73v4.55ZM675.31,436.95c-2.47,0-4.52.46-6.17,1.52-1.78,1.06-2.67,2.51-2.67,4.35s.82,3.17,2.61,4.15c1.51.92,3.57,1.38,6.1,1.38,3.5,0,6.1-1.05,7.75-3.03,1.3-1.65,1.99-3.96,2.13-6.99-3.43-.92-6.65-1.38-9.74-1.38Z"/>
    <path d="M737.29,399.76c-2.06,8.9-3.02,18.99-3.02,30.27,0,8.05,1.23,15.04,3.77,21.04l-4.73,1.65c-2.81-6.33-4.18-13.85-4.18-22.69,0-11.34.96-21.7,3.02-31.06l5.14.79ZM783.5,413.87c-3.43.46-7.27.79-11.59,1.06.41,8.84.62,15.83.69,20.91,4.25,2.11,8.64,5.21,13.09,9.17l-3.08,3.63c-3.98-3.43-7.34-6-10.22-7.72-.41,2.77-1.37,5.08-2.88,6.99-2.47,2.97-6.24,4.49-11.17,4.49-3.91,0-7.06-.79-9.53-2.24-2.88-1.78-4.32-4.35-4.32-7.72s1.23-5.87,3.84-7.72c2.47-1.85,5.62-2.7,9.53-2.7,3.09,0,6.24.53,9.46,1.58-.07-4.42-.27-10.55-.62-18.47-2.95.07-6.03.13-9.26.13-5,0-9.46-.13-13.37-.33l-.07-4.81c4.39.26,8.91.4,13.44.4,3.15,0,6.17-.07,9.05-.13l-.62-11.8,5.21-.07c.21,4.15.41,8.04.62,11.67,4.39-.26,8.3-.59,11.72-1.06l.07,4.75ZM757.86,436.56c-2.47,0-4.46.46-5.83,1.52-1.51,1.06-2.26,2.51-2.26,4.35,0,1.98.96,3.43,2.95,4.35,1.37.66,3.29.99,5.62.99,3.15,0,5.55-1.05,7.06-3.1,1.1-1.58,1.78-3.63,1.92-6.2-3.15-1.32-6.31-1.91-9.46-1.91Z"/>
    <path d="M792.82,427.52l-1.65-5.01c5.48-7.85,9.46-16.82,11.93-26.91l4.46,1.98c-1.1,4.16-2.47,8.11-4.11,11.94v46.89h-4.73v-37.59c-1.78,3.03-3.77,5.94-5.9,8.71ZM832.79,449.68c-7.68,2.04-15.84,3.76-24.61,5.14l-1.1-4.42c3.7-.53,7.27-1.12,10.83-1.78v-12.73h-9.32v-4.35h9.32v-7.65h4.8v7.65h9.05v4.35h-9.05v11.74c3.43-.79,6.79-1.65,10.08-2.57v4.62ZM832.45,398.57v4.35h-12c-2.12,6.66-4.11,11.67-6.03,15.04,4.04-.53,7.88-1.19,11.52-1.98-1.1-2.37-2.33-4.68-3.63-7.06l3.63-2.18c3.15,5.54,5.48,10.42,7.13,14.64l-3.63,2.51c-.55-1.45-1.17-2.9-1.85-4.35-5.83,1.19-12.13,2.24-18.92,3.03l-1.1-4.09c.82-.13,1.44-.26,1.85-.46,1.78-2.37,3.84-7.39,6.31-15.1h-6.79v-4.35h23.52ZM840.47,401.87v40.82h-4.52v-40.82h4.52ZM838.55,455.68l-1.03-4.48c2.4.2,4.66.33,6.86.33,1.78,0,2.67-.99,2.67-2.84v-52.56h4.8v53.75c0,3.83-1.99,5.8-5.83,5.8h-7.47Z"/>
    <path d="M909.44,409.59c1.78,1.78,2.74,4.22,2.74,7.39,0,2.24-.41,6.27-1.1,11.94-.89,6.53-1.3,10.75-1.3,12.6,0,3.03,1.1,4.62,3.29,4.62,2.47,0,5-2.04,7.47-6.13l4.18,2.9c-1.85,2.64-3.5,4.55-4.94,5.74-2.06,1.45-4.32,2.18-6.79,2.18-5.69,0-8.5-3.1-8.5-9.3,0-1.45.41-5.67,1.37-12.6.75-5.93,1.17-9.96,1.17-11.94,0-3.69-1.92-5.54-5.69-5.54-4.87,0-11.11,3.36-18.65,10.22-.69.59-1.44,1.25-2.13,1.98-.34,12.4-.48,22.42-.48,30.2h-5c0-7.12.07-15.43.27-24.93-3.22,3.43-6.72,7.45-10.42,12.13l-4.11-3.1c5.14-6.46,10.08-11.87,14.74-16.36l.27-8.9-12.07.73-.27-4.55,12.48-.73.27-11.08,5,.07c-.14,2.57-.21,6.2-.27,10.82l2.19,1.78-2.4,4.81c0,.79-.07,1.65-.07,2.44l.14-.13c7.95-6.73,14.81-10.02,20.5-10.02,3.5,0,6.17.92,8.09,2.77Z"/>
    <path d="M987.32,407.28l-12.34.53c-2.06,0-4.73,1.19-7.88,3.56-3.43,2.51-6.31,5.47-8.57,8.9-2.67,3.96-3.98,7.98-3.98,12,0,4.62,2.06,8.31,6.24,11.01,4.46,2.77,10.97,4.29,19.61,4.55l-.96,4.55c-10.01-.13-17.62-1.98-22.76-5.54-4.94-3.36-7.4-8.11-7.4-14.25,0-5.28,1.78-10.29,5.42-14.9,2.95-3.96,6.72-7.19,11.38-9.69-10.15.79-21.25,1.71-33.18,2.9l-.69-4.68c21.94-2.04,40.24-3.17,54.98-3.36l.14,4.42Z"/>
    <path d="M1046.97,410.77c-6.79.26-14.67.4-23.65.53-.41,3.69-.75,7.12-1.03,10.16,7.13-.2,14.67-.46,22.62-.79v4.68c-7.88.4-15.56.66-23.04.86-.41,4.68-.55,8.38-.55,11.08,0,3.63,1.17,6.33,3.5,8.11,2.13,1.58,5.48,2.44,10.01,2.44,4.25,0,7.75-.53,10.49-1.45,3.98-1.32,5.96-3.56,5.96-6.73,0-2.37-1.17-5.67-3.5-9.76l4.8-2.11c2.61,5.08,3.91,9.1,3.91,12.07,0,8.44-7.27,12.66-21.66,12.66-6.17,0-10.83-1.19-13.92-3.56-3.22-2.51-4.8-6.4-4.8-11.67,0-2.77.14-6.4.48-10.95-5.21.07-10.35.13-15.29.13v-4.68c4.94,0,10.21-.07,15.7-.2.27-3.1.62-6.53,1.03-10.22-4.94,0-10.15.07-15.63.07v-4.55c5.69,0,11.04-.07,16.11-.07l1.17-9.89h5.28l-1.17,9.83c8.84-.13,16.59-.26,23.24-.53l-.07,4.55Z"/>
    <path d="M1107.16,397.12l.21,8.97,18.99-.26v4.42l-18.92.26v.53c.14,9.17.27,14.77.27,16.82,0,7.52-1.58,13.12-4.73,16.88-2.95,3.43-8.43,6.59-16.39,9.36l-2.4-4.29c4.87-1.52,8.71-3.23,11.45-5.14,3.15-2.18,5.35-5.01,6.58-8.57-2.06,2.77-4.73,4.16-8.02,4.16-4.25,0-7.54-1.25-10.01-3.69-2.33-2.37-3.43-5.28-3.43-8.71s1.1-6.13,3.36-8.51c2.47-2.64,5.83-3.96,10.08-3.96,3.98,0,6.92,1.52,8.84,4.55-.27-2.11-.48-4.62-.48-7.65l-.07-1.71-33.52.46v-4.42l33.46-.46-.21-9.04h4.94ZM1087.76,422.31c-1.51,1.52-2.19,3.36-2.19,5.54,0,2.31.75,4.22,2.26,5.67,1.51,1.52,3.63,2.31,6.38,2.31,2.47,0,4.59-.79,6.24-2.37,1.51-1.58,2.33-3.43,2.33-5.41,0-2.38-.82-4.35-2.4-5.94-1.65-1.65-3.7-2.44-6.17-2.44-2.74,0-4.87.86-6.44,2.64Z"/>
    <path d="M1184.08,400.88c-4.39,4.22-9.32,8.44-14.67,12.73-5.62,4.35-10.9,8.05-15.7,11.01-1.03.59-1.51,1.12-1.51,1.58s.55,1.05,1.71,1.71c4.94,2.77,10.56,6.4,16.8,10.82,6.03,4.29,11.31,8.38,15.97,12.33l-3.84,4.02c-4.8-4.09-10.28-8.31-16.52-12.79-6.31-4.55-12-8.38-17.21-11.41-2.4-1.45-3.56-3.03-3.56-4.68s.96-2.97,2.95-4.09c4.25-2.64,9.46-6.33,15.77-11.21,6.44-5.08,11.72-9.56,15.7-13.52l4.11,3.5ZM1194.02,411.5l-2.95,1.98c-2.06-3.3-4.46-6.2-7.2-8.84l2.81-2.11c2.88,2.77,5.35,5.74,7.34,8.97ZM1199.71,405.37l-2.95,2.04c-2.06-3.3-4.46-6.26-7.13-8.84l2.67-2.11c3.02,2.84,5.48,5.8,7.4,8.9Z"/>
    <path d="M1219.18,400.09c-2.61,9.43-3.84,18.86-3.84,28.36,0,8.71,1.3,16.29,3.98,22.69l-4.87,1.78c-2.88-6.99-4.32-15.17-4.32-24.47,0-9.76,1.3-19.65,3.98-29.54l5.07,1.19ZM1234.33,429.37c-2.47,3.76-3.7,6.86-3.7,9.3,0,2.31,1.51,4.02,4.52,5.14,2.74.99,7.06,1.52,12.89,1.52,4.11,0,8.84-.33,14.19-.86l.27,4.95c-6.24.46-11.04.72-14.47.72-7.75,0-13.44-.86-17-2.57-3.84-1.78-5.76-4.68-5.76-8.71,0-3.17,1.37-7.12,4.25-11.87l4.8,2.37ZM1259.77,410.97c-11.72,0-22.62.33-32.77,1.05l-.82-4.75c11.18-.79,22.42-1.19,33.8-1.19l-.21,4.88Z"/>
    <path d="M1290.96,395.6v8.97h10.76v4.35h-10.76v9.7h11.65v4.35h-10.35v9.3h9.73v4.35h-9.73v12.46c4.32,1.05,12.48,1.65,24.48,1.65,7.95,0,13.85-.13,17.76-.33l-.82,4.62h-15.84c-15.77,0-25.64-.92-29.62-2.7-3.43-1.58-6.44-4.29-9.05-8.18-1.03,4.35-2.4,8.38-4.11,12.13l-3.77-3.23c3.43-7.65,5.28-16.29,5.69-25.85l4.39.46c-.14,3.89-.55,7.58-1.1,11.15,2.19,3.69,4.59,6.46,7.27,8.18v-24h-14.19v-4.35h12.68v-9.7h-11.38v-4.35h11.38v-8.97h4.94ZM1329.84,421.72h-18.65v15.63c0,1.58.96,2.44,3.02,2.44h9.73c1.58-.07,2.67-.73,3.29-1.98.48-1.05.89-3.63,1.17-7.78l4.66,1.45c-.41,4.02-.89,6.92-1.51,8.64-1.03,2.64-3.09,4.02-6.17,4.15h-13.03c-4.04,0-6.03-1.78-6.03-5.28v-38.91h23.52v21.63ZM1325.11,417.37v-12.99h-13.92v12.99h13.92Z"/>
    <path d="M1393.6,407.81c-6.65.86-13.23,1.52-19.68,2.04,1.37,2.51,2.74,4.95,4.18,7.25,6.65-.66,13.23-1.38,19.74-2.31l.89,4.48c-5.83.86-11.79,1.58-17.82,2.18,3.29,4.75,6.65,8.97,10.21,12.6l-3.08,3.36c-3.36-1.71-6.72-3.03-10.08-3.96-3.77-1.12-7.2-1.65-10.35-1.65-4.66,0-8.16.73-10.49,2.18-2.4,1.38-3.56,3.36-3.56,5.87,0,2.37,1.37,4.35,4.25,5.8,3.29,1.71,8.3,2.57,15.01,2.57,5.28,0,10.08-.4,14.4-1.05l.34,4.48c-3.91.66-8.84,1.05-14.74,1.05-7.82,0-13.85-1.12-17.96-3.23-4.39-2.24-6.51-5.47-6.51-9.63s1.51-6.92,4.66-8.97c3.22-2.18,8.02-3.23,14.47-3.23,4.8,0,9.94,1.19,15.43,3.69-2.47-2.24-5-5.34-7.68-9.43-9.94.73-20.22,1.12-30.85,1.19v-4.48c9.46-.07,18.85-.4,28.18-1.06-1.37-2.24-2.67-4.68-4.04-7.32-7.27.46-14.33.73-21.32.79v-4.48c6.1,0,12.48-.26,19.06-.66-1.23-2.37-2.4-4.81-3.56-7.39l4.8-1.91c1.37,3.1,2.74,6.07,4.18,8.9,6.72-.53,13.78-1.32,21.05-2.24l.89,4.55Z"/>
    <path d="M1439.39,395.8v20.38h25.44v4.62h-25.44v28.23h31.26v4.62h-61.02v-4.62h24.68v-53.22h5.07Z"/>
    <path d="M1505.96,398.64c-.96,4.42-1.99,8.71-3.08,12.93,1.23-.07,2.4-.07,3.56-.07,4.8,0,8.43,1.38,10.97,4.22,2.47,2.77,3.7,6.73,3.7,11.8,0,6.59-.75,11.87-2.19,15.96-2.19,6.2-6.03,9.36-11.45,9.36-3.29,0-6.92-.73-10.76-2.04l.75-4.68c3.7,1.32,7.06,1.98,9.94,1.98,3.5,0,5.9-2.84,7.27-8.38.75-3.3,1.17-7.39,1.17-12.2,0-7.65-3.22-11.47-9.53-11.47-1.51,0-3.08,0-4.73.13-4.11,14.11-9.26,26.45-15.29,37l-4.8-2.18c5.76-10.16,10.63-21.63,14.47-34.42-4.11.4-8.78.99-13.92,1.78l-.75-4.62c5.76-.92,11.11-1.58,16.04-1.91,1.23-4.62,2.4-9.3,3.43-14.18l5.21.99ZM1541,434.58l-4.87,1.65c-1.3-5.67-2.88-10.49-4.73-14.44-2.26-4.75-5.14-8.84-8.64-12.33l3.98-2.97c6.86,6.86,11.65,16.22,14.26,28.09ZM1534.76,405.96l-2.88,1.98c-2.06-3.3-4.46-6.2-7.2-8.84l2.74-2.11c2.95,2.77,5.42,5.74,7.34,8.97ZM1542.23,402.66l-2.95,2.04c-2.06-3.3-4.46-6.26-7.13-8.84l2.67-2.04c3.02,2.84,5.48,5.8,7.4,8.84Z"/>
    <path d="M1594.4,403.98c-7.27,5.8-15.77,12.66-25.5,20.71,5.35-3.03,10.42-4.48,15.22-4.48,5.69,0,10.15,1.32,13.37,3.96,3.15,2.64,4.73,6.2,4.73,10.82,0,5.14-2.4,9.3-7.06,12.46-4.8,3.17-10.76,4.75-17.89,4.75-4.66,0-8.36-.86-11.11-2.57-2.74-1.78-4.04-4.09-4.04-6.99,0-2.64.96-4.81,2.95-6.53,2.06-1.91,4.8-2.84,8.23-2.84,4.66,0,8.3,1.39,10.97,4.29,1.99,2.04,3.43,4.81,4.25,8.24l1.71-.86c4.59-2.51,6.92-5.87,6.92-9.96,0-3.5-1.3-6.13-3.77-7.91-2.33-1.65-5.55-2.44-9.8-2.44-4.87,0-9.94,1.19-15.29,3.56-4.59,2.11-8.84,4.81-12.68,8.18l-3.29-3.36,33.59-28.09-28.25,1.32-.27-4.62,34.14-1.05,2.88,3.43ZM1583.5,445.99c-1.58-5.61-5-8.38-10.21-8.38-1.92,0-3.43.46-4.52,1.45-1.17.92-1.71,2.11-1.71,3.5s.69,2.57,2.19,3.56c1.78,1.19,4.46,1.78,8.02,1.78,2.33,0,4.46-.26,6.51-.66-.14-.53-.21-.92-.27-1.25Z"/>
    <path d="M1633.34,429.9c-4.25,4.42-6.31,7.72-6.31,9.89,0,5.21,6.72,7.85,20.16,7.85,8.02,0,15.49-.66,22.35-1.91l.82,4.68c-6.92,1.25-14.67,1.91-23.17,1.91-17,0-25.44-4.09-25.44-12.27,0-3.63,2.47-8.05,7.54-13.19l4.04,3.03ZM1646.37,405.69c7.95,0,14.6-.26,19.95-.79l1.92,4.16c-6.03,3.17-11.79,6.66-17.41,10.55l-2.95-3.76c3.77-2.37,7.4-4.48,10.9-6.33-3.29.46-7.47.73-12.41.73-8.3,0-15.29-.53-21.05-1.52l.69-4.62c5.76,1.05,12.55,1.58,20.36,1.58Z"/>
    <path d="M1711.29,411.96c.48,2.37,1.3,4.62,2.4,6.73,5.42-1.98,12.2-3.96,20.29-6l1.92,4.48c-11.24,2.77-19.95,5.54-25.98,8.31-9.05,4.02-13.51,8.44-13.51,13.19,0,6,6.86,9.04,20.57,9.04,6.72,0,13.51-.46,20.22-1.25l.48,4.88c-6.99.73-13.92,1.12-20.7,1.12-8.84,0-15.36-1.12-19.54-3.3-4.32-2.24-6.44-5.67-6.44-10.35,0-6.33,4.66-11.8,14.05-16.49,1.1-.59,2.33-1.19,3.7-1.71-1.37-2.7-2.33-5.67-2.88-8.97-.69-3.5-1.1-8.24-1.23-14.31l5.28-.13c.14,6.4.62,11.34,1.37,14.77Z"/>
    <path d="M1780.19,398.64c-.96,4.42-1.99,8.71-3.08,12.93,1.23-.07,2.4-.07,3.56-.07,4.8,0,8.43,1.38,10.97,4.22,2.47,2.77,3.7,6.73,3.7,11.8,0,6.59-.75,11.87-2.19,15.96-2.19,6.2-6.03,9.36-11.45,9.36-3.29,0-6.92-.73-10.76-2.04l.75-4.68c3.7,1.32,7.06,1.98,9.94,1.98,3.5,0,5.9-2.84,7.27-8.38.75-3.3,1.17-7.39,1.17-12.2,0-7.65-3.22-11.47-9.53-11.47-1.51,0-3.08,0-4.73.13-4.11,14.11-9.26,26.45-15.29,37l-4.8-2.18c5.76-10.16,10.63-21.63,14.47-34.42-4.11.4-8.78.99-13.92,1.78l-.75-4.62c5.76-.92,11.11-1.58,16.04-1.91,1.23-4.62,2.4-9.3,3.43-14.18l5.21.99ZM1815.23,434.58l-4.87,1.65c-1.3-5.67-2.88-10.49-4.73-14.44-2.26-4.75-5.14-8.84-8.64-12.33l3.98-2.97c6.86,6.86,11.65,16.22,14.26,28.09Z"/>
    <path d="M1838.19,409.06c-.82,10.42-1.99,17.54-3.56,21.37,3.02-2.37,6.44-4.22,10.42-5.47,3.98-1.39,8.09-2.04,12.34-2.04,4.94,0,9.05,1.19,12.34,3.56,3.43,2.51,5.14,5.87,5.14,10.02,0,5.54-2.47,9.69-7.27,12.6-4.52,2.64-10.49,4.02-18.03,4.02-4.11,0-8.5-.2-13.03-.46l.27-4.81c4.52.33,8.78.53,12.75.53,6.51,0,11.52-1.05,14.95-3.17,3.43-2.11,5.14-5.01,5.14-8.71,0-2.51-1.1-4.62-3.22-6.33-2.33-1.85-5.35-2.7-9.05-2.7-4.66,0-8.91.73-12.82,2.18-3.91,1.45-7.88,3.76-11.93,7.06l-4.25-1.85c2.33-6.07,3.91-14.84,4.66-26.18l5.14.4ZM1850.6,400.29c6.92,1.52,12.07,2.9,15.36,4.15l-1.92,4.22c-3.15-1.19-8.02-2.44-14.6-3.89-6.03-1.32-10.97-2.18-14.81-2.57l1.1-4.55c3.7.4,8.64,1.25,14.88,2.64Z"/>
    <path d="M1952.21,395.14v4.42h-16.93v36.01h-5v-40.43h21.94Z"/>
    <path d="M2019.33,415.98l-34,6v25.92c0,1.39.62,2.11,1.85,2.11h29.34v4.62h-30.71c-3.7,0-5.55-1.91-5.55-5.61v-26.12l-22.08,3.89-.75-4.55,22.83-4.02v-22.16h5.07v21.24l33.25-5.87.75,4.55Z"/>
    <path d="M2037.56,411.1v-5.21h-10.97v-4.22h10.97v-5.74h4.52v5.74h10.56v4.22h-10.56v5.21h9.19v26.31h-9.19v5.21h10.76v4.22h-10.76v9.17h-4.52v-9.17h-11.11v-4.22h11.11v-5.21h-9.39v-26.31h9.39ZM2037.9,422.31v-7.25h-5.55v7.25h5.55ZM2037.9,426.01h-5.55v7.45h5.55v-7.45ZM2041.74,422.31h5.48v-7.25h-5.48v7.25ZM2047.23,426.01h-5.48v7.45h5.48v-7.45ZM2087.88,419.08v4.62h-17.83c-2.33,10.02-4.8,18-7.4,23.81,6.31-.86,12.34-1.91,18.1-3.23-1.58-4.62-3.29-9.04-5.21-13.32l4.32-1.32c3.29,7.06,6.17,15.17,8.71,24.33l-4.59,1.12c-.62-2.24-1.23-4.42-1.85-6.53-5.62,1.32-14.47,2.84-26.53,4.62l-1.23-4.48c1.65-.26,2.67-.99,3.22-2.04,2.74-5.41,5.28-13.06,7.61-22.95h-10.76v-4.62h33.46ZM2084.8,400.81v4.62h-27.7v-4.62h27.7Z"/>
    <path d="M2146.5,414.4c3.08,3.69,6.92,7.06,11.52,10.09l-3.08,4.15c-5.28-3.56-9.46-7.85-12.48-12.73.62,1.85,1.17,4.02,1.58,6.46.41,2.31.62,4.35.62,6.2,0,7.39-1.78,13.19-5.28,17.48-3.98,4.68-9.73,7.06-17.28,7.06-6.51,0-11.72-1.71-15.56-5.14-3.91-3.56-5.83-8.38-5.83-14.44,0-3.69.89-7.65,2.67-11.8,1.92-4.55,4.66-8.9,8.36-12.99-2.61,1.19-5.55,2.18-8.78,2.9-3.15.59-6.24.92-9.39.92v-4.81c8.64-.2,16.04-1.85,22.28-4.95l3.36,3.23c-5.07,6.13-8.64,11.54-10.69,16.22-1.71,3.83-2.54,7.58-2.54,11.28,0,4.68,1.44,8.31,4.32,10.95,2.88,2.51,6.79,3.83,11.79,3.83,5.76,0,10.15-1.85,13.16-5.41,2.81-3.43,4.25-8.18,4.25-14.38,0-7.98-1.78-16.42-5.35-25.32l4.94-1.71c1.65,4.62,4.11,8.97,7.4,12.93ZM2152.12,407.21l-2.95,1.98c-2.06-3.3-4.46-6.2-7.2-8.84l2.81-2.04c2.88,2.7,5.35,5.67,7.34,8.9ZM2159.05,402.73l-2.95,2.11c-2.13-3.36-4.52-6.33-7.2-8.9l2.74-2.04c3.02,2.84,5.48,5.8,7.4,8.84Z"/>
    <path d="M2187.64,401.47c-3.84,23.08-10.9,40.89-21.12,53.55l-3.22-3.89c9.6-12.46,16.11-29.28,19.47-50.45l4.87.79ZM2225.27,450.94l-2.6,4.35c-13.57-11.74-21.39-30.27-23.45-55.73l4.59-1.38c1.58,23.61,8.71,41.15,21.46,52.76Z"/>
    <path d="M2250.78,395.6v8.97h10.76v4.35h-10.76v9.7h11.65v4.35h-10.35v9.3h9.73v4.35h-9.73v12.46c4.32,1.05,12.48,1.65,24.48,1.65,7.95,0,13.85-.13,17.76-.33l-.82,4.62h-15.84c-15.77,0-25.64-.92-29.62-2.7-3.43-1.58-6.44-4.29-9.05-8.18-1.03,4.35-2.4,8.38-4.11,12.13l-3.77-3.23c3.43-7.65,5.28-16.29,5.69-25.85l4.39.46c-.14,3.89-.55,7.58-1.1,11.15,2.19,3.69,4.59,6.46,7.27,8.18v-24h-14.19v-4.35h12.68v-9.7h-11.38v-4.35h11.38v-8.97h4.94ZM2289.65,421.72h-18.65v15.63c0,1.58.96,2.44,3.02,2.44h9.73c1.58-.07,2.67-.73,3.29-1.98.48-1.05.89-3.63,1.17-7.78l4.66,1.45c-.41,4.02-.89,6.92-1.51,8.64-1.03,2.64-3.09,4.02-6.17,4.15h-13.03c-4.04,0-6.03-1.78-6.03-5.28v-38.91h23.52v21.63ZM2284.92,417.37v-12.99h-13.92v12.99h13.92Z"/>
    <path d="M2353.41,407.81c-6.65.86-13.23,1.52-19.68,2.04,1.37,2.51,2.74,4.95,4.18,7.25,6.65-.66,13.23-1.38,19.74-2.31l.89,4.48c-5.83.86-11.79,1.58-17.82,2.18,3.29,4.75,6.65,8.97,10.21,12.6l-3.08,3.36c-3.36-1.71-6.72-3.03-10.08-3.96-3.77-1.12-7.2-1.65-10.35-1.65-4.66,0-8.16.73-10.49,2.18-2.4,1.38-3.56,3.36-3.56,5.87,0,2.37,1.37,4.35,4.25,5.8,3.29,1.71,8.3,2.57,15.01,2.57,5.28,0,10.08-.4,14.4-1.05l.34,4.48c-3.91.66-8.84,1.05-14.74,1.05-7.82,0-13.85-1.12-17.96-3.23-4.39-2.24-6.51-5.47-6.51-9.63s1.51-6.92,4.66-8.97c3.22-2.18,8.02-3.23,14.47-3.23,4.8,0,9.94,1.19,15.43,3.69-2.47-2.24-5-5.34-7.68-9.43-9.94.73-20.22,1.12-30.85,1.19v-4.48c9.46-.07,18.85-.4,28.18-1.06-1.37-2.24-2.67-4.68-4.04-7.32-7.27.46-14.33.73-21.32.79v-4.48c6.1,0,12.48-.26,19.06-.66-1.23-2.37-2.4-4.81-3.56-7.39l4.8-1.91c1.37,3.1,2.74,6.07,4.18,8.9,6.72-.53,13.78-1.32,21.05-2.24l.89,4.55Z"/>
    <path d="M2389.61,416.31v40.43h-21.94v-4.42h16.93v-36.01h5Z"/>
    <path d="M2489.15,410.38c4.94,4.48,7.47,10.02,7.47,16.62,0,7.39-2.33,13.12-6.86,17.34-4.11,3.83-10.56,6.59-19.26,8.31l-1.71-4.48c8.16-1.52,14.05-4.09,17.69-7.65,3.29-3.3,5-7.85,5-13.52s-2.13-10.02-6.38-13.58c-3.84-3.23-8.36-5.01-13.57-5.28l-1.44,12.27c-1.03,6.79-2.47,12.33-4.32,16.62-3.02,7.39-7.06,11.08-12,11.08-3.98,0-7.27-1.71-9.8-5.14-2.47-3.3-3.63-7.39-3.63-12.13,0-7.39,2.6-13.65,7.82-18.86,5.55-5.67,12.82-8.44,21.8-8.44,7.68,0,14.05,2.24,19.2,6.86ZM2463.58,427.59c1.37-5.87,2.4-12.33,2.95-19.32-5.42.53-10.08,2.64-13.92,6.2-4.8,4.35-7.13,9.83-7.13,16.36,0,3.69.82,6.73,2.47,9.17,1.51,2.37,3.5,3.56,5.83,3.56,3.98,0,7.27-5.34,9.8-15.96Z"/>
    <path d="M2559.49,401.28c-5.14,5.41-11.38,10.68-18.65,15.89v35.81h-5.35v-32.18c-8.09,5.21-16.04,9.43-23.93,12.66l-2.81-4.35c8.09-3.3,16.52-7.98,25.43-13.92,8.71-5.94,15.77-11.67,21.25-17.28l4.04,3.36Z"/>
    <path d="M2609.47,421.92c3.43-6.33,6.44-13.85,9.05-22.55l5.35,1.25c-2.74,9.36-5.96,17.41-9.8,24.27,6.86,4.55,13.51,9.89,19.95,16.03l-3.7,3.69c-6.31-5.8-12.68-10.88-18.99-15.23-.55.73-1.03,1.45-1.51,2.18-6.72,9.36-15.49,16.55-26.26,21.56l-3.43-4.09c10.42-4.75,18.79-11.54,25.16-20.38.48-.73.96-1.45,1.51-2.24-6.38-3.96-13.23-7.52-20.5-10.55l2.4-4.55c7.4,3.17,14.33,6.66,20.77,10.62Z"/>
    <path d="M2699.63,423.44v4.81h-50.94v-4.81h50.94Z"/>
    <path d="M2737.95,423.11l-2.74,4.35c-5.83-3.17-12.34-5.74-19.61-7.58l2.19-4.62c6.72,1.58,13.44,4.22,20.16,7.85ZM2769.76,414.93c-4.04,9.1-10.01,16.95-17.89,23.68-8.57,7.25-18.44,12.27-29.55,14.9l-2.47-4.75c10.42-2.51,19.68-7.06,27.9-13.78,7.68-6.33,13.3-13.58,17-21.89l5,1.85ZM2744.05,408.47l-2.88,4.02c-5.07-3.1-11.59-5.67-19.54-7.72l2.19-4.62c7.88,2.04,14.6,4.81,20.22,8.31ZM2765.44,408.07l-2.88,1.98c-2.06-3.3-4.52-6.2-7.27-8.84l2.81-2.04c2.88,2.7,5.35,5.67,7.34,8.9ZM2772.3,403.45l-3.02,2.04c-2.06-3.3-4.46-6.27-7.13-8.84l2.74-2.04c3.02,2.84,5.48,5.8,7.4,8.84Z"/>
    <path d="M2808.57,398.64c-.96,4.42-1.99,8.71-3.08,12.93,1.23-.07,2.4-.07,3.56-.07,4.8,0,8.43,1.38,10.97,4.22,2.47,2.77,3.7,6.73,3.7,11.8,0,6.59-.75,11.87-2.19,15.96-2.19,6.2-6.03,9.36-11.45,9.36-3.29,0-6.92-.73-10.76-2.04l.75-4.68c3.7,1.32,7.06,1.98,9.94,1.98,3.5,0,5.9-2.84,7.27-8.38.75-3.3,1.17-7.39,1.17-12.2,0-7.65-3.22-11.47-9.53-11.47-1.51,0-3.08,0-4.73.13-4.11,14.11-9.26,26.45-15.29,37l-4.8-2.18c5.76-10.16,10.63-21.63,14.47-34.42-4.11.4-8.78.99-13.92,1.78l-.75-4.62c5.76-.92,11.11-1.58,16.04-1.91,1.23-4.62,2.4-9.3,3.43-14.18l5.21.99ZM2843.6,434.58l-4.87,1.65c-1.3-5.67-2.88-10.49-4.73-14.44-2.26-4.75-5.14-8.84-8.64-12.33l3.98-2.97c6.86,6.86,11.65,16.22,14.26,28.09ZM2837.36,405.96l-2.88,1.98c-2.06-3.3-4.46-6.2-7.2-8.84l2.74-2.11c2.95,2.77,5.42,5.74,7.34,8.97ZM2844.83,402.66l-2.95,2.04c-2.06-3.3-4.46-6.26-7.13-8.84l2.67-2.04c3.02,2.84,5.48,5.8,7.4,8.84Z"/>
    <path d="M2906.19,408.07c-8.3.46-18.51.79-30.71,1.05-.27,2.77-.48,5.61-.55,8.51,3.15-.73,6.58-1.06,10.22-1.06,1.17,0,2.33,0,3.5.13.27-1.19.62-2.44.96-3.69l4.66.99c-.34,1.19-.69,2.37-.96,3.56,2.54.66,4.87,1.71,7.06,3.17,4.87,3.23,7.34,7.65,7.34,13.19,0,5.87-2.06,10.42-6.17,13.72-3.84,3.03-9.53,5.01-17.07,6l-1.71-4.09c6.44-.79,11.38-2.44,14.74-4.95,3.5-2.7,5.28-6.27,5.28-10.68s-1.99-7.65-5.96-10.02c-1.51-.92-3.08-1.58-4.8-2.04-2.06,6-4.59,11.21-7.54,15.7-6.03,8.84-13.3,13.32-21.87,13.32-3.36,0-5.96-1.05-7.82-3.03-1.92-1.98-2.81-4.62-2.81-8.05,0-6.13,3.08-11.47,9.26-16.03,2.6-1.98,5.55-3.56,8.71-4.68.07-3.36.27-6.66.62-9.89-5.48,0-11.31.07-17.48.07l-.07-4.42c6.44,0,12.41-.07,18.03-.07.34-2.77.82-5.54,1.37-8.24l4.87,1.05c-.48,2.31-.89,4.68-1.23,7.12,12.2-.2,22.14-.53,29.89-.99l.27,4.35ZM2864.58,427.06c-5.21,3.76-7.75,7.98-7.75,12.73,0,4.48,1.92,6.73,5.76,6.73,3.29,0,6.38-.92,9.26-2.7-1.3-5.8-1.99-12.46-1.99-19.85-1.92.79-3.63,1.85-5.28,3.1ZM2885.15,420.93c-3.7,0-7.2.4-10.35,1.25v.92c0,6.46.41,12.2,1.37,17.21,1.37-1.45,2.74-3.17,4.11-5.08,2.74-4.09,5.07-8.84,6.99-14.24-.69-.07-1.44-.07-2.12-.07Z"/>
    <path d="M2965.56,403.98c-7.27,5.8-15.77,12.66-25.5,20.71,5.35-3.03,10.42-4.48,15.22-4.48,5.69,0,10.15,1.32,13.37,3.96,3.15,2.64,4.73,6.2,4.73,10.82,0,5.14-2.4,9.3-7.06,12.46-4.8,3.17-10.76,4.75-17.89,4.75-4.66,0-8.36-.86-11.11-2.57-2.74-1.78-4.04-4.09-4.04-6.99,0-2.64.96-4.81,2.95-6.53,2.06-1.91,4.8-2.84,8.23-2.84,4.66,0,8.3,1.39,10.97,4.29,1.99,2.04,3.43,4.81,4.25,8.24l1.71-.86c4.59-2.51,6.92-5.87,6.92-9.96,0-3.5-1.3-6.13-3.77-7.91-2.33-1.65-5.55-2.44-9.8-2.44-4.87,0-9.94,1.19-15.29,3.56-4.59,2.11-8.84,4.81-12.68,8.18l-3.29-3.36,33.59-28.09-28.25,1.32-.27-4.62,34.14-1.05,2.88,3.43ZM2954.66,445.99c-1.58-5.61-5-8.38-10.21-8.38-1.92,0-3.43.46-4.52,1.45-1.17.92-1.71,2.11-1.71,3.5s.69,2.57,2.19,3.56c1.78,1.19,4.46,1.78,8.02,1.78,2.33,0,4.46-.26,6.51-.66-.14-.53-.21-.92-.27-1.25Z"/>
    <path d="M3024.25,410.64c-4.94.59-10.7,1.06-17.28,1.45-.96,4.75-2.06,9.43-3.15,13.92-2.61,10.35-5.48,19.26-8.64,26.71l-5-1.65c3.15-7.32,6.03-16.03,8.64-26.18.96-4.09,1.92-8.31,2.81-12.53-4.18.13-8.64.26-13.37.33l-.21-4.68c5.07,0,9.87-.13,14.47-.26.69-3.69,1.3-7.39,1.85-11.15l5.28.66c-.55,3.43-1.17,6.86-1.78,10.22,5.62-.33,10.76-.79,15.56-1.38l.82,4.55ZM3019.31,434.84c-2.19,2.9-3.29,5.34-3.29,7.45,0,1.71,1.3,3.1,3.98,4.02,2.47.86,5.9,1.32,10.42,1.32,5.07,0,9.74-.4,13.85-1.19l.14,4.68c-3.98.66-8.64,1.06-13.99,1.06-13.09,0-19.61-3.17-19.61-9.43,0-3.3,1.3-6.66,4.04-10.22l4.46,2.31ZM3043.51,421.52c-9.67,0-19.47.4-29.48,1.25l-.27-4.75c10.01-.79,19.88-1.19,29.75-1.19v4.68Z"/>
    <path d="M3093.7,398.57c-.14,3.43-.41,6.66-.75,9.76,5.35.53,9.87,2.24,13.57,5.14,4.94,3.89,7.4,9.3,7.4,16.16s-2.61,12.27-7.82,16.49c-4.66,3.76-10.83,6.2-18.65,7.39l-1.85-4.42c7.2-1.06,12.82-3.23,16.93-6.46,4.25-3.43,6.38-7.72,6.38-12.99,0-5.54-1.99-9.83-5.9-12.86-2.88-2.24-6.38-3.56-10.63-3.96-.96,6.59-2.47,12.53-4.39,17.67-4.59,12.07-11.45,18.14-20.57,18.14-3.29,0-5.96-1.12-7.95-3.23-2.12-2.24-3.15-5.21-3.15-9.04,0-7.58,3.36-14.18,10.08-19.78.48-.46,1.03-.86,1.58-1.25-.69-4.22-1.1-8.57-1.23-13.12l5-.4c.07,3.56.34,7.06.82,10.49,4.66-2.64,9.8-4.02,15.43-4.16.34-3.23.55-6.53.69-9.96l5,.4ZM3069.84,423.9c-.34-1.12-.62-2.24-.82-3.3-5.14,4.62-7.68,9.89-7.68,15.76,0,2.31.62,4.22,1.85,5.67,1.17,1.32,2.61,2.04,4.39,2.04,3.43,0,6.51-1.39,9.26-4.16-2.95-4.62-5.28-9.96-6.99-16.03ZM3073.41,417.24c.27,1.58.62,3.1,1.03,4.62,1.37,5.34,3.22,10.02,5.55,13.98,1.37-2.31,2.6-5.08,3.77-8.31,1.65-4.62,2.88-9.56,3.7-14.84-5.07.2-9.8,1.71-14.05,4.55Z"/>
    <path d="M365.64,516.68c-5.14,5.41-11.38,10.68-18.65,15.89v35.81h-5.35v-32.18c-8.09,5.21-16.04,9.43-23.93,12.66l-2.81-4.35c8.09-3.3,16.52-7.98,25.43-13.92,8.71-5.94,15.77-11.67,21.25-17.28l4.04,3.36Z"/>
    <path d="M411.02,514.31c-.82,2.24-1.71,4.48-2.81,6.73h23.31l3.29,1.78c-1.78,10.35-5.83,19.52-12.27,27.57-6.79,8.38-15.43,14.58-25.85,18.53l-2.88-4.42c9.32-3.56,17.07-8.77,23.24-15.63.21-.26.41-.46.62-.73-1.92-1.32-4.04-2.7-6.24-4.09-3.7-2.31-7.13-4.22-10.22-5.67l3.15-3.69c3.15,1.58,6.58,3.43,10.15,5.54,2.26,1.32,4.32,2.64,6.24,3.96,3.84-5.54,6.58-11.61,8.09-18.33h-23.31c-1.1,1.85-2.33,3.63-3.63,5.41-3.84,5.08-8.16,9.5-13.09,13.26l-3.63-3.43c4.8-3.82,9.05-8.18,12.75-13.06,3.63-5.01,6.31-10.09,8.09-15.23l5,1.52Z"/>
    <path d="M466.49,517.47v31.72h-5.42v-31.72h5.42ZM499.46,516.09v21.7c0,8.31-1.99,15.04-5.9,20.05-4.18,5.34-10.76,9.1-19.81,11.34l-2.47-4.55c8.43-2.04,14.47-5.47,18.1-10.22,3.15-4.16,4.73-9.83,4.73-16.95v-21.37h5.35Z"/>
    <path d="M573.57,517.87l2.81,2.44c-2.54,4.75-5.21,8.9-8.02,12.46-3.29,4.02-7.06,7.65-11.31,10.88l-3.77-3.63c7.13-5.41,12.34-11.15,15.7-17.34h-45.59v-4.81h50.18ZM550.54,529.41v9.04c0,7.25-1.44,13.26-4.18,18.14-3.02,5.21-7.75,9.3-14.26,12.33l-3.36-4.09c5.76-2.7,10.01-6.07,12.61-10.16,2.54-4.09,3.84-9.5,3.84-16.22v-9.04h5.35Z"/>
    <path d="M597.09,519.65c-1.17-2.64-2.61-5.14-4.25-7.52l4.66-1.32c1.71,2.9,3.02,5.54,3.91,7.91l-2.47.92h9.8v4.35h-22.08v-4.35h10.42ZM593.32,571.61h-4.59v-23.21h18.44v22.22h-4.46v-3.03h-9.39v4.02ZM606.55,529.21v4.15h-17.35v-4.15h17.35ZM606.55,538.51v4.22h-17.35v-4.22h17.35ZM602.71,552.62h-9.39v10.62h9.39v-10.62ZM646.59,513.78v4.29h-17.76l-1.51,7.45h15.97v12.99h5.21v4.35h-37.64v-4.35h9.19l1.78-8.84h-8.23v-4.15h9.12l1.51-7.45h-12.89v-4.29h35.24ZM644.33,571.81h-4.59v-3.03h-20.7v3.03h-4.66v-22.75h29.96v22.75ZM639.73,564.49v-11.21h-20.7v11.21h20.7ZM638.7,538.51v-8.84h-12.27l-1.78,8.84h14.05Z"/>
    <path d="M706.64,525.78c4.94,4.48,7.47,10.02,7.47,16.62,0,7.39-2.33,13.12-6.86,17.34-4.11,3.83-10.56,6.59-19.26,8.31l-1.71-4.48c8.16-1.52,14.05-4.09,17.69-7.65,3.29-3.3,5-7.85,5-13.52s-2.13-10.02-6.38-13.58c-3.84-3.23-8.36-5.01-13.57-5.28l-1.44,12.27c-1.03,6.79-2.47,12.33-4.32,16.62-3.02,7.39-7.06,11.08-12,11.08-3.98,0-7.27-1.71-9.8-5.14-2.47-3.3-3.63-7.39-3.63-12.13,0-7.39,2.61-13.65,7.82-18.86,5.55-5.67,12.82-8.44,21.8-8.44,7.68,0,14.05,2.24,19.2,6.86ZM681.07,542.99c1.37-5.87,2.4-12.33,2.95-19.32-5.42.53-10.08,2.64-13.92,6.2-4.8,4.35-7.13,9.83-7.13,16.36,0,3.69.82,6.73,2.47,9.17,1.51,2.37,3.5,3.56,5.83,3.56,3.98,0,7.27-5.34,9.8-15.96Z"/>
    <path d="M754.7,518v4.42l-18.03,42.67h-5.96l18.24-42.14h-26.39v-4.95h32.15Z"/>
    <path d="M824.22,510.55v4.42h-16.93v36.01h-5v-40.43h21.94Z"/>
    <path d="M857.61,540.69h-5.35c-.48-2.11-1.37-3.69-2.74-4.62-1.51-1.05-3.7-1.58-6.51-1.58-2.47,0-4.39.4-5.76,1.32-1.51.86-2.26,2.04-2.26,3.56s.96,2.7,3.02,3.69c1.3.59,3.77,1.32,7.34,2.24,4.25.99,7.27,2.04,9.12,3.17,2.81,1.71,4.25,4.02,4.25,6.99,0,6.99-5,10.55-15.01,10.55-9.32,0-14.4-3.96-15.22-11.8h5.35c.41,2.7,1.44,4.62,2.95,5.8,1.51,1.05,3.77,1.58,6.79,1.58,6.31,0,9.53-1.98,9.53-5.8,0-1.91-1.17-3.36-3.36-4.42-1.17-.53-3.7-1.25-7.54-2.18-4.18-.99-7.13-1.98-8.78-3.03-2.74-1.58-4.04-3.76-4.04-6.66s1.3-5.14,3.98-6.86c2.47-1.71,5.76-2.57,9.73-2.57,8.78,0,13.57,3.5,14.53,10.62Z"/>
    <path d="M892.64,535.61c2.6,3.3,3.98,7.98,4.11,13.92h-27.97c.27,3.83,1.3,6.79,3.22,8.9,1.92,2.11,4.59,3.17,7.95,3.17,2.88,0,5.28-.73,7.06-2.11,1.51-1.19,2.67-2.97,3.56-5.34h5.48c-.82,3.3-2.4,5.93-4.8,8.04-2.95,2.51-6.72,3.83-11.31,3.83-5.07,0-9.19-1.65-12.2-4.81-3.15-3.3-4.66-7.65-4.66-13.19,0-5.01,1.44-9.23,4.46-12.6,3.02-3.56,7.06-5.34,12.2-5.34,5.69,0,10.01,1.85,12.89,5.54ZM872.28,537.45c-1.92,1.98-3.02,4.62-3.36,7.98h22.14c-.69-7.32-4.46-10.95-11.17-10.95-3.15,0-5.69.99-7.61,2.97Z"/>
    <path d="M912.66,530.99h8.78v4.42h-8.78v21.7c0,1.25.21,2.18.75,2.7.48.53,1.37.86,2.6.86h4.52v4.42h-5.35c-2.88,0-5-.73-6.24-2.18-1.17-1.32-1.71-3.23-1.71-5.8v-21.7h-7.13v-4.42h7.13v-8.84l5.42-2.18v11.01Z"/>
    <path d="M937,530.99h8.78v4.42h-8.78v21.7c0,1.25.21,2.18.75,2.7.48.53,1.37.86,2.6.86h4.52v4.42h-5.35c-2.88,0-5-.73-6.24-2.18-1.17-1.32-1.71-3.23-1.71-5.8v-21.7h-7.13v-4.42h7.13v-8.84l5.42-2.18v11.01Z"/>
    <path d="M979.37,535.61c2.61,3.3,3.98,7.98,4.11,13.92h-27.97c.27,3.83,1.3,6.79,3.22,8.9s4.59,3.17,7.95,3.17c2.88,0,5.28-.73,7.06-2.11,1.51-1.19,2.67-2.97,3.56-5.34h5.48c-.82,3.3-2.4,5.93-4.8,8.04-2.95,2.51-6.72,3.83-11.31,3.83-5.07,0-9.19-1.65-12.2-4.81-3.15-3.3-4.66-7.65-4.66-13.19,0-5.01,1.44-9.23,4.46-12.6,3.02-3.56,7.06-5.34,12.2-5.34,5.69,0,10.01,1.85,12.89,5.54ZM959,537.45c-1.92,1.98-3.02,4.62-3.36,7.98h22.14c-.69-7.32-4.46-10.95-11.17-10.95-3.15,0-5.69.99-7.61,2.97Z"/>
    <path d="M1004.53,510.55c-2.81,4.35-5,8.9-6.51,13.65-2.06,5.8-3.02,11.48-3.02,17.15s.96,11.34,3.02,17.15c1.51,4.68,3.7,9.23,6.51,13.65h-4.8c-3.02-4.29-5.35-8.84-7.06-13.59-2.06-5.67-3.02-11.41-3.02-17.15s.96-11.61,3.02-17.28c1.71-4.81,4.04-9.37,7.06-13.59h4.8Z"/>
    <path d="M1035.79,513.45l-.27,17.15,32.15-4.48,3.56,2.51c-5.48,9.36-12.13,17.08-19.81,23.21l-3.56-3.76c5.9-4.68,11.04-10.29,15.43-16.75l-27.83,4.02c-.14,7.78-.14,14.9-.14,21.24,0,2.57.96,4.29,2.88,5.21,1.78.79,5.35,1.25,10.56,1.25,6.24,0,13.03-.4,20.36-1.19l-.07,4.81c-7.95.72-14.67,1.12-20.29,1.12-7.13,0-12-.66-14.47-1.98-2.95-1.52-4.39-4.55-4.39-9.04,0-6.2,0-13.12.14-20.64l-14.6,2.11-.89-4.75,15.56-2.18c.07-5.67.21-11.61.34-17.87h5.35Z"/>
    <path d="M1103.04,546.29l-4.25,2.51c-2.67-4.88-5.55-9.5-8.71-13.85l4.32-2.51c3.43,4.88,6.31,9.5,8.64,13.85ZM1132.45,531.19c-1.78,9.3-4.87,16.95-9.32,22.88-4.87,6.27-11.65,11.01-20.29,14.25l-2.88-4.09c8.09-3.1,14.33-7.39,18.72-12.93,4.11-5.28,6.99-12.27,8.64-20.97l5.14.86ZM1111.13,535.67c1.51,2.24,2.81,4.55,4.04,6.79l-4.32,2.44c-2.26-4.15-5.14-8.84-8.71-13.98l4.25-2.38c1.85,2.7,3.43,5.08,4.73,7.12Z"/>
    <path d="M1207.66,533.83v4.75h-24.75c-.34,7.06-1.78,12.79-4.25,17.21-2.95,5.14-8.09,9.63-15.43,13.58l-3.56-3.83c6.58-3.43,11.24-7.39,13.92-11.8,2.33-3.82,3.63-8.9,3.91-15.17h-26.19v-4.75h56.35ZM1199.98,517.67v4.75h-42.71v-4.75h42.71Z"/>
    <path d="M1222.95,510.55c2.95,4.22,5.28,8.77,7.06,13.59,1.99,5.67,3.02,11.41,3.02,17.28s-1.03,11.47-3.02,17.15c-1.78,4.75-4.11,9.3-7.06,13.59h-4.8c2.74-4.42,4.94-8.97,6.51-13.65,1.99-5.8,3.02-11.54,3.02-17.15s-1.03-11.34-3.02-17.15c-1.58-4.75-3.77-9.3-6.51-13.65h4.8Z"/>
    <path d="M1261,531.72v40.43h-21.94v-4.42h16.93v-36.01h5Z"/>
    <path d="M1336.83,527.36c.48,2.37,1.3,4.62,2.4,6.73,5.42-1.98,12.2-3.96,20.29-6l1.92,4.48c-11.24,2.77-19.95,5.54-25.98,8.31-9.05,4.02-13.51,8.44-13.51,13.19,0,6,6.86,9.04,20.57,9.04,6.72,0,13.51-.46,20.22-1.25l.48,4.88c-6.99.73-13.92,1.12-20.7,1.12-8.84,0-15.36-1.12-19.54-3.3-4.32-2.24-6.44-5.67-6.44-10.35,0-6.33,4.66-11.8,14.05-16.49,1.1-.59,2.33-1.19,3.7-1.71-1.37-2.7-2.33-5.67-2.88-8.97-.69-3.5-1.1-8.24-1.23-14.31l5.28-.13c.14,6.4.62,11.34,1.37,14.77Z"/>
    <path d="M1386.94,559.08c.89,1.19,1.37,2.7,1.37,4.62,0,2.9-.89,5.47-2.67,7.72-1.78,2.11-4.18,3.56-7.13,4.29v-3.23c1.78-.59,3.29-1.58,4.39-2.9.96-1.38,1.51-2.84,1.51-4.42-.34.13-.82.26-1.51.26-1.17,0-2.13-.4-2.95-1.19-.82-.79-1.23-1.78-1.23-2.9,0-1.25.41-2.24,1.3-2.97.75-.79,1.78-1.12,3.15-1.12,1.51,0,2.81.59,3.77,1.85Z"/>
    <path d="M1448.99,516.68c-5.14,5.41-11.38,10.68-18.65,15.89v35.81h-5.35v-32.18c-8.09,5.21-16.04,9.43-23.93,12.66l-2.81-4.35c8.09-3.3,16.52-7.98,25.43-13.92,8.71-5.94,15.77-11.67,21.25-17.28l4.04,3.36Z"/>
    <path d="M1494.37,514.31c-.82,2.24-1.71,4.48-2.81,6.73h23.31l3.29,1.78c-1.78,10.35-5.83,19.52-12.27,27.57-6.79,8.38-15.43,14.58-25.85,18.53l-2.88-4.42c9.32-3.56,17.07-8.77,23.24-15.63.21-.26.41-.46.62-.73-1.92-1.32-4.04-2.7-6.24-4.09-3.7-2.31-7.13-4.22-10.22-5.67l3.15-3.69c3.15,1.58,6.58,3.43,10.15,5.54,2.26,1.32,4.32,2.64,6.24,3.96,3.84-5.54,6.58-11.61,8.09-18.33h-23.31c-1.1,1.85-2.33,3.63-3.63,5.41-3.84,5.08-8.16,9.5-13.09,13.26l-3.63-3.43c4.8-3.82,9.05-8.18,12.75-13.06,3.63-5.01,6.31-10.09,8.09-15.23l5,1.52Z"/>
    <path d="M1549.83,517.47v31.72h-5.42v-31.72h5.42ZM1582.81,516.09v21.7c0,8.31-1.99,15.04-5.9,20.05-4.18,5.34-10.76,9.1-19.81,11.34l-2.47-4.55c8.43-2.04,14.47-5.47,18.1-10.22,3.15-4.16,4.73-9.83,4.73-16.95v-21.37h5.35Z"/>
    <path d="M1656.92,517.87l2.81,2.44c-2.54,4.75-5.21,8.9-8.02,12.46-3.29,4.02-7.06,7.65-11.31,10.88l-3.77-3.63c7.13-5.41,12.34-11.15,15.7-17.34h-45.59v-4.81h50.18ZM1633.89,529.41v9.04c0,7.25-1.44,13.26-4.18,18.14-3.02,5.21-7.75,9.3-14.26,12.33l-3.36-4.09c5.76-2.7,10.01-6.07,12.61-10.16,2.54-4.09,3.84-9.5,3.84-16.22v-9.04h5.35Z"/>
    <path d="M1727.88,522.68l-12.34.53c-2.06,0-4.73,1.19-7.88,3.56-3.43,2.51-6.31,5.47-8.57,8.9-2.67,3.96-3.98,7.98-3.98,12,0,4.62,2.06,8.31,6.24,11.01,4.46,2.77,10.97,4.29,19.61,4.55l-.96,4.55c-10.01-.13-17.62-1.98-22.76-5.54-4.94-3.36-7.4-8.11-7.4-14.25,0-5.28,1.78-10.29,5.42-14.9,2.95-3.96,6.72-7.19,11.38-9.69-10.15.79-21.25,1.71-33.18,2.9l-.69-4.68c21.94-2.04,40.24-3.17,54.98-3.36l.14,4.42ZM1723.49,541.08l-2.95,1.98c-2.06-3.3-4.46-6.2-7.2-8.84l2.74-2.11c2.95,2.77,5.42,5.74,7.4,8.97ZM1730.07,536.53l-2.95,2.04c-2.06-3.3-4.46-6.26-7.13-8.84l2.67-2.04c3.02,2.83,5.48,5.8,7.4,8.84Z"/>
    <path d="M1745.02,555.46c-.41,5.67-1.44,10.75-2.95,15.1l-4.25-1.25c1.65-4.16,2.6-8.9,3.02-14.31l4.18.46ZM1762.5,550.25l-3.91.99c-.34-1.32-.69-2.64-1.1-3.89-5.96,1.78-11.72,2.97-17.28,3.63l-1.23-4.15c.82-.33,1.51-.73,2.12-1.25,2.33-2.38,5.21-6.27,8.64-11.67-3.43.66-6.92,1.25-10.35,1.78l-1.17-4.22c.75-.33,1.44-.92,1.99-1.71,3.43-5.47,6.31-11.74,8.78-18.79l4.46,1.71c-3.22,7.72-6.44,13.85-9.73,18.47,2.88-.33,5.69-.79,8.5-1.32,1.51-2.64,3.08-5.47,4.73-8.44l4.25,1.52c-6.31,11.08-11.45,18.86-15.43,23.35,3.56-.66,7.06-1.45,10.56-2.44-.69-1.98-1.37-3.96-2.19-5.8l3.7-1.12c1.71,3.89,3.29,8.38,4.66,13.39ZM1754.69,567.86l-4.25.99c-.62-5.14-1.37-9.63-2.19-13.58l3.91-.79c.89,4.09,1.71,8.57,2.54,13.39ZM1763.33,564.36l-4.04.99c-.96-4.02-2.26-7.85-3.77-11.54l3.63-1.12c1.51,3.43,2.95,7.32,4.18,11.67ZM1788.55,531.45v-4.81h-21.66v-3.96h21.66v-4.88h-22.49v-4.22h27.08v17.87h6.58v4.22h-17.41c-.55.59-1.03,1.19-1.58,1.71,2.19,2.37,3.77,5.41,4.87,9.1,3.29-1.91,6.44-4.75,9.46-8.57l3.22,3.1c-2.81,3.43-5.9,6.13-9.32,8.11,2.54,5.87,6.65,10.55,12.27,14.11l-3.29,3.76c-4.94-3.96-8.64-8.77-11.11-14.44.21,2.04.34,4.15.34,6.4,0,4.81-.96,8.18-2.88,10.09-1.37,1.12-3.5,1.71-6.24,1.71-1.99,0-3.56-.07-4.8-.13l-1.3-4.22c1.51.2,3.15.33,4.94.33,2.06,0,3.5-.46,4.32-1.25.96-1.12,1.51-3.43,1.58-6.86,0-1.38-.07-2.64-.14-3.83-4.46,4.81-10.28,8.77-17.41,11.94l-2.4-4.02c8.3-3.3,14.67-7.52,19.2-12.73-.34-1.45-.69-2.7-1.1-3.83-3.77,3.96-8.71,7.19-14.81,9.69l-2.19-3.69c6.51-2.51,11.65-5.61,15.36-9.43-.62-.99-1.23-1.85-1.92-2.57-3.15,2.18-7.13,4.15-11.79,5.94l-2.4-3.63c6.44-2.04,11.17-4.29,14.12-6.79h-15.77v-4.22h27.01Z"/>
    <path d="M1825.85,511.01v8.97h10.76v4.35h-10.76v9.7h11.65v4.35h-10.35v9.3h9.73v4.35h-9.73v12.46c4.32,1.05,12.48,1.65,24.48,1.65,7.95,0,13.85-.13,17.76-.33l-.82,4.62h-15.84c-15.77,0-25.64-.92-29.62-2.7-3.43-1.58-6.44-4.29-9.05-8.18-1.03,4.35-2.4,8.38-4.11,12.13l-3.77-3.23c3.43-7.65,5.28-16.29,5.69-25.85l4.39.46c-.14,3.89-.55,7.58-1.1,11.15,2.19,3.69,4.59,6.46,7.27,8.18v-24h-14.19v-4.35h12.68v-9.7h-11.38v-4.35h11.38v-8.97h4.94ZM1864.72,537.12h-18.65v15.63c0,1.58.96,2.44,3.02,2.44h9.73c1.58-.07,2.67-.73,3.29-1.98.48-1.05.89-3.63,1.17-7.78l4.66,1.45c-.41,4.02-.89,6.92-1.51,8.64-1.03,2.64-3.09,4.02-6.17,4.15h-13.03c-4.04,0-6.03-1.78-6.03-5.28v-38.91h23.52v21.63ZM1859.99,532.77v-12.99h-13.92v12.99h13.92Z"/>
    <path d="M1927.11,525.78c4.94,4.48,7.47,10.02,7.47,16.62,0,7.39-2.33,13.12-6.86,17.34-4.11,3.83-10.56,6.59-19.26,8.31l-1.71-4.48c8.16-1.52,14.05-4.09,17.69-7.65,3.29-3.3,5-7.85,5-13.52s-2.13-10.02-6.38-13.58c-3.84-3.23-8.36-5.01-13.57-5.28l-1.44,12.27c-1.03,6.79-2.47,12.33-4.32,16.62-3.02,7.39-7.06,11.08-12,11.08-3.98,0-7.27-1.71-9.8-5.14-2.47-3.3-3.63-7.39-3.63-12.13,0-7.39,2.6-13.65,7.82-18.86,5.55-5.67,12.82-8.44,21.8-8.44,7.68,0,14.05,2.24,19.2,6.86ZM1901.54,542.99c1.37-5.87,2.4-12.33,2.95-19.32-5.42.53-10.08,2.64-13.92,6.2-4.8,4.35-7.13,9.83-7.13,16.36,0,3.69.82,6.73,2.47,9.17,1.51,2.37,3.5,3.56,5.83,3.56,3.98,0,7.27-5.34,9.8-15.96Z"/>
    <path d="M1954.4,520.57c-.89,5.67-1.3,11.54-1.3,17.48,0,7.19,1.03,12.99,3.15,17.48,1.92,3.96,4.18,6,6.92,6,1.78,0,3.43-1.78,4.94-5.34.96-2.24,1.71-4.81,2.26-7.58l5.28,1.19c-1.17,5.01-2.67,8.9-4.52,11.74-2.19,3.36-4.8,5.08-7.82,5.08-4.94,0-8.78-2.7-11.59-8.11-2.74-5.21-4.04-12-4.04-20.44,0-5.94.41-11.94,1.37-18.07l5.35.59ZM2005.54,556.84l-5.35.26c-.82-14.64-4.66-25.85-11.59-33.77l4.32-3.1c7.54,8.77,11.79,20.97,12.61,36.6Z"/>
    <path d="M2022.95,520.57c-.89,5.67-1.3,11.54-1.3,17.48,0,7.19,1.03,12.99,3.15,17.48,1.92,3.96,4.18,6,6.92,6,1.78,0,3.43-1.78,4.94-5.34.96-2.24,1.71-4.81,2.26-7.58l5.28,1.19c-1.17,5.01-2.67,8.9-4.52,11.74-2.19,3.36-4.8,5.08-7.82,5.08-4.94,0-8.78-2.7-11.59-8.11-2.74-5.21-4.04-12-4.04-20.44,0-5.94.41-11.94,1.37-18.07l5.35.59ZM2074.1,556.84l-5.35.26c-.82-14.64-4.66-25.85-11.59-33.77l4.32-3.1c7.54,8.77,11.79,20.97,12.61,36.6Z"/>
    <path d="M2098.51,542.14c-.48,1.32-.96,2.57-1.51,3.89h14.6v3.89c-1.51,4.35-4.04,8.11-7.61,11.28,3.22,1.45,6.38,2.97,9.46,4.62l-2.6,3.69c-3.02-1.78-6.58-3.56-10.63-5.41-4.59,3.03-10.35,5.54-17.35,7.39l-2.33-3.96c5.83-1.45,10.76-3.3,14.81-5.54-3.08-1.32-6.38-2.57-9.87-3.89,1.78-2.77,3.29-5.41,4.66-7.91h-8.02v-4.16h10.01c.69-1.58,1.23-3.03,1.78-4.42l4.59.53ZM2095.9,523.87v-12.6h4.52v12.6h12.41v4.15h-12.41v1.19c3.63,1.91,7.27,4.09,10.9,6.53l-2.54,3.69c-3.22-2.84-6.03-5.08-8.36-6.73v8.05h-4.52v-11.01c-2.6,4.62-6.79,8.64-12.68,12.07l-2.54-3.89c5.9-2.9,10.01-6.2,12.34-9.89h-10.63v-4.15h13.51ZM2092.13,520.18l-3.56,1.52c-1.44-3.17-3.02-5.94-4.66-8.38l3.98-1.25c1.65,2.51,3.02,5.21,4.25,8.11ZM2107.08,550.18h-12c-1.1,2.11-2.33,4.15-3.63,6.07,2.74.92,5.42,1.91,8.02,3.03,3.43-2.64,5.96-5.67,7.61-9.1ZM2112.42,513.45c-1.37,2.84-3.15,5.61-5.28,8.31l-3.5-1.71c2.06-2.77,3.77-5.54,5.07-8.24l3.7,1.65ZM2114.62,542.66l-3.02-3.63c4.52-6.86,7.54-16.22,9.12-27.96l4.73.79c-.55,3.36-1.17,6.53-1.85,9.43h19.27v4.55h-5c-.34,11.14-2.54,20.64-6.51,28.56,3.5,5.21,7.68,9.83,12.48,13.85l-3.15,3.56c-4.59-3.89-8.57-8.18-11.86-12.93-3.36,5.14-7.54,9.43-12.61,12.99l-2.6-4.02c5.21-3.43,9.39-7.78,12.55-13.06-3.22-5.28-5.76-11.08-7.68-17.41l3.84-2.11c1.65,5.28,3.7,10.22,6.31,14.71,2.95-6.79,4.52-14.84,4.8-24.14h-10.97c-1.99,6.73-4.59,12.33-7.82,16.82Z"/>
    <path d="M2198.94,529.67v4.42c-4.46,3.03-9.46,5.94-14.95,8.84v4.42h27.01v4.62h-27.01v13.98c0,3.63-1.99,5.47-5.96,5.47h-8.43l-1.17-4.35c2.4.07,5,.13,7.88.13,1.78,0,2.67-.99,2.67-2.9v-12.33h-28.66v-4.62h28.66v-6.46c5.55-2.77,9.74-5.08,12.55-6.79h-29.41v-4.42h36.82ZM2209.71,532.71h-4.94v-10.16h-48.26v10.16h-4.94v-14.71h26.94c-.96-2.37-1.99-4.48-3.09-6.4l5.62-.92c.96,2.18,1.92,4.62,2.81,7.32h25.85v14.71Z"/>
    <path d="M2246.18,527.36c.48,2.37,1.3,4.62,2.4,6.73,5.42-1.98,12.2-3.96,20.29-6l1.92,4.48c-11.24,2.77-19.95,5.54-25.98,8.31-9.05,4.02-13.51,8.44-13.51,13.19,0,6,6.86,9.04,20.57,9.04,6.72,0,13.51-.46,20.22-1.25l.48,4.88c-6.99.73-13.92,1.12-20.7,1.12-8.84,0-15.36-1.12-19.54-3.3-4.32-2.24-6.44-5.67-6.44-10.35,0-6.33,4.66-11.8,14.05-16.49,1.1-.59,2.33-1.19,3.7-1.71-1.37-2.7-2.33-5.67-2.88-8.97-.69-3.5-1.1-8.24-1.23-14.31l5.28-.13c.14,6.4.62,11.34,1.37,14.77Z"/>
    <path d="M2316.45,519.58c-1.1-2.64-2.33-5.14-3.77-7.52l5.14-1.39c1.51,2.9,2.67,5.54,3.5,7.91l-2.74.99h29.96v4.48h-61.5v-4.48h29.41ZM2340.79,571.81h-4.8v-3.17h-36.47v3.17h-4.8v-21.3h46.07v21.3ZM2339.69,529.8v4.29h-43.81v-4.29h43.81ZM2339.69,539.89v4.29h-43.81v-4.29h43.81ZM2335.99,564.16v-9.17h-36.47v9.17h36.47Z"/>
    <path d="M2412.5,531.32c3.36,3.69,5.07,8.38,5.07,13.98,0,6.27-2.33,11.34-6.92,15.3-4.73,3.96-11.59,6.4-20.57,7.39l-1.85-4.55c7.95-.79,13.99-2.83,18.17-6,3.98-3.17,5.96-7.19,5.96-12.13,0-4.35-1.23-7.98-3.7-10.88-2.74-3.1-6.51-4.62-11.18-4.62-6.03,0-12.68,2.83-19.95,8.57-.75.53-1.51,1.19-2.33,1.91-.27,11.67-.41,21.3-.41,28.95h-5c0-7.72.07-15.76.27-24.2-3.29,3.17-6.99,7.12-11.04,11.74l-3.84-3.17c5.76-6.59,10.76-11.87,15.08-15.7l.27-9.83-12.07.73-.27-4.55,12.48-.79.27-11.01,5,.07c-.14,2.64-.21,6.27-.27,10.75l2.13,1.85-2.33,4.81c-.07,1.25-.07,2.51-.07,3.76,7.54-5.8,14.95-8.64,22.08-8.64,6.31,0,11.31,2.04,15.01,6.27Z"/>
    <path d="M2472.7,524.99c1.78,1.78,2.74,4.22,2.74,7.39,0,2.24-.41,6.27-1.1,11.94-.89,6.53-1.3,10.75-1.3,12.6,0,3.03,1.1,4.62,3.29,4.62,2.47,0,5-2.04,7.47-6.13l4.18,2.9c-1.85,2.64-3.5,4.55-4.94,5.74-2.06,1.45-4.32,2.18-6.79,2.18-5.69,0-8.5-3.1-8.5-9.3,0-1.45.41-5.67,1.37-12.6.75-5.93,1.17-9.96,1.17-11.94,0-3.69-1.92-5.54-5.69-5.54-4.87,0-11.11,3.36-18.65,10.22-.69.59-1.44,1.25-2.12,1.98-.34,12.4-.48,22.42-.48,30.2h-5c0-7.12.07-15.43.27-24.93-3.22,3.43-6.72,7.45-10.42,12.13l-4.11-3.1c5.14-6.46,10.08-11.87,14.74-16.36l.27-8.9-12.07.73-.27-4.55,12.48-.73.27-11.08,5,.07c-.14,2.57-.21,6.2-.27,10.82l2.19,1.78-2.4,4.81c0,.79-.07,1.65-.07,2.44l.14-.13c7.95-6.73,14.81-10.02,20.5-10.02,3.5,0,6.17.92,8.09,2.77Z"/>
    <path d="M2550.58,522.68l-12.34.53c-2.06,0-4.73,1.19-7.88,3.56-3.43,2.51-6.31,5.47-8.57,8.9-2.67,3.96-3.98,7.98-3.98,12,0,4.62,2.06,8.31,6.24,11.01,4.46,2.77,10.97,4.29,19.61,4.55l-.96,4.55c-10.01-.13-17.62-1.98-22.76-5.54-4.94-3.36-7.4-8.11-7.4-14.25,0-5.28,1.78-10.29,5.42-14.9,2.95-3.96,6.72-7.19,11.38-9.69-10.15.79-21.25,1.71-33.18,2.9l-.69-4.68c21.94-2.04,40.24-3.17,54.98-3.36l.14,4.42Z"/>
    <path d="M2571.42,520.57c-.89,5.67-1.3,11.54-1.3,17.48,0,7.19,1.03,12.99,3.15,17.48,1.92,3.96,4.18,6,6.92,6,1.78,0,3.43-1.78,4.94-5.34.96-2.24,1.71-4.81,2.26-7.58l5.28,1.19c-1.17,5.01-2.67,8.9-4.52,11.74-2.19,3.36-4.8,5.08-7.82,5.08-4.94,0-8.78-2.7-11.59-8.11-2.74-5.21-4.04-12-4.04-20.44,0-5.94.41-11.94,1.37-18.07l5.35.59ZM2622.56,556.84l-5.35.26c-.82-14.64-4.66-25.85-11.59-33.77l4.32-3.1c7.54,8.77,11.79,20.97,12.61,36.6Z"/>
    <path d="M2677.75,519.38c-7.27,5.8-15.77,12.66-25.5,20.71,5.35-3.03,10.42-4.48,15.22-4.48,5.69,0,10.15,1.32,13.37,3.96,3.15,2.64,4.73,6.2,4.73,10.82,0,5.14-2.4,9.3-7.06,12.46-4.8,3.17-10.76,4.75-17.89,4.75-4.66,0-8.36-.86-11.11-2.57-2.74-1.78-4.04-4.09-4.04-6.99,0-2.64.96-4.81,2.95-6.53,2.06-1.91,4.8-2.84,8.23-2.84,4.66,0,8.3,1.39,10.97,4.29,1.99,2.04,3.43,4.81,4.25,8.24l1.71-.86c4.59-2.51,6.92-5.87,6.92-9.96,0-3.5-1.3-6.13-3.77-7.91-2.33-1.65-5.55-2.44-9.8-2.44-4.87,0-9.94,1.19-15.29,3.56-4.59,2.11-8.84,4.81-12.68,8.18l-3.29-3.36,33.59-28.09-28.25,1.32-.27-4.62,34.14-1.05,2.88,3.43ZM2666.85,561.39c-1.58-5.61-5-8.38-10.22-8.38-1.92,0-3.43.46-4.52,1.45-1.17.92-1.71,2.11-1.71,3.5s.69,2.57,2.19,3.56c1.78,1.19,4.46,1.78,8.02,1.78,2.33,0,4.46-.26,6.51-.66-.14-.53-.21-.92-.27-1.25Z"/>
    <path d="M2727.39,520.9c2.6,2.31,3.98,5.21,3.98,8.64,0,2.51-.62,4.62-1.85,6.33-1.37,1.85-3.29,3.23-5.83,4.09v.13c2.54.59,4.73,1.98,6.51,4.09,1.92,2.24,2.88,4.88,2.88,7.91,0,4.16-1.51,7.52-4.52,10.02-3.15,2.57-7.54,3.89-13.16,3.89s-10.08-1.32-13.16-3.89c-3.02-2.51-4.52-5.87-4.52-10.02,0-3.03.96-5.67,2.88-7.91,1.78-2.11,3.91-3.5,6.51-4.09v-.13c-2.61-.86-4.52-2.24-5.83-4.09-1.23-1.71-1.85-3.82-1.85-6.33,0-3.43,1.3-6.33,3.98-8.64,2.88-2.57,6.86-3.83,12-3.83s9.12,1.25,12,3.83ZM2706.27,545.24c-2.06,1.71-3.02,4.02-3.02,6.86s.96,5.08,3.02,6.79c2.06,1.78,5.14,2.7,9.12,2.7s6.99-.92,9.19-2.77c1.92-1.71,2.95-3.96,2.95-6.73s-1.03-5.14-2.95-6.86c-2.19-1.91-5.28-2.84-9.19-2.84s-6.99.92-9.12,2.84ZM2707.23,524.07c-1.71,1.45-2.54,3.36-2.54,5.67s.75,4.35,2.26,5.8c1.78,1.71,4.59,2.64,8.43,2.64s6.58-.92,8.43-2.64c1.51-1.45,2.26-3.43,2.26-5.8s-.89-4.22-2.54-5.67c-1.99-1.71-4.73-2.57-8.16-2.57s-6.24.86-8.16,2.57Z"/>
    <path d="M2802.46,510.55v4.42h-16.93v36.01h-5v-40.43h21.94Z"/>
    <path d="M2837.29,535.34c3.02,3.36,4.52,7.58,4.52,12.73s-1.51,9.3-4.46,12.6c-3.22,3.56-7.47,5.34-12.75,5.34s-9.53-1.78-12.68-5.34c-3.02-3.3-4.52-7.52-4.52-12.6s1.51-9.37,4.52-12.73c3.15-3.56,7.34-5.28,12.68-5.28s9.53,1.71,12.68,5.28ZM2815.83,538.64c-1.92,2.51-2.81,5.61-2.81,9.43s.89,6.86,2.81,9.36c2.06,2.77,5,4.16,8.78,4.16s6.65-1.39,8.84-4.16c1.85-2.51,2.81-5.67,2.81-9.36s-.96-6.92-2.81-9.43c-2.19-2.77-5.14-4.16-8.84-4.16s-6.72,1.38-8.78,4.16Z"/>
    <path d="M2858.4,530.99h8.78v4.42h-8.78v21.7c0,1.25.21,2.18.75,2.7.48.53,1.37.86,2.6.86h4.52v4.42h-5.35c-2.88,0-5-.73-6.24-2.18-1.17-1.32-1.71-3.23-1.71-5.8v-21.7h-7.13v-4.42h7.13v-8.84l5.42-2.18v11.01Z"/>
    <path d="M2882.74,530.99h8.78v4.42h-8.78v21.7c0,1.25.21,2.18.75,2.7.48.53,1.37.86,2.6.86h4.52v4.42h-5.35c-2.88,0-5-.73-6.24-2.18-1.17-1.32-1.71-3.23-1.71-5.8v-21.7h-7.13v-4.42h7.13v-8.84l5.42-2.18v11.01Z"/>
    <path d="M2926.14,535.34c3.02,3.36,4.52,7.58,4.52,12.73s-1.51,9.3-4.46,12.6c-3.22,3.56-7.47,5.34-12.75,5.34s-9.53-1.78-12.68-5.34c-3.02-3.3-4.52-7.52-4.52-12.6s1.51-9.37,4.52-12.73c3.15-3.56,7.34-5.28,12.68-5.28s9.53,1.71,12.68,5.28ZM2904.68,538.64c-1.92,2.51-2.81,5.61-2.81,9.43s.89,6.86,2.81,9.36c2.06,2.77,5,4.16,8.78,4.16s6.65-1.39,8.84-4.16c1.85-2.51,2.81-5.67,2.81-9.36s-.96-6.92-2.81-9.43c-2.19-2.77-5.14-4.16-8.84-4.16s-6.72,1.38-8.78,4.16Z"/>
    <path d="M2952.4,510.55c-2.81,4.35-5,8.9-6.51,13.65-2.06,5.8-3.02,11.48-3.02,17.15s.96,11.34,3.02,17.15c1.51,4.68,3.7,9.23,6.51,13.65h-4.8c-3.02-4.29-5.35-8.84-7.06-13.59-2.06-5.67-3.02-11.41-3.02-17.15s.96-11.61,3.02-17.28c1.71-4.81,4.04-9.37,7.06-13.59h4.8Z"/>
    <path d="M3002.58,513.58v11.87h15.7v4.75h-15.7v31.13c0,4.75-2.67,7.12-7.88,7.12-2.4,0-5.48-.26-9.26-.66v-4.75c3.98.53,6.92.86,8.98.86,1.78,0,2.74-.92,2.74-2.7v-25.98c-2.06,3.96-6.17,8.77-12.34,14.51-6.1,5.67-12,10.16-17.76,13.52l-3.43-4.09c6.17-3.69,12.07-7.98,17.55-12.93,5.76-5.21,10.49-10.55,14.26-16.03h-30.3v-4.75h32.02v-11.87h5.42Z"/>
    <path d="M3050.91,546.29l-4.25,2.51c-2.67-4.88-5.55-9.5-8.71-13.85l4.32-2.51c3.43,4.88,6.31,9.5,8.64,13.85ZM3080.32,531.19c-1.78,9.3-4.87,16.95-9.32,22.88-4.87,6.27-11.65,11.01-20.29,14.25l-2.88-4.09c8.09-3.1,14.33-7.39,18.72-12.93,4.11-5.28,6.99-12.27,8.64-20.97l5.14.86ZM3059,535.67c1.51,2.24,2.81,4.55,4.04,6.79l-4.32,2.44c-2.26-4.15-5.14-8.84-8.71-13.98l4.25-2.38c1.85,2.7,3.43,5.08,4.73,7.12Z"/>
    <path d="M3120.77,513.65v20.91c5.14.86,10.63,2.24,16.39,4.09,5.35,1.65,10.35,3.56,15.01,5.74l-2.33,4.35c-4.25-1.98-8.91-3.76-13.85-5.34-5.42-1.71-10.49-3.03-15.22-3.83v29.61h-5.42v-55.53h5.42Z"/>
    <path d="M3170.82,510.55c2.95,4.22,5.28,8.77,7.06,13.59,1.99,5.67,3.02,11.41,3.02,17.28s-1.03,11.47-3.02,17.15c-1.78,4.75-4.11,9.3-7.06,13.59h-4.8c2.74-4.42,4.94-8.97,6.51-13.65,1.99-5.8,3.02-11.54,3.02-17.15s-1.03-11.34-3.02-17.15c-1.58-4.75-3.77-9.3-6.51-13.65h4.8Z"/>
    <path d="M3208.87,531.72v40.43h-21.94v-4.42h16.93v-36.01h5Z"/>
    <path d="M3309.24,524.26c-6.92.73-15.77,1.12-26.6,1.25-2.47,4.15-5.07,7.65-7.75,10.55,3.63-2.77,7.27-4.09,10.9-4.09s6.17,1.25,7.95,3.76c.41.66.82,1.39,1.17,2.18,4.8-1.65,10.35-3.23,16.66-4.75l1.44,4.48c-6.31,1.38-12,2.97-17,4.75.14.99.21,2.04.21,3.23v11.41h-4.87v-10.68c0-.79-.07-1.52-.07-2.18-.75.26-1.44.59-2.12.92-8.5,3.76-12.75,7.65-12.75,11.61,0,2.44,1.51,4.22,4.66,5.34,2.54.86,6.24,1.32,11.17,1.32,6.17,0,12.07-.53,17.69-1.45l.48,4.62c-5.96.92-12,1.39-18.17,1.39-6.58,0-11.59-.79-15.01-2.38-3.98-1.85-5.96-4.81-5.96-8.84,0-5.34,4.32-10.16,13.09-14.44,1.78-.92,3.77-1.78,5.96-2.64-1.1-2.44-2.88-3.63-5.35-3.63-5.9,0-12.55,4.16-19.95,12.46l-3.56-3.17c5.35-5.67,9.67-10.82,12.89-15.43.96-1.45,1.85-2.9,2.81-4.35-3.57,0-8.43-.07-14.47-.13l.07-4.48c5.9,0,11.59.07,16.93.07,1.37-2.77,2.67-5.61,3.91-8.57l4.59,1.71c-1.03,2.37-2.06,4.68-3.08,6.86,9.87-.13,17.76-.46,23.79-1.12l.34,4.42Z"/>
    <path d="M3358.53,513.78v4.49h-5.14v53.42h-4.8v-10.82c-6.92,1.45-14.33,2.7-22.14,3.69l-1.17-4.68c2.06-.26,4.11-.46,6.03-.73v-40.89h-5.42v-4.49h32.63ZM3348.59,528.42v-10.16h-12.48v10.16h12.48ZM3348.59,542.73v-9.96h-12.48v9.96h12.48ZM3348.59,556.12v-9.1h-12.48v11.48c4.25-.66,8.43-1.45,12.48-2.37ZM3361.27,521.96h-2.67v-4.62h26.39v4.35c-1.51,12.2-4.59,22.62-9.32,31.26,3.29,5.41,7.34,10.35,12.2,14.9l-3.29,3.63c-4.52-4.48-8.36-9.23-11.52-14.24-3.7,5.61-8.09,10.35-13.23,14.24l-3.36-3.69c5.62-4.22,10.22-9.3,13.85-15.23-5.07-9.37-8.09-19.52-9.05-30.6ZM3365.8,521.96c.82,9.5,3.15,18.14,7.13,25.92,3.7-7.52,6.24-16.16,7.47-25.92h-14.6Z"/>
    <path d="M3411.94,517.21c-.82,2.51-1.58,5.74-2.19,9.63-.62,3.96-.89,7.32-.89,10.02,0,4.22.41,7.52,1.37,9.76.69-3.3,1.78-6.13,3.43-8.64l4.18,1.91c-2.19,3.43-3.91,7.58-5.14,12.46l-4.25.73c-1.71-1.85-2.95-4.42-3.77-7.78-.69-2.64-.96-5.47-.96-8.44,0-3.69.34-7.52,1.03-11.47.55-3.56,1.3-6.73,2.26-9.56l4.94,1.38ZM3445.94,536.07c0,8.51-1.85,15.3-5.48,20.44-3.56,5.01-9.67,9.3-18.17,12.93l-2.95-4.22c7.82-3.17,13.37-6.86,16.52-11.21,3.15-4.35,4.73-10.35,4.73-17.94,0-7.12-.82-13.45-2.47-18.99l5.14-1.19c1.78,5.8,2.67,12.53,2.67,20.18Z"/>
    <path d="M3481.59,518.53v-4.62h13.99c1.92,20.11,11.52,37.79,28.79,52.96l-2.81,4.09c-14.53-12.53-23.86-27.04-27.9-43.53-4.87,18.73-14.47,33.17-28.73,43.33l-2.95-4.02c15.49-11.01,25.44-27.1,29.82-48.21h-10.22Z"/>
    <path d="M3579.77,524.99c1.78,1.78,2.74,4.22,2.74,7.39,0,2.24-.41,6.27-1.1,11.94-.89,6.53-1.3,10.75-1.3,12.6,0,3.03,1.1,4.62,3.29,4.62,2.47,0,5-2.04,7.47-6.13l4.18,2.9c-1.85,2.64-3.5,4.55-4.94,5.74-2.06,1.45-4.32,2.18-6.79,2.18-5.69,0-8.5-3.1-8.5-9.3,0-1.45.41-5.67,1.37-12.6.75-5.93,1.17-9.96,1.17-11.94,0-3.69-1.92-5.54-5.69-5.54-4.87,0-11.11,3.36-18.65,10.22-.69.59-1.44,1.25-2.12,1.98-.34,12.4-.48,22.42-.48,30.2h-5c0-7.12.07-15.43.27-24.93-3.22,3.43-6.72,7.45-10.42,12.13l-4.11-3.1c5.14-6.46,10.08-11.87,14.74-16.36l.27-8.9-12.07.73-.27-4.55,12.48-.73.27-11.08,5,.07c-.14,2.57-.21,6.2-.27,10.82l2.19,1.78-2.4,4.81c0,.79-.07,1.65-.07,2.44l.14-.13c7.95-6.73,14.81-10.02,20.5-10.02,3.5,0,6.17.92,8.09,2.77Z"/>
    <path d="M3656.14,525.45c-7.61.26-14.95.46-22.01.59.07,3.43.14,6.53.27,9.37,6.72-.07,13.51-.2,20.36-.4v4.55c-6.58.13-13.3.2-20.22.26.14,4.55.21,8.18.21,10.88,1.44.53,2.88,1.05,4.39,1.71,5.9,2.44,11.59,5.74,17.07,9.89l-3.15,3.76c-5.14-3.89-10.28-6.99-15.49-9.37-1.03-.46-2.06-.86-3.02-1.25-.41,3.43-1.44,6.2-3.08,8.24-2.47,2.97-6.38,4.48-11.72,4.48-3.84,0-7.06-.86-9.53-2.44-2.81-1.78-4.18-4.29-4.18-7.52s1.37-5.8,4.25-7.65c2.47-1.71,5.62-2.51,9.6-2.51,3.08,0,6.31.4,9.67,1.19l-.21-9.36h-6.65c-3.08,0-7.75-.07-13.92-.2l-1.92-.07v-4.48c1.37,0,3.43.07,6.17.13,3.7.13,6.92.2,9.6.2h6.65c-.14-2.84-.21-5.94-.27-9.36h-5.42c-3.22,0-6.72-.07-10.49-.07l-7.13-.2-.07-4.48,7.2.2c3.7.07,7.2.13,10.49.13h5.28l-.27-8.71,5.07-.13c.14,3.03.21,6,.34,8.77,6.58-.13,13.99-.4,22.14-.73v4.55ZM3619.88,552.36c-2.47,0-4.52.46-6.17,1.52-1.78,1.06-2.67,2.51-2.67,4.35s.82,3.17,2.6,4.15c1.51.92,3.56,1.38,6.1,1.38,3.5,0,6.1-1.05,7.75-3.03,1.3-1.65,1.99-3.96,2.13-6.99-3.43-.92-6.65-1.38-9.74-1.38Z"/>
    <path d="M3686.17,514.44v36.87c0,8.05,4.46,12.07,13.44,12.07,10.01,0,17.69-7.12,23.17-21.3l5.07,1.85c-2.74,6.99-5.9,12.46-9.6,16.36-5.07,5.34-11.31,8.05-18.65,8.05-12.61,0-18.85-5.47-18.85-16.36v-37.52h5.42Z"/>
    <path d="M3774.95,526.04c-4.94.59-10.7,1.06-17.28,1.45-.96,4.75-2.06,9.43-3.15,13.92-2.61,10.35-5.48,19.26-8.64,26.71l-5-1.65c3.15-7.32,6.03-16.03,8.64-26.18.96-4.09,1.92-8.31,2.81-12.53-4.18.13-8.64.26-13.37.33l-.21-4.68c5.07,0,9.87-.13,14.47-.26.69-3.69,1.3-7.39,1.85-11.15l5.28.66c-.55,3.43-1.17,6.86-1.78,10.22,5.62-.33,10.76-.79,15.56-1.38l.82,4.55ZM3770.02,550.25c-2.19,2.9-3.29,5.34-3.29,7.45,0,1.71,1.3,3.1,3.98,4.02,2.47.86,5.9,1.32,10.42,1.32,5.07,0,9.74-.4,13.85-1.19l.14,4.68c-3.98.66-8.64,1.06-13.99,1.06-13.09,0-19.61-3.17-19.61-9.43,0-3.3,1.3-6.66,4.04-10.22l4.46,2.31ZM3794.22,536.93c-9.67,0-19.47.4-29.48,1.25l-.27-4.75c10.01-.79,19.88-1.19,29.75-1.19v4.68Z"/>
  </g>
</svg>