<?xml version="1.0" encoding="UTF-8"?>
<svg id="_レイヤー_1" data-name="レイヤー_1" xmlns="http://www.w3.org/2000/svg" version="1.1" viewBox="0 0 11962.7 4138.16">
  <!-- Generator: Adobe Illustrator 29.8.1, SVG Export Plug-In . SVG Version: 2.1.1 Build 2)  -->
  <defs>
    <style>
      .st0 {
        fill: none;
      }
    </style>
  </defs>
  <rect class="st0" x="8550.72" y="1861.87" width="0" height="2.35"/>
  <rect class="st0" x="6301.67" y="1718.53" width="18.07" height="0"/>
  <g>
    <path d="M3313.17,554.91c8.68,4.1,13.41,7.52,13.41,11.63s-2.76,6.84-7.89,7.52c-3.94,1.37-6.31,3.42-7.1,5.47l-.39,1.37c24.05,70.45,49.29,121.07,75.32,151.17,28.79,36.25,57.57,61.56,86.36,75.24l-1.97,8.21c-9.46,4.1-15.77,13-19.32,25.99-2.37,9.58-4.34,13.68-6.31,13.68-5.52,0-18.14-13-38.25-39.67-20.9-26.68-40.62-60.19-59.54-101.23-17.74-38.3-31.55-77.98-41.8-117.65-20.5,56.09-41.8,101.23-64.67,136.8-28.39,49.25-65.46,97.13-111.99,142.96l-4.34-8.89c28.39-33.52,59.54-80.71,92.67-140.91,27.21-49.25,51.26-110.12,72.56-184,8.68,5.47,16.56,9.58,23.27,12.31ZM3215.38,920.85h165.62c2.37-4.1,5.52-8.89,9.86-15.05,3.94-4.79,6.7-7.52,7.89-7.52,1.97,0,6.31,4.79,13.01,14.36,8.68,14.36,13.41,23.94,13.41,29.41,0,4.79-2.76,8.21-7.49,10.26-5.13,2.74-8.68,7.52-11.04,14.36l-77.29,192.89c-1.18,6.16-3.15,9.58-5.52,10.26-2.37,0-5.13.68-8.28.68-2.37,0-5.52-1.37-9.86-4.1-2.76-1.37-3.94-4.1-3.94-6.84l80.84-220.25h-167.2c-14.2,0-27.6,2.05-40.22,4.79l-7.49-29.41c16.56,4.1,32.33,6.16,47.71,6.16ZM3311.59,802.52c9.86,14.36,14.98,28.04,14.98,41.04,0,8.21-1.58,16.42-4.34,24.62-3.15,7.52-6.31,10.94-9.86,10.94-7.89,0-13.41-9.58-16.56-28.73-7.49-34.2-18.93-63.61-33.91-86.87l3.94-6.84c21.29,15.73,36.67,30.78,45.74,45.83Z"/>
    <path d="M3573.82,602.79h238.97l11.44-17.78c3.94-6.84,7.1-10.26,8.68-10.26,2.37,0,7.1,4.79,13.41,13,7.49,11.63,11.44,19.84,11.44,23.94,0,2.74-2.37,6.84-6.7,10.94-4.34,4.1-6.31,7.52-6.31,11.63v443.92l1.97,71.14c0,4.1-1.97,6.84-5.13,9.58-5.52,2.05-10.25,3.42-14.2,3.42s-5.92-4.1-5.92-10.94v-54.04h-249.22v54.72c0,3.42-1.58,6.84-4.73,9.58-5.13,2.05-9.46,3.42-12.62,3.42-5.13,0-7.49-4.1-7.49-11.63.79-27.36,1.58-51.3,1.58-72.5v-435.03c0-17.78-.79-39.67-1.58-65.66,9.46,6.16,18.53,13.68,26.42,22.57ZM3821.46,1078.17v-456.92h-249.22v456.92h249.22ZM3653.87,736.17h79.26c3.15-5.47,6.31-10.94,9.07-17.1,2.76-5.47,5.13-8.21,7.1-8.21,2.37,0,6.7,5.47,13.8,15.05,6.31,9.58,9.86,15.73,9.86,19.84s-2.37,8.21-6.7,12.31c-4.34,4.1-6.31,8.21-6.31,13v161.43c0,12.31.39,27.36,1.97,46.51,0,4.1-1.97,7.52-5.13,8.89-5.52,2.74-10.25,3.42-14.2,3.42s-5.52-3.42-5.52-10.94v-41.04h-84.78v45.83c0,3.42-1.58,6.16-4.34,8.21-5.52,2.74-9.86,3.42-13.01,3.42-5.13,0-7.49-3.42-7.49-11.63.79-13,1.58-25.99,1.58-38.99v-179.89c0-17.78-.79-34.88-1.58-52.67,8.68,6.16,17.75,13.68,26.42,22.57ZM3737.08,920.85v-165.53h-84.78v165.53h84.78Z"/>
    <path d="M4213.43,1019.35c-17.35,41.04-42.59,70.45-74.92,87.55-20.11,10.26-33.12,15.73-39.43,15.73-2.76,0-3.94-1.37-3.94-4.1s1.18-4.79,4.34-6.16c33.91-20.52,60.73-51.3,80.05-91.66,20.51-43.09,31.15-95.08,31.15-155.27s-9.46-108.76-27.6-147.06c-19.72-39.67-46.93-60.19-80.84-60.19-4.73,0-9.46.68-13.8,1.37,9.07,16.42,13.8,43.09,13.8,79.34s-5.13,83.45-14.98,139.54c-9.86,54.72-20.51,97.81-31.94,130.65-16.56,47.2-33.91,70.45-52.05,70.45s-31.55-20.52-43.38-62.24c-10.25-36.25-15.38-73.19-15.38-110.81,0-75.24,15.38-138.85,46.53-189.47,30.76-50.62,68.22-75.92,112.38-75.92,39.43,0,71.77,21.2,97.4,62.93,25.63,42.41,38.64,97.13,38.64,164.85,0,59.51-8.68,109.44-26.03,150.48ZM4079.75,661.61c-33.52,9.58-61.12,35.57-82.81,78.66-22.08,43.09-32.73,93.71-32.73,151.17,0,29.41,2.76,57.46,8.28,84.13,7.1,36.25,17.75,54.04,31.15,54.04,18.93,0,37.46-42.41,56.39-128.59,16.96-77.98,25.63-145.01,25.63-201.1,0-15.05-1.97-27.36-5.92-38.3Z"/>
    <path d="M4360.9,848.35h43.77v-21.2c0-23.94-.79-45.14-1.58-62.93,6.7,1.37,15.38,2.74,26.42,5.47,7.49,2.74,11.44,5.47,11.44,8.21,0,6.16-3.15,10.26-8.68,13-3.94,2.05-5.92,5.47-5.92,10.94v46.51h42.59c1.97-2.74,5.92-10.26,11.44-21.89,5.52-10.26,8.68-15.73,10.25-15.73,3.15,0,9.07,7.52,16.96,21.2,7.1,14.36,11.04,23.26,11.04,25.99,0,6.84-1.97,9.58-5.52,9.58h-86.75v56.77c22.87,13.68,42.19,29.41,58.36,47.88,9.46,11.63,14.59,23.26,15.38,35.57,0,7.52-1.18,13.68-3.15,19.15-2.76,6.84-5.92,10.26-9.07,10.26-4.73,0-9.07-6.84-13.01-20.52-14.98-32.83-31.15-58.82-48.5-77.98v155.95c0,17.78.39,38.3,1.58,60.88,0,3.42-1.58,6.16-4.73,8.89-5.13,2.05-9.46,3.42-13.01,3.42-4.34,0-6.7-3.42-7.1-10.26.79-23.26,1.58-43.78,1.58-62.93v-173.05c-29.18,80.03-61.52,138.85-97.01,177.16l-3.15-8.21c36.67-56.09,66.25-130.65,89.12-222.99h-32.73c-19.72,0-33.52,2.05-41.4,4.79l-7.1-29.41c11.04,4.1,27.21,5.47,48.5,5.47ZM4319.11,625.36l-.79-11.63c33.12-6.16,62.3-13.68,87.54-22.57,26.03-6.84,54.02-19.15,83.6-37.62,7.89,7.52,14.98,14.36,21.69,21.2,7.1,8.21,10.65,14.36,10.65,18.47s-1.58,6.16-4.73,6.16l-16.96-6.16c-62.3,21.89-122.64,32.15-181,32.15ZM4363.27,707.44c7.1,15.05,10.65,29.41,10.65,43.09,0,6.16-1.18,12.31-3.55,18.47-2.37,6.16-4.73,8.89-7.1,8.89-6.31,0-10.65-6.84-13.01-21.89-4.73-35.57-12.22-65.66-22.48-89.6l3.15-6.16c15.38,16.42,26.03,32.15,32.34,47.2ZM4424.39,679.4c6.31,15.05,9.46,28.73,9.46,41.72,0,6.16-1.18,12.31-3.55,18.47-2.37,6.16-4.73,8.89-7.1,8.89-6.31,0-10.25-6.84-12.62-21.89-4.34-34.88-11.04-63.61-19.72-86.87l3.55-6.16c13.8,15.73,23.66,30.78,29.97,45.83ZM4501.29,638.36c7.1,5.47,11.04,10.94,11.04,16.42,0,2.74-1.97,4.79-5.52,5.47-3.94,1.37-5.92,2.05-6.31,2.74-13.8,46.51-30.36,88.24-50.08,125.17l-4.34-4.79c13.41-49.25,24.05-102.6,31.15-160.74l24.05,15.73ZM4656.65,930.43c8.68,6.84,13.01,12.31,13.01,15.05,0,4.1-2.37,6.84-6.31,7.52-4.73,0-7.49,1.37-8.28,3.42-24.45,42.41-51.66,80.71-80.84,116.28-25.63,31.46-59.94,62.93-102.53,95.08l-3.94-9.58c75.71-73.87,130.92-155.27,164.83-244.19,8.68,6.84,16.56,12.31,24.05,16.42ZM4641.67,748.48c8.28,6.84,12.62,10.94,12.62,13.68,0,4.1-1.97,6.16-5.92,6.84-4.73,0-7.1,1.37-7.89,3.42-18.14,30.1-37.86,57.46-59.15,82.08-18.53,22.57-43.38,45.14-74.13,67.72l-3.94-8.89c53.24-54.72,91.88-114.91,115.54-181.26,8.28,6.84,15.77,12.31,22.87,16.42ZM4632.21,572.01c8.28,6.84,12.62,11.63,12.62,14.36,0,3.42-1.97,5.47-5.52,6.16-4.73,0-7.49,1.37-8.28,3.42-16.56,30.1-34.31,56.77-54.02,80.71-16.96,21.89-39.83,44.46-68.22,66.35l-3.94-8.89c48.11-53.35,82.81-112.86,104.5-177.84l22.87,15.73Z"/>
    <path d="M4791.91,584.32h191.25c1.58-2.74,4.73-8.21,9.46-17.78,4.73-8.21,7.49-13,8.68-13,2.76,0,7.49,6.16,14.59,17.78,6.31,12.31,9.46,19.15,9.46,21.89,0,6.84-1.58,9.58-4.73,9.58h-130.13v50.62h125.79l8.28-11.63c4.73-6.84,8.28-10.94,10.25-10.94,2.37,0,7.1,6.84,14.2,20.52,7.89,15.05,11.83,25.99,11.83,32.15,0,4.1-2.76,6.16-7.49,6.84-5.52.68-8.68,1.37-10.25,2.74l-37.07,31.46-.79-1.37v7.52h-92.27v-18.47h91.88l16.17-39.67h-130.52v75.92c0,16.42.39,36.25,1.18,58.14,0,4.1-1.58,7.52-4.34,9.58-5.52,2.74-10.25,4.1-14.2,4.1-4.73,0-7.1-3.42-7.1-11.63.79-13.68,1.58-34.2,1.58-60.19v-75.92h-127.37v6.16c0,19.84-3.94,34.88-11.04,45.83-5.13,6.84-12.22,10.26-20.9,10.26-3.15,0-5.92-1.37-8.28-5.47-1.97-4.1-2.76-8.21-2.76-13s5.52-12.31,17.35-23.26c10.65-15.05,16.56-34.2,18.14-57.46l4.34-2.05c.79,7.52,1.18,14.36,1.97,19.84h128.55v-50.62h-75.71c-19.32,0-33.12,2.05-41.01,4.79l-7.49-29.41c11.04,4.1,27.21,6.16,48.5,6.16ZM4864.07,833.3c5.52,8.21,8.68,14.36,8.68,17.78,0,4.1-1.58,7.52-4.34,10.94-2.76,4.1-3.94,7.52-3.94,10.94v29.41c0,10.26.39,23.94,1.97,40.36,0,4.1-1.58,6.84-4.73,8.21-4.73,2.74-8.68,3.42-12.22,3.42s-5.13-3.42-5.13-10.26v-4.79h-81.63v53.35h69.01c1.18-1.37,3.55-5.47,7.49-11.63,3.55-6.16,5.91-9.58,7.49-9.58s5.92,6.16,13.01,17.1c4.73,7.52,7.1,12.31,7.1,13.68,0,6.84-1.58,9.58-3.94,9.58h-100.16v56.09h68.61c1.58-1.37,4.34-6.16,8.68-14.36,3.94-6.84,7.1-10.94,8.68-10.94s6.7,6.84,14.98,19.15c5.13,8.21,7.89,13.68,7.89,15.05,0,6.84-1.58,9.58-4.73,9.58h-104.1v73.87c0,2.74-1.58,5.47-3.94,6.84-4.34,2.05-7.89,3.42-11.04,3.42-4.73,0-6.7-3.42-6.7-10.26.79-10.94,1.58-22.57,1.58-33.52v-257.19c0-15.73-.79-31.46-1.58-46.51,6.31,4.1,12.62,9.58,18.93,15.05h77.68l7.89-12.31c2.37-3.42,4.73-5.47,6.31-5.47,1.97,0,5.91,4.79,12.22,13ZM4839.23,712.23v18.47h-92.67v-18.47h92.67ZM4839.23,773.79v18.47h-92.67v-18.47h92.67ZM4844.35,920.85v-64.3h-81.63v64.3h81.63ZM4925.98,982.41h61.12c2.76-4.1,5.13-8.21,7.1-10.94,4.34-6.16,7.49-9.58,9.46-9.58,3.15,0,8.28,6.16,15.38,17.1,6.31,9.58,9.46,16.42,9.46,21.2,0,2.74-2.76,5.47-7.49,8.21-3.94,3.42-6.31,6.16-6.31,8.21-6.7,21.89-14.2,40.36-22.87,54.72-5.13,8.21-10.25,15.73-15.38,21.2l3.94,2.74c17.35,10.94,39.43,20.52,66.64,30.1l-1.18,5.47c-7.49,4.1-12.62,10.26-14.98,19.84-2.37,7.52-3.94,11.63-4.34,11.63-4.73,0-14.2-4.79-28.79-13.68-17.35-11.63-31.55-23.26-42.98-35.57-11.04,9.58-24.45,18.47-40.22,25.31-22.87,10.26-46.93,18.47-72.16,23.94l-3.15-9.58c22.08-8.21,43.38-18.47,64.67-29.41,14.98-9.58,27.21-18.47,36.67-27.36-7.89-10.26-14.2-20.52-19.72-31.46-8.68-17.78-15.38-38.3-19.72-62.24-6.7,1.37-12.22,2.05-16.17,3.42l-7.49-29.41c16.56,4.1,32.73,6.16,48.5,6.16ZM4938.99,912.64h50.08v-56.09h-39.04c-26.81,0-45.35,2.05-56,4.79l-7.1-29.41c17.35,4.1,38.25,6.16,63.09,6.16h29.58c3.15-5.47,5.92-10.94,9.07-15.73,3.15-4.1,5.13-6.84,6.7-6.84,2.37,0,7.1,4.79,13.41,13,7.1,10.94,10.65,18.47,10.65,22.57,0,3.42-1.58,6.16-4.73,8.89-3.94,4.1-5.52,7.52-5.52,10.26,0,28.04.39,45.83,1.58,53.35v10.94c0,4.1-1.58,7.52-4.73,10.26-4.34,2.74-8.28,4.1-11.83,4.1-3.15,0-4.73-2.74-5.13-8.89v-8.89h-50.08c-18.14,0-32.34,2.05-43.38,4.79l-7.1-29.41c13.8,4.1,30.76,6.16,50.47,6.16ZM4935.05,1054.92c6.7,8.89,14.2,16.42,22.08,22.57,4.73-6.16,9.86-13.68,14.59-23.26,8.68-15.05,14.98-32.83,19.72-53.35h-65.46c-6.7,0-12.62.68-17.75.68,7.1,21.89,16.17,39.67,26.81,53.35ZM5005.24,773.79v18.47h-92.27v-18.47h92.27Z"/>
    <path d="M5207.14,561.06c7.89,6.84,12.22,12.31,12.22,15.73,0,4.1-2.37,6.16-6.7,6.84-5.52,0-9.07,1.37-9.86,3.42-3.55,10.94-7.1,21.89-10.65,31.46h46.93l7.1-14.36c3.55-6.84,6.31-10.94,8.68-10.94,2.76,0,7.49,5.47,14.2,16.42,7.1,10.94,10.65,19.15,10.65,24.62,0,4.79-1.97,8.89-5.92,11.63-3.55,4.79-5.52,8.89-5.52,11.63-11.04,51.98-24.05,95.08-38.64,129.96-4.73,10.26-10.25,19.84-16.17,28.73,10.25,2.05,22.48,2.74,37.46,2.74h55.6c1.58-2.74,5.13-8.89,10.65-19.84,4.73-9.58,7.89-15.05,9.46-15.05,3.55,0,9.07,6.84,16.17,19.84,7.1,13.68,10.65,21.89,10.65,24.62,0,6.84-1.97,9.58-5.13,9.58h-97.4c-19.32,0-33.12,2.05-41.01,4.79l-3.94-15.05c-8.68,13-18.14,25.31-28.79,37.62-29.18,27.36-56.78,47.88-82.81,62.24l-4.34-8.21c42.98-34.2,78.08-73.19,105.29-115.6,24.45-43.78,41.01-99.18,49.69-166.21h-60.33c-3.94,10.26-7.89,19.15-11.83,27.36,8.68,4.1,16.96,8.89,24.45,14.36,2.76,2.74,6.31,6.16,11.04,10.26,5.52,6.84,8.28,13.68,8.28,21.2,0,6.84-1.18,12.31-3.55,16.42-1.97,5.47-4.34,7.52-7.1,7.52-3.94,0-7.1-3.42-10.25-10.94-7.89-20.52-16.96-36.94-27.21-49.25-6.7,15.05-14.2,28.73-22.87,42.41,11.83,10.26,20.51,19.84,26.03,29.41,7.1,10.94,11.04,21.89,11.04,32.15,0,5.47-1.18,10.94-3.15,15.73-1.97,5.47-3.94,7.52-6.31,7.52-5.13,0-8.68-6.16-10.65-18.47-5.13-22.57-12.62-41.72-22.08-58.14-11.04,17.78-23.66,34.2-37.46,49.93l-3.55-10.26c18.93-30.1,35.88-63.61,50.87-100.55,16.56-42.41,28.39-83.45,35.1-121.75,8.28,7.52,15.38,13.68,21.69,18.47ZM5217.78,987.88c8.28,6.16,12.62,10.94,12.62,13.68,0,3.42-1.97,5.47-5.52,6.16-4.73,0-7.1,1.37-7.49,3.42-14.98,24.62-31.55,47.88-49.29,68.4-15.38,19.15-35.88,36.94-61.91,56.09l-3.94-7.52c43.38-46.51,74.92-98.5,94.25-155.27,7.89,6.16,14.98,10.94,21.29,15.05ZM5187.82,920.85h179.03c1.97-2.74,5.92-10.26,11.83-21.89,5.13-10.94,8.28-16.42,9.86-16.42,3.55,0,9.07,7.52,16.96,21.2,7.1,15.05,11.04,23.26,11.04,25.99,0,6.84-1.97,9.58-5.13,9.58h-126.58v177.84c0,19.15-5.13,34.2-14.59,43.78-7.49,6.16-13.01,9.58-16.96,9.58-5.52,0-8.68-6.16-9.07-17.78-2.37-10.26-17.75-21.2-46.14-32.83l1.18-10.94c26.81,5.47,43.77,8.21,51.26,8.21s11.44-4.79,11.44-13.68v-164.16h-74.13c-19.32,0-33.12,2.05-41.01,4.79l-7.49-29.41c11.04,4.1,27.21,6.16,48.5,6.16ZM5417.71,620.57c8.68,16.42,13.01,27.36,13.01,33.52,0,4.1-2.76,6.16-7.89,6.84-5.52,1.37-9.07,2.05-10.65,3.42l-59.54,82.08c6.31,13,13.8,24.62,21.69,34.88,26.03,33.52,53.24,58.82,82.42,76.61l-1.18,8.21c-8.68,2.74-14.2,9.58-16.17,19.84-1.97,8.21-3.94,12.31-5.92,12.31-4.73,0-14.2-7.52-28-23.94-16.56-17.78-33.52-41.04-51.26-68.4-14.59-27.36-26.81-56.77-36.67-89.6-11.44-38.3-20.9-89.6-28.79-152.53h9.46c1.97,18.47,5.52,37.62,10.25,57.46h74.53c2.76-3.42,5.92-7.52,9.46-11.63,4.73-6.84,7.89-10.94,10.25-10.94,2.76,0,7.89,7.52,14.98,21.89ZM5324.65,682.13c6.31,20.52,13.8,38.3,22.08,54.04l41.8-95.76h-75.32c3.15,14.36,7.1,28.04,11.44,41.72ZM5395.63,1052.18c11.44,17.1,17.35,34.2,18.14,51.3,0,7.52-1.18,14.36-3.15,19.84-3.15,6.16-6.31,9.58-9.46,9.58-5.52,0-10.65-8.89-16.17-26.68-21.29-54.72-45.35-95.08-71.37-122.44l2.76-8.21c31.15,20.52,57.57,46.51,79.26,76.61Z"/>
    <path d="M5817.56,674.61c-18.53-2.74-31.94-4.79-39.83-4.79-32.73,0-60.73,24.62-83.99,73.87-22.08,46.51-33.12,98.5-33.12,155.95,0,98.5,29.18,156.64,87.54,173.74,14.59,4.1,22.08,15.73,22.08,34.2,0,13-5.92,19.84-17.35,19.84-26.03,0-49.29-15.05-70.59-44.46-27.6-38.3-41.01-92.34-41.01-162.79,0-53.35,7.89-103.28,24.05-149.8,15.77-46.51,37.46-81.4,64.67-104.65-63.09,16.42-111.6,36.94-146.3,60.88l-14.2,13.68c-6.31,6.84-11.44,9.58-14.59,9.58-5.92,0-14.2-8.21-25.24-24.62-11.04-16.42-16.56-29.41-16.56-38.99,0-4.1.79-6.16,3.15-6.16,3.15,3.42,6.7,6.84,10.25,10.26,6.31,6.84,13.01,9.58,19.32,9.58,1.58,0,29.97-8.89,85.18-27.36,61.52-19.84,106.08-33.52,134.07-40.36,1.58,0,5.13-2.05,9.86-4.79,4.73-2.74,8.28-4.1,11.04-4.1,5.52,0,13.8,4.79,24.05,14.36,10.25,9.58,15.38,18.47,15.38,26.68,0,6.84-2.76,10.26-7.89,10.26ZM5792.72,848.35c-4.34,0-7.89-3.42-11.04-10.94-11.04-25.31-21.69-45.83-31.55-60.88-4.73-6.84-6.7-10.94-6.7-13.68s1.18-4.79,4.34-4.79c8.68,0,19.72,7.52,33.12,21.2,14.59,15.73,22.08,31.46,22.08,46.51s-3.55,22.57-10.25,22.57ZM5825.05,800.47c-4.34,0-7.89-2.74-10.25-9.58-10.25-23.94-20.9-42.41-31.55-54.72-5.52-6.16-8.28-10.26-8.28-12.31,0-4.1,1.18-6.16,3.94-6.16,10.25,0,21.69,6.16,34.31,17.78,14.2,13.68,21.29,28.04,21.29,43.78,0,14.36-3.15,21.2-9.46,21.2Z"/>
    <path d="M5959.12,619.89c3.15,1.37,5.13,4.1,5.13,6.84,0,4.1-3.15,8.21-9.07,13-3.55,3.42-5.13,9.58-5.13,18.47v138.85h97.4v-191.52c0-21.2-.79-40.36-1.58-57.46,7.49,1.37,17.35,3.42,29.18,6.16,8.28,2.05,12.62,4.79,12.62,7.52,0,6.16-3.55,10.94-10.25,14.36-4.73,2.74-6.7,6.16-6.7,11.63v209.31h96.61c0-7.52.39-15.05.39-22.57v-97.81c0-25.31-.79-47.88-1.58-67.03l28.39,6.16c7.89,2.05,11.83,4.79,11.83,7.52,0,6.84-3.15,11.63-9.07,14.36-4.73,2.74-6.7,6.16-6.7,11.63v125.17c0,19.15.39,41.04,1.97,64.98,0,4.1-1.97,7.52-5.13,9.58-5.52,2.74-10.25,3.42-14.2,3.42-4.34,0-6.7-3.42-7.1-10.94.39-8.89.79-17.78.79-25.99h-96.22v278.39h104.5v-141.59c0-25.99-.79-48.56-1.58-67.72,7.49,1.37,16.96,3.42,28.79,6.16,7.89,2.74,11.83,5.47,11.83,8.21,0,6.16-3.15,10.94-9.46,13.68-4.34,2.74-6.31,6.84-6.31,12.31v151.17c0,19.15.39,40.36,1.97,64.98,0,4.1-1.97,7.52-5.13,10.26-5.52,2.05-10.25,3.42-14.2,3.42-4.73,0-7.1-4.1-7.49-11.63l1.18-30.78h-230.29c-4.73,15.05-9.07,23.26-13.41,23.26s-8.28-2.05-11.83-4.79c-6.7-6.16-9.86-10.94-9.86-14.36s1.18-6.84,3.94-10.94c2.37-5.47,3.94-10.94,4.34-15.73v-157.32c0-14.36-1.18-29.41-2.76-45.14l35.1,10.94c3.15,1.37,5.13,3.42,5.13,6.16,0,4.1-3.15,8.21-9.46,13-3.55,3.42-5.13,9.58-5.13,18.47v158.01h106.86v-278.39h-93.46c-4.73,17.78-9.46,26.68-13.41,26.68-4.34,0-8.28-1.37-12.22-4.79-6.31-6.16-9.46-10.94-9.46-15.05,0-2.74,1.18-6.16,3.94-10.26,2.37-6.16,3.55-11.63,3.94-16.42v-140.91c0-14.36-1.18-29.41-2.76-45.14l35.1,10.26Z"/>
    <path d="M6481.22,580.9c7.89,12.31,12.22,24.62,12.22,36.94,0,8.21-1.18,15.05-2.76,19.84h91.09c1.58-2.74,5.52-8.89,11.04-19.84,5.13-9.58,8.68-15.05,10.65-15.05,2.37,0,8.68,8.21,18.93,24.62,6.31,10.94,9.46,17.1,9.46,19.15,0,6.84-1.97,9.58-5.13,9.58h-281.95v33.52c0,81.4-1.97,152.53-5.52,212.73-3.94,55.4-11.44,106.71-22.48,153.9-9.86,36.94-22.87,73.87-39.04,111.49l-4.73-6.16c18.14-60.88,30.36-119.02,36.28-173.74,7.89-65.66,12.22-165.53,12.22-298.23,0-34.2-1.18-59.51-2.76-74.56,11.04,8.21,20.11,15.73,27.21,22.57h123.82c-1.58-3.42-2.76-8.21-3.55-13.68-6.7-29.41-17.35-54.04-31.55-74.56l3.94-6.84c19.72,13,33.91,25.99,42.59,38.3ZM6493.84,684.87c7.49,2.74,11.44,5.47,11.44,8.21,0,5.47-3.15,10.26-9.07,13.68-4.73,2.74-6.7,6.84-6.7,12.31v67.72h84.39c1.58-2.05,5.13-8.21,10.25-17.78,4.73-8.89,8.28-13.68,10.25-13.68s7.89,8.21,17.75,23.26c5.92,9.58,9.07,15.73,9.07,17.78,0,6.84-1.97,9.58-5.52,9.58h-126.19v120.39h70.19l9.07-17.78c2.76-5.47,5.13-8.21,7.1-8.21,2.37,0,6.7,5.47,13.8,15.05,6.31,9.58,9.86,15.73,9.86,19.84s-1.97,8.89-5.92,13-5.52,8.21-5.52,12.31v148.43c0,11.63.39,27.36,1.97,46.51,0,3.42-1.97,6.16-5.13,8.89-5.52,2.05-10.25,3.42-14.2,3.42s-5.92-4.1-5.92-10.94v-38.3h-160.1v37.62c0,2.74-1.58,5.47-4.34,8.21-5.13,2.05-9.46,3.42-13.01,3.42-4.73,0-7.1-4.1-7.1-11.63.79-13.68,1.58-26.68,1.58-38.99v-160.74c0-17.78-.79-35.57-1.58-53.35,8.68,6.16,17.75,13.68,27.21,23.26h58.76v-214.09c0-10.94-.39-21.89-1.18-33.52,7.49,1.37,16.96,3.42,28.79,6.16ZM6564.82,1100.06v-155.27h-160.1v155.27h160.1Z"/>
    <path d="M7011.99,725.23c-8.28-1.37-16.56-3.42-24.45-4.79-16.96-2.74-31.55-4.79-43.77-4.79-18.14,0-38.64,1.37-62.3,3.42l-.39,111.49c9.46,19.84,14.2,54.72,14.2,103.97,0,85.5-17.75,147.75-52.84,186.05-20.11,21.89-38.64,32.83-55.6,32.83-2.37,0-3.55-1.37-3.55-3.42,0-2.74,1.97-4.79,6.31-7.52,50.47-32.15,76.9-87.55,78.87-168.27-10.25,19.15-23.27,28.04-38.25,28.04-13.8,0-24.84-10.94-33.12-34.2-7.49-19.15-11.04-41.72-11.04-67.03,0-28.73,4.73-53.35,14.98-74.56,9.86-20.52,22.87-31.46,39.43-31.46,7.89,0,14.59,2.74,20.51,6.84v-80.71c-42.59,6.16-77.29,16.42-103.32,30.1-1.18.68-7.1,4.79-17.35,12.31-7.49,5.47-13.41,8.21-17.74,8.21-5.13,0-12.62-6.84-22.48-21.89s-14.59-26.68-14.59-34.88c0-4.1,1.18-6.16,3.55-6.16l8.68,9.58c5.92,6.16,11.83,8.89,18.14,8.89,3.55,0,20.9-3.42,52.05-10.94,23.66-5.47,54.42-11.63,93.06-19.15,0-43.78-1.58-69.77-4.34-79.34-3.15-8.89-8.28-16.42-15.38-22.57-7.49-5.47-11.04-8.21-11.04-8.89,0-5.47,2.76-8.89,8.67-8.89,8.28,0,18.14,3.42,29.18,8.89,13.8,8.21,20.9,17.78,20.9,28.73l-3.94,17.1c-2.76,11.63-3.94,22.57-3.94,33.52v28.04l65.07-8.89c7.89-.68,16.17-3.42,24.45-8.89,8.28-4.1,13.8-6.84,16.17-6.84,4.73,0,11.04,6.16,19.72,17.1,8.28,11.63,12.62,21.2,12.62,28.04,0,7.52-2.37,10.94-7.1,10.94ZM6858.99,837.4c-5.92-16.42-14.2-24.62-24.84-24.62s-20.11,8.89-26.82,25.99c-5.92,15.73-8.67,33.52-8.67,53.35s2.37,36.94,7.89,51.98c6.31,17.78,14.59,26.68,25.24,26.68s19.32-8.89,26.42-28.04c5.52-16.42,8.28-34.2,8.28-54.72s-2.76-36.94-7.49-50.62Z"/>
    <path d="M7331.79,1087.75c-22.08,25.99-50.08,39.67-83.99,39.67-18.93,0-35.1-6.16-49.29-17.1-18.53-15.05-27.6-36.25-27.6-64.98,0-21.89,5.92-38.99,17.75-51.3,9.46-9.58,21.29-14.36,35.49-14.36,13.41,0,28,8.89,42.98,25.31,16.17,19.15,24.45,39.67,24.45,61.56,0,6.84-.79,13-1.97,17.1,35.88-30.1,54.02-71.82,54.02-125.86,0-38.3-7.89-67.72-22.87-87.55-13.41-17.78-31.94-26.68-54.81-26.68s-44.95,13-67.43,37.62c-20.11,22.57-37.46,51.3-51.66,85.5-7.1,17.78-12.22,25.99-15.38,25.99-5.92,0-8.68-13.68-8.68-41.04,0-8.21,4.34-18.47,13.41-30.78,26.81-36.94,68.22-122.44,124.21-257.19,3.16-8.21,5.13-13,5.13-15.05,0-4.1-1.58-6.84-4.73-6.84-4.73,0-15.77,5.47-32.33,16.42-15.38,10.94-26.03,19.15-32.34,24.62-10.25,9.58-16.56,14.36-18.93,14.36-7.1,0-14.59-7.52-22.87-23.94-8.68-15.05-12.62-29.41-12.62-41.72,0-2.74.79-4.79,3.16-4.79l9.46,13.68c6.31,8.21,13.01,11.63,20.9,11.63,9.46,0,24.84-4.1,45.74-13,17.35-7.52,31.55-15.05,42.19-21.89.79,0,3.94-3.42,9.46-8.89,3.94-4.1,7.49-6.16,10.65-6.16,3.55,0,8.67,4.79,15.38,14.36,6.31,9.58,9.46,17.78,9.46,23.94,0,4.1-3.55,8.89-9.86,15.73-7.89,8.21-12.22,13-13.01,14.36-11.44,21.2-42.19,84.82-91.88,190.84,23.66-25.99,52.45-39.67,85.57-39.67,25.24,0,46.53,11.63,63.49,34.2,18.53,25.31,28,59.51,28,101.92,0,56.09-13.01,99.87-38.64,129.96ZM7275.4,1078.86c-7.89-20.52-17.35-38.3-28.79-52.67-13.01-15.05-26.03-23.26-38.64-23.26-7.49,0-13.8,4.1-18.93,12.31-5.52,8.21-8.28,17.78-8.28,30.1,0,21.89,6.7,37.62,20.11,47.88,9.86,8.21,22.08,11.63,36.28,11.63,14.99,0,30.36-4.79,45.74-15.05-3.16-1.37-5.92-5.47-7.49-10.94Z"/>
    <path d="M7664.21,580.9c7.89,12.31,12.22,24.62,12.22,36.94,0,8.21-1.18,15.05-2.76,19.84h91.09c1.58-2.74,5.52-8.89,11.04-19.84,5.13-9.58,8.68-15.05,10.65-15.05,2.37,0,8.68,8.21,18.93,24.62,6.31,10.94,9.46,17.1,9.46,19.15,0,6.84-1.97,9.58-5.13,9.58h-281.95v33.52c0,81.4-1.97,152.53-5.52,212.73-3.94,55.4-11.44,106.71-22.48,153.9-9.86,36.94-22.87,73.87-39.04,111.49l-4.73-6.16c18.14-60.88,30.36-119.02,36.28-173.74,7.89-65.66,12.22-165.53,12.22-298.23,0-34.2-1.18-59.51-2.76-74.56,11.04,8.21,20.11,15.73,27.21,22.57h123.82c-1.58-3.42-2.76-8.21-3.55-13.68-6.7-29.41-17.35-54.04-31.55-74.56l3.94-6.84c19.72,13,33.91,25.99,42.59,38.3ZM7676.83,684.87c7.49,2.74,11.44,5.47,11.44,8.21,0,5.47-3.15,10.26-9.07,13.68-4.73,2.74-6.7,6.84-6.7,12.31v67.72h84.39c1.58-2.05,5.13-8.21,10.25-17.78,4.73-8.89,8.28-13.68,10.25-13.68s7.89,8.21,17.75,23.26c5.92,9.58,9.07,15.73,9.07,17.78,0,6.84-1.97,9.58-5.52,9.58h-126.19v120.39h70.19l9.07-17.78c2.76-5.47,5.13-8.21,7.1-8.21,2.37,0,6.7,5.47,13.8,15.05,6.31,9.58,9.86,15.73,9.86,19.84s-1.97,8.89-5.91,13-5.52,8.21-5.52,12.31v148.43c0,11.63.39,27.36,1.97,46.51,0,3.42-1.97,6.16-5.13,8.89-5.52,2.05-10.25,3.42-14.2,3.42s-5.92-4.1-5.92-10.94v-38.3h-160.1v37.62c0,2.74-1.58,5.47-4.34,8.21-5.13,2.05-9.46,3.42-13.01,3.42-4.73,0-7.1-4.1-7.1-11.63.79-13.68,1.58-26.68,1.58-38.99v-160.74c0-17.78-.79-35.57-1.58-53.35,8.68,6.16,17.75,13.68,27.21,23.26h58.76v-214.09c0-10.94-.39-21.89-1.18-33.52,7.49,1.37,16.96,3.42,28.79,6.16ZM7747.81,1100.06v-155.27h-160.1v155.27h160.1Z"/>
    <path d="M7955.62,559.01c7.89,4.1,11.83,7.52,11.83,10.94,0,4.1-2.37,6.16-6.7,6.84-3.94,1.37-5.92,3.42-6.7,4.79-1.58,5.47-3.15,10.94-4.73,15.05,19.72,13.68,36.67,30.1,50.87,47.88,9.46,13,14.2,25.99,14.98,38.3,0,6.84-1.18,13-2.76,17.1-2.37,5.47-5.13,8.21-7.89,8.21-4.73,0-9.07-6.84-13.01-20.52-14.2-33.52-29.58-60.19-45.74-80.03-9.46,28.73-19.72,52.67-29.97,71.14-14.98,31.46-34.7,62.24-59.94,90.97l-3.94-8.89c14.2-21.89,29.58-51.98,46.14-91.66,13.41-32.15,25.24-72.5,35.88-121.07,7.89,4.79,15.38,8.21,21.69,10.94ZM7928.41,758.06h1.18v-47.2c0-9.58-.39-19.15-1.18-29.41,6.31,1.37,14.59,2.74,24.84,5.47,6.31,2.05,9.86,4.1,9.86,6.84,0,5.47-2.76,9.58-7.89,12.31-3.94,1.37-5.52,4.79-5.52,10.26v41.72h20.9l9.07-17.1c4.34-7.52,7.1-11.63,8.28-11.63,3.15,0,7.49,6.16,13.41,17.1,6.31,11.63,9.46,18.47,9.46,20.52,0,6.84-1.58,9.58-4.73,9.58h-56.39v88.24h28l10.65-20.52c4.73-9.58,7.49-15.05,9.07-15.05,3.55,0,9.07,6.84,16.17,19.84,7.1,14.36,11.04,22.57,11.04,24.62,0,6.84-1.97,9.58-5.52,9.58h-109.23c-19.72,0-33.52,2.05-41.41,4.79l-7.1-29.41c11.04,4.1,27.21,6.16,48.5,6.16h19.72v-88.24h-1.18c-19.72,0-33.52,2.05-41.4,4.79l-7.49-29.41c11.04,4.1,27.6,6.16,48.9,6.16ZM7905.14,950.26h62.3l8.28-12.31c2.37-3.42,4.34-5.47,5.92-5.47,1.97,0,6.31,4.79,12.62,13,5.52,8.21,8.67,14.36,8.67,17.78,0,4.1-1.97,7.52-5.52,10.94-3.15,4.1-4.34,7.52-4.34,11.63v127.91c0,9.58.39,23.26,1.58,40.36,0,2.74-1.58,5.47-4.34,7.52-4.73,2.05-9.07,3.42-12.62,3.42-3.15,0-4.73-3.42-4.73-9.58v-42.41h-67.83v42.41c0,2.74-1.58,4.79-3.94,6.16-4.34,2.05-7.89,3.42-11.04,3.42-4.73,0-6.7-3.42-6.7-9.58.79-11.63,1.58-23.26,1.58-34.2v-142.27c0-15.05-.79-30.78-1.58-46.51,7.1,4.79,14.2,10.94,21.69,17.78ZM7972.97,1094.59v-125.86h-67.83v125.86h67.83ZM8063.67,658.88h37.86v-50.62c0-23.94-.79-45.14-1.58-62.93,6.7,1.37,15.38,2.74,26.42,5.47,7.49,2.74,11.44,4.79,11.44,7.52,0,6.16-3.16,10.94-8.68,13.68-3.94,2.05-5.92,5.47-5.92,10.94v75.92h51.66c1.18-2.74,4.34-8.21,9.46-17.1,4.73-8.89,7.49-13.68,8.28-13.68,3.16,0,7.89,6.16,14.99,17.78,6.31,12.31,9.46,19.84,9.46,22.57,0,6.16-1.58,8.89-4.73,8.89h-89.12v72.5h46.14c2.37-4.1,4.34-8.89,6.31-13.68,3.55-5.47,6.31-8.89,8.28-8.89,1.58,0,5.52,4.1,11.44,11.63,6.31,9.58,9.46,16.42,9.46,19.15,0,5.47-1.58,8.89-4.73,11.63-3.94,2.74-5.52,6.16-5.52,9.58v342c0,13.68-4.34,24.62-12.62,32.83-6.7,5.47-12.62,8.21-17.35,8.21-4.34,0-6.31-5.47-6.31-16.42-.79-11.63-10.65-22.57-29.58-32.15l1.97-10.26c14.2,5.47,25.24,8.21,33.91,8.21,6.7,0,10.25-4.79,10.25-13v-119.02h-51.66v103.97c0,18.47.39,38.3,1.58,60.88,0,4.1-1.58,6.84-4.73,9.58-5.13,2.05-9.46,3.42-13.01,3.42-4.34,0-6.7-4.1-7.1-10.94.79-23.26,1.58-43.78,1.58-62.93v-103.97h-50.08v178.53c0,3.42-1.58,6.16-4.34,8.89-3.94,2.05-7.49,3.42-10.65,3.42-4.73,0-6.7-3.42-6.7-10.26.79-23.26,1.58-44.46,1.58-62.24v-308.49c0-15.05-.79-34.2-1.58-57.46,7.49,4.79,14.59,10.94,21.69,17.78h50.08v-72.5h-37.86c-19.32,0-33.12,2.05-41.01,4.79l-7.49-29.41c11.04,4.1,27.21,6.16,48.5,6.16ZM8101.52,851.08v-82.76h-50.08v82.76h50.08ZM8101.52,960.52v-90.29h-50.08v90.29h50.08ZM8123.21,851.08h51.66v-82.76h-51.66v82.76ZM8123.21,960.52h51.66v-90.29h-51.66v90.29ZM8179.99,581.58c7.1,8.21,11.04,16.42,11.04,24.62,0,6.84-1.58,13.68-3.94,19.84-3.55,6.84-7.1,10.26-10.25,10.26-6.7,0-11.04-7.52-13.41-23.94-4.73-20.52-11.83-38.3-21.69-52.67l3.55-6.16c16.17,9.58,27.6,19.15,34.7,28.04Z"/>
    <path d="M8419.75,557.64c8.67,4.1,13.01,7.52,13.01,11.63s-2.76,6.84-7.89,7.52c-3.94,1.37-5.92,3.42-6.7,5.47-8.67,22.57-17.75,43.09-27.21,60.88h133.68c3.55-6.16,7.1-11.63,11.04-16.42,3.15-4.1,5.52-6.84,7.89-6.84,1.97,0,6.7,6.16,14.59,17.1,7.49,11.63,11.44,19.15,11.44,23.26,0,5.47-2.37,8.89-6.31,10.26-4.73,2.05-8.28,6.16-11.04,13-18.93,41.04-40.22,79.34-63.49,114.23-23.27,36.25-52.05,68.4-85.96,97.13-6.31,5.47-13.01,10.94-19.32,15.05h140.78l9.86-15.05c2.76-4.79,5.13-7.52,7.1-7.52,2.37,0,7.49,5.47,14.59,15.05,7.1,10.26,11.04,17.78,11.04,21.89s-1.97,8.21-5.92,13c-3.55,4.1-5.13,8.89-5.13,13.68v153.9c0,12.31.79,28.73,2.37,49.25,0,4.1-1.97,6.84-5.52,9.58-5.92,2.74-11.04,4.1-15.38,4.1-3.94,0-5.92-4.1-5.92-11.63v-34.88h-173.51v36.94c0,3.42-1.58,6.16-3.94,8.89-5.52,2.05-9.86,3.42-13.41,3.42-4.73,0-7.1-4.1-7.1-12.31.79-13,1.58-25.99,1.58-38.3v-179.89c-24.45,13.68-52.05,25.31-82.02,35.57l-1.97-10.94c28.39-13,56-30.1,83.6-50.62l-1.18-26.68c5.92,4.1,11.83,8.89,17.75,14.36,22.08-17.1,44.17-36.94,65.46-58.82,43.77-47.2,80.84-107.39,111.2-181.26h-146.69c-7.1,12.31-14.2,23.94-21.29,33.52-23.27,35.57-54.02,70.45-92.27,103.97l-4.34-9.58c22.87-24.62,48.11-60.19,74.92-106.02,21.69-36.25,41.01-82.08,57.97-138.17,8.67,5.47,16.56,9.58,23.66,12.31ZM8399.24,756c3.94,3.42,8.68,8.21,14.2,15.05,6.31,9.58,9.86,20.52,9.86,32.15,0,7.52-1.18,13.68-3.55,18.47-2.37,6.84-5.13,9.58-8.28,9.58-4.73,0-9.07-4.79-13.01-15.73-12.62-36.94-28-64.98-45.74-82.76l3.15-5.47c16.17,7.52,30.76,17.1,43.38,28.73ZM8531.34,1102.11v-173.05h-173.51v173.05h173.51Z"/>
    <path d="M8745.07,883.23l-19.32,93.02c-3.94,20.52-6.7,43.78-8.28,71.14-1.58,28.73-2.76,47.88-4.34,56.77-1.18,5.47-3.55,8.89-7.1,8.89-11.04,0-19.72-23.94-25.24-72.5-4.34-33.52-6.31-66.35-6.31-97.81,0-79.34,6.31-161.43,19.32-245.56,4.34-28.73,6.7-45.83,6.7-50.62,0-13.68-2.76-25.31-7.49-36.25-2.37-4.1-5.13-8.89-7.89-15.73,0-2.74,1.18-4.79,3.55-4.79,4.73,0,11.83,8.21,21.29,23.26,11.04,18.47,16.96,36.94,16.96,54.72,0,4.79-2.37,15.73-7.1,33.52-3.55,11.63-6.7,23.26-9.86,34.88-13.41,52.67-20.11,114.23-20.11,185.37,0,50.62,3.94,75.24,12.62,75.24,3.15,0,15.77-39.67,37.86-119.02,1.58-5.47,2.76-8.89,3.55-8.89,1.58,0,2.76,1.37,2.76,4.1,0,2.05-.79,5.47-1.58,10.26ZM8964.32,1093.22c-3.15,0-7.49-2.74-12.22-9.58l-10.65-15.73c-14.2-19.15-27.6-35.57-40.22-49.25-.39,36.25-5.92,62.24-16.56,77.29-9.86,14.36-25.24,21.89-46.53,21.89-16.56,0-30.76-6.16-42.59-17.78-14.59-13.68-21.69-34.2-21.69-60.88s5.92-45.83,18.53-60.88c11.04-13.68,24.05-20.52,39.43-20.52s31.55,3.42,47.32,10.26l-2.76-196.31c-23.66,5.47-42.19,8.21-55.6,8.21-16.56,0-29.97-8.21-39.43-25.31-7.1-11.63-10.25-21.2-10.25-29.41,0-4.1,1.18-6.84,3.55-6.84l9.86,15.73c7.1,9.58,14.98,13.68,23.66,13.68,27.21,0,49.69-2.05,67.83-6.84l-.79-77.29c-.39-15.05-1.58-26.68-3.94-34.2-3.15-8.89-8.67-15.73-16.56-20.52-4.73-2.74-7.1-5.47-7.1-8.21,0-4.1,3.55-6.84,11.04-6.84,6.31,0,14.98,4.1,26.03,12.31,12.22,9.58,18.53,18.47,18.53,27.36,0,2.74-1.18,8.89-3.55,17.1-2.37,8.89-3.55,16.42-3.55,22.57l-.79,61.56c7.1-2.74,15.38-6.16,24.05-10.26,2.37-1.37,7.1-5.47,13.8-12.31,5.52-6.16,9.46-9.58,11.83-9.58,3.94,0,8.28,2.74,13.8,6.84,5.52,4.79,8.28,10.26,8.28,15.73,0,15.05-24.05,28.73-71.77,41.72,0,66.35,1.58,137.49,5.13,214.09,26.81,17.78,48.11,39.67,63.88,64.98,5.92,9.58,9.07,19.84,9.07,30.78s-3.15,16.42-9.07,16.42ZM8879.53,998.83c-15.38-10.94-31.94-16.42-49.69-16.42-12.62,0-23.27,4.1-31.15,11.63-10.65,9.58-15.77,24.62-15.77,44.46,0,17.78,5.92,30.78,18.14,39.67,8.68,6.84,18.93,10.26,30.76,10.26,31.55,0,47.71-21.89,47.71-66.35v-23.26Z"/>
    <path d="M741.35,1862.72v321.48h-63.49v-430.24h109.62v108.76h-46.14ZM768.56,1785.42h-71.77v365.94h25.63v-320.8h46.14v-45.14Z"/>
    <path d="M948.37,2301.16c-14.2,0-26.81-6.84-37.86-20.52-5.13-6.16-13.41-19.84-24.45-41.72l-12.62,56.77h-11.04l-4.73-168.95,11.44-.68c8.28,46.51,20.51,85.5,37.07,115.6,14.98,28.04,28.79,41.72,42.19,41.72,14.2,0,25.24-8.89,33.91-27.36,8.28-17.78,12.62-41.72,12.62-71.82,0-36.25-18.14-71.82-54.02-107.39-26.81-25.99-44.56-46.51-54.02-62.25-14.98-24.62-22.08-53.35-22.08-87.55,0-36.94,5.13-65.66,15.77-85.5,10.25-19.15,24.05-29.41,41.41-29.41,24.45,0,42.98,17.1,56.39,50.62l6.7-46.51h11.04l6.7,153.9h-11.83c-10.25-45.83-20.11-79.34-28.79-99.87-11.83-26.68-24.84-40.36-39.04-40.36-12.22,0-21.69,8.21-28.39,23.94-7.1,16.42-10.65,38.3-10.65,67.03,0,20.52,5.92,39.67,17.74,57.46,7.1,10.94,20.51,25.31,40.22,44.46,24.84,24.62,42.59,45.83,52.84,64.3,14.59,26.68,22.08,56.77,22.08,90.29,0,82.76-22.87,123.8-68.61,123.8Z"/>
    <path d="M1091.91,2129.48c0,39.67,4.34,73.19,13.41,100.55,10.25,31.46,24.84,46.51,42.98,46.51s36.28-24.62,52.05-74.56l6.7,6.84c-8.68,32.83-17.35,55.4-26.03,69.08-10.25,15.73-23.27,23.26-39.04,23.26-24.45,0-43.77-15.73-58.76-48.56-14.59-30.78-21.69-69.77-21.69-117.65s6.7-88.24,20.51-121.07c14.59-35.57,34.31-53.35,58.76-53.35,22.48,0,39.83,17.78,51.66,53.35,9.86,30.78,14.98,69.08,14.98,115.6h-115.54ZM1168.8,2011.83c-6.7-21.89-16.56-33.52-29.57-33.52-15.38,0-27.21,15.05-35.88,45.14-7.89,25.99-11.44,55.4-11.44,88.24h67.83c11.44,0,17.35-8.89,17.35-27.36,0-29.41-2.76-53.35-8.28-72.5Z"/>
    <path d="M1347.04,2301.16c-14.98,0-26.03-7.52-33.91-23.26-7.89-15.05-11.83-35.57-11.83-61.56v-227.77h-32.34v-17.78c14.59,0,26.03-13.68,34.7-41.04,7.49-23.94,11.44-54.04,11.44-90.29h11.83v131.33h54.02v17.78h-54.02v205.89c0,49.93,9.46,74.56,28.39,74.56,10.65,0,18.93-10.26,24.84-30.78,4.34-16.42,6.7-35.57,6.7-57.46h7.49c0,80.71-15.77,120.38-47.32,120.38Z"/>
    <path d="M1544.21,2301.16c-14.98,0-26.03-7.52-33.91-23.26-7.89-15.05-11.83-35.57-11.83-61.56v-227.77h-32.34v-17.78c14.59,0,26.03-13.68,34.7-41.04,7.49-23.94,11.44-54.04,11.44-90.29h11.83v131.33h54.02v17.78h-54.02v205.89c0,49.93,9.46,74.56,28.39,74.56,10.65,0,18.93-10.26,24.84-30.78,4.34-16.42,6.7-35.57,6.7-57.46h7.49c0,80.71-15.77,120.38-47.32,120.38Z"/>
    <path d="M1683.4,2129.48c0,39.67,4.34,73.19,13.41,100.55,10.25,31.46,24.84,46.51,42.98,46.51s36.28-24.62,52.05-74.56l6.7,6.84c-8.68,32.83-17.35,55.4-26.03,69.08-10.25,15.73-23.27,23.26-39.04,23.26-24.45,0-43.77-15.73-58.76-48.56-14.59-30.78-21.69-69.77-21.69-117.65s6.7-88.24,20.51-121.07c14.59-35.57,34.31-53.35,58.76-53.35,22.48,0,39.83,17.78,51.66,53.35,9.86,30.78,14.98,69.08,14.98,115.6h-115.54ZM1760.3,2011.83c-6.7-21.89-16.56-33.52-29.57-33.52-15.38,0-27.21,15.05-35.88,45.14-7.89,25.99-11.44,55.4-11.44,88.24h67.83c11.44,0,17.35-8.89,17.35-27.36,0-29.41-2.76-53.35-8.28-72.5Z"/>
    <path d="M2120.32,2301.16c-54.02,0-80.84-81.4-80.84-244.19s26.81-244.87,80.84-244.87,80.84,82.08,80.84,244.87-27.21,244.19-80.84,244.19ZM2120.32,1829.88c-34.31,0-51.26,75.92-51.26,227.09s16.96,226.41,51.26,226.41c20.11,0,34.31-23.94,42.59-73.19,5.52-34.88,8.68-86.18,8.68-153.22,0-151.17-17.35-227.09-51.26-227.09Z"/>
    <path d="M2332.87,2301.16c-14.98,0-26.03-7.52-33.91-23.26-7.89-15.05-11.83-35.57-11.83-61.56v-227.77h-32.34v-17.78c14.59,0,26.03-13.68,34.7-41.04,7.49-23.94,11.44-54.04,11.44-90.29h11.83v131.33h54.02v17.78h-54.02v205.89c0,49.93,9.46,74.56,28.39,74.56,10.65,0,18.93-10.26,24.84-30.78,4.34-16.42,6.7-35.57,6.7-57.46h7.49c0,80.71-15.77,120.38-47.32,120.38Z"/>
    <path d="M2530.03,2301.16c-14.98,0-26.03-7.52-33.91-23.26-7.89-15.05-11.83-35.57-11.83-61.56v-227.77h-32.34v-17.78c14.59,0,26.03-13.68,34.7-41.04,7.49-23.94,11.44-54.04,11.44-90.29h11.83v131.33h54.02v17.78h-54.02v205.89c0,49.93,9.46,74.56,28.39,74.56,10.65,0,18.93-10.26,24.84-30.78,4.34-16.42,6.7-35.57,6.7-57.46h7.49c0,80.71-15.77,120.38-47.32,120.38Z"/>
    <path d="M2763.47,2246.44c-13.41,36.94-30.36,54.72-51.26,54.72s-38.25-17.78-51.66-54.04c-12.62-32.83-18.53-71.82-18.53-116.28s5.92-82.76,18.53-116.28c13.41-36.25,30.36-54.72,51.66-54.72s37.86,18.47,51.26,54.04c11.83,33.52,18.14,72.5,18.14,116.28s-6.31,83.45-18.14,116.28ZM2743.36,2030.3c-7.1-34.88-17.35-52.67-31.15-52.67s-24.45,17.78-31.55,53.35c-5.52,28.04-8.28,61.56-8.28,99.87s2.76,72.5,8.28,99.87c7.1,35.57,17.35,52.67,31.55,52.67s24.05-17.78,31.15-53.35c5.13-27.36,7.89-60.19,7.89-99.86s-2.76-72.5-7.89-99.87Z"/>
    <path d="M3170.82,2048.08c-14.98,23.94-34.31,35.57-57.57,35.57h-40.22v141.59c0,19.15,1.58,31.46,4.73,37.62,3.15,6.84,9.86,10.26,20.11,10.26h3.55v17.78h-82.81v-17.78h5.13c9.86,0,16.56-4.1,19.72-12.31,2.37-6.16,3.55-17.78,3.55-35.57v-333.79c0-17.78-1.97-30.78-5.13-38.99-3.55-8.21-9.46-12.31-18.14-12.31h-5.13v-17.79h97.4c51.66,0,77.68,44.46,77.68,132.01,0,39.67-7.89,70.45-22.87,93.71ZM3114.82,1840.15h-12.62c-19.72,0-29.18,17.1-29.18,51.3v174.42h30.76c38.65,0,57.97-37.62,57.97-112.86s-15.77-112.86-46.93-112.86Z"/>
    <path d="M3378.24,2282.7c-6.31,8.21-12.22,12.31-18.14,12.31-17.75,0-28.39-20.52-31.94-61.56-6.31,19.15-14.59,35.57-24.45,48.56-10.25,13-19.72,19.15-28.39,19.15-37.86,0-56.39-26.68-56.39-80.03,0-34.2,13.01-64.3,39.83-88.92,18.53-17.1,41.41-30.1,68.22-39.67v-49.93c0-21.89-2.76-38.3-7.49-49.25-5.13-9.58-13.8-15.05-26.03-15.05-7.89,0-15.38,2.74-22.48,7.52-9.46,6.84-13.8,15.73-13.8,26.68,0,4.79,1.18,10.94,4.34,17.78,2.76,7.52,4.34,14.36,4.34,19.84,0,20.52-6.31,30.78-18.14,30.78-5.52,0-9.86-3.42-13.01-11.63-3.15-7.52-4.73-16.42-4.73-26.68,0-27.36,7.49-48.56,23.27-64.3,12.22-11.63,26.42-17.78,42.19-17.78,37.86,0,57.18,31.46,57.18,93.02v172.37c0,26.68,6.31,39.67,18.93,39.67,2.76,0,5.52-1.37,8.28-5.47,2.76-4.1,4.34-6.16,5.13-6.16,1.58,0,2.76,2.05,2.76,6.16,0,6.84-3.15,14.36-9.46,22.57ZM3326.97,2109.64c-26.03,13.68-43.77,25.31-53.23,35.57-16.56,18.47-24.84,43.78-24.84,75.24,0,19.15,2.76,34.2,8.68,45.14,5.52,12.31,12.22,17.78,19.72,17.78,9.07,0,18.53-8.21,28.39-25.31,8.68-13.68,15.77-31.46,21.29-52.67v-95.76Z"/>
    <path d="M3509.94,2301.16c-10.65,0-19.72-3.42-27.21-10.94-5.52-4.79-12.22-14.36-20.11-28.04l-17.74,34.2h-7.49v-125.17h7.89c7.89,38.99,16.96,67.03,26.81,84.13,10.65,19.15,23.66,28.04,39.43,28.04,10.65,0,19.32-4.79,26.03-15.05,6.7-10.26,10.25-23.94,10.25-41.72,0-36.25-16.56-62.93-48.9-79.34-39.04-19.15-58.36-51.98-58.36-98.5,0-26.68,3.94-47.88,12.22-64.3,7.89-15.73,19.32-23.94,33.91-23.94,17.35,0,31.55,10.26,42.59,30.1l14.2-26.68h6.7v108.07h-7.49c-8.28-34.2-15.77-57.46-22.48-70.45-8.68-15.05-19.72-23.26-33.12-23.26-21.29,0-31.55,17.78-31.55,51.98,0,30.78,16.96,54.72,51.66,71.14,37.46,19.15,56.39,52.67,56.39,101.23,0,65.67-18.14,98.5-53.63,98.5Z"/>
    <path d="M3713.02,2301.16c-14.98,0-26.03-7.52-33.91-23.26-7.89-15.05-11.83-35.57-11.83-61.56v-227.77h-32.34v-17.78c14.59,0,26.03-13.68,34.7-41.04,7.49-23.94,11.44-54.04,11.44-90.29h11.83v131.33h54.02v17.78h-54.02v205.89c0,49.93,9.46,74.56,28.39,74.56,10.65,0,18.93-10.26,24.84-30.78,4.34-16.42,6.7-35.57,6.7-57.46h7.49c0,80.71-15.77,120.38-47.32,120.38Z"/>
    <path d="M3969.73,2282.7c-6.31,8.21-12.22,12.31-18.14,12.31-17.75,0-28.39-20.52-31.94-61.56-6.31,19.15-14.59,35.57-24.45,48.56-10.25,13-19.72,19.15-28.39,19.15-37.86,0-56.39-26.68-56.39-80.03,0-34.2,13.01-64.3,39.83-88.92,18.53-17.1,41.41-30.1,68.22-39.67v-49.93c0-21.89-2.76-38.3-7.49-49.25-5.13-9.58-13.8-15.05-26.03-15.05-7.89,0-15.38,2.74-22.48,7.52-9.46,6.84-13.8,15.73-13.8,26.68,0,4.79,1.18,10.94,4.34,17.78,2.76,7.52,4.34,14.36,4.34,19.84,0,20.52-6.31,30.78-18.14,30.78-5.52,0-9.86-3.42-13.01-11.63-3.15-7.52-4.73-16.42-4.73-26.68,0-27.36,7.49-48.56,23.27-64.3,12.22-11.63,26.42-17.78,42.19-17.78,37.86,0,57.18,31.46,57.18,93.02v172.37c0,26.68,6.31,39.67,18.93,39.67,2.76,0,5.52-1.37,8.28-5.47,2.76-4.1,4.34-6.16,5.13-6.16,1.58,0,2.76,2.05,2.76,6.16,0,6.84-3.15,14.36-9.46,22.57ZM3918.47,2109.64c-26.03,13.68-43.77,25.31-53.23,35.57-16.56,18.47-24.84,43.78-24.84,75.24,0,19.15,2.76,34.2,8.68,45.14,5.52,12.31,12.22,17.78,19.72,17.78,9.07,0,18.53-8.21,28.39-25.31,8.68-13.68,15.77-31.46,21.29-52.67v-95.76Z"/>
    <path d="M4302.54,2240.97c-18.14-59.51-27.21-121.07-27.21-184.68s9.07-124.49,27.21-184.68c18.93-61.56,43.38-106.71,73.35-136.8v14.36c-24.45,32.83-42.98,78.66-55.6,136.12-12.22,53.35-18.14,110.12-18.14,171s5.92,118.33,18.14,171c12.62,58.14,31.15,103.29,55.6,136.12v14.36c-29.97-30.1-54.42-75.24-73.35-136.8Z"/>
    <path d="M4733.94,1964.63l-10.25,11.63c-8.68,14.36-20.9,35.57-37.46,64.3-14.2,24.62-27.6,44.46-39.43,60.19-5.52,6.84-8.28,10.26-9.07,10.26-1.18,0-1.58-.68-1.58-3.42.79-2.05,3.15-7.52,7.89-17.1,10.25-19.84,20.51-42.41,31.15-67.72,15.77-36.94,23.66-62.24,23.66-75.92,0-8.21-3.15-12.31-9.07-12.31-8.68,0-50.08,18.47-124.61,55.4-2.37,64.98-3.15,125.17-3.15,181.26,0,39.67,3.94,65.66,11.83,79.34,7.89,13.68,23.66,20.52,47.32,20.52,19.72,0,37.07-1.37,52.05-5.47,9.86-2.05,18.93-5.47,27.6-10.26,7.1-3.42,10.65-5.47,11.44-5.47,3.94,0,8.68,3.42,14.98,8.89,5.92,6.84,9.07,13,9.07,19.15,0,18.47-28.39,27.36-85.18,27.36h-41.41c-24.45-2.05-42.19-10.26-52.45-25.99-11.83-17.78-17.74-47.88-17.74-90.97,0-2.74,1.58-65.66,5.13-188.1-26.03,14.36-47.32,29.41-64.28,45.83-7.1,6.84-12.22,10.26-14.59,10.26-5.52,0-13.01-7.52-22.87-23.26-10.25-15.05-15.38-26.68-15.38-35.57,0-2.74.79-4.79,2.37-4.79,3.15,3.42,6.31,6.84,9.86,10.26,5.52,5.47,11.44,8.21,16.96,8.21,5.92,0,35.49-11.63,88.33-36.25,1.18-62.93,1.97-107.39,1.97-133.38,0-21.21-4.34-35.57-12.22-42.41-2.37-1.37-4.34-2.05-5.91-3.42-3.15-1.37-4.73-3.42-4.73-4.79,0-5.47,4.73-8.21,14.98-8.21,5.92,0,14.2,4.1,24.45,12.31,11.83,8.89,17.75,17.78,17.75,25.99,0,1.37-1.97,7.52-5.52,19.84-3.94,12.31-5.52,23.94-5.52,34.2,0,3.42-1.58,33.52-3.94,90.29l114.36-51.3,12.62-10.26c5.52-5.47,9.07-8.21,11.04-8.21,3.94,0,11.44,7.52,22.08,22.57,10.25,15.05,15.77,26.68,15.77,33.52,0,2.74-2.76,6.84-8.28,13Z"/>
    <path d="M4915.33,2093.23c-2.76,8.21-6.31,11.63-10.25,11.63-5.52,0-10.65-10.94-14.59-34.2-3.15-17.78-9.07-36.94-17.74-58.14-7.1-17.1-10.65-26.68-10.65-28.04,0-2.74.79-4.79,2.76-4.79,4.73,0,13.8,9.58,28,27.36,16.96,22.57,25.63,43.78,25.63,64.3,0,8.21-1.18,15.73-3.15,21.89ZM5090.81,2004.31c-4.73,10.94-7.1,17.78-7.49,20.52-18.53,77.29-36.67,136.12-54.02,175.79-26.81,60.88-59.54,103.97-98.19,131.33-2.76,1.37-5.13,2.74-7.1,2.74-2.37,0-3.55-2.05-3.55-4.79,0-2.05,1.58-4.79,5.13-7.52,56.78-54.72,98.58-147.06,125.4-277.02,7.49-36.94,11.44-60.88,11.44-72.5,0-9.58-2.76-17.78-7.49-25.99-4.73-8.21-7.1-12.31-7.1-13,0-3.42,1.58-5.47,4.73-5.47,6.31,0,14.98,7.52,26.81,21.2,11.04,14.36,16.96,26.68,16.96,36.25,0,2.05-1.97,8.21-5.52,18.47ZM4980,2046.71c-5.52,0-10.65-12.31-15.38-37.62-5.92-30.78-12.62-53.35-20.51-67.03-2.76-4.1-3.94-7.52-3.94-9.58,0-2.74.79-4.79,3.15-4.79,4.34,0,13.01,8.21,26.42,24.62,15.77,19.84,23.66,39.67,23.66,60.19,0,23.26-4.73,34.2-13.41,34.2Z"/>
    <path d="M5526.15,2015.93l-19.32-5.47c-13.41-3.42-26.03-5.47-38.25-5.47-29.58,0-59.15,1.37-88.73,3.42,17.35,10.94,26.42,21.89,26.42,32.83,0,2.74-1.58,6.84-4.34,12.31-3.15,6.16-5.13,10.94-5.52,13.68-10.25,69.08-25.24,125.17-45.35,167.58-22.08,46.51-51.26,80.03-88.33,102.6-7.89,4.1-12.62,6.84-14.2,6.84-2.76,0-3.94-1.37-3.94-4.1s1.18-5.47,3.94-6.84c32.73-25.99,60.73-64.3,83.99-116.28,24.45-56.09,36.67-113.54,36.67-173.05,0-10.26-3.55-21.2-10.65-33.52-40.22,6.84-68.61,15.73-84.78,26.68-11.83,8.21-18.53,12.31-20.11,12.31-5.52,0-13.8-8.21-24.05-25.99-10.65-16.42-15.77-29.41-15.77-38.99,0-3.42.79-5.47,3.15-5.47,15.77,15.73,27.6,23.26,36.28,23.26l115.54-19.15,97.79-13.68c3.94,0,9.86-2.74,17.75-6.84,7.49-4.1,12.22-6.16,13.8-6.16,4.73,0,11.83,5.47,21.29,16.42,9.07,11.63,13.8,21.21,13.8,29.41,0,9.58-2.37,13.68-7.1,13.68ZM5453.2,1851.77c-19.72,5.47-45.35,10.94-76.5,16.42s-51.66,8.21-61.91,8.21c-14.2,0-26.03-7.52-35.88-23.94-7.89-11.63-11.44-20.52-11.44-26.68,0-2.74,1.18-4.1,3.55-4.1,16.17,14.36,29.97,21.2,41.01,21.2,33.12,0,71.37-7.52,113.96-23.26,1.58,0,4.34-2.74,8.68-6.84,3.94-3.42,7.49-5.47,9.86-5.47,3.94,0,8.68,2.74,14.98,8.21,6.31,6.16,9.46,12.31,9.46,17.78,0,9.58-5.52,15.73-15.77,18.47Z"/>
    <path d="M6120.41,1929.75c-20.9-4.1-42.59-6.84-65.06-6.84-8.68,0-22.87,1.37-42.98,2.74,0,93.71.79,173.74,3.15,240.09l1.97,56.77.79,18.47c0,22.57-3.55,43.78-10.25,63.61-6.31,17.1-11.83,25.99-16.56,25.99-2.37,0-5.52-6.16-9.46-17.78-5.52-13.68-8.68-21.89-9.46-23.26-3.15-4.79-9.86-13.68-20.51-25.99l-5.13-6.16c-11.04-12.31-16.56-19.84-16.56-21.89,0-2.74.79-4.79,2.76-4.79,1.58,1.37,7.89,5.47,18.53,11.63,13.01,8.21,22.87,11.63,29.18,11.63,7.89,0,12.22-8.89,12.22-28.04l-.79-109.44-.79-133.38c-50.47,108.07-107.26,190.84-169.96,248.98-8.68,8.21-13.8,11.63-15.77,11.63-2.37,0-3.15-1.37-3.15-4.1,0-2.05,1.58-4.79,4.73-8.21,22.87-23.26,51.66-64.98,86.75-123.8,40.62-68.4,69.4-127.23,86.75-177.16-38.65,8.21-71.77,19.15-98.58,32.15-14.98,7.52-23.66,10.94-26.03,10.94-5.52,0-13.41-7.52-23.66-22.57-10.25-14.36-14.98-25.99-14.98-35.57,0-4.1.79-6.16,3.15-6.16,14.2,12.31,24.84,18.47,32.33,18.47,8.68,0,54.02-7.52,136.83-22.57-.79-15.73-1.18-30.1-1.97-42.41-1.58-30.1-3.55-48.57-5.52-56.09-3.94-13-10.65-19.84-20.11-19.84-2.37,0-3.15-1.37-3.15-4.79,0-4.79,4.73-7.52,14.2-7.52,8.68,0,18.93,4.1,30.76,12.31,11.44,8.21,17.35,16.42,17.35,24.62l-4.73,21.89c-3.15,14.36-4.73,28.04-4.73,41.04v26.68l37.07-6.16c14.2-2.74,26.03-6.84,36.28-11.63l11.44-5.47c3.94,0,9.86,6.16,18.14,17.1,8.28,11.63,12.62,19.84,12.62,23.94,0,7.52-2.37,10.94-7.1,10.94Z"/>
    <path d="M6295.49,2093.23c-2.76,8.21-6.31,11.63-10.25,11.63-5.52,0-10.65-10.94-14.59-34.2-3.15-17.78-9.07-36.94-17.74-58.14-7.1-17.1-10.65-26.68-10.65-28.04,0-2.74.79-4.79,2.76-4.79,4.73,0,13.8,9.58,28,27.36,16.96,22.57,25.63,43.78,25.63,64.3,0,8.21-1.18,15.73-3.15,21.89ZM6470.97,2004.31c-4.73,10.94-7.1,17.78-7.49,20.52-18.53,77.29-36.67,136.12-54.02,175.79-26.81,60.88-59.54,103.97-98.19,131.33-2.76,1.37-5.13,2.74-7.1,2.74-2.37,0-3.55-2.05-3.55-4.79,0-2.05,1.58-4.79,5.13-7.52,56.78-54.72,98.58-147.06,125.4-277.02,7.49-36.94,11.44-60.88,11.44-72.5,0-9.58-2.76-17.78-7.49-25.99-4.73-8.21-7.1-12.31-7.1-13,0-3.42,1.58-5.47,4.73-5.47,6.31,0,14.98,7.52,26.81,21.2,11.04,14.36,16.96,26.68,16.96,36.25,0,2.05-1.97,8.21-5.52,18.47ZM6360.16,2046.71c-5.52,0-10.65-12.31-15.38-37.62-5.92-30.78-12.62-53.35-20.51-67.03-2.76-4.1-3.94-7.52-3.94-9.58,0-2.74.79-4.79,3.15-4.79,4.34,0,13.01,8.21,26.42,24.62,15.77,19.84,23.66,39.67,23.66,60.19,0,23.26-4.73,34.2-13.41,34.2Z"/>
    <path d="M6830.2,2125.38c-5.52,0-11.04-5.47-16.96-17.78-29.97-58.14-62.3-97.13-96.22-116.28,0,13.68,0,41.04.39,81.4,0,41.04.39,69.77.39,85.5,0,25.99.39,64.3,1.97,114.23,0,38.3-5.13,57.46-14.59,57.46-4.73,0-8.68-8.89-12.62-26.68-3.15-15.05-4.73-28.04-4.73-37.62l2.37-27.36c2.37-31.46,3.94-125.86,3.94-283.18,0-8.21-.79-40.36-1.97-96.45-.79-18.47-1.58-31.46-2.76-38.3-1.97-8.21-5.52-15.05-11.04-19.84-8.68-6.84-12.62-10.94-12.62-13.68,0-4.79,3.15-7.52,9.86-7.52,9.46,0,20.51,4.1,33.12,12.31,11.83,8.21,18.14,17.1,18.14,25.31,0,2.74-1.18,7.52-3.55,13-2.37,6.16-3.55,10.94-3.55,14.36,0,2.05-.79,22.57-1.58,61.56-.79,38.99-1.18,63.61-1.18,73.87,28.79,6.84,54.02,19.84,75.71,38.99,32.33,29.41,48.9,56.77,48.9,81.4,0,17.1-3.94,25.31-11.44,25.31Z"/>
    <path d="M7190.22,2259.44c24.45-67.03,41.01-113.54,48.9-138.85,13.8-45.14,25.63-96.45,35.88-152.53,5.13-29.41,7.89-50.62,7.89-64.3,0-9.58-2.76-18.47-7.89-25.31-5.13-6.16-7.49-10.26-7.49-12.31,0-2.74,1.97-4.79,6.7-4.79,7.1,0,16.17,6.84,27.6,19.15,11.44,13,17.35,25.31,17.35,36.25,0,3.42-1.58,8.21-4.34,13.68-3.55,7.52-5.52,12.31-5.92,14.36l-9.46,41.04c-14.59,60.19-28.39,108.76-41.8,145.69-16.56,46.51-36.67,88.24-60.33,125.86-2.76,4.1-4.34,6.16-5.13,6.16-1.58,0-1.97-1.37-1.97-4.1ZM7484,2243.71c-7.1,0-12.22-14.36-15.38-43.09-12.62-117.65-40.62-225.72-83.6-325.59-3.15-6.84-4.73-10.94-4.73-12.31,0-2.05.39-3.42,1.58-3.42s4.34,4.1,9.86,11.63c23.66,34.88,47.32,83.45,70.59,146.38,25.24,69.77,37.86,125.17,37.86,166.9s-5.52,59.51-16.17,59.51ZM7504.51,1898.97c-7.1,12.31-15.77,18.47-25.24,18.47-10.25,0-18.53-5.47-25.24-17.78-7.1-11.63-10.25-25.99-10.25-43.78s3.15-32.15,10.25-44.46c6.7-11.63,14.99-17.78,25.24-17.78s18.14,6.16,25.24,17.78c6.7,12.31,10.25,27.36,10.25,44.46s-3.55,31.46-10.25,43.09ZM7497.01,1825.1c-4.73-8.21-10.65-13-17.75-13s-13.41,4.79-18.14,13c-4.73,8.21-7.1,18.47-7.1,30.78s2.37,22.57,7.49,30.78c4.73,8.21,10.65,12.31,17.75,12.31,6.7,0,12.62-4.1,17.35-12.31,4.73-8.21,7.49-18.47,7.49-30.78s-2.37-22.57-7.1-30.78Z"/>
    <path d="M7877.15,2312.79c-5.52,0-10.65-8.89-14.99-25.99-7.89-28.73-19.32-61.56-34.7-98.5-18.53-43.09-37.86-80.03-58.36-111.49-46.93,110.81-103.32,190.15-169.56,238.03-1.97,1.37-3.94,2.05-5.52,2.05s-2.37-.68-2.37-2.05c0-2.74,1.18-4.79,3.94-7.52,44.95-46.51,85.18-105.34,121.06-175.79,35.49-70.45,63.09-147.06,83.6-230.51,2.37-9.58,3.55-17.78,3.55-25.31,0-9.58-3.55-15.05-10.25-15.05-13.41,0-34.31,4.79-61.91,13-22.08,6.84-39.83,14.36-53.23,21.89l-11.44,10.26c-5.13,4.79-9.07,6.84-11.83,6.84-5.52,0-12.62-8.21-22.08-25.99-9.46-17.1-13.8-30.78-13.8-40.36,0-2.74.79-4.1,2.37-4.1l9.86,13c7.49,8.21,15.77,11.63,24.45,11.63,7.89,0,31.55-4.1,71.37-12.31l64.67-14.36c2.37,0,6.31-2.74,11.44-8.21,4.73-4.1,7.49-6.84,9.07-6.84,3.15,0,9.07,7.52,18.53,21.89,8.68,15.05,13.41,24.62,13.41,29.41,0,4.1-2.76,9.58-7.49,17.78-6.31,9.58-9.86,16.42-10.65,20.52-14.99,55.4-33.12,107.39-54.42,156.64,26.81,28.73,50.47,58.14,70.19,88.24,29.97,46.51,45.35,86.87,45.35,121.07,0,21.2-3.55,32.15-10.25,32.15Z"/>
    <path d="M8258.07,1895.55c-4.73,10.26-7.49,17.1-8.28,20.52-14.2,58.14-31.55,114.23-52.05,167.58,11.04,15.05,20.5,30.78,28.79,47.2,11.04,23.26,16.96,43.78,16.96,60.19s-3.55,23.94-9.86,23.94c-4.34,0-10.25-8.89-17.35-28.04-11.44-28.04-22.08-51.3-31.94-70.45-41.4,95.08-91.09,164.85-149.45,209.31-14.2,10.94-24.45,16.42-29.97,16.42-1.58,0-1.97-.68-1.97-1.37,0-2.05,2.37-4.79,7.1-8.21,60.73-47.88,113.96-128.59,158.92-240.77-24.45-38.3-46.14-64.3-65.46-79.34-3.94-2.74-5.92-4.79-5.92-6.84,0-1.37.79-2.74,2.37-2.74,3.15,0,12.62,5.47,27.6,15.73,17.35,12.31,35.1,27.36,52.45,45.14,14.98-41.72,26.81-82.76,36.28-123.12,5.52-25.31,8.68-40.36,8.68-44.46,0-13-4.34-19.84-12.22-19.84-2.37,0-12.62,3.42-31.15,10.26-18.93,6.84-32.73,9.58-41.41,9.58-3.94,0-8.67-3.42-13.8-11.63-26.03,71.14-62.3,139.54-108.84,205.89-4.73,6.84-8.28,9.58-11.44,9.58-1.97,0-2.76-1.37-2.76-4.1s1.58-6.16,4.73-10.26c16.56-21.2,38.64-64.98,65.85-130.64,26.82-65.67,40.62-110.81,40.62-135.43,0-8.21-1.58-14.36-3.94-19.15-1.18-1.37-4.34-5.47-9.86-10.94-1.58-1.37-1.97-2.05-1.97-3.42,0-4.1,2.37-6.16,7.49-6.16,7.49,0,16.17,5.47,26.42,15.05,11.04,10.94,16.56,22.57,16.56,34.2,0,1.37-1.58,5.47-4.73,11.63-3.94,6.84-6.31,10.94-6.31,11.63l-6.31,17.78c3.16,3.42,5.92,4.79,9.07,4.79,16.17,0,38.25-6.84,66.64-21.89,4.73-2.05,9.46-5.47,14.59-10.94,3.94-4.1,6.7-6.16,8.28-6.16,3.15,0,9.86,6.84,19.72,19.15,9.46,12.31,14.59,21.2,14.59,25.31,0,1.37-2.37,6.84-6.7,15.05Z"/>
    <path d="M8416.2,2240.97c-18.93,61.56-43.38,106.71-73.35,136.8v-14.36c24.05-32.83,42.59-77.98,56-136.12,11.83-52.67,17.75-109.44,17.75-171s-5.92-118.33-17.75-171.69c-13.41-57.46-31.94-102.6-56-135.43v-14.36c29.97,30.1,54.42,75.24,73.35,136.8,18.14,60.19,27.21,121.75,27.21,184.68s-9.07,125.17-27.21,184.68Z"/>
    <path d="M8579.45,2355.89v-108.76h46.14v-321.48h63.49v430.24h-109.62ZM8670.14,1958.48h-25.63v320.8h-46.14v45.14h71.77v-365.94Z"/>
    <path d="M9114.95,2316.9c-31.94,0-57.97-7.52-77.68-22.57-28.39-20.52-42.19-55.4-42.19-103.97,0-34.88,9.86-67.72,30.36-97.81,11.83-17.78,30.76-37.62,56.78-60.88-9.46-20.52-13.8-73.87-13.8-160.74,0-23.94-1.97-41.72-5.52-53.35-2.37-7.52-5.52-13-9.46-17.1-4.34-2.74-6.31-4.79-6.31-6.16,0-6.16,2.37-9.58,7.49-9.58,7.49,0,16.17,3.42,26.03,9.58,11.83,8.21,17.74,17.78,17.74,28.73,0,2.05-1.18,6.84-3.55,13.68-3.55,10.94-5.13,36.25-5.13,76.61,0,51.98,3.55,86.18,11.44,101.92,20.11-13,48.11-31.46,83.99-56.09,7.89-5.47,12.22-12.31,12.22-19.15,0-2.74-.79-6.16-1.97-10.26-1.58-4.1-1.97-6.16-1.97-7.52,0-4.1,1.18-6.16,3.94-6.16,7.1,0,14.2,6.16,21.69,17.1,7.1,12.31,10.65,23.94,10.65,36.25,0,9.58-6.31,17.1-18.14,22.57-59.54,26.68-99.37,47.2-119.48,60.88-54.42,38.3-81.63,82.08-81.63,131.33,0,36.25,12.22,62.24,36.67,77.29,16.96,10.94,37.86,16.42,63.09,16.42,22.87,0,42.98-2.05,60.73-7.52,11.04-2.74,22.48-6.84,33.91-13,9.07-4.79,14.59-7.52,16.96-7.52,5.52,0,10.65,2.74,15.38,8.21,4.73,5.47,7.1,13,7.1,21.89,0,24.62-43.38,36.94-129.34,36.94Z"/>
    <path d="M9458.81,1924.96l-12.62,52.67c-18.93,79.34-37.46,147.75-55.6,205.89-6.31,20.52-11.83,30.78-16.56,30.78-6.7,0-9.86-10.94-9.86-33.52,0-9.58,2.37-20.52,7.49-32.83,3.94-9.58,8.28-19.15,13.01-28.73,13.8-32.83,31.94-95.08,54.02-187.42-14.98,4.79-25.24,6.84-31.15,6.84-9.86,0-20.11-5.47-31.15-17.1-11.04-10.94-16.56-20.52-16.56-28.04,0-2.74.79-4.79,2.37-4.79,3.55,4.1,7.49,7.52,11.44,10.26,7.89,6.84,16.17,9.58,24.84,9.58,11.83,0,28-2.74,47.71-9.58,8.68-38.3,13.01-64.3,13.01-77.29,0-8.21-3.55-15.05-9.86-21.89-6.7-6.16-9.86-10.26-9.86-12.31,0-4.1,2.37-6.84,7.49-6.84,7.1,0,15.38,2.74,24.84,8.21,11.83,6.84,17.75,15.05,17.75,24.62,0,2.74-1.58,7.52-4.73,13.68-3.94,8.21-6.7,15.05-7.49,19.84-2.37,9.58-5.92,23.94-10.65,44.46,8.28-2.05,17.75-7.52,28.39-17.1,9.46-8.21,15.38-12.31,17.35-12.31,3.16,0,7.1,2.74,12.22,6.84,4.73,4.1,7.49,8.89,7.49,13.68,0,10.94-24.45,24.62-73.35,42.41ZM9657.94,1986.52l-13.8-9.58c-9.07-6.84-17.74-10.26-25.63-10.26-11.44,0-21.29,5.47-29.58,16.42-9.46,12.31-14.2,28.04-14.2,46.51,0,16.42,4.73,69.77,14.59,160.74,14.98,8.89,29.97,19.84,44.95,33.52,21.29,20.52,32.33,38.3,32.33,54.04,0,12.31-4.73,18.47-13.41,18.47-2.37,0-10.65-8.89-24.84-26.68-16.96-20.52-29.58-34.88-37.86-42.41-1.97,67.03-24.45,99.87-67.43,99.87-17.75,0-32.73-6.16-45.35-17.78-15.77-14.36-23.66-35.57-23.66-63.61,0-50.62,21.69-76.61,65.46-76.61,15.38,0,31.15,3.42,47.71,9.58-.79-8.21-3.55-32.83-7.49-73.19-3.55-32.15-5.13-52.67-5.13-61.56,0-26.68,6.31-47.88,19.72-63.61,7.89-9.58,21.69-18.47,40.62-27.36,2.76-1.37,4.34-4.1,4.34-8.21,0-9.58-7.89-19.84-22.87-30.78-11.04-7.52-21.29-13-31.15-16.42-3.55-.68-5.13-2.74-5.13-5.47,0-4.79,4.73-7.52,14.59-7.52,18.14,0,36.67,6.84,56.39,19.84,24.45,17.1,37.07,38.3,37.07,64.3,0,12.31-3.55,17.78-10.25,17.78ZM9568.82,2213.61c-20.5-13.68-40.62-20.52-60.73-20.52-29.18,0-43.77,16.42-43.77,49.25,0,17.78,6.7,30.78,20.9,40.36,10.25,7.52,21.69,10.94,33.52,10.94,16.17,0,28-4.1,35.88-13,9.46-10.94,14.2-30.1,14.2-57.46v-9.58Z"/>
    <path d="M9978.53,2219.08c-14.98,41.72-41.01,75.92-77.68,103.29-24.05,17.78-41.4,26.68-52.05,26.68-3.55,0-5.13-2.05-5.13-6.16,0-3.42,2.37-6.16,7.1-8.21,15.38-7.52,31.15-19.15,47.71-35.57,28.39-28.04,48.5-64.98,60.73-110.81,10.25-39.67,15.77-91.66,15.77-154.58,0-116.96-12.22-175.79-36.67-175.79-19.72,0-37.07,38.3-52.84,114.91-13.41,64.3-20.11,118.33-20.11,162.11,0,3.42,0,8.21.39,15.05v15.05c0,7.52-1.18,14.36-3.55,20.52-2.37,6.84-5.52,9.58-9.46,9.58-12.22,0-22.08-19.15-29.18-58.14-5.52-28.73-8.28-56.09-8.28-82.08,0-41.72,3.55-88.92,11.04-141.59l11.04-79.34c0-12.31-4.73-24.62-13.41-35.57-2.37-2.74-4.73-5.47-7.1-9.58,0-4.1,1.58-6.16,5.13-6.16,7.1,0,15.38,6.84,25.63,20.52,10.25,14.36,15.38,27.36,15.38,38.99,0,6.16-1.97,15.73-5.52,28.04-3.16,9.58-5.92,18.47-8.28,28.04-10.25,41.04-15.38,86.87-15.38,136.8,0,15.73.79,31.46,2.76,46.51,2.76,23.26,6.7,34.2,11.83,34.2,1.97,0,3.94-8.21,6.31-24.62,8.68-68.4,17.35-120.38,26.03-155.27,16.56-67.72,36.67-101.92,60.73-101.92s39.43,27.36,49.69,81.4c6.7,36.94,10.25,80.03,10.25,130.65,0,73.87-7.89,131.33-22.87,173.05Z"/>
    <path d="M10430.83,2305.95c-3.94,0-11.83-6.84-24.05-21.2-21.69-24.62-46.14-45.14-73.74-62.93v8.21c0,38.3-7.1,65.67-20.9,80.71-11.04,11.63-28.39,17.78-51.26,17.78-18.53,0-34.31-6.16-46.93-17.1-16.56-14.36-24.84-36.25-24.84-65.66,0-50.62,25.24-76.61,76.5-76.61,11.83,0,26.81,3.42,44.56,8.89l-2.37-132.01c-30.76,6.16-57.57,8.89-80.44,8.89s-41.01-10.26-52.84-30.78c-7.89-13-11.83-24.62-11.83-34.88,0-2.05.79-3.42,2.37-3.42,15.38,25.99,35.49,38.99,60.73,38.99,23.27,0,50.47-2.74,81.23-9.58l-1.97-95.76c-20.5,5.47-37.07,7.52-49.29,7.52-14.59,0-27.21-6.84-38.25-20.52-8.67-10.26-12.62-18.47-12.62-25.31,0-2.05.79-3.42,2.76-3.42,3.94,4.1,7.89,8.21,12.22,12.31,8.68,8.21,18.93,11.63,29.97,11.63,15.77,0,33.91-2.74,54.81-9.58l-.39-32.15c0-27.36-4.73-47.2-14.2-58.83-.39,0-3.15-2.05-7.89-6.16-3.94-2.74-5.92-4.79-5.92-6.16,0-4.1,2.37-6.84,7.1-6.84,7.49,0,17.35,3.42,29.18,10.26,14.2,8.21,21.29,17.78,21.29,27.36,0,2.74-1.58,8.89-4.34,19.15-2.76,10.26-3.94,19.15-3.94,25.99v19.84l20.9-8.89c5.52-2.74,12.22-8.21,20.11-15.05,5.52-4.79,9.46-7.52,11.04-7.52,3.15,0,6.7,2.05,11.04,6.16,4.34,4.1,6.7,8.89,6.7,13.68,0,7.52-5.13,13.68-14.59,18.47-14.98,8.21-33.52,15.73-55.21,22.57l-.39,97.13c26.81-6.84,46.14-14.36,57.97-22.57l14.2-12.31c7.1-6.16,11.44-9.58,12.62-9.58,4.73,0,10.25,2.05,15.77,6.16,6.31,5.47,9.86,11.63,9.86,18.47s-6.31,13.68-18.14,19.84c-23.66,12.31-54.42,23.26-91.49,31.46l5.92,143.64c39.04,17.78,69.8,38.99,92.27,63.61,12.22,13.68,18.53,26.68,18.53,38.99,0,11.63-3.94,17.1-11.83,17.1ZM10310.56,2209.51c-22.08-10.26-41.8-15.73-59.15-15.73-34.7,0-52.05,17.1-52.05,51.3,0,19.15,7.1,34.2,22.08,43.78,11.04,7.52,22.87,10.94,36.28,10.94,17.35,0,29.97-3.42,37.86-11.63,10.25-10.26,15.38-29.41,15.38-58.14l-.39-20.52Z"/>
    <path d="M10804.26,2166.42c-33.52,105.34-78.87,157.32-135.65,157.32-53.63,0-80.05-51.98-80.05-157.32,0-40.36,1.58-100.55,5.13-181.26,3.15-80.03,5.13-121.75,5.13-125.17,0-19.84-5.92-33.52-17.75-41.04-4.34-2.74-6.31-4.79-6.31-7.52,0-8.21,4.34-12.31,13.01-12.31,7.89,0,17.35,5.47,27.6,16.42,11.04,12.31,16.96,24.62,16.96,36.94,0,1.37-1.18,7.52-3.55,17.78-2.37,10.26-3.94,17.1-4.34,19.84-9.46,79.34-14.2,168.95-14.2,268.81,0,41.04,3.55,71.14,11.04,88.92,8.68,21.89,24.05,32.83,46.93,32.83,28.79,0,56.39-16.42,83.2-50.62,24.45-31.46,43.77-70.45,57.97-118.33,2.76-9.58,5.13-14.36,7.1-14.36,1.58,0,2.76,2.74,2.76,8.21,0,9.58-5.13,29.41-14.98,60.88Z"/>
    <path d="M11105.92,1915.39c-16.96,10.26-39.04,19.84-66.64,29.41-8.28,51.98-18.14,108.76-29.18,168.95-11.04,56.09-21.69,112.18-31.94,168.27-4.73,24.62-10.25,36.94-16.56,36.94-4.34,0-7.89-6.16-10.25-18.47-2.37-9.58-3.16-19.15-3.16-28.04,0-6.84,2.37-18.47,7.89-34.2l11.44-33.52c18.14-71.14,34.7-155.27,50.08-252.4-14.59,4.1-25.63,6.16-33.52,6.16-11.83,0-22.08-6.16-31.15-19.84-7.89-10.94-11.83-20.52-11.83-28.73,0-2.74.79-4.1,2.76-4.1,13.41,14.36,25.63,21.2,36.67,21.2,9.46,0,23.27-2.74,42.19-8.89,6.7-47.88,10.25-80.71,10.25-99.18,0-11.63-4.73-21.2-13.8-28.73-1.58-1.37-3.16-2.74-4.73-5.47,0-4.79,1.97-7.52,6.7-7.52,7.1,0,16.17,4.1,26.42,12.31,11.83,9.58,18.14,19.15,18.14,29.41,0,3.42-1.58,8.21-3.94,15.05-3.16,8.21-5.13,14.36-5.92,17.78-3.55,15.05-7.1,34.88-11.04,58.82,13.41-5.47,24.84-10.94,33.91-17.78,1.97-1.37,5.92-5.47,11.83-11.63,3.94-4.79,7.1-7.52,9.46-7.52,3.15,0,7.1,2.74,12.22,7.52,4.73,5.47,7.49,10.26,7.49,15.05,0,7.52-4.73,13.68-13.8,19.15ZM11184.39,2320.32c-73.35,0-109.62-31.46-109.62-95.08,0-20.52,3.94-41.04,11.83-60.88,6.7-16.42,11.04-25.31,13.41-25.31,1.18,0,1.97,2.05,1.97,4.79-.79,2.05-3.15,8.21-6.31,18.47-4.34,13.68-6.31,26.68-6.31,39.67,0,28.73,8.68,49.93,26.03,62.93,12.62,9.58,28.39,13.68,47.71,13.68,11.44,0,29.97-3.42,55.21-10.94,3.94,0,9.07,2.74,14.98,8.21,5.52,5.47,8.28,11.63,8.28,18.47,0,17.1-19.32,25.99-57.18,25.99ZM11208.84,2004.99c-14.59,4.79-29.97,18.47-45.74,40.36l-8.67,11.63c-1.18,0-1.58-.68-1.58-2.74s1.58-6.84,4.73-13.68c9.07-20.52,13.8-32.83,13.8-36.94,0-8.89-7.49-13.68-22.08-13.68-15.77,0-33.52,6.84-53.63,19.84-1.58,0-2.37-.68-2.37-3.42,0-2.05,1.18-4.79,4.34-8.21,25.24-28.73,54.02-43.09,85.96-43.09,8.28,0,16.17,2.74,23.66,6.84,9.86,6.84,14.98,15.73,14.98,27.36,0,8.21-4.73,13-13.41,15.73Z"/>
    <path d="M11416.26,2279.28c-8.67,15.05-19.32,21.89-31.15,21.89s-22.48-6.84-30.76-21.89c-8.67-14.36-12.62-32.15-12.62-53.35s3.94-38.3,12.62-53.35c8.28-15.05,18.53-22.57,30.76-22.57s22.48,7.52,31.15,22.57c8.28,15.05,12.62,32.83,12.62,53.35s-4.34,38.99-12.62,53.35ZM11407.58,2187.62c-6.31-10.94-13.8-16.42-22.48-16.42s-16.17,5.47-22.08,16.42c-6.31,10.94-9.07,23.26-9.07,38.3s2.76,28.04,9.07,38.3c5.92,10.94,13.41,15.73,22.08,15.73s16.17-4.79,22.48-15.73c5.92-10.26,9.07-23.26,9.07-38.3s-3.15-27.36-9.07-38.3Z"/>
    <path d="M57.98,3063.14c-12.22,20.52-33.52,54.72-63.88,103.28l3.94-.68c3.15,0,7.1,2.74,11.83,6.84,4.34,4.1,6.7,8.89,6.7,13.68,0,1.37-.39,4.1-1.18,9.58-.79,5.47-1.18,10.26-1.18,13.68-1.58,21.89-2.37,49.93-2.37,85.5,0,51.98.79,114.23,2.76,186.05,0,30.78-3.94,46.51-11.04,46.51-4.73,0-9.46-7.52-13.8-21.2-3.94-12.31-5.92-23.26-5.92-32.83l2.37-27.36c1.58-16.42,2.37-30.78,2.37-42.41l.39-35.57c0-22.57.39-38.99.39-49.25,0-8.21,0-24.62.39-50.62v-45.14c0-15.05-2.37-28.04-6.7-40.36-14.2,23.26-33.52,47.88-57.57,74.56-24.45,27.36-46.93,49.93-67.43,66.35-13.8,10.94-21.69,16.42-24.05,16.42-1.97,0-2.76-.68-2.76-2.74,0-2.74,1.18-4.79,3.55-7.52,72.16-71.82,132.89-158.69,182.58-259.92,14.98-30.1,22.48-51.3,22.48-62.25,0-5.47-1.58-10.26-4.73-15.05l-6.7-8.21c0-2.74,1.58-4.79,5.13-4.79,5.52,0,13.41,7.52,23.66,21.89,9.46,15.05,14.59,25.99,14.59,34.2,0,2.74-4.73,12.31-13.8,27.36Z"/>
    <path d="M470.05,3092.55c-4.73,10.26-7.49,17.1-8.28,20.52-14.2,58.14-31.55,114.23-52.05,167.58,11.04,15.05,20.51,30.78,28.79,47.2,11.04,23.26,16.96,43.78,16.96,60.19s-3.55,23.94-9.86,23.94c-4.34,0-10.25-8.89-17.35-28.04-11.44-28.04-22.08-51.3-31.94-70.45-41.41,95.08-91.09,164.85-149.45,209.31-14.2,10.94-24.45,16.42-29.97,16.42-1.58,0-1.97-.68-1.97-1.37,0-2.05,2.37-4.79,7.1-8.21,60.73-47.88,113.96-128.59,158.92-240.77-24.45-38.3-46.14-64.3-65.46-79.34-3.94-2.74-5.92-4.79-5.92-6.84,0-1.37.79-2.74,2.37-2.74,3.15,0,12.62,5.47,27.6,15.73,17.35,12.31,35.1,27.36,52.45,45.14,14.98-41.72,26.81-82.76,36.28-123.12,5.52-25.31,8.68-40.36,8.68-44.46,0-13-4.34-19.84-12.22-19.84-2.37,0-12.62,3.42-31.15,10.26-18.93,6.84-32.73,9.58-41.4,9.58-3.94,0-8.68-3.42-13.8-11.63-26.03,71.14-62.3,139.54-108.84,205.89-4.73,6.84-8.28,9.58-11.44,9.58-1.97,0-2.76-1.37-2.76-4.1s1.58-6.16,4.73-10.26c16.56-21.2,38.64-64.98,65.85-130.64,26.81-65.67,40.62-110.81,40.62-135.43,0-8.21-1.58-14.36-3.94-19.15-1.18-1.37-4.34-5.47-9.86-10.94-1.58-1.37-1.97-2.05-1.97-3.42,0-4.1,2.37-6.16,7.49-6.16,7.49,0,16.17,5.47,26.42,15.05,11.04,10.94,16.56,22.57,16.56,34.2,0,1.37-1.58,5.47-4.73,11.63-3.94,6.84-6.31,10.94-6.31,11.63l-6.31,17.78c3.15,3.42,5.91,4.79,9.07,4.79,16.17,0,38.25-6.84,66.64-21.89,4.73-2.05,9.46-5.47,14.59-10.94,3.94-4.1,6.7-6.16,8.28-6.16,3.15,0,9.86,6.84,19.72,19.15,9.46,12.31,14.59,21.2,14.59,25.31,0,1.37-2.37,6.84-6.7,15.05Z"/>
    <path d="M690.09,3080.92c-2.37,10.26-3.15,19.84-3.15,28.04v168.27c0,30.1-3.94,45.14-11.83,45.14-4.34,0-8.68-6.16-12.62-19.15-3.94-10.94-5.92-21.2-5.92-29.41,0-3.42.79-12.31,2.76-27.36,2.37-18.47,3.55-63.61,3.55-135.43,0-40.36-1.97-63.61-5.92-70.45-.39,0-2.37-2.05-5.91-6.16-3.55-4.1-5.13-6.84-5.13-8.21,0-4.79,3.15-7.52,9.46-7.52,6.7,0,14.59,4.79,24.05,14.36,9.07,10.26,13.8,19.15,13.8,25.99,0,4.1-1.18,11.63-3.15,21.89ZM830.86,3028.94c-2.37,7.52-3.15,14.36-3.15,20.52,0,20.52,0,50.62.79,90.97.79,41.04,1.18,69.77,1.18,86.87,0,93.02-13.41,162.79-39.43,209.31-22.08,38.99-61.12,71.82-116.72,99.87-.79,0-2.37.68-4.34.68-2.76,0-3.94-2.05-3.94-5.47,0-2.05,1.58-4.1,5.13-6.16,88.33-54.72,132.89-149.11,132.89-283.86v-90.29c-.39-47.88-.39-78.66-.39-90.97,0-34.2-5.92-58.14-17.75-71.14-3.94-4.1-5.91-6.84-5.91-8.89,0-5.47,1.97-8.21,6.7-8.21,6.7,0,16.17,4.79,28,13,13.41,9.58,20.51,19.15,20.51,28.73,0,2.74-1.18,8.21-3.55,15.05Z"/>
    <path d="M1283.55,3075.45c-6.31,3.42-9.86,6.16-11.44,8.21-64.67,84.82-98.98,126.54-103.71,126.54-2.37,0-3.15-.68-3.15-3.42s1.18-6.84,3.94-10.94c10.25-15.05,23.27-38.3,39.43-68.4,20.11-36.94,30.36-60.19,30.36-69.77s-3.94-15.05-11.44-15.05c-17.35,0-44.17,4.79-80.84,14.36-37.86,10.26-68.22,20.52-90.3,30.78-.79.68-5.92,4.1-16.17,9.58-7.1,4.79-12.22,6.84-15.38,6.84-4.73,0-13.01-9.58-25.24-28.73-12.62-18.47-18.53-31.46-18.53-39.67,0-4.79.79-7.52,2.76-7.52,4.73,5.47,9.86,10.26,14.98,14.36,9.46,8.89,18.14,13,26.03,13,3.55,0,70.98-12.31,202.29-37.62,2.76,0,6.7-2.74,12.22-7.52,5.52-4.1,9.46-6.84,11.83-6.84,2.76,0,9.46,8.89,20.51,26.68,10.65,18.47,16.17,30.1,16.17,35.57,0,4.79-1.58,8.21-4.34,9.58ZM1154.21,3191.73c-2.37,8.21-3.55,13.68-3.55,16.42-7.89,95.76-28,172.37-60.33,229.14-12.22,21.21-28,41.72-47.32,62.25-17.74,17.78-29.18,27.36-34.31,27.36-2.37,0-3.55-1.37-3.55-4.1s1.18-5.47,3.55-6.84c32.73-27.36,59.94-71.82,82.02-134.07,21.69-61.56,32.73-124.49,32.73-188.79,0-17.78-5.52-31.46-16.17-40.36-3.94-2.74-5.52-5.47-5.52-8.89,0-5.47,3.55-8.89,11.44-8.89,6.31,0,14.59,4.1,25.63,12.31,12.22,9.58,18.53,19.15,18.53,28.04,0,3.42-1.18,8.89-3.15,16.42Z"/>
    <path d="M1677.1,3068.61c-18.53-2.74-31.94-4.79-39.83-4.79-32.73,0-60.73,24.62-83.99,73.87-22.08,46.51-33.12,98.5-33.12,155.95,0,98.5,29.18,156.64,87.54,173.74,14.59,4.1,22.08,15.73,22.08,34.2,0,13-5.92,19.84-17.35,19.84-26.03,0-49.29-15.05-70.59-44.46-27.6-38.3-41.01-92.34-41.01-162.79,0-53.35,7.89-103.29,24.05-149.8,15.77-46.51,37.46-81.4,64.67-104.65-63.09,16.42-111.6,36.94-146.3,60.88l-14.2,13.68c-6.31,6.84-11.44,9.58-14.59,9.58-5.91,0-14.2-8.21-25.24-24.62-11.04-16.42-16.56-29.41-16.56-38.99,0-4.1.79-6.16,3.15-6.16,3.15,3.42,6.7,6.84,10.25,10.26,6.31,6.84,13.01,9.58,19.32,9.58,1.58,0,29.97-8.89,85.18-27.36,61.52-19.84,106.08-33.52,134.07-40.36,1.58,0,5.13-2.05,9.86-4.79s8.28-4.1,11.04-4.1c5.52,0,13.8,4.79,24.05,14.36,10.25,9.58,15.38,18.47,15.38,26.68,0,6.84-2.76,10.26-7.89,10.26ZM1652.25,3242.35c-4.34,0-7.89-3.42-11.04-10.94-11.04-25.31-21.69-45.83-31.55-60.88-4.73-6.84-6.7-10.94-6.7-13.68s1.18-4.79,4.34-4.79c8.68,0,19.72,7.52,33.12,21.2,14.59,15.73,22.08,31.46,22.08,46.51s-3.55,22.57-10.25,22.57ZM1684.59,3194.47c-4.34,0-7.89-2.74-10.25-9.58-10.25-23.94-20.9-42.41-31.55-54.72-5.52-6.16-8.28-10.26-8.28-12.31,0-4.1,1.18-6.16,3.94-6.16,10.25,0,21.69,6.16,34.31,17.78,14.2,13.68,21.29,28.04,21.29,43.78,0,14.36-3.15,21.2-9.46,21.2Z"/>
    <path d="M1844.29,3277.23l-19.32,93.02c-3.94,20.52-6.7,43.78-8.28,71.14-1.58,28.73-2.76,47.88-4.34,56.77-1.18,5.47-3.55,8.89-7.1,8.89-11.04,0-19.72-23.94-25.24-72.5-4.34-33.52-6.31-66.35-6.31-97.81,0-79.34,6.31-161.42,19.32-245.56,4.34-28.73,6.7-45.83,6.7-50.62,0-13.68-2.76-25.31-7.49-36.25-2.37-4.1-5.13-8.89-7.89-15.73,0-2.74,1.18-4.79,3.55-4.79,4.73,0,11.83,8.21,21.29,23.26,11.04,18.47,16.96,36.94,16.96,54.72,0,4.79-2.37,15.73-7.1,33.52-3.55,11.63-6.7,23.26-9.86,34.88-13.41,52.67-20.11,114.23-20.11,185.37,0,50.62,3.94,75.24,12.62,75.24,3.15,0,15.77-39.67,37.86-119.02,1.58-5.47,2.76-8.89,3.55-8.89,1.58,0,2.76,1.37,2.76,4.1,0,2.05-.79,5.47-1.58,10.26ZM2063.54,3487.22c-3.15,0-7.49-2.74-12.22-9.58l-10.65-15.73c-14.2-19.15-27.6-35.57-40.22-49.25-.39,36.25-5.92,62.25-16.56,77.29-9.86,14.36-25.24,21.89-46.53,21.89-16.56,0-30.76-6.16-42.59-17.78-14.59-13.68-21.69-34.2-21.69-60.88s5.92-45.83,18.53-60.88c11.04-13.68,24.05-20.52,39.43-20.52s31.55,3.42,47.32,10.26l-2.76-196.31c-23.66,5.47-42.19,8.21-55.6,8.21-16.56,0-29.97-8.21-39.43-25.31-7.1-11.63-10.25-21.2-10.25-29.41,0-4.1,1.18-6.84,3.55-6.84l9.86,15.73c7.1,9.58,14.98,13.68,23.66,13.68,27.21,0,49.69-2.05,67.83-6.84l-.79-77.29c-.39-15.05-1.58-26.68-3.94-34.2-3.15-8.89-8.68-15.73-16.56-20.52-4.73-2.74-7.1-5.47-7.1-8.21,0-4.1,3.55-6.84,11.04-6.84,6.31,0,14.98,4.1,26.03,12.31,12.22,9.58,18.53,18.47,18.53,27.36,0,2.74-1.18,8.89-3.55,17.1-2.37,8.89-3.55,16.42-3.55,22.57l-.79,61.56c7.1-2.74,15.38-6.16,24.05-10.26,2.37-1.37,7.1-5.47,13.8-12.31,5.52-6.16,9.46-9.58,11.83-9.58,3.94,0,8.28,2.74,13.8,6.84,5.52,4.79,8.28,10.26,8.28,15.73,0,15.05-24.05,28.73-71.77,41.72,0,66.35,1.58,137.49,5.13,214.09,26.81,17.78,48.11,39.67,63.88,64.98,5.91,9.58,9.07,19.84,9.07,30.78s-3.15,16.42-9.07,16.42ZM1978.76,3392.83c-15.38-10.94-31.94-16.42-49.69-16.42-12.62,0-23.27,4.1-31.15,11.63-10.65,9.58-15.77,24.62-15.77,44.46,0,17.78,5.92,30.78,18.14,39.67,8.68,6.84,18.93,10.26,30.76,10.26,31.55,0,47.71-21.89,47.71-66.35v-23.26Z"/>
    <path d="M2162.52,3456.44c24.45-67.03,41.01-113.54,48.9-138.85,13.8-45.14,25.63-96.45,35.88-152.53,5.13-29.41,7.89-50.62,7.89-64.3,0-9.58-2.76-18.47-7.89-25.31-5.13-6.16-7.49-10.26-7.49-12.31,0-2.74,1.97-4.79,6.7-4.79,7.1,0,16.17,6.84,27.6,19.15,11.44,13,17.35,25.31,17.35,36.25,0,3.42-1.58,8.21-4.34,13.68-3.55,7.52-5.52,12.31-5.92,14.36l-9.46,41.04c-14.59,60.19-28.39,108.76-41.8,145.69-16.56,46.51-36.67,88.24-60.33,125.86-2.76,4.1-4.34,6.16-5.13,6.16-1.58,0-1.97-1.37-1.97-4.1ZM2456.29,3440.71c-7.1,0-12.22-14.36-15.38-43.09-12.62-117.65-40.62-225.72-83.6-325.59-3.15-6.84-4.73-10.94-4.73-12.31,0-2.05.39-3.42,1.58-3.42s4.34,4.1,9.86,11.63c23.66,34.88,47.32,83.45,70.59,146.38,25.24,69.77,37.86,125.17,37.86,166.9s-5.52,59.51-16.17,59.51ZM2476.8,3095.97c-7.1,12.31-15.77,18.47-25.24,18.47-10.25,0-18.53-5.47-25.24-17.78-7.1-11.63-10.25-25.99-10.25-43.78s3.15-32.15,10.25-44.46c6.7-11.63,14.98-17.78,25.24-17.78s18.14,6.16,25.24,17.78c6.7,12.31,10.25,27.36,10.25,44.46s-3.55,31.46-10.25,43.09ZM2469.31,3022.1c-4.73-8.21-10.65-13-17.74-13s-13.41,4.79-18.14,13-7.1,18.47-7.1,30.78,2.37,22.57,7.49,30.78c4.73,8.21,10.65,12.31,17.75,12.31,6.7,0,12.62-4.1,17.35-12.31s7.49-18.47,7.49-30.78-2.37-22.57-7.1-30.78Z"/>
    <path d="M2849.44,3509.79c-5.52,0-10.65-8.89-14.98-25.99-7.89-28.73-19.32-61.56-34.7-98.5-18.53-43.09-37.86-80.03-58.36-111.49-46.93,110.81-103.32,190.15-169.56,238.03-1.97,1.37-3.94,2.05-5.52,2.05s-2.37-.68-2.37-2.05c0-2.74,1.18-4.79,3.94-7.52,44.95-46.51,85.18-105.34,121.06-175.79,35.49-70.45,63.09-147.06,83.6-230.51,2.37-9.58,3.55-17.78,3.55-25.31,0-9.58-3.55-15.05-10.25-15.05-13.41,0-34.31,4.79-61.91,13-22.08,6.84-39.83,14.36-53.23,21.89l-11.44,10.26c-5.13,4.79-9.07,6.84-11.83,6.84-5.52,0-12.62-8.21-22.08-25.99-9.46-17.1-13.8-30.78-13.8-40.36,0-2.74.79-4.1,2.37-4.1l9.86,13c7.49,8.21,15.77,11.63,24.45,11.63,7.89,0,31.55-4.1,71.37-12.31l64.67-14.36c2.37,0,6.31-2.74,11.44-8.21,4.73-4.1,7.49-6.84,9.07-6.84,3.15,0,9.07,7.52,18.53,21.89,8.68,15.05,13.41,24.62,13.41,29.41,0,4.1-2.76,9.58-7.49,17.78-6.31,9.58-9.86,16.42-10.65,20.52-14.98,55.4-33.12,107.39-54.42,156.64,26.81,28.73,50.47,58.14,70.19,88.24,29.97,46.51,45.35,86.87,45.35,121.07,0,21.2-3.55,32.15-10.25,32.15Z"/>
    <path d="M3230.36,3092.55c-4.73,10.26-7.49,17.1-8.28,20.52-14.2,58.14-31.55,114.23-52.05,167.58,11.04,15.05,20.51,30.78,28.79,47.2,11.04,23.26,16.96,43.78,16.96,60.19s-3.55,23.94-9.86,23.94c-4.34,0-10.25-8.89-17.35-28.04-11.44-28.04-22.08-51.3-31.94-70.45-41.4,95.08-91.09,164.85-149.45,209.31-14.2,10.94-24.45,16.42-29.97,16.42-1.58,0-1.97-.68-1.97-1.37,0-2.05,2.37-4.79,7.1-8.21,60.73-47.88,113.96-128.59,158.92-240.77-24.45-38.3-46.14-64.3-65.46-79.34-3.94-2.74-5.92-4.79-5.92-6.84,0-1.37.79-2.74,2.37-2.74,3.15,0,12.62,5.47,27.6,15.73,17.35,12.31,35.1,27.36,52.45,45.14,14.98-41.72,26.81-82.76,36.28-123.12,5.52-25.31,8.68-40.36,8.68-44.46,0-13-4.34-19.84-12.22-19.84-2.37,0-12.62,3.42-31.15,10.26-18.93,6.84-32.73,9.58-41.41,9.58-3.94,0-8.68-3.42-13.8-11.63-26.03,71.14-62.3,139.54-108.84,205.89-4.73,6.84-8.28,9.58-11.44,9.58-1.97,0-2.76-1.37-2.76-4.1s1.58-6.16,4.73-10.26c16.56-21.2,38.64-64.98,65.85-130.64,26.81-65.67,40.62-110.81,40.62-135.43,0-8.21-1.58-14.36-3.94-19.15-1.18-1.37-4.34-5.47-9.86-10.94-1.58-1.37-1.97-2.05-1.97-3.42,0-4.1,2.37-6.16,7.49-6.16,7.49,0,16.17,5.47,26.42,15.05,11.04,10.94,16.56,22.57,16.56,34.2,0,1.37-1.58,5.47-4.73,11.63-3.94,6.84-6.31,10.94-6.31,11.63l-6.31,17.78c3.15,3.42,5.92,4.79,9.07,4.79,16.17,0,38.25-6.84,66.64-21.89,4.73-2.05,9.46-5.47,14.59-10.94,3.94-4.1,6.7-6.16,8.28-6.16,3.15,0,9.86,6.84,19.72,19.15,9.46,12.31,14.59,21.2,14.59,25.31,0,1.37-2.37,6.84-6.7,15.05Z"/>
    <path d="M3540.7,3419.5c-10.65,68.4-24.45,102.6-41.4,102.6-3.15,0-7.1-8.89-12.22-25.31-2.37-6.16-15.38-24.62-39.04-55.4-3.15-3.42-5.13-6.84-6.7-9.58,0-2.74.39-4.1,1.97-4.1l18.53,14.36c12.62,9.58,22.48,13.68,30.36,13.68,11.83,0,20.51-14.36,26.03-43.78,9.07-47.88,13.8-108.07,13.8-180.58,0-61.56-13.01-93.02-39.04-93.02-7.89,0-18.53,3.42-32.34,8.89-20.11,117.65-43.38,225.72-69.4,322.85-6.31,23.26-11.44,34.88-14.98,34.88-9.46,0-13.8-13-13.8-39.67,0-5.47,1.97-13,6.7-23.94,3.15-7.52,6.7-15.05,10.25-22.57,19.72-49.93,39.43-136.8,59.15-259.92-17.35,10.26-29.97,19.84-38.25,28.04l-11.04,12.31c-5.13,5.47-8.68,8.21-11.04,8.21-6.31,0-13.41-6.84-21.29-21.2s-11.83-26.68-11.83-36.94c0-3.42.79-5.47,3.15-5.47,2.76,4.1,5.52,7.52,8.28,10.94,5.52,6.84,11.44,9.58,16.96,9.58,9.46,0,20.9-3.42,35.1-10.26l33.91-19.15c7.49-51.3,11.44-88.92,11.44-112.18,0-10.94-2.37-20.52-6.7-27.36l-10.25-15.05c0-4.1,1.58-6.16,5.13-6.16,6.31,0,15.38,5.47,27.21,15.05,13.01,10.94,19.72,21.2,19.72,30.1,0,2.74-1.97,8.21-5.92,16.42-3.94,8.89-6.7,16.42-7.49,23.26-2.37,12.31-5.91,34.88-11.04,67.72,13.41-4.1,23.66-6.84,30.36-6.84,22.87,0,39.04,14.36,48.11,43.09,6.7,21.89,10.25,54.04,10.25,97.13,0,51.98-4.34,105.34-12.62,159.37ZM3653.09,3320.32c-2.37,14.36-5.92,21.2-10.25,21.2-2.37,0-5.92-3.42-10.25-10.94l-9.07-16.42c-3.15-3.42-9.07-8.21-18.53-13.68-8.28-4.1-12.22-7.52-12.22-9.58s2.37-3.42,7.1-4.79c3.15,0,6.31,0,9.46-.68,13.01-3.42,19.72-14.36,19.72-33.52,0-25.31-6.7-56.09-19.72-92.34-11.83-32.83-24.45-58.14-37.86-75.92-3.94-4.79-5.52-8.21-5.52-10.26,0-2.74.79-4.1,3.15-4.1,5.52,0,14.59,9.58,28,27.36,17.35,24.62,31.55,53.35,41.8,85.5,11.04,34.88,16.96,70.45,16.96,107.39,0,10.94-1.18,21.2-2.76,30.78ZM3638.5,3076.13c-4.34,0-7.89-3.42-11.04-10.94-11.04-25.31-21.69-45.83-31.55-60.88-4.73-6.84-6.7-10.94-6.7-13.68s1.18-4.79,4.34-4.79c8.68,0,19.72,7.52,33.12,21.2,14.59,15.73,22.08,31.46,22.08,46.51s-3.55,22.57-10.25,22.57ZM3670.83,3028.25c-4.34,0-7.89-2.74-10.25-9.58-10.25-23.94-20.9-42.41-31.55-54.72-5.52-6.16-8.28-10.26-8.28-12.31,0-4.1,1.18-6.16,3.94-6.16,10.25,0,21.69,6.16,34.31,17.78,14.2,13.68,21.29,28.04,21.29,43.78,0,14.36-3.15,21.2-9.46,21.2Z"/>
    <path d="M3763.1,3044.67h75.71c8.68-34.2,16.56-69.77,23.66-108.07,7.89,4.1,15.77,8.89,23.66,13,8.68,4.1,13.41,8.21,13.41,11.63,0,6.16-2.37,9.58-6.31,9.58-5.13,1.37-7.49,3.42-7.49,6.16-6.31,24.62-12.22,47.2-18.14,67.72h145.51c2.37-4.1,6.7-13,13.41-26.68,6.31-13,10.25-19.84,11.83-19.84,4.34,0,11.04,8.89,20.11,25.31,8.68,17.1,13.41,27.36,13.41,30.78,0,6.84-2.37,9.58-6.31,9.58h-203.48c-11.04,36.94-22.48,69.77-34.31,98.5h154.18c2.37-4.1,5.13-8.89,8.28-13,4.34-6.16,7.49-9.58,9.86-9.58,1.58,0,6.31,4.79,14.2,13.68,7.49,12.31,11.44,20.52,11.44,24.62,0,5.47-1.97,10.26-5.92,13.68-4.73,4.1-6.7,8.21-6.7,12.31v317.38c0,15.73-5.13,27.36-14.98,35.57-7.89,6.84-14.59,10.26-20.11,10.26-7.1,0-10.65-6.16-10.65-17.78-1.58-13-18.93-24.62-51.26-34.88l1.97-11.63c24.45,5.47,44.56,8.21,59.94,8.21,6.7,0,10.25-5.47,10.25-15.05v-101.23h-166.8v156.64c0,4.1-1.58,6.84-4.34,8.89-4.34,2.74-8.68,4.1-12.62,4.1-5.13,0-7.49-4.1-7.49-12.31.79-19.15,1.58-38.99,1.58-58.82v-268.13l-8.28,14.36c-16.17,32.15-40.22,66.35-72.56,103.28l-4.73-9.58c39.83-62.24,70.59-123.12,92.67-182.63,9.86-26.68,19.32-55.41,28-86.87h-70.59c-19.32,0-33.12,1.37-41.01,4.1l-7.49-29.41c11.04,4.1,27.21,6.16,48.5,6.16ZM3988.27,3269.02v-88.24h-166.8v88.24h166.8ZM3988.27,3376.41v-88.24h-166.8v88.24h166.8Z"/>
    <path d="M4279.28,2951.64c8.68,4.1,13.01,7.52,13.01,11.63s-2.76,6.84-7.89,7.52c-3.94,1.37-5.92,3.42-6.7,5.47-8.68,22.57-17.75,43.09-27.21,60.88h133.68c3.55-6.16,7.1-11.63,11.04-16.42,3.15-4.1,5.52-6.84,7.89-6.84,1.97,0,6.7,6.16,14.59,17.1,7.49,11.63,11.44,19.15,11.44,23.26,0,5.47-2.37,8.89-6.31,10.26-4.73,2.05-8.28,6.16-11.04,13-18.93,41.04-40.22,79.34-63.49,114.23-23.27,36.25-52.05,68.4-85.96,97.13-6.31,5.47-13.01,10.94-19.32,15.05h140.78l9.86-15.05c2.76-4.79,5.13-7.52,7.1-7.52,2.37,0,7.49,5.47,14.59,15.05,7.1,10.26,11.04,17.78,11.04,21.89s-1.97,8.21-5.91,13c-3.55,4.1-5.13,8.89-5.13,13.68v153.9c0,12.31.79,28.73,2.37,49.25,0,4.1-1.97,6.84-5.52,9.58-5.92,2.74-11.04,4.1-15.38,4.1-3.94,0-5.92-4.1-5.92-11.63v-34.88h-173.51v36.94c0,3.42-1.58,6.16-3.94,8.89-5.52,2.05-9.86,3.42-13.41,3.42-4.73,0-7.1-4.1-7.1-12.31.79-13,1.58-25.99,1.58-38.3v-179.89c-24.45,13.68-52.05,25.31-82.02,35.57l-1.97-10.94c28.39-13,56-30.1,83.6-50.62l-1.18-26.68c5.92,4.1,11.83,8.89,17.75,14.36,22.08-17.1,44.17-36.94,65.46-58.82,43.77-47.2,80.84-107.39,111.2-181.26h-146.69c-7.1,12.31-14.2,23.94-21.29,33.52-23.27,35.57-54.02,70.45-92.27,103.97l-4.34-9.58c22.87-24.62,48.11-60.19,74.92-106.02,21.69-36.25,41.01-82.08,57.97-138.17,8.68,5.47,16.56,9.58,23.66,12.31ZM4258.78,3150.01c3.94,3.42,8.68,8.21,14.2,15.05,6.31,9.58,9.86,20.52,9.86,32.15,0,7.52-1.18,13.68-3.55,18.47-2.37,6.84-5.13,9.58-8.28,9.58-4.73,0-9.07-4.79-13.01-15.73-12.62-36.94-28-64.98-45.74-82.76l3.15-5.47c16.17,7.52,30.76,17.1,43.38,28.73ZM4390.88,3496.11v-173.05h-173.51v173.05h173.51Z"/>
    <path d="M4678.74,3513.9c-31.94,0-57.97-7.52-77.68-22.57-28.39-20.52-42.19-55.4-42.19-103.97,0-34.88,9.86-67.72,30.36-97.81,11.83-17.78,30.76-37.62,56.78-60.88-9.46-20.52-13.8-73.87-13.8-160.74,0-23.94-1.97-41.72-5.52-53.35-2.37-7.52-5.52-13-9.46-17.1-4.34-2.74-6.31-4.79-6.31-6.16,0-6.16,2.37-9.58,7.49-9.58,7.49,0,16.17,3.42,26.03,9.58,11.83,8.21,17.75,17.78,17.75,28.73,0,2.05-1.18,6.84-3.55,13.68-3.55,10.94-5.13,36.25-5.13,76.61,0,51.98,3.55,86.18,11.44,101.92,20.11-13,48.11-31.46,83.99-56.09,7.89-5.47,12.22-12.31,12.22-19.15,0-2.74-.79-6.16-1.97-10.26-1.58-4.1-1.97-6.16-1.97-7.52,0-4.1,1.18-6.16,3.94-6.16,7.1,0,14.2,6.16,21.69,17.1,7.1,12.31,10.65,23.94,10.65,36.25,0,9.58-6.31,17.1-18.14,22.57-59.54,26.68-99.37,47.2-119.48,60.88-54.42,38.3-81.63,82.08-81.63,131.33,0,36.25,12.22,62.24,36.67,77.29,16.96,10.94,37.86,16.42,63.09,16.42,22.87,0,42.98-2.05,60.73-7.52,11.04-2.74,22.48-6.84,33.91-13,9.07-4.79,14.59-7.52,16.96-7.52,5.52,0,10.65,2.74,15.38,8.21,4.73,5.47,7.1,13,7.1,21.89,0,24.62-43.38,36.94-129.34,36.94Z"/>
    <path d="M5034.42,3338.11c-10.25,44.46-15.38,74.56-15.38,89.61,0,17.1.39,34.2,1.58,50.62,0,15.05-3.55,22.57-10.25,22.57-7.1,0-16.17-9.58-26.81-29.41-27.21-49.25-40.62-114.23-40.62-194.94,0-23.94,1.58-58.14,5.52-102.6,3.55-44.46,5.52-71.14,5.52-80.71,0-19.84-2.76-36.94-8.28-50.62-2.37-4.79-5.13-10.26-7.49-17.1,0-3.42,1.18-5.47,3.94-5.47,6.7,0,15.77,9.58,26.81,28.04,11.04,19.15,16.56,34.2,16.56,46.51,0,3.42-3.55,16.42-10.25,38.99-9.46,32.15-14.2,76.61-14.2,132.7,0,34.2,2.37,65.66,7.49,94.39,5.92,35.57,13.8,53.35,23.66,53.35,4.34,0,13.41-22.57,27.21-67.72l24.45-84.82c.79-3.42,1.97-5.47,3.55-5.47s2.37,2.05,2.37,4.79c0,7.52-5.13,33.52-15.38,77.29ZM5214.63,3349.05c-2.76,14.36-6.7,21.2-12.22,21.2-9.86,0-14.59-13-14.59-38.99,0-36.94-5.13-76.61-14.98-118.33-11.04-42.41-24.05-75.24-39.83-97.81-4.34-5.47-6.31-9.58-6.31-12.31s1.18-4.79,3.55-4.79c6.31,0,15.77,8.21,28.79,23.94,18.14,23.26,32.34,51.3,42.59,85.5,10.25,34.2,15.77,71.14,15.77,109.44,0,12.31-1.18,22.57-2.76,32.15Z"/>
    <path d="M5553.36,3420.87c-16.96,43.78-40.62,77.29-70.98,101.92-17.35,13.68-29.18,20.52-35.49,20.52-3.15,0-4.34-1.37-4.34-3.42,0-2.74,1.58-5.47,5.13-8.21,30.76-24.62,55.6-58.83,74.53-105.34,19.32-47.88,29.18-101.23,29.18-158.69,0-38.99-2.76-67.03-7.89-84.13-7.1-23.26-20.9-35.57-41.01-35.57-15.77,0-31.94,8.89-48.5,25.99-13.41,15.05-25.63,32.83-35.88,53.35-3.94,7.52-7.1,10.94-9.86,10.94-9.46,0-19.32-8.89-29.58-28.04-8.68-15.73-13.01-27.36-13.01-34.88,0-4.1,1.18-6.84,3.55-6.84l6.7,10.26c5.13,6.84,11.44,10.26,18.53,10.26,5.13,0,22.48-10.94,51.66-32.83,28.79-21.89,51.66-33.52,69.01-33.52,22.08,0,38.64,15.73,49.69,46.51,9.07,25.99,13.8,58.82,13.8,99.18,0,58.14-8.68,108.76-25.24,152.53ZM5534.04,3045.35c-18.14,0-35.1,4.79-50.87,13-5.91,4.1-12.22,8.89-19.32,13-1.58,0-2.37-1.37-2.37-4.1,0-1.37,2.76-5.47,9.07-13.68,6.31-6.84,9.46-12.31,9.46-15.73,0-2.74-2.37-6.16-6.7-8.89-15.77-8.89-28.39-19.15-37.86-31.46-8.28-9.58-12.22-17.78-12.22-23.94,0-2.74.79-4.79,2.76-4.79,3.15,5.47,13.01,13.68,28.79,24.62,10.65,6.16,33.12,8.89,67.43,8.89,4.73,0,9.86,3.42,15.38,9.58,5.52,6.84,8.28,13.68,8.28,21.89s-3.94,11.63-11.83,11.63Z"/>
    <path d="M5862.52,3492.01c-82.81,0-123.82-45.14-123.82-136.12,0-19.84,2.37-38.99,7.1-58.14,3.94-16.42,7.49-24.62,10.25-24.62,2.37,0,3.94,2.05,3.94,4.79-2.37,6.84-4.34,13-6.31,19.84-3.94,13.68-5.52,25.99-5.52,36.94,0,77.98,36.28,116.96,108.84,116.96,26.81,0,52.45-4.1,76.89-13.68l34.31-14.36c4.73,0,9.86,2.74,15.77,6.84,6.7,5.47,10.25,11.63,10.25,18.47,0,28.73-44.17,43.09-131.71,43.09ZM5935.07,3083.66c-20.51,0-45.35,10.94-74.53,31.46-11.83,8.21-24.45,20.52-37.46,35.57l-17.35,19.84c-2.37,0-3.55-2.05-3.55-6.16,0-3.42,7.1-15.05,21.69-34.2s24.45-31.46,29.97-36.25c-14.2,2.05-23.27,2.74-26.42,2.74-18.14,0-33.91-9.58-47.32-30.1-10.25-15.05-14.98-26.68-14.98-34.88,0-3.42.79-5.47,2.37-5.47l15.38,19.84c11.44,12.31,25.24,17.78,41.8,17.78,20.9,0,42.59-3.42,65.06-10.94,10.25-4.1,20.51-7.52,30.76-11.63,5.52,0,11.44,4.1,17.75,10.94,6.31,6.84,9.46,13.68,9.46,19.84,0,8.21-4.34,11.63-12.62,11.63Z"/>
    <path d="M6256.06,3513.9c-31.94,0-57.97-7.52-77.68-22.57-28.39-20.52-42.19-55.4-42.19-103.97,0-34.88,9.86-67.72,30.36-97.81,11.83-17.78,30.76-37.62,56.78-60.88-9.46-20.52-13.8-73.87-13.8-160.74,0-23.94-1.97-41.72-5.52-53.35-2.37-7.52-5.52-13-9.46-17.1-4.34-2.74-6.31-4.79-6.31-6.16,0-6.16,2.37-9.58,7.49-9.58,7.49,0,16.17,3.42,26.03,9.58,11.83,8.21,17.75,17.78,17.75,28.73,0,2.05-1.18,6.84-3.55,13.68-3.55,10.94-5.13,36.25-5.13,76.61,0,51.98,3.55,86.18,11.44,101.92,20.11-13,48.11-31.46,83.99-56.09,7.89-5.47,12.22-12.31,12.22-19.15,0-2.74-.79-6.16-1.97-10.26-1.58-4.1-1.97-6.16-1.97-7.52,0-4.1,1.18-6.16,3.94-6.16,7.1,0,14.2,6.16,21.69,17.1,7.1,12.31,10.65,23.94,10.65,36.25,0,9.58-6.31,17.1-18.14,22.57-59.54,26.68-99.37,47.2-119.48,60.88-54.42,38.3-81.63,82.08-81.63,131.33,0,36.25,12.22,62.24,36.67,77.29,16.96,10.94,37.86,16.42,63.09,16.42,22.87,0,42.98-2.05,60.73-7.52,11.04-2.74,22.48-6.84,33.91-13,9.07-4.79,14.59-7.52,16.96-7.52,5.52,0,10.65,2.74,15.38,8.21,4.73,5.47,7.1,13,7.1,21.89,0,24.62-43.38,36.94-129.34,36.94Z"/>
    <path d="M6695.34,3419.5c-10.65,68.4-24.45,102.6-41.4,102.6-3.15,0-7.1-8.89-12.22-25.31-2.37-6.16-15.38-24.62-39.04-55.4-3.15-3.42-5.13-6.84-6.7-9.58,0-2.74.39-4.1,1.97-4.1l18.53,14.36c12.62,9.58,22.48,13.68,30.36,13.68,11.83,0,20.51-14.36,26.03-43.78,9.07-47.88,13.8-108.07,13.8-180.58,0-61.56-13.01-93.02-39.04-93.02-7.89,0-18.53,3.42-32.34,8.89-20.11,117.65-43.38,225.72-69.4,322.85-6.31,23.26-11.44,34.88-14.98,34.88-9.46,0-13.8-13-13.8-39.67,0-5.47,1.97-13,6.7-23.94,3.15-7.52,6.7-15.05,10.25-22.57,19.72-49.93,39.43-136.8,59.15-259.92-17.35,10.26-29.97,19.84-38.25,28.04l-11.04,12.31c-5.13,5.47-8.68,8.21-11.04,8.21-6.31,0-13.41-6.84-21.29-21.2s-11.83-26.68-11.83-36.94c0-3.42.79-5.47,3.15-5.47,2.76,4.1,5.52,7.52,8.28,10.94,5.52,6.84,11.44,9.58,16.96,9.58,9.46,0,20.9-3.42,35.1-10.26l33.91-19.15c7.49-51.3,11.44-88.92,11.44-112.18,0-10.94-2.37-20.52-6.7-27.36l-10.25-15.05c0-4.1,1.58-6.16,5.13-6.16,6.31,0,15.38,5.47,27.21,15.05,13.01,10.94,19.72,21.2,19.72,30.1,0,2.74-1.97,8.21-5.92,16.42-3.94,8.89-6.7,16.42-7.49,23.26-2.37,12.31-5.91,34.88-11.04,67.72,13.41-4.1,23.66-6.84,30.36-6.84,22.87,0,39.04,14.36,48.11,43.09,6.7,21.89,10.25,54.04,10.25,97.13,0,51.98-4.34,105.34-12.62,159.37ZM6807.73,3320.32c-2.37,14.36-5.92,21.2-10.25,21.2-2.37,0-5.92-3.42-10.25-10.94l-9.07-16.42c-3.15-3.42-9.07-8.21-18.53-13.68-8.28-4.1-12.22-7.52-12.22-9.58s2.37-3.42,7.1-4.79c3.15,0,6.31,0,9.46-.68,13.01-3.42,19.72-14.36,19.72-33.52,0-25.31-6.7-56.09-19.72-92.34-11.83-32.83-24.45-58.14-37.86-75.92-3.94-4.79-5.52-8.21-5.52-10.26,0-2.74.79-4.1,3.15-4.1,5.52,0,14.59,9.58,28,27.36,17.35,24.62,31.55,53.35,41.8,85.5,11.04,34.88,16.96,70.45,16.96,107.39,0,10.94-1.18,21.2-2.76,30.78Z"/>
    <path d="M6970.98,3532.36c-3.94,0-5.52-2.74-5.52-7.52,0-4.1,1.58-6.16,4.73-6.16,40.62,0,77.29-12.31,109.62-36.25,39.04-28.73,58.76-69.77,58.76-123.12,0-30.1-5.92-53.35-17.35-69.77-11.83-16.42-26.42-24.62-43.77-24.62-18.93,0-38.64,8.89-58.36,25.31-20.11,17.78-35.49,39.67-46.53,65.66-2.37,6.84-4.34,13-6.31,19.84-2.76,8.89-5.52,13-8.68,13-5.13,0-10.25-7.52-15.38-23.26-5.13-13.68-7.49-25.31-7.49-34.88,0,0,1.58-8.21,5.13-23.94,7.49-34.2,11.44-91.66,11.44-171,0-20.52,6.31-36.94,19.72-50.62,9.86-9.58,21.69-16.42,35.88-19.84,18.14-4.1,27.6-8.21,27.6-13,0-6.84-8.67-17.1-26.03-30.78-15.38-11.63-26.81-18.47-34.7-21.2-4.73-1.37-7.1-3.42-7.1-6.16,0-5.47,2.37-8.21,7.1-8.21,23.66,0,47.71,9.58,71.37,28.04,9.07,7.52,17.75,16.42,25.63,26.68,10.25,15.05,15.77,28.04,15.77,38.99,0,12.31-4.34,17.78-12.62,17.78-.79,0-6.31-3.42-17.35-10.94-11.44-6.84-21.69-10.94-31.15-10.94-11.44,0-22.87,6.16-34.31,17.1-13.41,13.68-19.72,28.73-19.72,46.51,0,50.62-2.76,108.76-8.28,175.79,0,4.1.79,5.47,2.76,5.47,2.37-2.05,9.07-8.89,20.11-20.52,35.1-36.25,68.22-54.72,98.98-54.72,22.87,0,41.8,10.94,56.39,31.46,14.99,23.26,22.87,54.04,22.87,93.03,0,108.76-64.67,162.79-193.22,162.79Z"/>
    <path d="M7550.25,3063.14c-12.22,20.52-33.52,54.72-63.88,103.28l3.94-.68c3.16,0,7.1,2.74,11.83,6.84,4.34,4.1,6.7,8.89,6.7,13.68,0,1.37-.39,4.1-1.18,9.58-.79,5.47-1.18,10.26-1.18,13.68-1.58,21.89-2.37,49.93-2.37,85.5,0,51.98.79,114.23,2.76,186.05,0,30.78-3.94,46.51-11.04,46.51-4.73,0-9.46-7.52-13.8-21.2-3.94-12.31-5.92-23.26-5.92-32.83l2.37-27.36c1.58-16.42,2.37-30.78,2.37-42.41l.39-35.57c0-22.57.39-38.99.39-49.25,0-8.21,0-24.62.39-50.62v-45.14c0-15.05-2.37-28.04-6.7-40.36-14.2,23.26-33.52,47.88-57.57,74.56-24.45,27.36-46.93,49.93-67.43,66.35-13.8,10.94-21.69,16.42-24.05,16.42-1.97,0-2.76-.68-2.76-2.74,0-2.74,1.18-4.79,3.55-7.52,72.16-71.82,132.89-158.69,182.58-259.92,14.99-30.1,22.48-51.3,22.48-62.25,0-5.47-1.58-10.26-4.73-15.05l-6.7-8.21c0-2.74,1.58-4.79,5.13-4.79,5.52,0,13.41,7.52,23.66,21.89,9.46,15.05,14.59,25.99,14.59,34.2,0,2.74-4.73,12.31-13.8,27.36Z"/>
    <path d="M7962.32,3092.55c-4.73,10.26-7.49,17.1-8.28,20.52-14.2,58.14-31.55,114.23-52.05,167.58,11.04,15.05,20.5,30.78,28.79,47.2,11.04,23.26,16.96,43.78,16.96,60.19s-3.55,23.94-9.86,23.94c-4.34,0-10.25-8.89-17.35-28.04-11.44-28.04-22.08-51.3-31.94-70.45-41.4,95.08-91.09,164.85-149.45,209.31-14.2,10.94-24.45,16.42-29.97,16.42-1.58,0-1.97-.68-1.97-1.37,0-2.05,2.37-4.79,7.1-8.21,60.73-47.88,113.96-128.59,158.92-240.77-24.45-38.3-46.14-64.3-65.46-79.34-3.94-2.74-5.92-4.79-5.92-6.84,0-1.37.79-2.74,2.37-2.74,3.15,0,12.62,5.47,27.6,15.73,17.35,12.31,35.1,27.36,52.45,45.14,14.98-41.72,26.81-82.76,36.28-123.12,5.52-25.31,8.68-40.36,8.68-44.46,0-13-4.34-19.84-12.22-19.84-2.37,0-12.62,3.42-31.15,10.26-18.93,6.84-32.73,9.58-41.41,9.58-3.94,0-8.67-3.42-13.8-11.63-26.03,71.14-62.3,139.54-108.84,205.89-4.73,6.84-8.28,9.58-11.44,9.58-1.97,0-2.76-1.37-2.76-4.1s1.58-6.16,4.73-10.26c16.56-21.2,38.64-64.98,65.85-130.64,26.82-65.67,40.62-110.81,40.62-135.43,0-8.21-1.58-14.36-3.94-19.15-1.18-1.37-4.34-5.47-9.86-10.94-1.58-1.37-1.97-2.05-1.97-3.42,0-4.1,2.37-6.16,7.49-6.16,7.49,0,16.17,5.47,26.42,15.05,11.04,10.94,16.56,22.57,16.56,34.2,0,1.37-1.58,5.47-4.73,11.63-3.94,6.84-6.31,10.94-6.31,11.63l-6.31,17.78c3.16,3.42,5.92,4.79,9.07,4.79,16.17,0,38.25-6.84,66.64-21.89,4.73-2.05,9.46-5.47,14.59-10.94,3.94-4.1,6.7-6.16,8.28-6.16,3.15,0,9.86,6.84,19.72,19.15,9.46,12.31,14.59,21.2,14.59,25.31,0,1.37-2.37,6.84-6.7,15.05Z"/>
    <path d="M8182.36,3080.92c-2.37,10.26-3.15,19.84-3.15,28.04v168.27c0,30.1-3.94,45.14-11.83,45.14-4.34,0-8.68-6.16-12.62-19.15-3.94-10.94-5.91-21.2-5.91-29.41,0-3.42.79-12.31,2.76-27.36,2.37-18.47,3.55-63.61,3.55-135.43,0-40.36-1.97-63.61-5.92-70.45-.39,0-2.37-2.05-5.92-6.16-3.55-4.1-5.13-6.84-5.13-8.21,0-4.79,3.15-7.52,9.46-7.52,6.7,0,14.59,4.79,24.05,14.36,9.07,10.26,13.8,19.15,13.8,25.99,0,4.1-1.18,11.63-3.16,21.89ZM8323.14,3028.94c-2.37,7.52-3.16,14.36-3.16,20.52,0,20.52,0,50.62.79,90.97.79,41.04,1.18,69.77,1.18,86.87,0,93.02-13.41,162.79-39.43,209.31-22.08,38.99-61.12,71.82-116.72,99.87-.79,0-2.37.68-4.34.68-2.76,0-3.94-2.05-3.94-5.47,0-2.05,1.58-4.1,5.13-6.16,88.33-54.72,132.89-149.11,132.89-283.86v-90.29c-.39-47.88-.39-78.66-.39-90.97,0-34.2-5.92-58.14-17.75-71.14-3.94-4.1-5.92-6.84-5.92-8.89,0-5.47,1.97-8.21,6.7-8.21,6.7,0,16.17,4.79,28,13,13.41,9.58,20.51,19.15,20.51,28.73,0,2.74-1.18,8.21-3.55,15.05Z"/>
    <path d="M8775.83,3075.45c-6.31,3.42-9.86,6.16-11.44,8.21-64.67,84.82-98.98,126.54-103.71,126.54-2.37,0-3.15-.68-3.15-3.42s1.18-6.84,3.94-10.94c10.25-15.05,23.27-38.3,39.43-68.4,20.11-36.94,30.36-60.19,30.36-69.77s-3.94-15.05-11.44-15.05c-17.35,0-44.17,4.79-80.84,14.36-37.86,10.26-68.22,20.52-90.3,30.78-.79.68-5.92,4.1-16.17,9.58-7.1,4.79-12.22,6.84-15.38,6.84-4.73,0-13.01-9.58-25.24-28.73-12.62-18.47-18.53-31.46-18.53-39.67,0-4.79.79-7.52,2.76-7.52,4.73,5.47,9.86,10.26,14.98,14.36,9.46,8.89,18.14,13,26.03,13,3.55,0,70.98-12.31,202.29-37.62,2.76,0,6.7-2.74,12.22-7.52,5.52-4.1,9.46-6.84,11.83-6.84,2.76,0,9.46,8.89,20.51,26.68,10.65,18.47,16.17,30.1,16.17,35.57,0,4.79-1.58,8.21-4.34,9.58ZM8646.49,3191.73c-2.37,8.21-3.55,13.68-3.55,16.42-7.89,95.76-28,172.37-60.33,229.14-12.22,21.21-28,41.72-47.32,62.25-17.75,17.78-29.18,27.36-34.31,27.36-2.37,0-3.55-1.37-3.55-4.1s1.18-5.47,3.55-6.84c32.73-27.36,59.94-71.82,82.02-134.07,21.69-61.56,32.73-124.49,32.73-188.79,0-17.78-5.52-31.46-16.17-40.36-3.94-2.74-5.52-5.47-5.52-8.89,0-5.47,3.55-8.89,11.44-8.89,6.31,0,14.59,4.1,25.63,12.31,12.22,9.58,18.53,19.15,18.53,28.04,0,3.42-1.18,8.89-3.16,16.42Z"/>
    <path d="M8890.97,3055.61h61.52c1.58-2.74,5.52-9.58,11.04-19.84,4.73-10.26,7.49-15.73,9.07-15.73,3.55,0,9.07,6.84,16.17,19.84,7.1,14.36,10.65,22.57,10.65,25.31,0,6.16-1.97,8.89-5.13,8.89h-103.32c-19.32,0-33.12,2.05-41.4,4.79l-7.1-29.41c11.04,4.1,27.21,6.16,48.5,6.16ZM8906.35,3250.55h33.91c1.58-2.74,4.73-8.21,9.46-17.1,4.73-8.89,7.49-13.68,8.68-13.68,3.15,0,7.89,6.16,14.59,17.78,6.31,12.31,9.46,19.84,9.46,22.57,0,6.16-1.58,8.89-4.34,8.89h-71.77c-19.32,0-33.12,2.05-41.41,4.79l-7.1-29.41c11.04,4.1,27.21,6.16,48.5,6.16ZM8907.93,3154.11h30.76c1.58-2.05,4.73-7.52,9.46-17.1,4.73-8.89,7.49-13.68,8.68-13.68,3.15,0,7.89,6.16,14.59,18.47,6.31,12.31,9.46,19.15,9.46,21.89,0,6.84-1.58,9.58-4.34,9.58h-68.61c-19.32,0-33.12,2.05-41.41,4.79l-7.1-29.41c11.04,4.1,27.21,5.47,48.5,5.47ZM8887.42,3341.53h56c2.76-4.1,5.52-8.89,8.68-14.36,2.37-3.42,4.73-5.47,6.7-5.47s6.31,4.79,13.01,13.68c5.92,9.58,9.07,15.73,9.07,18.47,0,4.1-1.97,7.52-5.52,11.63-3.55,4.1-5.13,8.21-5.13,12.31v112.86c0,10.26.39,24.62,1.97,43.09,0,3.42-1.58,6.16-4.73,8.89-5.13,2.05-9.46,3.42-13.41,3.42s-5.52-4.1-5.52-10.94v-30.78h-59.94v41.72c0,2.74-1.58,5.47-4.34,6.84-4.73,2.05-8.68,3.42-11.83,3.42-4.73,0-7.1-3.42-7.1-10.26.79-12.31,1.58-24.62,1.58-36.94v-135.43c0-16.42-.79-33.52-1.58-49.93,7.1,4.79,14.59,10.94,22.08,17.78ZM8926.07,2981.06c6.7,12.31,10.25,23.26,10.25,33.52,0,7.52-1.58,15.05-3.94,21.89s-5.13,9.58-8.28,9.58c-7.1,0-11.83-8.21-14.59-25.31-4.73-27.36-11.44-49.93-20.9-69.08l3.94-6.84c15.38,12.31,26.42,24.62,33.52,36.25ZM8948.54,3485.85v-125.86h-59.94v125.86h59.94ZM9038.85,2985.84h105.29c1.58-2.74,5.13-8.89,10.65-19.15,4.34-9.58,7.1-14.36,8.67-14.36,3.16,0,8.28,6.84,14.98,19.84,7.1,13,10.65,20.52,10.65,23.26,0,6.84-1.97,9.58-5.13,9.58h-100.56l-9.86,101.23h50.47c2.37-4.79,5.52-10.26,9.07-15.73,3.94-6.16,6.7-9.58,9.07-9.58,2.76,0,7.49,4.79,14.2,14.36,6.31,9.58,9.46,15.73,9.46,19.84s-1.97,8.21-5.13,12.31c-3.94,5.47-5.52,9.58-5.52,12.31v113.54h8.28l9.86-17.1c4.34-8.89,7.1-13.68,8.28-13.68,3.15,0,7.89,6.16,14.59,17.78,6.31,12.31,9.86,19.84,9.86,22.57,0,6.16-1.58,8.89-4.73,8.89h-168.77c-19.32,0-33.12,2.05-41.01,4.79l-7.49-29.41c11.04,4.1,27.21,6.16,48.5,6.16h4.73l12.62-128.59h-3.55c-18.14,0-31.94,2.05-41.01,4.79l-7.49-29.41c14.59,4.1,30.76,6.16,48.5,6.16h5.52l9.86-101.23h-22.87c-19.32,0-33.12,2.05-41.4,4.79l-7.1-29.41c11.04,4.1,27.21,5.47,48.5,5.47ZM9036.48,3338.79h97.79l9.07-15.73c2.37-4.1,4.34-6.84,6.31-6.84s6.31,4.79,13.01,13.68c6.31,9.58,9.46,15.73,9.46,19.15s-1.97,6.84-5.13,10.94c-3.15,4.1-4.34,8.21-4.34,12.31v131.33c0,10.94.39,25.31,1.97,43.78,0,2.74-1.58,5.47-4.34,8.21-5.52,2.05-9.86,3.42-13.8,3.42-3.55,0-5.13-3.42-5.13-10.26v-36.25h-106.47v36.25c0,2.74-1.58,4.79-4.34,6.84-4.73,2.05-8.68,3.42-11.83,3.42-4.73,0-6.7-3.42-6.7-10.26.79-12.31,1.18-24.62,1.18-36.94v-143.64c0-16.42-.39-32.83-1.18-49.25,7.89,5.47,16.17,11.63,24.45,19.84ZM9141.37,3494.06v-136.8h-106.47v136.8h106.47ZM9133.49,3253.29v-128.59h-61.91l-12.62,128.59h74.53Z"/>
    <path d="M9541.22,3223.88c-27.6,15.05-61.91,34.88-102.53,60.88,1.58,41.04,2.76,65.67,2.76,72.5,0,31.46-5.13,46.51-14.98,46.51-7.1,0-10.25-9.58-10.25-29.41l1.18-75.92c-55.21,39.67-82.42,77.98-82.42,115.6,0,23.26,6.7,41.04,20.11,53.35,11.04,10.94,23.66,15.73,37.86,15.73,38.25,0,73.74-6.16,106.08-19.15,13.8,0,20.9,8.89,20.9,25.31,0,12.31-9.86,20.52-28.79,25.31-13.41,2.74-36.28,4.79-68.22,4.79-29.18,0-51.26-5.47-65.85-15.05-23.27-15.05-34.7-43.78-34.7-86.18,0-51.98,31.55-100.55,95.03-145.69-1.58-43.78-12.22-65.67-32.73-65.67-13.41,0-28.39,11.63-44.95,34.2-14.2,19.15-26.03,40.36-35.49,63.61-9.46,23.94-16.96,35.57-22.08,35.57-3.55,0-6.31-4.1-7.89-13-1.58-6.84-2.37-13.68-2.37-20.52,0-4.79,3.55-13.68,11.44-26.68,10.25-17.1,16.96-29.41,20.51-37.62,15.38-35.57,30.76-79.34,46.53-132.01-9.07,1.37-18.14,1.37-26.81,1.37-14.99,0-26.81-6.16-35.88-19.84-7.1-9.58-10.25-17.1-10.25-23.94,0-3.42.79-5.47,2.76-5.47,13.01,14.36,27.6,21.2,44.17,21.2,9.86,0,21.29-.68,34.31-3.42,8.67-32.15,13.41-54.72,13.41-67.72,0-8.21-2.76-15.73-7.89-21.89l-7.49-8.21c0-4.79,1.58-7.52,4.73-7.52,6.7,0,15.38,3.42,25.63,10.26,12.22,8.21,18.53,16.42,18.53,25.99,0,3.42-1.58,7.52-4.34,13-3.94,7.52-6.7,13-7.49,16.42l-11.44,35.57c22.08-4.79,39.04-10.94,51.26-18.47l11.83-8.89c5.52-4.1,9.07-6.16,11.04-6.16,2.76,0,6.31,2.74,11.04,6.84,3.94,4.79,6.31,9.58,6.31,13.68,0,8.21-5.52,14.36-15.77,18.47-27.6,12.31-56,20.52-85.96,25.99-15.77,47.88-29.97,88.92-42.59,123.12,19.32-31.46,41.01-47.88,64.67-47.88,26.03,0,40.22,25.31,43.38,75.24l38.25-25.31c14.99-10.26,26.42-19.15,34.31-27.36,13.41-13,20.11-24.62,20.11-34.88,0-4.1-1.97-9.58-5.92-15.73s-5.52-9.58-5.52-10.26c0-2.74,1.18-4.79,3.94-4.79,7.49,0,15.38,6.84,23.66,20.52,8.28,13.68,12.62,26.68,12.62,40.36,0,9.58-5.91,17.1-17.74,23.26Z"/>
    <path d="M9730.1,2949.59c8.68,4.1,13.41,7.52,13.41,11.63s-2.76,6.84-7.89,8.21c-3.94,1.37-6.31,3.42-7.1,5.47-10.25,58.14-21.29,106.02-32.73,144.33l5.92,2.05c3.94,2.74,6.31,4.79,6.31,6.16,0,5.47-2.37,10.26-6.31,14.36-3.15,2.05-4.34,5.47-4.34,10.94v393.99c0,3.42-1.58,6.84-4.34,9.58-4.73,1.37-8.68,2.74-11.83,2.74-4.73,0-7.1-4.1-7.1-10.94.79-25.99,1.58-51.3,1.58-77.29v-290.02c-12.62,35.57-27.6,69.77-44.95,103.29l-4.34-10.26c13.8-34.2,28.79-83.45,44.56-146.38,13.01-50.62,24.45-114.23,34.7-190.84,9.07,5.47,17.35,9.58,24.45,13ZM9775.06,3034.41h64.67v-52.67c0-13.68-.79-27.36-1.58-42.41,7.49,1.37,14.98,3.42,22.08,4.79,9.07,1.37,13.8,4.1,13.8,8.21,0,3.42-2.37,6.16-6.31,8.21-3.16,1.37-4.73,4.79-4.73,10.94v62.93h78.47l10.65-20.52c4.73-9.58,7.89-15.05,9.46-15.05,3.16,0,8.68,6.84,16.17,19.84,7.1,13.68,10.65,21.89,10.65,24.62,0,6.84-1.97,9.58-5.52,9.58h-119.88v77.29h66.25l8.67-13.68c2.37-4.1,4.73-6.16,6.7-6.16s6.31,4.79,13.01,13.68c5.92,9.58,9.07,15.73,9.07,19.15,0,4.1-1.97,7.52-5.52,10.94-3.55,4.1-5.13,8.21-5.13,12.31v112.86c0,10.94.39,25.31,1.97,43.78,0,3.42-1.58,6.16-4.73,8.21-5.13,2.74-9.46,3.42-13.41,3.42s-5.52-3.42-5.52-10.94v-28.04h-72.56c-2.37,51.98-7.49,92.34-14.99,119.7-2.37,10.94-5.52,20.52-9.46,30.1,10.25,8.89,22.48,16.42,36.67,23.26,26.82,16.42,66.25,28.73,119.09,36.94l-.79,9.58c-6.7,3.42-11.44,10.94-13.8,22.57-1.97,8.89-3.55,13.68-5.13,13.68-9.86,0-29.58-6.16-59.15-18.47-32.34-14.36-57.57-29.41-75.32-45.14-5.52-4.1-10.65-8.89-15.38-14.36-5.52,9.58-11.04,19.15-17.35,27.36-22.08,26.68-50.47,47.2-85.96,60.88l-2.76-8.21c33.91-19.15,60.33-43.78,78.87-74.56,4.34-8.21,8.28-15.73,11.44-23.94-8.67-10.94-16.17-22.57-22.48-36.25-13.8-25.99-24.84-54.72-32.73-87.55l5.52-4.79c17.35,39.67,35.1,70.45,53.24,91.66,2.37,3.42,4.73,6.16,7.49,8.89,3.15-8.89,5.52-17.78,7.1-27.36,6.31-24.62,10.25-58.82,12.62-103.97h-67.43v15.05c0,2.74-1.58,5.47-4.34,7.52-4.73,2.74-8.68,3.42-11.83,3.42-4.73,0-6.7-3.42-6.7-10.94.79-7.52,1.58-15.73,1.58-25.31v-136.8c0-8.89-.79-19.84-1.58-32.83,5.92,4.1,11.83,8.89,17.75,14.36h73.74v-77.29h-64.67c-19.32,0-33.12,2.05-41.01,4.79l-7.49-29.41c11.04,4.1,27.21,6.16,48.5,6.16ZM9839.34,3277.23c0-14.36.39-30.1.39-46.51v-81.4h-68.61v127.91h68.22ZM9863,3230.72c0,17.1-.39,32.83-.39,46.51h71.77v-127.91h-71.37v81.4Z"/>
    <path d="M10093.28,2988.58h214.91l8.28-15.73c4.34-8.21,7.49-12.31,9.86-12.31,1.58,0,6.31,4.79,14.2,14.36,7.49,12.31,11.44,19.84,11.44,23.94,0,6.16-1.97,10.94-5.92,13.68-4.73,4.1-6.7,8.21-6.7,12.31v491.12c0,15.73-5.52,27.36-15.77,35.57-8.28,6.84-15.38,10.26-20.9,10.26-5.92,0-9.07-6.16-9.07-18.47-1.58-13.68-16.17-25.99-43.77-36.94l1.97-11.63c20.9,6.84,37.86,10.94,50.87,10.94,7.89,0,11.83-4.79,11.83-14.36v-160.74h-100.56v153.9c0,16.42.39,35.57,1.18,58.14,0,4.1-1.58,6.84-4.34,9.58-5.52,2.74-10.25,4.1-14.2,4.1-4.73,0-7.1-4.1-7.1-11.63.79-14.36,1.58-34.2,1.58-60.19v-153.9h-99.77c-.79,17.78-1.97,34.88-3.16,49.93-3.94,38.3-11.04,74.56-21.29,108.07-9.07,25.99-21.29,51.98-36.28,78.66l-5.13-6.84c15.77-43.09,26.82-82.76,32.34-121.07,7.1-46.51,10.65-115.6,10.65-208.62,0-123.12-1.18-211.36-2.76-264.71,11.44,8.21,20.5,15.73,27.6,22.57ZM10191.08,3312.11v-141.59h-97.79v60.19c0,30.1-.39,56.77-1.18,81.4h98.98ZM10191.08,3152.06v-144.33h-97.79v144.33h97.79ZM10213.95,3152.06h100.56v-144.33h-100.56v144.33ZM10213.95,3312.11h100.56v-141.59h-100.56v141.59Z"/>
    <path d="M10705.68,3363.42c-33.52,105.34-78.87,157.32-135.65,157.32-53.63,0-80.05-51.98-80.05-157.32,0-40.36,1.58-100.55,5.13-181.26,3.15-80.03,5.13-121.75,5.13-125.17,0-19.84-5.92-33.52-17.75-41.04-4.34-2.74-6.31-4.79-6.31-7.52,0-8.21,4.34-12.31,13.01-12.31,7.89,0,17.35,5.47,27.6,16.42,11.04,12.31,16.96,24.62,16.96,36.94,0,1.37-1.18,7.52-3.55,17.78-2.37,10.26-3.94,17.1-4.34,19.84-9.46,79.34-14.2,168.95-14.2,268.81,0,41.04,3.55,71.14,11.04,88.92,8.68,21.89,24.05,32.83,46.93,32.83,28.79,0,56.39-16.42,83.2-50.62,24.45-31.46,43.77-70.45,57.97-118.33,2.76-9.58,5.13-14.36,7.1-14.36,1.58,0,2.76,2.74,2.76,8.21,0,9.58-5.13,29.41-14.98,60.88Z"/>
    <path d="M11120.91,3502.95c-3.94,0-11.83-6.84-24.05-21.2-21.69-24.62-46.14-45.14-73.74-62.93v8.21c0,38.3-7.1,65.67-20.9,80.71-11.04,11.63-28.39,17.78-51.26,17.78-18.53,0-34.31-6.16-46.93-17.1-16.56-14.36-24.84-36.25-24.84-65.66,0-50.62,25.24-76.61,76.5-76.61,11.83,0,26.81,3.42,44.56,8.89l-2.37-132.01c-30.76,6.16-57.57,8.89-80.44,8.89s-41.01-10.26-52.84-30.78c-7.89-13-11.83-24.62-11.83-34.88,0-2.05.79-3.42,2.37-3.42,15.38,25.99,35.49,38.99,60.73,38.99,23.27,0,50.47-2.74,81.23-9.58l-1.97-95.76c-20.5,5.47-37.07,7.52-49.29,7.52-14.59,0-27.21-6.84-38.25-20.52-8.67-10.26-12.62-18.47-12.62-25.31,0-2.05.79-3.42,2.76-3.42,3.94,4.1,7.89,8.21,12.22,12.31,8.68,8.21,18.93,11.63,29.97,11.63,15.77,0,33.91-2.74,54.81-9.58l-.39-32.15c0-27.36-4.73-47.2-14.2-58.82-.39,0-3.15-2.05-7.89-6.16-3.94-2.74-5.92-4.79-5.92-6.16,0-4.1,2.37-6.84,7.1-6.84,7.49,0,17.35,3.42,29.18,10.26,14.2,8.21,21.29,17.78,21.29,27.36,0,2.74-1.58,8.89-4.34,19.15-2.76,10.26-3.94,19.15-3.94,25.99v19.84l20.9-8.89c5.52-2.74,12.22-8.21,20.11-15.05,5.52-4.79,9.46-7.52,11.04-7.52,3.15,0,6.7,2.05,11.04,6.16,4.34,4.1,6.7,8.89,6.7,13.68,0,7.52-5.13,13.68-14.59,18.47-14.98,8.21-33.52,15.73-55.21,22.57l-.39,97.13c26.81-6.84,46.14-14.36,57.97-22.57l14.2-12.31c7.1-6.16,11.44-9.58,12.62-9.58,4.73,0,10.25,2.05,15.77,6.16,6.31,5.47,9.86,11.63,9.86,18.47s-6.31,13.68-18.14,19.84c-23.66,12.31-54.42,23.26-91.49,31.46l5.92,143.64c39.04,17.78,69.8,38.99,92.27,63.61,12.22,13.68,18.53,26.68,18.53,38.99,0,11.63-3.94,17.1-11.83,17.1ZM11000.64,3406.51c-22.08-10.26-41.8-15.73-59.15-15.73-34.7,0-52.05,17.1-52.05,51.3,0,19.15,7.1,34.2,22.08,43.78,11.04,7.52,22.87,10.94,36.28,10.94,17.35,0,29.97-3.42,37.86-11.63,10.25-10.26,15.38-29.41,15.38-58.14l-.39-20.52Z"/>
    <path d="M11494.34,3363.42c-33.52,105.34-78.87,157.32-135.65,157.32-53.63,0-80.05-51.98-80.05-157.32,0-40.36,1.58-100.55,5.13-181.26,3.15-80.03,5.13-121.75,5.13-125.17,0-19.84-5.92-33.52-17.75-41.04-4.34-2.74-6.31-4.79-6.31-7.52,0-8.21,4.34-12.31,13.01-12.31,7.89,0,17.35,5.47,27.6,16.42,11.04,12.31,16.96,24.62,16.96,36.94,0,1.37-1.18,7.52-3.55,17.78-2.37,10.26-3.94,17.1-4.34,19.84-9.46,79.34-14.2,168.95-14.2,268.81,0,41.04,3.55,71.14,11.04,88.92,8.68,21.89,24.05,32.83,46.93,32.83,28.79,0,56.39-16.42,83.2-50.62,24.45-31.46,43.77-70.45,57.97-118.33,2.76-9.58,5.13-14.36,7.1-14.36,1.58,0,2.76,2.74,2.76,8.21,0,9.58-5.13,29.41-14.98,60.88Z"/>
    <path d="M11796,3112.39c-16.96,10.26-39.04,19.84-66.64,29.41-8.28,51.98-18.14,108.76-29.18,168.95-11.04,56.09-21.69,112.18-31.94,168.27-4.73,24.62-10.25,36.94-16.56,36.94-4.34,0-7.89-6.16-10.25-18.47-2.37-9.58-3.16-19.15-3.16-28.04,0-6.84,2.37-18.47,7.89-34.2l11.44-33.52c18.14-71.14,34.7-155.27,50.08-252.4-14.59,4.1-25.63,6.16-33.52,6.16-11.83,0-22.08-6.16-31.15-19.84-7.89-10.94-11.83-20.52-11.83-28.73,0-2.74.79-4.1,2.76-4.1,13.41,14.36,25.63,21.2,36.67,21.2,9.46,0,23.27-2.74,42.19-8.89,6.7-47.88,10.25-80.71,10.25-99.18,0-11.63-4.73-21.21-13.8-28.73-1.58-1.37-3.16-2.74-4.73-5.47,0-4.79,1.97-7.52,6.7-7.52,7.1,0,16.17,4.1,26.42,12.31,11.83,9.58,18.14,19.15,18.14,29.41,0,3.42-1.58,8.21-3.94,15.05-3.16,8.21-5.13,14.36-5.92,17.78-3.55,15.05-7.1,34.88-11.04,58.82,13.41-5.47,24.84-10.94,33.91-17.78,1.97-1.37,5.92-5.47,11.83-11.63,3.94-4.79,7.1-7.52,9.46-7.52,3.15,0,7.1,2.74,12.22,7.52,4.73,5.47,7.49,10.26,7.49,15.05,0,7.52-4.73,13.68-13.8,19.15ZM11874.47,3517.32c-73.35,0-109.62-31.46-109.62-95.08,0-20.52,3.94-41.04,11.83-60.88,6.7-16.42,11.04-25.31,13.41-25.31,1.18,0,1.97,2.05,1.97,4.79-.79,2.05-3.15,8.21-6.31,18.47-4.34,13.68-6.31,26.68-6.31,39.67,0,28.73,8.68,49.93,26.03,62.93,12.62,9.58,28.39,13.68,47.71,13.68,11.44,0,29.97-3.42,55.21-10.94,3.94,0,9.07,2.74,14.98,8.21,5.52,5.47,8.28,11.63,8.28,18.47,0,17.1-19.32,25.99-57.18,25.99ZM11898.92,3201.99c-14.59,4.79-29.97,18.47-45.74,40.36l-8.67,11.63c-1.18,0-1.58-.68-1.58-2.74s1.58-6.84,4.73-13.68c9.07-20.52,13.8-32.83,13.8-36.94,0-8.89-7.49-13.68-22.08-13.68-15.77,0-33.52,6.84-53.63,19.84-1.58,0-2.37-.68-2.37-3.42,0-2.05,1.18-4.79,4.34-8.21,25.24-28.73,54.02-43.09,85.96-43.09,8.28,0,16.17,2.74,23.66,6.84,9.86,6.84,14.98,15.73,14.98,27.36,0,8.21-4.73,13-13.41,15.73Z"/>
    <path d="M12106.34,3476.28c-8.67,15.05-19.32,21.89-31.15,21.89s-22.48-6.84-30.76-21.89c-8.67-14.36-12.62-32.15-12.62-53.35s3.94-38.3,12.62-53.35c8.28-15.05,18.53-22.57,30.76-22.57s22.48,7.52,31.15,22.57c8.28,15.05,12.62,32.83,12.62,53.35s-4.34,38.99-12.62,53.35ZM12097.66,3384.62c-6.31-10.94-13.8-16.42-22.48-16.42s-16.17,5.47-22.08,16.42c-6.31,10.94-9.07,23.26-9.07,38.3s2.76,28.04,9.07,38.3c5.92,10.94,13.41,15.73,22.08,15.73s16.17-4.79,22.48-15.73c5.92-10.26,9.07-23.26,9.07-38.3s-3.15-27.36-9.07-38.3Z"/>
  </g>
</svg>