<?xml version="1.0" encoding="UTF-8"?>
<svg id="_レイヤー_1" data-name="レイヤー_1" xmlns="http://www.w3.org/2000/svg" version="1.1" viewBox="0 0 2299.52 1085.6">
  <!-- Generator: Adobe Illustrator 29.8.1, SVG Export Plug-In . SVG Version: 2.1.1 Build 2)  -->
  <defs>
    <style>
      .st0 {
        fill: none;
      }
    </style>
  </defs>
  <g>
    <path d="M67.2,236.7c5.36,10.83,11.54,19.42,18.6,25.69l-1.62,5.18c-7.07-6.5-13.11-15.09-18.09-25.62-4.6,9.91-10.6,18.42-18.09,25.69l-1.62-5.26c7.45-6.81,13.66-15.4,18.6-25.69h2.21ZM80.86,274.77v4.26c-2.77,12.54-8.3,22.13-16.64,28.63l-2.04-4.8c7.24-5.42,12.3-13,15.11-22.91h-26.3v-5.18h29.88ZM76.05,259.6v5.26h-19.96v-5.26h19.96Z"/>
    <path d="M125.68,306.34h-2.98v-3.33h-28.18v3.33h-2.98v-65.08h34.14v65.08ZM122.7,298.06v-51.85h-28.18v51.85h28.18ZM116.87,258.21v27.55h-16.43v-27.55h16.43ZM113.98,263.01h-10.68v18.03h10.68v-18.03Z"/>
    <path d="M164.04,253.72c3.07,5.26,4.64,11.76,4.64,19.5,0,8.67-1.45,15.4-4.26,20.35-2.55,4.49-6.55,7.74-11.96,9.75l-1.06-5.26c5.06-1.78,8.73-4.8,10.98-8.98,2.04-3.87,3.11-9.21,3.11-15.86s-1.32-11.76-3.96-15.94c-2.38-3.79-5.19-5.88-8.43-6.19l-.89,14.39c-.64,7.97-1.53,14.47-2.68,19.5-1.87,8.67-4.38,13-7.45,13-2.47,0-4.51-2.01-6.09-6.04-1.53-3.87-2.26-8.67-2.26-14.24,0-8.67,1.62-16.02,4.85-22.13,3.45-6.66,7.96-9.91,13.54-9.91,4.77,0,8.72,2.63,11.92,8.05ZM148.16,273.92c.85-6.89,1.49-14.47,1.83-22.67-3.36.62-6.26,3.1-8.64,7.27-2.98,5.11-4.43,11.53-4.43,19.19,0,4.33.51,7.89,1.53,10.76.94,2.79,2.17,4.18,3.62,4.18,2.47,0,4.51-6.27,6.09-18.73Z"/>
    <path d="M185.02,271.91v-7.66h3.06v7.66h8.43v5.42h-8.43v4.8c2.64,2.79,5.36,5.96,8.13,9.6l-1.79,4.95c-2.47-4.02-4.6-7.12-6.34-9.44v20.28h-3.06v-23.91c-2.55,7.51-5.49,13.78-8.9,18.73l-1.83-4.8c4.26-5.73,7.62-12.46,10.05-20.2h-8.6v-5.42h9.28ZM196.73,242.19c-5.36,3.1-12.47,4.64-21.41,4.64l-.89-4.95c8.34,0,15.32-1.47,20.86-4.33l1.45,4.64ZM181.28,263.78l-2.51,1.16c-.85-4.64-1.91-9.13-3.19-13.31l2.43-1.47c1.23,3.95,2.34,8.51,3.28,13.62ZM188.17,259.99l-2.6,1.7c-.68-4.02-1.53-7.89-2.51-11.69l2.6-1.32c1.06,4.1,1.92,7.89,2.51,11.3ZM195.96,248.69c-.85,6.11-1.91,11.45-3.24,16.1l-2.47-1.62c1.19-4.1,2.21-9.29,3.15-15.63l2.55,1.16ZM213.46,282.43c-4.04,9.98-9.11,18.26-15.15,24.84l-1.4-5.26c5.87-5.96,10.68-13.85,14.47-23.76l2.09,4.18ZM210.31,240.18c-3.11,7.12-6.98,13-11.58,17.72l-1.32-5.11c4.38-4.18,8-9.83,10.85-16.79l2.04,4.18ZM212.14,261.15c-3.41,7.66-7.62,14.01-12.68,19.04l-1.36-5.11c4.9-4.57,8.9-10.6,12.05-18.03l2,4.1Z"/>
    <path d="M252.92,238.63v4.33h-15.15v3.79h16.47v13.39h-2.85v-9.21h-13.62v14.01h-2.89v-14.01h-13.62v9.21h-2.85v-13.39h16.47v-3.79h-15.15v-4.33h33.2ZM235.17,282.2h-12.13v4.72h12.17v4.33h-12.17v4.8h12.3v4.33h-12.3v7.27h-2.89v-39.78h15.02v14.32ZM232.53,278.1v-6.11h-9.49v6.11h9.49ZM232.49,263.4c-1.83.62-4.77,1.16-8.85,1.55l-.55-3.33c4-.31,6.94-.7,8.81-1.32l.6,3.1ZM232.53,255.19l-.68,3.1c-2.64-.62-5.45-1.01-8.34-1.32l.89-3.1c2.81.31,5.49.7,8.13,1.32ZM253.05,285.14v3.79c-1.49,4.02-3.28,7.35-5.41,10.14,2.17,1.78,4.85,3.33,8.04,4.72l-1.23,4.18c-3.75-1.7-6.81-3.71-9.19-6.11-2.64,2.63-5.66,4.57-9.07,5.8l-1.19-4.33c2.89-.93,5.49-2.4,7.79-4.41-1.96-2.79-3.28-5.88-4-9.44h-1.66v-4.33h15.92ZM237.98,281.19v-3.95h11.54v-5.26h-11.49v-4.02h14.35v13.23h-14.39ZM249.47,261.92l-.77,3.33c-2.72-.93-5.58-1.55-8.51-2.01l.81-2.94c2.94.39,5.75.93,8.47,1.63ZM240.32,255.19c2.98-.31,5.62-.93,7.92-1.86l.72,3.33c-2.38.77-5.15,1.39-8.3,1.78l-.34-3.25ZM245.04,296.59c1.7-2.01,3.24-4.41,4.51-7.12h-8.13c.55,2.63,1.75,4.95,3.62,7.12Z"/>
    <path d="M295.44,241.88v3.41c-.94,6.5-2.94,11.84-6,16.17,2.64,3.71,5.7,7.12,9.24,10.06l-1.87,3.95c-3.15-2.79-5.87-5.8-8.26-9.05v4.49h-17.58v-4.49c-2.81,3.87-6.17,6.96-10.09,9.44l-1.49-4.8c3.15-1.7,5.83-3.79,8.13-6.35-1.19-2.4-2.6-4.88-4.3-7.43-.6.7-1.15,1.39-1.66,2.01l-1.75-4.1c4.68-5.11,7.83-11.38,9.45-18.73l2.98.7c-.34,1.62-.77,3.17-1.19,4.72h7.96v4.26c-1.45,7.82-3.96,14.39-7.58,19.66h16.69c-3.66-5.18-6.43-11.07-8.3-17.64l2.17-2.24c1.36,4.49,3.19,8.59,5.41,12.38,2.47-3.64,4.13-7.58,4.98-11.84h-10v-4.57h13.07ZM272.16,291.02c-2.55,5.8-5.7,10.91-9.41,15.25l-1.83-4.41c3.62-4.02,6.68-8.74,9.15-14.16l2.09,3.33ZM295.27,279.03v5.26h-14.22v16.72c0,4.18-1.19,6.35-3.53,6.35h-5.36l-.64-5.18c1.7.23,3.36.39,4.98.39,1.02,0,1.53-1.01,1.53-2.86v-15.4h-15.49v-5.26h32.73ZM265.1,254.73c1.7,2.48,3.19,5.03,4.43,7.51.85-1.24,1.66-2.48,2.38-3.87-1.32-2.4-2.85-4.87-4.6-7.35-.72,1.32-1.45,2.55-2.21,3.71ZM276.12,246.53h-6.72c-.17.46-.38.93-.55,1.39,1.79,2.32,3.32,4.72,4.64,7.04,1.11-2.63,1.96-5.42,2.64-8.44ZM296.68,302.4l-2.13,3.87c-2.3-4.8-5.49-9.91-9.49-15.32l2-3.48c3.79,4.95,6.98,9.98,9.62,14.94Z"/>
    <path d="M338.31,250.08l-7.66.62c-1.28,0-2.94,1.39-4.9,4.18-2.13,2.94-3.92,6.42-5.32,10.45-1.66,4.64-2.47,9.36-2.47,14.08,0,5.42,1.28,9.75,3.87,12.92,2.77,3.25,6.81,5.03,12.17,5.34l-.6,5.34c-6.21-.16-10.94-2.32-14.13-6.5-3.07-3.95-4.6-9.52-4.6-16.72,0-6.19,1.11-12.07,3.36-17.49,1.83-4.64,4.17-8.44,7.07-11.38-6.3.93-13.2,2.01-20.6,3.41l-.43-5.49c13.62-2.4,24.99-3.71,34.14-3.95l.08,5.18ZM335.58,271.68l-1.83,2.32c-1.28-3.87-2.77-7.27-4.47-10.37l1.7-2.48c1.83,3.25,3.36,6.73,4.6,10.52ZM339.67,266.34l-1.83,2.4c-1.28-3.87-2.77-7.35-4.43-10.37l1.66-2.4c1.87,3.33,3.41,6.81,4.6,10.37Z"/>
    <path d="M375.56,242.42h3.06v26.54h-13.02v28.4h12v-21.13h3.11v30.8h-3.11v-4.33h-27.15v4.33h-3.11v-30.8h3.11v21.13h12v-28.4h-13.02v-26.54h3.06v21.13h9.96v-27.01h3.15v27.01h9.96v-21.13Z"/>
    <path d="M409.87,244.2h15.66v5.42h-31.37v16.95c-.13,16.87-1.66,30.41-4.64,40.63l-2.3-3.71c2.51-8.82,3.83-21.13,3.92-36.91v-22.37h15.62c-.64-2.55-1.36-4.87-2.13-7.04l3.19-.93c.68,2.32,1.36,5.03,2.04,7.97ZM410.68,252.87v9.21h14.05v5.26h-14.05v11.3h11.19v28.87h-3.02v-3.87h-17.96v3.87h-3.02v-28.87h9.7v-25.77h3.11ZM418.85,298.37v-14.55h-17.96v14.55h17.96Z"/>
    <path d="M455.29,238.17l.13,10.52,11.79-.31v5.18l-11.75.31v.62c.09,10.76.17,17.33.17,19.73,0,8.82-.98,15.4-2.94,19.81-1.83,4.02-5.24,7.74-10.17,10.99l-1.49-5.03c3.02-1.78,5.41-3.79,7.11-6.04,1.96-2.55,3.32-5.88,4.09-10.06-1.28,3.25-2.94,4.87-4.98,4.87-2.64,0-4.68-1.47-6.21-4.33-1.45-2.79-2.13-6.19-2.13-10.21s.68-7.2,2.09-9.98c1.53-3.1,3.62-4.64,6.26-4.64,2.47,0,4.3,1.78,5.49,5.34-.17-2.48-.3-5.42-.3-8.98l-.04-2.01-20.81.54v-5.18l20.77-.54-.13-10.6h3.07ZM443.24,267.73c-.94,1.78-1.36,3.95-1.36,6.5,0,2.71.47,4.95,1.41,6.65.94,1.78,2.25,2.71,3.96,2.71,1.53,0,2.85-.93,3.87-2.79.94-1.86,1.45-4.02,1.45-6.35,0-2.79-.51-5.11-1.49-6.97-1.02-1.93-2.3-2.86-3.83-2.86-1.7,0-3.02,1.01-4,3.1Z"/>
    <path d="M502.41,246.21c-4.51,6.81-9.79,14.86-15.83,24.3,3.32-3.56,6.47-5.26,9.45-5.26,3.53,0,6.3,1.55,8.3,4.64,1.96,3.1,2.94,7.27,2.94,12.69,0,6.04-1.49,10.91-4.38,14.63-2.98,3.71-6.68,5.57-11.11,5.57-2.89,0-5.19-1.01-6.9-3.02-1.7-2.09-2.51-4.8-2.51-8.2,0-3.1.6-5.65,1.83-7.66,1.28-2.24,2.98-3.33,5.11-3.33,2.89,0,5.15,1.63,6.81,5.03,1.23,2.4,2.13,5.65,2.64,9.67l1.06-1.01c2.85-2.94,4.3-6.89,4.3-11.69,0-4.1-.81-7.2-2.34-9.29-1.45-1.93-3.45-2.86-6.09-2.86-3.02,0-6.17,1.39-9.49,4.18-2.85,2.48-5.49,5.65-7.88,9.6l-2.04-3.95,20.86-32.97-17.54,1.55-.17-5.42,21.2-1.24,1.79,4.02ZM495.64,295.51c-.98-6.58-3.11-9.83-6.34-9.83-1.19,0-2.13.54-2.81,1.7-.72,1.08-1.06,2.48-1.06,4.1s.43,3.02,1.36,4.18c1.11,1.39,2.77,2.09,4.98,2.09,1.45,0,2.77-.31,4.04-.77-.08-.62-.13-1.08-.17-1.47Z"/>
    <path d="M537.57,244.2h15.66v5.42h-31.37v16.95c-.13,16.87-1.66,30.41-4.64,40.63l-2.3-3.71c2.51-8.82,3.83-21.13,3.92-36.91v-22.37h15.62c-.64-2.55-1.36-4.87-2.13-7.04l3.19-.93c.68,2.32,1.36,5.03,2.04,7.97ZM538.38,252.87v9.21h14.05v5.26h-14.05v11.3h11.19v28.87h-3.02v-3.87h-17.96v3.87h-3.02v-28.87h9.7v-25.77h3.11ZM546.55,298.37v-14.55h-17.96v14.55h17.96Z"/>
    <path d="M567.58,237.47c2.38,4.02,4.98,8.98,7.79,14.86l-1.83,4.41c-2.85-6.27-5.15-10.91-6.85-13.85-1.91,5.73-4.55,11.45-7.92,17.18l-1.79-4.57c3.4-5.57,6.26-11.53,8.47-18.03h2.13ZM565.37,258.98v-7.74h2.81v7.74h4.55v4.8h-4.55v6.5h6.13v4.95h-15.11v-4.95h6.17v-6.5h-4.55v-4.8h4.55ZM573.33,306.42h-2.85v-3.48h-7.41v4.26h-2.81v-26.23h13.07v25.46ZM570.48,298.14v-12.46h-7.41v12.46h7.41ZM584.05,245.98v-9.13h2.89v9.13h5.19c-.85-2.48-1.92-5.03-3.19-7.82l2.04-2.32c1.45,3.1,2.51,5.73,3.28,8.05l-1.62,2.09h3.53v5.03h-9.24v7.66h7.87v41.48c0,4.64-1.19,6.96-3.53,6.96h-2.3l-.72-5.03,2.13.23c1.02,0,1.53-1.08,1.53-3.25v-8.51h-4.98v16.64h-2.89v-16.64h-4.85v16.87h-2.81v-48.75h7.66v-7.66h-8.85v-5.03h8.85ZM579.2,263.63v8.9h4.85v-8.9h-4.85ZM579.2,285.76h4.85v-8.44h-4.85v8.44ZM591.93,263.63h-4.98v8.9h4.98v-8.9ZM591.93,277.32h-4.98v8.44h4.98v-8.44Z"/>
    <path d="M613.26,307.35h-3.06v-27.32c-2.64,1.55-5.41,2.94-8.39,4.26l-1.62-5.34c7.36-2.79,13.49-6.35,18.39-10.83-1.87-2.86-4.43-5.96-7.66-9.29l2.64-3.02c3.23,3.64,5.79,6.89,7.62,9.75,4.34-4.72,7.49-10.22,9.49-16.56h-15.75c-2.89,4.87-6.55,9.21-11.07,13.08l-2.04-4.8c7.28-5.65,12.17-12.61,14.73-20.82l3.36.7c-.68,2.32-1.45,4.49-2.3,6.58h16.6v4.95c-3.06,10.6-8.56,19.27-16.56,26h17.75v32.66h-3.11v-4.57h-19.03v4.57ZM632.28,279.88h-19.03v17.49h19.03v-17.49Z"/>
    <path d="M651.31,241.26c-1.28,10.45-1.87,22.29-1.87,35.52,0,9.44.77,17.64,2.34,24.69l-2.94,1.93c-1.75-7.43-2.6-16.25-2.6-26.62,0-13.31.6-25.46,1.87-36.45l3.19.93ZM680,257.82c-2.13.54-4.51.93-7.19,1.24.26,10.37.38,18.57.42,24.53,2.64,2.48,5.36,6.11,8.13,10.76l-1.92,4.26c-2.47-4.02-4.55-7.04-6.34-9.05-.26,3.25-.85,5.96-1.79,8.2-1.53,3.48-3.87,5.26-6.94,5.26-2.43,0-4.38-.93-5.92-2.63-1.79-2.09-2.68-5.11-2.68-9.05s.77-6.89,2.38-9.05c1.53-2.17,3.49-3.17,5.92-3.17,1.92,0,3.87.62,5.87,1.86-.04-5.18-.17-12.38-.38-21.67-1.83.08-3.75.16-5.75.16-3.11,0-5.87-.16-8.3-.39l-.04-5.65c2.72.31,5.53.46,8.34.46,1.96,0,3.83-.08,5.62-.15l-.38-13.85,3.24-.08c.13,4.87.26,9.44.38,13.7,2.72-.31,5.15-.7,7.28-1.24l.04,5.57ZM664.08,284.44c-1.53,0-2.77.54-3.62,1.78-.94,1.24-1.41,2.94-1.41,5.11,0,2.32.6,4.02,1.83,5.11.85.77,2.04,1.16,3.49,1.16,1.96,0,3.45-1.24,4.38-3.64.68-1.86,1.11-4.26,1.19-7.27-1.96-1.55-3.92-2.24-5.87-2.24Z"/>
    <path d="M86.05,371.25v14.7h-7.02v32.73h-8.09v-47.44h15.11ZM73.11,414.74h3.7v-32.73h6.98v-6.81h-10.68v39.54Z"/>
    <path d="M108.7,383.17c2.04,2.94,3.19,7.35,3.49,13.16h-3.45c-.38-4.02-1.23-6.96-2.55-8.9-1.36-2.01-3.28-2.94-5.75-2.94-2.26,0-4,.62-5.28,2.01-1.45,1.55-2.17,3.87-2.17,7.04,0,2.79.85,5.03,2.6,6.73.77.77,2.64,1.93,5.58,3.48,4,2.17,6.64,3.95,7.92,5.34,2.51,2.79,3.79,6.66,3.79,11.69s-1.06,8.67-3.19,11.45c-2.13,2.71-4.98,4.1-8.6,4.1s-6.38-1.39-8.43-4.18c-2.38-3.33-3.7-8.36-3.96-15.17h3.45c.3,4.8,1.23,8.36,2.77,10.6,1.4,2.01,3.45,3.1,6.17,3.1,2.47,0,4.51-.85,6.04-2.55,1.53-1.7,2.3-4.02,2.3-6.96,0-3.48-1.02-6.19-3.02-8.13-.85-.93-3.02-2.24-6.43-4.02-3.66-2.01-6-3.56-6.98-4.49-2.34-2.48-3.49-6.04-3.49-10.68s1.11-8.59,3.36-11.22c2-2.48,4.6-3.71,7.75-3.71,3.4,0,6.13,1.39,8.09,4.26Z"/>
    <path d="M133.94,400.66c1.62,3.87,2.47,9.36,2.55,16.33h-17.37c.17,4.49.81,7.97,2,10.45,1.19,2.48,2.85,3.71,4.94,3.71,1.79,0,3.28-.85,4.38-2.48.94-1.39,1.66-3.48,2.21-6.27h3.41c-.51,3.87-1.49,6.96-2.98,9.44-1.83,2.94-4.17,4.49-7.02,4.49-3.15,0-5.7-1.93-7.58-5.65-1.96-3.87-2.89-8.98-2.89-15.48,0-5.88.89-10.83,2.77-14.78,1.87-4.18,4.38-6.27,7.58-6.27,3.53,0,6.21,2.17,8,6.5ZM121.3,402.83c-1.19,2.32-1.87,5.42-2.09,9.36h13.75c-.43-8.59-2.77-12.85-6.94-12.85-1.96,0-3.53,1.16-4.72,3.48Z"/>
    <path d="M146.37,395.24h5.45v5.18h-5.45v25.46c0,1.47.13,2.55.47,3.17.3.62.85,1.01,1.62,1.01h2.81v5.18h-3.32c-1.79,0-3.11-.85-3.87-2.55-.72-1.55-1.06-3.79-1.06-6.81v-25.46h-4.43v-5.18h4.43v-10.37l3.36-2.55v12.92Z"/>
    <path d="M161.48,395.24h5.45v5.18h-5.45v25.46c0,1.47.13,2.55.47,3.17.3.62.85,1.01,1.62,1.01h2.81v5.18h-3.32c-1.79,0-3.11-.85-3.87-2.55-.72-1.55-1.06-3.79-1.06-6.81v-25.46h-4.43v-5.18h4.43v-10.37l3.36-2.55v12.92Z"/>
    <path d="M187.79,400.66c1.62,3.87,2.47,9.36,2.55,16.33h-17.37c.17,4.49.81,7.97,2,10.45,1.19,2.48,2.85,3.71,4.94,3.71,1.79,0,3.28-.85,4.38-2.48.94-1.39,1.66-3.48,2.21-6.27h3.41c-.51,3.87-1.49,6.96-2.98,9.44-1.83,2.94-4.17,4.49-7.02,4.49-3.15,0-5.7-1.93-7.58-5.65-1.96-3.87-2.89-8.98-2.89-15.48,0-5.88.89-10.83,2.77-14.78,1.87-4.18,4.38-6.27,7.58-6.27,3.53,0,6.21,2.17,8,6.5ZM175.15,402.83c-1.19,2.32-1.87,5.42-2.09,9.36h13.75c-.43-8.59-2.77-12.85-6.94-12.85-1.96,0-3.53,1.16-4.72,3.48Z"/>
    <path d="M233,387.19c2.47,5.26,3.75,12.07,3.75,20.51s-1.28,15.09-3.75,20.35c-2.64,5.49-6.26,8.28-10.81,8.28s-8.13-2.79-10.77-8.28c-2.51-5.26-3.74-12.07-3.74-20.35s1.23-15.17,3.74-20.43c2.64-5.57,6.21-8.36,10.81-8.36s8.13,2.71,10.77,8.28ZM213.97,391.14c-1.87,4.18-2.81,9.67-2.81,16.56s.94,12.3,2.81,16.48c1.96,4.33,4.72,6.5,8.21,6.5s6.26-2.17,8.22-6.35c1.87-4.18,2.85-9.67,2.85-16.64s-.98-12.61-2.85-16.79c-1.96-4.26-4.68-6.35-8.17-6.35s-6.26,2.17-8.26,6.58Z"/>
    <path d="M247.04,395.24h5.45v5.18h-5.45v25.46c0,1.47.13,2.55.47,3.17.3.62.85,1.01,1.62,1.01h2.81v5.18h-3.32c-1.79,0-3.11-.85-3.87-2.55-.72-1.55-1.06-3.79-1.06-6.81v-25.46h-4.43v-5.18h4.43v-10.37l3.36-2.55v12.92Z"/>
    <path d="M262.16,395.24h5.45v5.18h-5.45v25.46c0,1.47.13,2.55.47,3.17.3.62.85,1.01,1.62,1.01h2.81v5.18h-3.32c-1.79,0-3.11-.85-3.87-2.55-.72-1.55-1.06-3.79-1.06-6.81v-25.46h-4.43v-5.18h4.43v-10.37l3.36-2.55v12.92Z"/>
    <path d="M289.1,400.35c1.87,3.95,2.81,8.9,2.81,14.94s-.94,10.91-2.77,14.78c-2,4.18-4.64,6.27-7.92,6.27s-5.92-2.09-7.87-6.27c-1.87-3.87-2.81-8.82-2.81-14.78s.94-10.99,2.81-14.94c1.96-4.18,4.55-6.19,7.87-6.19s5.92,2.01,7.88,6.19ZM275.78,404.22c-1.19,2.94-1.75,6.58-1.75,11.07s.55,8.05,1.75,10.99c1.28,3.25,3.11,4.87,5.45,4.87s4.13-1.62,5.49-4.87c1.15-2.94,1.75-6.66,1.75-10.99s-.6-8.12-1.75-11.07c-1.36-3.25-3.19-4.88-5.49-4.88s-4.17,1.63-5.45,4.88Z"/>
    <path d="M323.37,380c6.98,0,10.47,5.42,10.47,16.25s-3.53,16.41-10.51,16.41h-8.9v22.6h-3.49v-55.25h12.43ZM314.43,407.16h8.73c2.47,0,4.26-.93,5.45-2.71,1.15-1.78,1.75-4.49,1.75-8.2s-.6-6.42-1.79-8.05c-1.19-1.86-2.98-2.71-5.41-2.71h-8.73v21.67Z"/>
    <path d="M354.4,398.65c1.28,2.63,1.96,6.27,1.96,10.91v25.69h-3.19v-6.73c-.85,2.17-2,3.95-3.36,5.34-1.62,1.63-3.45,2.48-5.49,2.48-2.21,0-3.96-1.01-5.28-3.02-1.36-2.09-2.04-4.8-2.04-8.05,0-4.57.98-7.97,3.02-10.29,1.79-2.17,4.34-3.33,7.66-3.41l5.28-.15v-2.09c0-6.73-1.92-10.06-5.75-10.06-1.62,0-2.94.54-3.96,1.78-1.15,1.24-1.87,3.17-2.21,5.73l-3.36-.46c.47-4.18,1.62-7.35,3.41-9.36,1.62-1.86,3.7-2.79,6.34-2.79,3.15,0,5.45,1.47,6.98,4.49ZM347.89,416.21c-4.94.16-7.41,3.1-7.41,8.9,0,1.86.38,3.33,1.23,4.57.85,1.16,1.96,1.78,3.32,1.78,2.09,0,3.92-1.24,5.53-3.71,1.57-2.4,2.38-5.18,2.38-8.28v-3.4l-5.06.15Z"/>
    <path d="M378.45,406.62h-3.32c-.3-2.48-.85-4.33-1.7-5.42-.94-1.24-2.3-1.86-4.04-1.86-1.53,0-2.72.46-3.58,1.55-.94,1.01-1.41,2.4-1.41,4.18s.6,3.17,1.87,4.33c.81.7,2.34,1.55,4.55,2.63,2.64,1.16,4.51,2.4,5.66,3.71,1.75,2.01,2.64,4.72,2.64,8.2,0,8.2-3.11,12.38-9.32,12.38-5.79,0-8.94-4.64-9.45-13.85h3.32c.26,3.17.89,5.42,1.83,6.81.94,1.24,2.34,1.86,4.21,1.86,3.92,0,5.92-2.32,5.92-6.81,0-2.24-.72-3.95-2.09-5.18-.72-.62-2.3-1.47-4.68-2.55-2.6-1.16-4.43-2.32-5.45-3.56-1.7-1.86-2.51-4.41-2.51-7.82s.81-6.04,2.47-8.05c1.53-2.01,3.58-3.02,6.04-3.02,5.45,0,8.43,4.1,9.02,12.46Z"/>
    <path d="M389.01,395.24h5.45v5.18h-5.45v25.46c0,1.47.13,2.55.47,3.17.3.62.85,1.01,1.62,1.01h2.81v5.18h-3.32c-1.79,0-3.11-.85-3.87-2.55-.72-1.55-1.06-3.79-1.06-6.81v-25.46h-4.43v-5.18h4.43v-10.37l3.36-2.55v12.92Z"/>
    <path d="M414.8,398.65c1.28,2.63,1.96,6.27,1.96,10.91v25.69h-3.19v-6.73c-.85,2.17-2,3.95-3.36,5.34-1.62,1.63-3.45,2.48-5.49,2.48-2.21,0-3.96-1.01-5.28-3.02-1.36-2.09-2.04-4.8-2.04-8.05,0-4.57.98-7.97,3.02-10.29,1.79-2.17,4.34-3.33,7.66-3.41l5.28-.15v-2.09c0-6.73-1.92-10.06-5.75-10.06-1.62,0-2.94.54-3.96,1.78-1.15,1.24-1.87,3.17-2.21,5.73l-3.36-.46c.47-4.18,1.62-7.35,3.41-9.36,1.62-1.86,3.7-2.79,6.34-2.79,3.15,0,5.45,1.47,6.98,4.49ZM408.29,416.21c-4.94.16-7.41,3.1-7.41,8.9,0,1.86.38,3.33,1.23,4.57.85,1.16,1.96,1.78,3.32,1.78,2.09,0,3.92-1.24,5.53-3.71,1.57-2.4,2.38-5.18,2.38-8.28v-3.4l-5.06.15Z"/>
    <path d="M445.28,371.25c-1.74,5.11-3.11,10.45-4.04,16.02-1.28,6.81-1.87,13.47-1.87,20.12s.6,13.31,1.87,20.12c.94,5.49,2.3,10.83,4.04,16.02h-2.98c-1.87-5.03-3.32-10.37-4.38-15.94-1.28-6.66-1.87-13.39-1.87-20.12s.6-13.62,1.87-20.28c1.06-5.65,2.51-10.99,4.38-15.94h2.98Z"/>
    <path d="M464.69,374.66l-.17,20.12,19.96-5.26,2.21,2.94c-3.4,10.99-7.53,20.04-12.3,27.24l-2.21-4.41c3.66-5.49,6.85-12.07,9.58-19.66l-17.28,4.72c-.08,9.13-.08,17.49-.08,24.92,0,3.02.6,5.03,1.79,6.11,1.11.93,3.32,1.47,6.55,1.47,3.87,0,8.09-.46,12.64-1.39l-.04,5.65c-4.94.85-9.11,1.32-12.6,1.32-4.43,0-7.45-.77-8.98-2.32-1.83-1.78-2.72-5.34-2.72-10.6,0-7.27,0-15.4.08-24.22l-9.07,2.48-.55-5.57,9.66-2.55c.04-6.66.13-13.62.21-20.97h3.32Z"/>
    <path d="M506.45,413.2l-2.64,2.94c-1.66-5.73-3.45-11.14-5.41-16.25l2.68-2.94c2.13,5.73,3.92,11.14,5.36,16.25ZM524.71,395.47c-1.11,10.91-3.02,19.89-5.79,26.85-3.02,7.35-7.24,12.92-12.6,16.72l-1.79-4.8c5.02-3.64,8.9-8.67,11.62-15.17,2.55-6.19,4.34-14.39,5.36-24.61l3.19,1.01ZM511.47,400.74c.94,2.63,1.75,5.34,2.51,7.97l-2.68,2.86c-1.41-4.87-3.19-10.37-5.41-16.41l2.64-2.79c1.15,3.17,2.13,5.96,2.94,8.36Z"/>
    <path d="M571.41,398.57v5.57h-15.37c-.21,8.28-1.11,15.01-2.64,20.2-1.83,6.04-5.02,11.3-9.58,15.94l-2.21-4.49c4.09-4.02,6.98-8.67,8.64-13.85,1.45-4.49,2.26-10.45,2.43-17.8h-16.26v-5.57h34.99ZM566.64,379.61v5.57h-26.52v-5.57h26.52Z"/>
    <path d="M618.32,374.81v13.93h9.75v5.57h-9.75v36.53c0,5.57-1.66,8.36-4.89,8.36-1.49,0-3.41-.31-5.75-.77v-5.57c2.47.62,4.3,1.01,5.58,1.01,1.11,0,1.7-1.08,1.7-3.17v-30.49c-1.28,4.64-3.83,10.29-7.66,17.03-3.79,6.66-7.45,11.92-11.02,15.86l-2.13-4.8c3.83-4.33,7.49-9.36,10.9-15.17,3.58-6.11,6.51-12.38,8.85-18.8h-18.81v-5.57h19.88v-13.93h3.36Z"/>
    <path d="M648.33,413.2l-2.64,2.94c-1.66-5.73-3.45-11.14-5.41-16.25l2.68-2.94c2.13,5.73,3.92,11.14,5.36,16.25ZM666.59,395.47c-1.11,10.91-3.02,19.89-5.79,26.85-3.02,7.35-7.24,12.92-12.6,16.72l-1.79-4.8c5.02-3.64,8.9-8.67,11.62-15.17,2.55-6.19,4.34-14.39,5.36-24.61l3.19,1.01ZM653.35,400.74c.94,2.63,1.75,5.34,2.51,7.97l-2.68,2.86c-1.41-4.87-3.19-10.37-5.41-16.41l2.64-2.79c1.15,3.17,2.13,5.96,2.94,8.36Z"/>
    <path d="M691.7,374.89v24.53c3.19,1.01,6.6,2.63,10.17,4.8,3.32,1.93,6.43,4.18,9.32,6.73l-1.45,5.11c-2.64-2.32-5.53-4.41-8.6-6.27-3.36-2.01-6.51-3.56-9.45-4.49v34.75h-3.36v-65.16h3.36Z"/>
    <path d="M747.3,383.32c-.47,10.22-1.57,19.81-3.32,28.94-1.83,9.36-4.26,17.8-7.32,25.23l-3.11-2.86c3.02-7.12,5.41-15.09,7.19-24.07,1.75-8.82,2.81-18.11,3.19-27.94l3.36.7ZM766.24,406.7c2.51,10.37,4.38,20.2,5.58,29.33l-3.36,1.24c-1.15-8.82-2.94-18.34-5.36-28.48-2.38-9.91-4.85-18.26-7.41-25.15l2.89-2.79c2.64,7.2,5.19,15.79,7.66,25.85ZM771.18,374.43c.85,1.55,1.32,3.48,1.32,5.8,0,2.17-.47,4.1-1.32,5.73-.89,1.55-1.96,2.32-3.15,2.32s-2.3-.77-3.15-2.32c-.89-1.63-1.32-3.56-1.32-5.73,0-2.32.43-4.26,1.32-5.8.85-1.62,1.91-2.4,3.15-2.4s2.26.77,3.15,2.4ZM766.2,376.82c-.51.93-.77,2.01-.77,3.41,0,1.24.26,2.4.77,3.33.51.85,1.11,1.32,1.83,1.32.68,0,1.32-.46,1.83-1.32.51-.93.77-2.09.77-3.33,0-1.39-.26-2.48-.77-3.41s-1.15-1.39-1.83-1.39c-.72,0-1.32.46-1.83,1.39Z"/>
    <path d="M796.38,416.14c-4.47,9.13-10.17,16.87-17.11,23.22l-2.04-4.95c11.83-10.29,20.22-26.08,25.15-47.28h-20.81v-5.65h23.15l2.09,2.55c-2.34,10.52-5.11,19.66-8.26,27.32,2.51,3.1,4.98,6.42,7.41,9.98,3.45,5.03,6.21,9.6,8.26,13.77l-2.6,3.95c-1.96-3.95-4.6-8.36-7.92-13.23-2.47-3.71-4.9-6.96-7.24-9.83l-.08.16Z"/>
    <path d="M837.5,375.66c-.51,2.63-1.06,5.26-1.75,7.89h14.47l2.04,2.09c-1.11,12.15-3.62,22.91-7.62,32.35-4.21,9.83-9.58,17.1-16.05,21.75l-1.79-5.18c5.79-4.18,10.6-10.29,14.43-18.34.13-.31.26-.54.38-.85-1.19-1.55-2.51-3.17-3.87-4.8-2.3-2.71-4.43-4.95-6.34-6.66l1.96-4.33c1.96,1.86,4.09,4.02,6.3,6.5,1.41,1.55,2.68,3.1,3.87,4.64,2.38-6.5,4.09-13.62,5.02-21.51h-14.47c-.68,2.17-1.45,4.26-2.26,6.35-2.38,5.96-5.06,11.14-8.13,15.55l-2.26-4.02c2.98-4.49,5.62-9.6,7.92-15.32,2.26-5.88,3.92-11.84,5.02-17.88l3.11,1.78Z"/>
    <path d="M864.66,371.25c1.83,4.95,3.28,10.29,4.38,15.94,1.23,6.66,1.87,13.39,1.87,20.28s-.64,13.46-1.87,20.12c-1.11,5.57-2.55,10.91-4.38,15.94h-2.98c1.7-5.18,3.06-10.52,4.04-16.02,1.23-6.81,1.87-13.54,1.87-20.12s-.64-13.31-1.87-20.12c-.98-5.57-2.34-10.91-4.04-16.02h2.98Z"/>
    <path d="M889.77,396.09v47.44h-15.11v-14.7h7.02v-32.73h8.09ZM883.9,432.77h-6.98v6.81h10.68v-39.54h-3.7v32.73Z"/>
    <path d="M935.36,390.99c.3,2.79.81,5.42,1.49,7.89,3.36-2.32,7.58-4.64,12.6-7.04l1.19,5.26c-6.98,3.25-12.39,6.5-16.13,9.75-5.62,4.72-8.38,9.91-8.38,15.48,0,7.04,4.26,10.6,12.77,10.6,4.17,0,8.38-.54,12.56-1.47l.3,5.73c-4.34.85-8.64,1.32-12.85,1.32-5.49,0-9.53-1.32-12.13-3.87-2.68-2.63-4-6.65-4-12.15,0-7.43,2.89-13.85,8.73-19.35.68-.7,1.45-1.39,2.3-2.01-.85-3.17-1.45-6.66-1.79-10.52-.42-4.1-.68-9.67-.77-16.79l3.28-.16c.08,7.51.38,13.31.85,17.33Z"/>
    <path d="M981.63,389.83c-2.64.39-5.45.7-8.38.93-.64,3.95-1.36,7.82-2.13,11.61-2,9.67-4.3,18.19-6.94,25.46l-2.72-3.17c2.55-6.66,4.81-14.86,6.77-24.61.6-2.94,1.15-5.96,1.66-9.05-2.34.08-4.77.16-7.24.16v-5.34c2.81,0,5.49-.08,8.09-.23.6-4.1,1.11-8.28,1.58-12.61l3.15,1.24c-.42,3.71-.89,7.43-1.4,11.14,2.55-.23,5.02-.54,7.36-.85l.21,5.34ZM989.42,418.92c2.98,2.32,6.09,5.96,9.24,10.83l-2.04,4.26c-2.64-4.02-5.02-7.04-7.15-9.05-.08,4.8-.85,8.36-2.3,10.83-1.45,2.4-3.45,3.64-6,3.64s-4.51-.93-6.04-2.63c-1.87-2.09-2.77-5.11-2.77-9.05s.81-6.96,2.51-9.21c1.49-2.09,3.45-3.1,5.83-3.1,1.79,0,3.66.46,5.53,1.39-.08-5.11-.26-11.61-.47-19.35l3.19-.31c.26,8.98.38,16.25.47,21.75ZM980.7,420.7c-1.62,0-2.89.7-3.83,2.17-.89,1.32-1.32,2.94-1.32,4.88,0,2.17.55,3.79,1.74,4.95.98.93,2.26,1.47,3.87,1.47s2.85-.93,3.79-2.79c.85-1.86,1.32-4.41,1.32-7.66v-1.24c-1.87-1.24-3.75-1.78-5.58-1.78ZM992.23,385.57c2.04,2.24,3.92,4.72,5.62,7.43l-2.09,4.1c-1.57-2.48-3.36-4.8-5.32-6.96-1.96-2.09-3.87-3.64-5.66-4.72l1.23-5.03c2,1.24,4.09,2.94,6.21,5.18Z"/>
    <path d="M1014.37,379.07c-.51,2.94-.98,6.73-1.36,11.3-.38,4.64-.55,8.59-.55,11.76,0,4.95.26,8.82.85,11.45.43-3.87,1.11-7.2,2.13-10.14l2.6,2.24c-1.36,4.02-2.43,8.9-3.19,14.63l-2.64.85c-1.06-2.17-1.83-5.18-2.34-9.13-.42-3.1-.6-6.42-.6-9.91,0-4.33.21-8.82.64-13.46.34-4.18.81-7.89,1.41-11.22l3.06,1.62ZM1035.48,401.2c0,9.98-1.15,17.95-3.4,23.99-2.21,5.88-6,10.91-11.28,15.17l-1.83-4.95c4.85-3.71,8.3-8.05,10.26-13.16,1.96-5.11,2.94-12.15,2.94-21.05,0-8.36-.51-15.79-1.53-22.29l3.19-1.39c1.11,6.81,1.66,14.7,1.66,23.68Z"/>
    <path d="M1080.86,388.74c-4.72.31-9.28.54-13.66.7.04,4.02.08,7.66.17,10.99,4.17-.08,8.38-.23,12.64-.46v5.34c-4.09.16-8.26.23-12.56.31.08,5.34.13,9.6.13,12.77.89.62,1.79,1.24,2.72,2.01,3.66,2.86,7.19,6.73,10.6,11.61l-1.96,4.41c-3.19-4.57-6.38-8.2-9.62-10.99-.64-.54-1.28-1.01-1.87-1.47-.26,4.02-.89,7.27-1.92,9.67-1.53,3.48-3.96,5.26-7.28,5.26-2.38,0-4.38-1.01-5.92-2.86-1.75-2.09-2.6-5.03-2.6-8.82s.85-6.81,2.64-8.98c1.53-2.01,3.49-2.94,5.96-2.94,1.92,0,3.92.46,6,1.39l-.13-10.99h-4.13c-1.91,0-4.81-.08-8.64-.23l-1.19-.08v-5.26c.85,0,2.13.08,3.83.16,2.3.15,4.3.23,5.96.23h4.13c-.08-3.33-.13-6.96-.17-10.99h-3.36c-2,0-4.17-.08-6.51-.08l-4.43-.23-.04-5.26,4.47.23c2.3.08,4.47.15,6.51.15h3.28l-.17-10.21,3.15-.15c.09,3.56.13,7.04.21,10.29,4.09-.16,8.68-.46,13.75-.85v5.34ZM1058.34,420.32c-1.53,0-2.81.54-3.83,1.78-1.11,1.24-1.66,2.94-1.66,5.11s.51,3.72,1.62,4.88c.94,1.08,2.21,1.63,3.79,1.63,2.17,0,3.79-1.24,4.81-3.56.81-1.93,1.23-4.64,1.32-8.2-2.13-1.08-4.13-1.62-6.05-1.62Z"/>
    <path d="M1099.5,375.82v43.26c0,9.44,2.77,14.16,8.34,14.16,6.21,0,10.98-8.36,14.39-25l3.15,2.17c-1.7,8.2-3.66,14.63-5.96,19.19-3.15,6.27-7.02,9.44-11.58,9.44-7.83,0-11.7-6.42-11.7-19.19v-44.03h3.36Z"/>
    <path d="M1154.63,389.44c-3.06.7-6.64,1.24-10.73,1.7-.6,5.57-1.28,11.07-1.96,16.33-1.62,12.15-3.41,22.6-5.36,31.34l-3.11-1.93c1.96-8.59,3.75-18.8,5.36-30.72.6-4.8,1.19-9.75,1.75-14.7-2.6.16-5.36.31-8.3.39l-.13-5.49c3.15,0,6.13-.16,8.98-.31.43-4.33.81-8.67,1.15-13.08l3.28.77c-.34,4.02-.72,8.05-1.11,11.99,3.49-.39,6.68-.93,9.66-1.63l.51,5.34ZM1151.56,417.84c-1.36,3.4-2.04,6.27-2.04,8.74,0,2.01.81,3.64,2.47,4.72,1.53,1.01,3.66,1.55,6.47,1.55,3.15,0,6.05-.46,8.6-1.39l.08,5.49c-2.47.77-5.36,1.24-8.68,1.24-8.13,0-12.17-3.71-12.17-11.07,0-3.87.81-7.82,2.51-11.99l2.77,2.71ZM1166.59,402.21c-6,0-12.09.46-18.3,1.47l-.17-5.57c6.21-.93,12.34-1.39,18.47-1.39v5.5Z"/>
    <path d="M80.01,513.86c-3.19,6.35-7.07,12.54-11.58,18.65v42.02h-3.32v-37.76c-5.02,6.11-9.96,11.06-14.85,14.86l-1.75-5.11c5.02-3.87,10.26-9.36,15.79-16.33,5.41-6.96,9.79-13.7,13.2-20.28l2.51,3.95Z"/>
    <path d="M108.19,511.07c-.51,2.63-1.06,5.26-1.75,7.89h14.47l2.04,2.09c-1.11,12.15-3.62,22.91-7.62,32.35-4.21,9.83-9.58,17.1-16.05,21.74l-1.79-5.18c5.79-4.18,10.6-10.29,14.43-18.34.13-.31.26-.54.38-.85-1.19-1.55-2.51-3.17-3.87-4.8-2.3-2.71-4.43-4.95-6.34-6.66l1.96-4.33c1.96,1.86,4.09,4.03,6.3,6.5,1.41,1.55,2.68,3.1,3.87,4.64,2.38-6.5,4.09-13.62,5.02-21.51h-14.47c-.68,2.17-1.45,4.26-2.26,6.34-2.38,5.96-5.06,11.14-8.13,15.55l-2.26-4.02c2.98-4.49,5.62-9.6,7.92-15.32,2.26-5.88,3.92-11.84,5.02-17.88l3.11,1.78Z"/>
    <path d="M142.63,514.78v37.22h-3.36v-37.22h3.36ZM163.1,513.16v25.46c0,9.75-1.23,17.64-3.66,23.53-2.6,6.27-6.68,10.68-12.3,13.31l-1.53-5.34c5.24-2.4,8.98-6.42,11.24-11.99,1.96-4.88,2.94-11.53,2.94-19.89v-25.07h3.32Z"/>
    <path d="M209.12,515.25l1.75,2.86c-1.57,5.57-3.24,10.45-4.98,14.63-2.04,4.72-4.38,8.98-7.02,12.77l-2.34-4.26c4.43-6.35,7.66-13.08,9.75-20.35h-28.3v-5.65h31.16ZM194.81,528.79v10.6c0,8.51-.89,15.55-2.6,21.28-1.87,6.11-4.81,10.91-8.85,14.47l-2.09-4.8c3.58-3.17,6.21-7.12,7.83-11.92,1.57-4.8,2.38-11.14,2.38-19.04v-10.6h3.32Z"/>
    <path d="M253.17,520.9l-7.66.62c-1.28,0-2.94,1.39-4.9,4.18-2.13,2.94-3.92,6.42-5.32,10.45-1.66,4.64-2.47,9.36-2.47,14.09,0,5.42,1.28,9.75,3.87,12.92,2.77,3.25,6.81,5.03,12.17,5.34l-.6,5.34c-6.21-.15-10.94-2.32-14.13-6.5-3.07-3.95-4.6-9.52-4.6-16.72,0-6.19,1.11-12.07,3.36-17.49,1.83-4.64,4.17-8.44,7.07-11.38-6.3.93-13.2,2.01-20.6,3.41l-.43-5.49c13.62-2.4,24.99-3.72,34.14-3.95l.08,5.18ZM250.45,542.49l-1.83,2.32c-1.28-3.87-2.77-7.27-4.47-10.37l1.7-2.48c1.83,3.25,3.36,6.73,4.6,10.52ZM254.53,537.15l-1.83,2.4c-1.28-3.87-2.77-7.35-4.43-10.37l1.66-2.4c1.87,3.33,3.41,6.81,4.6,10.37Z"/>
    <path d="M268.2,512.08c-1.28,10.45-1.87,22.29-1.87,35.52,0,9.44.77,17.64,2.34,24.69l-2.94,1.93c-1.75-7.43-2.6-16.25-2.6-26.62,0-13.31.6-25.46,1.87-36.45l3.19.93ZM296.89,528.64c-2.13.54-4.51.93-7.19,1.24.26,10.37.38,18.57.42,24.53,2.64,2.48,5.36,6.11,8.13,10.76l-1.92,4.26c-2.47-4.02-4.55-7.04-6.34-9.05-.26,3.25-.85,5.96-1.79,8.2-1.53,3.48-3.87,5.26-6.94,5.26-2.43,0-4.38-.93-5.92-2.63-1.79-2.09-2.68-5.11-2.68-9.05s.77-6.89,2.38-9.05c1.53-2.17,3.49-3.17,5.92-3.17,1.92,0,3.87.62,5.87,1.86-.04-5.18-.17-12.38-.38-21.67-1.83.08-3.75.15-5.75.15-3.11,0-5.87-.15-8.3-.39l-.04-5.65c2.72.31,5.53.46,8.34.46,1.96,0,3.83-.08,5.62-.15l-.38-13.85,3.24-.08c.13,4.87.26,9.44.38,13.7,2.72-.31,5.15-.7,7.28-1.24l.04,5.57ZM280.97,555.26c-1.53,0-2.77.54-3.62,1.78-.94,1.24-1.4,2.94-1.4,5.11,0,2.32.6,4.02,1.83,5.11.85.77,2.04,1.16,3.49,1.16,1.96,0,3.45-1.24,4.38-3.64.68-1.86,1.11-4.26,1.19-7.27-1.96-1.55-3.92-2.24-5.87-2.24Z"/>
    <path d="M315.96,518.73c-.47,10.21-1.57,19.81-3.32,28.94-1.83,9.36-4.26,17.8-7.32,25.23l-3.11-2.86c3.02-7.12,5.41-15.09,7.19-24.07,1.75-8.82,2.81-18.11,3.19-27.94l3.36.7ZM334.9,542.1c2.51,10.37,4.38,20.2,5.58,29.33l-3.36,1.24c-1.15-8.82-2.94-18.34-5.36-28.48-2.38-9.91-4.85-18.26-7.41-25.15l2.89-2.78c2.64,7.2,5.19,15.79,7.66,25.85ZM339.84,509.83c.85,1.55,1.32,3.48,1.32,5.8,0,2.17-.47,4.1-1.32,5.73-.89,1.55-1.96,2.32-3.15,2.32s-2.3-.77-3.15-2.32c-.89-1.63-1.32-3.56-1.32-5.73,0-2.32.43-4.26,1.32-5.8.85-1.63,1.91-2.4,3.15-2.4s2.26.77,3.15,2.4ZM334.86,512.23c-.51.93-.77,2.01-.77,3.4,0,1.24.26,2.4.77,3.33.51.85,1.11,1.32,1.83,1.32.68,0,1.32-.46,1.83-1.32.51-.93.77-2.09.77-3.33,0-1.39-.26-2.48-.77-3.4-.51-.93-1.15-1.39-1.83-1.39-.72,0-1.32.46-1.83,1.39Z"/>
    <path d="M365.04,551.54c-4.47,9.13-10.17,16.87-17.11,23.22l-2.04-4.95c11.83-10.29,20.22-26.08,25.15-47.28h-20.81v-5.65h23.15l2.09,2.55c-2.34,10.52-5.11,19.66-8.26,27.32,2.51,3.1,4.98,6.42,7.41,9.98,3.45,5.03,6.21,9.6,8.26,13.78l-2.6,3.95c-1.96-3.95-4.6-8.36-7.92-13.23-2.47-3.72-4.9-6.96-7.24-9.83l-.08.15Z"/>
    <path d="M406.16,511.07c-.51,2.63-1.06,5.26-1.75,7.89h14.47l2.04,2.09c-1.11,12.15-3.62,22.91-7.62,32.35-4.21,9.83-9.58,17.1-16.05,21.74l-1.79-5.18c5.79-4.18,10.6-10.29,14.43-18.34.13-.31.26-.54.38-.85-1.19-1.55-2.51-3.17-3.87-4.8-2.3-2.71-4.43-4.95-6.34-6.66l1.96-4.33c1.96,1.86,4.09,4.03,6.3,6.5,1.41,1.55,2.68,3.1,3.87,4.64,2.38-6.5,4.09-13.62,5.02-21.51h-14.47c-.68,2.17-1.45,4.26-2.26,6.34-2.38,5.96-5.06,11.14-8.13,15.55l-2.26-4.02c2.98-4.49,5.62-9.6,7.92-15.32,2.26-5.88,3.92-11.84,5.02-17.88l3.11,1.78Z"/>
    <path d="M447.5,510.76c-.6,5.18-1.23,10.22-1.92,15.17.77-.08,1.49-.08,2.21-.08,2.98,0,5.24,1.63,6.81,4.95,1.53,3.25,2.3,7.89,2.3,13.85,0,7.74-.47,13.93-1.36,18.73-1.36,7.27-3.75,10.99-7.11,10.99-2.04,0-4.3-.85-6.68-2.4l.47-5.49c2.3,1.55,4.38,2.32,6.17,2.32,2.17,0,3.66-3.33,4.51-9.83.47-3.87.72-8.67.72-14.32,0-8.98-2-13.46-5.92-13.46-.94,0-1.92,0-2.94.16-2.55,16.56-5.75,31.03-9.49,43.41l-2.98-2.55c3.58-11.92,6.6-25.38,8.98-40.39-2.55.46-5.45,1.16-8.64,2.09l-.47-5.42c3.58-1.08,6.9-1.86,9.96-2.24.77-5.42,1.49-10.91,2.13-16.64l3.24,1.16ZM469.25,552.94l-3.02,1.93c-.81-6.65-1.79-12.3-2.94-16.95-1.41-5.57-3.19-10.37-5.36-14.47l2.47-3.48c4.26,8.05,7.24,19.04,8.85,32.97ZM465.37,519.35l-1.79,2.32c-1.28-3.87-2.77-7.27-4.47-10.37l1.7-2.48c1.83,3.25,3.36,6.73,4.55,10.52ZM470.01,515.48l-1.83,2.4c-1.28-3.87-2.77-7.35-4.43-10.37l1.66-2.4c1.87,3.33,3.4,6.81,4.6,10.37Z"/>
    <path d="M485.34,561.68v16.56h-2.89v-40.47c-2.38,5.42-5.15,10.45-8.22,14.94l-2-4.72c5.36-7.74,9.49-16.56,12.43-26.54h-11.28v-5.42h12.68c.72-3.02,1.36-6.04,1.87-9.05l3.11.7c-.51,2.86-1.02,5.65-1.62,8.36h21.15v5.42h-22.43c-.85,3.1-1.75,6.11-2.77,8.98h19.75v41.79c0,3.79-1.19,5.73-3.58,5.88h-4.77l-.77-5.11c1.62.15,3.15.31,4.56.31,1.11,0,1.66-.93,1.66-2.78v-8.82h-16.9ZM485.34,543.73h16.9v-8.44h-16.9v8.44ZM485.34,548.6v8.2h16.9v-8.2h-16.9Z"/>
    <path d="M528.12,578.17h-3.06v-27.32c-2.64,1.55-5.41,2.94-8.39,4.26l-1.62-5.34c7.36-2.79,13.49-6.35,18.39-10.83-1.87-2.86-4.43-5.96-7.66-9.29l2.64-3.02c3.23,3.64,5.79,6.89,7.62,9.75,4.34-4.72,7.49-10.21,9.49-16.56h-15.75c-2.89,4.87-6.55,9.21-11.07,13.08l-2.04-4.8c7.28-5.65,12.17-12.61,14.73-20.82l3.36.7c-.68,2.32-1.45,4.49-2.3,6.58h16.6v4.95c-3.06,10.6-8.56,19.27-16.56,26h17.75v32.66h-3.11v-4.57h-19.03v4.57ZM547.15,550.69h-19.03v17.49h19.03v-17.49Z"/>
    <path d="M574.99,526.39c.3,2.78.81,5.42,1.49,7.89,3.36-2.32,7.58-4.64,12.6-7.04l1.19,5.26c-6.98,3.25-12.39,6.5-16.13,9.75-5.62,4.72-8.38,9.91-8.38,15.48,0,7.04,4.26,10.6,12.77,10.6,4.17,0,8.38-.54,12.56-1.47l.3,5.73c-4.34.85-8.64,1.32-12.85,1.32-5.49,0-9.53-1.32-12.13-3.87-2.68-2.63-4-6.66-4-12.15,0-7.43,2.89-13.85,8.73-19.35.68-.7,1.45-1.39,2.3-2.01-.85-3.17-1.45-6.66-1.79-10.53-.42-4.1-.68-9.67-.77-16.79l3.28-.15c.08,7.51.38,13.31.85,17.33Z"/>
    <path d="M606.66,518.42c-.55,6.65-.81,13.54-.81,20.51,0,8.43.64,15.24,1.96,20.51,1.19,4.64,2.6,7.04,4.3,7.04,1.11,0,2.13-2.09,3.06-6.27.6-2.63,1.06-5.65,1.41-8.9l3.28,1.39c-.72,5.88-1.66,10.45-2.81,13.78-1.36,3.95-2.98,5.96-4.85,5.96-3.07,0-5.45-3.17-7.19-9.52-1.7-6.11-2.51-14.08-2.51-23.99,0-6.96.26-14.01.85-21.2l3.32.7ZM638.41,560.98l-3.32.31c-.51-17.18-2.89-30.34-7.19-39.62l2.68-3.64c4.68,10.29,7.32,24.61,7.83,42.95Z"/>
    <path d="M673.45,532.2c1.91,3.17,2.89,7.58,2.89,13.31,0,8.05-1.75,14.7-5.23,19.89-3.41,4.88-8.34,8.28-14.85,10.29l-1.36-5.5c5.7-1.55,10.13-4.33,13.19-8.36,3.24-4.18,4.89-9.6,4.89-16.1,0-4.02-.68-7.12-1.96-9.29-1.36-2.4-3.36-3.56-5.92-3.56-3.58,0-9.15,2.01-16.73,6.04l-.89-5.42c3.02-1.55,5.92-2.86,8.64-3.87,3.83-1.47,6.81-2.17,8.94-2.17,3.62,0,6.43,1.55,8.39,4.72ZM671.45,515.33l-.89,5.34c-5.32-2.55-11.15-4.33-17.54-5.26l.47-5.49c6.81,1.08,12.81,2.86,17.96,5.42Z"/>
    <path d="M696.86,547.44c-2.64,5.18-3.92,9.05-3.92,11.61,0,6.11,4.17,9.21,12.51,9.21,4.98,0,9.62-.77,13.88-2.24l.51,5.49c-4.3,1.47-9.11,2.24-14.39,2.24-10.56,0-15.79-4.8-15.79-14.39,0-4.26,1.53-9.44,4.68-15.48l2.51,3.56ZM704.95,519.04c4.94,0,9.07-.31,12.39-.93l1.19,4.88c-3.74,3.71-7.32,7.82-10.81,12.38l-1.83-4.41c2.34-2.78,4.6-5.26,6.77-7.43-2.04.54-4.64.85-7.7.85-5.15,0-9.49-.62-13.07-1.78l.42-5.42c3.58,1.24,7.79,1.86,12.64,1.86Z"/>
    <path d="M745.26,526.39c.3,2.78.81,5.42,1.49,7.89,3.36-2.32,7.58-4.64,12.6-7.04l1.19,5.26c-6.98,3.25-12.39,6.5-16.13,9.75-5.62,4.72-8.38,9.91-8.38,15.48,0,7.04,4.26,10.6,12.77,10.6,4.17,0,8.38-.54,12.56-1.47l.3,5.73c-4.34.85-8.64,1.32-12.85,1.32-5.49,0-9.53-1.32-12.13-3.87-2.68-2.63-4-6.66-4-12.15,0-7.43,2.89-13.85,8.73-19.35.68-.7,1.45-1.39,2.3-2.01-.85-3.17-1.45-6.66-1.79-10.53-.42-4.1-.68-9.67-.77-16.79l3.28-.15c.08,7.51.38,13.31.85,17.33Z"/>
    <path d="M788.04,510.76c-.6,5.18-1.23,10.22-1.92,15.17.77-.08,1.49-.08,2.21-.08,2.98,0,5.24,1.63,6.81,4.95,1.53,3.25,2.3,7.89,2.3,13.85,0,7.74-.47,13.93-1.36,18.73-1.36,7.27-3.75,10.99-7.11,10.99-2.04,0-4.3-.85-6.68-2.4l.47-5.49c2.3,1.55,4.38,2.32,6.17,2.32,2.17,0,3.66-3.33,4.51-9.83.47-3.87.72-8.67.72-14.32,0-8.98-2-13.46-5.92-13.46-.94,0-1.92,0-2.94.16-2.55,16.56-5.75,31.03-9.49,43.41l-2.98-2.55c3.58-11.92,6.6-25.38,8.98-40.39-2.55.46-5.45,1.16-8.64,2.09l-.47-5.42c3.58-1.08,6.9-1.86,9.96-2.24.77-5.42,1.49-10.91,2.13-16.64l3.24,1.16ZM809.79,552.94l-3.02,1.93c-.81-6.65-1.79-12.3-2.94-16.95-1.41-5.57-3.19-10.37-5.36-14.47l2.47-3.48c4.26,8.05,7.24,19.04,8.85,32.97Z"/>
    <path d="M824.05,522.99c-.51,12.23-1.23,20.58-2.21,25.07,1.87-2.78,4-4.95,6.47-6.42,2.47-1.63,5.02-2.4,7.66-2.4,3.06,0,5.62,1.39,7.66,4.18,2.13,2.94,3.19,6.89,3.19,11.76,0,6.5-1.53,11.38-4.51,14.78-2.81,3.1-6.51,4.72-11.19,4.72-2.55,0-5.28-.23-8.09-.54l.17-5.65c2.81.39,5.45.62,7.92.62,4.04,0,7.15-1.24,9.28-3.72,2.13-2.48,3.19-5.88,3.19-10.21,0-2.94-.68-5.42-2-7.43-1.45-2.17-3.32-3.17-5.62-3.17-2.89,0-5.53.85-7.96,2.55-2.43,1.7-4.9,4.41-7.41,8.28l-2.64-2.17c1.45-7.12,2.43-17.41,2.89-30.72l3.19.46ZM831.76,512.7c4.3,1.78,7.49,3.41,9.53,4.88l-1.19,4.95c-1.96-1.39-4.98-2.86-9.07-4.57-3.75-1.55-6.81-2.55-9.19-3.02l.68-5.34c2.3.46,5.36,1.47,9.24,3.1Z"/>
    <path d="M888.8,513.86c-3.19,6.35-7.07,12.54-11.58,18.65v42.02h-3.32v-37.76c-5.02,6.11-9.96,11.06-14.85,14.86l-1.75-5.11c5.02-3.87,10.26-9.36,15.79-16.33,5.41-6.96,9.79-13.7,13.2-20.28l2.51,3.95Z"/>
    <path d="M916.98,511.07c-.51,2.63-1.06,5.26-1.75,7.89h14.47l2.04,2.09c-1.11,12.15-3.62,22.91-7.62,32.35-4.21,9.83-9.58,17.1-16.05,21.74l-1.79-5.18c5.79-4.18,10.6-10.29,14.43-18.34.13-.31.26-.54.38-.85-1.19-1.55-2.51-3.17-3.87-4.8-2.3-2.71-4.43-4.95-6.34-6.66l1.96-4.33c1.96,1.86,4.09,4.03,6.3,6.5,1.41,1.55,2.68,3.1,3.87,4.64,2.38-6.5,4.09-13.62,5.02-21.51h-14.47c-.68,2.17-1.45,4.26-2.26,6.34-2.38,5.96-5.06,11.14-8.13,15.55l-2.26-4.02c2.98-4.49,5.62-9.6,7.92-15.32,2.26-5.88,3.92-11.84,5.02-17.88l3.11,1.78Z"/>
    <path d="M951.42,514.78v37.22h-3.36v-37.22h3.36ZM971.89,513.16v25.46c0,9.75-1.23,17.64-3.66,23.53-2.6,6.27-6.68,10.68-12.3,13.31l-1.53-5.34c5.24-2.4,8.98-6.42,11.24-11.99,1.96-4.88,2.94-11.53,2.94-19.89v-25.07h3.32Z"/>
    <path d="M1017.91,515.25l1.75,2.86c-1.57,5.57-3.24,10.45-4.98,14.63-2.04,4.72-4.38,8.98-7.02,12.77l-2.34-4.26c4.43-6.35,7.66-13.08,9.75-20.35h-28.3v-5.65h31.16ZM1003.6,528.79v10.6c0,8.51-.89,15.55-2.6,21.28-1.87,6.11-4.81,10.91-8.85,14.47l-2.09-4.8c3.58-3.17,6.21-7.12,7.83-11.92,1.57-4.8,2.38-11.14,2.38-19.04v-10.6h3.32Z"/>
    <path d="M1032.51,517.34c-.72-3.1-1.62-6.04-2.64-8.82l2.89-1.55c1.06,3.41,1.87,6.5,2.43,9.29l-1.53,1.08h6.09v5.11h-13.71v-5.11h6.47ZM1030.17,578.32h-2.85v-27.24h11.45v26.08h-2.77v-3.56h-5.83v4.72ZM1038.38,528.56v4.87h-10.77v-4.87h10.77ZM1038.38,539.47v4.95h-10.77v-4.95h10.77ZM1036,556.03h-5.83v12.46h5.83v-12.46ZM1063.24,510.45v5.03h-11.02l-.94,8.74h9.92v15.25h3.24v5.11h-23.37v-5.11h5.7l1.11-10.37h-5.11v-4.88h5.66l.94-8.74h-8v-5.03h21.88ZM1061.84,578.55h-2.85v-3.56h-12.85v3.56h-2.89v-26.7h18.6v26.7ZM1058.98,569.96v-13.15h-12.85v13.15h12.85ZM1058.34,539.47v-10.37h-7.62l-1.11,10.37h8.72Z"/>
    <path d="M1101.04,522.76c-4.3.85-9.79,1.32-16.51,1.47-1.53,4.88-3.15,8.98-4.81,12.38,2.26-3.25,4.51-4.8,6.77-4.8s3.83,1.47,4.94,4.41c.26.77.51,1.63.72,2.55,2.98-1.94,6.43-3.79,10.34-5.57l.89,5.26c-3.92,1.63-7.45,3.48-10.55,5.57.08,1.16.13,2.4.13,3.79v13.39h-3.02v-12.54c0-.93-.04-1.78-.04-2.55-.47.31-.89.7-1.32,1.08-5.28,4.41-7.92,8.98-7.92,13.62,0,2.86.94,4.95,2.89,6.27,1.58,1.01,3.87,1.55,6.94,1.55,3.83,0,7.49-.62,10.98-1.7l.3,5.42c-3.7,1.08-7.45,1.63-11.28,1.63-4.09,0-7.19-.93-9.32-2.78-2.47-2.17-3.7-5.65-3.7-10.37,0-6.27,2.68-11.92,8.13-16.95,1.11-1.08,2.34-2.09,3.7-3.1-.68-2.86-1.79-4.26-3.32-4.26-3.66,0-7.79,4.87-12.39,14.63l-2.21-3.72c3.32-6.65,6-12.69,8-18.11.6-1.7,1.15-3.41,1.75-5.11-2.21,0-5.24-.08-8.98-.15l.04-5.26c3.66,0,7.19.08,10.51.08.85-3.25,1.66-6.58,2.43-10.06l2.85,2.01c-.64,2.78-1.28,5.49-1.92,8.05,6.13-.15,11.02-.54,14.77-1.32l.21,5.18Z"/>
    <path d="M1111.3,545.35l-1.02-5.88c4.43-9.44,7.62-20.28,9.58-32.5l2.89,2.4c-1.06,6.04-2.38,11.76-3.96,17.1v52.08h-3.07v-43.18c-1.36,3.48-2.81,6.81-4.43,9.98ZM1134.67,515.33v-7.89h3.11v7.89h11.71v5.34h-11.71v7.35h9.96v21.9h-10.13c-.34,6.96-1.06,12.3-2.21,16.17,4.26,4.26,9.19,6.66,14.77,7.2l-.77,5.34c-5.96-.7-11.19-3.41-15.71-8.2-2.3,4.26-5.92,7.04-10.85,8.36l-1.32-5.11c4.34-.85,7.53-3.02,9.49-6.42-2.51-3.25-4.77-7.2-6.73-11.76l2.34-2.94c1.83,4.18,3.87,7.66,6.13,10.6.89-3.41,1.49-7.82,1.75-13.23h-9.53v-21.9h9.7v-7.35h-11.15v-5.34h11.15ZM1134.67,543.03v-10.06h-6.81v11.92h6.77c0-.62.04-1.24.04-1.86ZM1144.84,532.97h-7.07v10.06c0,.62-.04,1.24-.04,1.86h7.11v-11.92Z"/>
    <path d="M1155.66,577.7l-2.34-3.79c2.72-6.89,4.13-15.63,4.21-26.23v-37.15h31.71v57.96c0,5.42-1.49,8.13-4.47,8.13h-4.9l-.81-5.5c1.7.15,3.28.31,4.72.31,1.53,0,2.34-1.63,2.34-4.88v-13.46h-11.58v22.67h-3.15v-22.67h-10.98c-.47,9.91-2.04,18.11-4.77,24.61ZM1160.6,515.95v13.31h10.81v-13.31h-10.81ZM1160.6,547.98h10.81v-13.54h-10.81v13.54ZM1186.13,515.95h-11.58v13.31h11.58v-13.31ZM1186.13,534.44h-11.58v13.54h11.58v-13.54Z"/>
    <path d="M1207.38,511.23v43.26c0,9.44,2.77,14.16,8.34,14.16,6.21,0,10.98-8.36,14.39-25l3.15,2.17c-1.7,8.2-3.66,14.63-5.96,19.19-3.15,6.27-7.02,9.44-11.58,9.44-7.83,0-11.7-6.42-11.7-19.19v-44.03h3.36Z"/>
    <path d="M1273.87,524.15c-4.72.31-9.28.54-13.66.7.04,4.03.08,7.66.17,10.99,4.17-.08,8.38-.23,12.64-.46v5.34c-4.09.15-8.26.23-12.56.31.08,5.34.13,9.6.13,12.77.89.62,1.79,1.24,2.72,2.01,3.66,2.86,7.19,6.73,10.6,11.61l-1.96,4.41c-3.19-4.57-6.38-8.2-9.62-10.99-.64-.54-1.28-1.01-1.87-1.47-.26,4.02-.89,7.27-1.92,9.67-1.53,3.48-3.96,5.26-7.28,5.26-2.38,0-4.38-1.01-5.92-2.86-1.75-2.09-2.6-5.03-2.6-8.82s.85-6.81,2.64-8.98c1.53-2.01,3.49-2.94,5.96-2.94,1.92,0,3.92.46,6,1.39l-.13-10.99h-4.13c-1.91,0-4.81-.08-8.64-.23l-1.19-.08v-5.26c.85,0,2.13.08,3.83.15,2.3.16,4.3.23,5.96.23h4.13c-.08-3.33-.13-6.96-.17-10.99h-3.36c-2,0-4.17-.08-6.51-.08l-4.43-.23-.04-5.26,4.47.23c2.3.08,4.47.15,6.51.15h3.28l-.17-10.21,3.15-.16c.09,3.56.13,7.04.21,10.29,4.09-.16,8.68-.46,13.75-.85v5.34ZM1251.35,555.72c-1.53,0-2.81.54-3.83,1.78-1.11,1.24-1.66,2.94-1.66,5.11s.51,3.71,1.62,4.87c.94,1.08,2.21,1.63,3.79,1.63,2.17,0,3.79-1.24,4.81-3.56.81-1.94,1.23-4.64,1.32-8.2-2.13-1.08-4.13-1.63-6.05-1.63Z"/>
    <path d="M1292.51,511.23v43.26c0,9.44,2.77,14.16,8.34,14.16,6.21,0,10.98-8.36,14.39-25l3.15,2.17c-1.7,8.2-3.66,14.63-5.96,19.19-3.15,6.27-7.02,9.44-11.58,9.44-7.83,0-11.7-6.42-11.7-19.19v-44.03h3.36Z"/>
    <path d="M1347.64,524.84c-3.06.7-6.64,1.24-10.73,1.7-.6,5.57-1.28,11.07-1.96,16.33-1.62,12.15-3.41,22.6-5.36,31.34l-3.11-1.93c1.96-8.59,3.75-18.81,5.36-30.72.6-4.8,1.19-9.75,1.75-14.7-2.6.15-5.36.31-8.3.39l-.13-5.5c3.15,0,6.13-.15,8.98-.31.43-4.33.81-8.67,1.15-13.08l3.28.77c-.34,4.02-.72,8.05-1.11,12,3.49-.39,6.68-.93,9.66-1.63l.51,5.34ZM1344.57,553.25c-1.36,3.41-2.04,6.27-2.04,8.75,0,2.01.81,3.64,2.47,4.72,1.53,1.01,3.66,1.55,6.47,1.55,3.15,0,6.05-.46,8.6-1.39l.08,5.49c-2.47.77-5.36,1.24-8.68,1.24-8.13,0-12.17-3.72-12.17-11.07,0-3.87.81-7.82,2.51-12l2.77,2.71ZM1359.6,537.61c-6,0-12.09.46-18.3,1.47l-.17-5.57c6.21-.93,12.34-1.39,18.47-1.39v5.5Z"/>
    <path d="M81.97,659.56c-4.72.31-9.28.54-13.66.7.04,4.02.08,7.66.17,10.99,4.17-.08,8.38-.23,12.64-.46v5.34c-4.09.15-8.26.23-12.56.31.08,5.34.13,9.6.13,12.77.89.62,1.79,1.24,2.72,2.01,3.66,2.86,7.19,6.73,10.6,11.61l-1.96,4.41c-3.19-4.57-6.38-8.2-9.62-10.99-.64-.54-1.28-1.01-1.87-1.47-.26,4.02-.89,7.27-1.92,9.67-1.53,3.48-3.96,5.26-7.28,5.26-2.38,0-4.38-1.01-5.92-2.86-1.75-2.09-2.6-5.03-2.6-8.82s.85-6.81,2.64-8.98c1.53-2.01,3.49-2.94,5.96-2.94,1.92,0,3.92.46,6,1.39l-.13-10.99h-4.13c-1.91,0-4.81-.08-8.64-.23l-1.19-.08v-5.26c.85,0,2.13.08,3.83.15,2.3.16,4.3.23,5.96.23h4.13c-.08-3.33-.13-6.96-.17-10.99h-3.36c-2,0-4.17-.08-6.51-.08l-4.43-.23-.04-5.26,4.47.23c2.3.08,4.47.15,6.51.15h3.28l-.17-10.21,3.15-.16c.09,3.56.13,7.04.21,10.29,4.09-.16,8.68-.46,13.75-.85v5.34ZM59.45,691.13c-1.53,0-2.81.54-3.83,1.78-1.11,1.24-1.66,2.94-1.66,5.11s.51,3.71,1.62,4.87c.94,1.08,2.21,1.63,3.79,1.63,2.17,0,3.79-1.24,4.81-3.56.81-1.94,1.23-4.64,1.32-8.2-2.13-1.08-4.13-1.63-6.05-1.63Z"/>
    <path d="M113.17,660.25c-3.06.7-6.64,1.24-10.73,1.7-.6,5.57-1.28,11.07-1.96,16.33-1.62,12.15-3.41,22.6-5.36,31.34l-3.11-1.93c1.96-8.59,3.75-18.81,5.36-30.72.6-4.8,1.19-9.75,1.75-14.7-2.6.15-5.36.31-8.3.39l-.13-5.5c3.15,0,6.13-.15,8.98-.31.43-4.33.81-8.67,1.15-13.08l3.28.77c-.34,4.02-.72,8.05-1.11,12,3.49-.39,6.68-.93,9.66-1.63l.51,5.34ZM110.1,688.65c-1.36,3.41-2.04,6.27-2.04,8.74,0,2.01.81,3.64,2.47,4.72,1.53,1.01,3.66,1.55,6.47,1.55,3.15,0,6.05-.46,8.6-1.39l.08,5.49c-2.47.77-5.36,1.24-8.68,1.24-8.13,0-12.17-3.72-12.17-11.07,0-3.87.81-7.82,2.51-12l2.77,2.71ZM125.13,673.02c-6,0-12.09.46-18.3,1.47l-.17-5.57c6.21-.93,12.34-1.39,18.47-1.39v5.5Z"/>
    <path d="M152.76,676.43c1.41,2.63,2.64,5.34,3.66,7.97l-2.13,3.25c-1.02-2.63-2.26-5.34-3.62-7.97-1.57-3.02-3.15-5.57-4.72-7.74l1.92-3.25c1.62,2.01,3.24,4.64,4.89,7.74Z"/>
    <path d="M198.3,660.25c-3.06.7-6.64,1.24-10.73,1.7-.6,5.57-1.28,11.07-1.96,16.33-1.62,12.15-3.41,22.6-5.36,31.34l-3.11-1.93c1.96-8.59,3.75-18.81,5.36-30.72.6-4.8,1.19-9.75,1.75-14.7-2.6.15-5.36.31-8.3.39l-.13-5.5c3.15,0,6.13-.15,8.98-.31.43-4.33.81-8.67,1.15-13.08l3.28.77c-.34,4.02-.72,8.05-1.11,12,3.49-.39,6.68-.93,9.66-1.63l.51,5.34ZM195.24,688.65c-1.36,3.41-2.04,6.27-2.04,8.74,0,2.01.81,3.64,2.47,4.72,1.53,1.01,3.66,1.55,6.47,1.55,3.15,0,6.05-.46,8.6-1.39l.08,5.49c-2.47.77-5.36,1.24-8.68,1.24-8.13,0-12.17-3.72-12.17-11.07,0-3.87.81-7.82,2.51-12l2.77,2.71ZM210.26,673.02c-6,0-12.09.46-18.3,1.47l-.17-5.57c6.21-.93,12.34-1.39,18.47-1.39v5.5ZM207.41,656.85l-1.83,2.32c-1.28-3.87-2.77-7.27-4.47-10.37l1.75-2.4c1.79,3.17,3.32,6.65,4.55,10.45ZM211.63,650.97l-1.83,2.48c-1.28-3.95-2.77-7.43-4.43-10.45l1.66-2.4c1.87,3.33,3.4,6.81,4.6,10.37Z"/>
    <path d="M247,652.44c-4.51,6.81-9.79,14.86-15.83,24.3,3.32-3.56,6.47-5.26,9.45-5.26,3.53,0,6.3,1.55,8.3,4.64,1.96,3.1,2.94,7.27,2.94,12.69,0,6.04-1.49,10.91-4.38,14.63-2.98,3.71-6.68,5.57-11.11,5.57-2.89,0-5.19-1.01-6.9-3.02-1.7-2.09-2.51-4.8-2.51-8.2,0-3.1.6-5.65,1.83-7.66,1.28-2.24,2.98-3.33,5.11-3.33,2.89,0,5.15,1.62,6.81,5.03,1.23,2.4,2.13,5.65,2.64,9.67l1.06-1.01c2.85-2.94,4.3-6.89,4.3-11.69,0-4.1-.81-7.2-2.34-9.29-1.45-1.94-3.45-2.86-6.09-2.86-3.02,0-6.17,1.39-9.49,4.18-2.85,2.48-5.49,5.65-7.88,9.6l-2.04-3.95,20.86-32.97-17.54,1.55-.17-5.42,21.2-1.24,1.79,4.02ZM240.23,701.73c-.98-6.58-3.11-9.83-6.34-9.83-1.19,0-2.13.54-2.81,1.7-.72,1.08-1.06,2.48-1.06,4.1s.43,3.02,1.36,4.18c1.11,1.39,2.77,2.09,4.98,2.09,1.45,0,2.77-.31,4.04-.77-.08-.62-.13-1.08-.17-1.47Z"/>
    <path d="M294.8,659.56c-4.72.31-9.28.54-13.66.7.04,4.02.08,7.66.17,10.99,4.17-.08,8.38-.23,12.64-.46v5.34c-4.09.15-8.26.23-12.56.31.08,5.34.13,9.6.13,12.77.89.62,1.79,1.24,2.72,2.01,3.66,2.86,7.19,6.73,10.6,11.61l-1.96,4.41c-3.19-4.57-6.38-8.2-9.62-10.99-.64-.54-1.28-1.01-1.87-1.47-.26,4.02-.89,7.27-1.92,9.67-1.53,3.48-3.96,5.26-7.28,5.26-2.38,0-4.38-1.01-5.92-2.86-1.75-2.09-2.6-5.03-2.6-8.82s.85-6.81,2.64-8.98c1.53-2.01,3.49-2.94,5.96-2.94,1.92,0,3.92.46,6,1.39l-.13-10.99h-4.13c-1.91,0-4.81-.08-8.64-.23l-1.19-.08v-5.26c.85,0,2.13.08,3.83.15,2.3.16,4.3.23,5.96.23h4.13c-.08-3.33-.13-6.96-.17-10.99h-3.36c-2,0-4.17-.08-6.51-.08l-4.43-.23-.04-5.26,4.47.23c2.3.08,4.47.15,6.51.15h3.28l-.17-10.21,3.15-.16c.09,3.56.13,7.04.21,10.29,4.09-.16,8.68-.46,13.75-.85v5.34ZM272.29,691.13c-1.53,0-2.81.54-3.83,1.78-1.11,1.24-1.66,2.94-1.66,5.11s.51,3.71,1.62,4.87c.94,1.08,2.21,1.63,3.79,1.63,2.17,0,3.79-1.24,4.81-3.56.81-1.94,1.23-4.64,1.32-8.2-2.13-1.08-4.13-1.63-6.05-1.63Z"/>
    <path d="M310.77,647.48c-1.28,10.45-1.87,22.29-1.87,35.52,0,9.44.77,17.64,2.34,24.69l-2.94,1.93c-1.75-7.43-2.6-16.25-2.6-26.62,0-13.31.6-25.46,1.87-36.45l3.19.93ZM339.46,664.05c-2.13.54-4.51.93-7.19,1.24.26,10.37.38,18.57.42,24.53,2.64,2.48,5.36,6.11,8.13,10.76l-1.92,4.26c-2.47-4.03-4.55-7.04-6.34-9.05-.26,3.25-.85,5.96-1.79,8.2-1.53,3.48-3.87,5.26-6.94,5.26-2.43,0-4.38-.93-5.92-2.63-1.79-2.09-2.68-5.11-2.68-9.05s.77-6.89,2.38-9.05c1.53-2.17,3.49-3.17,5.92-3.17,1.92,0,3.87.62,5.87,1.86-.04-5.18-.17-12.38-.38-21.67-1.83.08-3.75.15-5.75.15-3.11,0-5.87-.15-8.3-.39l-.04-5.65c2.72.31,5.53.46,8.34.46,1.96,0,3.83-.08,5.62-.15l-.38-13.85,3.24-.08c.13,4.87.26,9.44.38,13.7,2.72-.31,5.15-.7,7.28-1.24l.04,5.57ZM323.54,690.67c-1.53,0-2.77.54-3.62,1.78-.94,1.24-1.41,2.94-1.41,5.11,0,2.32.6,4.02,1.83,5.11.85.77,2.04,1.16,3.49,1.16,1.96,0,3.45-1.24,4.38-3.64.68-1.86,1.11-4.26,1.19-7.27-1.96-1.55-3.92-2.24-5.87-2.24Z"/>
    <path d="M345.25,680.06l-1.02-5.88c3.4-9.21,5.87-19.73,7.41-31.57l2.77,2.32c-.68,4.87-1.53,9.52-2.55,14.01v55.02h-2.94v-44.11c-1.11,3.56-2.34,6.96-3.66,10.22ZM370.06,706.07c-4.77,2.4-9.83,4.41-15.28,6.04l-.68-5.18c2.3-.62,4.51-1.32,6.73-2.09v-14.94h-5.79v-5.11h5.79v-8.98h2.98v8.98h5.62v5.11h-5.62v13.78c2.13-.93,4.21-1.94,6.26-3.02v5.42ZM369.85,646.09v5.11h-7.45c-1.32,7.82-2.55,13.7-3.75,17.64,2.51-.62,4.9-1.39,7.15-2.32-.68-2.79-1.45-5.5-2.26-8.28l2.26-2.55c1.96,6.5,3.4,12.23,4.43,17.18l-2.26,2.94c-.34-1.7-.72-3.4-1.15-5.11-3.62,1.39-7.53,2.63-11.75,3.56l-.68-4.8c.51-.16.89-.31,1.15-.54,1.11-2.79,2.38-8.67,3.92-17.72h-4.21v-5.11h14.6ZM374.83,649.96v47.9h-2.81v-47.9h2.81ZM373.64,713.11l-.64-5.26c1.49.23,2.89.39,4.26.39,1.11,0,1.66-1.16,1.66-3.33v-61.68h2.98v63.07c0,4.49-1.23,6.81-3.62,6.81h-4.64Z"/>
    <path d="M417.66,659.02c1.11,2.09,1.7,4.95,1.7,8.67,0,2.63-.26,7.35-.68,14.01-.55,7.66-.81,12.61-.81,14.78,0,3.56.68,5.42,2.04,5.42,1.53,0,3.11-2.4,4.64-7.2l2.6,3.4c-1.15,3.1-2.17,5.34-3.06,6.73-1.28,1.7-2.68,2.55-4.21,2.55-3.53,0-5.28-3.64-5.28-10.91,0-1.7.26-6.66.85-14.78.47-6.96.72-11.69.72-14.01,0-4.33-1.19-6.5-3.53-6.5-3.02,0-6.89,3.95-11.58,12-.43.7-.89,1.47-1.32,2.32-.21,14.55-.3,26.31-.3,35.44h-3.11c0-8.36.04-18.11.17-29.25-2,4.02-4.17,8.74-6.47,14.24l-2.55-3.64c3.19-7.58,6.26-13.93,9.15-19.19l.17-10.45-7.49.85-.17-5.34,7.75-.85.17-13,3.11.08c-.08,3.02-.13,7.27-.17,12.69l1.36,2.09-1.49,5.65c0,.93-.04,1.94-.04,2.86l.08-.15c4.94-7.89,9.19-11.76,12.73-11.76,2.17,0,3.83,1.08,5.02,3.25Z"/>
    <path d="M466.01,656.31l-7.66.62c-1.28,0-2.94,1.39-4.9,4.18-2.13,2.94-3.92,6.42-5.32,10.45-1.66,4.64-2.47,9.36-2.47,14.09,0,5.42,1.28,9.75,3.87,12.92,2.77,3.25,6.81,5.03,12.17,5.34l-.6,5.34c-6.21-.15-10.94-2.32-14.13-6.5-3.07-3.95-4.6-9.52-4.6-16.72,0-6.19,1.11-12.07,3.36-17.49,1.83-4.64,4.17-8.44,7.07-11.38-6.3.93-13.2,2.01-20.6,3.41l-.43-5.49c13.62-2.4,24.99-3.72,34.14-3.95l.08,5.18Z"/>
    <path d="M503.05,660.41c-4.21.31-9.11.46-14.69.62-.26,4.33-.47,8.36-.64,11.92,4.43-.23,9.11-.54,14.05-.93v5.5c-4.89.46-9.66.77-14.3,1.01-.26,5.5-.34,9.83-.34,13,0,4.26.72,7.43,2.17,9.52,1.32,1.86,3.4,2.86,6.21,2.86,2.64,0,4.81-.62,6.51-1.7,2.47-1.55,3.7-4.18,3.7-7.89,0-2.78-.72-6.65-2.17-11.45l2.98-2.48c1.62,5.96,2.43,10.68,2.43,14.16,0,9.91-4.51,14.86-13.45,14.86-3.83,0-6.73-1.39-8.64-4.18-2-2.94-2.98-7.51-2.98-13.7,0-3.25.09-7.51.3-12.85-3.24.08-6.43.15-9.49.15v-5.5c3.06,0,6.34-.08,9.75-.23.17-3.64.38-7.66.64-11.99-3.06,0-6.3.08-9.71.08v-5.34c3.53,0,6.85-.08,10-.08l.72-11.61h3.28l-.72,11.53c5.49-.16,10.3-.31,14.43-.62l-.04,5.34Z"/>
    <path d="M540.42,644.39l.13,10.52,11.79-.31v5.18l-11.75.31v.62c.09,10.76.17,17.33.17,19.73,0,8.82-.98,15.4-2.94,19.81-1.83,4.02-5.24,7.74-10.17,10.99l-1.49-5.03c3.02-1.78,5.41-3.79,7.11-6.04,1.96-2.55,3.32-5.88,4.09-10.06-1.28,3.25-2.94,4.87-4.98,4.87-2.64,0-4.68-1.47-6.21-4.33-1.45-2.78-2.13-6.19-2.13-10.21s.68-7.2,2.09-9.98c1.53-3.1,3.62-4.64,6.26-4.64,2.47,0,4.3,1.78,5.49,5.34-.17-2.48-.3-5.42-.3-8.98l-.04-2.01-20.81.54v-5.18l20.77-.54-.13-10.6h3.07ZM528.38,673.95c-.94,1.78-1.36,3.95-1.36,6.5,0,2.71.47,4.95,1.41,6.65.94,1.78,2.25,2.71,3.96,2.71,1.53,0,2.85-.93,3.87-2.78.94-1.86,1.45-4.03,1.45-6.35,0-2.79-.51-5.11-1.49-6.96-1.02-1.94-2.3-2.86-3.83-2.86-1.7,0-3.02,1.01-4,3.1Z"/>
    <path d="M588.18,648.8c-2.72,4.95-5.79,9.91-9.11,14.94-3.49,5.11-6.77,9.44-9.75,12.92-.64.7-.94,1.32-.94,1.86s.34,1.24,1.06,2.01c3.06,3.25,6.55,7.51,10.43,12.69,3.74,5.03,7.02,9.83,9.92,14.47l-2.38,4.72c-2.98-4.8-6.39-9.75-10.26-15.01-3.92-5.34-7.45-9.83-10.68-13.39-1.49-1.7-2.21-3.56-2.21-5.5s.6-3.48,1.83-4.8c2.64-3.1,5.87-7.43,9.79-13.16,4-5.96,7.28-11.22,9.75-15.86l2.55,4.1ZM594.35,661.26l-1.83,2.32c-1.28-3.87-2.77-7.27-4.47-10.37l1.75-2.48c1.79,3.25,3.32,6.73,4.55,10.52ZM597.89,654.06l-1.83,2.4c-1.28-3.87-2.77-7.35-4.43-10.37l1.66-2.48c1.87,3.33,3.41,6.81,4.6,10.45Z"/>
    <path d="M609.98,647.87c-1.62,11.07-2.38,22.13-2.38,33.28,0,10.21.81,19.11,2.47,26.62l-3.02,2.09c-1.79-8.2-2.68-17.8-2.68-28.71,0-11.45.81-23.06,2.47-34.67l3.15,1.39ZM619.39,682.23c-1.53,4.41-2.3,8.05-2.3,10.91,0,2.71.94,4.72,2.81,6.04,1.7,1.16,4.38,1.78,8,1.78,2.55,0,5.49-.39,8.81-1.01l.17,5.8c-3.87.54-6.85.85-8.98.85-4.81,0-8.34-1.01-10.56-3.02-2.38-2.09-3.58-5.5-3.58-10.22,0-3.71.85-8.36,2.64-13.93l2.98,2.79ZM635.18,660.64c-7.28,0-14.05.39-20.35,1.24l-.51-5.57c6.94-.93,13.92-1.39,20.98-1.39l-.13,5.73Z"/>
    <path d="M654.55,642.61v10.52h6.68v5.11h-6.68v11.38h7.24v5.11h-6.43v10.91h6.04v5.11h-6.04v14.63c2.68,1.24,7.75,1.93,15.19,1.93,4.94,0,8.6-.15,11.02-.39l-.51,5.42h-9.83c-9.79,0-15.92-1.08-18.39-3.17-2.13-1.86-4-5.03-5.62-9.6-.64,5.11-1.49,9.83-2.55,14.24l-2.34-3.79c2.13-8.98,3.28-19.11,3.53-30.34l2.72.54c-.08,4.57-.34,8.9-.68,13.08,1.36,4.33,2.85,7.58,4.51,9.6v-28.17h-8.81v-5.11h7.87v-11.38h-7.07v-5.11h7.07v-10.52h3.06ZM678.68,673.25h-11.58v18.34c0,1.86.6,2.86,1.87,2.86h6.04c.98-.08,1.66-.85,2.04-2.32.3-1.24.55-4.26.72-9.13l2.89,1.7c-.26,4.72-.55,8.13-.94,10.14-.64,3.1-1.92,4.72-3.83,4.87h-8.09c-2.51,0-3.75-2.09-3.75-6.19v-45.66h14.6v25.38ZM675.74,668.15v-15.24h-8.64v15.24h8.64Z"/>
    <path d="M718.27,656.93c-4.13,1.01-8.21,1.78-12.22,2.4.85,2.94,1.7,5.8,2.6,8.51,4.13-.77,8.22-1.63,12.26-2.71l.55,5.26c-3.62,1.01-7.32,1.86-11.07,2.55,2.04,5.57,4.13,10.52,6.34,14.78l-1.92,3.95c-2.09-2.01-4.17-3.56-6.26-4.64-2.34-1.32-4.47-1.94-6.43-1.94-2.89,0-5.06.85-6.51,2.55-1.49,1.63-2.21,3.95-2.21,6.89,0,2.79.85,5.11,2.64,6.81,2.04,2.01,5.15,3.02,9.32,3.02,3.28,0,6.26-.46,8.94-1.24l.21,5.26c-2.43.77-5.49,1.24-9.15,1.24-4.85,0-8.6-1.32-11.15-3.79-2.72-2.63-4.04-6.42-4.04-11.3s.94-8.13,2.89-10.52c2-2.55,4.98-3.79,8.98-3.79,2.98,0,6.17,1.39,9.58,4.33-1.53-2.63-3.11-6.27-4.77-11.07-6.17.85-12.56,1.32-19.15,1.39v-5.26c5.87-.08,11.71-.46,17.49-1.24-.85-2.63-1.66-5.49-2.51-8.59-4.51.54-8.9.85-13.24.93v-5.26c3.79,0,7.75-.31,11.83-.77-.77-2.78-1.49-5.65-2.21-8.67l2.98-2.24c.85,3.64,1.7,7.12,2.6,10.45,4.17-.62,8.56-1.55,13.07-2.63l.55,5.34Z"/>
    <path d="M746.71,642.84v23.91h15.79v5.42h-15.79v33.12h19.41v5.42h-37.88v-5.42h15.32v-62.45h3.15Z"/>
    <path d="M788.04,646.17c-.6,5.18-1.23,10.22-1.92,15.17.77-.08,1.49-.08,2.21-.08,2.98,0,5.24,1.63,6.81,4.95,1.53,3.25,2.3,7.89,2.3,13.85,0,7.74-.47,13.93-1.36,18.73-1.36,7.27-3.75,10.99-7.11,10.99-2.04,0-4.3-.85-6.68-2.4l.47-5.49c2.3,1.55,4.38,2.32,6.17,2.32,2.17,0,3.66-3.33,4.51-9.83.47-3.87.72-8.67.72-14.32,0-8.98-2-13.47-5.92-13.47-.94,0-1.92,0-2.94.16-2.55,16.56-5.75,31.03-9.49,43.41l-2.98-2.55c3.58-11.92,6.6-25.38,8.98-40.39-2.55.46-5.45,1.16-8.64,2.09l-.47-5.42c3.58-1.08,6.9-1.86,9.96-2.24.77-5.42,1.49-10.91,2.13-16.64l3.24,1.16ZM809.79,688.34l-3.02,1.93c-.81-6.65-1.79-12.3-2.94-16.95-1.41-5.57-3.19-10.37-5.36-14.47l2.47-3.48c4.26,8.05,7.24,19.04,8.85,32.97ZM805.92,654.76l-1.79,2.32c-1.28-3.87-2.77-7.27-4.47-10.37l1.7-2.48c1.83,3.25,3.36,6.73,4.55,10.52ZM810.56,650.89l-1.83,2.4c-1.28-3.87-2.77-7.35-4.43-10.37l1.66-2.4c1.87,3.33,3.4,6.81,4.6,10.37Z"/>
    <path d="M842.95,652.44c-4.51,6.81-9.79,14.86-15.83,24.3,3.32-3.56,6.47-5.26,9.45-5.26,3.53,0,6.3,1.55,8.3,4.64,1.96,3.1,2.94,7.27,2.94,12.69,0,6.04-1.49,10.91-4.38,14.63-2.98,3.71-6.68,5.57-11.11,5.57-2.89,0-5.19-1.01-6.9-3.02-1.7-2.09-2.51-4.8-2.51-8.2,0-3.1.6-5.65,1.83-7.66,1.28-2.24,2.98-3.33,5.11-3.33,2.89,0,5.15,1.62,6.81,5.03,1.23,2.4,2.13,5.65,2.64,9.67l1.06-1.01c2.85-2.94,4.3-6.89,4.3-11.69,0-4.1-.81-7.2-2.34-9.29-1.45-1.94-3.45-2.86-6.09-2.86-3.02,0-6.17,1.39-9.49,4.18-2.85,2.48-5.49,5.65-7.88,9.6l-2.04-3.95,20.86-32.97-17.54,1.55-.17-5.42,21.2-1.24,1.79,4.02ZM836.18,701.73c-.98-6.58-3.11-9.83-6.34-9.83-1.19,0-2.13.54-2.81,1.7-.72,1.08-1.06,2.48-1.06,4.1s.43,3.02,1.36,4.18c1.11,1.39,2.77,2.09,4.98,2.09,1.45,0,2.77-.31,4.04-.77-.08-.62-.13-1.08-.17-1.47Z"/>
    <path d="M867.13,682.85c-2.64,5.18-3.92,9.05-3.92,11.61,0,6.11,4.17,9.21,12.51,9.21,4.98,0,9.62-.77,13.88-2.24l.51,5.49c-4.3,1.47-9.11,2.24-14.39,2.24-10.56,0-15.79-4.8-15.79-14.39,0-4.26,1.53-9.44,4.68-15.48l2.51,3.56ZM875.22,654.45c4.94,0,9.07-.31,12.39-.93l1.19,4.88c-3.74,3.71-7.32,7.82-10.81,12.38l-1.83-4.41c2.34-2.78,4.6-5.26,6.77-7.43-2.04.54-4.64.85-7.7.85-5.15,0-9.49-.62-13.07-1.78l.42-5.42c3.58,1.24,7.79,1.86,12.64,1.86Z"/>
    <path d="M915.53,661.8c.3,2.78.81,5.42,1.49,7.89,3.36-2.32,7.58-4.64,12.6-7.04l1.19,5.26c-6.98,3.25-12.39,6.5-16.13,9.75-5.62,4.72-8.38,9.91-8.38,15.48,0,7.04,4.26,10.6,12.77,10.6,4.17,0,8.38-.54,12.56-1.47l.3,5.73c-4.34.85-8.64,1.32-12.85,1.32-5.49,0-9.53-1.32-12.13-3.87-2.68-2.63-4-6.66-4-12.15,0-7.43,2.89-13.85,8.73-19.35.68-.7,1.45-1.39,2.3-2.01-.85-3.17-1.45-6.66-1.79-10.53-.42-4.1-.68-9.67-.77-16.79l3.28-.15c.08,7.51.38,13.31.85,17.33Z"/>
    <path d="M958.31,646.17c-.6,5.18-1.23,10.22-1.92,15.17.77-.08,1.49-.08,2.21-.08,2.98,0,5.24,1.63,6.81,4.95,1.53,3.25,2.3,7.89,2.3,13.85,0,7.74-.47,13.93-1.36,18.73-1.36,7.27-3.75,10.99-7.11,10.99-2.04,0-4.3-.85-6.68-2.4l.47-5.49c2.3,1.55,4.38,2.32,6.17,2.32,2.17,0,3.66-3.33,4.51-9.83.47-3.87.72-8.67.72-14.32,0-8.98-2-13.47-5.92-13.47-.94,0-1.92,0-2.94.16-2.55,16.56-5.75,31.03-9.49,43.41l-2.98-2.55c3.58-11.92,6.6-25.38,8.98-40.39-2.55.46-5.45,1.16-8.64,2.09l-.47-5.42c3.58-1.08,6.9-1.86,9.96-2.24.77-5.42,1.49-10.91,2.13-16.64l3.24,1.16ZM980.06,688.34l-3.02,1.93c-.81-6.65-1.79-12.3-2.94-16.95-1.41-5.57-3.19-10.37-5.36-14.47l2.47-3.48c4.26,8.05,7.24,19.04,8.85,32.97Z"/>
    <path d="M994.32,658.4c-.51,12.23-1.23,20.58-2.21,25.07,1.87-2.78,4-4.95,6.47-6.42,2.47-1.63,5.02-2.4,7.66-2.4,3.06,0,5.62,1.39,7.66,4.18,2.13,2.94,3.19,6.89,3.19,11.76,0,6.5-1.53,11.38-4.51,14.78-2.81,3.1-6.51,4.72-11.19,4.72-2.55,0-5.28-.23-8.09-.54l.17-5.65c2.81.39,5.45.62,7.92.62,4.04,0,7.15-1.24,9.28-3.72,2.13-2.48,3.19-5.88,3.19-10.21,0-2.94-.68-5.42-2-7.43-1.45-2.17-3.32-3.17-5.62-3.17-2.89,0-5.53.85-7.96,2.55-2.43,1.7-4.9,4.41-7.41,8.28l-2.64-2.17c1.45-7.12,2.43-17.41,2.89-30.72l3.19.46ZM1002.03,648.1c4.3,1.78,7.49,3.41,9.53,4.88l-1.19,4.95c-1.96-1.39-4.98-2.86-9.07-4.57-3.75-1.55-6.81-2.55-9.19-3.02l.68-5.34c2.3.46,5.36,1.47,9.24,3.1Z"/>
    <path d="M1065.11,642.07v5.18h-10.51v42.25h-3.11v-47.44h13.62Z"/>
    <path d="M1106.79,666.52l-21.11,7.04v30.41c0,1.63.38,2.48,1.15,2.48h18.22v5.42h-19.07c-2.3,0-3.45-2.24-3.45-6.58v-30.64l-13.71,4.56-.47-5.34,14.17-4.72v-26h3.15v24.92l20.64-6.89.47,5.34Z"/>
    <path d="M1118.11,660.79v-6.11h-6.81v-4.95h6.81v-6.73h2.81v6.73h6.55v4.95h-6.55v6.11h5.7v30.88h-5.7v6.11h6.68v4.95h-6.68v10.76h-2.81v-10.76h-6.89v-4.95h6.89v-6.11h-5.83v-30.88h5.83ZM1118.32,673.95v-8.51h-3.45v8.51h3.45ZM1118.32,678.28h-3.45v8.75h3.45v-8.75ZM1120.71,673.95h3.41v-8.51h-3.41v8.51ZM1124.11,678.28h-3.41v8.75h3.41v-8.75ZM1149.35,670.16v5.42h-11.07c-1.45,11.76-2.98,21.13-4.6,27.94,3.92-1.01,7.66-2.24,11.24-3.79-.98-5.42-2.04-10.6-3.24-15.63l2.68-1.55c2.04,8.28,3.83,17.8,5.41,28.56l-2.85,1.32c-.38-2.63-.77-5.18-1.15-7.66-3.49,1.55-8.98,3.33-16.47,5.42l-.77-5.26c1.02-.31,1.66-1.16,2-2.4,1.7-6.35,3.28-15.32,4.72-26.93h-6.68v-5.42h20.77ZM1147.44,648.72v5.42h-17.2v-5.42h17.2Z"/>
    <path d="M1185.75,664.66c1.91,4.33,4.3,8.28,7.15,11.84l-1.92,4.88c-3.28-4.18-5.87-9.21-7.75-14.94.38,2.17.72,4.72.98,7.58.26,2.71.38,5.11.38,7.27,0,8.67-1.11,15.48-3.28,20.51-2.47,5.49-6.04,8.28-10.73,8.28-4.04,0-7.28-2.01-9.66-6.04-2.43-4.18-3.62-9.83-3.62-16.95,0-4.33.55-8.98,1.66-13.85,1.19-5.34,2.89-10.45,5.19-15.25-1.62,1.39-3.45,2.55-5.45,3.41-1.96.7-3.87,1.08-5.83,1.08v-5.65c5.36-.23,9.96-2.17,13.83-5.81l2.09,3.79c-3.15,7.2-5.36,13.54-6.64,19.04-1.06,4.49-1.57,8.9-1.57,13.23,0,5.5.89,9.75,2.68,12.85,1.79,2.94,4.21,4.49,7.32,4.49,3.58,0,6.3-2.17,8.17-6.35,1.75-4.02,2.64-9.6,2.64-16.87,0-9.36-1.11-19.27-3.32-29.72l3.07-2.01c1.02,5.42,2.55,10.53,4.6,15.17ZM1189.24,656.23l-1.83,2.32c-1.28-3.87-2.77-7.27-4.47-10.37l1.75-2.4c1.79,3.17,3.32,6.65,4.55,10.45ZM1193.54,650.97l-1.83,2.48c-1.32-3.95-2.81-7.43-4.47-10.45l1.7-2.4c1.87,3.33,3.4,6.81,4.6,10.37Z"/>
    <path d="M1211.29,649.5c-2.38,27.09-6.77,47.98-13.11,62.84l-2-4.57c5.96-14.63,10-34.36,12.09-59.2l3.02.93ZM1234.66,707.54l-1.62,5.11c-8.43-13.78-13.28-35.52-14.56-65.39l2.85-1.63c.98,27.7,5.41,48.29,13.32,61.91Z"/>
    <path d="M1250.5,642.61v10.52h6.68v5.11h-6.68v11.38h7.24v5.11h-6.43v10.91h6.04v5.11h-6.04v14.63c2.68,1.24,7.75,1.93,15.19,1.93,4.94,0,8.6-.15,11.02-.39l-.51,5.42h-9.83c-9.79,0-15.92-1.08-18.39-3.17-2.13-1.86-4-5.03-5.62-9.6-.64,5.11-1.49,9.83-2.55,14.24l-2.34-3.79c2.13-8.98,3.28-19.11,3.53-30.34l2.72.54c-.08,4.57-.34,8.9-.68,13.08,1.36,4.33,2.85,7.58,4.51,9.6v-28.17h-8.81v-5.11h7.87v-11.38h-7.07v-5.11h7.07v-10.52h3.06ZM1274.63,673.25h-11.58v18.34c0,1.86.6,2.86,1.87,2.86h6.04c.98-.08,1.66-.85,2.04-2.32.3-1.24.55-4.26.72-9.13l2.89,1.7c-.26,4.72-.55,8.13-.94,10.14-.64,3.1-1.92,4.72-3.83,4.87h-8.09c-2.51,0-3.75-2.09-3.75-6.19v-45.66h14.6v25.38ZM1271.69,668.15v-15.24h-8.64v15.24h8.64Z"/>
    <path d="M1314.22,656.93c-4.13,1.01-8.21,1.78-12.22,2.4.85,2.94,1.7,5.8,2.6,8.51,4.13-.77,8.22-1.63,12.26-2.71l.55,5.26c-3.62,1.01-7.32,1.86-11.07,2.55,2.04,5.57,4.13,10.52,6.34,14.78l-1.92,3.95c-2.09-2.01-4.17-3.56-6.26-4.64-2.34-1.32-4.47-1.94-6.43-1.94-2.89,0-5.06.85-6.51,2.55-1.49,1.63-2.21,3.95-2.21,6.89,0,2.79.85,5.11,2.64,6.81,2.04,2.01,5.15,3.02,9.32,3.02,3.28,0,6.26-.46,8.94-1.24l.21,5.26c-2.43.77-5.49,1.24-9.15,1.24-4.85,0-8.6-1.32-11.15-3.79-2.72-2.63-4.04-6.42-4.04-11.3s.94-8.13,2.89-10.52c2-2.55,4.98-3.79,8.98-3.79,2.98,0,6.17,1.39,9.58,4.33-1.53-2.63-3.11-6.27-4.77-11.07-6.17.85-12.56,1.32-19.15,1.39v-5.26c5.87-.08,11.71-.46,17.49-1.24-.85-2.63-1.66-5.49-2.51-8.59-4.51.54-8.9.85-13.24.93v-5.26c3.79,0,7.75-.31,11.83-.77-.77-2.78-1.49-5.65-2.21-8.67l2.98-2.24c.85,3.64,1.7,7.12,2.6,10.45,4.17-.62,8.56-1.55,13.07-2.63l.55,5.34Z"/>
    <path d="M1336.7,666.91v47.44h-13.62v-5.18h10.51v-42.25h3.11Z"/>
    <path d="M1398.5,659.94c3.07,5.26,4.64,11.76,4.64,19.5,0,8.67-1.45,15.4-4.26,20.35-2.55,4.49-6.55,7.74-11.96,9.75l-1.06-5.26c5.07-1.78,8.73-4.8,10.98-8.98,2.04-3.87,3.11-9.21,3.11-15.86s-1.32-11.76-3.96-15.94c-2.38-3.79-5.19-5.88-8.43-6.19l-.89,14.39c-.64,7.97-1.53,14.47-2.68,19.5-1.87,8.67-4.38,13-7.45,13-2.47,0-4.51-2.01-6.09-6.04-1.53-3.87-2.26-8.67-2.26-14.24,0-8.67,1.62-16.02,4.85-22.13,3.45-6.66,7.96-9.91,13.54-9.91,4.77,0,8.72,2.63,11.92,8.05ZM1382.63,680.14c.85-6.89,1.49-14.47,1.83-22.67-3.36.62-6.26,3.1-8.64,7.27-2.98,5.11-4.43,11.53-4.43,19.19,0,4.33.51,7.89,1.53,10.76.94,2.78,2.17,4.18,3.62,4.18,2.47,0,4.51-6.27,6.09-18.73Z"/>
    <path d="M1442.18,649.26c-3.19,6.35-7.07,12.54-11.58,18.65v42.02h-3.32v-37.76c-5.02,6.11-9.96,11.06-14.85,14.86l-1.75-5.11c5.02-3.87,10.26-9.36,15.79-16.33,5.41-6.96,9.79-13.7,13.2-20.28l2.51,3.95Z"/>
    <path d="M1473.21,673.49c2.13-7.43,4-16.25,5.62-26.47l3.32,1.47c-1.7,10.99-3.7,20.43-6.09,28.48,4.26,5.34,8.38,11.61,12.38,18.81l-2.3,4.33c-3.92-6.81-7.87-12.77-11.79-17.88-.34.85-.64,1.7-.94,2.55-4.17,10.99-9.62,19.42-16.3,25.3l-2.13-4.8c6.47-5.57,11.66-13.54,15.62-23.91.3-.85.6-1.7.94-2.63-3.96-4.64-8.22-8.82-12.73-12.38l1.49-5.34c4.6,3.72,8.9,7.82,12.9,12.46Z"/>
    <path d="M1529.19,675.27v5.65h-31.62v-5.65h31.62Z"/>
    <path d="M1552.99,674.88l-1.7,5.11c-3.62-3.72-7.66-6.73-12.17-8.9l1.36-5.42c4.17,1.86,8.34,4.95,12.51,9.21ZM1572.73,665.28c-2.51,10.68-6.21,19.89-11.11,27.78-5.32,8.51-11.45,14.39-18.35,17.49l-1.53-5.57c6.47-2.94,12.22-8.28,17.32-16.17,4.77-7.43,8.26-15.94,10.55-25.69l3.11,2.17ZM1556.77,657.7l-1.79,4.72c-3.15-3.64-7.19-6.66-12.13-9.05l1.36-5.42c4.89,2.4,9.07,5.65,12.56,9.75ZM1570.05,657.24l-1.79,2.32c-1.28-3.87-2.81-7.27-4.51-10.37l1.75-2.4c1.79,3.17,3.32,6.66,4.55,10.45ZM1574.31,651.82l-1.87,2.4c-1.28-3.87-2.77-7.35-4.43-10.37l1.7-2.4c1.87,3.33,3.4,6.81,4.6,10.37Z"/>
    <path d="M1596.83,646.17c-.6,5.18-1.24,10.22-1.92,15.17.77-.08,1.49-.08,2.21-.08,2.98,0,5.24,1.63,6.81,4.95,1.53,3.25,2.3,7.89,2.3,13.85,0,7.74-.47,13.93-1.36,18.73-1.36,7.27-3.75,10.99-7.11,10.99-2.04,0-4.3-.85-6.68-2.4l.47-5.49c2.3,1.55,4.38,2.32,6.17,2.32,2.17,0,3.66-3.33,4.51-9.83.47-3.87.72-8.67.72-14.32,0-8.98-2-13.47-5.92-13.47-.94,0-1.92,0-2.94.16-2.55,16.56-5.75,31.03-9.49,43.41l-2.98-2.55c3.58-11.92,6.6-25.38,8.98-40.39-2.55.46-5.45,1.16-8.64,2.09l-.47-5.42c3.58-1.08,6.9-1.86,9.96-2.24.77-5.42,1.49-10.91,2.13-16.64l3.24,1.16ZM1618.58,688.34l-3.02,1.93c-.81-6.65-1.79-12.3-2.94-16.95-1.41-5.57-3.19-10.37-5.36-14.47l2.47-3.48c4.26,8.05,7.24,19.04,8.85,32.97ZM1614.71,654.76l-1.79,2.32c-1.28-3.87-2.77-7.27-4.47-10.37l1.7-2.48c1.83,3.25,3.36,6.73,4.55,10.52ZM1619.35,650.89l-1.83,2.4c-1.28-3.87-2.77-7.35-4.43-10.37l1.66-2.4c1.87,3.33,3.4,6.81,4.6,10.37Z"/>
    <path d="M1657.45,657.24c-5.15.54-11.49.93-19.07,1.24-.17,3.25-.3,6.58-.34,9.98,1.96-.85,4.09-1.24,6.34-1.24.72,0,1.45,0,2.17.15.17-1.39.38-2.86.6-4.33l2.89,1.16c-.21,1.39-.43,2.79-.6,4.18,1.58.77,3.02,2.01,4.38,3.72,3.02,3.79,4.55,8.98,4.55,15.48,0,6.89-1.28,12.23-3.83,16.1-2.38,3.56-5.92,5.88-10.6,7.04l-1.06-4.8c4-.93,7.07-2.86,9.15-5.81,2.17-3.17,3.28-7.35,3.28-12.54s-1.23-8.98-3.7-11.76c-.94-1.08-1.92-1.86-2.98-2.4-1.28,7.04-2.85,13.16-4.68,18.42-3.75,10.37-8.26,15.63-13.58,15.63-2.09,0-3.7-1.24-4.85-3.56-1.19-2.32-1.75-5.42-1.75-9.44,0-7.2,1.91-13.47,5.75-18.81,1.62-2.32,3.45-4.18,5.41-5.49.04-3.95.17-7.82.38-11.61-3.41,0-7.02.08-10.85.08l-.04-5.18c4,0,7.7-.08,11.19-.08.21-3.25.51-6.5.85-9.67l3.02,1.24c-.3,2.71-.55,5.49-.77,8.36,7.58-.23,13.75-.62,18.56-1.16l.17,5.11ZM1631.61,679.52c-3.23,4.41-4.81,9.36-4.81,14.94,0,5.26,1.19,7.89,3.58,7.89,2.04,0,3.96-1.08,5.75-3.17-.81-6.81-1.23-14.63-1.23-23.29-1.19.93-2.26,2.17-3.28,3.64ZM1644.38,672.33c-2.3,0-4.47.46-6.43,1.47v1.08c0,7.58.26,14.32.85,20.2.85-1.7,1.7-3.72,2.55-5.96,1.7-4.8,3.15-10.37,4.34-16.71-.43-.08-.89-.08-1.32-.08Z"/>
    <path d="M1694.31,652.44c-4.51,6.81-9.79,14.86-15.83,24.3,3.32-3.56,6.47-5.26,9.45-5.26,3.53,0,6.3,1.55,8.3,4.64,1.96,3.1,2.94,7.27,2.94,12.69,0,6.04-1.49,10.91-4.38,14.63-2.98,3.71-6.68,5.57-11.11,5.57-2.89,0-5.19-1.01-6.9-3.02-1.7-2.09-2.51-4.8-2.51-8.2,0-3.1.6-5.65,1.83-7.66,1.28-2.24,2.98-3.33,5.11-3.33,2.89,0,5.15,1.62,6.81,5.03,1.23,2.4,2.13,5.65,2.64,9.67l1.06-1.01c2.85-2.94,4.3-6.89,4.3-11.69,0-4.1-.81-7.2-2.34-9.29-1.45-1.94-3.45-2.86-6.09-2.86-3.02,0-6.17,1.39-9.49,4.18-2.85,2.48-5.49,5.65-7.88,9.6l-2.04-3.95,20.86-32.97-17.54,1.55-.17-5.42,21.2-1.24,1.79,4.02ZM1687.54,701.73c-.98-6.58-3.11-9.83-6.34-9.83-1.19,0-2.13.54-2.81,1.7-.72,1.08-1.06,2.48-1.06,4.1s.43,3.02,1.36,4.18c1.11,1.39,2.77,2.09,4.98,2.09,1.45,0,2.77-.31,4.04-.77-.08-.62-.13-1.08-.17-1.47Z"/>
    <path d="M1730.75,660.25c-3.06.7-6.64,1.24-10.73,1.7-.6,5.57-1.28,11.07-1.96,16.33-1.62,12.15-3.41,22.6-5.36,31.34l-3.11-1.93c1.96-8.59,3.75-18.81,5.36-30.72.6-4.8,1.19-9.75,1.75-14.7-2.6.15-5.36.31-8.3.39l-.13-5.5c3.15,0,6.13-.15,8.98-.31.43-4.33.81-8.67,1.15-13.08l3.28.77c-.34,4.02-.72,8.05-1.11,12,3.49-.39,6.68-.93,9.66-1.63l.51,5.34ZM1727.68,688.65c-1.36,3.41-2.04,6.27-2.04,8.74,0,2.01.81,3.64,2.47,4.72,1.53,1.01,3.66,1.55,6.47,1.55,3.15,0,6.05-.46,8.6-1.39l.08,5.49c-2.47.77-5.36,1.24-8.68,1.24-8.13,0-12.17-3.72-12.17-11.07,0-3.87.81-7.82,2.51-12l2.77,2.71ZM1742.71,673.02c-6,0-12.09.46-18.3,1.47l-.17-5.57c6.21-.93,12.34-1.39,18.47-1.39v5.5Z"/>
    <path d="M1773.87,646.09c-.08,4.03-.26,7.82-.47,11.45,3.32.62,6.13,2.63,8.43,6.04,3.06,4.56,4.6,10.91,4.6,18.96s-1.62,14.4-4.85,19.35c-2.89,4.41-6.73,7.27-11.58,8.67l-1.15-5.18c4.47-1.24,7.96-3.79,10.51-7.58,2.64-4.02,3.96-9.05,3.96-15.25,0-6.5-1.23-11.53-3.66-15.09-1.79-2.63-3.96-4.18-6.6-4.64-.6,7.74-1.53,14.7-2.72,20.74-2.85,14.16-7.11,21.28-12.77,21.28-2.04,0-3.7-1.32-4.94-3.79-1.32-2.63-1.96-6.11-1.96-10.6,0-8.9,2.09-16.64,6.26-23.21.3-.54.64-1.01.98-1.47-.43-4.95-.68-10.06-.77-15.4l3.11-.46c.04,4.18.21,8.28.51,12.3,2.89-3.1,6.09-4.72,9.58-4.87.21-3.79.34-7.66.43-11.69l3.11.46ZM1759.06,675.81c-.21-1.32-.38-2.63-.51-3.87-3.19,5.42-4.77,11.61-4.77,18.49,0,2.71.38,4.95,1.15,6.66.72,1.55,1.62,2.4,2.72,2.4,2.13,0,4.04-1.63,5.75-4.87-1.83-5.42-3.28-11.69-4.34-18.81ZM1761.27,667.99c.17,1.86.38,3.64.64,5.42.85,6.27,2,11.76,3.45,16.41.85-2.71,1.62-5.96,2.34-9.75,1.02-5.42,1.79-11.22,2.3-17.41-3.15.23-6.09,2.01-8.72,5.34Z"/>
    <path d="M80.01,784.67c-3.19,6.35-7.07,12.54-11.58,18.65v42.02h-3.32v-37.76c-5.02,6.11-9.96,11.06-14.85,14.86l-1.75-5.11c5.02-3.87,10.26-9.36,15.79-16.33,5.41-6.96,9.79-13.7,13.2-20.28l2.51,3.95Z"/>
    <path d="M108.19,781.88c-.51,2.63-1.06,5.26-1.75,7.89h14.47l2.04,2.09c-1.11,12.15-3.62,22.91-7.62,32.35-4.21,9.83-9.58,17.1-16.05,21.74l-1.79-5.18c5.79-4.18,10.6-10.29,14.43-18.34.13-.31.26-.54.38-.85-1.19-1.55-2.51-3.17-3.87-4.8-2.3-2.71-4.43-4.95-6.34-6.66l1.96-4.33c1.96,1.86,4.09,4.03,6.3,6.5,1.41,1.55,2.68,3.1,3.87,4.64,2.38-6.5,4.09-13.62,5.02-21.51h-14.47c-.68,2.17-1.45,4.26-2.26,6.34-2.38,5.96-5.06,11.14-8.13,15.55l-2.26-4.02c2.98-4.49,5.62-9.6,7.92-15.32,2.26-5.88,3.92-11.84,5.02-17.88l3.11,1.78Z"/>
    <path d="M142.63,785.6v37.22h-3.36v-37.22h3.36ZM163.1,783.97v25.46c0,9.75-1.23,17.64-3.66,23.53-2.6,6.27-6.68,10.68-12.3,13.31l-1.53-5.34c5.24-2.4,8.98-6.42,11.24-11.99,1.96-4.88,2.94-11.53,2.94-19.89v-25.07h3.32Z"/>
    <path d="M209.12,786.06l1.75,2.86c-1.57,5.57-3.24,10.45-4.98,14.63-2.04,4.72-4.38,8.98-7.02,12.77l-2.34-4.26c4.43-6.35,7.66-13.08,9.75-20.35h-28.3v-5.65h31.16ZM194.81,799.61v10.6c0,8.51-.89,15.55-2.6,21.28-1.87,6.11-4.81,10.91-8.85,14.47l-2.09-4.8c3.58-3.17,6.21-7.12,7.83-11.92,1.57-4.8,2.38-11.14,2.38-19.04v-10.6h3.32Z"/>
    <path d="M223.72,788.15c-.72-3.1-1.62-6.04-2.64-8.82l2.89-1.55c1.06,3.41,1.87,6.5,2.43,9.29l-1.53,1.08h6.09v5.11h-13.71v-5.11h6.47ZM221.38,849.13h-2.85v-27.24h11.45v26.08h-2.77v-3.56h-5.83v4.72ZM229.59,799.37v4.87h-10.77v-4.87h10.77ZM229.59,810.29v4.95h-10.77v-4.95h10.77ZM227.21,826.85h-5.83v12.46h5.83v-12.46ZM254.45,781.26v5.03h-11.02l-.94,8.74h9.92v15.25h3.24v5.11h-23.37v-5.11h5.7l1.11-10.37h-5.11v-4.88h5.66l.94-8.74h-8v-5.03h21.88ZM253.05,849.36h-2.85v-3.56h-12.85v3.56h-2.89v-26.7h18.6v26.7ZM250.19,840.77v-13.15h-12.85v13.15h12.85ZM249.55,810.29v-10.37h-7.62l-1.11,10.37h8.72Z"/>
    <path d="M291.74,795.35c3.07,5.26,4.64,11.76,4.64,19.5,0,8.67-1.45,15.4-4.26,20.35-2.55,4.49-6.55,7.74-11.96,9.75l-1.06-5.26c5.07-1.78,8.73-4.8,10.98-8.98,2.04-3.87,3.11-9.21,3.11-15.86s-1.32-11.76-3.96-15.94c-2.38-3.79-5.19-5.88-8.43-6.19l-.89,14.39c-.64,7.97-1.53,14.47-2.68,19.5-1.87,8.67-4.38,13-7.45,13-2.47,0-4.51-2.01-6.09-6.04-1.53-3.87-2.26-8.67-2.26-14.24,0-8.67,1.62-16.02,4.85-22.13,3.45-6.66,7.96-9.91,13.54-9.91,4.77,0,8.72,2.63,11.92,8.05ZM275.86,815.55c.85-6.89,1.49-14.47,1.83-22.67-3.36.62-6.26,3.1-8.64,7.27-2.98,5.11-4.43,11.53-4.43,19.19,0,4.33.51,7.89,1.53,10.76.94,2.78,2.17,4.18,3.62,4.18,2.47,0,4.51-6.27,6.09-18.73Z"/>
    <path d="M321.58,786.22v5.18l-11.19,50.07h-3.7l11.32-49.45h-16.39v-5.81h19.96Z"/>
    <path d="M364.74,777.47v5.18h-10.51v42.25h-3.11v-47.44h13.62Z"/>
    <path d="M385.48,812.84h-3.32c-.3-2.48-.85-4.33-1.7-5.42-.94-1.24-2.3-1.86-4.04-1.86-1.53,0-2.72.46-3.58,1.55-.94,1.01-1.41,2.4-1.41,4.18s.6,3.17,1.87,4.33c.81.7,2.34,1.55,4.55,2.63,2.64,1.16,4.51,2.4,5.66,3.72,1.75,2.01,2.64,4.72,2.64,8.2,0,8.2-3.11,12.38-9.32,12.38-5.79,0-8.94-4.64-9.45-13.85h3.32c.26,3.17.89,5.42,1.83,6.81.94,1.24,2.34,1.86,4.21,1.86,3.92,0,5.92-2.32,5.92-6.81,0-2.24-.72-3.95-2.09-5.18-.72-.62-2.3-1.47-4.68-2.55-2.6-1.16-4.43-2.32-5.45-3.56-1.7-1.86-2.51-4.41-2.51-7.82s.81-6.04,2.47-8.05c1.53-2.01,3.58-3.02,6.04-3.02,5.45,0,8.43,4.1,9.02,12.46Z"/>
    <path d="M407.23,806.88c1.62,3.87,2.47,9.36,2.55,16.33h-17.37c.17,4.49.81,7.97,2,10.45,1.19,2.48,2.85,3.71,4.94,3.71,1.79,0,3.28-.85,4.38-2.48.94-1.39,1.66-3.48,2.21-6.27h3.41c-.51,3.87-1.49,6.96-2.98,9.44-1.83,2.94-4.17,4.49-7.02,4.49-3.15,0-5.7-1.93-7.58-5.65-1.96-3.87-2.89-8.98-2.89-15.48,0-5.88.89-10.83,2.77-14.78,1.87-4.18,4.38-6.27,7.58-6.27,3.53,0,6.21,2.17,8,6.5ZM394.59,809.05c-1.19,2.32-1.87,5.42-2.09,9.36h13.75c-.43-8.59-2.77-12.84-6.94-12.84-1.96,0-3.53,1.16-4.72,3.48Z"/>
    <path d="M419.66,801.46h5.45v5.18h-5.45v25.46c0,1.47.13,2.55.47,3.17.3.62.85,1.01,1.62,1.01h2.81v5.18h-3.32c-1.79,0-3.11-.85-3.87-2.55-.72-1.55-1.06-3.79-1.06-6.81v-25.46h-4.43v-5.18h4.43v-10.37l3.36-2.55v12.92Z"/>
    <path d="M434.77,801.46h5.45v5.18h-5.45v25.46c0,1.47.13,2.55.47,3.17.3.62.85,1.01,1.62,1.01h2.81v5.18h-3.32c-1.79,0-3.11-.85-3.87-2.55-.72-1.55-1.06-3.79-1.06-6.81v-25.46h-4.43v-5.18h4.43v-10.37l3.36-2.55v12.92Z"/>
    <path d="M461.08,806.88c1.62,3.87,2.47,9.36,2.55,16.33h-17.37c.17,4.49.81,7.97,2,10.45,1.19,2.48,2.85,3.71,4.94,3.71,1.79,0,3.28-.85,4.38-2.48.94-1.39,1.66-3.48,2.21-6.27h3.41c-.51,3.87-1.49,6.96-2.98,9.44-1.83,2.94-4.17,4.49-7.02,4.49-3.15,0-5.7-1.93-7.58-5.65-1.96-3.87-2.89-8.98-2.89-15.48,0-5.88.89-10.83,2.77-14.78,1.87-4.18,4.38-6.27,7.58-6.27,3.53,0,6.21,2.17,8,6.5ZM448.43,809.05c-1.19,2.32-1.87,5.42-2.09,9.36h13.75c-.43-8.59-2.77-12.84-6.94-12.84-1.96,0-3.53,1.16-4.72,3.48Z"/>
    <path d="M476.7,777.47c-1.74,5.11-3.11,10.45-4.04,16.02-1.28,6.81-1.87,13.46-1.87,20.12s.6,13.31,1.87,20.12c.94,5.5,2.3,10.83,4.04,16.02h-2.98c-1.87-5.03-3.32-10.37-4.38-15.94-1.28-6.65-1.87-13.39-1.87-20.12s.6-13.62,1.87-20.28c1.06-5.65,2.51-10.99,4.38-15.94h2.98Z"/>
    <path d="M496.11,780.88l-.17,20.12,19.96-5.26,2.21,2.94c-3.4,10.99-7.53,20.04-12.3,27.24l-2.21-4.41c3.66-5.5,6.85-12.07,9.58-19.66l-17.28,4.72c-.08,9.13-.08,17.49-.08,24.92,0,3.02.6,5.03,1.79,6.11,1.11.93,3.32,1.47,6.55,1.47,3.87,0,8.09-.46,12.64-1.39l-.04,5.65c-4.94.85-9.11,1.32-12.6,1.32-4.43,0-7.45-.77-8.98-2.32-1.83-1.78-2.72-5.34-2.72-10.6,0-7.27,0-15.4.08-24.22l-9.07,2.48-.55-5.57,9.66-2.55c.04-6.65.13-13.62.21-20.97h3.32Z"/>
    <path d="M537.87,819.42l-2.64,2.94c-1.66-5.73-3.45-11.14-5.41-16.25l2.68-2.94c2.13,5.73,3.92,11.14,5.36,16.25ZM556.13,801.7c-1.11,10.91-3.02,19.89-5.79,26.85-3.02,7.35-7.24,12.92-12.6,16.72l-1.79-4.8c5.02-3.64,8.9-8.67,11.62-15.17,2.55-6.19,4.34-14.39,5.36-24.61l3.19,1.01ZM542.89,806.96c.94,2.63,1.75,5.34,2.51,7.97l-2.68,2.86c-1.41-4.87-3.19-10.37-5.41-16.41l2.64-2.79c1.15,3.17,2.13,5.96,2.94,8.36Z"/>
    <path d="M602.83,804.79v5.57h-15.37c-.21,8.28-1.11,15.01-2.64,20.2-1.83,6.04-5.02,11.3-9.58,15.94l-2.21-4.49c4.09-4.03,6.98-8.67,8.64-13.85,1.45-4.49,2.26-10.45,2.43-17.8h-16.26v-5.57h34.99ZM598.06,785.83v5.57h-26.52v-5.57h26.52Z"/>
    <path d="M612.32,777.47c1.83,4.95,3.28,10.29,4.38,15.94,1.23,6.66,1.87,13.39,1.87,20.28s-.64,13.47-1.87,20.12c-1.11,5.57-2.55,10.91-4.38,15.94h-2.98c1.7-5.18,3.06-10.52,4.04-16.02,1.23-6.81,1.87-13.54,1.87-20.12s-.64-13.31-1.87-20.12c-.98-5.57-2.34-10.91-4.04-16.02h2.98Z"/>
    <path d="M635.95,802.31v47.44h-13.62v-5.18h10.51v-42.25h3.11Z"/>
    <path d="M683.02,797.21c.3,2.78.81,5.42,1.49,7.89,3.36-2.32,7.58-4.64,12.6-7.04l1.19,5.26c-6.98,3.25-12.39,6.5-16.13,9.75-5.62,4.72-8.38,9.91-8.38,15.48,0,7.04,4.26,10.6,12.77,10.6,4.17,0,8.38-.54,12.56-1.47l.3,5.73c-4.34.85-8.64,1.32-12.85,1.32-5.49,0-9.53-1.32-12.13-3.87-2.68-2.63-4-6.66-4-12.15,0-7.43,2.89-13.85,8.73-19.35.68-.7,1.45-1.39,2.3-2.01-.85-3.17-1.45-6.66-1.79-10.53-.42-4.1-.68-9.67-.77-16.79l3.28-.15c.08,7.51.38,13.31.85,17.33Z"/>
    <path d="M729.04,811.83c1.41,2.63,2.64,5.34,3.66,7.97l-2.13,3.25c-1.02-2.63-2.26-5.34-3.62-7.97-1.57-3.02-3.15-5.57-4.72-7.74l1.92-3.25c1.62,2.01,3.24,4.64,4.89,7.74Z"/>
    <path d="M783.99,784.67c-3.19,6.35-7.07,12.54-11.58,18.65v42.02h-3.32v-37.76c-5.02,6.11-9.96,11.06-14.85,14.86l-1.75-5.11c5.02-3.87,10.26-9.36,15.79-16.33,5.41-6.96,9.79-13.7,13.2-20.28l2.51,3.95Z"/>
    <path d="M812.18,781.88c-.51,2.63-1.06,5.26-1.75,7.89h14.47l2.04,2.09c-1.11,12.15-3.62,22.91-7.62,32.35-4.21,9.83-9.58,17.1-16.05,21.74l-1.79-5.18c5.79-4.18,10.6-10.29,14.43-18.34.13-.31.26-.54.38-.85-1.19-1.55-2.51-3.17-3.87-4.8-2.3-2.71-4.43-4.95-6.34-6.66l1.96-4.33c1.96,1.86,4.09,4.03,6.3,6.5,1.41,1.55,2.68,3.1,3.87,4.64,2.38-6.5,4.09-13.62,5.02-21.51h-14.47c-.68,2.17-1.45,4.26-2.26,6.34-2.38,5.96-5.06,11.14-8.13,15.55l-2.26-4.02c2.98-4.49,5.62-9.6,7.92-15.32,2.26-5.88,3.92-11.84,5.02-17.88l3.11,1.78Z"/>
    <path d="M846.61,785.6v37.22h-3.36v-37.22h3.36ZM867.09,783.97v25.46c0,9.75-1.23,17.64-3.66,23.53-2.6,6.27-6.68,10.68-12.3,13.31l-1.53-5.34c5.24-2.4,8.98-6.42,11.24-11.99,1.96-4.88,2.94-11.53,2.94-19.89v-25.07h3.32Z"/>
    <path d="M913.1,786.06l1.75,2.86c-1.57,5.57-3.24,10.45-4.98,14.63-2.04,4.72-4.38,8.98-7.02,12.77l-2.34-4.26c4.43-6.35,7.66-13.08,9.75-20.35h-28.3v-5.65h31.16ZM898.8,799.61v10.6c0,8.51-.89,15.55-2.6,21.28-1.87,6.11-4.81,10.91-8.85,14.47l-2.09-4.8c3.58-3.17,6.21-7.12,7.83-11.92,1.57-4.8,2.38-11.14,2.38-19.04v-10.6h3.32Z"/>
    <path d="M957.16,791.71l-7.66.62c-1.28,0-2.94,1.39-4.9,4.18-2.13,2.94-3.92,6.42-5.32,10.45-1.66,4.64-2.47,9.36-2.47,14.09,0,5.42,1.28,9.75,3.87,12.92,2.77,3.25,6.81,5.03,12.17,5.34l-.6,5.34c-6.21-.15-10.94-2.32-14.13-6.5-3.07-3.95-4.6-9.52-4.6-16.72,0-6.19,1.11-12.07,3.36-17.49,1.83-4.64,4.17-8.44,7.07-11.38-6.3.93-13.2,2.01-20.6,3.41l-.43-5.49c13.62-2.4,24.99-3.72,34.14-3.95l.08,5.18ZM954.44,813.3l-1.83,2.32c-1.28-3.87-2.77-7.27-4.47-10.37l1.7-2.48c1.83,3.25,3.36,6.73,4.6,10.52ZM958.52,807.96l-1.83,2.4c-1.28-3.87-2.77-7.35-4.43-10.37l1.66-2.4c1.87,3.33,3.41,6.81,4.6,10.37Z"/>
    <path d="M967.8,830.17c-.26,6.66-.89,12.61-1.83,17.72l-2.64-1.47c1.02-4.87,1.62-10.45,1.87-16.79l2.6.54ZM978.66,824.06l-2.43,1.16c-.21-1.55-.43-3.1-.68-4.57-3.7,2.09-7.28,3.48-10.73,4.26l-.77-4.88c.51-.39.94-.85,1.32-1.47,1.45-2.79,3.24-7.35,5.36-13.7-2.13.77-4.3,1.47-6.43,2.09l-.72-4.95c.47-.39.89-1.08,1.23-2.01,2.13-6.42,3.92-13.78,5.45-22.06l2.77,2.01c-2,9.05-4,16.25-6.05,21.67,1.79-.39,3.53-.93,5.28-1.55.94-3.1,1.91-6.42,2.94-9.91l2.64,1.78c-3.92,13-7.11,22.13-9.58,27.39,2.21-.77,4.38-1.7,6.55-2.86-.42-2.32-.85-4.64-1.36-6.81l2.3-1.32c1.06,4.57,2.04,9.83,2.89,15.71ZM973.81,844.72l-2.64,1.16c-.38-6.04-.85-11.3-1.36-15.94l2.43-.93c.55,4.8,1.06,10.06,1.57,15.71ZM979.17,840.62l-2.51,1.16c-.6-4.72-1.4-9.21-2.34-13.54l2.26-1.32c.94,4.02,1.83,8.59,2.6,13.7ZM994.83,802v-5.65h-13.45v-4.64h13.45v-5.73h-13.96v-4.95h16.81v20.97h4.09v4.95h-10.81c-.34.7-.64,1.39-.98,2.01,1.36,2.79,2.34,6.35,3.02,10.68,2.04-2.24,4-5.57,5.87-10.06l2,3.64c-1.75,4.03-3.66,7.2-5.79,9.52,1.58,6.89,4.13,12.38,7.62,16.56l-2.04,4.41c-3.06-4.64-5.36-10.29-6.89-16.95.13,2.4.21,4.88.21,7.51,0,5.65-.6,9.6-1.79,11.84-.85,1.32-2.17,2.01-3.87,2.01-1.23,0-2.21-.08-2.98-.15l-.81-4.95c.94.23,1.96.39,3.06.39,1.28,0,2.17-.54,2.68-1.47.6-1.32.94-4.02.98-8.05,0-1.63-.04-3.1-.08-4.49-2.77,5.65-6.38,10.29-10.81,14.01l-1.49-4.72c5.15-3.87,9.11-8.82,11.92-14.93-.21-1.7-.42-3.17-.68-4.49-2.34,4.64-5.41,8.43-9.19,11.38l-1.36-4.33c4.04-2.94,7.24-6.58,9.53-11.06-.38-1.16-.77-2.17-1.19-3.02-1.96,2.55-4.43,4.87-7.32,6.96l-1.49-4.26c4-2.4,6.94-5.03,8.77-7.97h-9.79v-4.95h16.77Z"/>
    <path d="M1017.99,778.01v10.52h6.68v5.11h-6.68v11.38h7.24v5.11h-6.43v10.91h6.04v5.11h-6.04v14.63c2.68,1.24,7.75,1.93,15.19,1.93,4.94,0,8.6-.15,11.02-.39l-.51,5.42h-9.83c-9.79,0-15.92-1.08-18.39-3.17-2.13-1.86-4-5.03-5.62-9.6-.64,5.11-1.49,9.83-2.55,14.24l-2.34-3.79c2.13-8.98,3.28-19.11,3.53-30.34l2.72.54c-.08,4.57-.34,8.9-.68,13.08,1.36,4.33,2.85,7.58,4.51,9.6v-28.17h-8.81v-5.11h7.87v-11.38h-7.07v-5.11h7.07v-10.52h3.06ZM1042.12,808.66h-11.58v18.34c0,1.86.6,2.86,1.87,2.86h6.04c.98-.08,1.66-.85,2.04-2.32.3-1.24.55-4.26.72-9.13l2.89,1.7c-.26,4.72-.55,8.13-.94,10.14-.64,3.1-1.92,4.72-3.83,4.87h-8.09c-2.51,0-3.75-2.09-3.75-6.19v-45.66h14.6v25.38ZM1039.19,803.55v-15.24h-8.64v15.24h8.64Z"/>
    <path d="M1080.86,795.35c3.07,5.26,4.64,11.76,4.64,19.5,0,8.67-1.45,15.4-4.26,20.35-2.55,4.49-6.55,7.74-11.96,9.75l-1.06-5.26c5.07-1.78,8.73-4.8,10.98-8.98,2.04-3.87,3.11-9.21,3.11-15.86s-1.32-11.76-3.96-15.94c-2.38-3.79-5.19-5.88-8.43-6.19l-.89,14.39c-.64,7.97-1.53,14.47-2.68,19.5-1.87,8.67-4.38,13-7.45,13-2.47,0-4.51-2.01-6.09-6.04-1.53-3.87-2.26-8.67-2.26-14.24,0-8.67,1.62-16.02,4.85-22.13,3.45-6.66,7.96-9.91,13.54-9.91,4.77,0,8.72,2.63,11.92,8.05ZM1064.99,815.55c.85-6.89,1.49-14.47,1.83-22.67-3.36.62-6.26,3.1-8.64,7.27-2.98,5.11-4.43,11.53-4.43,19.19,0,4.33.51,7.89,1.53,10.76.94,2.78,2.17,4.18,3.62,4.18,2.47,0,4.51-6.27,6.09-18.73Z"/>
    <path d="M1097.81,789.24c-.55,6.65-.81,13.54-.81,20.51,0,8.43.64,15.24,1.96,20.51,1.19,4.64,2.6,7.04,4.3,7.04,1.11,0,2.13-2.09,3.07-6.27.6-2.63,1.06-5.65,1.4-8.9l3.28,1.39c-.72,5.88-1.66,10.45-2.81,13.78-1.36,3.95-2.98,5.96-4.85,5.96-3.07,0-5.45-3.17-7.19-9.52-1.7-6.11-2.51-14.08-2.51-23.99,0-6.96.26-14.01.85-21.2l3.32.7ZM1129.56,831.8l-3.32.31c-.51-17.18-2.89-30.34-7.19-39.62l2.68-3.64c4.68,10.29,7.32,24.61,7.83,42.95Z"/>
    <path d="M1140.37,789.24c-.55,6.65-.81,13.54-.81,20.51,0,8.43.64,15.24,1.96,20.51,1.19,4.64,2.6,7.04,4.3,7.04,1.11,0,2.13-2.09,3.06-6.27.6-2.63,1.06-5.65,1.41-8.9l3.28,1.39c-.72,5.88-1.66,10.45-2.81,13.78-1.36,3.95-2.98,5.96-4.85,5.96-3.07,0-5.45-3.17-7.19-9.52-1.7-6.11-2.51-14.08-2.51-23.99,0-6.96.26-14.01.85-21.2l3.32.7ZM1172.13,831.8l-3.32.31c-.51-17.18-2.89-30.34-7.19-39.62l2.68-3.64c4.68,10.29,7.32,24.61,7.83,42.95Z"/>
    <path d="M1187.28,814.54c-.3,1.55-.6,3.02-.94,4.56h9.07v4.57c-.94,5.11-2.51,9.52-4.72,13.23,2,1.7,3.96,3.48,5.87,5.42l-1.62,4.33c-1.87-2.09-4.09-4.18-6.6-6.35-2.85,3.56-6.43,6.5-10.77,8.67l-1.45-4.64c3.62-1.7,6.68-3.87,9.19-6.5-1.92-1.55-3.96-3.02-6.13-4.57,1.11-3.25,2.04-6.34,2.89-9.29h-4.98v-4.88h6.21c.43-1.86.77-3.56,1.11-5.18l2.85.62ZM1185.67,793.11v-14.78h2.81v14.78h7.7v4.87h-7.7v1.39c2.25,2.24,4.51,4.8,6.77,7.66l-1.57,4.33c-2-3.33-3.75-5.96-5.19-7.89v9.44h-2.81v-12.92c-1.62,5.42-4.21,10.14-7.87,14.16l-1.57-4.56c3.66-3.41,6.21-7.27,7.66-11.61h-6.6v-4.87h8.38ZM1183.33,788.77l-2.21,1.78c-.89-3.71-1.87-6.96-2.89-9.83l2.47-1.47c1.02,2.94,1.87,6.11,2.64,9.52ZM1192.6,823.98h-7.45c-.68,2.48-1.45,4.87-2.25,7.12,1.7,1.08,3.36,2.24,4.98,3.56,2.13-3.1,3.7-6.65,4.72-10.68ZM1195.92,780.88c-.85,3.33-1.96,6.58-3.28,9.75l-2.17-2.01c1.28-3.25,2.34-6.5,3.15-9.67l2.3,1.93ZM1197.29,815.16l-1.87-4.26c2.81-8.05,4.68-19.04,5.66-32.81l2.94.93c-.34,3.95-.72,7.66-1.15,11.07h11.96v5.34h-3.11c-.21,13.08-1.57,24.22-4.04,33.51,2.17,6.11,4.77,11.53,7.75,16.25l-1.96,4.18c-2.85-4.57-5.32-9.6-7.36-15.17-2.09,6.04-4.68,11.07-7.83,15.25l-1.62-4.72c3.23-4.03,5.83-9.13,7.79-15.32-2-6.19-3.58-13-4.77-20.43l2.38-2.48c1.02,6.19,2.3,12,3.92,17.26,1.83-7.97,2.81-17.41,2.98-28.32h-6.81c-1.23,7.89-2.85,14.47-4.85,19.73Z"/>
    <path d="M1249.64,799.92v5.18c-2.77,3.56-5.87,6.96-9.28,10.37v5.18h16.77v5.42h-16.77v16.41c0,4.26-1.23,6.42-3.7,6.42h-5.24l-.72-5.11c1.49.08,3.11.15,4.9.15,1.11,0,1.66-1.16,1.66-3.41v-14.47h-17.79v-5.42h17.79v-7.58c3.45-3.25,6.05-5.96,7.79-7.97h-18.26v-5.18h22.86ZM1256.33,803.48h-3.06v-11.92h-29.97v11.92h-3.06v-17.26h16.73c-.6-2.78-1.23-5.26-1.92-7.51l3.49-1.08c.6,2.55,1.19,5.42,1.75,8.59h16.05v17.26Z"/>
    <path d="M1278.97,797.21c.3,2.78.81,5.42,1.49,7.89,3.36-2.32,7.58-4.64,12.6-7.04l1.19,5.26c-6.98,3.25-12.39,6.5-16.13,9.75-5.62,4.72-8.38,9.91-8.38,15.48,0,7.04,4.26,10.6,12.77,10.6,4.17,0,8.38-.54,12.56-1.47l.3,5.73c-4.34.85-8.64,1.32-12.85,1.32-5.49,0-9.53-1.32-12.13-3.87-2.68-2.63-4-6.66-4-12.15,0-7.43,2.89-13.85,8.73-19.35.68-.7,1.45-1.39,2.3-2.01-.85-3.17-1.45-6.66-1.79-10.53-.42-4.1-.68-9.67-.77-16.79l3.28-.15c.08,7.51.38,13.31.85,17.33Z"/>
    <path d="M1322.61,788.07c-.68-3.1-1.45-6.04-2.34-8.82l3.19-1.62c.94,3.4,1.66,6.5,2.17,9.28l-1.7,1.16h18.6v5.26h-38.18v-5.26h18.26ZM1337.72,849.36h-2.98v-3.72h-22.64v3.72h-2.98v-25h28.6v25ZM1337.04,800.07v5.03h-27.2v-5.03h27.2ZM1337.04,811.91v5.03h-27.2v-5.03h27.2ZM1334.74,840.39v-10.76h-22.64v10.76h22.64Z"/>
    <path d="M1382.24,801.85c2.09,4.33,3.15,9.83,3.15,16.41,0,7.35-1.45,13.31-4.3,17.95-2.94,4.64-7.19,7.51-12.77,8.67l-1.15-5.34c4.94-.93,8.68-3.33,11.28-7.04,2.47-3.72,3.7-8.44,3.7-14.24,0-5.11-.77-9.36-2.3-12.77-1.7-3.64-4.04-5.42-6.94-5.42-3.75,0-7.87,3.33-12.39,10.06-.47.62-.94,1.39-1.45,2.24-.17,13.7-.26,25-.26,33.97h-3.11c0-9.05.04-18.5.17-28.4-2.04,3.72-4.34,8.36-6.85,13.78l-2.38-3.71c3.58-7.74,6.68-13.93,9.36-18.42l.17-11.53-7.49.85-.17-5.34,7.75-.93.17-12.92,3.11.08c-.08,3.1-.13,7.35-.17,12.61l1.32,2.17-1.45,5.65c-.04,1.47-.04,2.94-.04,4.41,4.68-6.81,9.28-10.14,13.71-10.14,3.92,0,7.02,2.4,9.32,7.35Z"/>
    <path d="M1419.62,794.42c1.11,2.09,1.7,4.95,1.7,8.67,0,2.63-.26,7.35-.68,14.01-.55,7.66-.81,12.61-.81,14.78,0,3.56.68,5.42,2.04,5.42,1.53,0,3.11-2.4,4.64-7.2l2.6,3.4c-1.15,3.1-2.17,5.34-3.06,6.73-1.28,1.7-2.68,2.55-4.21,2.55-3.53,0-5.28-3.64-5.28-10.91,0-1.7.25-6.66.85-14.78.47-6.96.72-11.69.72-14.01,0-4.33-1.19-6.5-3.53-6.5-3.02,0-6.89,3.95-11.58,12-.43.7-.89,1.47-1.32,2.32-.21,14.55-.3,26.31-.3,35.44h-3.11c0-8.36.04-18.11.17-29.25-2,4.02-4.17,8.74-6.47,14.24l-2.55-3.64c3.19-7.58,6.26-13.93,9.15-19.19l.17-10.45-7.49.85-.17-5.34,7.75-.85.17-13,3.11.08c-.08,3.02-.13,7.27-.17,12.69l1.36,2.09-1.49,5.65c0,.93-.04,1.94-.04,2.86l.08-.15c4.94-7.89,9.19-11.76,12.73-11.76,2.17,0,3.83,1.08,5.02,3.25Z"/>
    <path d="M1467.97,791.71l-7.66.62c-1.28,0-2.94,1.39-4.9,4.18-2.13,2.94-3.92,6.42-5.32,10.45-1.66,4.64-2.47,9.36-2.47,14.09,0,5.42,1.28,9.75,3.87,12.92,2.77,3.25,6.81,5.03,12.17,5.34l-.6,5.34c-6.21-.15-10.94-2.32-14.13-6.5-3.07-3.95-4.6-9.52-4.6-16.72,0-6.19,1.11-12.07,3.36-17.49,1.83-4.64,4.17-8.44,7.07-11.38-6.3.93-13.2,2.01-20.6,3.41l-.43-5.49c13.62-2.4,24.99-3.72,34.14-3.95l.08,5.18Z"/>
    <path d="M1480.92,789.24c-.55,6.65-.81,13.54-.81,20.51,0,8.43.64,15.24,1.96,20.51,1.19,4.64,2.6,7.04,4.3,7.04,1.11,0,2.13-2.09,3.06-6.27.6-2.63,1.06-5.65,1.41-8.9l3.28,1.39c-.72,5.88-1.66,10.45-2.81,13.78-1.36,3.95-2.98,5.96-4.85,5.96-3.07,0-5.45-3.17-7.19-9.52-1.7-6.11-2.51-14.08-2.51-23.99,0-6.96.26-14.01.85-21.2l3.32.7ZM1512.67,831.8l-3.32.31c-.51-17.18-2.89-30.34-7.19-39.62l2.68-3.64c4.68,10.29,7.32,24.61,7.83,42.95Z"/>
    <path d="M1546.94,787.84c-4.51,6.81-9.79,14.86-15.83,24.3,3.32-3.56,6.47-5.26,9.45-5.26,3.53,0,6.3,1.55,8.3,4.64,1.96,3.1,2.94,7.27,2.94,12.69,0,6.04-1.49,10.91-4.38,14.63-2.98,3.71-6.68,5.57-11.11,5.57-2.89,0-5.19-1.01-6.9-3.02-1.7-2.09-2.51-4.8-2.51-8.2,0-3.1.6-5.65,1.83-7.66,1.28-2.24,2.98-3.33,5.11-3.33,2.89,0,5.15,1.62,6.81,5.03,1.23,2.4,2.13,5.65,2.64,9.67l1.06-1.01c2.85-2.94,4.3-6.89,4.3-11.69,0-4.1-.81-7.2-2.34-9.29-1.45-1.94-3.45-2.86-6.09-2.86-3.02,0-6.17,1.39-9.49,4.18-2.85,2.48-5.49,5.65-7.88,9.6l-2.04-3.95,20.86-32.97-17.54,1.55-.17-5.42,21.2-1.24,1.79,4.02ZM1540.17,837.14c-.98-6.58-3.11-9.83-6.34-9.83-1.19,0-2.13.54-2.81,1.7-.72,1.08-1.06,2.48-1.06,4.1s.43,3.02,1.36,4.18c1.11,1.39,2.77,2.09,4.98,2.09,1.45,0,2.77-.31,4.04-.77-.08-.62-.13-1.08-.17-1.47Z"/>
    <path d="M1577.76,789.62c1.62,2.71,2.47,6.11,2.47,10.14,0,2.94-.38,5.42-1.15,7.43-.85,2.17-2.04,3.79-3.62,4.8v.15c1.58.7,2.94,2.32,4.04,4.8,1.19,2.63,1.79,5.73,1.79,9.29,0,4.87-.94,8.82-2.81,11.76-1.96,3.02-4.68,4.57-8.17,4.57s-6.26-1.55-8.17-4.57c-1.87-2.94-2.81-6.89-2.81-11.76,0-3.56.6-6.66,1.79-9.29,1.11-2.48,2.43-4.1,4.04-4.8v-.15c-1.62-1.01-2.81-2.63-3.62-4.8-.77-2.01-1.15-4.49-1.15-7.43,0-4.02.81-7.43,2.47-10.14,1.79-3.02,4.26-4.49,7.45-4.49s5.66,1.47,7.45,4.49ZM1564.65,818.18c-1.28,2.01-1.87,4.72-1.87,8.05s.6,5.96,1.87,7.97c1.28,2.09,3.19,3.17,5.66,3.17s4.34-1.08,5.7-3.25c1.19-2.01,1.83-4.64,1.83-7.89s-.64-6.04-1.83-8.05c-1.36-2.24-3.28-3.33-5.7-3.33s-4.34,1.08-5.66,3.33ZM1565.25,793.34c-1.06,1.7-1.58,3.95-1.58,6.65s.47,5.11,1.41,6.81c1.11,2.01,2.85,3.1,5.24,3.1s4.09-1.08,5.24-3.1c.94-1.7,1.4-4.02,1.4-6.81s-.55-4.95-1.57-6.65c-1.23-2.01-2.94-3.02-5.06-3.02s-3.87,1.01-5.06,3.02Z"/>
    <path d="M1624.37,777.47v5.18h-10.51v42.25h-3.11v-47.44h13.62Z"/>
    <path d="M1645.99,806.57c1.87,3.95,2.81,8.9,2.81,14.94s-.94,10.91-2.77,14.78c-2,4.18-4.64,6.27-7.92,6.27s-5.92-2.09-7.87-6.27c-1.87-3.87-2.81-8.82-2.81-14.78s.94-10.99,2.81-14.94c1.96-4.18,4.55-6.19,7.87-6.19s5.92,2.01,7.88,6.19ZM1632.67,810.44c-1.19,2.94-1.75,6.58-1.75,11.07s.55,8.05,1.75,10.99c1.28,3.25,3.11,4.87,5.45,4.87s4.13-1.63,5.49-4.87c1.15-2.94,1.75-6.66,1.75-10.99s-.6-8.13-1.75-11.07c-1.36-3.25-3.19-4.87-5.49-4.87s-4.17,1.62-5.45,4.87Z"/>
    <path d="M1659.11,801.46h5.45v5.18h-5.45v25.46c0,1.47.13,2.55.47,3.17.3.62.85,1.01,1.62,1.01h2.81v5.18h-3.32c-1.79,0-3.11-.85-3.87-2.55-.72-1.55-1.06-3.79-1.06-6.81v-25.46h-4.43v-5.18h4.43v-10.37l3.36-2.55v12.92Z"/>
    <path d="M1674.22,801.46h5.45v5.18h-5.45v25.46c0,1.47.13,2.55.47,3.17.3.62.85,1.01,1.62,1.01h2.81v5.18h-3.32c-1.79,0-3.11-.85-3.87-2.55-.72-1.55-1.06-3.79-1.06-6.81v-25.46h-4.43v-5.18h4.43v-10.37l3.36-2.55v12.92Z"/>
    <path d="M1701.16,806.57c1.87,3.95,2.81,8.9,2.81,14.94s-.94,10.91-2.77,14.78c-2,4.18-4.64,6.27-7.92,6.27s-5.92-2.09-7.87-6.27c-1.87-3.87-2.81-8.82-2.81-14.78s.94-10.99,2.81-14.94c1.96-4.18,4.55-6.19,7.87-6.19s5.92,2.01,7.88,6.19ZM1687.84,810.44c-1.19,2.94-1.75,6.58-1.75,11.07s.55,8.05,1.75,10.99c1.28,3.25,3.11,4.87,5.45,4.87s4.13-1.63,5.49-4.87c1.15-2.94,1.75-6.66,1.75-10.99s-.6-8.13-1.75-11.07c-1.36-3.25-3.19-4.87-5.49-4.87s-4.17,1.62-5.45,4.87Z"/>
    <path d="M1717.47,777.47c-1.74,5.11-3.11,10.45-4.04,16.02-1.28,6.81-1.87,13.46-1.87,20.12s.6,13.31,1.87,20.12c.94,5.5,2.3,10.83,4.04,16.02h-2.98c-1.87-5.03-3.32-10.37-4.38-15.94-1.28-6.65-1.87-13.39-1.87-20.12s.6-13.62,1.87-20.28c1.06-5.65,2.51-10.99,4.38-15.94h2.98Z"/>
    <path d="M1748.62,781.03v13.93h9.75v5.57h-9.75v36.53c0,5.57-1.66,8.36-4.89,8.36-1.49,0-3.41-.31-5.75-.77v-5.57c2.47.62,4.3,1.01,5.58,1.01,1.11,0,1.7-1.08,1.7-3.17v-30.49c-1.28,4.64-3.83,10.29-7.66,17.02-3.79,6.66-7.45,11.92-11.02,15.86l-2.13-4.8c3.83-4.33,7.49-9.36,10.9-15.17,3.58-6.11,6.51-12.38,8.85-18.8h-18.81v-5.57h19.88v-13.93h3.36Z"/>
    <path d="M1778.64,819.42l-2.64,2.94c-1.66-5.73-3.45-11.14-5.41-16.25l2.68-2.94c2.13,5.73,3.92,11.14,5.36,16.25ZM1796.9,801.7c-1.11,10.91-3.02,19.89-5.79,26.85-3.02,7.35-7.24,12.92-12.6,16.72l-1.79-4.8c5.02-3.64,8.9-8.67,11.62-15.17,2.55-6.19,4.34-14.39,5.36-24.61l3.19,1.01ZM1783.66,806.96c.94,2.63,1.75,5.34,2.51,7.97l-2.68,2.86c-1.41-4.87-3.19-10.37-5.41-16.41l2.64-2.79c1.15,3.17,2.13,5.96,2.94,8.36Z"/>
    <path d="M1822.01,781.11v24.53c3.19,1.01,6.6,2.63,10.17,4.8,3.32,1.93,6.43,4.18,9.32,6.73l-1.45,5.11c-2.64-2.32-5.53-4.41-8.6-6.27-3.36-2.01-6.51-3.56-9.45-4.49v34.75h-3.36v-65.16h3.36Z"/>
    <path d="M1853.09,777.47c1.83,4.95,3.28,10.29,4.38,15.94,1.23,6.66,1.87,13.39,1.87,20.28s-.64,13.47-1.87,20.12c-1.11,5.57-2.55,10.91-4.38,15.94h-2.98c1.7-5.18,3.06-10.52,4.04-16.02,1.23-6.81,1.87-13.54,1.87-20.12s-.64-13.31-1.87-20.12c-.98-5.57-2.34-10.91-4.04-16.02h2.98Z"/>
    <path d="M1876.71,802.31v47.44h-13.62v-5.18h10.51v-42.25h3.11Z"/>
    <path d="M1939.03,793.57c-4.3.85-9.79,1.32-16.51,1.47-1.53,4.88-3.15,8.98-4.81,12.38,2.26-3.25,4.51-4.8,6.77-4.8s3.83,1.47,4.94,4.41c.26.77.51,1.63.72,2.55,2.98-1.94,6.43-3.79,10.34-5.57l.89,5.26c-3.92,1.63-7.45,3.48-10.55,5.57.08,1.16.13,2.4.13,3.79v13.39h-3.02v-12.54c0-.93-.04-1.78-.04-2.55-.47.31-.89.7-1.32,1.08-5.28,4.41-7.92,8.98-7.92,13.62,0,2.86.94,4.95,2.89,6.27,1.58,1.01,3.87,1.55,6.94,1.55,3.83,0,7.49-.62,10.98-1.7l.3,5.42c-3.7,1.08-7.45,1.63-11.28,1.63-4.09,0-7.19-.93-9.32-2.78-2.47-2.17-3.7-5.65-3.7-10.37,0-6.27,2.68-11.92,8.13-16.95,1.11-1.08,2.34-2.09,3.7-3.1-.68-2.86-1.79-4.26-3.32-4.26-3.66,0-7.79,4.87-12.39,14.63l-2.21-3.72c3.32-6.65,6-12.69,8-18.11.6-1.7,1.15-3.41,1.75-5.11-2.21,0-5.24-.08-8.98-.15l.04-5.26c3.66,0,7.19.08,10.51.08.85-3.25,1.66-6.58,2.43-10.06l2.85,2.01c-.64,2.78-1.28,5.49-1.92,8.05,6.13-.15,11.02-.54,14.77-1.32l.21,5.18Z"/>
    <path d="M1969.64,781.26v5.26h-3.19v62.68h-2.98v-12.69c-4.3,1.7-8.9,3.17-13.75,4.33l-.72-5.5c1.28-.31,2.55-.54,3.75-.85v-47.98h-3.36v-5.26h20.26ZM1963.47,798.44v-11.92h-7.75v11.92h7.75ZM1963.47,815.24v-11.69h-7.75v11.69h7.75ZM1963.47,830.95v-10.68h-7.75v13.46c2.64-.77,5.24-1.7,7.75-2.78ZM1971.34,790.86h-1.66v-5.42h16.39v5.11c-.94,14.32-2.85,26.54-5.79,36.68,2.04,6.35,4.55,12.15,7.58,17.49l-2.04,4.26c-2.81-5.26-5.19-10.83-7.15-16.72-2.3,6.58-5.02,12.15-8.22,16.72l-2.09-4.33c3.49-4.95,6.34-10.91,8.6-17.88-3.15-10.99-5.02-22.91-5.62-35.91ZM1974.15,790.86c.51,11.14,1.96,21.28,4.43,30.41,2.3-8.82,3.87-18.96,4.64-30.41h-9.07Z"/>
    <path d="M2002.8,785.29c-.51,2.94-.98,6.73-1.36,11.3-.38,4.64-.55,8.59-.55,11.76,0,4.95.26,8.82.85,11.45.43-3.87,1.11-7.2,2.13-10.14l2.6,2.24c-1.36,4.02-2.43,8.9-3.19,14.63l-2.64.85c-1.06-2.17-1.83-5.18-2.34-9.13-.42-3.1-.6-6.42-.6-9.91,0-4.33.21-8.82.64-13.46.34-4.18.81-7.89,1.41-11.22l3.06,1.63ZM2023.91,807.42c0,9.98-1.15,17.95-3.4,23.99-2.21,5.88-6,10.91-11.28,15.17l-1.83-4.95c4.85-3.71,8.3-8.05,10.26-13.15,1.96-5.11,2.94-12.15,2.94-21.05,0-8.36-.51-15.79-1.53-22.29l3.19-1.39c1.11,6.81,1.66,14.7,1.66,23.68Z"/>
    <path d="M2046.05,786.84v-5.42h8.68c1.19,23.6,7.15,44.34,17.88,62.14l-1.75,4.8c-9.02-14.7-14.81-31.73-17.32-51.07-3.02,21.98-8.98,38.93-17.83,50.84l-1.83-4.72c9.62-12.92,15.79-31.8,18.51-56.57h-6.34Z"/>
    <path d="M2107,794.42c1.11,2.09,1.7,4.95,1.7,8.67,0,2.63-.26,7.35-.68,14.01-.55,7.66-.81,12.61-.81,14.78,0,3.56.68,5.42,2.04,5.42,1.53,0,3.11-2.4,4.64-7.2l2.6,3.4c-1.15,3.1-2.17,5.34-3.06,6.73-1.28,1.7-2.68,2.55-4.21,2.55-3.53,0-5.28-3.64-5.28-10.91,0-1.7.25-6.66.85-14.78.47-6.96.72-11.69.72-14.01,0-4.33-1.19-6.5-3.53-6.5-3.02,0-6.89,3.95-11.58,12-.43.7-.89,1.47-1.32,2.32-.21,14.55-.3,26.31-.3,35.44h-3.11c0-8.36.04-18.11.17-29.25-2,4.02-4.17,8.74-6.47,14.24l-2.55-3.64c3.19-7.58,6.26-13.93,9.15-19.19l.17-10.45-7.49.85-.17-5.34,7.75-.85.17-13,3.11.08c-.08,3.02-.13,7.27-.17,12.69l1.36,2.09-1.49,5.65c0,.93-.04,1.94-.04,2.86l.08-.15c4.94-7.89,9.19-11.76,12.73-11.76,2.17,0,3.83,1.08,5.02,3.25Z"/>
    <path d="M2154.42,794.96c-4.72.31-9.28.54-13.66.7.04,4.02.08,7.66.17,10.99,4.17-.08,8.38-.23,12.64-.46v5.34c-4.09.15-8.26.23-12.56.31.08,5.34.13,9.6.13,12.77.89.62,1.79,1.24,2.72,2.01,3.66,2.86,7.19,6.73,10.6,11.61l-1.96,4.41c-3.19-4.57-6.38-8.2-9.62-10.99-.64-.54-1.28-1.01-1.87-1.47-.26,4.02-.89,7.27-1.92,9.67-1.53,3.48-3.96,5.26-7.28,5.26-2.38,0-4.38-1.01-5.92-2.86-1.75-2.09-2.6-5.03-2.6-8.82s.85-6.81,2.64-8.98c1.53-2.01,3.49-2.94,5.96-2.94,1.92,0,3.92.46,6,1.39l-.13-10.99h-4.13c-1.91,0-4.81-.08-8.64-.23l-1.19-.08v-5.26c.85,0,2.13.08,3.83.15,2.3.16,4.3.23,5.96.23h4.13c-.08-3.33-.13-6.96-.17-10.99h-3.36c-2,0-4.17-.08-6.51-.08l-4.43-.23-.04-5.26,4.47.23c2.3.08,4.47.15,6.51.15h3.28l-.17-10.21,3.15-.16c.09,3.56.13,7.04.21,10.29,4.09-.16,8.68-.46,13.75-.85v5.34ZM2131.91,826.54c-1.53,0-2.81.54-3.83,1.78-1.11,1.24-1.66,2.94-1.66,5.11s.51,3.71,1.62,4.87c.94,1.08,2.21,1.63,3.79,1.63,2.17,0,3.79-1.24,4.81-3.56.81-1.94,1.23-4.64,1.32-8.2-2.13-1.08-4.13-1.63-6.05-1.63Z"/>
    <path d="M2173.07,782.04v43.26c0,9.44,2.77,14.16,8.34,14.16,6.21,0,10.98-8.36,14.39-25l3.15,2.17c-1.7,8.2-3.66,14.63-5.96,19.19-3.15,6.27-7.02,9.44-11.58,9.44-7.83,0-11.7-6.42-11.7-19.19v-44.03h3.36Z"/>
    <path d="M2228.19,795.66c-3.06.7-6.64,1.24-10.73,1.7-.6,5.57-1.28,11.07-1.96,16.33-1.62,12.15-3.41,22.6-5.36,31.34l-3.11-1.93c1.96-8.59,3.75-18.81,5.36-30.72.6-4.8,1.19-9.75,1.75-14.7-2.6.15-5.36.31-8.3.39l-.13-5.5c3.15,0,6.13-.15,8.98-.31.43-4.33.81-8.67,1.15-13.08l3.28.77c-.34,4.02-.72,8.05-1.11,12,3.49-.39,6.68-.93,9.66-1.63l.51,5.34ZM2225.13,824.06c-1.36,3.41-2.04,6.27-2.04,8.74,0,2.01.81,3.64,2.47,4.72,1.53,1.01,3.66,1.55,6.47,1.55,3.15,0,6.05-.46,8.6-1.39l.08,5.49c-2.47.77-5.36,1.24-8.68,1.24-8.13,0-12.17-3.72-12.17-11.07,0-3.87.81-7.82,2.51-12l2.77,2.71ZM2240.15,808.43c-6,0-12.09.46-18.3,1.47l-.17-5.57c6.21-.93,12.34-1.39,18.47-1.39v5.5Z"/>
    <path d="M2252.37,833.66c.51.93.77,2.01.77,3.41,0,1.32-.26,2.4-.77,3.33s-1.15,1.39-1.83,1.39c-.77,0-1.36-.46-1.83-1.39-.51-.93-.77-2.01-.77-3.33,0-1.39.26-2.48.77-3.41.47-.93,1.06-1.39,1.83-1.39.68,0,1.32.46,1.83,1.39Z"/>
  </g>
  <rect class="st0" x="2513.5" y="1074.43" width="0" height="2.35"/>
</svg>