<?xml version="1.0" encoding="UTF-8"?>
<svg id="_レイヤー_1" data-name="レイヤー_1" xmlns="http://www.w3.org/2000/svg" version="1.1" viewBox="0 0 14185.38 5601.87">
  <!-- Generator: Adobe Illustrator 29.8.1, SVG Export Plug-In . SVG Version: 2.1.1 Build 2)  -->
  <defs>
    <style>
      .st0 {
        fill: none;
      }
    </style>
  </defs>
  <rect class="st0" x="9038.62" y="1861.87" width="0" height="2.35"/>
  <rect class="st0" x="6789.57" y="1718.53" width="18.07" height="0"/>
  <g>
    <path d="M4177.81,909.37c9.12,5.31,14.09,9.74,14.09,15.05s-2.9,8.85-8.29,9.74c-4.14,1.77-6.63,4.43-7.46,7.08l-.41,1.77c25.28,91.19,51.79,156.7,79.14,195.66,30.25,46.92,60.5,79.68,90.74,97.39l-2.07,10.62c-9.94,5.31-16.57,16.82-20.3,33.64-2.49,12.39-4.56,17.71-6.63,17.71-5.8,0-19.06-16.82-40.19-51.35-21.96-34.53-42.68-77.91-62.57-131.03-18.65-49.58-33.15-100.93-43.92-152.28-21.55,72.6-43.92,131.03-67.95,177.07-29.83,63.74-68.78,125.72-117.68,185.03l-4.56-11.51c29.83-43.38,62.57-104.47,97.37-182.38,28.59-63.74,53.87-142.54,76.24-238.15,9.12,7.08,17.4,12.39,24.45,15.94ZM4075.05,1383.02h174.03c2.49-5.31,5.8-11.51,10.36-19.48,4.14-6.2,7.04-9.74,8.29-9.74,2.07,0,6.63,6.2,13.67,18.59,9.12,18.59,14.09,30.99,14.09,38.07,0,6.2-2.9,10.62-7.87,13.28-5.39,3.54-9.12,9.74-11.6,18.59l-81.21,249.66c-1.24,7.97-3.31,12.39-5.8,13.28-2.49,0-5.39.89-8.7.89-2.49,0-5.8-1.77-10.36-5.31-2.9-1.77-4.14-5.31-4.14-8.85l84.94-285.08h-175.69c-14.92,0-29,2.66-42.26,6.2l-7.87-38.07c17.4,5.31,33.98,7.97,50.14,7.97ZM4176.15,1229.86c10.36,18.59,15.75,36.3,15.75,53.12,0,10.62-1.66,21.25-4.56,31.87-3.31,9.74-6.63,14.17-10.36,14.17-8.29,0-14.09-12.4-17.4-37.18-7.87-44.27-19.89-82.34-35.63-112.44l4.14-8.85c22.38,20.36,38.54,39.84,48.06,59.32Z"/>
    <path d="M4451.69,971.34h251.1l12.02-23.02c4.14-8.85,7.46-13.28,9.12-13.28,2.49,0,7.46,6.2,14.09,16.82,7.87,15.05,12.02,25.67,12.02,30.99,0,3.54-2.49,8.85-7.04,14.17-4.56,5.31-6.63,9.74-6.63,15.05v574.58l2.07,92.07c0,5.31-2.07,8.85-5.39,12.39-5.8,2.66-10.77,4.43-14.92,4.43s-6.22-5.31-6.22-14.17v-69.94h-261.87v70.83c0,4.43-1.66,8.85-4.97,12.39-5.39,2.66-9.94,4.43-13.26,4.43-5.39,0-7.87-5.31-7.87-15.05.83-35.41,1.66-66.4,1.66-93.84v-563.07c0-23.02-.83-51.35-1.66-84.99,9.94,7.97,19.47,17.71,27.76,29.22ZM4711.9,1586.65v-591.4h-261.87v591.4h261.87ZM4535.8,1143.98h83.28c3.31-7.08,6.63-14.17,9.53-22.13,2.9-7.08,5.39-10.62,7.46-10.62,2.49,0,7.04,7.08,14.5,19.48,6.63,12.39,10.36,20.36,10.36,25.67s-2.49,10.62-7.04,15.94c-4.56,5.31-6.63,10.62-6.63,16.82v208.94c0,15.94.41,35.41,2.07,60.2,0,5.31-2.07,9.74-5.39,11.51-5.8,3.54-10.77,4.43-14.92,4.43s-5.8-4.43-5.8-14.17v-53.12h-89.09v59.32c0,4.43-1.66,7.97-4.56,10.62-5.8,3.54-10.36,4.43-13.67,4.43-5.39,0-7.87-4.43-7.87-15.05.83-16.82,1.66-33.64,1.66-50.46v-232.84c0-23.02-.83-45.15-1.66-68.17,9.12,7.97,18.65,17.71,27.76,29.22ZM4623.23,1383.02v-214.25h-89.09v214.25h89.09Z"/>
    <path d="M5123.77,1510.51c-18.23,53.12-44.75,91.19-78.73,113.32-21.13,13.28-34.81,20.36-41.44,20.36-2.9,0-4.14-1.77-4.14-5.31s1.24-6.2,4.56-7.97c35.63-26.56,63.81-66.4,84.11-118.63,21.55-55.78,32.73-123.06,32.73-200.97s-9.94-140.77-29-190.35c-20.72-51.35-49.31-77.91-84.94-77.91-4.97,0-9.94.89-14.5,1.77,9.53,21.25,14.5,55.78,14.5,102.7s-5.39,108.01-15.75,180.61c-10.36,70.83-21.55,126.6-33.56,169.1-17.4,61.09-35.63,91.19-54.69,91.19s-33.15-26.56-45.58-80.56c-10.77-46.92-16.16-94.73-16.16-143.42,0-97.39,16.16-179.72,48.89-245.24,32.32-65.51,71.68-98.27,118.09-98.27,41.44,0,75.41,27.45,102.35,81.45,26.93,54.89,40.61,125.72,40.61,213.36,0,77.02-9.12,141.65-27.35,194.77ZM4983.3,1047.48c-35.22,12.39-64.22,46.04-87.01,101.81-23.2,55.78-34.39,121.29-34.39,195.66,0,38.07,2.9,74.37,8.7,108.9,7.46,46.92,18.65,69.94,32.73,69.94,19.89,0,39.36-54.89,59.25-166.44,17.82-100.93,26.93-187.69,26.93-260.29,0-19.48-2.07-35.41-6.22-49.58Z"/>
    <path d="M5278.73,1289.18h45.99v-27.45c0-30.99-.83-58.43-1.66-81.45,7.04,1.77,16.16,3.54,27.76,7.08,7.87,3.54,12.02,7.08,12.02,10.62,0,7.97-3.31,13.28-9.12,16.82-4.14,2.66-6.22,7.08-6.22,14.17v60.2h44.75c2.07-3.54,6.22-13.28,12.02-28.33,5.8-13.28,9.12-20.36,10.77-20.36,3.31,0,9.53,9.74,17.82,27.45,7.46,18.59,11.6,30.1,11.6,33.64,0,8.85-2.07,12.39-5.8,12.39h-91.16v73.48c24.03,17.71,44.34,38.07,61.32,61.97,9.94,15.05,15.33,30.1,16.16,46.04,0,9.74-1.24,17.71-3.31,24.79-2.9,8.85-6.22,13.28-9.53,13.28-4.97,0-9.53-8.85-13.67-26.56-15.75-42.5-32.73-76.14-50.97-100.93v201.86c0,23.02.41,49.58,1.66,78.79,0,4.43-1.66,7.97-4.97,11.51-5.39,2.66-9.94,4.43-13.67,4.43-4.56,0-7.04-4.43-7.46-13.28.83-30.1,1.66-56.66,1.66-81.45v-223.99c-30.66,103.58-64.64,179.72-101.93,229.3l-3.31-10.62c38.53-72.6,69.61-169.1,93.64-288.62h-34.39c-20.72,0-35.22,2.66-43.51,6.2l-7.46-38.07c11.6,5.31,28.59,7.08,50.97,7.08ZM5234.81,1000.56l-.83-15.05c34.81-7.97,65.47-17.71,91.99-29.22,27.35-8.85,56.77-24.79,87.84-48.69,8.29,9.74,15.75,18.59,22.79,27.45,7.46,10.62,11.19,18.59,11.19,23.9s-1.66,7.97-4.97,7.97l-17.82-7.97c-65.47,28.33-128.86,41.61-190.19,41.61ZM5281.22,1106.8c7.46,19.48,11.19,38.07,11.19,55.78,0,7.97-1.24,15.94-3.73,23.9-2.49,7.97-4.97,11.51-7.46,11.51-6.63,0-11.19-8.85-13.67-28.33-4.97-46.04-12.84-84.99-23.62-115.98l3.31-7.97c16.16,21.25,27.35,41.61,33.98,61.09ZM5345.44,1070.5c6.63,19.48,9.94,37.18,9.94,54,0,7.97-1.24,15.94-3.73,23.9-2.49,7.97-4.97,11.51-7.46,11.51-6.63,0-10.77-8.85-13.26-28.33-4.56-45.15-11.6-82.34-20.72-112.44l3.73-7.97c14.5,20.36,24.86,39.84,31.49,59.32ZM5426.24,1017.38c7.46,7.08,11.6,14.17,11.6,21.25,0,3.54-2.07,6.2-5.8,7.08-4.14,1.77-6.22,2.66-6.63,3.54-14.5,60.2-31.9,114.21-52.62,162.02l-4.56-6.2c14.09-63.74,25.28-132.8,32.73-208.05l25.28,20.36ZM5589.5,1395.42c9.12,8.85,13.67,15.94,13.67,19.48,0,5.31-2.49,8.85-6.63,9.74-4.97,0-7.87,1.77-8.7,4.43-25.69,54.89-54.28,104.47-84.94,150.51-26.93,40.73-62.98,81.45-107.73,123.06l-4.14-12.4c79.56-95.62,137.56-200.97,173.2-316.06,9.12,8.85,17.4,15.94,25.28,21.25ZM5573.75,1159.92c8.7,8.85,13.26,14.17,13.26,17.71,0,5.31-2.07,7.97-6.22,8.85-4.97,0-7.46,1.77-8.29,4.43-19.06,38.95-39.78,74.37-62.15,106.24-19.47,29.22-45.58,58.43-77.9,87.65l-4.14-11.51c55.94-70.83,96.54-148.74,121.41-234.61,8.7,8.85,16.57,15.94,24.03,21.25ZM5563.81,931.5c8.7,8.85,13.26,15.05,13.26,18.59,0,4.43-2.07,7.08-5.8,7.97-4.97,0-7.87,1.77-8.7,4.43-17.4,38.95-36.05,73.48-56.77,104.47-17.82,28.33-41.85,57.55-71.68,85.88l-4.14-11.51c50.55-69.06,87.01-146.08,109.8-230.19l24.03,20.36Z"/>
    <path d="M5731.62,947.44h200.96c1.66-3.54,4.97-10.62,9.94-23.02,4.97-10.62,7.87-16.82,9.12-16.82,2.9,0,7.87,7.97,15.33,23.02,6.63,15.94,9.94,24.79,9.94,28.33,0,8.85-1.66,12.39-4.97,12.39h-136.74v65.51h132.18l8.7-15.05c4.97-8.85,8.7-14.17,10.77-14.17,2.49,0,7.46,8.85,14.92,26.56,8.29,19.48,12.43,33.64,12.43,41.61,0,5.31-2.9,7.97-7.87,8.85-5.8.89-9.12,1.77-10.77,3.54l-38.95,40.73-.83-1.77v9.74h-96.96v-23.9h96.54l16.99-51.35h-137.15v98.27c0,21.25.41,46.92,1.24,75.25,0,5.31-1.66,9.74-4.56,12.39-5.8,3.54-10.77,5.31-14.92,5.31-4.97,0-7.46-4.43-7.46-15.05.83-17.71,1.66-44.27,1.66-77.91v-98.27h-133.84v7.97c0,25.67-4.14,45.15-11.6,59.32-5.39,8.85-12.85,13.28-21.96,13.28-3.31,0-6.21-1.77-8.7-7.08-2.07-5.31-2.9-10.62-2.9-16.82s5.8-15.94,18.23-30.1c11.19-19.48,17.4-44.27,19.06-74.37l4.56-2.66c.83,9.74,1.24,18.59,2.07,25.67h135.08v-65.51h-79.56c-20.3,0-34.81,2.66-43.09,6.2l-7.87-38.07c11.6,5.31,28.59,7.97,50.97,7.97ZM5807.44,1269.7c5.8,10.62,9.12,18.59,9.12,23.02,0,5.31-1.66,9.74-4.56,14.17-2.9,5.31-4.14,9.74-4.14,14.17v38.07c0,13.28.41,30.99,2.07,52.23,0,5.31-1.66,8.85-4.97,10.62-4.97,3.54-9.12,4.43-12.84,4.43s-5.39-4.43-5.39-13.28v-6.2h-85.77v69.06h72.51c1.24-1.77,3.73-7.08,7.87-15.05,3.73-7.97,6.21-12.39,7.87-12.39s6.22,7.97,13.67,22.13c4.97,9.74,7.46,15.94,7.46,17.71,0,8.85-1.66,12.39-4.14,12.39h-105.25v72.6h72.1c1.66-1.77,4.56-7.97,9.12-18.59,4.14-8.85,7.46-14.17,9.12-14.17s7.04,8.85,15.75,24.79c5.39,10.62,8.29,17.71,8.29,19.48,0,8.85-1.66,12.39-4.97,12.39h-109.39v95.62c0,3.54-1.66,7.08-4.14,8.85-4.56,2.66-8.29,4.43-11.6,4.43-4.97,0-7.04-4.43-7.04-13.28.83-14.17,1.66-29.22,1.66-43.38v-332.88c0-20.36-.83-40.73-1.66-60.2,6.63,5.31,13.26,12.39,19.89,19.48h81.63l8.29-15.94c2.49-4.43,4.97-7.08,6.63-7.08,2.07,0,6.21,6.2,12.84,16.82ZM5781.34,1113v23.9h-97.37v-23.9h97.37ZM5781.34,1192.68v23.9h-97.37v-23.9h97.37ZM5786.72,1383.02v-83.22h-85.77v83.22h85.77ZM5872.5,1462.7h64.22c2.9-5.31,5.39-10.62,7.46-14.17,4.56-7.97,7.87-12.39,9.94-12.39,3.31,0,8.7,7.97,16.16,22.13,6.63,12.4,9.94,21.25,9.94,27.45,0,3.54-2.9,7.08-7.87,10.62-4.14,4.43-6.63,7.97-6.63,10.62-7.04,28.33-14.92,52.23-24.03,70.83-5.39,10.62-10.77,20.36-16.16,27.45l4.14,3.54c18.23,14.17,41.44,26.56,70.03,38.95l-1.24,7.08c-7.87,5.31-13.26,13.28-15.75,25.67-2.49,9.74-4.14,15.05-4.56,15.05-4.97,0-14.92-6.2-30.25-17.71-18.23-15.05-33.15-30.1-45.16-46.04-11.6,12.39-25.69,23.9-42.26,32.76-24.03,13.28-49.31,23.9-75.83,30.99l-3.31-12.39c23.2-10.62,45.58-23.9,67.95-38.07,15.75-12.39,28.59-23.9,38.53-35.41-8.29-13.28-14.92-26.56-20.72-40.73-9.12-23.02-16.16-49.58-20.72-80.56-7.04,1.77-12.85,2.66-16.99,4.43l-7.87-38.07c17.4,5.31,34.39,7.97,50.97,7.97ZM5886.17,1372.4h52.62v-72.6h-41.02c-28.18,0-47.65,2.66-58.84,6.2l-7.46-38.07c18.23,5.31,40.19,7.97,66.3,7.97h31.08c3.31-7.08,6.22-14.17,9.53-20.36,3.31-5.31,5.39-8.85,7.04-8.85,2.49,0,7.46,6.2,14.09,16.82,7.46,14.17,11.19,23.9,11.19,29.22,0,4.43-1.66,7.97-4.97,11.51-4.14,5.31-5.8,9.74-5.8,13.28,0,36.3.41,59.32,1.66,69.06v14.17c0,5.31-1.66,9.74-4.97,13.28-4.56,3.54-8.7,5.31-12.43,5.31-3.31,0-4.97-3.54-5.39-11.51v-11.51h-52.62c-19.06,0-33.98,2.66-45.58,6.2l-7.46-38.07c14.5,5.31,32.32,7.97,53.04,7.97ZM5882.03,1556.55c7.04,11.51,14.92,21.25,23.2,29.22,4.97-7.97,10.36-17.71,15.33-30.1,9.12-19.48,15.75-42.5,20.72-69.06h-68.78c-7.04,0-13.26.89-18.65.89,7.46,28.33,16.99,51.35,28.18,69.06ZM5955.78,1192.68v23.9h-96.96v-23.9h96.96Z"/>
    <path d="M6167.93,917.34c8.29,8.85,12.84,15.94,12.84,20.36,0,5.31-2.49,7.97-7.04,8.85-5.8,0-9.53,1.77-10.36,4.43-3.73,14.17-7.46,28.33-11.19,40.73h49.31l7.46-18.59c3.73-8.85,6.63-14.17,9.12-14.17,2.9,0,7.87,7.08,14.92,21.25,7.46,14.17,11.19,24.79,11.19,31.87,0,6.2-2.07,11.51-6.22,15.05-3.73,6.2-5.8,11.51-5.8,15.05-11.6,67.29-25.28,123.06-40.61,168.21-4.97,13.28-10.77,25.67-16.99,37.18,10.77,2.66,23.62,3.54,39.36,3.54h58.42c1.66-3.54,5.39-11.51,11.19-25.67,4.97-12.39,8.29-19.48,9.94-19.48,3.73,0,9.53,8.85,16.99,25.67,7.46,17.71,11.19,28.33,11.19,31.87,0,8.85-2.07,12.39-5.39,12.39h-102.34c-20.3,0-34.81,2.66-43.09,6.2l-4.14-19.48c-9.12,16.82-19.06,32.76-30.25,48.69-30.66,35.41-59.67,61.97-87.01,80.57l-4.56-10.62c45.16-44.27,82.04-94.73,110.63-149.62,25.69-56.66,43.09-128.37,52.21-215.13h-63.4c-4.14,13.28-8.29,24.79-12.43,35.41,9.12,5.31,17.82,11.51,25.69,18.59,2.9,3.54,6.63,7.97,11.6,13.28,5.8,8.85,8.7,17.71,8.7,27.45,0,8.85-1.24,15.94-3.73,21.25-2.07,7.08-4.56,9.74-7.46,9.74-4.14,0-7.46-4.43-10.77-14.17-8.29-26.56-17.82-47.81-28.59-63.74-7.04,19.48-14.92,37.18-24.03,54.89,12.43,13.28,21.55,25.67,27.35,38.07,7.46,14.17,11.6,28.33,11.6,41.61,0,7.08-1.24,14.17-3.31,20.36-2.07,7.08-4.14,9.74-6.63,9.74-5.39,0-9.12-7.97-11.19-23.9-5.39-29.22-13.26-54.01-23.2-75.25-11.6,23.02-24.86,44.27-39.36,64.63l-3.73-13.28c19.89-38.95,37.71-82.34,53.45-130.14,17.4-54.89,29.83-108.01,36.88-157.59,8.7,9.74,16.16,17.71,22.79,23.9ZM6179.11,1469.78c8.7,7.97,13.26,14.17,13.26,17.71,0,4.43-2.07,7.08-5.8,7.97-4.97,0-7.46,1.77-7.87,4.43-15.75,31.87-33.15,61.97-51.79,88.53-16.16,24.79-37.71,47.81-65.05,72.6l-4.14-9.74c45.58-60.2,78.73-127.49,99.03-200.97,8.29,7.97,15.75,14.17,22.38,19.48ZM6147.62,1383.02h188.12c2.07-3.54,6.22-13.28,12.43-28.33,5.39-14.17,8.7-21.25,10.36-21.25,3.73,0,9.53,9.74,17.82,27.45,7.46,19.48,11.6,30.1,11.6,33.64,0,8.85-2.07,12.39-5.39,12.39h-133.01v230.19c0,24.79-5.39,44.27-15.33,56.66-7.87,7.97-13.67,12.39-17.82,12.39-5.8,0-9.12-7.97-9.53-23.02-2.49-13.28-18.65-27.45-48.48-42.5l1.24-14.17c28.18,7.08,45.99,10.62,53.87,10.62s12.02-6.2,12.02-17.71v-212.48h-77.9c-20.3,0-34.81,2.66-43.09,6.2l-7.87-38.07c11.6,5.31,28.59,7.97,50.97,7.97ZM6389.19,994.36c9.12,21.25,13.67,35.41,13.67,43.38,0,5.31-2.9,7.97-8.29,8.85-5.8,1.77-9.53,2.66-11.19,4.43l-62.57,106.24c6.63,16.82,14.5,31.87,22.79,45.15,27.35,43.38,55.94,76.14,86.6,99.16l-1.24,10.62c-9.12,3.54-14.92,12.39-16.99,25.67-2.07,10.62-4.14,15.94-6.21,15.94-4.97,0-14.92-9.74-29.42-30.99-17.4-23.02-35.22-53.12-53.87-88.53-15.33-35.41-28.18-73.48-38.53-115.98-12.02-49.58-21.96-115.98-30.25-197.43h9.94c2.07,23.9,5.8,48.69,10.77,74.37h78.31c2.9-4.43,6.21-9.74,9.94-15.05,4.97-8.85,8.29-14.17,10.77-14.17,2.9,0,8.29,9.74,15.75,28.33ZM6291.4,1074.04c6.63,26.56,14.5,49.58,23.2,69.94l43.92-123.95h-79.14c3.31,18.59,7.46,36.3,12.02,54.01ZM6365.99,1553c12.02,22.13,18.23,44.27,19.06,66.4,0,9.74-1.24,18.59-3.31,25.67-3.31,7.97-6.63,12.4-9.94,12.4-5.8,0-11.19-11.51-16.99-34.53-22.38-70.83-47.65-123.06-75-158.47l2.9-10.62c32.73,26.56,60.5,60.2,83.29,99.16Z"/>
    <path d="M6809.34,1064.3c-19.47-3.54-33.56-6.2-41.85-6.2-34.39,0-63.81,31.87-88.26,95.62-23.2,60.2-34.81,127.49-34.81,201.85,0,127.49,30.66,202.74,91.99,224.87,15.33,5.31,23.2,20.36,23.2,44.27,0,16.82-6.22,25.67-18.23,25.67-27.35,0-51.79-19.48-74.17-57.55-29-49.58-43.09-119.52-43.09-210.71,0-69.06,8.29-133.69,25.28-193.89,16.57-60.2,39.36-105.35,67.95-135.46-66.3,21.25-117.26,47.81-153.72,78.79l-14.92,17.71c-6.63,8.85-12.02,12.39-15.33,12.39-6.22,0-14.92-10.62-26.52-31.87-11.6-21.25-17.4-38.07-17.4-50.46,0-5.31.83-7.97,3.31-7.97,3.31,4.43,7.04,8.85,10.77,13.28,6.63,8.85,13.67,12.4,20.3,12.4,1.66,0,31.49-11.51,89.5-35.41,64.64-25.67,111.46-43.38,140.88-52.23,1.66,0,5.39-2.66,10.36-6.2,4.97-3.54,8.7-5.31,11.6-5.31,5.8,0,14.5,6.2,25.28,18.59,10.77,12.39,16.16,23.9,16.16,34.53,0,8.85-2.9,13.28-8.29,13.28ZM6783.24,1289.18c-4.56,0-8.29-4.43-11.6-14.17-11.6-32.76-22.79-59.32-33.15-78.79-4.97-8.85-7.04-14.17-7.04-17.71s1.24-6.2,4.56-6.2c9.12,0,20.72,9.74,34.81,27.45,15.33,20.36,23.2,40.73,23.2,60.2s-3.73,29.22-10.77,29.22ZM6817.21,1227.2c-4.56,0-8.29-3.54-10.77-12.4-10.77-30.99-21.96-54.89-33.15-70.83-5.8-7.97-8.7-13.28-8.7-15.94,0-5.31,1.24-7.97,4.14-7.97,10.77,0,22.79,7.97,36.05,23.02,14.92,17.71,22.38,36.3,22.38,56.66,0,18.59-3.31,27.45-9.94,27.45Z"/>
    <path d="M6958.09,993.48c3.31,1.77,5.39,5.31,5.39,8.85,0,5.31-3.31,10.62-9.53,16.82-3.73,4.43-5.39,12.39-5.39,23.9v179.72h102.35v-247.89c0-27.45-.83-52.23-1.66-74.37,7.87,1.77,18.23,4.43,30.66,7.97,8.7,2.66,13.26,6.2,13.26,9.74,0,7.97-3.73,14.17-10.77,18.59-4.97,3.54-7.04,7.97-7.04,15.05v270.91h101.52c0-9.74.41-19.48.41-29.22v-126.6c0-32.76-.83-61.97-1.66-86.76l29.83,7.97c8.29,2.66,12.43,6.2,12.43,9.74,0,8.85-3.31,15.05-9.53,18.59-4.97,3.54-7.04,7.97-7.04,15.05v162.02c0,24.79.41,53.12,2.07,84.11,0,5.31-2.07,9.74-5.39,12.4-5.8,3.54-10.77,4.43-14.92,4.43-4.56,0-7.04-4.43-7.46-14.17.41-11.51.83-23.02.83-33.64h-101.1v360.33h109.8v-183.26c0-33.64-.83-62.86-1.66-87.65,7.87,1.77,17.82,4.43,30.25,7.97,8.29,3.54,12.43,7.08,12.43,10.62,0,7.97-3.31,14.17-9.94,17.71-4.56,3.54-6.63,8.85-6.63,15.94v195.66c0,24.79.41,52.23,2.07,84.11,0,5.31-2.07,9.74-5.39,13.28-5.8,2.66-10.77,4.43-14.92,4.43-4.97,0-7.46-5.31-7.87-15.05l1.24-39.84h-241.98c-4.97,19.48-9.53,30.1-14.09,30.1s-8.7-2.66-12.43-6.2c-7.04-7.97-10.36-14.17-10.36-18.59s1.24-8.85,4.14-14.17c2.49-7.08,4.14-14.17,4.56-20.36v-203.63c0-18.59-1.24-38.07-2.9-58.43l36.88,14.17c3.31,1.77,5.39,4.43,5.39,7.97,0,5.31-3.31,10.62-9.94,16.82-3.73,4.43-5.39,12.4-5.39,23.9v204.51h112.29v-360.33h-98.2c-4.97,23.02-9.94,34.53-14.09,34.53-4.56,0-8.7-1.77-12.85-6.2-6.63-7.97-9.94-14.17-9.94-19.48,0-3.54,1.24-7.97,4.14-13.28,2.49-7.97,3.73-15.05,4.14-21.25v-182.38c0-18.59-1.24-38.07-2.9-58.43l36.88,13.28Z"/>
    <path d="M7506.69,943.01c8.29,15.94,12.85,31.87,12.85,47.81,0,10.62-1.24,19.48-2.9,25.67h95.71c1.66-3.54,5.8-11.51,11.6-25.67,5.39-12.39,9.12-19.48,11.19-19.48,2.49,0,9.12,10.62,19.89,31.87,6.63,14.17,9.94,22.13,9.94,24.79,0,8.85-2.07,12.4-5.39,12.4h-296.26v43.38c0,105.35-2.07,197.43-5.8,275.34-4.14,71.71-12.02,138.11-23.62,199.2-10.36,47.81-24.03,95.62-41.02,144.31l-4.97-7.97c19.06-78.79,31.91-154.05,38.12-224.87,8.29-84.99,12.84-214.25,12.84-386,0-44.27-1.24-77.02-2.9-96.5,11.6,10.62,21.13,20.36,28.59,29.22h130.11c-1.66-4.43-2.9-10.62-3.73-17.71-7.04-38.07-18.23-69.94-33.15-96.5l4.14-8.85c20.72,16.82,35.63,33.64,44.75,49.58ZM7519.95,1077.58c7.87,3.54,12.02,7.08,12.02,10.62,0,7.08-3.32,13.28-9.53,17.71-4.97,3.54-7.04,8.85-7.04,15.94v87.65h88.67c1.66-2.66,5.39-10.62,10.77-23.02,4.97-11.51,8.7-17.71,10.77-17.71s8.29,10.62,18.65,30.1c6.21,12.39,9.53,20.36,9.53,23.02,0,8.85-2.07,12.39-5.8,12.39h-132.59v155.82h73.75l9.53-23.02c2.9-7.08,5.39-10.62,7.46-10.62,2.49,0,7.04,7.08,14.5,19.48,6.63,12.39,10.36,20.36,10.36,25.67s-2.07,11.51-6.22,16.82-5.8,10.62-5.8,15.94v192.12c0,15.05.41,35.41,2.07,60.2,0,4.43-2.07,7.97-5.39,11.51-5.8,2.66-10.77,4.43-14.92,4.43s-6.22-5.31-6.22-14.17v-49.58h-168.23v48.69c0,3.54-1.66,7.08-4.56,10.62-5.39,2.66-9.95,4.43-13.67,4.43-4.97,0-7.46-5.31-7.46-15.05.83-17.71,1.66-34.53,1.66-50.46v-208.05c0-23.02-.83-46.04-1.66-69.06,9.12,7.97,18.65,17.71,28.59,30.1h61.74v-277.11c0-14.17-.41-28.33-1.24-43.38,7.87,1.77,17.82,4.43,30.25,7.97ZM7594.53,1614.98v-200.97h-168.23v200.97h168.23Z"/>
    <path d="M8064.4,1129.82c-8.7-1.77-17.4-4.43-25.69-6.2-17.82-3.54-33.15-6.2-45.99-6.2-19.06,0-40.61,1.77-65.47,4.43l-.41,144.31c9.94,25.67,14.92,70.83,14.92,134.57,0,110.67-18.65,191.23-55.52,240.81-21.13,28.33-40.61,42.5-58.42,42.5-2.49,0-3.73-1.77-3.73-4.43,0-3.54,2.07-6.2,6.63-9.74,53.04-41.61,80.8-113.32,82.87-217.79-10.77,24.79-24.45,36.3-40.19,36.3-14.5,0-26.1-14.17-34.81-44.27-7.87-24.79-11.6-54.01-11.6-86.76,0-37.18,4.97-69.06,15.75-96.5,10.36-26.56,24.03-40.73,41.44-40.73,8.29,0,15.33,3.54,21.55,8.85v-104.47c-44.75,7.97-81.21,21.25-108.56,38.95-1.24.89-7.46,6.2-18.23,15.94-7.87,7.08-14.09,10.62-18.65,10.62-5.39,0-13.26-8.85-23.62-28.33-10.36-19.48-15.33-34.53-15.33-45.15,0-5.31,1.24-7.97,3.73-7.97l9.12,12.39c6.22,7.97,12.43,11.51,19.06,11.51,3.73,0,21.96-4.43,54.69-14.17,24.86-7.08,57.18-15.05,97.79-24.79,0-56.66-1.66-90.3-4.56-102.7-3.32-11.51-8.7-21.25-16.16-29.22-7.87-7.08-11.6-10.62-11.6-11.51,0-7.08,2.9-11.51,9.12-11.51,8.7,0,19.06,4.43,30.66,11.51,14.5,10.62,21.96,23.02,21.96,37.18l-4.14,22.13c-2.9,15.05-4.14,29.22-4.14,43.38v36.3l68.37-11.51c8.29-.89,16.99-4.43,25.69-11.51,8.7-5.31,14.5-8.85,16.99-8.85,4.97,0,11.6,7.97,20.72,22.13,8.7,15.05,13.26,27.44,13.26,36.3,0,9.74-2.49,14.17-7.46,14.17ZM7903.63,1275.01c-6.21-21.25-14.92-31.87-26.1-31.87s-21.13,11.51-28.18,33.64c-6.22,20.36-9.12,43.38-9.12,69.06s2.49,47.81,8.29,67.28c6.63,23.02,15.33,34.53,26.52,34.53s20.3-11.51,27.76-36.3c5.8-21.25,8.7-44.27,8.7-70.83s-2.9-47.81-7.87-65.51Z"/>
    <path d="M8400.44,1599.04c-23.2,33.64-52.62,51.35-88.26,51.35-19.89,0-36.88-7.97-51.79-22.13-19.47-19.48-29-46.92-29-84.11,0-28.33,6.22-50.46,18.65-66.4,9.94-12.39,22.38-18.59,37.29-18.59,14.09,0,29.42,11.51,45.16,32.76,16.99,24.79,25.69,51.35,25.69,79.68,0,8.85-.83,16.82-2.07,22.13,37.71-38.95,56.77-92.96,56.77-162.9,0-49.58-8.29-87.65-24.03-113.32-14.09-23.02-33.56-34.53-57.59-34.53s-47.24,16.82-70.85,48.69c-21.13,29.22-39.36,66.4-54.28,110.67-7.46,23.02-12.84,33.64-16.16,33.64-6.22,0-9.12-17.71-9.12-53.12,0-10.62,4.56-23.9,14.09-39.84,28.18-47.81,71.68-158.47,130.52-332.88,3.31-10.62,5.39-16.82,5.39-19.48,0-5.31-1.66-8.85-4.97-8.85-4.97,0-16.57,7.08-33.98,21.25-16.16,14.17-27.35,24.79-33.98,31.87-10.77,12.39-17.4,18.59-19.89,18.59-7.46,0-15.33-9.74-24.03-30.99-9.12-19.48-13.26-38.07-13.26-54.01,0-3.54.83-6.2,3.32-6.2l9.94,17.71c6.63,10.62,13.67,15.05,21.96,15.05,9.94,0,26.1-5.31,48.06-16.82,18.23-9.74,33.15-19.48,44.34-28.33.83,0,4.14-4.43,9.94-11.51,4.14-5.31,7.87-7.97,11.19-7.97,3.73,0,9.12,6.2,16.16,18.59,6.63,12.39,9.94,23.02,9.94,30.99,0,5.31-3.73,11.51-10.36,20.36-8.29,10.62-12.84,16.82-13.67,18.59-12.02,27.45-44.34,109.78-96.54,247.01,24.86-33.64,55.11-51.35,89.92-51.35,26.52,0,48.89,15.05,66.71,44.27,19.47,32.76,29.42,77.02,29.42,131.91,0,72.6-13.67,129.26-40.61,168.21ZM8341.19,1587.53c-8.29-26.56-18.23-49.58-30.25-68.17-13.67-19.48-27.35-30.1-40.61-30.1-7.87,0-14.5,5.31-19.89,15.94-5.8,10.62-8.7,23.02-8.7,38.95,0,28.33,7.04,48.69,21.13,61.97,10.36,10.62,23.2,15.05,38.12,15.05,15.75,0,31.91-6.2,48.07-19.48-3.32-1.77-6.22-7.08-7.87-14.17Z"/>
    <path d="M8749.73,943.01c8.29,15.94,12.84,31.87,12.84,47.81,0,10.62-1.24,19.48-2.9,25.67h95.72c1.66-3.54,5.8-11.51,11.6-25.67,5.39-12.39,9.12-19.48,11.19-19.48,2.49,0,9.12,10.62,19.89,31.87,6.63,14.17,9.94,22.13,9.94,24.79,0,8.85-2.07,12.4-5.39,12.4h-296.26v43.38c0,105.35-2.07,197.43-5.8,275.34-4.14,71.71-12.02,138.11-23.62,199.2-10.36,47.81-24.03,95.62-41.02,144.31l-4.97-7.97c19.06-78.79,31.91-154.05,38.12-224.87,8.29-84.99,12.84-214.25,12.84-386,0-44.27-1.24-77.02-2.9-96.5,11.6,10.62,21.13,20.36,28.59,29.22h130.11c-1.66-4.43-2.9-10.62-3.73-17.71-7.04-38.07-18.23-69.94-33.15-96.5l4.14-8.85c20.72,16.82,35.63,33.64,44.75,49.58ZM8762.99,1077.58c7.87,3.54,12.02,7.08,12.02,10.62,0,7.08-3.31,13.28-9.53,17.71-4.97,3.54-7.04,8.85-7.04,15.94v87.65h88.67c1.66-2.66,5.39-10.62,10.77-23.02,4.97-11.51,8.7-17.71,10.77-17.71s8.29,10.62,18.65,30.1c6.22,12.39,9.53,20.36,9.53,23.02,0,8.85-2.07,12.39-5.8,12.39h-132.59v155.82h73.75l9.53-23.02c2.9-7.08,5.39-10.62,7.46-10.62,2.49,0,7.04,7.08,14.5,19.48,6.63,12.39,10.36,20.36,10.36,25.67s-2.07,11.51-6.21,16.82-5.8,10.62-5.8,15.94v192.12c0,15.05.42,35.41,2.07,60.2,0,4.43-2.07,7.97-5.39,11.51-5.8,2.66-10.77,4.43-14.92,4.43s-6.21-5.31-6.21-14.17v-49.58h-168.23v48.69c0,3.54-1.66,7.08-4.56,10.62-5.39,2.66-9.94,4.43-13.67,4.43-4.97,0-7.46-5.31-7.46-15.05.83-17.71,1.66-34.53,1.66-50.46v-208.05c0-23.02-.83-46.04-1.66-69.06,9.12,7.97,18.65,17.71,28.59,30.1h61.74v-277.11c0-14.17-.42-28.33-1.24-43.38,7.87,1.77,17.82,4.43,30.25,7.97ZM8837.58,1614.98v-200.97h-168.23v200.97h168.23Z"/>
    <path d="M9055.94,914.68c8.29,5.31,12.43,9.74,12.43,14.17,0,5.31-2.49,7.97-7.04,8.85-4.14,1.77-6.21,4.43-7.04,6.2-1.66,7.08-3.31,14.17-4.97,19.48,20.72,17.71,38.53,38.95,53.45,61.97,9.94,16.82,14.92,33.64,15.75,49.58,0,8.85-1.24,16.82-2.9,22.13-2.49,7.08-5.39,10.62-8.29,10.62-4.97,0-9.53-8.85-13.67-26.56-14.92-43.38-31.08-77.91-48.06-103.58-9.94,37.18-20.72,68.17-31.49,92.07-15.75,40.73-36.46,80.56-62.98,117.75l-4.14-11.51c14.92-28.33,31.08-67.29,48.48-118.63,14.09-41.61,26.52-93.85,37.71-156.7,8.29,6.2,16.16,10.62,22.79,14.17ZM9027.35,1172.31h1.24v-61.09c0-12.39-.41-24.79-1.24-38.07,6.63,1.77,15.33,3.54,26.1,7.08,6.63,2.66,10.36,5.31,10.36,8.85,0,7.08-2.9,12.39-8.29,15.94-4.14,1.77-5.8,6.2-5.8,13.28v54.01h21.96l9.53-22.13c4.56-9.74,7.46-15.05,8.7-15.05,3.31,0,7.87,7.97,14.09,22.13,6.63,15.05,9.94,23.9,9.94,26.56,0,8.85-1.66,12.39-4.97,12.39h-59.25v114.21h29.42l11.19-26.56c4.97-12.4,7.87-19.48,9.53-19.48,3.73,0,9.53,8.85,16.99,25.67,7.46,18.59,11.6,29.22,11.6,31.87,0,8.85-2.07,12.39-5.8,12.39h-114.78c-20.72,0-35.22,2.66-43.51,6.2l-7.46-38.07c11.6,5.31,28.59,7.97,50.96,7.97h20.72v-114.21h-1.24c-20.72,0-35.22,2.66-43.51,6.2l-7.87-38.07c11.6,5.31,29,7.97,51.38,7.97ZM9002.9,1421.09h65.47l8.7-15.94c2.49-4.43,4.56-7.08,6.21-7.08,2.07,0,6.63,6.2,13.26,16.82,5.8,10.62,9.12,18.59,9.12,23.02,0,5.31-2.07,9.74-5.8,14.17-3.31,5.31-4.56,9.74-4.56,15.05v165.56c0,12.39.41,30.1,1.66,52.23,0,3.54-1.66,7.08-4.56,9.74-4.97,2.66-9.53,4.43-13.26,4.43-3.31,0-4.97-4.43-4.97-12.39v-54.89h-71.27v54.89c0,3.54-1.66,6.2-4.14,7.97-4.56,2.66-8.29,4.43-11.6,4.43-4.97,0-7.04-4.43-7.04-12.39.83-15.05,1.66-30.1,1.66-44.27v-184.15c0-19.48-.83-39.84-1.66-60.2,7.46,6.2,14.92,14.17,22.79,23.02ZM9074.17,1607.9v-162.9h-71.27v162.9h71.27ZM9169.47,1043.94h39.78v-65.51c0-30.99-.83-58.43-1.66-81.45,7.04,1.77,16.16,3.54,27.76,7.08,7.87,3.54,12.02,6.2,12.02,9.74,0,7.97-3.32,14.17-9.12,17.71-4.14,2.66-6.21,7.08-6.21,14.17v98.27h54.28c1.24-3.54,4.56-10.62,9.94-22.13,4.97-11.51,7.87-17.71,8.7-17.71,3.31,0,8.29,7.97,15.75,23.02,6.63,15.94,9.94,25.67,9.94,29.22,0,7.97-1.66,11.51-4.97,11.51h-93.64v93.85h48.48c2.49-5.31,4.56-11.51,6.63-17.71,3.73-7.08,6.63-11.51,8.7-11.51,1.66,0,5.8,5.31,12.02,15.05,6.63,12.39,9.94,21.25,9.94,24.79,0,7.08-1.66,11.51-4.97,15.05-4.14,3.54-5.8,7.97-5.8,12.39v442.67c0,17.71-4.56,31.87-13.26,42.5-7.04,7.08-13.26,10.62-18.23,10.62-4.56,0-6.63-7.08-6.63-21.25-.83-15.05-11.19-29.22-31.08-41.61l2.07-13.28c14.92,7.08,26.52,10.62,35.63,10.62,7.04,0,10.77-6.2,10.77-16.82v-154.05h-54.28v134.57c0,23.9.41,49.58,1.66,78.79,0,5.31-1.66,8.85-4.97,12.39-5.39,2.66-9.94,4.43-13.67,4.43-4.56,0-7.04-5.31-7.46-14.17.83-30.1,1.66-56.66,1.66-81.45v-134.57h-52.62v231.07c0,4.43-1.66,7.97-4.56,11.51-4.14,2.66-7.87,4.43-11.19,4.43-4.97,0-7.04-4.43-7.04-13.28.83-30.1,1.66-57.55,1.66-80.56v-399.28c0-19.48-.83-44.27-1.66-74.37,7.87,6.2,15.33,14.17,22.79,23.02h52.62v-93.85h-39.78c-20.3,0-34.81,2.66-43.09,6.2l-7.87-38.07c11.6,5.31,28.59,7.97,50.97,7.97ZM9209.25,1292.72v-107.12h-52.62v107.12h52.62ZM9209.25,1434.37v-116.86h-52.62v116.86h52.62ZM9232.04,1292.72h54.28v-107.12h-54.28v107.12ZM9232.04,1434.37h54.28v-116.86h-54.28v116.86ZM9291.7,943.9c7.46,10.62,11.6,21.25,11.6,31.87,0,8.85-1.66,17.71-4.14,25.67-3.73,8.85-7.46,13.28-10.77,13.28-7.04,0-11.6-9.74-14.09-30.99-4.97-26.56-12.43-49.58-22.79-68.17l3.73-7.97c16.99,12.39,29,24.79,36.46,36.3Z"/>
    <path d="M9543.63,912.91c9.12,5.31,13.67,9.74,13.67,15.05s-2.9,8.85-8.29,9.74c-4.14,1.77-6.22,4.43-7.04,7.08-9.12,29.22-18.65,55.78-28.59,78.79h140.47c3.73-7.97,7.46-15.05,11.6-21.25,3.32-5.31,5.8-8.85,8.29-8.85,2.07,0,7.04,7.97,15.33,22.13,7.87,15.05,12.02,24.79,12.02,30.1,0,7.08-2.49,11.51-6.63,13.28-4.97,2.66-8.7,7.97-11.6,16.82-19.89,53.12-42.26,102.7-66.71,147.85-24.45,46.92-54.69,88.53-90.33,125.72-6.63,7.08-13.67,14.17-20.3,19.48h147.92l10.36-19.48c2.9-6.2,5.39-9.74,7.46-9.74,2.49,0,7.87,7.08,15.33,19.48,7.46,13.28,11.6,23.02,11.6,28.33s-2.07,10.62-6.22,16.82c-3.73,5.31-5.39,11.51-5.39,17.71v199.2c0,15.94.83,37.18,2.49,63.74,0,5.31-2.07,8.85-5.8,12.4-6.21,3.54-11.6,5.31-16.16,5.31-4.14,0-6.22-5.31-6.22-15.05v-45.15h-182.32v47.81c0,4.43-1.66,7.97-4.14,11.51-5.8,2.66-10.36,4.43-14.09,4.43-4.97,0-7.46-5.31-7.46-15.94.83-16.82,1.66-33.64,1.66-49.58v-232.84c-25.69,17.71-54.69,32.76-86.19,46.04l-2.07-14.17c29.83-16.82,58.84-38.95,87.84-65.51l-1.24-34.53c6.21,5.31,12.43,11.51,18.65,18.59,23.2-22.13,46.41-47.81,68.78-76.14,45.99-61.09,84.94-139,116.85-234.61h-154.14c-7.46,15.94-14.92,30.99-22.38,43.38-24.45,46.04-56.77,91.19-96.96,134.57l-4.56-12.39c24.03-31.87,50.55-77.91,78.73-137.23,22.79-46.92,43.09-106.24,60.91-178.84,9.12,7.08,17.4,12.4,24.86,15.94ZM9522.08,1169.66c4.14,4.43,9.12,10.62,14.92,19.48,6.63,12.39,10.36,26.56,10.36,41.61,0,9.74-1.24,17.71-3.73,23.9-2.49,8.85-5.39,12.4-8.7,12.4-4.97,0-9.53-6.2-13.67-20.36-13.26-47.81-29.42-84.11-48.06-107.12l3.31-7.08c16.99,9.74,32.32,22.13,45.58,37.18ZM9660.89,1617.63v-223.99h-182.32v223.99h182.32Z"/>
    <path d="M9885.46,1334.33l-20.3,120.41c-4.14,26.56-7.04,56.66-8.7,92.07-1.66,37.18-2.9,61.97-4.56,73.48-1.24,7.08-3.73,11.51-7.46,11.51-11.6,0-20.72-30.99-26.52-93.85-4.56-43.38-6.63-85.88-6.63-126.6,0-102.7,6.63-208.94,20.3-317.83,4.56-37.18,7.04-59.32,7.04-65.51,0-17.71-2.9-32.76-7.87-46.92-2.49-5.31-5.39-11.51-8.29-20.36,0-3.54,1.24-6.2,3.73-6.2,4.97,0,12.43,10.62,22.38,30.1,11.6,23.9,17.82,47.81,17.82,70.83,0,6.2-2.49,20.36-7.46,43.38-3.73,15.05-7.04,30.1-10.36,45.15-14.09,68.17-21.13,147.85-21.13,239.92,0,65.51,4.14,97.39,13.26,97.39,3.31,0,16.57-51.35,39.78-154.05,1.66-7.08,2.9-11.51,3.73-11.51,1.66,0,2.9,1.77,2.9,5.31,0,2.66-.83,7.08-1.66,13.28ZM10115.84,1606.12c-3.31,0-7.87-3.54-12.84-12.4l-11.19-20.36c-14.92-24.79-29-46.04-42.26-63.74-.42,46.92-6.22,80.57-17.4,100.04-10.36,18.59-26.52,28.33-48.89,28.33-17.4,0-32.32-7.97-44.75-23.02-15.33-17.71-22.79-44.27-22.79-78.79s6.21-59.32,19.47-78.79c11.6-17.71,25.28-26.56,41.43-26.56s33.15,4.43,49.72,13.28l-2.9-254.09c-24.86,7.08-44.34,10.62-58.42,10.62-17.4,0-31.49-10.62-41.44-32.76-7.46-15.05-10.77-27.45-10.77-38.07,0-5.31,1.24-8.85,3.73-8.85l10.36,20.36c7.46,12.4,15.75,17.71,24.86,17.71,28.59,0,52.21-2.66,71.27-8.85l-.83-100.04c-.41-19.48-1.66-34.53-4.14-44.27-3.31-11.51-9.12-20.36-17.4-26.56-4.97-3.54-7.46-7.08-7.46-10.62,0-5.31,3.73-8.85,11.6-8.85,6.63,0,15.75,5.31,27.35,15.94,12.84,12.39,19.47,23.9,19.47,35.41,0,3.54-1.24,11.51-3.73,22.13-2.49,11.51-3.73,21.25-3.73,29.22l-.83,79.68c7.46-3.54,16.16-7.97,25.28-13.28,2.49-1.77,7.46-7.08,14.5-15.94,5.8-7.97,9.94-12.4,12.43-12.4,4.14,0,8.7,3.54,14.5,8.85,5.8,6.2,8.7,13.28,8.7,20.36,0,19.48-25.28,37.18-75.41,54.01,0,85.88,1.66,177.95,5.39,277.11,28.18,23.02,50.55,51.35,67.12,84.11,6.22,12.39,9.53,25.67,9.53,39.84s-3.31,21.25-9.53,21.25ZM10026.76,1483.95c-16.16-14.17-33.56-21.25-52.21-21.25-13.26,0-24.45,5.31-32.73,15.05-11.19,12.39-16.57,31.87-16.57,57.55,0,23.02,6.21,39.84,19.06,51.35,9.12,8.85,19.89,13.28,32.32,13.28,33.15,0,50.14-28.33,50.14-85.88v-30.1Z"/>
    <path d="M1475.42,2602.13v416.11h-66.71v-556.87h115.19v140.77h-48.48ZM1504.02,2502.09h-75.41v473.65h26.93v-415.22h48.48v-58.43Z"/>
    <path d="M1692.96,3169.63c-14.92,0-28.18-8.85-39.78-26.56-5.39-7.97-14.09-25.67-25.69-54.01l-13.26,73.48h-11.6l-4.97-218.68,12.02-.89c8.7,60.2,21.55,110.67,38.95,149.62,15.75,36.3,30.25,54,44.34,54,14.92,0,26.52-11.51,35.63-35.41,8.7-23.02,13.26-54,13.26-92.96,0-46.92-19.06-92.96-56.77-139-28.18-33.64-46.82-60.2-56.77-80.56-15.75-31.87-23.2-69.06-23.2-113.32,0-47.81,5.39-84.99,16.57-110.67,10.77-24.79,25.28-38.07,43.51-38.07,25.69,0,45.16,22.13,59.25,65.51l7.04-60.2h11.6l7.04,199.2h-12.43c-10.77-59.32-21.13-102.7-30.25-129.26-12.43-34.53-26.1-52.23-41.02-52.23-12.84,0-22.79,10.62-29.83,30.99-7.46,21.25-11.19,49.58-11.19,86.76,0,26.56,6.22,51.35,18.65,74.37,7.46,14.17,21.55,32.76,42.26,57.55,26.1,31.87,44.75,59.32,55.52,83.22,15.33,34.53,23.2,73.48,23.2,116.86,0,107.12-24.03,160.25-72.1,160.25Z"/>
    <path d="M1843.78,2947.41c0,51.35,4.56,94.73,14.09,130.14,10.77,40.72,26.1,60.2,45.16,60.2s38.12-31.87,54.69-96.5l7.04,8.85c-9.12,42.5-18.23,71.71-27.35,89.42-10.77,20.36-24.45,30.1-41.02,30.1-25.69,0-45.99-20.36-61.74-62.86-15.33-39.84-22.79-90.3-22.79-152.28s7.04-114.21,21.55-156.7c15.33-46.04,36.05-69.06,61.74-69.06,23.62,0,41.85,23.02,54.28,69.06,10.36,39.84,15.75,89.42,15.75,149.62h-121.41ZM1924.58,2795.13c-7.04-28.33-17.4-43.38-31.08-43.38-16.16,0-28.59,19.48-37.71,58.43-8.29,33.64-12.02,71.71-12.02,114.21h71.27c12.02,0,18.23-11.51,18.23-35.41,0-38.07-2.9-69.06-8.7-93.85Z"/>
    <path d="M2111.86,3169.63c-15.75,0-27.35-9.74-35.63-30.1-8.29-19.48-12.43-46.04-12.43-79.68v-294.81h-33.98v-23.02c15.33,0,27.35-17.71,36.46-53.12,7.87-30.99,12.02-69.94,12.02-116.86h12.43v169.98h56.77v23.02h-56.77v266.48c0,64.63,9.94,96.5,29.83,96.5,11.19,0,19.89-13.28,26.1-39.84,4.56-21.25,7.04-46.04,7.04-74.37h7.87c0,104.47-16.57,155.82-49.72,155.82Z"/>
    <path d="M2319.04,3169.63c-15.75,0-27.35-9.74-35.63-30.1-8.29-19.48-12.43-46.04-12.43-79.68v-294.81h-33.98v-23.02c15.33,0,27.35-17.71,36.46-53.12,7.87-30.99,12.02-69.94,12.02-116.86h12.43v169.98h56.77v23.02h-56.77v266.48c0,64.63,9.94,96.5,29.83,96.5,11.19,0,19.89-13.28,26.1-39.84,4.56-21.25,7.04-46.04,7.04-74.37h7.87c0,104.47-16.57,155.82-49.72,155.82Z"/>
    <path d="M2465.3,2947.41c0,51.35,4.56,94.73,14.09,130.14,10.77,40.72,26.1,60.2,45.16,60.2s38.12-31.87,54.69-96.5l7.04,8.85c-9.12,42.5-18.23,71.71-27.35,89.42-10.77,20.36-24.45,30.1-41.02,30.1-25.69,0-45.99-20.36-61.74-62.86-15.33-39.84-22.79-90.3-22.79-152.28s7.04-114.21,21.55-156.7c15.33-46.04,36.05-69.06,61.74-69.06,23.62,0,41.85,23.02,54.28,69.06,10.36,39.84,15.75,89.42,15.75,149.62h-121.41ZM2546.1,2795.13c-7.04-28.33-17.4-43.38-31.08-43.38-16.16,0-28.59,19.48-37.71,58.43-8.29,33.64-12.02,71.71-12.02,114.21h71.27c12.02,0,18.23-11.51,18.23-35.41,0-38.07-2.9-69.06-8.7-93.85Z"/>
    <path d="M2924.4,3169.63c-56.77,0-84.94-105.35-84.94-316.06s28.18-316.95,84.94-316.95,84.94,106.24,84.94,316.95-28.59,316.06-84.94,316.06ZM2924.4,2559.63c-36.05,0-53.87,98.27-53.87,293.93s17.82,293.04,53.87,293.04c21.13,0,36.05-30.99,44.75-94.73,5.8-45.15,9.12-111.55,9.12-198.31,0-195.66-18.23-293.93-53.87-293.93Z"/>
    <path d="M3147.74,3169.63c-15.75,0-27.35-9.74-35.63-30.1-8.29-19.48-12.43-46.04-12.43-79.68v-294.81h-33.98v-23.02c15.33,0,27.35-17.71,36.46-53.12,7.87-30.99,12.02-69.94,12.02-116.86h12.43v169.98h56.77v23.02h-56.77v266.48c0,64.63,9.94,96.5,29.83,96.5,11.19,0,19.89-13.28,26.1-39.84,4.56-21.25,7.04-46.04,7.04-74.37h7.87c0,104.47-16.57,155.82-49.72,155.82Z"/>
    <path d="M3354.91,3169.63c-15.75,0-27.35-9.74-35.63-30.1-8.29-19.48-12.43-46.04-12.43-79.68v-294.81h-33.98v-23.02c15.33,0,27.35-17.71,36.46-53.12,7.87-30.99,12.02-69.94,12.02-116.86h12.43v169.98h56.77v23.02h-56.77v266.48c0,64.63,9.94,96.5,29.83,96.5,11.19,0,19.89-13.28,26.1-39.84,4.56-21.25,7.04-46.04,7.04-74.37h7.87c0,104.47-16.57,155.82-49.72,155.82Z"/>
    <path d="M3600.21,3098.8c-14.09,47.81-31.9,70.83-53.87,70.83s-40.19-23.02-54.28-69.94c-13.26-42.5-19.47-92.96-19.47-150.51s6.22-107.12,19.47-150.51c14.09-46.92,31.91-70.83,54.28-70.83s39.78,23.9,53.87,69.94c12.43,43.38,19.06,93.84,19.06,150.51s-6.63,108.01-19.06,150.51ZM3579.07,2819.03c-7.46-45.15-18.23-68.17-32.73-68.17s-25.69,23.02-33.15,69.06c-5.8,36.3-8.7,79.68-8.7,129.26s2.9,93.84,8.7,129.26c7.46,46.04,18.23,68.17,33.15,68.17s25.28-23.02,32.73-69.06c5.39-35.41,8.29-77.91,8.29-129.26s-2.9-93.84-8.29-129.26Z"/>
    <path d="M4028.23,2842.05c-15.75,30.99-36.05,46.04-60.5,46.04h-42.26v183.26c0,24.79,1.66,40.72,4.97,48.69,3.31,8.85,10.36,13.28,21.13,13.28h3.73v23.02h-87.01v-23.02h5.39c10.36,0,17.4-5.31,20.72-15.94,2.49-7.97,3.73-23.02,3.73-46.04v-432.04c0-23.02-2.07-39.84-5.39-50.46-3.73-10.62-9.94-15.94-19.06-15.94h-5.39v-23.02h102.34c54.28,0,81.63,57.55,81.63,170.87,0,51.35-8.29,91.19-24.03,121.29ZM3969.39,2572.91h-13.26c-20.72,0-30.66,22.13-30.66,66.4v225.76h32.32c40.61,0,60.91-48.69,60.91-146.08s-16.57-146.08-49.31-146.08Z"/>
    <path d="M4246.18,3145.72c-6.63,10.62-12.84,15.94-19.06,15.94-18.65,0-29.83-26.56-33.56-79.68-6.63,24.79-15.33,46.04-25.69,62.86-10.77,16.82-20.72,24.79-29.83,24.79-39.78,0-59.25-34.53-59.25-103.58,0-44.27,13.67-83.22,41.85-115.09,19.47-22.13,43.51-38.95,71.68-51.35v-64.63c0-28.33-2.9-49.58-7.87-63.74-5.39-12.39-14.5-19.48-27.35-19.48-8.29,0-16.16,3.54-23.62,9.74-9.94,8.85-14.5,20.36-14.5,34.53,0,6.2,1.24,14.17,4.56,23.02,2.9,9.74,4.56,18.59,4.56,25.67,0,26.56-6.63,39.84-19.06,39.84-5.8,0-10.36-4.43-13.67-15.05-3.31-9.74-4.97-21.25-4.97-34.53,0-35.41,7.87-62.86,24.45-83.22,12.84-15.05,27.76-23.02,44.34-23.02,39.78,0,60.08,40.73,60.08,120.41v223.1c0,34.53,6.63,51.35,19.89,51.35,2.9,0,5.8-1.77,8.7-7.08,2.9-5.31,4.56-7.97,5.39-7.97,1.66,0,2.9,2.66,2.9,7.97,0,8.85-3.31,18.59-9.94,29.22ZM4192.31,2921.73c-27.35,17.71-45.99,32.76-55.94,46.04-17.4,23.9-26.1,56.66-26.1,97.39,0,24.79,2.9,44.27,9.12,58.43,5.8,15.94,12.84,23.02,20.72,23.02,9.53,0,19.47-10.62,29.83-32.76,9.12-17.71,16.57-40.73,22.38-68.17v-123.95Z"/>
    <path d="M4384.57,3169.63c-11.19,0-20.72-4.43-28.59-14.17-5.8-6.2-12.85-18.59-21.13-36.3l-18.65,44.27h-7.87v-162.02h8.29c8.29,50.46,17.82,86.76,28.18,108.9,11.19,24.79,24.86,36.3,41.44,36.3,11.19,0,20.3-6.2,27.35-19.48,7.04-13.28,10.77-30.99,10.77-54,0-46.92-17.4-81.45-51.38-102.7-41.02-24.79-61.32-67.29-61.32-127.49,0-34.53,4.14-61.97,12.85-83.22,8.29-20.36,20.3-30.99,35.63-30.99,18.23,0,33.15,13.28,44.75,38.96l14.92-34.53h7.04v139.88h-7.87c-8.7-44.27-16.57-74.37-23.62-91.19-9.12-19.48-20.72-30.1-34.81-30.1-22.38,0-33.15,23.02-33.15,67.29,0,39.84,17.82,70.83,54.28,92.07,39.36,24.79,59.25,68.17,59.25,131.03,0,84.99-19.06,127.49-56.35,127.49Z"/>
    <path d="M4597.96,3169.63c-15.75,0-27.35-9.74-35.63-30.1-8.29-19.48-12.43-46.04-12.43-79.68v-294.81h-33.98v-23.02c15.33,0,27.35-17.71,36.46-53.12,7.87-30.99,12.02-69.94,12.02-116.86h12.43v169.98h56.77v23.02h-56.77v266.48c0,64.63,9.94,96.5,29.83,96.5,11.19,0,19.89-13.28,26.1-39.84,4.56-21.25,7.04-46.04,7.04-74.37h7.87c0,104.47-16.57,155.82-49.72,155.82Z"/>
    <path d="M4867.7,3145.72c-6.63,10.62-12.84,15.94-19.06,15.94-18.65,0-29.83-26.56-33.56-79.68-6.63,24.79-15.33,46.04-25.69,62.86-10.77,16.82-20.72,24.79-29.83,24.79-39.78,0-59.25-34.53-59.25-103.58,0-44.27,13.67-83.22,41.85-115.09,19.47-22.13,43.51-38.95,71.68-51.35v-64.63c0-28.33-2.9-49.58-7.87-63.74-5.39-12.39-14.5-19.48-27.35-19.48-8.29,0-16.16,3.54-23.62,9.74-9.94,8.85-14.5,20.36-14.5,34.53,0,6.2,1.24,14.17,4.56,23.02,2.9,9.74,4.56,18.59,4.56,25.67,0,26.56-6.63,39.84-19.06,39.84-5.8,0-10.36-4.43-13.67-15.05-3.31-9.74-4.97-21.25-4.97-34.53,0-35.41,7.87-62.86,24.45-83.22,12.84-15.05,27.76-23.02,44.34-23.02,39.78,0,60.08,40.73,60.08,120.41v223.1c0,34.53,6.63,51.35,19.89,51.35,2.9,0,5.8-1.77,8.7-7.08,2.9-5.31,4.56-7.97,5.39-7.97,1.66,0,2.9,2.66,2.9,7.97,0,8.85-3.31,18.59-9.94,29.22ZM4813.83,2921.73c-27.35,17.71-45.99,32.76-55.94,46.04-17.4,23.9-26.1,56.66-26.1,97.39,0,24.79,2.9,44.27,9.12,58.43,5.8,15.94,12.84,23.02,20.72,23.02,9.53,0,19.47-10.62,29.83-32.76,9.12-17.71,16.57-40.73,22.38-68.17v-123.95Z"/>
    <path d="M5217.41,3091.72c-19.06-77.02-28.59-156.7-28.59-239.04s9.53-161.13,28.59-239.04c19.89-79.68,45.58-138.11,77.07-177.07v18.59c-25.69,42.5-45.16,101.81-58.42,176.18-12.84,69.06-19.06,142.54-19.06,221.33s6.22,153.16,19.06,221.33c13.26,75.25,32.73,133.68,58.42,176.18v18.59c-31.49-38.96-57.18-97.39-77.07-177.07Z"/>
    <path d="M5670.71,2734.04l-10.77,15.05c-9.12,18.59-21.96,46.04-39.36,83.22-14.92,31.87-29,57.55-41.44,77.91-5.8,8.85-8.7,13.28-9.53,13.28-1.24,0-1.66-.88-1.66-4.43.83-2.66,3.31-9.74,8.29-22.13,10.77-25.67,21.55-54.89,32.73-87.65,16.57-47.81,24.86-80.57,24.86-98.27,0-10.62-3.31-15.94-9.53-15.94-9.12,0-52.62,23.9-130.94,71.71-2.49,84.11-3.31,162.02-3.31,234.61,0,51.35,4.14,84.99,12.43,102.7,8.29,17.71,24.86,26.56,49.72,26.56,20.72,0,38.95-1.77,54.69-7.08,10.36-2.66,19.89-7.08,29-13.28,7.46-4.43,11.19-7.08,12.02-7.08,4.14,0,9.12,4.43,15.75,11.51,6.22,8.85,9.53,16.82,9.53,24.79,0,23.9-29.83,35.41-89.5,35.41h-43.51c-25.69-2.66-44.34-13.28-55.11-33.64-12.43-23.02-18.65-61.97-18.65-117.75,0-3.54,1.66-84.99,5.39-243.47-27.35,18.59-49.72,38.07-67.54,59.32-7.46,8.85-12.85,13.28-15.33,13.28-5.8,0-13.67-9.74-24.03-30.1-10.77-19.48-16.16-34.53-16.16-46.04,0-3.54.83-6.2,2.49-6.2,3.31,4.43,6.63,8.85,10.36,13.28,5.8,7.08,12.02,10.62,17.82,10.62,6.22,0,37.29-15.05,92.81-46.92,1.24-81.45,2.07-139,2.07-172.64,0-27.44-4.56-46.04-12.85-54.89-2.49-1.77-4.56-2.66-6.21-4.43-3.31-1.77-4.97-4.43-4.97-6.2,0-7.08,4.97-10.62,15.75-10.62,6.22,0,14.92,5.31,25.69,15.94,12.43,11.51,18.65,23.02,18.65,33.64,0,1.77-2.07,9.74-5.8,25.67-4.14,15.94-5.8,30.99-5.8,44.27,0,4.43-1.66,43.38-4.14,116.86l120.16-66.4,13.26-13.28c5.8-7.08,9.53-10.62,11.6-10.62,4.14,0,12.02,9.74,23.2,29.22,10.77,19.48,16.57,34.53,16.57,43.38,0,3.54-2.9,8.85-8.7,16.82Z"/>
    <path d="M5861.31,2900.48c-2.9,10.62-6.63,15.05-10.77,15.05-5.8,0-11.19-14.17-15.33-44.27-3.31-23.02-9.53-47.81-18.65-75.25-7.46-22.13-11.19-34.53-11.19-36.3,0-3.54.83-6.2,2.9-6.2,4.97,0,14.5,12.39,29.42,35.41,17.82,29.22,26.93,56.66,26.93,83.22,0,10.62-1.24,20.36-3.31,28.33ZM6045.69,2785.39c-4.97,14.17-7.46,23.02-7.87,26.56-19.47,100.04-38.54,176.18-56.77,227.53-28.18,78.79-62.57,134.57-103.17,169.98-2.9,1.77-5.39,3.54-7.46,3.54-2.49,0-3.73-2.66-3.73-6.2,0-2.66,1.66-6.2,5.39-9.74,59.67-70.83,103.59-190.35,131.76-358.56,7.87-47.81,12.02-78.79,12.02-93.84,0-12.4-2.9-23.02-7.87-33.64-4.97-10.62-7.46-15.94-7.46-16.82,0-4.43,1.66-7.08,4.97-7.08,6.63,0,15.75,9.74,28.18,27.45,11.6,18.59,17.82,34.53,17.82,46.92,0,2.66-2.07,10.62-5.8,23.9ZM5929.26,2840.28c-5.8,0-11.19-15.94-16.16-48.69-6.22-39.84-13.26-69.06-21.55-86.76-2.9-5.31-4.14-9.74-4.14-12.4,0-3.54.83-6.2,3.31-6.2,4.56,0,13.67,10.62,27.76,31.87,16.57,25.67,24.86,51.35,24.86,77.91,0,30.1-4.97,44.27-14.09,44.27Z"/>
    <path d="M6503.14,2800.44l-20.3-7.08c-14.09-4.43-27.35-7.08-40.19-7.08-31.08,0-62.15,1.77-93.23,4.43,18.23,14.17,27.76,28.33,27.76,42.5,0,3.54-1.66,8.85-4.56,15.94-3.31,7.97-5.39,14.17-5.8,17.71-10.77,89.42-26.52,162.02-47.65,216.91-23.2,60.2-53.87,103.58-92.81,132.8-8.29,5.31-13.26,8.85-14.92,8.85-2.9,0-4.14-1.77-4.14-5.31s1.24-7.08,4.14-8.85c34.39-33.64,63.81-83.22,88.26-150.51,25.69-72.6,38.53-146.96,38.53-223.99,0-13.28-3.73-27.45-11.19-43.38-42.26,8.85-72.1,20.36-89.09,34.53-12.43,10.62-19.47,15.94-21.13,15.94-5.8,0-14.5-10.62-25.28-33.64-11.19-21.25-16.57-38.07-16.57-50.46,0-4.43.83-7.08,3.31-7.08,16.57,20.36,29,30.1,38.12,30.1l121.41-24.79,102.76-17.71c4.14,0,10.36-3.54,18.65-8.85,7.87-5.31,12.84-7.97,14.5-7.97,4.97,0,12.43,7.08,22.38,21.25,9.53,15.05,14.5,27.44,14.5,38.07,0,12.39-2.49,17.71-7.46,17.71ZM6426.48,2587.96c-20.72,7.08-47.65,14.17-80.38,21.25s-54.28,10.62-65.05,10.62c-14.92,0-27.35-9.74-37.71-30.99-8.29-15.05-12.02-26.56-12.02-34.53,0-3.54,1.24-5.31,3.73-5.31,16.99,18.59,31.49,27.45,43.09,27.45,34.81,0,75-9.74,119.75-30.1,1.66,0,4.56-3.54,9.12-8.85,4.14-4.43,7.87-7.08,10.36-7.08,4.14,0,9.12,3.54,15.75,10.62,6.63,7.97,9.94,15.94,9.94,23.02,0,12.39-5.8,20.36-16.57,23.9Z"/>
    <path d="M7127.56,2688.89c-21.96-5.31-44.75-8.85-68.37-8.85-9.12,0-24.03,1.77-45.16,3.54,0,121.29.83,224.87,3.31,310.75l2.07,73.48.83,23.9c0,29.22-3.73,56.66-10.77,82.34-6.63,22.13-12.43,33.64-17.4,33.64-2.49,0-5.8-7.97-9.94-23.02-5.8-17.71-9.12-28.33-9.94-30.1-3.31-6.2-10.36-17.71-21.55-33.64l-5.39-7.97c-11.6-15.94-17.4-25.67-17.4-28.33,0-3.54.83-6.2,2.9-6.2,1.66,1.77,8.29,7.08,19.47,15.05,13.67,10.62,24.03,15.05,30.66,15.05,8.29,0,12.84-11.51,12.84-36.3l-.83-141.65-.83-172.64c-53.04,139.88-112.7,247.01-178.59,322.26-9.12,10.62-14.5,15.05-16.57,15.05-2.49,0-3.31-1.77-3.31-5.31,0-2.66,1.66-6.2,4.97-10.62,24.03-30.1,54.28-84.11,91.16-160.25,42.68-88.53,72.93-164.67,91.16-229.3-40.61,10.62-75.41,24.79-103.59,41.61-15.75,9.74-24.86,14.17-27.35,14.17-5.8,0-14.09-9.74-24.86-29.22-10.77-18.59-15.75-33.64-15.75-46.04,0-5.31.83-7.97,3.31-7.97,14.92,15.94,26.1,23.9,33.98,23.9,9.12,0,56.77-9.74,143.78-29.22-.83-20.36-1.24-38.95-2.07-54.89-1.66-38.95-3.73-62.86-5.8-72.6-4.14-16.82-11.19-25.67-21.13-25.67-2.49,0-3.31-1.77-3.31-6.2,0-6.2,4.97-9.74,14.92-9.74,9.12,0,19.89,5.31,32.32,15.94,12.02,10.62,18.23,21.25,18.23,31.87l-4.97,28.33c-3.31,18.59-4.97,36.3-4.97,53.12v34.53l38.95-7.97c14.92-3.54,27.35-8.85,38.12-15.05l12.02-7.08c4.14,0,10.36,7.97,19.06,22.13,8.7,15.05,13.26,25.67,13.26,30.99,0,9.74-2.49,14.17-7.46,14.17Z"/>
    <path d="M7311.53,2900.48c-2.9,10.62-6.63,15.05-10.77,15.05-5.8,0-11.19-14.17-15.33-44.27-3.31-23.02-9.53-47.81-18.65-75.25-7.46-22.13-11.19-34.53-11.19-36.3,0-3.54.83-6.2,2.9-6.2,4.97,0,14.5,12.39,29.42,35.41,17.82,29.22,26.93,56.66,26.93,83.22,0,10.62-1.24,20.36-3.31,28.33ZM7495.92,2785.39c-4.97,14.17-7.46,23.02-7.87,26.56-19.47,100.04-38.53,176.18-56.77,227.53-28.18,78.79-62.57,134.57-103.17,169.98-2.9,1.77-5.39,3.54-7.46,3.54-2.49,0-3.73-2.66-3.73-6.2,0-2.66,1.66-6.2,5.39-9.74,59.67-70.83,103.59-190.35,131.76-358.56,7.87-47.81,12.02-78.79,12.02-93.84,0-12.4-2.9-23.02-7.87-33.64-4.97-10.62-7.46-15.94-7.46-16.82,0-4.43,1.66-7.08,4.97-7.08,6.63,0,15.75,9.74,28.18,27.45,11.6,18.59,17.82,34.53,17.82,46.92,0,2.66-2.07,10.62-5.8,23.9ZM7379.48,2840.28c-5.8,0-11.19-15.94-16.16-48.69-6.21-39.84-13.26-69.06-21.55-86.76-2.9-5.31-4.14-9.74-4.14-12.4,0-3.54.83-6.2,3.31-6.2,4.56,0,13.67,10.62,27.76,31.87,16.57,25.67,24.86,51.35,24.86,77.91,0,30.1-4.97,44.27-14.09,44.27Z"/>
    <path d="M7873.39,2942.1c-5.8,0-11.6-7.08-17.82-23.02-31.49-75.25-65.47-125.72-101.1-150.51,0,17.71,0,53.12.41,105.35,0,53.12.41,90.3.41,110.67,0,33.64.42,83.22,2.07,147.85,0,49.58-5.39,74.37-15.33,74.37-4.97,0-9.12-11.51-13.26-34.53-3.31-19.48-4.97-36.3-4.97-48.69l2.49-35.41c2.49-40.73,4.14-162.9,4.14-366.53,0-10.62-.83-52.23-2.07-124.83-.83-23.9-1.66-40.73-2.9-49.58-2.07-10.62-5.8-19.48-11.6-25.67-9.12-8.85-13.26-14.17-13.26-17.71,0-6.2,3.32-9.74,10.36-9.74,9.94,0,21.55,5.31,34.81,15.94,12.43,10.62,19.06,22.13,19.06,32.76,0,3.54-1.24,9.74-3.73,16.82-2.49,7.97-3.73,14.17-3.73,18.59,0,2.66-.83,29.22-1.66,79.68-.83,50.46-1.24,82.34-1.24,95.62,30.25,8.85,56.77,25.67,79.56,50.46,33.98,38.07,51.38,73.48,51.38,105.35,0,22.13-4.14,32.76-12.02,32.76Z"/>
    <path d="M8251.69,3115.62c25.69-86.76,43.09-146.96,51.38-179.72,14.5-58.43,26.93-124.83,37.71-197.43,5.39-38.07,8.29-65.51,8.29-83.22,0-12.39-2.9-23.9-8.29-32.76-5.39-7.97-7.87-13.28-7.87-15.94,0-3.54,2.07-6.2,7.04-6.2,7.46,0,16.99,8.85,29,24.79,12.02,16.82,18.23,32.76,18.23,46.92,0,4.43-1.66,10.62-4.56,17.71-3.73,9.74-5.8,15.94-6.22,18.59l-9.94,53.12c-15.33,77.91-29.83,140.77-43.92,188.58-17.4,60.2-38.54,114.21-63.4,162.9-2.9,5.31-4.56,7.97-5.39,7.97-1.66,0-2.07-1.77-2.07-5.31ZM8560.38,3095.26c-7.46,0-12.84-18.59-16.16-55.78-13.26-152.28-42.68-292.16-87.84-421.42-3.31-8.85-4.97-14.17-4.97-15.94,0-2.66.41-4.43,1.66-4.43s4.56,5.31,10.36,15.05c24.86,45.15,49.72,108.01,74.17,189.46,26.52,90.3,39.78,162.02,39.78,216.02s-5.8,77.02-16.99,77.02ZM8581.92,2649.05c-7.46,15.94-16.57,23.9-26.52,23.9-10.77,0-19.47-7.08-26.52-23.02-7.46-15.05-10.77-33.64-10.77-56.66s3.31-41.61,10.77-57.55c7.04-15.05,15.75-23.02,26.52-23.02s19.06,7.97,26.52,23.02c7.04,15.94,10.77,35.41,10.77,57.55s-3.73,40.72-10.77,55.78ZM8574.05,2553.44c-4.97-10.62-11.19-16.82-18.65-16.82s-14.09,6.2-19.06,16.82c-4.97,10.62-7.46,23.9-7.46,39.84s2.49,29.22,7.87,39.84c4.97,10.62,11.19,15.94,18.65,15.94,7.04,0,13.26-5.31,18.23-15.94,4.97-10.62,7.87-23.9,7.87-39.84s-2.49-29.22-7.46-39.84Z"/>
    <path d="M8973.48,3184.68c-5.8,0-11.19-11.51-15.75-33.64-8.29-37.18-20.3-79.68-36.46-127.49-19.47-55.78-39.78-103.58-61.32-144.31-49.31,143.42-108.56,246.12-178.17,308.1-2.07,1.77-4.14,2.66-5.8,2.66s-2.49-.88-2.49-2.66c0-3.54,1.24-6.2,4.14-9.74,47.24-60.2,89.5-136.34,127.21-227.53,37.29-91.19,66.3-190.35,87.84-298.36,2.49-12.39,3.73-23.02,3.73-32.76,0-12.39-3.73-19.48-10.77-19.48-14.09,0-36.05,6.2-65.05,16.82-23.2,8.85-41.85,18.59-55.94,28.33l-12.02,13.28c-5.39,6.2-9.53,8.85-12.43,8.85-5.8,0-13.26-10.62-23.2-33.64-9.94-22.13-14.5-39.84-14.5-52.23,0-3.54.83-5.31,2.49-5.31l10.36,16.82c7.87,10.62,16.57,15.05,25.69,15.05,8.29,0,33.15-5.31,75-15.94l67.95-18.59c2.49,0,6.63-3.54,12.02-10.62,4.97-5.31,7.87-8.85,9.53-8.85,3.32,0,9.53,9.74,19.47,28.33,9.12,19.48,14.09,31.87,14.09,38.07,0,5.31-2.9,12.39-7.87,23.02-6.63,12.39-10.36,21.25-11.19,26.56-15.75,71.71-34.81,139-57.18,202.74,28.18,37.18,53.04,75.25,73.75,114.21,31.49,60.2,47.65,112.44,47.65,156.7,0,27.45-3.73,41.61-10.77,41.61Z"/>
    <path d="M9373.74,2644.62c-4.97,13.28-7.87,22.13-8.7,26.56-14.92,75.25-33.15,147.85-54.69,216.91,11.6,19.48,21.55,39.84,30.25,61.09,11.6,30.1,17.82,56.66,17.82,77.91s-3.73,30.99-10.36,30.99c-4.56,0-10.77-11.51-18.23-36.3-12.02-36.3-23.2-66.4-33.56-91.19-43.51,123.06-95.71,213.36-157.04,270.91-14.92,14.17-25.69,21.25-31.49,21.25-1.66,0-2.07-.89-2.07-1.77,0-2.66,2.49-6.2,7.46-10.62,63.81-61.97,119.75-166.44,166.98-311.64-25.69-49.58-48.48-83.22-68.78-102.7-4.14-3.54-6.22-6.2-6.22-8.85,0-1.77.83-3.54,2.49-3.54,3.31,0,13.26,7.08,29,20.36,18.23,15.94,36.88,35.41,55.11,58.43,15.75-54,28.18-107.12,38.12-159.36,5.8-32.76,9.12-52.23,9.12-57.55,0-16.82-4.56-25.67-12.84-25.67-2.49,0-13.26,4.43-32.73,13.28-19.89,8.85-34.39,12.39-43.51,12.39-4.14,0-9.12-4.43-14.5-15.05-27.35,92.07-65.47,180.61-114.36,266.48-4.97,8.85-8.7,12.39-12.02,12.39-2.07,0-2.9-1.77-2.9-5.31s1.66-7.97,4.97-13.28c17.4-27.45,40.61-84.11,69.2-169.1,28.18-84.99,42.68-143.42,42.68-175.29,0-10.62-1.66-18.59-4.14-24.79-1.24-1.77-4.56-7.08-10.36-14.17-1.66-1.77-2.07-2.66-2.07-4.43,0-5.31,2.49-7.97,7.87-7.97,7.87,0,16.99,7.08,27.76,19.48,11.6,14.17,17.4,29.22,17.4,44.27,0,1.77-1.66,7.08-4.97,15.05-4.14,8.85-6.63,14.17-6.63,15.05l-6.63,23.02c3.31,4.43,6.21,6.2,9.53,6.2,16.99,0,40.19-8.85,70.03-28.33,4.97-2.66,9.94-7.08,15.33-14.17,4.14-5.31,7.04-7.97,8.7-7.97,3.32,0,10.36,8.85,20.72,24.79,9.94,15.94,15.33,27.45,15.33,32.76,0,1.77-2.49,8.85-7.04,19.48Z"/>
    <path d="M9539.9,3091.72c-19.89,79.68-45.58,138.11-77.07,177.07v-18.59c25.28-42.5,44.75-100.93,58.84-176.18,12.43-68.17,18.65-141.65,18.65-221.33s-6.21-153.16-18.65-222.22c-14.09-74.37-33.56-132.8-58.84-175.3v-18.59c31.49,38.96,57.18,97.39,77.07,177.07,19.06,77.91,28.59,157.59,28.59,239.04s-9.53,162.02-28.59,239.04Z"/>
    <path d="M9711.44,3240.45v-140.77h48.48v-416.1h66.71v556.87h-115.19ZM9806.74,2726.07h-26.93v415.22h-48.48v58.43h75.41v-473.65Z"/>
    <path d="M10274.12,3189.99c-33.56,0-60.91-9.74-81.63-29.22-29.83-26.56-44.33-71.71-44.33-134.57,0-45.15,10.36-87.65,31.9-126.6,12.43-23.02,32.32-48.69,59.67-78.79-9.94-26.56-14.5-95.62-14.5-208.05,0-30.99-2.07-54-5.8-69.06-2.49-9.74-5.8-16.82-9.94-22.13-4.56-3.54-6.63-6.2-6.63-7.97,0-7.97,2.49-12.4,7.87-12.4,7.87,0,16.99,4.43,27.35,12.4,12.43,10.62,18.65,23.02,18.65,37.18,0,2.66-1.24,8.85-3.73,17.71-3.73,14.17-5.39,46.92-5.39,99.16,0,67.29,3.73,111.55,12.02,131.91,21.13-16.82,50.55-40.72,88.26-72.6,8.29-7.08,12.84-15.94,12.84-24.79,0-3.54-.83-7.97-2.07-13.28-1.66-5.31-2.07-7.97-2.07-9.74,0-5.31,1.24-7.97,4.14-7.97,7.46,0,14.92,7.97,22.79,22.13,7.46,15.94,11.19,30.99,11.19,46.92,0,12.39-6.63,22.13-19.06,29.22-62.57,34.53-104.42,61.09-125.55,78.79-57.18,49.58-85.77,106.24-85.77,169.98,0,46.92,12.84,80.57,38.54,100.04,17.82,14.17,39.78,21.25,66.3,21.25,24.03,0,45.17-2.66,63.81-9.74,11.6-3.54,23.62-8.85,35.63-16.82,9.53-6.2,15.33-9.74,17.82-9.74,5.8,0,11.19,3.54,16.16,10.62,4.97,7.08,7.46,16.82,7.46,28.33,0,31.87-45.58,47.81-135.91,47.81Z"/>
    <path d="M10635.43,2682.69l-13.26,68.17c-19.89,102.7-39.36,191.23-58.42,266.48-6.63,26.56-12.43,39.84-17.4,39.84-7.04,0-10.36-14.17-10.36-43.38,0-12.39,2.49-26.56,7.87-42.5,4.14-12.4,8.7-24.79,13.67-37.18,14.5-42.5,33.56-123.06,56.77-242.58-15.75,6.2-26.52,8.85-32.73,8.85-10.36,0-21.13-7.08-32.73-22.13-11.6-14.17-17.4-26.56-17.4-36.3,0-3.54.83-6.2,2.49-6.2,3.73,5.31,7.87,9.74,12.02,13.28,8.29,8.85,16.99,12.39,26.1,12.39,12.43,0,29.42-3.54,50.14-12.39,9.12-49.58,13.67-83.22,13.67-100.04,0-10.62-3.73-19.48-10.36-28.33-7.04-7.97-10.36-13.28-10.36-15.94,0-5.31,2.49-8.85,7.87-8.85,7.46,0,16.16,3.54,26.1,10.62,12.43,8.85,18.65,19.48,18.65,31.87,0,3.54-1.66,9.74-4.97,17.71-4.14,10.62-7.04,19.48-7.87,25.67-2.49,12.39-6.22,30.99-11.19,57.55,8.7-2.66,18.65-9.74,29.83-22.13,9.94-10.62,16.16-15.94,18.23-15.94,3.32,0,7.46,3.54,12.84,8.85,4.97,5.31,7.87,11.51,7.87,17.71,0,14.17-25.69,31.87-77.07,54.89ZM10844.68,2762.37l-14.5-12.39c-9.53-8.85-18.65-13.28-26.93-13.28-12.02,0-22.38,7.08-31.08,21.25-9.94,15.94-14.92,36.3-14.92,60.2,0,21.25,4.97,90.3,15.33,208.05,15.75,11.51,31.49,25.67,47.24,43.38,22.38,26.56,33.98,49.58,33.98,69.94,0,15.94-4.97,23.9-14.09,23.9-2.49,0-11.19-11.51-26.1-34.53-17.82-26.56-31.08-45.15-39.78-54.89-2.07,86.76-25.69,129.26-70.85,129.26-18.65,0-34.39-7.97-47.65-23.02-16.57-18.59-24.86-46.04-24.86-82.34,0-65.51,22.79-99.16,68.78-99.16,16.16,0,32.73,4.43,50.14,12.4-.83-10.62-3.73-42.5-7.87-94.73-3.73-41.61-5.39-68.17-5.39-79.68,0-34.53,6.63-61.97,20.72-82.34,8.29-12.39,22.79-23.9,42.68-35.41,2.9-1.77,4.56-5.31,4.56-10.62,0-12.39-8.29-25.67-24.03-39.84-11.6-9.74-22.38-16.82-32.73-21.25-3.73-.89-5.39-3.54-5.39-7.08,0-6.2,4.97-9.74,15.33-9.74,19.06,0,38.54,8.85,59.25,25.67,25.69,22.13,38.95,49.58,38.95,83.22,0,15.94-3.73,23.02-10.77,23.02ZM10751.04,3056.3c-21.55-17.71-42.68-26.56-63.81-26.56-30.66,0-45.99,21.25-45.99,63.74,0,23.02,7.04,39.84,21.96,52.23,10.77,9.74,22.79,14.17,35.22,14.17,16.99,0,29.42-5.31,37.71-16.82,9.94-14.17,14.92-38.96,14.92-74.37v-12.39Z"/>
    <path d="M11181.55,3063.39c-15.75,54-43.09,98.27-81.63,133.68-25.28,23.02-43.51,34.53-54.69,34.53-3.73,0-5.39-2.66-5.39-7.97,0-4.43,2.49-7.97,7.46-10.62,16.16-9.74,32.73-24.79,50.14-46.04,29.83-36.3,50.97-84.11,63.81-143.42,10.77-51.35,16.57-118.63,16.57-200.08,0-151.39-12.85-227.53-38.54-227.53-20.72,0-38.95,49.58-55.52,148.74-14.09,83.22-21.13,153.16-21.13,209.82,0,4.43,0,10.62.41,19.48v19.48c0,9.74-1.24,18.59-3.73,26.56-2.49,8.85-5.8,12.39-9.94,12.39-12.85,0-23.2-24.79-30.66-75.25-5.8-37.18-8.7-72.6-8.7-106.24,0-54,3.73-115.09,11.6-183.26l11.6-102.7c0-15.94-4.97-31.87-14.09-46.04-2.49-3.54-4.97-7.08-7.46-12.39,0-5.31,1.66-7.97,5.39-7.97,7.46,0,16.16,8.85,26.93,26.56,10.77,18.59,16.16,35.41,16.16,50.46,0,7.97-2.07,20.36-5.8,36.3-3.31,12.39-6.21,23.9-8.7,36.3-10.77,53.12-16.16,112.44-16.16,177.07,0,20.36.83,40.73,2.9,60.2,2.9,30.1,7.04,44.27,12.43,44.27,2.07,0,4.14-10.62,6.63-31.87,9.12-88.53,18.23-155.82,27.35-200.97,17.4-87.65,38.53-131.91,63.81-131.91s41.44,35.41,52.21,105.35c7.04,47.81,10.77,103.58,10.77,169.1,0,95.62-8.29,169.98-24.03,223.99Z"/>
    <path d="M11656.81,3175.82c-4.14,0-12.43-8.85-25.28-27.45-22.79-31.87-48.48-58.43-77.48-81.45v10.62c0,49.58-7.46,84.99-21.96,104.47-11.6,15.05-29.83,23.02-53.87,23.02-19.47,0-36.05-7.97-49.31-22.13-17.4-18.59-26.1-46.92-26.1-84.99,0-65.51,26.52-99.16,80.38-99.16,12.43,0,28.18,4.43,46.82,11.51l-2.49-170.87c-32.32,7.97-60.5,11.51-84.53,11.51s-43.09-13.28-55.52-39.84c-8.29-16.82-12.43-31.87-12.43-45.15,0-2.66.83-4.43,2.49-4.43,16.16,33.64,37.29,50.46,63.81,50.46,24.45,0,53.04-3.54,85.36-12.39l-2.07-123.95c-21.55,7.08-38.95,9.74-51.79,9.74-15.33,0-28.59-8.85-40.19-26.56-9.12-13.28-13.26-23.9-13.26-32.76,0-2.66.83-4.43,2.9-4.43,4.14,5.31,8.29,10.62,12.84,15.94,9.12,10.62,19.89,15.05,31.49,15.05,16.57,0,35.63-3.54,57.59-12.39l-.41-41.61c0-35.41-4.97-61.09-14.92-76.14-.41,0-3.31-2.66-8.29-7.97-4.14-3.54-6.21-6.2-6.21-7.97,0-5.31,2.49-8.85,7.46-8.85,7.87,0,18.23,4.43,30.66,13.28,14.92,10.62,22.38,23.02,22.38,35.41,0,3.54-1.66,11.51-4.56,24.79-2.9,13.28-4.14,24.79-4.14,33.64v25.67l21.96-11.51c5.8-3.54,12.85-10.62,21.13-19.48,5.8-6.2,9.94-9.74,11.6-9.74,3.31,0,7.04,2.66,11.6,7.97,4.56,5.31,7.04,11.51,7.04,17.71,0,9.74-5.39,17.71-15.33,23.9-15.75,10.62-35.22,20.36-58.01,29.22l-.42,125.72c28.18-8.85,48.48-18.59,60.91-29.22l14.92-15.94c7.46-7.97,12.02-12.39,13.26-12.39,4.97,0,10.77,2.66,16.57,7.97,6.63,7.08,10.36,15.05,10.36,23.9s-6.63,17.71-19.06,25.67c-24.86,15.94-57.18,30.1-96.13,40.72l6.21,185.92c41.02,23.02,73.34,50.46,96.96,82.34,12.84,17.71,19.47,34.53,19.47,50.46,0,15.05-4.14,22.13-12.43,22.13ZM11530.43,3050.99c-23.2-13.28-43.92-20.36-62.15-20.36-36.46,0-54.69,22.13-54.69,66.4,0,24.79,7.46,44.27,23.2,56.66,11.6,9.74,24.03,14.17,38.12,14.17,18.23,0,31.49-4.43,39.78-15.05,10.77-13.28,16.16-38.07,16.16-75.25l-.42-26.56Z"/>
    <path d="M12049.19,2995.22c-35.22,136.34-82.87,203.63-142.54,203.63-56.35,0-84.11-67.29-84.11-203.63,0-52.23,1.66-130.14,5.39-234.61,3.31-103.58,5.39-157.59,5.39-162.02,0-25.67-6.22-43.38-18.65-53.12-4.56-3.54-6.63-6.2-6.63-9.74,0-10.62,4.56-15.94,13.67-15.94,8.29,0,18.23,7.08,29,21.25,11.6,15.94,17.82,31.87,17.82,47.81,0,1.77-1.24,9.74-3.73,23.02-2.49,13.28-4.14,22.13-4.56,25.67-9.94,102.7-14.92,218.68-14.92,347.93,0,53.12,3.73,92.07,11.6,115.09,9.12,28.33,25.28,42.5,49.31,42.5,30.25,0,59.25-21.25,87.43-65.51,25.69-40.73,45.99-91.19,60.91-153.16,2.9-12.39,5.39-18.59,7.46-18.59,1.66,0,2.9,3.54,2.9,10.62,0,12.39-5.39,38.07-15.75,78.79Z"/>
    <path d="M12366.17,2670.3c-17.82,13.28-41.02,25.67-70.03,38.07-8.7,67.29-19.06,140.77-30.66,218.68-11.6,72.6-22.79,145.19-33.56,217.79-4.97,31.87-10.77,47.81-17.4,47.81-4.56,0-8.29-7.97-10.77-23.9-2.49-12.39-3.31-24.79-3.31-36.3,0-8.85,2.49-23.9,8.29-44.27l12.02-43.38c19.06-92.07,36.46-200.97,52.62-326.69-15.33,5.31-26.93,7.97-35.22,7.97-12.43,0-23.2-7.97-32.73-25.67-8.29-14.17-12.43-26.56-12.43-37.18,0-3.54.83-5.31,2.9-5.31,14.09,18.59,26.93,27.45,38.54,27.45,9.94,0,24.45-3.54,44.34-11.51,7.04-61.97,10.77-104.47,10.77-128.37,0-15.05-4.97-27.44-14.5-37.18-1.66-1.77-3.31-3.54-4.97-7.08,0-6.2,2.07-9.74,7.04-9.74,7.46,0,16.99,5.31,27.76,15.94,12.43,12.39,19.06,24.79,19.06,38.07,0,4.43-1.66,10.62-4.14,19.48-3.31,10.62-5.39,18.59-6.21,23.02-3.73,19.48-7.46,45.15-11.6,76.14,14.09-7.08,26.1-14.17,35.63-23.02,2.07-1.77,6.21-7.08,12.43-15.05,4.14-6.2,7.46-9.74,9.94-9.74,3.31,0,7.46,3.54,12.84,9.74,4.97,7.08,7.87,13.28,7.87,19.48,0,9.74-4.97,17.71-14.5,24.79ZM12448.63,3194.41c-77.07,0-115.19-40.72-115.19-123.06,0-26.56,4.14-53.12,12.43-78.79,7.04-21.25,11.6-32.76,14.09-32.76,1.24,0,2.07,2.66,2.07,6.2-.83,2.66-3.31,10.62-6.63,23.9-4.56,17.71-6.63,34.53-6.63,51.35,0,37.18,9.12,64.63,27.35,81.45,13.26,12.39,29.83,17.71,50.14,17.71,12.02,0,31.49-4.43,58.01-14.17,4.14,0,9.53,3.54,15.75,10.62,5.8,7.08,8.7,15.05,8.7,23.9,0,22.13-20.3,33.64-60.08,33.64ZM12474.32,2786.28c-15.33,6.2-31.49,23.9-48.07,52.23l-9.12,15.05c-1.24,0-1.66-.89-1.66-3.54s1.66-8.85,4.97-17.71c9.53-26.56,14.5-42.5,14.5-47.81,0-11.51-7.87-17.71-23.2-17.71-16.57,0-35.22,8.85-56.35,25.67-1.66,0-2.49-.89-2.49-4.43,0-2.66,1.24-6.2,4.56-10.62,26.52-37.18,56.77-55.78,90.33-55.78,8.7,0,16.99,3.54,24.86,8.85,10.36,8.85,15.75,20.36,15.75,35.41,0,10.62-4.97,16.82-14.09,20.36Z"/>
    <path d="M12692.26,3141.29c-9.12,19.48-20.3,28.33-32.73,28.33s-23.62-8.85-32.32-28.33c-9.12-18.59-13.26-41.61-13.26-69.06s4.14-49.58,13.26-69.06c8.7-19.48,19.47-29.22,32.32-29.22s23.62,9.74,32.73,29.22c8.7,19.48,13.26,42.5,13.26,69.06s-4.56,50.46-13.26,69.06ZM12683.15,3022.66c-6.63-14.17-14.5-21.25-23.62-21.25s-16.99,7.08-23.2,21.25c-6.63,14.17-9.53,30.1-9.53,49.58s2.9,36.3,9.53,49.58c6.22,14.17,14.09,20.36,23.2,20.36s16.99-6.2,23.62-20.36c6.21-13.28,9.53-30.1,9.53-49.58s-3.31-35.41-9.53-49.58Z"/>
    <path d="M757.36,4155.89c-12.84,26.56-35.22,70.83-67.13,133.69l4.14-.89c3.31,0,7.46,3.54,12.43,8.85,4.56,5.31,7.04,11.51,7.04,17.71,0,1.77-.41,5.31-1.24,12.39-.83,7.08-1.24,13.28-1.24,17.71-1.66,28.33-2.49,64.63-2.49,110.67,0,67.29.83,147.85,2.9,240.81,0,39.84-4.14,60.2-11.6,60.2-4.97,0-9.94-9.74-14.5-27.45-4.14-15.94-6.22-30.1-6.22-42.5l2.49-35.41c1.66-21.25,2.49-39.84,2.49-54.89l.41-46.04c0-29.22.41-50.46.41-63.74,0-10.62,0-31.87.41-65.51v-58.43c0-19.48-2.49-36.3-7.04-52.23-14.92,30.1-35.22,61.97-60.5,96.5-25.69,35.41-49.31,64.63-70.85,85.88-14.5,14.17-22.79,21.25-25.28,21.25-2.07,0-2.9-.88-2.9-3.54,0-3.54,1.24-6.2,3.73-9.74,75.83-92.96,139.64-205.4,191.85-336.43,15.75-38.95,23.62-66.4,23.62-80.56,0-7.08-1.66-13.28-4.97-19.48l-7.04-10.62c0-3.54,1.66-6.2,5.39-6.2,5.8,0,14.09,9.74,24.86,28.33,9.94,19.48,15.33,33.64,15.33,44.27,0,3.54-4.97,15.94-14.5,35.41Z"/>
    <path d="M1190.35,4193.96c-4.97,13.28-7.87,22.13-8.7,26.56-14.92,75.25-33.15,147.85-54.69,216.91,11.6,19.48,21.55,39.84,30.25,61.09,11.6,30.1,17.82,56.66,17.82,77.91s-3.73,30.99-10.36,30.99c-4.56,0-10.77-11.51-18.23-36.3-12.02-36.3-23.2-66.4-33.56-91.19-43.51,123.06-95.72,213.36-157.04,270.91-14.92,14.17-25.69,21.25-31.49,21.25-1.66,0-2.07-.89-2.07-1.77,0-2.66,2.49-6.2,7.46-10.62,63.81-61.97,119.75-166.44,166.98-311.64-25.69-49.58-48.48-83.22-68.78-102.7-4.14-3.54-6.22-6.2-6.22-8.85,0-1.77.83-3.54,2.49-3.54,3.31,0,13.26,7.08,29,20.36,18.23,15.94,36.88,35.41,55.11,58.43,15.75-54,28.18-107.12,38.12-159.36,5.8-32.76,9.12-52.23,9.12-57.55,0-16.82-4.56-25.67-12.84-25.67-2.49,0-13.26,4.43-32.73,13.28-19.89,8.85-34.39,12.39-43.51,12.39-4.14,0-9.12-4.43-14.5-15.05-27.35,92.07-65.47,180.61-114.36,266.48-4.97,8.85-8.7,12.39-12.02,12.39-2.07,0-2.9-1.77-2.9-5.31s1.66-7.97,4.97-13.28c17.4-27.45,40.61-84.11,69.2-169.1,28.18-84.99,42.68-143.42,42.68-175.29,0-10.62-1.66-18.59-4.14-24.79-1.24-1.77-4.56-7.08-10.36-14.17-1.66-1.77-2.07-2.66-2.07-4.43,0-5.31,2.49-7.97,7.87-7.97,7.87,0,16.99,7.08,27.76,19.48,11.6,14.17,17.4,29.22,17.4,44.27,0,1.77-1.66,7.08-4.97,15.05-4.14,8.85-6.63,14.17-6.63,15.05l-6.63,23.02c3.31,4.43,6.22,6.2,9.53,6.2,16.99,0,40.19-8.85,70.03-28.33,4.97-2.66,9.94-7.08,15.33-14.17,4.14-5.31,7.04-7.97,8.7-7.97,3.31,0,10.36,8.85,20.72,24.79,9.94,15.94,15.33,27.45,15.33,32.76,0,1.77-2.49,8.85-7.04,19.48Z"/>
    <path d="M1421.56,4178.91c-2.49,13.28-3.31,25.67-3.31,36.3v217.79c0,38.96-4.14,58.43-12.43,58.43-4.56,0-9.12-7.97-13.26-24.79-4.14-14.17-6.22-27.45-6.22-38.07,0-4.43.83-15.94,2.9-35.41,2.49-23.9,3.73-82.33,3.73-175.29,0-52.23-2.07-82.34-6.22-91.19-.41,0-2.49-2.66-6.22-7.97-3.73-5.31-5.39-8.85-5.39-10.62,0-6.2,3.31-9.74,9.94-9.74,7.04,0,15.33,6.2,25.28,18.59,9.53,13.28,14.5,24.79,14.5,33.64,0,5.31-1.24,15.05-3.31,28.33ZM1569.48,4111.63c-2.49,9.74-3.31,18.59-3.31,26.56,0,26.56,0,65.51.83,117.75.83,53.12,1.24,90.3,1.24,112.44,0,120.41-14.09,210.71-41.44,270.91-23.2,50.46-64.22,92.96-122.65,129.26-.83,0-2.49.89-4.56.89-2.9,0-4.14-2.66-4.14-7.08,0-2.66,1.66-5.31,5.39-7.97,92.81-70.83,139.64-193,139.64-367.41v-116.86c-.41-61.97-.41-101.81-.41-117.75,0-44.27-6.22-75.25-18.65-92.07-4.14-5.31-6.22-8.85-6.22-11.51,0-7.08,2.07-10.62,7.04-10.62,7.04,0,16.99,6.2,29.42,16.82,14.09,12.39,21.55,24.79,21.55,37.18,0,3.54-1.24,10.62-3.73,19.48Z"/>
    <path d="M2045.16,4171.83c-6.63,4.43-10.36,7.97-12.02,10.62-67.95,109.78-104,163.79-108.97,163.79-2.49,0-3.31-.89-3.31-4.43s1.24-8.85,4.14-14.17c10.77-19.48,24.45-49.58,41.44-88.53,21.13-47.81,31.91-77.91,31.91-90.3s-4.14-19.48-12.02-19.48c-18.23,0-46.41,6.2-84.94,18.59-39.78,13.28-71.68,26.56-94.89,39.84-.83.89-6.22,5.31-16.99,12.39-7.46,6.2-12.84,8.85-16.16,8.85-4.97,0-13.67-12.39-26.52-37.18-13.26-23.9-19.47-40.73-19.47-51.35,0-6.2.83-9.74,2.9-9.74,4.97,7.08,10.36,13.28,15.75,18.59,9.94,11.51,19.06,16.82,27.35,16.82,3.73,0,74.58-15.94,212.56-48.69,2.9,0,7.04-3.54,12.84-9.74,5.8-5.31,9.94-8.85,12.43-8.85,2.9,0,9.94,11.51,21.55,34.53,11.19,23.9,16.99,38.95,16.99,46.04,0,6.2-1.66,10.62-4.56,12.39ZM1909.25,4322.33c-2.49,10.62-3.73,17.71-3.73,21.25-8.29,123.95-29.42,223.1-63.4,296.59-12.84,27.44-29.42,54-49.72,80.56-18.65,23.02-30.66,35.41-36.05,35.41-2.49,0-3.73-1.77-3.73-5.31s1.24-7.08,3.73-8.85c34.39-35.41,62.98-92.96,86.19-173.52,22.79-79.68,34.39-161.13,34.39-244.35,0-23.02-5.8-40.72-16.99-52.23-4.14-3.54-5.8-7.08-5.8-11.51,0-7.08,3.73-11.51,12.02-11.51,6.63,0,15.33,5.31,26.93,15.94,12.84,12.4,19.47,24.79,19.47,36.3,0,4.43-1.24,11.51-3.31,21.25Z"/>
    <path d="M2458.68,4162.98c-19.47-3.54-33.56-6.2-41.85-6.2-34.39,0-63.81,31.87-88.26,95.62-23.2,60.2-34.81,127.49-34.81,201.86,0,127.49,30.66,202.74,91.99,224.87,15.33,5.31,23.2,20.36,23.2,44.27,0,16.82-6.22,25.67-18.23,25.67-27.35,0-51.79-19.48-74.17-57.55-29-49.58-43.09-119.52-43.09-210.71,0-69.06,8.29-133.68,25.28-193.89,16.57-60.2,39.36-105.35,67.95-135.46-66.3,21.25-117.26,47.81-153.72,78.79l-14.92,17.71c-6.63,8.85-12.02,12.4-15.33,12.4-6.22,0-14.92-10.62-26.52-31.87-11.6-21.25-17.4-38.07-17.4-50.46,0-5.31.83-7.97,3.31-7.97,3.31,4.43,7.04,8.85,10.77,13.28,6.63,8.85,13.67,12.39,20.3,12.39,1.66,0,31.49-11.51,89.5-35.41,64.64-25.67,111.46-43.38,140.88-52.23,1.66,0,5.39-2.66,10.36-6.2s8.7-5.31,11.6-5.31c5.8,0,14.5,6.2,25.28,18.59,10.77,12.39,16.16,23.9,16.16,34.53,0,8.85-2.9,13.28-8.29,13.28ZM2432.57,4387.85c-4.56,0-8.29-4.43-11.6-14.17-11.6-32.76-22.79-59.32-33.15-78.79-4.97-8.85-7.04-14.17-7.04-17.71s1.24-6.2,4.56-6.2c9.12,0,20.72,9.74,34.81,27.45,15.33,20.36,23.2,40.73,23.2,60.2s-3.73,29.22-10.77,29.22ZM2466.55,4325.88c-4.56,0-8.29-3.54-10.77-12.39-10.77-30.99-21.96-54.89-33.15-70.83-5.8-7.97-8.7-13.28-8.7-15.94,0-5.31,1.24-7.97,4.14-7.97,10.77,0,22.79,7.97,36.05,23.02,14.92,17.71,22.38,36.3,22.38,56.66,0,18.59-3.31,27.45-9.94,27.45Z"/>
    <path d="M2634.36,4433l-20.3,120.41c-4.14,26.56-7.04,56.66-8.7,92.07-1.66,37.18-2.9,61.97-4.56,73.48-1.24,7.08-3.73,11.51-7.46,11.51-11.6,0-20.72-30.99-26.52-93.85-4.56-43.38-6.63-85.88-6.63-126.6,0-102.7,6.63-208.94,20.3-317.83,4.56-37.18,7.04-59.32,7.04-65.51,0-17.71-2.9-32.76-7.87-46.92-2.49-5.31-5.39-11.51-8.29-20.36,0-3.54,1.24-6.2,3.73-6.2,4.97,0,12.43,10.62,22.38,30.1,11.6,23.9,17.82,47.81,17.82,70.83,0,6.2-2.49,20.36-7.46,43.38-3.73,15.05-7.04,30.1-10.36,45.15-14.09,68.17-21.13,147.85-21.13,239.92,0,65.51,4.14,97.39,13.26,97.39,3.31,0,16.57-51.35,39.78-154.05,1.66-7.08,2.9-11.51,3.73-11.51,1.66,0,2.9,1.77,2.9,5.31,0,2.66-.83,7.08-1.66,13.28ZM2864.74,4704.8c-3.31,0-7.87-3.54-12.84-12.39l-11.19-20.36c-14.92-24.79-29-46.04-42.26-63.74-.41,46.92-6.22,80.56-17.4,100.04-10.36,18.59-26.52,28.33-48.89,28.33-17.4,0-32.32-7.97-44.75-23.02-15.33-17.71-22.79-44.27-22.79-78.79s6.22-59.32,19.47-78.79c11.6-17.71,25.28-26.56,41.44-26.56s33.15,4.43,49.72,13.28l-2.9-254.09c-24.86,7.08-44.34,10.62-58.42,10.62-17.4,0-31.49-10.62-41.44-32.76-7.46-15.05-10.77-27.45-10.77-38.07,0-5.31,1.24-8.85,3.73-8.85l10.36,20.36c7.46,12.39,15.75,17.71,24.86,17.71,28.59,0,52.21-2.66,71.27-8.85l-.83-100.04c-.41-19.48-1.66-34.53-4.14-44.27-3.31-11.51-9.12-20.36-17.4-26.56-4.97-3.54-7.46-7.08-7.46-10.62,0-5.31,3.73-8.85,11.6-8.85,6.63,0,15.75,5.31,27.35,15.94,12.84,12.39,19.47,23.9,19.47,35.41,0,3.54-1.24,11.51-3.73,22.13-2.49,11.51-3.73,21.25-3.73,29.22l-.83,79.68c7.46-3.54,16.16-7.97,25.28-13.28,2.49-1.77,7.46-7.08,14.5-15.94,5.8-7.97,9.94-12.39,12.43-12.39,4.14,0,8.7,3.54,14.5,8.85,5.8,6.2,8.7,13.28,8.7,20.36,0,19.48-25.28,37.18-75.41,54,0,85.88,1.66,177.95,5.39,277.11,28.18,23.02,50.55,51.35,67.12,84.11,6.22,12.39,9.53,25.67,9.53,39.84s-3.31,21.25-9.53,21.25ZM2775.65,4582.62c-16.16-14.17-33.56-21.25-52.21-21.25-13.26,0-24.45,5.31-32.73,15.05-11.19,12.39-16.57,31.87-16.57,57.55,0,23.02,6.22,39.84,19.06,51.35,9.12,8.85,19.89,13.28,32.32,13.28,33.15,0,50.14-28.33,50.14-85.88v-30.1Z"/>
    <path d="M2968.74,4664.96c25.69-86.76,43.09-146.96,51.38-179.72,14.5-58.43,26.93-124.83,37.71-197.43,5.39-38.07,8.29-65.51,8.29-83.22,0-12.39-2.9-23.9-8.29-32.76-5.39-7.97-7.87-13.28-7.87-15.94,0-3.54,2.07-6.2,7.04-6.2,7.46,0,16.99,8.85,29,24.79,12.02,16.82,18.23,32.76,18.23,46.92,0,4.43-1.66,10.62-4.56,17.71-3.73,9.74-5.8,15.94-6.22,18.59l-9.94,53.12c-15.33,77.91-29.83,140.77-43.92,188.58-17.4,60.2-38.53,114.21-63.4,162.9-2.9,5.31-4.56,7.97-5.39,7.97-1.66,0-2.07-1.77-2.07-5.31ZM3277.43,4644.59c-7.46,0-12.85-18.59-16.16-55.78-13.26-152.28-42.68-292.16-87.84-421.42-3.31-8.85-4.97-14.17-4.97-15.94,0-2.66.41-4.43,1.66-4.43s4.56,5.31,10.36,15.05c24.86,45.15,49.72,108.01,74.17,189.46,26.52,90.3,39.78,162.02,39.78,216.02s-5.8,77.02-16.99,77.02ZM3298.98,4198.39c-7.46,15.94-16.57,23.9-26.52,23.9-10.77,0-19.47-7.08-26.52-23.02-7.46-15.05-10.77-33.64-10.77-56.66s3.31-41.61,10.77-57.55c7.04-15.05,15.75-23.02,26.52-23.02s19.06,7.97,26.52,23.02c7.04,15.94,10.77,35.41,10.77,57.55s-3.73,40.72-10.77,55.78ZM3291.1,4102.77c-4.97-10.62-11.19-16.82-18.65-16.82s-14.09,6.2-19.06,16.82c-4.97,10.62-7.46,23.9-7.46,39.84s2.49,29.22,7.87,39.84c4.97,10.62,11.19,15.94,18.65,15.94,7.04,0,13.26-5.31,18.23-15.94s7.87-23.9,7.87-39.84-2.49-29.22-7.46-39.84Z"/>
    <path d="M3690.54,4734.01c-5.8,0-11.19-11.51-15.75-33.64-8.29-37.18-20.3-79.68-36.46-127.49-19.47-55.78-39.78-103.58-61.32-144.31-49.31,143.42-108.56,246.12-178.17,308.1-2.07,1.77-4.14,2.66-5.8,2.66s-2.49-.88-2.49-2.66c0-3.54,1.24-6.2,4.14-9.74,47.24-60.2,89.5-136.34,127.21-227.53,37.29-91.19,66.3-190.35,87.84-298.36,2.49-12.39,3.73-23.02,3.73-32.76,0-12.39-3.73-19.48-10.77-19.48-14.09,0-36.05,6.2-65.05,16.82-23.2,8.85-41.85,18.59-55.94,28.33l-12.02,13.28c-5.39,6.2-9.53,8.85-12.43,8.85-5.8,0-13.26-10.62-23.2-33.64-9.94-22.13-14.5-39.84-14.5-52.23,0-3.54.83-5.31,2.49-5.31l10.36,16.82c7.87,10.62,16.57,15.05,25.69,15.05,8.29,0,33.15-5.31,75-15.94l67.95-18.59c2.49,0,6.63-3.54,12.02-10.62,4.97-5.31,7.87-8.85,9.53-8.85,3.31,0,9.53,9.74,19.47,28.33,9.12,19.48,14.09,31.87,14.09,38.07,0,5.31-2.9,12.39-7.87,23.02-6.63,12.39-10.36,21.25-11.19,26.56-15.75,71.71-34.81,139-57.18,202.74,28.18,37.18,53.04,75.25,73.75,114.21,31.49,60.2,47.65,112.44,47.65,156.7,0,27.45-3.73,41.61-10.77,41.61Z"/>
    <path d="M4090.8,4193.96c-4.97,13.28-7.87,22.13-8.7,26.56-14.92,75.25-33.15,147.85-54.69,216.91,11.6,19.48,21.55,39.84,30.25,61.09,11.6,30.1,17.82,56.66,17.82,77.91s-3.73,30.99-10.36,30.99c-4.56,0-10.77-11.51-18.23-36.3-12.02-36.3-23.2-66.4-33.56-91.19-43.51,123.06-95.72,213.36-157.04,270.91-14.92,14.17-25.69,21.25-31.49,21.25-1.66,0-2.07-.89-2.07-1.77,0-2.66,2.49-6.2,7.46-10.62,63.81-61.97,119.75-166.44,166.98-311.64-25.69-49.58-48.48-83.22-68.78-102.7-4.14-3.54-6.22-6.2-6.22-8.85,0-1.77.83-3.54,2.49-3.54,3.31,0,13.26,7.08,29,20.36,18.23,15.94,36.88,35.41,55.11,58.43,15.75-54,28.18-107.12,38.12-159.36,5.8-32.76,9.12-52.23,9.12-57.55,0-16.82-4.56-25.67-12.84-25.67-2.49,0-13.26,4.43-32.73,13.28-19.89,8.85-34.39,12.39-43.51,12.39-4.14,0-9.12-4.43-14.5-15.05-27.35,92.07-65.47,180.61-114.36,266.48-4.97,8.85-8.7,12.39-12.02,12.39-2.07,0-2.9-1.77-2.9-5.31s1.66-7.97,4.97-13.28c17.4-27.45,40.61-84.11,69.2-169.1,28.18-84.99,42.68-143.42,42.68-175.29,0-10.62-1.66-18.59-4.14-24.79-1.24-1.77-4.56-7.08-10.36-14.17-1.66-1.77-2.07-2.66-2.07-4.43,0-5.31,2.49-7.97,7.87-7.97,7.87,0,16.99,7.08,27.76,19.48,11.6,14.17,17.4,29.22,17.4,44.27,0,1.77-1.66,7.08-4.97,15.05-4.14,8.85-6.63,14.17-6.63,15.05l-6.63,23.02c3.31,4.43,6.22,6.2,9.53,6.2,16.99,0,40.19-8.85,70.03-28.33,4.97-2.66,9.94-7.08,15.33-14.17,4.14-5.31,7.04-7.97,8.7-7.97,3.31,0,10.36,8.85,20.72,24.79,9.94,15.94,15.33,27.45,15.33,32.76,0,1.77-2.49,8.85-7.04,19.48Z"/>
    <path d="M4416.89,4617.15c-11.19,88.53-25.69,132.8-43.51,132.8-3.31,0-7.46-11.51-12.84-32.76-2.49-7.97-16.16-31.87-41.02-71.71-3.31-4.43-5.39-8.85-7.04-12.39,0-3.54.41-5.31,2.07-5.31l19.47,18.59c13.26,12.39,23.62,17.71,31.9,17.71,12.43,0,21.55-18.59,27.35-56.66,9.53-61.97,14.5-139.88,14.5-233.73,0-79.68-13.67-120.41-41.02-120.41-8.29,0-19.47,4.43-33.98,11.51-21.13,152.28-45.58,292.16-72.93,417.88-6.63,30.1-12.02,45.15-15.75,45.15-9.94,0-14.5-16.82-14.5-51.35,0-7.08,2.07-16.82,7.04-30.99,3.31-9.74,7.04-19.48,10.77-29.22,20.72-64.63,41.44-177.07,62.15-336.43-18.23,13.28-31.49,25.67-40.19,36.3l-11.6,15.94c-5.39,7.08-9.12,10.62-11.6,10.62-6.63,0-14.09-8.85-22.38-27.45s-12.43-34.53-12.43-47.81c0-4.43.83-7.08,3.31-7.08,2.9,5.31,5.8,9.74,8.7,14.17,5.8,8.85,12.02,12.39,17.82,12.39,9.94,0,21.96-4.43,36.88-13.28l35.63-24.79c7.87-66.4,12.02-115.09,12.02-145.19,0-14.17-2.49-26.56-7.04-35.41l-10.77-19.48c0-5.31,1.66-7.97,5.39-7.97,6.63,0,16.16,7.08,28.59,19.48,13.67,14.17,20.72,27.45,20.72,38.95,0,3.54-2.07,10.62-6.22,21.25-4.14,11.51-7.04,21.25-7.87,30.1-2.49,15.94-6.21,45.15-11.6,87.65,14.09-5.31,24.86-8.85,31.91-8.85,24.03,0,41.02,18.59,50.55,55.78,7.04,28.33,10.77,69.94,10.77,125.72,0,67.29-4.56,136.34-13.26,206.28ZM4534.98,4488.78c-2.49,18.59-6.22,27.45-10.77,27.45-2.49,0-6.22-4.43-10.77-14.17l-9.53-21.25c-3.31-4.43-9.53-10.62-19.47-17.71-8.7-5.31-12.84-9.74-12.84-12.39s2.49-4.43,7.46-6.2c3.31,0,6.63,0,9.94-.89,13.67-4.43,20.72-18.59,20.72-43.38,0-32.76-7.04-72.6-20.72-119.52-12.43-42.5-25.69-75.25-39.78-98.27-4.14-6.2-5.8-10.62-5.8-13.28,0-3.54.83-5.31,3.31-5.31,5.8,0,15.33,12.39,29.42,35.41,18.23,31.87,33.15,69.06,43.92,110.67,11.6,45.15,17.82,91.19,17.82,139,0,14.17-1.24,27.45-2.9,39.84ZM4519.65,4172.71c-4.56,0-8.29-4.43-11.6-14.17-11.6-32.76-22.79-59.32-33.15-78.79-4.97-8.85-7.04-14.17-7.04-17.71s1.24-6.2,4.56-6.2c9.12,0,20.72,9.74,34.81,27.45,15.33,20.36,23.2,40.73,23.2,60.2s-3.73,29.22-10.77,29.22ZM4553.63,4110.74c-4.56,0-8.29-3.54-10.77-12.39-10.77-30.99-21.96-54.89-33.15-70.83-5.8-7.97-8.7-13.28-8.7-15.94,0-5.31,1.24-7.97,4.14-7.97,10.77,0,22.79,7.97,36.05,23.02,14.92,17.71,22.38,36.3,22.38,56.66,0,18.59-3.31,27.45-9.94,27.45Z"/>
    <path d="M4650.58,4131.99h79.56c9.12-44.27,17.4-90.3,24.86-139.88,8.29,5.31,16.57,11.51,24.86,16.82,9.12,5.31,14.09,10.62,14.09,15.05,0,7.97-2.49,12.39-6.63,12.39-5.39,1.77-7.87,4.43-7.87,7.97-6.63,31.87-12.84,61.09-19.06,87.65h152.9c2.49-5.31,7.04-16.82,14.09-34.53,6.63-16.82,10.77-25.67,12.43-25.67,4.56,0,11.6,11.51,21.13,32.76,9.12,22.13,14.09,35.41,14.09,39.84,0,8.85-2.49,12.39-6.63,12.39h-213.81c-11.6,47.81-23.62,90.3-36.05,127.49h162.01c2.49-5.31,5.39-11.51,8.7-16.82,4.56-7.97,7.87-12.39,10.36-12.39,1.66,0,6.63,6.2,14.92,17.71,7.87,15.94,12.02,26.56,12.02,31.87,0,7.08-2.07,13.28-6.22,17.71-4.97,5.31-7.04,10.62-7.04,15.94v410.79c0,20.36-5.39,35.41-15.75,46.04-8.29,8.85-15.33,13.28-21.13,13.28-7.46,0-11.19-7.97-11.19-23.02-1.66-16.82-19.89-31.87-53.87-45.15l2.07-15.05c25.69,7.08,46.82,10.62,62.98,10.62,7.04,0,10.77-7.08,10.77-19.48v-131.03h-175.27v202.74c0,5.31-1.66,8.85-4.56,11.51-4.56,3.54-9.12,5.31-13.26,5.31-5.39,0-7.87-5.31-7.87-15.94.83-24.79,1.66-50.46,1.66-76.14v-347.05l-8.7,18.59c-16.99,41.61-42.26,85.88-76.24,133.69l-4.97-12.39c41.85-80.57,74.17-159.36,97.37-236.38,10.36-34.53,20.3-71.71,29.42-112.44h-74.17c-20.3,0-34.81,1.77-43.09,5.31l-7.87-38.07c11.6,5.31,28.59,7.97,50.97,7.97ZM4887.18,4422.38v-114.21h-175.27v114.21h175.27ZM4887.18,4561.37v-114.21h-175.27v114.21h175.27Z"/>
    <path d="M5192.96,4011.58c9.12,5.31,13.67,9.74,13.67,15.05s-2.9,8.85-8.29,9.74c-4.14,1.77-6.22,4.43-7.04,7.08-9.12,29.22-18.65,55.78-28.59,78.79h140.47c3.73-7.97,7.46-15.05,11.6-21.25,3.31-5.31,5.8-8.85,8.29-8.85,2.07,0,7.04,7.97,15.33,22.13,7.87,15.05,12.02,24.79,12.02,30.1,0,7.08-2.49,11.51-6.63,13.28-4.97,2.66-8.7,7.97-11.6,16.82-19.89,53.12-42.26,102.7-66.71,147.85-24.45,46.92-54.69,88.53-90.33,125.72-6.63,7.08-13.67,14.17-20.3,19.48h147.92l10.36-19.48c2.9-6.2,5.39-9.74,7.46-9.74,2.49,0,7.87,7.08,15.33,19.48,7.46,13.28,11.6,23.02,11.6,28.33s-2.07,10.62-6.22,16.82c-3.73,5.31-5.39,11.51-5.39,17.71v199.2c0,15.94.83,37.18,2.49,63.74,0,5.31-2.07,8.85-5.8,12.39-6.22,3.54-11.6,5.31-16.16,5.31-4.14,0-6.22-5.31-6.22-15.05v-45.15h-182.31v47.81c0,4.43-1.66,7.97-4.14,11.51-5.8,2.66-10.36,4.43-14.09,4.43-4.97,0-7.46-5.31-7.46-15.94.83-16.82,1.66-33.64,1.66-49.58v-232.84c-25.69,17.71-54.69,32.76-86.19,46.04l-2.07-14.17c29.83-16.82,58.84-38.95,87.84-65.51l-1.24-34.53c6.22,5.31,12.43,11.51,18.65,18.59,23.2-22.13,46.41-47.81,68.78-76.14,45.99-61.09,84.94-139,116.85-234.61h-154.14c-7.46,15.94-14.92,30.99-22.38,43.38-24.45,46.04-56.77,91.19-96.96,134.57l-4.56-12.39c24.03-31.87,50.55-77.91,78.73-137.23,22.79-46.92,43.09-106.24,60.91-178.84,9.12,7.08,17.4,12.39,24.86,15.94ZM5171.42,4268.33c4.14,4.43,9.12,10.62,14.92,19.48,6.63,12.4,10.36,26.56,10.36,41.61,0,9.74-1.24,17.71-3.73,23.9-2.49,8.85-5.39,12.39-8.7,12.39-4.97,0-9.53-6.2-13.67-20.36-13.26-47.81-29.42-84.11-48.06-107.12l3.31-7.08c16.99,9.74,32.32,22.13,45.58,37.18ZM5310.23,4716.31v-223.99h-182.31v223.99h182.31Z"/>
    <path d="M5612.7,4739.32c-33.56,0-60.91-9.74-81.63-29.22-29.83-26.56-44.34-71.71-44.34-134.57,0-45.15,10.36-87.65,31.91-126.6,12.43-23.02,32.32-48.69,59.67-78.79-9.94-26.56-14.5-95.62-14.5-208.05,0-30.99-2.07-54-5.8-69.06-2.49-9.74-5.8-16.82-9.94-22.13-4.56-3.54-6.63-6.2-6.63-7.97,0-7.97,2.49-12.39,7.87-12.39,7.87,0,16.99,4.43,27.35,12.39,12.43,10.62,18.65,23.02,18.65,37.18,0,2.66-1.24,8.85-3.73,17.71-3.73,14.17-5.39,46.92-5.39,99.16,0,67.29,3.73,111.55,12.02,131.91,21.13-16.82,50.55-40.72,88.26-72.6,8.29-7.08,12.85-15.94,12.85-24.79,0-3.54-.83-7.97-2.07-13.28-1.66-5.31-2.07-7.97-2.07-9.74,0-5.31,1.24-7.97,4.14-7.97,7.46,0,14.92,7.97,22.79,22.13,7.46,15.94,11.19,30.99,11.19,46.92,0,12.39-6.63,22.13-19.06,29.22-62.57,34.53-104.42,61.09-125.55,78.79-57.18,49.58-85.77,106.24-85.77,169.98,0,46.92,12.85,80.57,38.54,100.04,17.82,14.17,39.78,21.25,66.3,21.25,24.03,0,45.16-2.66,63.81-9.74,11.6-3.54,23.62-8.85,35.63-16.82,9.53-6.2,15.33-9.74,17.82-9.74,5.8,0,11.19,3.54,16.16,10.62,4.97,7.08,7.46,16.82,7.46,28.33,0,31.87-45.58,47.81-135.91,47.81Z"/>
    <path d="M5986.44,4511.8c-10.77,57.55-16.16,96.5-16.16,115.98,0,22.13.41,44.27,1.66,65.51,0,19.48-3.73,29.22-10.77,29.22-7.46,0-16.99-12.39-28.18-38.07-28.59-63.74-42.68-147.85-42.68-252.32,0-30.99,1.66-75.25,5.8-132.8,3.73-57.55,5.8-92.07,5.8-104.47,0-25.67-2.9-47.81-8.7-65.51-2.49-6.2-5.39-13.28-7.87-22.13,0-4.43,1.24-7.08,4.14-7.08,7.04,0,16.57,12.39,28.18,36.3,11.6,24.79,17.4,44.27,17.4,60.2,0,4.43-3.73,21.25-10.77,50.46-9.94,41.61-14.92,99.16-14.92,171.75,0,44.27,2.49,84.99,7.87,122.18,6.22,46.04,14.5,69.06,24.86,69.06,4.56,0,14.09-29.22,28.59-87.65l25.69-109.78c.83-4.43,2.07-7.08,3.73-7.08s2.49,2.66,2.49,6.2c0,9.74-5.39,43.38-16.16,100.04ZM6175.8,4525.96c-2.9,18.59-7.04,27.45-12.85,27.45-10.36,0-15.33-16.82-15.33-50.46,0-47.81-5.39-99.16-15.75-153.16-11.6-54.89-25.28-97.39-41.85-126.6-4.56-7.08-6.63-12.39-6.63-15.94s1.24-6.2,3.73-6.2c6.63,0,16.57,10.62,30.25,30.99,19.06,30.1,33.98,66.4,44.75,110.67,10.77,44.27,16.57,92.07,16.57,141.65,0,15.94-1.24,29.22-2.9,41.61Z"/>
    <path d="M6531.73,4618.92c-17.82,56.66-42.68,100.04-74.58,131.91-18.23,17.71-30.66,26.56-37.29,26.56-3.31,0-4.56-1.77-4.56-4.43,0-3.54,1.66-7.08,5.39-10.62,32.32-31.87,58.42-76.14,78.31-136.34,20.3-61.97,30.66-131.03,30.66-205.4,0-50.46-2.9-86.76-8.29-108.9-7.46-30.1-21.96-46.04-43.09-46.04-16.57,0-33.56,11.51-50.97,33.64-14.09,19.48-26.93,42.5-37.71,69.06-4.14,9.74-7.46,14.17-10.36,14.17-9.94,0-20.3-11.51-31.08-36.3-9.12-20.36-13.67-35.41-13.67-45.15,0-5.31,1.24-8.85,3.73-8.85l7.04,13.28c5.39,8.85,12.02,13.28,19.47,13.28,5.39,0,23.62-14.17,54.28-42.5,30.25-28.33,54.28-43.38,72.51-43.38,23.2,0,40.61,20.36,52.21,60.2,9.53,33.64,14.5,76.14,14.5,128.37,0,75.25-9.12,140.77-26.52,197.43ZM6511.42,4132.87c-19.06,0-36.88,6.2-53.45,16.82-6.21,5.31-12.84,11.51-20.3,16.82-1.66,0-2.49-1.77-2.49-5.31,0-1.77,2.9-7.08,9.53-17.71,6.63-8.85,9.94-15.94,9.94-20.36,0-3.54-2.49-7.97-7.04-11.51-16.57-11.51-29.83-24.79-39.78-40.72-8.7-12.39-12.85-23.02-12.85-30.99,0-3.54.83-6.2,2.9-6.2,3.31,7.08,13.67,17.71,30.25,31.87,11.19,7.97,34.81,11.51,70.85,11.51,4.97,0,10.36,4.43,16.16,12.39,5.8,8.85,8.7,17.71,8.7,28.33s-4.14,15.05-12.43,15.05Z"/>
    <path d="M6856.58,4710.99c-87.01,0-130.11-58.43-130.11-176.18,0-25.67,2.49-50.46,7.46-75.25,4.14-21.25,7.87-31.87,10.77-31.87,2.49,0,4.14,2.66,4.14,6.2-2.49,8.85-4.56,16.82-6.63,25.67-4.14,17.71-5.8,33.64-5.8,47.81,0,100.93,38.12,151.39,114.36,151.39,28.18,0,55.11-5.31,80.8-17.71l36.05-18.59c4.97,0,10.36,3.54,16.57,8.85,7.04,7.08,10.77,15.05,10.77,23.9,0,37.18-46.41,55.78-138.39,55.78ZM6932.82,4182.45c-21.55,0-47.65,14.17-78.31,40.72-12.43,10.62-25.69,26.56-39.36,46.04l-18.23,25.67c-2.49,0-3.73-2.66-3.73-7.97,0-4.43,7.46-19.48,22.79-44.27s25.69-40.73,31.49-46.92c-14.92,2.66-24.45,3.54-27.76,3.54-19.06,0-35.63-12.39-49.72-38.96-10.77-19.48-15.75-34.53-15.75-45.15,0-4.43.83-7.08,2.49-7.08l16.16,25.67c12.02,15.94,26.52,23.02,43.92,23.02,21.96,0,44.75-4.43,68.37-14.17,10.77-5.31,21.55-9.74,32.32-15.05,5.8,0,12.02,5.31,18.65,14.17,6.63,8.85,9.94,17.71,9.94,25.67,0,10.62-4.56,15.05-13.26,15.05Z"/>
    <path d="M7270.1,4739.32c-33.56,0-60.91-9.74-81.63-29.22-29.83-26.56-44.34-71.71-44.34-134.57,0-45.15,10.36-87.65,31.91-126.6,12.43-23.02,32.32-48.69,59.67-78.79-9.94-26.56-14.5-95.62-14.5-208.05,0-30.99-2.07-54-5.8-69.06-2.49-9.74-5.8-16.82-9.94-22.13-4.56-3.54-6.63-6.2-6.63-7.97,0-7.97,2.49-12.39,7.87-12.39,7.87,0,16.99,4.43,27.35,12.39,12.43,10.62,18.65,23.02,18.65,37.18,0,2.66-1.24,8.85-3.73,17.71-3.73,14.17-5.39,46.92-5.39,99.16,0,67.29,3.73,111.55,12.02,131.91,21.13-16.82,50.55-40.72,88.26-72.6,8.29-7.08,12.84-15.94,12.84-24.79,0-3.54-.83-7.97-2.07-13.28-1.66-5.31-2.07-7.97-2.07-9.74,0-5.31,1.24-7.97,4.14-7.97,7.46,0,14.92,7.97,22.79,22.13,7.46,15.94,11.19,30.99,11.19,46.92,0,12.39-6.63,22.13-19.06,29.22-62.57,34.53-104.42,61.09-125.55,78.79-57.18,49.58-85.77,106.24-85.77,169.98,0,46.92,12.85,80.57,38.54,100.04,17.82,14.17,39.78,21.25,66.3,21.25,24.03,0,45.16-2.66,63.81-9.74,11.6-3.54,23.62-8.85,35.63-16.82,9.53-6.2,15.33-9.74,17.82-9.74,5.8,0,11.19,3.54,16.16,10.62,4.97,7.08,7.46,16.82,7.46,28.33,0,31.87-45.58,47.81-135.91,47.81Z"/>
    <path d="M7731.68,4617.15c-11.19,88.53-25.69,132.8-43.51,132.8-3.32,0-7.46-11.51-12.85-32.76-2.49-7.97-16.16-31.87-41.02-71.71-3.31-4.43-5.39-8.85-7.04-12.39,0-3.54.41-5.31,2.07-5.31l19.47,18.59c13.26,12.39,23.62,17.71,31.91,17.71,12.43,0,21.55-18.59,27.35-56.66,9.53-61.97,14.5-139.88,14.5-233.73,0-79.68-13.67-120.41-41.02-120.41-8.29,0-19.47,4.43-33.98,11.51-21.13,152.28-45.58,292.16-72.93,417.88-6.63,30.1-12.02,45.15-15.75,45.15-9.94,0-14.5-16.82-14.5-51.35,0-7.08,2.07-16.82,7.04-30.99,3.31-9.74,7.04-19.48,10.77-29.22,20.72-64.63,41.44-177.07,62.15-336.43-18.23,13.28-31.49,25.67-40.19,36.3l-11.6,15.94c-5.39,7.08-9.12,10.62-11.6,10.62-6.63,0-14.09-8.85-22.38-27.45s-12.43-34.53-12.43-47.81c0-4.43.83-7.08,3.32-7.08,2.9,5.31,5.8,9.74,8.7,14.17,5.8,8.85,12.02,12.39,17.82,12.39,9.94,0,21.96-4.43,36.88-13.28l35.63-24.79c7.87-66.4,12.02-115.09,12.02-145.19,0-14.17-2.49-26.56-7.04-35.41l-10.77-19.48c0-5.31,1.66-7.97,5.39-7.97,6.63,0,16.16,7.08,28.59,19.48,13.67,14.17,20.72,27.45,20.72,38.95,0,3.54-2.07,10.62-6.22,21.25-4.14,11.51-7.04,21.25-7.87,30.1-2.49,15.94-6.22,45.15-11.6,87.65,14.09-5.31,24.86-8.85,31.91-8.85,24.03,0,41.02,18.59,50.55,55.78,7.04,28.33,10.77,69.94,10.77,125.72,0,67.29-4.56,136.34-13.26,206.28ZM7849.77,4488.78c-2.49,18.59-6.21,27.45-10.77,27.45-2.49,0-6.22-4.43-10.77-14.17l-9.53-21.25c-3.31-4.43-9.53-10.62-19.47-17.71-8.7-5.31-12.84-9.74-12.84-12.39s2.49-4.43,7.46-6.2c3.32,0,6.63,0,9.94-.89,13.67-4.43,20.72-18.59,20.72-43.38,0-32.76-7.04-72.6-20.72-119.52-12.43-42.5-25.69-75.25-39.78-98.27-4.14-6.2-5.8-10.62-5.8-13.28,0-3.54.83-5.31,3.31-5.31,5.8,0,15.33,12.39,29.42,35.41,18.23,31.87,33.15,69.06,43.92,110.67,11.6,45.15,17.82,91.19,17.82,139,0,14.17-1.24,27.45-2.9,39.84Z"/>
    <path d="M8021.31,4763.23c-4.14,0-5.8-3.54-5.8-9.74,0-5.31,1.66-7.97,4.97-7.97,42.68,0,81.21-15.94,115.19-46.92,41.02-37.18,61.74-90.3,61.74-159.36,0-38.96-6.22-69.06-18.23-90.3-12.43-21.25-27.76-31.87-45.99-31.87-19.89,0-40.61,11.51-61.32,32.76-21.13,23.02-37.29,51.35-48.89,84.99-2.49,8.85-4.56,16.82-6.63,25.67-2.9,11.51-5.8,16.82-9.12,16.82-5.39,0-10.77-9.74-16.16-30.1-5.39-17.71-7.87-32.76-7.87-45.15,0,0,1.66-10.62,5.39-30.99,7.87-44.27,12.02-118.63,12.02-221.33,0-26.56,6.63-47.81,20.72-65.51,10.36-12.39,22.79-21.25,37.71-25.67,19.06-5.31,29-10.62,29-16.82,0-8.85-9.12-22.13-27.35-39.84-16.16-15.05-28.18-23.9-36.46-27.45-4.97-1.77-7.46-4.43-7.46-7.97,0-7.08,2.49-10.62,7.46-10.62,24.86,0,50.14,12.39,75,36.3,9.53,9.74,18.65,21.25,26.93,34.53,10.77,19.48,16.57,36.3,16.57,50.46,0,15.94-4.56,23.02-13.26,23.02-.83,0-6.63-4.43-18.23-14.17-12.02-8.85-22.79-14.17-32.73-14.17-12.02,0-24.03,7.97-36.05,22.13-14.09,17.71-20.72,37.18-20.72,60.2,0,65.51-2.9,140.77-8.7,227.53,0,5.31.83,7.08,2.9,7.08,2.49-2.66,9.53-11.51,21.13-26.56,36.88-46.92,71.68-70.83,104-70.83,24.03,0,43.92,14.17,59.25,40.73,15.75,30.1,24.03,69.94,24.03,120.4,0,140.77-67.95,210.71-203.03,210.71Z"/>
    <path d="M8629.99,4155.89c-12.85,26.56-35.22,70.83-67.13,133.69l4.14-.89c3.32,0,7.46,3.54,12.43,8.85,4.56,5.31,7.04,11.51,7.04,17.71,0,1.77-.41,5.31-1.24,12.39-.83,7.08-1.24,13.28-1.24,17.71-1.66,28.33-2.49,64.63-2.49,110.67,0,67.29.83,147.85,2.9,240.81,0,39.84-4.14,60.2-11.6,60.2-4.97,0-9.95-9.74-14.5-27.45-4.14-15.94-6.21-30.1-6.21-42.5l2.49-35.41c1.66-21.25,2.49-39.84,2.49-54.89l.42-46.04c0-29.22.41-50.46.41-63.74,0-10.62,0-31.87.41-65.51v-58.43c0-19.48-2.49-36.3-7.04-52.23-14.92,30.1-35.22,61.97-60.5,96.5-25.69,35.41-49.31,64.63-70.85,85.88-14.5,14.17-22.79,21.25-25.28,21.25-2.07,0-2.9-.88-2.9-3.54,0-3.54,1.24-6.2,3.73-9.74,75.83-92.96,139.64-205.4,191.84-336.43,15.75-38.95,23.62-66.4,23.62-80.56,0-7.08-1.66-13.28-4.97-19.48l-7.04-10.62c0-3.54,1.66-6.2,5.39-6.2,5.8,0,14.09,9.74,24.86,28.33,9.94,19.48,15.33,33.64,15.33,44.27,0,3.54-4.97,15.94-14.5,35.41Z"/>
    <path d="M9062.99,4193.96c-4.97,13.28-7.87,22.13-8.7,26.56-14.92,75.25-33.15,147.85-54.69,216.91,11.6,19.48,21.55,39.84,30.25,61.09,11.6,30.1,17.82,56.66,17.82,77.91s-3.73,30.99-10.36,30.99c-4.56,0-10.77-11.51-18.23-36.3-12.02-36.3-23.2-66.4-33.56-91.19-43.51,123.06-95.71,213.36-157.04,270.91-14.92,14.17-25.69,21.25-31.49,21.25-1.66,0-2.07-.89-2.07-1.77,0-2.66,2.49-6.2,7.46-10.62,63.81-61.97,119.75-166.44,166.98-311.64-25.69-49.58-48.48-83.22-68.78-102.7-4.14-3.54-6.22-6.2-6.22-8.85,0-1.77.83-3.54,2.49-3.54,3.31,0,13.26,7.08,29,20.36,18.23,15.94,36.88,35.41,55.11,58.43,15.75-54,28.18-107.12,38.12-159.36,5.8-32.76,9.12-52.23,9.12-57.55,0-16.82-4.56-25.67-12.84-25.67-2.49,0-13.26,4.43-32.73,13.28-19.89,8.85-34.39,12.39-43.51,12.39-4.14,0-9.12-4.43-14.5-15.05-27.35,92.07-65.47,180.61-114.36,266.48-4.97,8.85-8.7,12.39-12.02,12.39-2.07,0-2.9-1.77-2.9-5.31s1.66-7.97,4.97-13.28c17.4-27.45,40.61-84.11,69.2-169.1,28.18-84.99,42.68-143.42,42.68-175.29,0-10.62-1.66-18.59-4.14-24.79-1.24-1.77-4.56-7.08-10.36-14.17-1.66-1.77-2.07-2.66-2.07-4.43,0-5.31,2.49-7.97,7.87-7.97,7.87,0,16.99,7.08,27.76,19.48,11.6,14.17,17.4,29.22,17.4,44.27,0,1.77-1.66,7.08-4.97,15.05-4.14,8.85-6.63,14.17-6.63,15.05l-6.63,23.02c3.31,4.43,6.21,6.2,9.53,6.2,16.99,0,40.19-8.85,70.03-28.33,4.97-2.66,9.94-7.08,15.33-14.17,4.14-5.31,7.04-7.97,8.7-7.97,3.32,0,10.36,8.85,20.72,24.79,9.94,15.94,15.33,27.45,15.33,32.76,0,1.77-2.49,8.85-7.04,19.48Z"/>
    <path d="M9294.19,4178.91c-2.49,13.28-3.32,25.67-3.32,36.3v217.79c0,38.96-4.14,58.43-12.43,58.43-4.56,0-9.12-7.97-13.26-24.79-4.14-14.17-6.21-27.45-6.21-38.07,0-4.43.83-15.94,2.9-35.41,2.49-23.9,3.73-82.33,3.73-175.29,0-52.23-2.07-82.34-6.21-91.19-.41,0-2.49-2.66-6.22-7.97-3.73-5.31-5.39-8.85-5.39-10.62,0-6.2,3.32-9.74,9.95-9.74,7.04,0,15.33,6.2,25.28,18.59,9.53,13.28,14.5,24.79,14.5,33.64,0,5.31-1.24,15.05-3.31,28.33ZM9442.11,4111.63c-2.49,9.74-3.32,18.59-3.32,26.56,0,26.56,0,65.51.83,117.75.83,53.12,1.24,90.3,1.24,112.44,0,120.41-14.09,210.71-41.44,270.91-23.2,50.46-64.22,92.96-122.65,129.26-.83,0-2.49.89-4.56.89-2.9,0-4.14-2.66-4.14-7.08,0-2.66,1.66-5.31,5.39-7.97,92.81-70.83,139.64-193,139.64-367.41v-116.86c-.41-61.97-.41-101.81-.41-117.75,0-44.27-6.22-75.25-18.65-92.07-4.14-5.31-6.21-8.85-6.21-11.51,0-7.08,2.07-10.62,7.04-10.62,7.04,0,16.99,6.2,29.42,16.82,14.09,12.39,21.55,24.79,21.55,37.18,0,3.54-1.24,10.62-3.73,19.48Z"/>
    <path d="M9917.79,4171.83c-6.63,4.43-10.36,7.97-12.02,10.62-67.95,109.78-104,163.79-108.97,163.79-2.49,0-3.31-.89-3.31-4.43s1.24-8.85,4.14-14.17c10.77-19.48,24.45-49.58,41.43-88.53,21.13-47.81,31.91-77.91,31.91-90.3s-4.14-19.48-12.02-19.48c-18.23,0-46.41,6.2-84.94,18.59-39.78,13.28-71.68,26.56-94.89,39.84-.83.89-6.22,5.31-16.99,12.39-7.46,6.2-12.84,8.85-16.16,8.85-4.97,0-13.67-12.39-26.52-37.18-13.26-23.9-19.47-40.73-19.47-51.35,0-6.2.83-9.74,2.9-9.74,4.97,7.08,10.36,13.28,15.75,18.59,9.94,11.51,19.06,16.82,27.35,16.82,3.73,0,74.58-15.94,212.56-48.69,2.9,0,7.04-3.54,12.84-9.74,5.8-5.31,9.95-8.85,12.43-8.85,2.9,0,9.94,11.51,21.55,34.53,11.19,23.9,16.99,38.95,16.99,46.04,0,6.2-1.66,10.62-4.56,12.39ZM9781.88,4322.33c-2.49,10.62-3.73,17.71-3.73,21.25-8.29,123.95-29.42,223.1-63.4,296.59-12.84,27.44-29.42,54-49.72,80.56-18.65,23.02-30.66,35.41-36.05,35.41-2.49,0-3.73-1.77-3.73-5.31s1.24-7.08,3.73-8.85c34.39-35.41,62.98-92.96,86.18-173.52,22.79-79.68,34.39-161.13,34.39-244.35,0-23.02-5.8-40.72-16.99-52.23-4.14-3.54-5.8-7.08-5.8-11.51,0-7.08,3.73-11.51,12.02-11.51,6.63,0,15.33,5.31,26.93,15.94,12.84,12.4,19.47,24.79,19.47,36.3,0,4.43-1.24,11.51-3.32,21.25Z"/>
    <path d="M10038.77,4146.15h64.64c1.66-3.54,5.8-12.39,11.6-25.67,4.97-13.28,7.87-20.36,9.53-20.36,3.73,0,9.53,8.85,16.99,25.67,7.46,18.59,11.19,29.22,11.19,32.76,0,7.97-2.07,11.51-5.39,11.51h-108.56c-20.3,0-34.8,2.66-43.51,6.2l-7.46-38.07c11.6,5.31,28.59,7.97,50.96,7.97ZM10054.93,4398.47h35.63c1.66-3.54,4.97-10.62,9.94-22.13,4.97-11.51,7.87-17.71,9.12-17.71,3.32,0,8.29,7.97,15.33,23.02,6.63,15.94,9.94,25.67,9.94,29.22,0,7.97-1.66,11.51-4.56,11.51h-75.41c-20.3,0-34.81,2.66-43.51,6.2l-7.46-38.07c11.6,5.31,28.59,7.97,50.96,7.97ZM10056.59,4273.64h32.32c1.66-2.66,4.97-9.74,9.95-22.13,4.97-11.51,7.87-17.71,9.12-17.71,3.31,0,8.29,7.97,15.33,23.9,6.63,15.94,9.94,24.79,9.94,28.33,0,8.85-1.66,12.39-4.56,12.39h-72.1c-20.3,0-34.81,2.66-43.51,6.2l-7.46-38.07c11.6,5.31,28.59,7.08,50.96,7.08ZM10035.04,4516.22h58.84c2.9-5.31,5.8-11.51,9.12-18.59,2.49-4.43,4.97-7.08,7.04-7.08s6.63,6.2,13.67,17.71c6.22,12.39,9.53,20.36,9.53,23.9,0,5.31-2.07,9.74-5.8,15.05-3.73,5.31-5.39,10.62-5.39,15.94v146.08c0,13.28.41,31.87,2.07,55.78,0,4.43-1.66,7.97-4.97,11.51-5.39,2.66-9.94,4.43-14.09,4.43s-5.8-5.31-5.8-14.17v-39.84h-62.98v54c0,3.54-1.66,7.08-4.56,8.85-4.97,2.66-9.12,4.43-12.43,4.43-4.97,0-7.46-4.43-7.46-13.28.83-15.94,1.66-31.87,1.66-47.81v-175.29c0-21.25-.83-43.38-1.66-64.63,7.46,6.2,15.33,14.17,23.2,23.02ZM10075.65,4049.65c7.04,15.94,10.77,30.1,10.77,43.38,0,9.74-1.66,19.48-4.14,28.33-2.49,8.85-5.39,12.39-8.7,12.39-7.46,0-12.43-10.62-15.33-32.76-4.97-35.41-12.02-64.63-21.96-89.42l4.14-8.85c16.16,15.94,27.76,31.87,35.22,46.92ZM10099.27,4703.03v-162.9h-62.98v162.9h62.98ZM10194.16,4055.85h110.63c1.66-3.54,5.39-11.51,11.19-24.79,4.56-12.39,7.46-18.59,9.12-18.59,3.31,0,8.7,8.85,15.75,25.67,7.46,16.82,11.19,26.56,11.19,30.1,0,8.85-2.07,12.39-5.39,12.39h-105.66l-10.36,131.03h53.04c2.49-6.2,5.8-13.28,9.53-20.36,4.14-7.97,7.04-12.39,9.53-12.39,2.9,0,7.87,6.2,14.92,18.59,6.63,12.39,9.94,20.36,9.94,25.67s-2.07,10.62-5.39,15.94c-4.14,7.08-5.8,12.39-5.8,15.94v146.96h8.7l10.36-22.13c4.56-11.51,7.46-17.71,8.7-17.71,3.32,0,8.29,7.97,15.33,23.02,6.63,15.94,10.36,25.67,10.36,29.22,0,7.97-1.66,11.51-4.97,11.51h-177.34c-20.3,0-34.81,2.66-43.09,6.2l-7.87-38.07c11.6,5.31,28.59,7.97,50.96,7.97h4.97l13.26-166.44h-3.73c-19.06,0-33.56,2.66-43.09,6.2l-7.87-38.07c15.33,5.31,32.32,7.97,50.96,7.97h5.8l10.36-131.03h-24.03c-20.3,0-34.81,2.66-43.51,6.2l-7.46-38.07c11.6,5.31,28.59,7.08,50.97,7.08ZM10191.67,4512.68h102.76l9.53-20.36c2.49-5.31,4.56-8.85,6.63-8.85s6.63,6.2,13.67,17.71c6.63,12.39,9.94,20.36,9.94,24.79s-2.07,8.85-5.39,14.17c-3.31,5.31-4.56,10.62-4.56,15.94v169.98c0,14.17.41,32.76,2.07,56.66,0,3.54-1.66,7.08-4.56,10.62-5.8,2.66-10.36,4.43-14.5,4.43-3.73,0-5.39-4.43-5.39-13.28v-46.92h-111.88v46.92c0,3.54-1.66,6.2-4.56,8.85-4.97,2.66-9.12,4.43-12.43,4.43-4.97,0-7.04-4.43-7.04-13.28.83-15.94,1.24-31.87,1.24-47.81v-185.92c0-21.25-.41-42.5-1.24-63.74,8.29,7.08,16.99,15.05,25.69,25.67ZM10301.89,4713.65v-177.07h-111.88v177.07h111.88ZM10293.6,4402.01v-166.44h-65.05l-13.26,166.44h78.31Z"/>
    <path d="M10722.04,4363.94c-29,19.48-65.05,45.15-107.73,78.79,1.66,53.12,2.9,84.99,2.9,93.84,0,40.73-5.39,60.2-15.75,60.2-7.46,0-10.77-12.39-10.77-38.07l1.24-98.27c-58.01,51.35-86.6,100.93-86.6,149.62,0,30.1,7.04,53.12,21.13,69.06,11.6,14.17,24.86,20.36,39.78,20.36,40.19,0,77.48-7.97,111.46-24.79,14.5,0,21.96,11.51,21.96,32.76,0,15.94-10.36,26.56-30.25,32.76-14.09,3.54-38.12,6.2-71.68,6.2-30.66,0-53.87-7.08-69.2-19.48-24.45-19.48-36.46-56.66-36.46-111.55,0-67.29,33.15-130.14,99.86-188.58-1.66-56.66-12.84-84.99-34.39-84.99-14.09,0-29.83,15.05-47.24,44.27-14.92,24.79-27.35,52.23-37.29,82.33-9.94,30.99-17.82,46.04-23.2,46.04-3.73,0-6.63-5.31-8.29-16.82-1.66-8.85-2.49-17.71-2.49-26.56,0-6.2,3.73-17.71,12.02-34.53,10.77-22.13,17.82-38.07,21.55-48.69,16.16-46.04,32.32-102.7,48.89-170.87-9.53,1.77-19.06,1.77-28.18,1.77-15.75,0-28.18-7.97-37.71-25.67-7.46-12.4-10.77-22.13-10.77-30.99,0-4.43.83-7.08,2.9-7.08,13.67,18.59,29,27.45,46.41,27.45,10.36,0,22.38-.89,36.05-4.43,9.12-41.61,14.09-70.83,14.09-87.65,0-10.62-2.9-20.36-8.29-28.33l-7.87-10.62c0-6.2,1.66-9.74,4.97-9.74,7.04,0,16.16,4.43,26.93,13.28,12.84,10.62,19.47,21.25,19.47,33.64,0,4.43-1.66,9.74-4.56,16.82-4.14,9.74-7.04,16.82-7.87,21.25l-12.02,46.04c23.2-6.2,41.02-14.17,53.87-23.9l12.43-11.51c5.8-5.31,9.53-7.97,11.6-7.97,2.9,0,6.63,3.54,11.6,8.85,4.14,6.2,6.63,12.39,6.63,17.71,0,10.62-5.8,18.59-16.57,23.9-29,15.94-58.84,26.56-90.33,33.64-16.57,61.97-31.49,115.09-44.75,159.36,20.3-40.73,43.09-61.97,67.95-61.97,27.35,0,42.26,32.76,45.58,97.39l40.19-32.76c15.75-13.28,27.76-24.79,36.05-35.41,14.09-16.82,21.13-31.87,21.13-45.15,0-5.31-2.07-12.39-6.22-20.36s-5.8-12.39-5.8-13.28c0-3.54,1.24-6.2,4.14-6.2,7.87,0,16.16,8.85,24.86,26.56,8.7,17.71,13.26,34.53,13.26,52.23,0,12.4-6.22,22.13-18.65,30.1Z"/>
    <path d="M10920.51,4008.93c9.12,5.31,14.09,9.74,14.09,15.05s-2.9,8.85-8.29,10.62c-4.14,1.77-6.63,4.43-7.46,7.08-10.77,75.25-22.38,137.23-34.39,186.8l6.21,2.66c4.14,3.54,6.63,6.2,6.63,7.97,0,7.08-2.49,13.28-6.63,18.59-3.31,2.66-4.56,7.08-4.56,14.17v509.95c0,4.43-1.66,8.85-4.56,12.39-4.97,1.77-9.12,3.54-12.43,3.54-4.97,0-7.46-5.31-7.46-14.17.83-33.64,1.66-66.4,1.66-100.04v-375.38c-13.26,46.04-29,90.3-47.24,133.68l-4.56-13.28c14.5-44.27,30.25-108.01,46.82-189.46,13.67-65.51,25.69-147.85,36.46-247.01,9.53,7.08,18.23,12.39,25.69,16.82ZM10967.74,4118.71h67.95v-68.17c0-17.71-.83-35.41-1.66-54.89,7.87,1.77,15.75,4.43,23.2,6.2,9.53,1.77,14.5,5.31,14.5,10.62,0,4.43-2.49,7.97-6.63,10.62-3.31,1.77-4.97,6.2-4.97,14.17v81.45h82.46l11.19-26.56c4.97-12.39,8.29-19.48,9.94-19.48,3.31,0,9.12,8.85,16.99,25.67,7.46,17.71,11.19,28.33,11.19,31.87,0,8.85-2.07,12.39-5.8,12.39h-125.96v100.04h69.61l9.12-17.71c2.49-5.31,4.97-7.97,7.04-7.97s6.63,6.2,13.67,17.71c6.21,12.39,9.53,20.36,9.53,24.79,0,5.31-2.07,9.74-5.8,14.17-3.73,5.31-5.39,10.62-5.39,15.94v146.08c0,14.17.41,32.76,2.07,56.66,0,4.43-1.66,7.97-4.97,10.62-5.39,3.54-9.94,4.43-14.09,4.43s-5.8-4.43-5.8-14.17v-36.3h-76.24c-2.49,67.29-7.87,119.52-15.75,154.93-2.49,14.17-5.8,26.56-9.94,38.95,10.77,11.51,23.62,21.25,38.54,30.1,28.18,21.25,69.61,37.18,125.13,47.81l-.83,12.39c-7.04,4.43-12.02,14.17-14.5,29.22-2.07,11.51-3.73,17.71-5.39,17.71-10.36,0-31.08-7.97-62.15-23.9-33.98-18.59-60.5-38.07-79.14-58.43-5.8-5.31-11.19-11.51-16.16-18.59-5.8,12.39-11.6,24.79-18.23,35.41-23.2,34.53-53.04,61.09-90.33,78.79l-2.9-10.62c35.63-24.79,63.4-56.66,82.87-96.5,4.56-10.62,8.7-20.36,12.02-30.99-9.12-14.17-16.99-29.22-23.62-46.92-14.5-33.64-26.1-70.83-34.39-113.32l5.8-6.2c18.23,51.35,36.88,91.19,55.94,118.63,2.49,4.43,4.97,7.97,7.87,11.51,3.32-11.51,5.8-23.02,7.46-35.41,6.63-31.87,10.77-76.14,13.26-134.57h-70.85v19.48c0,3.54-1.66,7.08-4.56,9.74-4.97,3.54-9.12,4.43-12.43,4.43-4.97,0-7.04-4.43-7.04-14.17.83-9.74,1.66-20.36,1.66-32.76v-177.07c0-11.51-.83-25.67-1.66-42.5,6.22,5.31,12.43,11.51,18.65,18.59h77.48v-100.04h-67.95c-20.3,0-34.81,2.66-43.09,6.2l-7.87-38.07c11.6,5.31,28.59,7.97,50.96,7.97ZM11035.28,4433c0-18.59.41-38.95.41-60.2v-105.35h-72.1v165.56h71.68ZM11060.14,4372.8c0,22.13-.41,42.5-.41,60.2h75.41v-165.56h-75v105.35Z"/>
    <path d="M11302.12,4059.39h225.82l8.7-20.36c4.56-10.62,7.87-15.94,10.36-15.94,1.66,0,6.63,6.2,14.92,18.59,7.87,15.94,12.02,25.67,12.02,30.99,0,7.97-2.07,14.17-6.22,17.71-4.97,5.31-7.04,10.62-7.04,15.94v635.67c0,20.36-5.8,35.41-16.57,46.04-8.7,8.85-16.16,13.28-21.96,13.28-6.22,0-9.53-7.97-9.53-23.9-1.66-17.71-16.99-33.64-45.99-47.81l2.07-15.05c21.96,8.85,39.78,14.17,53.45,14.17,8.29,0,12.43-6.2,12.43-18.59v-208.05h-105.66v199.2c0,21.25.41,46.04,1.24,75.25,0,5.31-1.66,8.85-4.56,12.39-5.8,3.54-10.77,5.31-14.92,5.31-4.97,0-7.46-5.31-7.46-15.05.83-18.59,1.66-44.27,1.66-77.91v-199.2h-104.83c-.83,23.02-2.07,45.15-3.32,64.63-4.14,49.58-11.6,96.5-22.38,139.88-9.53,33.64-22.38,67.29-38.12,101.81l-5.39-8.85c16.57-55.78,28.18-107.12,33.98-156.7,7.46-60.2,11.19-149.62,11.19-270.03,0-159.36-1.24-273.57-2.9-342.62,12.02,10.62,21.55,20.36,29,29.22ZM11404.88,4478.15v-183.26h-102.76v77.91c0,38.95-.41,73.48-1.24,105.35h104ZM11404.88,4270.98v-186.8h-102.76v186.8h102.76ZM11428.92,4270.98h105.66v-186.8h-105.66v186.8ZM11428.92,4478.15h105.66v-183.26h-105.66v183.26Z"/>
    <path d="M11945.61,4544.55c-35.22,136.34-82.87,203.63-142.54,203.63-56.35,0-84.11-67.29-84.11-203.63,0-52.23,1.66-130.14,5.39-234.61,3.31-103.58,5.39-157.59,5.39-162.02,0-25.67-6.22-43.38-18.65-53.12-4.56-3.54-6.63-6.2-6.63-9.74,0-10.62,4.56-15.94,13.67-15.94,8.29,0,18.23,7.08,29,21.25,11.6,15.94,17.82,31.87,17.82,47.81,0,1.77-1.24,9.74-3.73,23.02-2.49,13.28-4.14,22.13-4.56,25.67-9.94,102.7-14.92,218.68-14.92,347.93,0,53.12,3.73,92.07,11.6,115.09,9.12,28.33,25.28,42.5,49.31,42.5,30.25,0,59.25-21.25,87.43-65.51,25.69-40.73,45.99-91.19,60.91-153.16,2.9-12.39,5.39-18.59,7.46-18.59,1.66,0,2.9,3.54,2.9,10.62,0,12.39-5.39,38.07-15.75,78.79Z"/>
    <path d="M12381.92,4725.16c-4.14,0-12.43-8.85-25.28-27.45-22.79-31.87-48.48-58.43-77.48-81.45v10.62c0,49.58-7.46,84.99-21.96,104.47-11.6,15.05-29.83,23.02-53.87,23.02-19.47,0-36.05-7.97-49.31-22.13-17.4-18.59-26.1-46.92-26.1-84.99,0-65.51,26.52-99.16,80.38-99.16,12.43,0,28.18,4.43,46.82,11.51l-2.49-170.87c-32.32,7.97-60.5,11.51-84.53,11.51s-43.09-13.28-55.52-39.84c-8.29-16.82-12.43-31.87-12.43-45.15,0-2.66.83-4.43,2.49-4.43,16.16,33.64,37.29,50.46,63.81,50.46,24.45,0,53.04-3.54,85.36-12.39l-2.07-123.95c-21.55,7.08-38.95,9.74-51.79,9.74-15.33,0-28.59-8.85-40.19-26.56-9.12-13.28-13.26-23.9-13.26-32.76,0-2.66.83-4.43,2.9-4.43,4.14,5.31,8.29,10.62,12.84,15.94,9.12,10.62,19.89,15.05,31.49,15.05,16.57,0,35.63-3.54,57.59-12.39l-.41-41.61c0-35.41-4.97-61.09-14.92-76.14-.41,0-3.31-2.66-8.29-7.97-4.14-3.54-6.21-6.2-6.21-7.97,0-5.31,2.49-8.85,7.46-8.85,7.87,0,18.23,4.43,30.66,13.28,14.92,10.62,22.38,23.02,22.38,35.41,0,3.54-1.66,11.51-4.56,24.79s-4.14,24.79-4.14,33.64v25.67l21.96-11.51c5.8-3.54,12.85-10.62,21.13-19.48,5.8-6.2,9.94-9.74,11.6-9.74,3.31,0,7.04,2.66,11.6,7.97,4.56,5.31,7.04,11.51,7.04,17.71,0,9.74-5.39,17.71-15.33,23.9-15.75,10.62-35.22,20.36-58.01,29.22l-.42,125.72c28.18-8.85,48.48-18.59,60.91-29.22l14.92-15.94c7.46-7.97,12.02-12.39,13.26-12.39,4.97,0,10.77,2.66,16.57,7.97,6.63,7.08,10.36,15.05,10.36,23.9s-6.63,17.71-19.06,25.67c-24.86,15.94-57.18,30.1-96.13,40.72l6.21,185.92c41.02,23.02,73.34,50.46,96.96,82.34,12.84,17.71,19.47,34.53,19.47,50.46,0,15.05-4.14,22.13-12.43,22.13ZM12255.54,4600.33c-23.2-13.28-43.92-20.36-62.15-20.36-36.46,0-54.69,22.13-54.69,66.4,0,24.79,7.46,44.27,23.2,56.66,11.6,9.74,24.03,14.17,38.12,14.17,18.23,0,31.49-4.43,39.78-15.05,10.77-13.28,16.16-38.07,16.16-75.25l-.42-26.56Z"/>
    <path d="M12774.31,4544.55c-35.22,136.34-82.87,203.63-142.54,203.63-56.35,0-84.11-67.29-84.11-203.63,0-52.23,1.66-130.14,5.39-234.61,3.31-103.58,5.39-157.59,5.39-162.02,0-25.67-6.22-43.38-18.65-53.12-4.56-3.54-6.63-6.2-6.63-9.74,0-10.62,4.56-15.94,13.67-15.94,8.29,0,18.23,7.08,29,21.25,11.6,15.94,17.82,31.87,17.82,47.81,0,1.77-1.24,9.74-3.73,23.02-2.49,13.28-4.14,22.13-4.56,25.67-9.94,102.7-14.92,218.68-14.92,347.93,0,53.12,3.73,92.07,11.6,115.09,9.12,28.33,25.28,42.5,49.31,42.5,30.25,0,59.25-21.25,87.43-65.51,25.69-40.73,45.99-91.19,60.91-153.16,2.9-12.39,5.39-18.59,7.46-18.59,1.66,0,2.9,3.54,2.9,10.62,0,12.39-5.39,38.07-15.75,78.79Z"/>
    <path d="M13091.28,4219.64c-17.82,13.28-41.02,25.67-70.03,38.07-8.7,67.29-19.06,140.77-30.66,218.68-11.6,72.6-22.79,145.19-33.56,217.79-4.97,31.87-10.77,47.81-17.4,47.81-4.56,0-8.29-7.97-10.77-23.9-2.49-12.39-3.31-24.79-3.31-36.3,0-8.85,2.49-23.9,8.29-44.27l12.02-43.38c19.06-92.07,36.46-200.97,52.62-326.69-15.33,5.31-26.93,7.97-35.22,7.97-12.43,0-23.2-7.97-32.73-25.67-8.29-14.17-12.43-26.56-12.43-37.18,0-3.54.83-5.31,2.9-5.31,14.09,18.59,26.93,27.45,38.54,27.45,9.94,0,24.45-3.54,44.34-11.51,7.04-61.97,10.77-104.47,10.77-128.37,0-15.05-4.97-27.45-14.5-37.18-1.66-1.77-3.31-3.54-4.97-7.08,0-6.2,2.07-9.74,7.04-9.74,7.46,0,16.99,5.31,27.76,15.94,12.43,12.39,19.06,24.79,19.06,38.07,0,4.43-1.66,10.62-4.14,19.48-3.31,10.62-5.39,18.59-6.21,23.02-3.73,19.48-7.46,45.15-11.6,76.14,14.09-7.08,26.1-14.17,35.63-23.02,2.07-1.77,6.21-7.08,12.43-15.05,4.14-6.2,7.46-9.74,9.94-9.74,3.31,0,7.46,3.54,12.84,9.74,4.97,7.08,7.87,13.28,7.87,19.48,0,9.74-4.97,17.71-14.5,24.79ZM13173.74,4743.75c-77.07,0-115.19-40.72-115.19-123.06,0-26.56,4.14-53.12,12.43-78.79,7.04-21.25,11.6-32.76,14.09-32.76,1.24,0,2.07,2.66,2.07,6.2-.83,2.66-3.31,10.62-6.63,23.9-4.56,17.71-6.63,34.53-6.63,51.35,0,37.18,9.12,64.63,27.35,81.45,13.26,12.39,29.83,17.71,50.14,17.71,12.02,0,31.49-4.43,58.01-14.17,4.14,0,9.53,3.54,15.75,10.62,5.8,7.08,8.7,15.05,8.7,23.9,0,22.13-20.3,33.64-60.08,33.64ZM13199.43,4335.61c-15.33,6.2-31.49,23.9-48.07,52.23l-9.12,15.05c-1.24,0-1.66-.89-1.66-3.54s1.66-8.85,4.97-17.71c9.53-26.56,14.5-42.5,14.5-47.81,0-11.51-7.87-17.71-23.2-17.71-16.57,0-35.22,8.85-56.35,25.67-1.66,0-2.49-.89-2.49-4.43,0-2.66,1.24-6.2,4.56-10.62,26.52-37.18,56.77-55.78,90.33-55.78,8.7,0,16.99,3.54,24.86,8.85,10.36,8.85,15.75,20.36,15.75,35.41,0,10.62-4.97,16.82-14.09,20.36Z"/>
    <path d="M13417.37,4690.63c-9.12,19.48-20.3,28.33-32.73,28.33s-23.62-8.85-32.32-28.33c-9.12-18.59-13.26-41.61-13.26-69.06s4.14-49.58,13.26-69.06c8.7-19.48,19.47-29.22,32.32-29.22s23.62,9.74,32.73,29.22c8.7,19.48,13.26,42.5,13.26,69.06s-4.56,50.46-13.26,69.06ZM13408.26,4572c-6.63-14.17-14.5-21.25-23.62-21.25s-16.99,7.08-23.2,21.25c-6.63,14.17-9.53,30.1-9.53,49.58s2.9,36.3,9.53,49.58c6.22,14.17,14.09,20.36,23.2,20.36s16.99-6.2,23.62-20.36c6.21-13.28,9.53-30.1,9.53-49.58s-3.31-35.41-9.53-49.58Z"/>
  </g>
</svg>