<?xml version="1.0" encoding="UTF-8"?>
<svg id="_レイヤー_1" data-name="レイヤー_1" xmlns="http://www.w3.org/2000/svg" version="1.1" viewBox="0 0 11962.7 4138.16">
  <!-- Generator: Adobe Illustrator 29.8.1, SVG Export Plug-In . SVG Version: 2.1.1 Build 2)  -->
  <defs>
    <style>
      .st0 {
        fill: none;
      }
    </style>
  </defs>
  <rect class="st0" x="8550.72" y="1861.87" width="0" height="2.35"/>
  <rect class="st0" x="6301.67" y="1718.53" width="18.07" height="0"/>
  <g>
    <path d="M3594.8,713.31c7.93,3.77,12.26,6.91,12.26,10.68s-2.52,6.28-7.21,6.91c-3.61,1.26-5.77,3.14-6.49,5.03l-.36,1.26c22,64.71,45.08,111.2,68.89,138.84,26.33,33.3,52.66,56.54,78.99,69.11l-1.8,7.54c-8.66,3.77-14.43,11.94-17.67,23.87-2.16,8.8-3.97,12.56-5.77,12.56-5.05,0-16.59-11.94-34.98-36.44-19.12-24.5-37.15-55.29-54.46-92.98-16.23-35.18-28.85-71.62-38.23-108.06-18.75,51.52-38.23,92.98-59.15,125.65-25.97,45.23-59.87,89.21-102.43,131.3l-3.97-8.17c25.97-30.78,54.46-74.13,84.76-129.42,24.89-45.23,46.89-101.15,66.36-169,7.93,5.03,15.15,8.8,21.28,11.31ZM3505.35,1049.42h151.48c2.16-3.77,5.05-8.17,9.02-13.82,3.61-4.4,6.13-6.91,7.21-6.91,1.8,0,5.77,4.4,11.9,13.19,7.93,13.19,12.26,21.99,12.26,27.01,0,4.4-2.52,7.54-6.85,9.42-4.69,2.51-7.93,6.91-10.1,13.19l-70.69,177.17c-1.08,5.65-2.89,8.8-5.05,9.42-2.16,0-4.69.63-7.57.63-2.16,0-5.05-1.26-9.02-3.77-2.52-1.26-3.61-3.77-3.61-6.28l73.94-202.3h-152.92c-12.98,0-25.25,1.88-36.79,4.4l-6.85-27.01c15.15,3.77,29.58,5.65,43.64,5.65ZM3593.36,940.74c9.02,13.19,13.71,25.76,13.71,37.69,0,7.54-1.44,15.08-3.97,22.62-2.89,6.91-5.77,10.05-9.02,10.05-7.21,0-12.26-8.8-15.15-26.39-6.85-31.41-17.31-58.43-31.02-79.79l3.61-6.28c19.48,14.45,33.54,28.27,41.84,42.09Z"/>
    <path d="M3833.21,757.29h218.57l10.46-16.33c3.61-6.28,6.49-9.42,7.93-9.42,2.16,0,6.49,4.4,12.26,11.94,6.85,10.68,10.46,18.22,10.46,21.99,0,2.51-2.16,6.28-6.13,10.05-3.97,3.77-5.77,6.91-5.77,10.68v407.73l1.8,65.34c0,3.77-1.8,6.28-4.69,8.8-5.05,1.88-9.38,3.14-12.98,3.14s-5.41-3.77-5.41-10.05v-49.63h-227.94v50.26c0,3.14-1.44,6.28-4.33,8.8-4.69,1.88-8.66,3.14-11.54,3.14-4.69,0-6.85-3.77-6.85-10.68.72-25.13,1.44-47.12,1.44-66.59v-399.57c0-16.33-.72-36.44-1.44-60.31,8.66,5.65,16.95,12.56,24.17,20.73ZM4059.71,1193.92v-419.67h-227.94v419.67h227.94ZM3906.43,879.8h72.5c2.89-5.03,5.77-10.05,8.3-15.71,2.52-5.03,4.69-7.54,6.49-7.54,2.16,0,6.13,5.03,12.62,13.82,5.77,8.8,9.02,14.45,9.02,18.22s-2.16,7.54-6.13,11.31c-3.97,3.77-5.77,7.54-5.77,11.94v148.27c0,11.31.36,25.13,1.8,42.72,0,3.77-1.8,6.91-4.69,8.17-5.05,2.51-9.38,3.14-12.98,3.14s-5.05-3.14-5.05-10.05v-37.69h-77.54v42.09c0,3.14-1.44,5.65-3.97,7.54-5.05,2.51-9.02,3.14-11.9,3.14-4.69,0-6.85-3.14-6.85-10.68.72-11.94,1.44-23.87,1.44-35.81v-165.23c0-16.33-.72-32.04-1.44-48.38,7.94,5.65,16.23,12.56,24.17,20.73ZM3982.53,1049.42v-152.04h-77.54v152.04h77.54Z"/>
    <path d="M4418.22,1139.89c-15.87,37.69-38.95,64.71-68.53,80.42-18.39,9.42-30.3,14.45-36.07,14.45-2.52,0-3.61-1.26-3.61-3.77s1.08-4.4,3.97-5.65c31.02-18.85,55.54-47.12,73.22-84.19,18.75-39.58,28.49-87.33,28.49-142.61s-8.66-99.89-25.25-135.07c-18.03-36.44-42.92-55.29-73.94-55.29-4.33,0-8.66.63-12.62,1.26,8.3,15.08,12.62,39.58,12.62,72.88s-4.69,76.65-13.71,128.16c-9.02,50.26-18.75,89.84-29.21,120-15.15,43.35-31.02,64.71-47.61,64.71s-28.85-18.85-39.67-57.17c-9.38-33.3-14.07-67.22-14.07-101.78,0-69.11,14.07-127.53,42.56-174.02,28.13-46.49,62.4-69.74,102.79-69.74,36.07,0,65.64,19.48,89.09,57.8,23.44,38.95,35.35,89.21,35.35,151.41,0,54.66-7.94,100.52-23.8,138.22ZM4295.96,811.32c-30.66,8.8-55.9,32.67-75.74,72.25-20.2,39.58-29.94,86.07-29.94,138.84,0,27.01,2.52,52.77,7.57,77.27,6.49,33.3,16.23,49.63,28.49,49.63,17.31,0,34.26-38.95,51.58-118.11,15.51-71.62,23.44-133.19,23.44-184.71,0-13.82-1.8-25.13-5.41-35.18Z"/>
    <path d="M4553.12,982.83h40.03v-19.48c0-21.99-.72-41.46-1.44-57.8,6.13,1.26,14.07,2.51,24.17,5.03,6.85,2.51,10.46,5.03,10.46,7.54,0,5.65-2.89,9.42-7.94,11.94-3.61,1.88-5.41,5.03-5.41,10.05v42.72h38.95c1.8-2.51,5.41-9.42,10.46-20.1,5.05-9.42,7.94-14.45,9.38-14.45,2.89,0,8.3,6.91,15.51,19.48,6.49,13.19,10.1,21.36,10.1,23.87,0,6.28-1.8,8.8-5.05,8.8h-79.35v52.14c20.92,12.57,38.59,27.02,53.38,43.98,8.66,10.68,13.34,21.36,14.07,32.67,0,6.91-1.08,12.57-2.89,17.59-2.52,6.28-5.41,9.42-8.3,9.42-4.33,0-8.3-6.28-11.9-18.85-13.71-30.16-28.49-54.03-44.36-71.62v143.24c0,16.33.36,35.18,1.44,55.91,0,3.14-1.44,5.65-4.33,8.17-4.69,1.88-8.66,3.14-11.9,3.14-3.97,0-6.13-3.14-6.49-9.42.72-21.36,1.44-40.21,1.44-57.8v-158.95c-26.69,73.51-56.26,127.53-88.73,162.72l-2.89-7.54c33.54-51.52,60.59-120,81.51-204.81h-29.94c-18.03,0-30.66,1.88-37.87,4.4l-6.49-27.02c10.1,3.77,24.89,5.03,44.36,5.03ZM4514.89,778.02l-.72-10.68c30.3-5.65,56.99-12.56,80.07-20.73,23.8-6.28,49.41-17.59,76.46-34.55,7.21,6.91,13.71,13.19,19.84,19.48,6.49,7.54,9.74,13.19,9.74,16.96s-1.44,5.65-4.33,5.65l-15.51-5.65c-56.99,20.1-112.17,29.53-165.55,29.53ZM4555.28,853.41c6.49,13.82,9.74,27.02,9.74,39.58,0,5.65-1.08,11.31-3.25,16.96-2.16,5.65-4.33,8.17-6.49,8.17-5.77,0-9.74-6.28-11.9-20.1-4.33-32.67-11.18-60.31-20.56-82.3l2.89-5.65c14.07,15.08,23.8,29.53,29.57,43.35ZM4611.19,827.65c5.77,13.82,8.66,26.39,8.66,38.32,0,5.65-1.08,11.31-3.25,16.96s-4.33,8.17-6.49,8.17c-5.77,0-9.38-6.28-11.54-20.1-3.97-32.04-10.1-58.43-18.03-79.79l3.25-5.65c12.62,14.45,21.64,28.27,27.41,42.09ZM4681.52,789.96c6.49,5.03,10.1,10.05,10.1,15.08,0,2.51-1.8,4.4-5.05,5.03-3.61,1.26-5.41,1.88-5.77,2.51-12.62,42.72-27.77,81.04-45.81,114.97l-3.97-4.4c12.26-45.23,22-94.24,28.49-147.64l22,14.45ZM4823.62,1058.22c7.93,6.28,11.9,11.31,11.9,13.82,0,3.77-2.16,6.28-5.77,6.91-4.33,0-6.85,1.26-7.57,3.14-22.36,38.95-47.25,74.13-73.94,106.8-23.44,28.9-54.82,57.8-93.77,87.33l-3.61-8.8c69.25-67.85,119.74-142.61,150.76-224.29,7.93,6.28,15.15,11.31,22,15.08ZM4809.92,891.11c7.57,6.28,11.54,10.05,11.54,12.56,0,3.77-1.8,5.65-5.41,6.28-4.33,0-6.49,1.26-7.21,3.14-16.59,27.64-34.62,52.77-54.1,75.39-16.95,20.73-39.67,41.46-67.81,62.2l-3.61-8.17c48.69-50.26,84.04-105.55,105.68-166.49,7.57,6.28,14.43,11.31,20.92,15.08ZM4801.26,729.02c7.57,6.28,11.54,10.68,11.54,13.19,0,3.14-1.8,5.03-5.05,5.65-4.33,0-6.85,1.26-7.57,3.14-15.15,27.64-31.38,52.15-49.41,74.13-15.51,20.1-36.43,40.84-62.4,60.94l-3.61-8.17c44-49,75.74-103.66,95.58-163.35l20.92,14.45Z"/>
    <path d="M4947.34,740.33h174.93c1.44-2.51,4.33-7.54,8.66-16.33,4.33-7.54,6.85-11.94,7.94-11.94,2.52,0,6.85,5.65,13.34,16.33,5.77,11.31,8.66,17.59,8.66,20.1,0,6.28-1.44,8.8-4.33,8.8h-119.02v46.49h115.05l7.57-10.68c4.33-6.28,7.57-10.05,9.38-10.05,2.16,0,6.49,6.28,12.98,18.85,7.21,13.82,10.82,23.87,10.82,29.53,0,3.77-2.52,5.65-6.85,6.28-5.05.63-7.94,1.26-9.38,2.51l-33.9,28.9-.72-1.26v6.91h-84.4v-16.96h84.04l14.79-36.44h-119.38v69.74c0,15.08.36,33.3,1.08,53.4,0,3.77-1.44,6.91-3.97,8.8-5.05,2.51-9.38,3.77-12.98,3.77-4.33,0-6.49-3.14-6.49-10.68.72-12.57,1.44-31.41,1.44-55.29v-69.74h-116.5v5.65c0,18.22-3.61,32.04-10.1,42.09-4.69,6.28-11.18,9.42-19.12,9.42-2.89,0-5.41-1.26-7.57-5.03-1.8-3.77-2.52-7.54-2.52-11.94s5.05-11.31,15.87-21.36c9.74-13.82,15.15-31.41,16.59-52.77l3.97-1.88c.72,6.91,1.08,13.19,1.8,18.22h117.58v-46.49h-69.25c-17.67,0-30.3,1.88-37.51,4.4l-6.85-27.02c10.1,3.77,24.89,5.65,44.36,5.65ZM5013.34,969.01c5.05,7.54,7.93,13.19,7.93,16.33,0,3.77-1.44,6.91-3.97,10.05-2.52,3.77-3.61,6.91-3.61,10.05v27.01c0,9.42.36,21.99,1.8,37.07,0,3.77-1.44,6.28-4.33,7.54-4.33,2.51-7.94,3.14-11.18,3.14s-4.69-3.14-4.69-9.42v-4.4h-74.66v49h63.12c1.08-1.26,3.25-5.03,6.85-10.68,3.25-5.65,5.41-8.8,6.85-8.8s5.41,5.65,11.9,15.71c4.33,6.91,6.49,11.31,6.49,12.56,0,6.28-1.44,8.8-3.61,8.8h-91.61v51.52h62.76c1.44-1.26,3.97-5.65,7.94-13.19,3.61-6.28,6.49-10.05,7.93-10.05s6.13,6.28,13.71,17.59c4.69,7.54,7.21,12.56,7.21,13.82,0,6.28-1.44,8.8-4.33,8.8h-95.22v67.85c0,2.51-1.44,5.03-3.61,6.28-3.97,1.88-7.21,3.14-10.1,3.14-4.33,0-6.13-3.14-6.13-9.42.72-10.05,1.44-20.73,1.44-30.78v-236.22c0-14.45-.72-28.9-1.44-42.72,5.77,3.77,11.54,8.8,17.31,13.82h71.05l7.21-11.31c2.16-3.14,4.33-5.03,5.77-5.03,1.8,0,5.41,4.4,11.18,11.94ZM4990.62,857.81v16.96h-84.76v-16.96h84.76ZM4990.62,914.35v16.96h-84.76v-16.96h84.76ZM4995.31,1049.42v-59.06h-74.66v59.06h74.66ZM5069.97,1105.97h55.9c2.52-3.77,4.69-7.54,6.49-10.05,3.97-5.65,6.85-8.8,8.66-8.8,2.89,0,7.57,5.65,14.07,15.71,5.77,8.8,8.66,15.08,8.66,19.48,0,2.51-2.52,5.03-6.85,7.54-3.61,3.14-5.77,5.65-5.77,7.54-6.13,20.1-12.98,37.07-20.92,50.26-4.69,7.54-9.38,14.45-14.07,19.48l3.61,2.51c15.87,10.05,36.07,18.85,60.95,27.64l-1.08,5.03c-6.85,3.77-11.54,9.42-13.71,18.22-2.16,6.91-3.61,10.68-3.97,10.68-4.33,0-12.98-4.4-26.33-12.56-15.87-10.68-28.85-21.36-39.31-32.67-10.1,8.8-22.36,16.96-36.79,23.25-20.92,9.42-42.92,16.96-66,21.99l-2.89-8.8c20.2-7.54,39.67-16.96,59.15-27.02,13.71-8.8,24.89-16.96,33.54-25.13-7.21-9.42-12.98-18.85-18.03-28.9-7.93-16.33-14.07-35.18-18.03-57.17-6.13,1.26-11.18,1.88-14.79,3.14l-6.85-27.01c15.15,3.77,29.94,5.65,44.36,5.65ZM5081.87,1041.89h45.81v-51.52h-35.71c-24.53,0-41.48,1.88-51.22,4.4l-6.49-27.01c15.87,3.77,34.98,5.65,57.71,5.65h27.05c2.89-5.03,5.41-10.05,8.3-14.45,2.89-3.77,4.69-6.28,6.13-6.28,2.16,0,6.49,4.4,12.26,11.94,6.49,10.05,9.74,16.96,9.74,20.73,0,3.14-1.44,5.65-4.33,8.17-3.61,3.77-5.05,6.91-5.05,9.42,0,25.76.36,42.09,1.44,49v10.05c0,3.77-1.44,6.91-4.33,9.42-3.97,2.51-7.57,3.77-10.82,3.77-2.89,0-4.33-2.51-4.69-8.17v-8.17h-45.81c-16.59,0-29.58,1.88-39.67,4.4l-6.49-27.02c12.62,3.77,28.13,5.65,46.17,5.65ZM5078.26,1172.56c6.13,8.17,12.98,15.08,20.2,20.73,4.33-5.65,9.02-12.56,13.35-21.36,7.93-13.82,13.71-30.16,18.03-49h-59.87c-6.13,0-11.54.63-16.23.63,6.49,20.1,14.79,36.44,24.53,49ZM5142.46,914.35v16.96h-84.4v-16.96h84.4Z"/>
    <path d="M5327.13,718.97c7.21,6.28,11.18,11.31,11.18,14.45,0,3.77-2.16,5.65-6.13,6.28-5.05,0-8.3,1.26-9.02,3.14-3.25,10.05-6.49,20.1-9.74,28.9h42.92l6.49-13.19c3.25-6.28,5.77-10.05,7.94-10.05,2.52,0,6.85,5.03,12.98,15.08,6.49,10.05,9.74,17.59,9.74,22.62,0,4.4-1.8,8.17-5.41,10.68-3.25,4.4-5.05,8.17-5.05,10.68-10.1,47.75-22,87.33-35.35,119.37-4.33,9.42-9.38,18.22-14.79,26.39,9.38,1.88,20.56,2.51,34.26,2.51h50.85c1.44-2.51,4.69-8.17,9.74-18.22,4.33-8.8,7.21-13.82,8.66-13.82,3.25,0,8.3,6.28,14.79,18.22,6.49,12.56,9.74,20.1,9.74,22.62,0,6.28-1.8,8.8-4.69,8.8h-89.09c-17.67,0-30.3,1.88-37.51,4.4l-3.61-13.82c-7.93,11.94-16.59,23.25-26.33,34.55-26.69,25.13-51.94,43.98-75.74,57.17l-3.97-7.54c39.31-31.41,71.41-67.22,96.3-106.17,22.36-40.21,37.51-91.1,45.44-152.67h-55.18c-3.61,9.42-7.21,17.59-10.82,25.13,7.94,3.77,15.51,8.17,22.36,13.19,2.52,2.51,5.77,5.65,10.1,9.42,5.05,6.28,7.57,12.56,7.57,19.48,0,6.28-1.08,11.31-3.25,15.08-1.8,5.03-3.97,6.91-6.49,6.91-3.61,0-6.49-3.14-9.38-10.05-7.21-18.85-15.51-33.93-24.89-45.23-6.13,13.82-12.98,26.39-20.92,38.95,10.82,9.42,18.75,18.22,23.8,27.01,6.49,10.05,10.1,20.1,10.1,29.53,0,5.03-1.08,10.05-2.89,14.45-1.8,5.03-3.61,6.91-5.77,6.91-4.69,0-7.94-5.65-9.74-16.96-4.69-20.73-11.54-38.32-20.2-53.4-10.1,16.33-21.64,31.41-34.26,45.86l-3.25-9.42c17.31-27.64,32.82-58.43,46.53-92.35,15.15-38.95,25.97-76.65,32.1-111.83,7.57,6.91,14.07,12.56,19.84,16.96ZM5336.87,1110.99c7.57,5.65,11.54,10.05,11.54,12.57,0,3.14-1.8,5.03-5.05,5.65-4.33,0-6.49,1.26-6.85,3.14-13.71,22.62-28.85,43.98-45.08,62.82-14.07,17.59-32.82,33.93-56.63,51.52l-3.61-6.91c39.67-42.72,68.53-90.47,86.2-142.61,7.21,5.65,13.71,10.05,19.48,13.82ZM5309.46,1049.42h163.75c1.8-2.51,5.41-9.42,10.82-20.1,4.69-10.05,7.57-15.08,9.02-15.08,3.25,0,8.3,6.91,15.51,19.48,6.49,13.82,10.1,21.36,10.1,23.87,0,6.28-1.8,8.8-4.69,8.8h-115.78v163.34c0,17.59-4.69,31.41-13.35,40.21-6.85,5.65-11.9,8.8-15.51,8.8-5.05,0-7.93-5.65-8.3-16.33-2.16-9.42-16.23-19.48-42.2-30.16l1.08-10.05c24.53,5.03,40.03,7.54,46.89,7.54s10.46-4.4,10.46-12.56v-150.78h-67.81c-17.67,0-30.3,1.88-37.51,4.4l-6.85-27.01c10.1,3.77,24.89,5.65,44.36,5.65ZM5519.73,773.62c7.93,15.08,11.9,25.13,11.9,30.78,0,3.77-2.52,5.65-7.21,6.28-5.05,1.26-8.3,1.88-9.74,3.14l-54.46,75.39c5.77,11.94,12.62,22.62,19.84,32.04,23.8,30.78,48.69,54.03,75.38,70.36l-1.08,7.54c-7.94,2.51-12.98,8.8-14.79,18.22-1.8,7.54-3.61,11.31-5.41,11.31-4.33,0-12.98-6.91-25.61-21.99-15.15-16.33-30.66-37.69-46.89-62.82-13.34-25.13-24.53-52.15-33.54-82.3-10.46-35.18-19.12-82.3-26.33-140.1h8.66c1.8,16.96,5.05,34.55,9.38,52.77h68.17c2.52-3.14,5.41-6.91,8.66-10.68,4.33-6.28,7.21-10.05,9.38-10.05,2.52,0,7.21,6.91,13.71,20.1ZM5434.61,830.17c5.77,18.85,12.62,35.18,20.2,49.63l38.23-87.96h-68.89c2.89,13.19,6.49,25.76,10.46,38.32ZM5499.53,1170.05c10.46,15.71,15.87,31.41,16.59,47.12,0,6.91-1.08,13.19-2.89,18.22-2.89,5.65-5.77,8.8-8.66,8.8-5.05,0-9.74-8.17-14.79-24.5-19.48-50.26-41.48-87.33-65.28-112.46l2.52-7.54c28.49,18.85,52.66,42.72,72.5,70.36Z"/>
    <path d="M5885.46,823.25c-16.95-2.51-29.21-4.4-36.43-4.4-29.94,0-55.54,22.62-76.82,67.85-20.2,42.72-30.3,90.47-30.3,143.24,0,90.47,26.69,143.87,80.07,159.58,13.35,3.77,20.2,14.45,20.2,31.41,0,11.94-5.41,18.22-15.87,18.22-23.8,0-45.08-13.82-64.56-40.84-25.25-35.18-37.51-84.81-37.51-149.52,0-49,7.21-94.87,22-137.59,14.43-42.72,34.26-74.76,59.15-96.12-57.71,15.08-102.07,33.93-133.81,55.91l-12.98,12.56c-5.77,6.28-10.46,8.8-13.34,8.8-5.41,0-12.98-7.54-23.08-22.62-10.1-15.08-15.15-27.01-15.15-35.81,0-3.77.72-5.65,2.89-5.65,2.89,3.14,6.13,6.28,9.38,9.42,5.77,6.28,11.9,8.8,17.67,8.8,1.44,0,27.41-8.17,77.9-25.13,56.27-18.22,97.02-30.78,122.63-37.07,1.44,0,4.69-1.88,9.02-4.4,4.33-2.51,7.57-3.77,10.1-3.77,5.05,0,12.62,4.4,22,13.19,9.38,8.8,14.07,16.96,14.07,24.5,0,6.28-2.52,9.42-7.21,9.42ZM5862.73,982.83c-3.97,0-7.21-3.14-10.1-10.05-10.1-23.25-19.84-42.09-28.85-55.91-4.33-6.28-6.13-10.05-6.13-12.56s1.08-4.4,3.97-4.4c7.93,0,18.03,6.91,30.3,19.48,13.34,14.45,20.2,28.9,20.2,42.72s-3.25,20.73-9.38,20.73ZM5892.31,938.85c-3.97,0-7.21-2.51-9.38-8.8-9.38-21.99-19.12-38.95-28.85-50.26-5.05-5.65-7.57-9.42-7.57-11.31,0-3.77,1.08-5.65,3.61-5.65,9.38,0,19.84,5.65,31.38,16.33,12.98,12.56,19.48,25.76,19.48,40.21,0,13.19-2.89,19.48-8.66,19.48Z"/>
    <path d="M6014.94,772.99c2.89,1.26,4.69,3.77,4.69,6.28,0,3.77-2.89,7.54-8.3,11.94-3.25,3.14-4.69,8.8-4.69,16.96v127.53h89.09v-175.91c0-19.48-.72-37.07-1.44-52.77,6.85,1.26,15.87,3.14,26.69,5.65,7.57,1.88,11.54,4.4,11.54,6.91,0,5.65-3.25,10.05-9.38,13.19-4.33,2.51-6.13,5.65-6.13,10.68v192.24h88.36c0-6.91.36-13.82.36-20.73v-89.84c0-23.25-.72-43.98-1.44-61.57l25.97,5.65c7.21,1.88,10.82,4.4,10.82,6.91,0,6.28-2.89,10.68-8.3,13.19-4.33,2.51-6.13,5.65-6.13,10.68v114.97c0,17.59.36,37.69,1.8,59.68,0,3.77-1.8,6.91-4.69,8.8-5.05,2.51-9.38,3.14-12.98,3.14-3.97,0-6.13-3.14-6.49-10.05.36-8.17.72-16.33.72-23.87h-88v255.7h95.58v-130.05c0-23.87-.72-44.61-1.44-62.2,6.85,1.26,15.51,3.14,26.33,5.65,7.21,2.51,10.82,5.03,10.82,7.54,0,5.65-2.89,10.05-8.66,12.56-3.97,2.51-5.77,6.28-5.77,11.31v138.84c0,17.59.36,37.07,1.8,59.68,0,3.77-1.8,6.91-4.69,9.42-5.05,1.88-9.38,3.14-12.98,3.14-4.33,0-6.49-3.77-6.85-10.68l1.08-28.27h-210.63c-4.33,13.82-8.3,21.36-12.26,21.36s-7.57-1.88-10.82-4.4c-6.13-5.65-9.02-10.05-9.02-13.19s1.08-6.28,3.61-10.05c2.16-5.03,3.61-10.05,3.97-14.45v-144.5c0-13.19-1.08-27.01-2.52-41.46l32.1,10.05c2.89,1.26,4.69,3.14,4.69,5.65,0,3.77-2.89,7.54-8.66,11.94-3.25,3.14-4.69,8.8-4.69,16.96v145.13h97.74v-255.7h-85.48c-4.33,16.33-8.66,24.5-12.26,24.5-3.97,0-7.57-1.26-11.18-4.4-5.77-5.65-8.66-10.05-8.66-13.82,0-2.51,1.08-5.65,3.61-9.42,2.16-5.65,3.25-10.68,3.61-15.08v-129.42c0-13.19-1.08-27.01-2.52-41.46l32.1,9.42Z"/>
    <path d="M6492.48,737.18c7.21,11.31,11.18,22.62,11.18,33.93,0,7.54-1.08,13.82-2.53,18.22h83.32c1.44-2.51,5.05-8.17,10.1-18.22,4.69-8.8,7.93-13.82,9.74-13.82,2.16,0,7.93,7.54,17.31,22.62,5.77,10.05,8.66,15.71,8.66,17.59,0,6.28-1.8,8.8-4.69,8.8h-257.88v30.78c0,74.76-1.8,140.1-5.05,195.39-3.61,50.89-10.46,98.01-20.56,141.36-9.02,33.93-20.92,67.85-35.71,102.4l-4.33-5.65c16.59-55.91,27.77-109.32,33.18-159.58,7.21-60.31,11.18-152.04,11.18-273.92,0-31.41-1.08-54.66-2.53-68.48,10.1,7.54,18.39,14.45,24.89,20.73h113.25c-1.44-3.14-2.52-7.54-3.25-12.56-6.13-27.01-15.87-49.63-28.85-68.48l3.61-6.28c18.03,11.94,31.02,23.87,38.95,35.18ZM6504.02,832.68c6.85,2.51,10.46,5.03,10.46,7.54,0,5.03-2.88,9.42-8.29,12.56-4.33,2.51-6.13,6.28-6.13,11.31v62.2h77.18c1.44-1.88,4.69-7.54,9.38-16.33,4.33-8.17,7.57-12.56,9.38-12.56s7.21,7.54,16.23,21.36c5.41,8.8,8.3,14.45,8.3,16.33,0,6.28-1.8,8.8-5.05,8.8h-115.42v110.57h64.2l8.29-16.33c2.53-5.03,4.69-7.54,6.49-7.54,2.16,0,6.13,5.03,12.62,13.82,5.77,8.8,9.02,14.45,9.02,18.22s-1.8,8.17-5.41,11.94-5.05,7.54-5.05,11.31v136.33c0,10.68.36,25.13,1.8,42.72,0,3.14-1.8,5.65-4.69,8.17-5.05,1.88-9.38,3.14-12.98,3.14s-5.41-3.77-5.41-10.05v-35.18h-146.43v34.55c0,2.51-1.44,5.03-3.97,7.54-4.69,1.88-8.66,3.14-11.9,3.14-4.33,0-6.49-3.77-6.49-10.68.72-12.56,1.44-24.5,1.44-35.81v-147.64c0-16.33-.72-32.67-1.44-49,7.94,5.65,16.23,12.56,24.89,21.36h53.74v-196.64c0-10.05-.36-20.1-1.08-30.78,6.85,1.26,15.51,3.14,26.33,5.65ZM6568.94,1214.03v-142.61h-146.43v142.61h146.43Z"/>
    <path d="M6977.95,869.75c-7.57-1.26-15.15-3.14-22.36-4.4-15.51-2.51-28.85-4.4-40.04-4.4-16.59,0-35.35,1.26-56.99,3.14l-.36,102.4c8.66,18.22,12.98,50.26,12.98,95.49,0,78.53-16.23,135.7-48.33,170.88-18.39,20.1-35.35,30.16-50.85,30.16-2.16,0-3.25-1.26-3.25-3.14,0-2.51,1.8-4.4,5.77-6.91,46.17-29.53,70.33-80.42,72.13-154.55-9.38,17.59-21.28,25.76-34.99,25.76-12.62,0-22.72-10.05-30.3-31.41-6.85-17.59-10.1-38.32-10.1-61.57,0-26.39,4.33-49,13.71-68.48,9.02-18.85,20.92-28.9,36.07-28.9,7.21,0,13.34,2.51,18.75,6.28v-74.13c-38.95,5.65-70.69,15.08-94.5,27.64-1.08.63-6.49,4.4-15.87,11.31-6.85,5.03-12.26,7.54-16.23,7.54-4.69,0-11.54-6.28-20.56-20.1-9.02-13.82-13.34-24.5-13.34-32.04,0-3.77,1.08-5.65,3.25-5.65l7.93,8.8c5.41,5.65,10.82,8.17,16.59,8.17,3.25,0,19.12-3.14,47.61-10.05,21.64-5.03,49.77-10.68,85.12-17.59,0-40.21-1.44-64.08-3.97-72.88-2.89-8.17-7.57-15.08-14.07-20.73-6.85-5.03-10.1-7.54-10.1-8.17,0-5.03,2.52-8.17,7.93-8.17,7.57,0,16.59,3.14,26.69,8.17,12.62,7.54,19.12,16.33,19.12,26.39l-3.61,15.71c-2.52,10.68-3.61,20.73-3.61,30.78v25.76l59.51-8.17c7.21-.63,14.79-3.14,22.36-8.17,7.57-3.77,12.62-6.28,14.79-6.28,4.33,0,10.1,5.65,18.03,15.71,7.57,10.68,11.54,19.48,11.54,25.76,0,6.91-2.16,10.05-6.49,10.05ZM6838.01,972.78c-5.41-15.08-12.98-22.62-22.72-22.62s-18.39,8.17-24.53,23.87c-5.41,14.45-7.94,30.78-7.94,49s2.16,33.93,7.21,47.75c5.77,16.33,13.34,24.5,23.08,24.5s17.67-8.17,24.17-25.76c5.05-15.08,7.57-31.41,7.57-50.26s-2.52-33.93-6.85-46.49Z"/>
    <path d="M7270.46,1202.72c-20.2,23.87-45.81,36.44-76.82,36.44-17.31,0-32.1-5.65-45.08-15.71-16.95-13.82-25.25-33.3-25.25-59.68,0-20.1,5.41-35.81,16.23-47.12,8.66-8.8,19.48-13.19,32.46-13.19,12.26,0,25.61,8.17,39.31,23.25,14.79,17.59,22.36,36.44,22.36,56.54,0,6.28-.72,11.94-1.8,15.71,32.82-27.64,49.41-65.97,49.41-115.6,0-35.18-7.21-62.2-20.92-80.42-12.26-16.33-29.21-24.5-50.13-24.5s-41.12,11.94-61.67,34.55c-18.39,20.73-34.26,47.12-47.25,78.53-6.49,16.33-11.18,23.87-14.07,23.87-5.41,0-7.93-12.56-7.93-37.69,0-7.54,3.97-16.96,12.26-28.27,24.53-33.93,62.4-112.46,113.61-236.22,2.88-7.54,4.69-11.94,4.69-13.82,0-3.77-1.44-6.28-4.33-6.28-4.33,0-14.43,5.03-29.58,15.08-14.07,10.05-23.8,17.59-29.58,22.62-9.38,8.8-15.15,13.19-17.31,13.19-6.49,0-13.34-6.91-20.92-21.99-7.93-13.82-11.54-27.02-11.54-38.32,0-2.51.72-4.4,2.88-4.4l8.66,12.56c5.77,7.54,11.9,10.68,19.12,10.68,8.66,0,22.72-3.77,41.84-11.94,15.87-6.91,28.85-13.82,38.59-20.1.72,0,3.61-3.14,8.66-8.17,3.61-3.77,6.85-5.65,9.74-5.65,3.25,0,7.93,4.4,14.07,13.19,5.77,8.8,8.66,16.33,8.66,21.99,0,3.77-3.25,8.17-9.02,14.45-7.21,7.54-11.18,11.94-11.9,13.19-10.46,19.48-38.59,77.9-84.04,175.28,21.64-23.87,47.97-36.44,78.27-36.44,23.08,0,42.56,10.68,58.07,31.41,16.95,23.25,25.61,54.66,25.61,93.61,0,51.52-11.9,91.72-35.35,119.37ZM7218.88,1194.55c-7.21-18.85-15.87-35.18-26.33-48.38-11.9-13.82-23.8-21.36-35.35-21.36-6.85,0-12.62,3.77-17.31,11.31-5.05,7.54-7.57,16.33-7.57,27.64,0,20.1,6.13,34.55,18.39,43.98,9.02,7.54,20.2,10.68,33.18,10.68,13.71,0,27.77-4.4,41.84-13.82-2.88-1.26-5.41-5.03-6.85-10.05Z"/>
    <path d="M7574.51,737.18c7.21,11.31,11.18,22.62,11.18,33.93,0,7.54-1.08,13.82-2.53,18.22h83.32c1.44-2.51,5.05-8.17,10.1-18.22,4.69-8.8,7.94-13.82,9.74-13.82,2.16,0,7.93,7.54,17.31,22.62,5.77,10.05,8.66,15.71,8.66,17.59,0,6.28-1.8,8.8-4.69,8.8h-257.88v30.78c0,74.76-1.8,140.1-5.05,195.39-3.61,50.89-10.46,98.01-20.56,141.36-9.02,33.93-20.92,67.85-35.71,102.4l-4.33-5.65c16.59-55.91,27.77-109.32,33.18-159.58,7.21-60.31,11.18-152.04,11.18-273.92,0-31.41-1.08-54.66-2.53-68.48,10.1,7.54,18.39,14.45,24.89,20.73h113.25c-1.44-3.14-2.52-7.54-3.25-12.56-6.13-27.01-15.87-49.63-28.85-68.48l3.61-6.28c18.03,11.94,31.02,23.87,38.95,35.18ZM7586.05,832.68c6.85,2.51,10.46,5.03,10.46,7.54,0,5.03-2.88,9.42-8.29,12.56-4.33,2.51-6.13,6.28-6.13,11.31v62.2h77.18c1.44-1.88,4.69-7.54,9.38-16.33,4.33-8.17,7.57-12.56,9.38-12.56s7.21,7.54,16.23,21.36c5.41,8.8,8.3,14.45,8.3,16.33,0,6.28-1.8,8.8-5.05,8.8h-115.42v110.57h64.2l8.29-16.33c2.53-5.03,4.69-7.54,6.49-7.54,2.16,0,6.13,5.03,12.62,13.82,5.77,8.8,9.02,14.45,9.02,18.22s-1.8,8.17-5.41,11.94-5.05,7.54-5.05,11.31v136.33c0,10.68.36,25.13,1.8,42.72,0,3.14-1.8,5.65-4.69,8.17-5.05,1.88-9.38,3.14-12.98,3.14s-5.41-3.77-5.41-10.05v-35.18h-146.43v34.55c0,2.51-1.44,5.03-3.97,7.54-4.69,1.88-8.66,3.14-11.9,3.14-4.33,0-6.49-3.77-6.49-10.68.72-12.56,1.44-24.5,1.44-35.81v-147.64c0-16.33-.72-32.67-1.44-49,7.94,5.65,16.23,12.56,24.89,21.36h53.74v-196.64c0-10.05-.36-20.1-1.08-30.78,6.85,1.26,15.51,3.14,26.33,5.65ZM7650.97,1214.03v-142.61h-146.43v142.61h146.43Z"/>
    <path d="M7841.05,717.08c7.21,3.77,10.82,6.91,10.82,10.05,0,3.77-2.16,5.65-6.13,6.28-3.61,1.26-5.41,3.14-6.13,4.4-1.44,5.03-2.88,10.05-4.33,13.82,18.03,12.56,33.54,27.64,46.53,43.98,8.66,11.94,12.98,23.87,13.71,35.18,0,6.28-1.08,11.94-2.52,15.71-2.16,5.03-4.69,7.54-7.21,7.54-4.33,0-8.29-6.28-11.9-18.85-12.98-30.78-27.05-55.29-41.84-73.5-8.66,26.39-18.03,48.38-27.41,65.34-13.71,28.9-31.74,57.17-54.82,83.56l-3.61-8.17c12.98-20.1,27.05-47.75,42.2-84.19,12.26-29.53,23.08-66.59,32.82-111.2,7.21,4.4,14.07,7.54,19.84,10.05ZM7816.16,899.9h1.08v-43.35c0-8.8-.36-17.59-1.08-27.02,5.77,1.26,13.34,2.51,22.72,5.03,5.77,1.88,9.02,3.77,9.02,6.28,0,5.03-2.52,8.8-7.21,11.31-3.61,1.26-5.05,4.4-5.05,9.42v38.32h19.12l8.3-15.71c3.97-6.91,6.49-10.68,7.57-10.68,2.88,0,6.85,5.65,12.26,15.71,5.77,10.68,8.66,16.96,8.66,18.85,0,6.28-1.44,8.8-4.33,8.8h-51.58v81.04h25.61l9.74-18.85c4.33-8.8,6.85-13.82,8.3-13.82,3.25,0,8.29,6.28,14.79,18.22,6.49,13.19,10.1,20.73,10.1,22.62,0,6.28-1.8,8.8-5.05,8.8h-99.91c-18.03,0-30.66,1.88-37.87,4.4l-6.49-27.02c10.1,3.77,24.89,5.65,44.36,5.65h18.03v-81.04h-1.08c-18.03,0-30.66,1.88-37.87,4.4l-6.85-27.01c10.1,3.77,25.25,5.65,44.72,5.65ZM7794.88,1076.44h56.99l7.57-11.31c2.16-3.14,3.97-5.03,5.41-5.03,1.8,0,5.77,4.4,11.54,11.94,5.05,7.54,7.93,13.19,7.93,16.33,0,3.77-1.8,6.91-5.05,10.05-2.89,3.77-3.97,6.91-3.97,10.68v117.48c0,8.8.36,21.36,1.44,37.07,0,2.51-1.44,5.03-3.97,6.91-4.33,1.88-8.3,3.14-11.54,3.14-2.88,0-4.33-3.14-4.33-8.8v-38.95h-62.04v38.95c0,2.51-1.44,4.4-3.61,5.65-3.97,1.88-7.21,3.14-10.1,3.14-4.33,0-6.13-3.14-6.13-8.8.72-10.68,1.44-21.36,1.44-31.41v-130.68c0-13.82-.72-28.27-1.44-42.72,6.49,4.4,12.98,10.05,19.84,16.33ZM7856.92,1209v-115.6h-62.04v115.6h62.04ZM7939.87,808.81h34.62v-46.49c0-21.99-.72-41.46-1.44-57.8,6.13,1.26,14.07,2.51,24.17,5.03,6.85,2.51,10.46,4.4,10.46,6.91,0,5.65-2.88,10.05-7.93,12.56-3.61,1.88-5.41,5.03-5.41,10.05v69.74h47.25c1.08-2.51,3.97-7.54,8.66-15.71,4.33-8.17,6.85-12.56,7.57-12.56,2.89,0,7.21,5.65,13.71,16.33,5.77,11.31,8.66,18.22,8.66,20.73,0,5.65-1.44,8.17-4.33,8.17h-81.51v66.59h42.2c2.16-3.77,3.97-8.17,5.77-12.56,3.25-5.03,5.77-8.17,7.57-8.17,1.44,0,5.05,3.77,10.46,10.68,5.77,8.8,8.66,15.08,8.66,17.59,0,5.03-1.44,8.17-4.33,10.68-3.61,2.51-5.05,5.65-5.05,8.8v314.12c0,12.57-3.97,22.62-11.54,30.16-6.13,5.03-11.54,7.54-15.87,7.54-3.97,0-5.77-5.03-5.77-15.08-.72-10.68-9.74-20.73-27.05-29.53l1.8-9.42c12.98,5.03,23.08,7.54,31.02,7.54,6.13,0,9.38-4.4,9.38-11.94v-109.32h-47.25v95.49c0,16.96.36,35.18,1.44,55.91,0,3.77-1.44,6.28-4.33,8.8-4.69,1.88-8.66,3.14-11.9,3.14-3.97,0-6.13-3.77-6.49-10.05.72-21.36,1.44-40.21,1.44-57.8v-95.49h-45.8v163.97c0,3.14-1.44,5.65-3.97,8.17-3.61,1.88-6.85,3.14-9.74,3.14-4.33,0-6.13-3.14-6.13-9.42.72-21.36,1.44-40.84,1.44-57.17v-283.34c0-13.82-.72-31.41-1.44-52.77,6.85,4.4,13.35,10.05,19.84,16.33h45.8v-66.59h-34.62c-17.67,0-30.3,1.88-37.51,4.4l-6.85-27.01c10.1,3.77,24.89,5.65,44.36,5.65ZM7974.5,985.34v-76.02h-45.8v76.02h45.8ZM7974.5,1085.86v-82.93h-45.8v82.93h45.8ZM7994.33,985.34h47.25v-76.02h-47.25v76.02ZM7994.33,1085.86h47.25v-82.93h-47.25v82.93ZM8046.27,737.81c6.49,7.54,10.1,15.08,10.1,22.62,0,6.28-1.44,12.56-3.61,18.22-3.25,6.28-6.49,9.42-9.38,9.42-6.13,0-10.1-6.91-12.26-21.99-4.33-18.85-10.82-35.18-19.84-48.38l3.25-5.65c14.79,8.8,25.25,17.59,31.74,25.76Z"/>
    <path d="M8265.56,715.82c7.93,3.77,11.9,6.91,11.9,10.68s-2.53,6.28-7.21,6.91c-3.61,1.26-5.41,3.14-6.13,5.03-7.94,20.73-16.23,39.58-24.89,55.91h122.27c3.25-5.65,6.49-10.68,10.1-15.08,2.89-3.77,5.05-6.28,7.21-6.28,1.8,0,6.13,5.65,13.34,15.71,6.85,10.68,10.46,17.59,10.46,21.36,0,5.03-2.16,8.17-5.77,9.42-4.33,1.88-7.57,5.65-10.1,11.94-17.31,37.7-36.79,72.88-58.07,104.92-21.28,33.3-47.61,62.83-78.63,89.21-5.77,5.03-11.9,10.05-17.67,13.82h128.76l9.02-13.82c2.52-4.4,4.69-6.91,6.49-6.91,2.16,0,6.85,5.03,13.34,13.82,6.49,9.42,10.1,16.33,10.1,20.1s-1.8,7.54-5.41,11.94c-3.25,3.77-4.69,8.17-4.69,12.56v141.36c0,11.31.72,26.39,2.16,45.23,0,3.77-1.8,6.28-5.05,8.8-5.41,2.51-10.1,3.77-14.07,3.77-3.61,0-5.41-3.77-5.41-10.68v-32.04h-158.7v33.93c0,3.14-1.44,5.65-3.61,8.17-5.05,1.88-9.02,3.14-12.26,3.14-4.33,0-6.49-3.77-6.49-11.31.72-11.94,1.44-23.87,1.44-35.18v-165.23c-22.36,12.56-47.61,23.25-75.02,32.67l-1.8-10.05c25.97-11.94,51.22-27.64,76.46-46.49l-1.08-24.5c5.41,3.77,10.82,8.17,16.23,13.19,20.2-15.71,40.4-33.93,59.87-54.03,40.04-43.35,73.94-98.64,101.71-166.49h-134.17c-6.49,11.31-12.98,21.99-19.48,30.78-21.28,32.67-49.41,64.71-84.4,95.49l-3.97-8.8c20.92-22.62,44-55.29,68.53-97.38,19.84-33.3,37.51-75.39,53.02-126.91,7.93,5.03,15.15,8.8,21.64,11.31ZM8246.81,898.02c3.61,3.14,7.93,7.54,12.98,13.82,5.77,8.8,9.02,18.85,9.02,29.53,0,6.91-1.08,12.56-3.25,16.96-2.16,6.28-4.69,8.8-7.57,8.8-4.33,0-8.3-4.4-11.9-14.45-11.54-33.93-25.61-59.68-41.84-76.02l2.89-5.03c14.79,6.91,28.13,15.71,39.67,26.39ZM8367.64,1215.91v-158.95h-158.7v158.95h158.7Z"/>
    <path d="M8563.12,1014.87l-17.67,85.44c-3.61,18.85-6.13,40.21-7.57,65.34-1.44,26.39-2.52,43.98-3.97,52.14-1.08,5.03-3.25,8.17-6.49,8.17-10.1,0-18.03-21.99-23.08-66.59-3.97-30.78-5.77-60.94-5.77-89.84,0-72.88,5.77-148.27,17.67-225.54,3.97-26.39,6.13-42.09,6.13-46.49,0-12.56-2.52-23.25-6.85-33.3-2.16-3.77-4.69-8.17-7.21-14.45,0-2.51,1.08-4.4,3.25-4.4,4.33,0,10.82,7.54,19.48,21.36,10.1,16.96,15.51,33.93,15.51,50.26,0,4.4-2.16,14.45-6.49,30.78-3.25,10.68-6.13,21.36-9.02,32.04-12.26,48.38-18.39,104.92-18.39,170.26,0,46.49,3.61,69.11,11.54,69.11,2.89,0,14.43-36.44,34.62-109.32,1.44-5.03,2.52-8.17,3.25-8.17,1.44,0,2.53,1.26,2.53,3.77,0,1.88-.72,5.03-1.44,9.42ZM8763.66,1207.74c-2.89,0-6.85-2.51-11.18-8.8l-9.74-14.45c-12.98-17.59-25.25-32.67-36.79-45.23-.36,33.3-5.41,57.17-15.15,70.99-9.02,13.19-23.08,20.1-42.56,20.1-15.15,0-28.13-5.65-38.95-16.33-13.34-12.56-19.84-31.41-19.84-55.91s5.41-42.09,16.95-55.91c10.1-12.56,22-18.85,36.07-18.85s28.85,3.14,43.28,9.42l-2.52-180.31c-21.64,5.03-38.59,7.54-50.86,7.54-15.15,0-27.41-7.54-36.07-23.25-6.49-10.68-9.38-19.48-9.38-27.02,0-3.77,1.08-6.28,3.25-6.28l9.02,14.45c6.49,8.8,13.71,12.56,21.64,12.56,24.89,0,45.44-1.88,62.04-6.28l-.72-70.99c-.36-13.82-1.44-24.5-3.61-31.41-2.88-8.17-7.93-14.45-15.15-18.85-4.33-2.51-6.49-5.03-6.49-7.54,0-3.77,3.25-6.28,10.1-6.28,5.77,0,13.71,3.77,23.8,11.31,11.18,8.8,16.95,16.96,16.95,25.13,0,2.51-1.08,8.17-3.25,15.71-2.16,8.17-3.25,15.08-3.25,20.73l-.72,56.54c6.49-2.51,14.07-5.65,22-9.42,2.16-1.26,6.49-5.03,12.62-11.31,5.05-5.65,8.66-8.8,10.82-8.8,3.61,0,7.57,2.51,12.62,6.28,5.05,4.4,7.57,9.42,7.57,14.45,0,13.82-22,26.39-65.64,38.32,0,60.94,1.44,126.28,4.69,196.64,24.53,16.33,44,36.44,58.43,59.68,5.41,8.8,8.29,18.22,8.29,28.27s-2.88,15.08-8.29,15.08ZM8686.11,1121.05c-14.07-10.05-29.21-15.08-45.44-15.08-11.54,0-21.28,3.77-28.49,10.68-9.74,8.8-14.43,22.62-14.43,40.84,0,16.33,5.41,28.27,16.59,36.44,7.93,6.28,17.31,9.42,28.13,9.42,28.85,0,43.64-20.1,43.64-60.94v-21.36Z"/>
    <path d="M1242.47,1914.53v295.28h-58.07v-395.17h100.27v99.89h-42.2ZM1267.35,1843.53h-65.64v336.11h23.44v-294.65h42.2v-41.46Z"/>
    <path d="M1431.82,2317.23c-12.98,0-24.53-6.28-34.62-18.85-4.69-5.65-12.26-18.22-22.36-38.32l-11.54,52.14h-10.1l-4.33-155.18,10.46-.63c7.57,42.72,18.75,78.53,33.9,106.17,13.71,25.76,26.33,38.32,38.59,38.32,12.98,0,23.08-8.17,31.02-25.13,7.57-16.33,11.54-38.32,11.54-65.97,0-33.3-16.59-65.97-49.41-98.64-24.53-23.87-40.76-42.72-49.41-57.17-13.71-22.62-20.2-49-20.2-80.42,0-33.92,4.69-60.31,14.43-78.53,9.38-17.59,22-27.01,37.87-27.01,22.36,0,39.31,15.71,51.58,46.49l6.13-42.72h10.1l6.13,141.36h-10.82c-9.38-42.09-18.39-72.88-26.33-91.72-10.82-24.5-22.72-37.07-35.71-37.07-11.18,0-19.84,7.54-25.97,21.99-6.49,15.08-9.74,35.18-9.74,61.57,0,18.85,5.41,36.44,16.23,52.77,6.49,10.05,18.75,23.25,36.79,40.84,22.72,22.62,38.95,42.09,48.33,59.06,13.34,24.5,20.2,52.15,20.2,82.93,0,76.02-20.92,113.71-62.76,113.71Z"/>
    <path d="M1563.11,2159.54c0,36.44,3.97,67.22,12.26,92.35,9.38,28.9,22.72,42.72,39.31,42.72s33.18-22.62,47.61-68.48l6.13,6.28c-7.93,30.16-15.87,50.89-23.8,63.45-9.38,14.45-21.28,21.36-35.71,21.36-22.36,0-40.03-14.45-53.74-44.61-13.34-28.27-19.84-64.08-19.84-108.06s6.13-81.04,18.76-111.2c13.34-32.67,31.38-49,53.74-49,20.56,0,36.43,16.33,47.25,49,9.02,28.27,13.71,63.45,13.71,106.17h-105.68ZM1633.44,2051.48c-6.13-20.1-15.15-30.78-27.05-30.78-14.07,0-24.89,13.82-32.82,41.46-7.21,23.87-10.46,50.89-10.46,81.04h62.04c10.46,0,15.87-8.17,15.87-25.13,0-27.01-2.52-49-7.57-66.59Z"/>
    <path d="M1796.47,2317.23c-13.71,0-23.8-6.91-31.02-21.36-7.21-13.82-10.82-32.67-10.82-56.54v-209.21h-29.58v-16.33c13.34,0,23.8-12.57,31.74-37.7,6.85-21.99,10.46-49.63,10.46-82.93h10.82v120.62h49.41v16.33h-49.41v189.1c0,45.86,8.66,68.48,25.97,68.48,9.74,0,17.31-9.42,22.72-28.27,3.97-15.08,6.13-32.67,6.13-52.77h6.85c0,74.13-14.43,110.57-43.28,110.57Z"/>
    <path d="M1976.81,2317.23c-13.71,0-23.8-6.91-31.02-21.36-7.21-13.82-10.82-32.67-10.82-56.54v-209.21h-29.58v-16.33c13.34,0,23.8-12.57,31.74-37.7,6.85-21.99,10.46-49.63,10.46-82.93h10.82v120.62h49.41v16.33h-49.41v189.1c0,45.86,8.66,68.48,25.97,68.48,9.74,0,17.31-9.42,22.72-28.27,3.97-15.08,6.13-32.67,6.13-52.77h6.85c0,74.13-14.43,110.57-43.28,110.57Z"/>
    <path d="M2104.13,2159.54c0,36.44,3.97,67.22,12.26,92.35,9.38,28.9,22.72,42.72,39.31,42.72s33.18-22.62,47.61-68.48l6.13,6.28c-7.93,30.16-15.87,50.89-23.8,63.45-9.38,14.45-21.28,21.36-35.71,21.36-22.36,0-40.03-14.45-53.74-44.61-13.34-28.27-19.84-64.08-19.84-108.06s6.13-81.04,18.76-111.2c13.34-32.67,31.38-49,53.74-49,20.56,0,36.43,16.33,47.25,49,9.02,28.27,13.71,63.45,13.71,106.17h-105.68ZM2174.46,2051.48c-6.13-20.1-15.15-30.78-27.05-30.78-14.07,0-24.89,13.82-32.82,41.46-7.21,23.87-10.46,50.89-10.46,81.04h62.04c10.46,0,15.87-8.17,15.87-25.13,0-27.01-2.52-49-7.57-66.59Z"/>
    <path d="M2503.75,2317.23c-49.41,0-73.94-74.76-73.94-224.29s24.53-224.91,73.94-224.91,73.94,75.39,73.94,224.91-24.89,224.29-73.94,224.29ZM2503.75,1884.37c-31.38,0-46.89,69.74-46.89,208.58s15.51,207.95,46.89,207.95c18.39,0,31.38-21.99,38.95-67.22,5.05-32.04,7.93-79.16,7.93-140.73,0-138.84-15.87-208.58-46.89-208.58Z"/>
    <path d="M2698.16,2317.23c-13.71,0-23.8-6.91-31.02-21.36-7.21-13.82-10.82-32.67-10.82-56.54v-209.21h-29.58v-16.33c13.34,0,23.8-12.57,31.74-37.7,6.85-21.99,10.46-49.63,10.46-82.93h10.82v120.62h49.41v16.33h-49.41v189.1c0,45.86,8.66,68.48,25.97,68.48,9.74,0,17.31-9.42,22.72-28.27,3.97-15.08,6.13-32.67,6.13-52.77h6.85c0,74.13-14.43,110.57-43.28,110.57Z"/>
    <path d="M2878.5,2317.23c-13.71,0-23.8-6.91-31.02-21.36-7.21-13.82-10.82-32.67-10.82-56.54v-209.21h-29.58v-16.33c13.34,0,23.8-12.57,31.74-37.7,6.85-21.99,10.46-49.63,10.46-82.93h10.82v120.62h49.41v16.33h-49.41v189.1c0,45.86,8.66,68.48,25.97,68.48,9.74,0,17.31-9.42,22.72-28.27,3.97-15.08,6.13-32.67,6.13-52.77h6.85c0,74.13-14.43,110.57-43.28,110.57Z"/>
    <path d="M3092.02,2266.98c-12.26,33.92-27.77,50.26-46.89,50.26s-34.99-16.33-47.25-49.63c-11.54-30.16-16.95-65.97-16.95-106.8s5.41-76.02,16.95-106.8c12.26-33.3,27.77-50.26,47.25-50.26s34.62,16.96,46.89,49.63c10.82,30.78,16.59,66.59,16.59,106.8s-5.77,76.65-16.59,106.8ZM3073.62,2068.45c-6.49-32.04-15.87-48.38-28.49-48.38s-22.36,16.33-28.85,49c-5.05,25.76-7.57,56.54-7.57,91.72s2.52,66.59,7.57,91.72c6.49,32.67,15.87,48.38,28.85,48.38s22-16.33,28.49-49c4.69-25.13,7.21-55.29,7.21-91.72s-2.52-66.59-7.21-91.72Z"/>
    <path d="M3464.6,2084.78c-13.71,21.99-31.38,32.67-52.66,32.67h-36.79v130.05c0,17.59,1.44,28.9,4.33,34.55,2.89,6.28,9.02,9.42,18.39,9.42h3.25v16.33h-75.74v-16.33h4.69c9.02,0,15.15-3.77,18.03-11.31,2.16-5.65,3.25-16.33,3.25-32.67v-306.59c0-16.33-1.8-28.27-4.69-35.81-3.25-7.54-8.66-11.31-16.59-11.31h-4.69v-16.33h89.09c47.25,0,71.05,40.84,71.05,121.25,0,36.44-7.21,64.71-20.92,86.07ZM3413.38,1893.79h-11.54c-18.03,0-26.69,15.71-26.69,47.12v160.2h28.13c35.35,0,53.02-34.55,53.02-103.66s-14.43-103.66-42.92-103.66Z"/>
    <path d="M3654.31,2300.27c-5.77,7.54-11.18,11.31-16.59,11.31-16.23,0-25.97-18.85-29.21-56.54-5.77,17.59-13.34,32.67-22.36,44.61-9.38,11.94-18.03,17.59-25.97,17.59-34.62,0-51.58-24.5-51.58-73.5,0-31.41,11.9-59.06,36.43-81.67,16.95-15.71,37.87-27.64,62.4-36.44v-45.86c0-20.1-2.52-35.18-6.85-45.23-4.69-8.79-12.62-13.82-23.8-13.82-7.21,0-14.07,2.51-20.56,6.91-8.66,6.28-12.62,14.45-12.62,24.5,0,4.4,1.08,10.05,3.97,16.33,2.52,6.91,3.97,13.19,3.97,18.22,0,18.85-5.77,28.27-16.59,28.27-5.05,0-9.02-3.14-11.9-10.68-2.89-6.91-4.33-15.08-4.33-24.5,0-25.13,6.85-44.61,21.28-59.06,11.18-10.68,24.17-16.33,38.59-16.33,34.62,0,52.3,28.9,52.3,85.44v158.32c0,24.5,5.77,36.44,17.31,36.44,2.52,0,5.05-1.26,7.57-5.03,2.52-3.77,3.97-5.65,4.69-5.65,1.44,0,2.52,1.88,2.52,5.65,0,6.28-2.89,13.19-8.66,20.73ZM3607.42,2141.32c-23.8,12.57-40.03,23.25-48.69,32.67-15.15,16.96-22.72,40.21-22.72,69.11,0,17.59,2.52,31.41,7.93,41.46,5.05,11.31,11.18,16.33,18.03,16.33,8.3,0,16.95-7.54,25.97-23.25,7.93-12.56,14.43-28.9,19.48-48.38v-87.96Z"/>
    <path d="M3774.78,2317.23c-9.74,0-18.03-3.14-24.89-10.05-5.05-4.4-11.18-13.19-18.39-25.76l-16.23,31.41h-6.85v-114.97h7.21c7.21,35.81,15.51,61.57,24.53,77.27,9.74,17.59,21.64,25.76,36.07,25.76,9.74,0,17.67-4.4,23.8-13.82s9.38-21.99,9.38-38.32c0-33.3-15.15-57.8-44.72-72.88-35.71-17.59-53.38-47.75-53.38-90.47,0-24.5,3.61-43.98,11.18-59.06,7.21-14.45,17.67-21.99,31.02-21.99,15.87,0,28.85,9.42,38.95,27.64l12.98-24.5h6.13v99.26h-6.85c-7.57-31.41-14.43-52.77-20.56-64.71-7.94-13.82-18.03-21.36-30.3-21.36-19.48,0-28.85,16.33-28.85,47.75,0,28.27,15.51,50.26,47.25,65.34,34.26,17.59,51.58,48.38,51.58,92.98,0,60.31-16.59,90.47-49.05,90.47Z"/>
    <path d="M3960.53,2317.23c-13.71,0-23.8-6.91-31.02-21.36-7.21-13.82-10.82-32.67-10.82-56.54v-209.21h-29.58v-16.33c13.34,0,23.8-12.57,31.74-37.7,6.85-21.99,10.46-49.63,10.46-82.93h10.82v120.62h49.41v16.33h-49.41v189.1c0,45.86,8.66,68.48,25.97,68.48,9.74,0,17.31-9.42,22.72-28.27,3.97-15.08,6.13-32.67,6.13-52.77h6.85c0,74.13-14.43,110.57-43.28,110.57Z"/>
    <path d="M4195.33,2300.27c-5.77,7.54-11.18,11.31-16.59,11.31-16.23,0-25.97-18.85-29.21-56.54-5.77,17.59-13.34,32.67-22.36,44.61-9.38,11.94-18.03,17.59-25.97,17.59-34.62,0-51.58-24.5-51.58-73.5,0-31.41,11.9-59.06,36.43-81.67,16.95-15.71,37.87-27.64,62.4-36.44v-45.86c0-20.1-2.52-35.18-6.85-45.23-4.69-8.79-12.62-13.82-23.8-13.82-7.21,0-14.07,2.51-20.56,6.91-8.66,6.28-12.62,14.45-12.62,24.5,0,4.4,1.08,10.05,3.97,16.33,2.52,6.91,3.97,13.19,3.97,18.22,0,18.85-5.77,28.27-16.59,28.27-5.05,0-9.02-3.14-11.9-10.68-2.89-6.91-4.33-15.08-4.33-24.5,0-25.13,6.85-44.61,21.28-59.06,11.18-10.68,24.17-16.33,38.59-16.33,34.62,0,52.3,28.9,52.3,85.44v158.32c0,24.5,5.77,36.44,17.31,36.44,2.52,0,5.05-1.26,7.57-5.03,2.52-3.77,3.97-5.65,4.69-5.65,1.44,0,2.52,1.88,2.52,5.65,0,6.28-2.89,13.19-8.66,20.73ZM4148.44,2141.32c-23.8,12.57-40.03,23.25-48.69,32.67-15.15,16.96-22.72,40.21-22.72,69.11,0,17.59,2.52,31.41,7.94,41.46,5.05,11.31,11.18,16.33,18.03,16.33,8.3,0,16.95-7.54,25.97-23.25,7.93-12.56,14.43-28.9,19.48-48.38v-87.96Z"/>
    <path d="M4499.74,2261.95c-16.59-54.66-24.89-111.2-24.89-169.63s8.3-114.34,24.89-169.63c17.31-56.54,39.67-98.01,67.08-125.65v13.19c-22.36,30.16-39.31,72.25-50.85,125.02-11.18,49-16.59,101.15-16.59,157.06s5.41,108.69,16.59,157.06c11.54,53.4,28.49,94.87,50.85,125.02v13.19c-27.41-27.64-49.77-69.11-67.08-125.65Z"/>
    <path d="M4894.32,2008.14l-9.38,10.68c-7.93,13.19-19.12,32.67-34.26,59.06-12.98,22.62-25.25,40.84-36.07,55.29-5.05,6.28-7.57,9.42-8.3,9.42-1.08,0-1.44-.63-1.44-3.14.72-1.88,2.89-6.91,7.21-15.71,9.38-18.22,18.75-38.95,28.49-62.2,14.43-33.92,21.64-57.17,21.64-69.74,0-7.54-2.89-11.31-8.3-11.31-7.94,0-45.81,16.96-113.97,50.89-2.16,59.68-2.89,114.97-2.89,166.49,0,36.44,3.61,60.31,10.82,72.88,7.21,12.56,21.64,18.85,43.28,18.85,18.03,0,33.9-1.26,47.61-5.03,9.02-1.88,17.31-5.03,25.25-9.42,6.49-3.14,9.74-5.03,10.46-5.03,3.61,0,7.93,3.14,13.71,8.17,5.41,6.28,8.3,11.94,8.3,17.59,0,16.96-25.97,25.13-77.91,25.13h-37.87c-22.36-1.88-38.59-9.42-47.97-23.87-10.82-16.33-16.23-43.98-16.23-83.56,0-2.51,1.44-60.31,4.69-172.77-23.8,13.19-43.28,27.01-58.79,42.09-6.49,6.28-11.18,9.42-13.34,9.42-5.05,0-11.9-6.91-20.92-21.36-9.38-13.82-14.07-24.5-14.07-32.67,0-2.51.72-4.4,2.16-4.4,2.89,3.14,5.77,6.28,9.02,9.42,5.05,5.03,10.46,7.54,15.51,7.54,5.41,0,32.46-10.68,80.79-33.3,1.08-57.8,1.8-98.64,1.8-122.51,0-19.48-3.97-32.67-11.18-38.95-2.16-1.26-3.97-1.88-5.41-3.14-2.89-1.26-4.33-3.14-4.33-4.4,0-5.03,4.33-7.54,13.71-7.54,5.41,0,12.98,3.77,22.36,11.31,10.82,8.17,16.23,16.33,16.23,23.87,0,1.26-1.8,6.91-5.05,18.22-3.61,11.31-5.05,21.99-5.05,31.41,0,3.14-1.44,30.78-3.61,82.93l104.6-47.12,11.54-9.42c5.05-5.03,8.3-7.54,10.1-7.54,3.61,0,10.46,6.91,20.2,20.73,9.38,13.82,14.43,24.5,14.43,30.78,0,2.51-2.52,6.28-7.57,11.94Z"/>
    <path d="M5060.23,2126.25c-2.52,7.54-5.77,10.68-9.38,10.68-5.05,0-9.74-10.05-13.35-31.41-2.89-16.33-8.3-33.92-16.23-53.4-6.49-15.71-9.74-24.5-9.74-25.76,0-2.51.72-4.4,2.52-4.4,4.33,0,12.62,8.79,25.61,25.13,15.51,20.73,23.44,40.21,23.44,59.06,0,7.54-1.08,14.45-2.89,20.1ZM5220.73,2044.57c-4.33,10.05-6.49,16.33-6.85,18.85-16.95,70.99-33.54,125.02-49.41,161.46-24.53,55.91-54.46,95.49-89.81,120.62-2.52,1.26-4.69,2.51-6.49,2.51-2.16,0-3.25-1.88-3.25-4.4,0-1.88,1.44-4.4,4.69-6.91,51.94-50.26,90.17-135.07,114.69-254.44,6.85-33.92,10.46-55.91,10.46-66.59,0-8.8-2.52-16.33-6.85-23.87s-6.49-11.31-6.49-11.94c0-3.14,1.44-5.03,4.33-5.03,5.77,0,13.71,6.91,24.53,19.48,10.1,13.19,15.51,24.5,15.51,33.3,0,1.88-1.8,7.54-5.05,16.96ZM5119.38,2083.53c-5.05,0-9.74-11.31-14.07-34.55-5.41-28.27-11.54-49-18.75-61.57-2.52-3.77-3.61-6.91-3.61-8.8,0-2.51.72-4.4,2.89-4.4,3.97,0,11.9,7.54,24.17,22.62,14.43,18.22,21.64,36.44,21.64,55.29,0,21.36-4.33,31.41-12.26,31.41Z"/>
    <path d="M5618.92,2055.25l-17.67-5.03c-12.26-3.14-23.8-5.03-34.99-5.03-27.05,0-54.1,1.26-81.15,3.14,15.87,10.05,24.17,20.1,24.17,30.16,0,2.51-1.44,6.28-3.97,11.31-2.89,5.65-4.69,10.05-5.05,12.57-9.38,63.45-23.08,114.97-41.48,153.92-20.2,42.72-46.89,73.51-80.79,94.24-7.21,3.77-11.54,6.28-12.98,6.28-2.52,0-3.61-1.26-3.61-3.77s1.08-5.03,3.61-6.28c29.94-23.87,55.54-59.05,76.82-106.8,22.36-51.52,33.54-104.29,33.54-158.95,0-9.42-3.25-19.48-9.74-30.78-36.79,6.28-62.76,14.45-77.54,24.5-10.82,7.54-16.95,11.31-18.39,11.31-5.05,0-12.62-7.54-22-23.87-9.74-15.08-14.43-27.01-14.43-35.81,0-3.14.72-5.03,2.89-5.03,14.43,14.45,25.25,21.36,33.18,21.36l105.68-17.59,89.45-12.56c3.61,0,9.02-2.51,16.23-6.28,6.85-3.77,11.18-5.65,12.62-5.65,4.33,0,10.82,5.03,19.48,15.08,8.3,10.68,12.62,19.48,12.62,27.01,0,8.79-2.16,12.56-6.49,12.56ZM5552.19,1904.47c-18.03,5.03-41.48,10.05-69.97,15.08-28.49,5.03-47.25,7.54-56.63,7.54-12.98,0-23.8-6.91-32.82-21.99-7.21-10.68-10.46-18.85-10.46-24.5,0-2.51,1.08-3.77,3.25-3.77,14.79,13.19,27.41,19.48,37.51,19.48,30.3,0,65.28-6.91,104.23-21.36,1.44,0,3.97-2.51,7.94-6.28,3.61-3.14,6.85-5.03,9.02-5.03,3.61,0,7.94,2.51,13.71,7.54,5.77,5.65,8.66,11.31,8.66,16.33,0,8.79-5.05,14.45-14.43,16.96Z"/>
    <path d="M6162.46,1976.1c-19.12-3.77-38.95-6.28-59.51-6.28-7.93,0-20.92,1.26-39.31,2.51,0,86.07.72,159.58,2.89,220.52l1.8,52.14.72,16.96c0,20.73-3.25,40.21-9.38,58.43-5.77,15.71-10.82,23.87-15.15,23.87-2.16,0-5.05-5.65-8.66-16.33-5.05-12.57-7.93-20.1-8.66-21.36-2.89-4.4-9.02-12.56-18.76-23.87l-4.69-5.65c-10.1-11.31-15.15-18.22-15.15-20.1,0-2.51.72-4.4,2.52-4.4,1.44,1.26,7.21,5.03,16.95,10.68,11.9,7.54,20.92,10.68,26.69,10.68,7.21,0,11.18-8.17,11.18-25.76l-.72-100.52-.72-122.51c-46.17,99.26-98.1,175.28-155.45,228.68-7.93,7.54-12.62,10.68-14.43,10.68-2.16,0-2.89-1.26-2.89-3.77,0-1.88,1.44-4.4,4.33-7.54,20.92-21.36,47.25-59.68,79.35-113.71,37.15-62.83,63.48-116.85,79.35-162.72-35.35,7.54-65.64,17.59-90.17,29.53-13.71,6.91-21.64,10.05-23.8,10.05-5.05,0-12.26-6.91-21.64-20.73-9.38-13.19-13.71-23.87-13.71-32.67,0-3.77.72-5.65,2.89-5.65,12.98,11.31,22.72,16.96,29.58,16.96,7.93,0,49.41-6.91,125.15-20.73-.72-14.45-1.08-27.64-1.8-38.95-1.44-27.64-3.25-44.61-5.05-51.52-3.61-11.94-9.74-18.22-18.39-18.22-2.16,0-2.89-1.26-2.89-4.4,0-4.4,4.33-6.91,12.98-6.91,7.93,0,17.31,3.77,28.13,11.31,10.46,7.54,15.87,15.08,15.87,22.62l-4.33,20.1c-2.89,13.19-4.33,25.76-4.33,37.69v24.5l33.9-5.65c12.98-2.51,23.8-6.28,33.18-10.68l10.46-5.03c3.61,0,9.02,5.65,16.59,15.71,7.57,10.68,11.54,18.22,11.54,21.99,0,6.91-2.16,10.05-6.49,10.05Z"/>
    <path d="M6322.6,2126.25c-2.52,7.54-5.77,10.68-9.38,10.68-5.05,0-9.74-10.05-13.34-31.41-2.89-16.33-8.3-33.92-16.23-53.4-6.49-15.71-9.74-24.5-9.74-25.76,0-2.51.72-4.4,2.52-4.4,4.33,0,12.62,8.79,25.61,25.13,15.51,20.73,23.44,40.21,23.44,59.06,0,7.54-1.08,14.45-2.89,20.1ZM6483.1,2044.57c-4.33,10.05-6.49,16.33-6.85,18.85-16.95,70.99-33.54,125.02-49.41,161.46-24.53,55.91-54.46,95.49-89.81,120.62-2.52,1.26-4.69,2.51-6.49,2.51-2.16,0-3.25-1.88-3.25-4.4,0-1.88,1.44-4.4,4.69-6.91,51.94-50.26,90.17-135.07,114.69-254.44,6.85-33.92,10.46-55.91,10.46-66.59,0-8.8-2.52-16.33-6.85-23.87s-6.49-11.31-6.49-11.94c0-3.14,1.44-5.03,4.33-5.03,5.77,0,13.71,6.91,24.53,19.48,10.1,13.19,15.51,24.5,15.51,33.3,0,1.88-1.8,7.54-5.05,16.96ZM6381.75,2083.53c-5.05,0-9.74-11.31-14.07-34.55-5.41-28.27-11.54-49-18.75-61.57-2.52-3.77-3.61-6.91-3.61-8.8,0-2.51.72-4.4,2.88-4.4,3.97,0,11.9,7.54,24.17,22.62,14.43,18.22,21.64,36.44,21.64,55.29,0,21.36-4.33,31.41-12.26,31.41Z"/>
    <path d="M6811.68,2155.78c-5.05,0-10.1-5.03-15.51-16.33-27.41-53.4-56.99-89.21-88-106.8,0,12.57,0,37.7.36,74.76,0,37.7.36,64.08.36,78.53,0,23.87.36,59.06,1.8,104.92,0,35.18-4.69,52.77-13.34,52.77-4.33,0-7.94-8.17-11.54-24.5-2.88-13.82-4.33-25.76-4.33-34.55l2.16-25.13c2.16-28.9,3.61-115.6,3.61-260.1,0-7.54-.72-37.07-1.8-88.58-.72-16.96-1.44-28.9-2.52-35.18-1.8-7.54-5.05-13.82-10.1-18.22-7.93-6.28-11.54-10.05-11.54-12.57,0-4.4,2.89-6.91,9.02-6.91,8.66,0,18.75,3.77,30.3,11.31,10.82,7.54,16.59,15.71,16.59,23.25,0,2.51-1.08,6.91-3.25,11.94-2.16,5.65-3.25,10.05-3.25,13.19,0,1.88-.72,20.73-1.44,56.54-.72,35.81-1.08,58.43-1.08,67.85,26.33,6.28,49.41,18.22,69.25,35.81,29.57,27.02,44.72,52.15,44.72,74.76,0,15.71-3.61,23.25-10.46,23.25Z"/>
    <path d="M7140.98,2278.91c22.36-61.57,37.51-104.29,44.72-127.54,12.62-41.46,23.44-88.58,32.82-140.1,4.69-27.01,7.21-46.49,7.21-59.06,0-8.79-2.52-16.96-7.21-23.25-4.69-5.65-6.85-9.42-6.85-11.31,0-2.51,1.8-4.4,6.13-4.4,6.49,0,14.79,6.28,25.25,17.59,10.46,11.94,15.87,23.25,15.87,33.3,0,3.14-1.44,7.54-3.97,12.56-3.25,6.91-5.05,11.31-5.41,13.19l-8.66,37.7c-13.34,55.29-25.97,99.89-38.23,133.82-15.15,42.72-33.54,81.04-55.18,115.6-2.52,3.77-3.97,5.65-4.69,5.65-1.44,0-1.8-1.26-1.8-3.77ZM7409.68,2264.46c-6.49,0-11.18-13.19-14.07-39.58-11.54-108.06-37.15-207.32-76.46-299.05-2.88-6.28-4.33-10.05-4.33-11.31,0-1.88.36-3.14,1.44-3.14s3.97,3.77,9.02,10.68c21.64,32.04,43.28,76.65,64.56,134.45,23.08,64.08,34.62,114.97,34.62,153.29s-5.05,54.66-14.79,54.66ZM7428.43,1947.82c-6.49,11.31-14.43,16.96-23.08,16.96-9.38,0-16.95-5.03-23.08-16.33-6.49-10.68-9.38-23.87-9.38-40.21s2.89-29.53,9.38-40.84c6.13-10.68,13.71-16.33,23.08-16.33s16.59,5.65,23.08,16.33c6.13,11.31,9.38,25.13,9.38,40.84s-3.25,28.9-9.38,39.58ZM7421.58,1879.97c-4.33-7.54-9.74-11.94-16.23-11.94s-12.26,4.4-16.59,11.94c-4.33,7.54-6.49,16.96-6.49,28.27s2.16,20.73,6.85,28.27c4.33,7.54,9.74,11.31,16.23,11.31,6.13,0,11.54-3.77,15.87-11.31s6.85-16.96,6.85-28.27-2.16-20.73-6.49-28.27Z"/>
    <path d="M7769.27,2327.92c-5.05,0-9.74-8.17-13.71-23.87-7.21-26.39-17.67-56.54-31.74-90.47-16.95-39.58-34.62-73.51-53.38-102.41-42.92,101.78-94.5,174.65-155.09,218.63-1.8,1.26-3.61,1.88-5.05,1.88s-2.16-.63-2.16-1.88c0-2.51,1.08-4.4,3.61-6.91,41.12-42.72,77.91-96.75,110.73-161.46,32.46-64.71,57.71-135.07,76.46-211.72,2.16-8.8,3.25-16.33,3.25-23.25,0-8.8-3.25-13.82-9.38-13.82-12.26,0-31.38,4.4-56.62,11.94-20.2,6.28-36.43,13.19-48.69,20.1l-10.46,9.42c-4.69,4.4-8.3,6.28-10.82,6.28-5.05,0-11.54-7.54-20.2-23.87-8.66-15.71-12.62-28.27-12.62-37.07,0-2.51.72-3.77,2.16-3.77l9.02,11.94c6.85,7.54,14.43,10.68,22.36,10.68,7.21,0,28.85-3.77,65.28-11.31l59.15-13.19c2.16,0,5.77-2.51,10.46-7.54,4.33-3.77,6.85-6.28,8.3-6.28,2.88,0,8.29,6.91,16.95,20.1,7.93,13.82,12.26,22.62,12.26,27.01,0,3.77-2.52,8.8-6.85,16.33-5.77,8.79-9.02,15.08-9.74,18.85-13.71,50.89-30.3,98.63-49.77,143.87,24.53,26.39,46.17,53.4,64.2,81.04,27.41,42.72,41.48,79.79,41.48,111.2,0,19.48-3.25,29.53-9.38,29.53Z"/>
    <path d="M8117.69,1944.68c-4.33,9.42-6.85,15.71-7.57,18.85-12.98,53.4-28.85,104.92-47.61,153.92,10.1,13.82,18.75,28.27,26.33,43.35,10.1,21.36,15.51,40.21,15.51,55.29s-3.25,21.99-9.02,21.99c-3.97,0-9.38-8.17-15.87-25.76-10.46-25.76-20.2-47.12-29.21-64.71-37.87,87.33-83.32,151.41-136.69,192.25-12.98,10.05-22.36,15.08-27.41,15.08-1.44,0-1.8-.63-1.8-1.26,0-1.88,2.16-4.4,6.49-7.54,55.54-43.98,104.23-118.11,145.35-221.14-22.36-35.18-42.2-59.06-59.87-72.88-3.61-2.51-5.41-4.4-5.41-6.28,0-1.26.72-2.51,2.16-2.51,2.88,0,11.54,5.03,25.25,14.45,15.87,11.31,32.1,25.13,47.97,41.46,13.71-38.32,24.53-76.02,33.18-113.08,5.05-23.25,7.93-37.07,7.93-40.84,0-11.94-3.97-18.22-11.18-18.22-2.16,0-11.54,3.14-28.49,9.42-17.31,6.28-29.94,8.8-37.87,8.8-3.61,0-7.93-3.14-12.62-10.68-23.8,65.34-56.99,128.16-99.55,189.1-4.33,6.28-7.57,8.8-10.46,8.8-1.8,0-2.53-1.26-2.53-3.77s1.44-5.65,4.33-9.42c15.15-19.48,35.35-59.68,60.23-120,24.53-60.31,37.15-101.78,37.15-124.39,0-7.54-1.44-13.19-3.61-17.59-1.08-1.26-3.97-5.03-9.02-10.05-1.44-1.26-1.8-1.88-1.8-3.14,0-3.77,2.16-5.65,6.85-5.65,6.85,0,14.79,5.03,24.17,13.82,10.1,10.05,15.15,20.73,15.15,31.41,0,1.26-1.44,5.03-4.33,10.68-3.61,6.28-5.77,10.05-5.77,10.68l-5.77,16.33c2.89,3.14,5.41,4.4,8.3,4.4,14.79,0,34.99-6.28,60.95-20.1,4.33-1.88,8.66-5.03,13.35-10.05,3.61-3.77,6.13-5.65,7.57-5.65,2.89,0,9.02,6.28,18.03,17.59,8.66,11.31,13.34,19.48,13.34,23.25,0,1.26-2.16,6.28-6.13,13.82Z"/>
    <path d="M8262.32,2261.95c-17.31,56.54-39.67,98.01-67.08,125.65v-13.19c22-30.16,38.95-71.62,51.21-125.02,10.82-48.38,16.23-100.52,16.23-157.06s-5.41-108.69-16.23-157.69c-12.26-52.77-29.21-94.24-51.21-124.39v-13.19c27.41,27.64,49.77,69.11,67.08,125.65,16.59,55.29,24.89,111.83,24.89,169.63s-8.3,114.97-24.89,169.63Z"/>
    <path d="M8411.64,2367.49v-99.89h42.2v-295.28h58.07v395.17h-100.27ZM8494.6,2002.48h-23.44v294.65h-42.2v41.46h65.64v-336.11Z"/>
    <path d="M8901.44,2331.69c-29.21,0-53.02-6.91-71.05-20.73-25.97-18.85-38.59-50.89-38.59-95.49,0-32.04,9.02-62.2,27.77-89.84,10.82-16.33,28.13-34.55,51.94-55.91-8.66-18.85-12.62-67.85-12.62-147.64,0-21.99-1.8-38.32-5.05-49-2.16-6.91-5.05-11.94-8.66-15.71-3.97-2.51-5.77-4.4-5.77-5.65,0-5.65,2.16-8.8,6.85-8.8,6.85,0,14.79,3.14,23.8,8.8,10.82,7.54,16.23,16.33,16.23,26.39,0,1.88-1.08,6.28-3.25,12.56-3.25,10.05-4.69,33.3-4.69,70.36,0,47.75,3.25,79.16,10.46,93.61,18.39-11.94,44-28.9,76.82-51.52,7.21-5.03,11.18-11.31,11.18-17.59,0-2.51-.72-5.65-1.8-9.42-1.44-3.77-1.8-5.65-1.8-6.91,0-3.77,1.08-5.65,3.61-5.65,6.49,0,12.98,5.65,19.84,15.71,6.49,11.31,9.74,21.99,9.74,33.3,0,8.79-5.77,15.71-16.59,20.73-54.46,24.5-90.89,43.35-109.28,55.91-49.77,35.18-74.66,75.39-74.66,120.62,0,33.3,11.18,57.17,33.54,70.99,15.51,10.05,34.62,15.08,57.71,15.08,20.92,0,39.31-1.88,55.54-6.91,10.1-2.51,20.56-6.28,31.02-11.94,8.3-4.4,13.34-6.91,15.51-6.91,5.05,0,9.74,2.51,14.07,7.54,4.33,5.03,6.49,11.94,6.49,20.1,0,22.62-39.67,33.93-118.3,33.93Z"/>
    <path d="M9215.95,1971.7l-11.54,48.38c-17.31,72.88-34.26,135.7-50.86,189.1-5.77,18.85-10.82,28.27-15.15,28.27-6.13,0-9.02-10.05-9.02-30.78,0-8.79,2.16-18.85,6.85-30.16,3.61-8.8,7.57-17.59,11.9-26.39,12.62-30.16,29.21-87.33,49.41-172.14-13.71,4.4-23.08,6.28-28.49,6.28-9.02,0-18.39-5.03-28.49-15.71-10.1-10.05-15.15-18.85-15.15-25.76,0-2.51.72-4.4,2.16-4.4,3.25,3.77,6.85,6.91,10.46,9.42,7.21,6.28,14.79,8.8,22.72,8.8,10.82,0,25.61-2.51,43.64-8.8,7.93-35.18,11.9-59.06,11.9-70.99,0-7.54-3.25-13.82-9.02-20.1-6.13-5.65-9.02-9.42-9.02-11.31,0-3.77,2.16-6.28,6.85-6.28,6.49,0,14.07,2.51,22.72,7.54,10.82,6.28,16.23,13.82,16.23,22.62,0,2.51-1.44,6.91-4.33,12.57-3.61,7.54-6.13,13.82-6.85,18.22-2.16,8.8-5.41,21.99-9.74,40.84,7.57-1.88,16.23-6.91,25.97-15.71,8.66-7.54,14.07-11.31,15.87-11.31,2.88,0,6.49,2.51,11.18,6.28,4.33,3.77,6.85,8.17,6.85,12.56,0,10.05-22.36,22.62-67.08,38.95ZM9398.09,2028.24l-12.62-8.8c-8.29-6.28-16.23-9.42-23.44-9.42-10.46,0-19.48,5.03-27.05,15.08-8.66,11.31-12.98,25.76-12.98,42.72,0,15.08,4.33,64.08,13.34,147.64,13.71,8.17,27.41,18.22,41.12,30.78,19.48,18.85,29.58,35.18,29.58,49.63,0,11.31-4.33,16.96-12.26,16.96-2.16,0-9.74-8.17-22.72-24.5-15.51-18.85-27.05-32.04-34.62-38.95-1.8,61.57-22.36,91.72-61.67,91.72-16.23,0-29.94-5.65-41.48-16.33-14.43-13.19-21.64-32.67-21.64-58.43,0-46.49,19.84-70.36,59.87-70.36,14.07,0,28.49,3.14,43.64,8.79-.72-7.54-3.25-30.16-6.85-67.22-3.25-29.53-4.69-48.38-4.69-56.54,0-24.5,5.77-43.98,18.03-58.43,7.21-8.79,19.84-16.96,37.15-25.13,2.52-1.26,3.97-3.77,3.97-7.54,0-8.8-7.21-18.22-20.92-28.27-10.1-6.91-19.48-11.94-28.49-15.08-3.25-.63-4.69-2.51-4.69-5.03,0-4.4,4.33-6.91,13.35-6.91,16.59,0,33.54,6.28,51.58,18.22,22.36,15.71,33.9,35.18,33.9,59.06,0,11.31-3.25,16.33-9.38,16.33ZM9316.58,2236.82c-18.75-12.57-37.15-18.85-55.54-18.85-26.69,0-40.03,15.08-40.03,45.23,0,16.33,6.13,28.27,19.12,37.07,9.38,6.91,19.84,10.05,30.66,10.05,14.79,0,25.61-3.77,32.82-11.94,8.66-10.05,12.98-27.64,12.98-52.77v-8.8Z"/>
    <path d="M9691.32,2241.85c-13.71,38.32-37.51,69.74-71.05,94.87-22,16.33-37.87,24.5-47.61,24.5-3.25,0-4.69-1.88-4.69-5.65,0-3.14,2.16-5.65,6.49-7.54,14.07-6.91,28.49-17.59,43.64-32.67,25.97-25.76,44.36-59.68,55.54-101.78,9.38-36.44,14.43-84.19,14.43-141.98,0-107.43-11.18-161.46-33.54-161.46-18.03,0-33.9,35.18-48.33,105.55-12.26,59.05-18.39,108.69-18.39,148.89,0,3.14,0,7.54.36,13.82v13.82c0,6.91-1.08,13.19-3.25,18.85-2.16,6.28-5.05,8.79-8.66,8.79-11.18,0-20.2-17.59-26.69-53.4-5.05-26.39-7.57-51.52-7.57-75.39,0-38.32,3.25-81.67,10.1-130.05l10.1-72.88c0-11.31-4.33-22.62-12.26-32.67-2.16-2.51-4.33-5.03-6.49-8.8,0-3.77,1.44-5.65,4.69-5.65,6.49,0,14.07,6.28,23.44,18.85,9.38,13.19,14.07,25.13,14.07,35.81,0,5.65-1.8,14.45-5.05,25.76-2.89,8.8-5.41,16.96-7.57,25.76-9.38,37.69-14.07,79.79-14.07,125.65,0,14.45.72,28.9,2.52,42.72,2.53,21.36,6.13,31.41,10.82,31.41,1.8,0,3.61-7.54,5.77-22.62,7.94-62.83,15.87-110.57,23.8-142.61,15.15-62.2,33.54-93.61,55.54-93.61s36.07,25.13,45.44,74.76c6.13,33.93,9.38,73.5,9.38,120,0,67.85-7.21,120.62-20.92,158.95Z"/>
    <path d="M10105.02,2321.63c-3.61,0-10.82-6.28-22-19.48-19.84-22.62-42.2-41.46-67.45-57.8v7.54c0,35.18-6.49,60.31-19.12,74.13-10.1,10.68-25.97,16.33-46.89,16.33-16.95,0-31.38-5.65-42.92-15.71-15.15-13.19-22.72-33.3-22.72-60.31,0-46.49,23.08-70.36,69.97-70.36,10.82,0,24.53,3.14,40.76,8.17l-2.16-121.25c-28.13,5.65-52.66,8.17-73.58,8.17s-37.51-9.42-48.33-28.27c-7.21-11.94-10.82-22.62-10.82-32.04,0-1.88.72-3.14,2.16-3.14,14.07,23.87,32.46,35.81,55.54,35.81,21.28,0,46.17-2.51,74.3-8.79l-1.8-87.96c-18.75,5.03-33.9,6.91-45.08,6.91-13.34,0-24.89-6.28-34.99-18.85-7.93-9.42-11.54-16.96-11.54-23.25,0-1.88.72-3.14,2.52-3.14,3.61,3.77,7.21,7.54,11.18,11.31,7.93,7.54,17.31,10.68,27.41,10.68,14.43,0,31.02-2.51,50.13-8.79l-.36-29.53c0-25.13-4.33-43.35-12.98-54.03-.36,0-2.89-1.88-7.21-5.65-3.61-2.51-5.41-4.4-5.41-5.65,0-3.77,2.16-6.28,6.49-6.28,6.85,0,15.87,3.14,26.69,9.42,12.98,7.54,19.48,16.33,19.48,25.13,0,2.51-1.44,8.17-3.97,17.59-2.52,9.42-3.61,17.59-3.61,23.87v18.22l19.12-8.17c5.05-2.51,11.18-7.54,18.39-13.82,5.05-4.4,8.66-6.91,10.1-6.91,2.89,0,6.13,1.88,10.1,5.65,3.97,3.77,6.13,8.17,6.13,12.57,0,6.91-4.69,12.56-13.34,16.96-13.71,7.54-30.66,14.45-50.49,20.73l-.36,89.21c24.53-6.28,42.2-13.19,53.02-20.73l12.98-11.31c6.49-5.65,10.46-8.79,11.54-8.79,4.33,0,9.38,1.88,14.43,5.65,5.77,5.03,9.02,10.68,9.02,16.96s-5.77,12.57-16.59,18.22c-21.64,11.31-49.77,21.36-83.68,28.9l5.41,131.93c35.71,16.33,63.84,35.81,84.4,58.43,11.18,12.57,16.95,24.5,16.95,35.81,0,10.68-3.61,15.71-10.82,15.71ZM9995.01,2233.05c-20.2-9.42-38.23-14.45-54.1-14.45-31.74,0-47.61,15.71-47.61,47.12,0,17.59,6.49,31.41,20.2,40.21,10.1,6.91,20.92,10.05,33.18,10.05,15.87,0,27.41-3.14,34.62-10.68,9.38-9.42,14.07-27.01,14.07-53.4l-.36-18.85Z"/>
    <path d="M10446.58,2193.47c-30.66,96.75-72.13,144.5-124.07,144.5-49.05,0-73.22-47.75-73.22-144.5,0-37.07,1.44-92.35,4.69-166.49,2.89-73.5,4.69-111.83,4.69-114.97,0-18.22-5.41-30.78-16.23-37.69-3.97-2.51-5.77-4.4-5.77-6.91,0-7.54,3.97-11.31,11.9-11.31,7.21,0,15.87,5.03,25.25,15.08,10.1,11.31,15.51,22.62,15.51,33.93,0,1.26-1.08,6.91-3.25,16.33s-3.61,15.71-3.97,18.22c-8.66,72.88-12.98,155.18-12.98,246.9,0,37.69,3.25,65.34,10.1,81.67,7.93,20.1,22,30.16,42.92,30.16,26.33,0,51.58-15.08,76.1-46.49,22.36-28.9,40.04-64.71,53.02-108.69,2.52-8.79,4.69-13.19,6.49-13.19,1.44,0,2.53,2.51,2.53,7.54,0,8.8-4.69,27.01-13.71,55.91Z"/>
    <path d="M10722.5,1962.9c-15.51,9.42-35.71,18.22-60.95,27.01-7.57,47.75-16.59,99.89-26.69,155.18-10.1,51.52-19.84,103.03-29.21,154.55-4.33,22.62-9.38,33.93-15.15,33.93-3.97,0-7.21-5.65-9.38-16.96-2.16-8.8-2.89-17.59-2.89-25.76,0-6.28,2.16-16.96,7.21-31.41l10.46-30.78c16.59-65.34,31.74-142.61,45.81-231.82-13.34,3.77-23.44,5.65-30.66,5.65-10.82,0-20.2-5.65-28.49-18.22-7.21-10.05-10.82-18.85-10.82-26.39,0-2.51.72-3.77,2.52-3.77,12.26,13.19,23.44,19.48,33.54,19.48,8.66,0,21.28-2.51,38.59-8.17,6.13-43.98,9.38-74.13,9.38-91.1,0-10.68-4.33-19.48-12.62-26.39-1.44-1.26-2.89-2.51-4.33-5.03,0-4.4,1.8-6.91,6.13-6.91,6.49,0,14.79,3.77,24.17,11.31,10.82,8.79,16.59,17.59,16.59,27.01,0,3.14-1.44,7.54-3.61,13.82-2.88,7.54-4.69,13.19-5.41,16.33-3.25,13.82-6.49,32.04-10.1,54.03,12.26-5.03,22.72-10.05,31.02-16.33,1.8-1.26,5.41-5.03,10.82-10.68,3.61-4.4,6.49-6.91,8.66-6.91,2.89,0,6.49,2.51,11.18,6.91,4.33,5.03,6.85,9.42,6.85,13.82,0,6.91-4.33,12.56-12.62,17.59ZM10794.27,2334.83c-67.08,0-100.27-28.9-100.27-87.33,0-18.85,3.61-37.7,10.82-55.92,6.13-15.08,10.1-23.25,12.26-23.25,1.08,0,1.8,1.88,1.8,4.4-.72,1.88-2.89,7.54-5.77,16.96-3.97,12.57-5.77,24.5-5.77,36.44,0,26.39,7.94,45.86,23.8,57.8,11.54,8.79,25.97,12.56,43.64,12.56,10.46,0,27.41-3.14,50.49-10.05,3.61,0,8.29,2.51,13.71,7.54,5.05,5.03,7.57,10.68,7.57,16.96,0,15.71-17.67,23.87-52.3,23.87ZM10816.63,2045.2c-13.34,4.4-27.41,16.96-41.84,37.07l-7.93,10.68c-1.08,0-1.44-.63-1.44-2.51s1.44-6.28,4.33-12.57c8.3-18.85,12.62-30.16,12.62-33.93,0-8.17-6.85-12.56-20.2-12.56-14.43,0-30.66,6.28-49.05,18.22-1.44,0-2.16-.63-2.16-3.14,0-1.88,1.08-4.4,3.97-7.54,23.08-26.39,49.41-39.58,78.63-39.58,7.57,0,14.79,2.51,21.64,6.28,9.02,6.28,13.71,14.45,13.71,25.13,0,7.54-4.33,11.94-12.26,14.45Z"/>
    <path d="M11006.35,2297.13c-7.93,13.82-17.67,20.1-28.49,20.1s-20.56-6.28-28.13-20.1c-7.93-13.19-11.54-29.53-11.54-49s3.61-35.18,11.54-49c7.57-13.82,16.95-20.73,28.13-20.73s20.56,6.91,28.49,20.73c7.57,13.82,11.54,30.16,11.54,49s-3.97,35.81-11.54,49ZM10998.41,2212.95c-5.77-10.05-12.62-15.08-20.56-15.08s-14.79,5.03-20.2,15.08c-5.77,10.05-8.3,21.36-8.3,35.18s2.53,25.76,8.3,35.18c5.41,10.05,12.26,14.45,20.2,14.45s14.79-4.4,20.56-14.45c5.41-9.42,8.3-21.36,8.3-35.18s-2.89-25.13-8.3-35.18Z"/>
    <path d="M617.41,3017.11c-11.18,18.85-30.66,50.26-58.43,94.87l3.61-.63c2.89,0,6.49,2.51,10.82,6.28,3.97,3.77,6.13,8.17,6.13,12.56,0,1.26-.36,3.77-1.08,8.8s-1.08,9.42-1.08,12.57c-1.44,20.1-2.16,45.86-2.16,78.53,0,47.75.72,104.92,2.52,170.88,0,28.27-3.61,42.72-10.1,42.72-4.33,0-8.66-6.91-12.62-19.48-3.61-11.31-5.41-21.36-5.41-30.16l2.16-25.13c1.44-15.08,2.16-28.27,2.16-38.95l.36-32.67c0-20.73.36-35.81.36-45.23,0-7.54,0-22.62.36-46.49v-41.46c0-13.82-2.16-25.76-6.13-37.07-12.98,21.36-30.66,43.98-52.66,68.48-22.36,25.13-42.92,45.86-61.68,60.94-12.62,10.05-19.84,15.08-22,15.08-1.8,0-2.52-.63-2.52-2.51,0-2.51,1.08-4.4,3.25-6.91,66-65.97,121.55-145.75,166.99-238.73,13.71-27.64,20.56-47.12,20.56-57.17,0-5.03-1.44-9.42-4.33-13.82l-6.13-7.54c0-2.51,1.44-4.4,4.69-4.4,5.05,0,12.26,6.91,21.64,20.1,8.66,13.82,13.34,23.87,13.34,31.41,0,2.51-4.33,11.31-12.62,25.13Z"/>
    <path d="M994.32,3044.12c-4.33,9.42-6.85,15.71-7.57,18.85-12.98,53.4-28.85,104.92-47.61,153.92,10.1,13.82,18.75,28.27,26.33,43.35,10.1,21.36,15.51,40.21,15.51,55.29s-3.25,21.99-9.02,21.99c-3.97,0-9.38-8.17-15.87-25.76-10.46-25.76-20.2-47.12-29.21-64.71-37.87,87.33-83.32,151.41-136.69,192.25-12.98,10.05-22.36,15.08-27.41,15.08-1.44,0-1.8-.63-1.8-1.26,0-1.88,2.16-4.4,6.49-7.54,55.54-43.98,104.23-118.11,145.35-221.14-22.36-35.18-42.2-59.06-59.87-72.88-3.61-2.51-5.41-4.4-5.41-6.28,0-1.26.72-2.51,2.16-2.51,2.89,0,11.54,5.03,25.25,14.45,15.87,11.31,32.1,25.13,47.97,41.46,13.71-38.32,24.53-76.02,33.18-113.08,5.05-23.25,7.93-37.07,7.93-40.84,0-11.94-3.97-18.22-11.18-18.22-2.16,0-11.54,3.14-28.49,9.42-17.31,6.28-29.94,8.8-37.87,8.8-3.61,0-7.93-3.14-12.62-10.68-23.8,65.34-56.99,128.16-99.55,189.1-4.33,6.28-7.57,8.8-10.46,8.8-1.8,0-2.52-1.26-2.52-3.77s1.44-5.65,4.33-9.42c15.15-19.48,35.35-59.68,60.23-120,24.53-60.31,37.15-101.78,37.15-124.39,0-7.54-1.44-13.19-3.61-17.59-1.08-1.26-3.97-5.03-9.02-10.05-1.44-1.26-1.8-1.88-1.8-3.14,0-3.77,2.16-5.65,6.85-5.65,6.85,0,14.79,5.03,24.17,13.82,10.1,10.05,15.15,20.73,15.15,31.41,0,1.26-1.44,5.03-4.33,10.68-3.61,6.28-5.77,10.05-5.77,10.68l-5.77,16.33c2.89,3.14,5.41,4.4,8.3,4.4,14.79,0,34.99-6.28,60.95-20.1,4.33-1.88,8.66-5.03,13.34-10.05,3.61-3.77,6.13-5.65,7.57-5.65,2.89,0,9.02,6.28,18.03,17.59,8.66,11.31,13.34,19.48,13.34,23.25,0,1.26-2.16,6.28-6.13,13.82Z"/>
    <path d="M1195.58,3033.44c-2.16,9.42-2.89,18.22-2.89,25.76v154.55c0,27.64-3.61,41.46-10.82,41.46-3.97,0-7.93-5.65-11.54-17.59-3.61-10.05-5.41-19.48-5.41-27.01,0-3.14.72-11.31,2.52-25.13,2.16-16.96,3.25-58.43,3.25-124.39,0-37.07-1.8-58.43-5.41-64.71-.36,0-2.16-1.88-5.41-5.65-3.25-3.77-4.69-6.28-4.69-7.54,0-4.4,2.89-6.91,8.66-6.91,6.13,0,13.34,4.4,22,13.19,8.3,9.42,12.62,17.59,12.62,23.87,0,3.77-1.08,10.68-2.89,20.1ZM1324.34,2985.69c-2.16,6.91-2.89,13.19-2.89,18.85,0,18.85,0,46.49.72,83.56.72,37.7,1.08,64.08,1.08,79.79,0,85.44-12.26,149.52-36.07,192.24-20.2,35.81-55.9,65.97-106.76,91.72-.72,0-2.16.63-3.97.63-2.52,0-3.61-1.88-3.61-5.03,0-1.88,1.44-3.77,4.69-5.65,80.79-50.26,121.55-136.96,121.55-260.72v-82.93c-.36-43.98-.36-72.25-.36-83.56,0-31.41-5.41-53.4-16.23-65.34-3.61-3.77-5.41-6.28-5.41-8.17,0-5.03,1.8-7.54,6.13-7.54,6.13,0,14.79,4.4,25.61,11.94,12.26,8.79,18.75,17.59,18.75,26.39,0,2.51-1.08,7.54-3.25,13.82Z"/>
    <path d="M1738.4,3028.41c-5.77,3.14-9.02,5.65-10.46,7.54-59.15,77.9-90.53,116.23-94.86,116.23-2.16,0-2.89-.63-2.89-3.14s1.08-6.28,3.61-10.05c9.38-13.82,21.28-35.18,36.07-62.83,18.39-33.93,27.77-55.29,27.77-64.08s-3.61-13.82-10.46-13.82c-15.87,0-40.4,4.4-73.94,13.19-34.62,9.42-62.4,18.85-82.59,28.27-.72.63-5.41,3.77-14.79,8.8-6.49,4.4-11.18,6.28-14.07,6.28-4.33,0-11.9-8.8-23.08-26.39-11.54-16.96-16.95-28.9-16.95-36.44,0-4.4.72-6.91,2.52-6.91,4.33,5.03,9.02,9.42,13.71,13.19,8.66,8.17,16.59,11.94,23.8,11.94,3.25,0,64.92-11.31,185.02-34.55,2.52,0,6.13-2.51,11.18-6.91,5.05-3.77,8.66-6.28,10.82-6.28,2.52,0,8.66,8.17,18.75,24.5,9.74,16.96,14.79,27.64,14.79,32.67,0,4.4-1.44,7.54-3.97,8.79ZM1620.1,3135.22c-2.16,7.54-3.25,12.57-3.25,15.08-7.21,87.96-25.61,158.32-55.18,210.46-11.18,19.48-25.61,38.32-43.28,57.17-16.23,16.33-26.69,25.13-31.38,25.13-2.16,0-3.25-1.26-3.25-3.77s1.08-5.03,3.25-6.28c29.94-25.13,54.82-65.97,75.02-123.14,19.84-56.54,29.94-114.34,29.94-173.4,0-16.33-5.05-28.9-14.79-37.07-3.61-2.51-5.05-5.03-5.05-8.17,0-5.03,3.25-8.17,10.46-8.17,5.77,0,13.34,3.77,23.44,11.31,11.18,8.79,16.95,17.59,16.95,25.76,0,3.14-1.08,8.17-2.89,15.08Z"/>
    <path d="M2098.35,3022.13c-16.95-2.51-29.21-4.4-36.43-4.4-29.94,0-55.54,22.62-76.82,67.85-20.2,42.72-30.3,90.47-30.3,143.24,0,90.47,26.69,143.87,80.07,159.58,13.34,3.77,20.2,14.45,20.2,31.41,0,11.94-5.41,18.22-15.87,18.22-23.8,0-45.08-13.82-64.56-40.84-25.25-35.18-37.51-84.81-37.51-149.52,0-49,7.21-94.87,22-137.59,14.43-42.72,34.26-74.76,59.15-96.12-57.71,15.08-102.07,33.92-133.81,55.91l-12.98,12.56c-5.77,6.28-10.46,8.8-13.34,8.8-5.41,0-12.98-7.54-23.08-22.62-10.1-15.08-15.15-27.01-15.15-35.81,0-3.77.72-5.65,2.89-5.65,2.89,3.14,6.13,6.28,9.38,9.42,5.77,6.28,11.9,8.8,17.67,8.8,1.44,0,27.41-8.17,77.91-25.13,56.26-18.22,97.02-30.78,122.63-37.07,1.44,0,4.69-1.88,9.02-4.4,4.33-2.51,7.57-3.77,10.1-3.77,5.05,0,12.62,4.4,22,13.19,9.38,8.8,14.07,16.96,14.07,24.5,0,6.28-2.52,9.42-7.21,9.42ZM2075.63,3181.71c-3.97,0-7.21-3.14-10.1-10.05-10.1-23.25-19.84-42.09-28.85-55.91-4.33-6.28-6.13-10.05-6.13-12.57s1.08-4.4,3.97-4.4c7.93,0,18.03,6.91,30.3,19.48,13.34,14.45,20.2,28.9,20.2,42.72s-3.25,20.73-9.38,20.73ZM2105.2,3137.73c-3.97,0-7.21-2.51-9.38-8.79-9.38-21.99-19.12-38.95-28.85-50.26-5.05-5.65-7.57-9.42-7.57-11.31,0-3.77,1.08-5.65,3.61-5.65,9.38,0,19.84,5.65,31.38,16.33,12.98,12.57,19.48,25.76,19.48,40.21,0,13.19-2.89,19.48-8.66,19.48Z"/>
    <path d="M2251.28,3213.75l-17.67,85.44c-3.61,18.85-6.13,40.21-7.57,65.34-1.44,26.39-2.52,43.98-3.97,52.14-1.08,5.03-3.25,8.17-6.49,8.17-10.1,0-18.03-21.99-23.08-66.59-3.97-30.78-5.77-60.94-5.77-89.84,0-72.88,5.77-148.27,17.67-225.54,3.97-26.39,6.13-42.09,6.13-46.49,0-12.57-2.52-23.25-6.85-33.3-2.16-3.77-4.69-8.17-7.21-14.45,0-2.51,1.08-4.4,3.25-4.4,4.33,0,10.82,7.54,19.48,21.36,10.1,16.96,15.51,33.93,15.51,50.26,0,4.4-2.16,14.45-6.49,30.78-3.25,10.68-6.13,21.36-9.02,32.04-12.26,48.38-18.39,104.92-18.39,170.26,0,46.49,3.61,69.11,11.54,69.11,2.89,0,14.43-36.44,34.62-109.32,1.44-5.03,2.52-8.17,3.25-8.17,1.44,0,2.52,1.26,2.52,3.77,0,1.88-.72,5.03-1.44,9.42ZM2451.82,3406.62c-2.89,0-6.85-2.51-11.18-8.8l-9.74-14.45c-12.98-17.59-25.25-32.67-36.79-45.23-.36,33.3-5.41,57.17-15.15,70.99-9.02,13.19-23.08,20.1-42.56,20.1-15.15,0-28.13-5.65-38.95-16.33-13.34-12.57-19.84-31.41-19.84-55.91s5.41-42.09,16.95-55.91c10.1-12.57,22-18.85,36.07-18.85s28.85,3.14,43.28,9.42l-2.52-180.31c-21.64,5.03-38.59,7.54-50.85,7.54-15.15,0-27.41-7.54-36.07-23.25-6.49-10.68-9.38-19.48-9.38-27.01,0-3.77,1.08-6.28,3.25-6.28l9.02,14.45c6.49,8.79,13.71,12.56,21.64,12.56,24.89,0,45.44-1.88,62.04-6.28l-.72-70.99c-.36-13.82-1.44-24.5-3.61-31.41-2.89-8.17-7.93-14.45-15.15-18.85-4.33-2.51-6.49-5.03-6.49-7.54,0-3.77,3.25-6.28,10.1-6.28,5.77,0,13.71,3.77,23.8,11.31,11.18,8.8,16.95,16.96,16.95,25.13,0,2.51-1.08,8.17-3.25,15.71-2.16,8.17-3.25,15.08-3.25,20.73l-.72,56.54c6.49-2.51,14.07-5.65,22-9.42,2.16-1.26,6.49-5.03,12.62-11.31,5.05-5.65,8.66-8.8,10.82-8.8,3.61,0,7.57,2.51,12.62,6.28,5.05,4.4,7.57,9.42,7.57,14.45,0,13.82-22,26.39-65.64,38.32,0,60.94,1.44,126.28,4.69,196.64,24.53,16.33,44,36.44,58.43,59.68,5.41,8.8,8.3,18.22,8.3,28.27s-2.89,15.08-8.3,15.08ZM2374.27,3319.92c-14.07-10.05-29.21-15.08-45.44-15.08-11.54,0-21.28,3.77-28.49,10.68-9.74,8.8-14.43,22.62-14.43,40.84,0,16.33,5.41,28.27,16.59,36.44,7.93,6.28,17.31,9.42,28.13,9.42,28.85,0,43.64-20.1,43.64-60.94v-21.36Z"/>
    <path d="M2542.35,3378.35c22.36-61.57,37.51-104.29,44.72-127.54,12.62-41.46,23.44-88.58,32.82-140.1,4.69-27.01,7.21-46.49,7.21-59.06,0-8.79-2.52-16.96-7.21-23.25-4.69-5.65-6.85-9.42-6.85-11.31,0-2.51,1.8-4.4,6.13-4.4,6.49,0,14.79,6.28,25.25,17.59,10.46,11.94,15.87,23.25,15.87,33.3,0,3.14-1.44,7.54-3.97,12.56-3.25,6.91-5.05,11.31-5.41,13.19l-8.66,37.7c-13.34,55.29-25.97,99.89-38.23,133.82-15.15,42.72-33.54,81.04-55.18,115.6-2.52,3.77-3.97,5.65-4.69,5.65-1.44,0-1.8-1.26-1.8-3.77ZM2811.05,3363.9c-6.49,0-11.18-13.19-14.07-39.58-11.54-108.06-37.15-207.32-76.46-299.05-2.89-6.28-4.33-10.05-4.33-11.31,0-1.88.36-3.14,1.44-3.14s3.97,3.77,9.02,10.68c21.64,32.04,43.28,76.65,64.56,134.45,23.08,64.08,34.62,114.97,34.62,153.29s-5.05,54.66-14.79,54.66ZM2829.8,3047.26c-6.49,11.31-14.43,16.96-23.08,16.96-9.38,0-16.95-5.03-23.08-16.33-6.49-10.68-9.38-23.87-9.38-40.21s2.89-29.53,9.38-40.84c6.13-10.68,13.71-16.33,23.08-16.33s16.59,5.65,23.08,16.33c6.13,11.31,9.38,25.13,9.38,40.84s-3.25,28.9-9.38,39.58ZM2822.95,2979.41c-4.33-7.54-9.74-11.94-16.23-11.94s-12.26,4.4-16.59,11.94-6.49,16.96-6.49,28.27,2.16,20.73,6.85,28.27c4.33,7.54,9.74,11.31,16.23,11.31,6.13,0,11.54-3.77,15.87-11.31s6.85-16.96,6.85-28.27-2.16-20.73-6.49-28.27Z"/>
    <path d="M3170.64,3427.35c-5.05,0-9.74-8.17-13.71-23.87-7.21-26.39-17.67-56.54-31.74-90.47-16.95-39.58-34.62-73.51-53.38-102.41-42.92,101.78-94.5,174.65-155.09,218.63-1.8,1.26-3.61,1.88-5.05,1.88s-2.16-.63-2.16-1.88c0-2.51,1.08-4.4,3.61-6.91,41.12-42.72,77.9-96.75,110.73-161.46,32.46-64.71,57.71-135.07,76.46-211.72,2.16-8.8,3.25-16.33,3.25-23.25,0-8.8-3.25-13.82-9.38-13.82-12.26,0-31.38,4.4-56.63,11.94-20.2,6.28-36.43,13.19-48.69,20.1l-10.46,9.42c-4.69,4.4-8.3,6.28-10.82,6.28-5.05,0-11.54-7.54-20.2-23.87-8.66-15.71-12.62-28.27-12.62-37.07,0-2.51.72-3.77,2.16-3.77l9.02,11.94c6.85,7.54,14.43,10.68,22.36,10.68,7.21,0,28.85-3.77,65.28-11.31l59.15-13.19c2.16,0,5.77-2.51,10.46-7.54,4.33-3.77,6.85-6.28,8.3-6.28,2.89,0,8.3,6.91,16.95,20.1,7.94,13.82,12.26,22.62,12.26,27.01,0,3.77-2.52,8.8-6.85,16.33-5.77,8.79-9.02,15.08-9.74,18.85-13.71,50.89-30.3,98.63-49.77,143.87,24.53,26.39,46.17,53.4,64.2,81.04,27.41,42.72,41.48,79.79,41.48,111.2,0,19.48-3.25,29.53-9.38,29.53Z"/>
    <path d="M3519.06,3044.12c-4.33,9.42-6.85,15.71-7.57,18.85-12.98,53.4-28.85,104.92-47.61,153.92,10.1,13.82,18.76,28.27,26.33,43.35,10.1,21.36,15.51,40.21,15.51,55.29s-3.25,21.99-9.02,21.99c-3.97,0-9.38-8.17-15.87-25.76-10.46-25.76-20.2-47.12-29.21-64.71-37.87,87.33-83.31,151.41-136.69,192.25-12.98,10.05-22.36,15.08-27.41,15.08-1.44,0-1.8-.63-1.8-1.26,0-1.88,2.16-4.4,6.49-7.54,55.54-43.98,104.23-118.11,145.35-221.14-22.36-35.18-42.2-59.06-59.87-72.88-3.61-2.51-5.41-4.4-5.41-6.28,0-1.26.72-2.51,2.16-2.51,2.89,0,11.54,5.03,25.25,14.45,15.87,11.31,32.1,25.13,47.97,41.46,13.71-38.32,24.53-76.02,33.18-113.08,5.05-23.25,7.94-37.07,7.94-40.84,0-11.94-3.97-18.22-11.18-18.22-2.16,0-11.54,3.14-28.49,9.42-17.31,6.28-29.94,8.8-37.87,8.8-3.61,0-7.94-3.14-12.62-10.68-23.8,65.34-56.99,128.16-99.55,189.1-4.33,6.28-7.57,8.8-10.46,8.8-1.8,0-2.52-1.26-2.52-3.77s1.44-5.65,4.33-9.42c15.15-19.48,35.35-59.68,60.23-120,24.53-60.31,37.15-101.78,37.15-124.39,0-7.54-1.44-13.19-3.61-17.59-1.08-1.26-3.97-5.03-9.02-10.05-1.44-1.26-1.8-1.88-1.8-3.14,0-3.77,2.16-5.65,6.85-5.65,6.85,0,14.79,5.03,24.17,13.82,10.1,10.05,15.15,20.73,15.15,31.41,0,1.26-1.44,5.03-4.33,10.68-3.61,6.28-5.77,10.05-5.77,10.68l-5.77,16.33c2.89,3.14,5.41,4.4,8.3,4.4,14.79,0,34.99-6.28,60.95-20.1,4.33-1.88,8.66-5.03,13.34-10.05,3.61-3.77,6.13-5.65,7.57-5.65,2.89,0,9.02,6.28,18.03,17.59,8.66,11.31,13.34,19.48,13.34,23.25,0,1.26-2.16,6.28-6.13,13.82Z"/>
    <path d="M3802.91,3344.42c-9.74,62.83-22.36,94.24-37.87,94.24-2.89,0-6.49-8.17-11.18-23.25-2.16-5.65-14.07-22.62-35.71-50.89-2.89-3.14-4.69-6.28-6.13-8.8,0-2.51.36-3.77,1.8-3.77l16.95,13.19c11.54,8.8,20.56,12.57,27.77,12.57,10.82,0,18.75-13.19,23.8-40.21,8.3-43.98,12.62-99.26,12.62-165.86,0-56.54-11.9-85.44-35.71-85.44-7.21,0-16.95,3.14-29.58,8.17-18.39,108.06-39.67,207.32-63.48,296.53-5.77,21.36-10.46,32.04-13.71,32.04-8.66,0-12.62-11.94-12.62-36.44,0-5.03,1.8-11.94,6.13-21.99,2.89-6.91,6.13-13.82,9.38-20.73,18.03-45.86,36.07-125.65,54.1-238.74-15.87,9.42-27.41,18.22-34.99,25.76l-10.1,11.31c-4.69,5.03-7.93,7.54-10.1,7.54-5.77,0-12.26-6.28-19.48-19.48s-10.82-24.5-10.82-33.92c0-3.14.72-5.03,2.89-5.03,2.52,3.77,5.05,6.91,7.57,10.05,5.05,6.28,10.46,8.8,15.51,8.8,8.66,0,19.12-3.14,32.1-9.42l31.02-17.59c6.85-47.12,10.46-81.67,10.46-103.03,0-10.05-2.16-18.85-6.13-25.13l-9.38-13.82c0-3.77,1.44-5.65,4.69-5.65,5.77,0,14.07,5.03,24.89,13.82,11.9,10.05,18.03,19.48,18.03,27.64,0,2.51-1.8,7.54-5.41,15.08-3.61,8.17-6.13,15.08-6.85,21.36-2.16,11.31-5.41,32.04-10.1,62.2,12.26-3.77,21.64-6.28,27.77-6.28,20.92,0,35.71,13.19,44,39.58,6.13,20.1,9.38,49.63,9.38,89.21,0,47.75-3.97,96.75-11.54,146.38ZM3905.7,3253.33c-2.16,13.19-5.41,19.48-9.38,19.48-2.16,0-5.41-3.14-9.38-10.05l-8.3-15.08c-2.89-3.14-8.3-7.54-16.95-12.57-7.57-3.77-11.18-6.91-11.18-8.79s2.16-3.14,6.49-4.4c2.89,0,5.77,0,8.66-.63,11.9-3.14,18.03-13.19,18.03-30.78,0-23.25-6.13-51.52-18.03-84.81-10.82-30.16-22.36-53.4-34.62-69.74-3.61-4.4-5.05-7.54-5.05-9.42,0-2.51.72-3.77,2.89-3.77,5.05,0,13.35,8.8,25.61,25.13,15.87,22.62,28.85,49,38.23,78.53,10.1,32.04,15.51,64.71,15.51,98.64,0,10.05-1.08,19.48-2.52,28.27ZM3892.36,3029.04c-3.97,0-7.21-3.14-10.1-10.05-10.1-23.25-19.84-42.09-28.85-55.91-4.33-6.28-6.13-10.05-6.13-12.56s1.08-4.4,3.97-4.4c7.93,0,18.03,6.91,30.3,19.48,13.34,14.45,20.2,28.9,20.2,42.72s-3.25,20.73-9.38,20.73ZM3921.93,2985.07c-3.97,0-7.21-2.51-9.38-8.8-9.38-21.99-19.12-38.95-28.85-50.26-5.05-5.65-7.57-9.42-7.57-11.31,0-3.77,1.08-5.65,3.61-5.65,9.38,0,19.84,5.65,31.38,16.33,12.98,12.57,19.48,25.76,19.48,40.21,0,13.19-2.89,19.48-8.66,19.48Z"/>
    <path d="M4006.34,3000.14h69.25c7.93-31.41,15.15-64.08,21.64-99.26,7.21,3.77,14.43,8.17,21.64,11.94,7.93,3.77,12.26,7.54,12.26,10.68,0,5.65-2.16,8.8-5.77,8.8-4.69,1.26-6.85,3.14-6.85,5.65-5.77,22.62-11.18,43.35-16.59,62.2h133.09c2.16-3.77,6.13-11.94,12.26-24.5,5.77-11.94,9.38-18.22,10.82-18.22,3.97,0,10.1,8.17,18.39,23.25,7.94,15.71,12.26,25.13,12.26,28.27,0,6.28-2.16,8.8-5.77,8.8h-186.11c-10.1,33.92-20.56,64.08-31.38,90.47h141.02c2.16-3.77,4.69-8.17,7.57-11.94,3.97-5.65,6.85-8.8,9.02-8.8,1.44,0,5.77,4.4,12.98,12.57,6.85,11.31,10.46,18.85,10.46,22.62,0,5.03-1.8,9.42-5.41,12.57-4.33,3.77-6.13,7.54-6.13,11.31v291.51c0,14.45-4.69,25.13-13.71,32.67-7.21,6.28-13.34,9.42-18.39,9.42-6.49,0-9.74-5.65-9.74-16.33-1.44-11.94-17.31-22.62-46.89-32.04l1.8-10.68c22.36,5.03,40.76,7.54,54.82,7.54,6.13,0,9.38-5.03,9.38-13.82v-92.98h-152.56v143.87c0,3.77-1.44,6.28-3.97,8.17-3.97,2.51-7.94,3.77-11.54,3.77-4.69,0-6.85-3.77-6.85-11.31.72-17.59,1.44-35.81,1.44-54.03v-246.27l-7.57,13.19c-14.79,29.53-36.79,60.94-66.36,94.87l-4.33-8.8c36.43-57.17,64.56-113.08,84.76-167.74,9.02-24.5,17.67-50.89,25.61-79.79h-64.56c-17.67,0-30.3,1.26-37.51,3.77l-6.85-27.01c10.1,3.77,24.89,5.65,44.36,5.65ZM4212.28,3206.21v-81.04h-152.56v81.04h152.56ZM4212.28,3304.85v-81.04h-152.56v81.04h152.56Z"/>
    <path d="M4478.46,2914.7c7.93,3.77,11.9,6.91,11.9,10.68s-2.52,6.28-7.21,6.91c-3.61,1.26-5.41,3.14-6.13,5.03-7.93,20.73-16.23,39.58-24.89,55.91h122.27c3.25-5.65,6.49-10.68,10.1-15.08,2.89-3.77,5.05-6.28,7.21-6.28,1.8,0,6.13,5.65,13.34,15.71,6.85,10.68,10.46,17.59,10.46,21.36,0,5.03-2.16,8.17-5.77,9.42-4.33,1.88-7.57,5.65-10.1,11.94-17.31,37.7-36.79,72.88-58.07,104.92-21.28,33.3-47.61,62.83-78.63,89.21-5.77,5.03-11.9,10.05-17.67,13.82h128.76l9.02-13.82c2.52-4.4,4.69-6.91,6.49-6.91,2.16,0,6.85,5.03,13.34,13.82,6.49,9.42,10.1,16.33,10.1,20.1s-1.8,7.54-5.41,11.94c-3.25,3.77-4.69,8.17-4.69,12.56v141.36c0,11.31.72,26.39,2.16,45.23,0,3.77-1.8,6.28-5.05,8.8-5.41,2.51-10.1,3.77-14.07,3.77-3.61,0-5.41-3.77-5.41-10.68v-32.04h-158.7v33.93c0,3.14-1.44,5.65-3.61,8.17-5.05,1.88-9.02,3.14-12.26,3.14-4.33,0-6.49-3.77-6.49-11.31.72-11.94,1.44-23.87,1.44-35.18v-165.23c-22.36,12.57-47.61,23.25-75.02,32.67l-1.8-10.05c25.97-11.94,51.22-27.64,76.46-46.49l-1.08-24.5c5.41,3.77,10.82,8.17,16.23,13.19,20.2-15.71,40.4-33.93,59.87-54.03,40.03-43.35,73.94-98.64,101.71-166.49h-134.17c-6.49,11.31-12.98,21.99-19.48,30.78-21.28,32.67-49.41,64.71-84.4,95.49l-3.97-8.8c20.92-22.62,44-55.29,68.53-97.38,19.84-33.3,37.51-75.39,53.02-126.91,7.94,5.03,15.15,8.8,21.64,11.31ZM4459.71,3096.89c3.61,3.14,7.93,7.54,12.98,13.82,5.77,8.8,9.02,18.85,9.02,29.53,0,6.91-1.08,12.56-3.25,16.96-2.16,6.28-4.69,8.79-7.57,8.79-4.33,0-8.3-4.4-11.9-14.45-11.54-33.93-25.61-59.68-41.84-76.02l2.89-5.03c14.79,6.91,28.13,15.71,39.67,26.39ZM4580.53,3414.79v-158.95h-158.7v158.95h158.7Z"/>
    <path d="M4843.83,3431.12c-29.21,0-53.02-6.91-71.05-20.73-25.97-18.85-38.59-50.89-38.59-95.49,0-32.04,9.02-62.2,27.77-89.84,10.82-16.33,28.13-34.55,51.94-55.91-8.66-18.85-12.62-67.85-12.62-147.64,0-21.99-1.8-38.32-5.05-49-2.16-6.91-5.05-11.94-8.66-15.71-3.97-2.51-5.77-4.4-5.77-5.65,0-5.65,2.16-8.8,6.85-8.8,6.85,0,14.79,3.14,23.8,8.8,10.82,7.54,16.23,16.33,16.23,26.39,0,1.88-1.08,6.28-3.25,12.56-3.25,10.05-4.69,33.3-4.69,70.36,0,47.75,3.25,79.16,10.46,93.61,18.39-11.94,44-28.9,76.82-51.52,7.21-5.03,11.18-11.31,11.18-17.59,0-2.51-.72-5.65-1.8-9.42-1.44-3.77-1.8-5.65-1.8-6.91,0-3.77,1.08-5.65,3.61-5.65,6.49,0,12.98,5.65,19.84,15.71,6.49,11.31,9.74,21.99,9.74,33.3,0,8.79-5.77,15.71-16.59,20.73-54.46,24.5-90.89,43.35-109.28,55.91-49.77,35.18-74.66,75.39-74.66,120.62,0,33.3,11.18,57.17,33.54,70.99,15.51,10.05,34.62,15.08,57.71,15.08,20.92,0,39.31-1.88,55.54-6.91,10.1-2.51,20.56-6.28,31.02-11.94,8.3-4.4,13.34-6.91,15.51-6.91,5.05,0,9.74,2.51,14.07,7.54,4.33,5.03,6.49,11.94,6.49,20.1,0,22.62-39.67,33.93-118.3,33.93Z"/>
    <path d="M5169.16,3269.66c-9.38,40.84-14.07,68.48-14.07,82.3,0,15.71.36,31.41,1.44,46.49,0,13.82-3.25,20.73-9.38,20.73-6.49,0-14.79-8.79-24.53-27.01-24.89-45.23-37.15-104.92-37.15-179.05,0-21.99,1.44-53.4,5.05-94.24,3.25-40.84,5.05-65.34,5.05-74.13,0-18.22-2.52-33.93-7.57-46.49-2.16-4.4-4.69-9.42-6.85-15.71,0-3.14,1.08-5.03,3.61-5.03,6.13,0,14.43,8.79,24.53,25.76,10.1,17.59,15.15,31.41,15.15,42.72,0,3.14-3.25,15.08-9.38,35.81-8.66,29.53-12.98,70.36-12.98,121.88,0,31.41,2.16,60.31,6.85,86.7,5.41,32.67,12.62,49,21.64,49,3.97,0,12.26-20.73,24.89-62.2l22.36-77.9c.72-3.14,1.8-5.03,3.25-5.03s2.16,1.88,2.16,4.4c0,6.91-4.69,30.78-14.07,70.99ZM5333.98,3279.71c-2.52,13.19-6.13,19.48-11.18,19.48-9.02,0-13.35-11.94-13.35-35.81,0-33.93-4.69-70.36-13.71-108.69-10.1-38.95-22-69.11-36.43-89.84-3.97-5.03-5.77-8.79-5.77-11.31s1.08-4.4,3.25-4.4c5.77,0,14.43,7.54,26.33,21.99,16.59,21.36,29.58,47.12,38.95,78.53,9.38,31.41,14.43,65.34,14.43,100.52,0,11.31-1.08,20.73-2.52,29.53Z"/>
    <path d="M5643.81,3345.68c-15.51,40.21-37.15,70.99-64.92,93.61-15.87,12.56-26.69,18.85-32.46,18.85-2.89,0-3.97-1.26-3.97-3.14,0-2.51,1.44-5.03,4.69-7.54,28.13-22.62,50.85-54.03,68.17-96.75,17.67-43.98,26.69-92.98,26.69-145.75,0-35.81-2.52-61.57-7.21-77.27-6.49-21.36-19.12-32.67-37.51-32.67-14.43,0-29.21,8.17-44.36,23.87-12.26,13.82-23.44,30.16-32.82,49-3.61,6.91-6.49,10.05-9.02,10.05-8.66,0-17.67-8.17-27.05-25.76-7.94-14.45-11.9-25.13-11.9-32.04,0-3.77,1.08-6.28,3.25-6.28l6.13,9.42c4.69,6.28,10.46,9.42,16.95,9.42,4.69,0,20.56-10.05,47.25-30.16,26.33-20.1,47.25-30.78,63.12-30.78,20.2,0,35.35,14.45,45.44,42.72,8.3,23.87,12.62,54.03,12.62,91.1,0,53.4-7.93,99.89-23.08,140.1ZM5626.13,3000.77c-16.59,0-32.1,4.4-46.53,11.94-5.41,3.77-11.18,8.17-17.67,11.94-1.44,0-2.16-1.26-2.16-3.77,0-1.26,2.52-5.03,8.3-12.56,5.77-6.28,8.66-11.31,8.66-14.45,0-2.51-2.16-5.65-6.13-8.17-14.43-8.17-25.97-17.59-34.62-28.9-7.57-8.8-11.18-16.33-11.18-21.99,0-2.51.72-4.4,2.52-4.4,2.89,5.03,11.9,12.57,26.33,22.62,9.74,5.65,30.3,8.17,61.67,8.17,4.33,0,9.02,3.14,14.07,8.8,5.05,6.28,7.57,12.56,7.57,20.1s-3.61,10.68-10.82,10.68Z"/>
    <path d="M5926.58,3411.02c-75.74,0-113.25-41.46-113.25-125.02,0-18.22,2.16-35.81,6.49-53.4,3.61-15.08,6.85-22.62,9.38-22.62,2.16,0,3.61,1.88,3.61,4.4-2.16,6.28-3.97,11.94-5.77,18.22-3.61,12.56-5.05,23.87-5.05,33.93,0,71.62,33.18,107.43,99.55,107.43,24.53,0,47.97-3.77,70.33-12.57l31.38-13.19c4.33,0,9.02,2.51,14.43,6.28,6.13,5.03,9.38,10.68,9.38,16.96,0,26.39-40.4,39.58-120.46,39.58ZM5992.94,3035.95c-18.75,0-41.48,10.05-68.17,28.9-10.82,7.54-22.36,18.85-34.26,32.67l-15.87,18.22c-2.16,0-3.25-1.88-3.25-5.65,0-3.14,6.49-13.82,19.84-31.41,13.35-17.59,22.36-28.9,27.41-33.3-12.98,1.88-21.28,2.51-24.17,2.51-16.59,0-31.02-8.79-43.28-27.64-9.38-13.82-13.71-24.5-13.71-32.04,0-3.14.72-5.03,2.16-5.03l14.07,18.22c10.46,11.31,23.08,16.33,38.23,16.33,19.12,0,38.95-3.14,59.51-10.05,9.38-3.77,18.75-6.91,28.13-10.68,5.05,0,10.46,3.77,16.23,10.05,5.77,6.28,8.66,12.57,8.66,18.22,0,7.54-3.97,10.68-11.54,10.68Z"/>
    <path d="M6286.53,3431.12c-29.21,0-53.02-6.91-71.05-20.73-25.97-18.85-38.59-50.89-38.59-95.49,0-32.04,9.02-62.2,27.77-89.84,10.82-16.33,28.13-34.55,51.94-55.91-8.66-18.85-12.62-67.85-12.62-147.64,0-21.99-1.8-38.32-5.05-49-2.16-6.91-5.05-11.94-8.66-15.71-3.97-2.51-5.77-4.4-5.77-5.65,0-5.65,2.16-8.8,6.85-8.8,6.85,0,14.79,3.14,23.8,8.8,10.82,7.54,16.23,16.33,16.23,26.39,0,1.88-1.08,6.28-3.25,12.56-3.25,10.05-4.69,33.3-4.69,70.36,0,47.75,3.25,79.16,10.46,93.61,18.39-11.94,44-28.9,76.82-51.52,7.21-5.03,11.18-11.31,11.18-17.59,0-2.51-.72-5.65-1.8-9.42-1.44-3.77-1.8-5.65-1.8-6.91,0-3.77,1.08-5.65,3.61-5.65,6.49,0,12.98,5.65,19.84,15.71,6.49,11.31,9.74,21.99,9.74,33.3,0,8.79-5.77,15.71-16.59,20.73-54.46,24.5-90.89,43.35-109.28,55.91-49.77,35.18-74.66,75.39-74.66,120.62,0,33.3,11.18,57.17,33.54,70.99,15.51,10.05,34.62,15.08,57.71,15.08,20.92,0,39.31-1.88,55.54-6.91,10.1-2.51,20.56-6.28,31.02-11.94,8.3-4.4,13.34-6.91,15.51-6.91,5.05,0,9.74,2.51,14.07,7.54,4.33,5.03,6.49,11.94,6.49,20.1,0,22.62-39.67,33.93-118.3,33.93Z"/>
    <path d="M6688.33,3344.42c-9.74,62.83-22.36,94.24-37.87,94.24-2.89,0-6.49-8.17-11.18-23.25-2.16-5.65-14.07-22.62-35.71-50.89-2.88-3.14-4.69-6.28-6.13-8.8,0-2.51.36-3.77,1.8-3.77l16.95,13.19c11.54,8.8,20.56,12.57,27.77,12.57,10.82,0,18.75-13.19,23.8-40.21,8.29-43.98,12.62-99.26,12.62-165.86,0-56.54-11.9-85.44-35.71-85.44-7.21,0-16.95,3.14-29.58,8.17-18.39,108.06-39.67,207.32-63.48,296.53-5.77,21.36-10.46,32.04-13.71,32.04-8.66,0-12.62-11.94-12.62-36.44,0-5.03,1.8-11.94,6.13-21.99,2.88-6.91,6.13-13.82,9.38-20.73,18.03-45.86,36.07-125.65,54.1-238.74-15.87,9.42-27.41,18.22-34.99,25.76l-10.1,11.31c-4.69,5.03-7.94,7.54-10.1,7.54-5.77,0-12.26-6.28-19.48-19.48-7.21-13.19-10.82-24.5-10.82-33.92,0-3.14.72-5.03,2.88-5.03,2.53,3.77,5.05,6.91,7.57,10.05,5.05,6.28,10.46,8.8,15.51,8.8,8.66,0,19.12-3.14,32.1-9.42l31.02-17.59c6.85-47.12,10.46-81.67,10.46-103.03,0-10.05-2.16-18.85-6.13-25.13l-9.38-13.82c0-3.77,1.44-5.65,4.69-5.65,5.77,0,14.07,5.03,24.89,13.82,11.9,10.05,18.03,19.48,18.03,27.64,0,2.51-1.8,7.54-5.41,15.08-3.61,8.17-6.13,15.08-6.85,21.36-2.16,11.31-5.41,32.04-10.1,62.2,12.26-3.77,21.64-6.28,27.77-6.28,20.92,0,35.71,13.19,44,39.58,6.13,20.1,9.38,49.63,9.38,89.21,0,47.75-3.97,96.75-11.54,146.38ZM6791.12,3253.33c-2.16,13.19-5.41,19.48-9.38,19.48-2.16,0-5.41-3.14-9.38-10.05l-8.3-15.08c-2.88-3.14-8.29-7.54-16.95-12.57-7.57-3.77-11.18-6.91-11.18-8.79s2.16-3.14,6.49-4.4c2.88,0,5.77,0,8.66-.63,11.9-3.14,18.03-13.19,18.03-30.78,0-23.25-6.13-51.52-18.03-84.81-10.82-30.16-22.36-53.4-34.62-69.74-3.61-4.4-5.05-7.54-5.05-9.42,0-2.51.72-3.77,2.88-3.77,5.05,0,13.34,8.8,25.61,25.13,15.87,22.62,28.85,49,38.23,78.53,10.1,32.04,15.51,64.71,15.51,98.64,0,10.05-1.08,19.48-2.52,28.27Z"/>
    <path d="M6940.44,3448.09c-3.61,0-5.05-2.51-5.05-6.91,0-3.77,1.44-5.65,4.33-5.65,37.15,0,70.69-11.31,100.27-33.3,35.71-26.39,53.74-64.08,53.74-113.08,0-27.64-5.41-49-15.87-64.08-10.82-15.08-24.17-22.62-40.04-22.62-17.31,0-35.35,8.17-53.38,23.25-18.39,16.33-32.46,36.44-42.56,60.31-2.16,6.28-3.97,11.94-5.77,18.22-2.52,8.17-5.05,11.94-7.93,11.94-4.69,0-9.38-6.91-14.07-21.36-4.69-12.56-6.85-23.25-6.85-32.04,0,0,1.44-7.54,4.69-21.99,6.85-31.41,10.46-84.19,10.46-157.06,0-18.85,5.77-33.93,18.03-46.49,9.02-8.8,19.84-15.08,32.82-18.22,16.59-3.77,25.25-7.54,25.25-11.94,0-6.28-7.94-15.71-23.8-28.27-14.07-10.68-24.53-16.96-31.74-19.48-4.33-1.26-6.49-3.14-6.49-5.65,0-5.03,2.16-7.54,6.49-7.54,21.64,0,43.64,8.8,65.28,25.76,8.3,6.91,16.23,15.08,23.44,24.5,9.38,13.82,14.43,25.76,14.43,35.81,0,11.31-3.97,16.33-11.54,16.33-.72,0-5.77-3.14-15.87-10.05-10.46-6.28-19.84-10.05-28.49-10.05-10.46,0-20.92,5.65-31.38,15.71-12.26,12.57-18.03,26.39-18.03,42.72,0,46.49-2.52,99.89-7.57,161.46,0,3.77.72,5.03,2.52,5.03,2.16-1.88,8.3-8.17,18.39-18.85,32.1-33.3,62.4-50.26,90.53-50.26,20.92,0,38.23,10.05,51.58,28.9,13.71,21.36,20.92,49.63,20.92,85.44,0,99.89-59.15,149.52-176.73,149.52Z"/>
    <path d="M7470.27,3017.11c-11.18,18.85-30.66,50.26-58.43,94.87l3.61-.63c2.88,0,6.49,2.51,10.82,6.28,3.97,3.77,6.13,8.17,6.13,12.56,0,1.26-.36,3.77-1.08,8.8-.72,5.03-1.08,9.42-1.08,12.57-1.44,20.1-2.16,45.86-2.16,78.53,0,47.75.72,104.92,2.53,170.88,0,28.27-3.61,42.72-10.1,42.72-4.33,0-8.66-6.91-12.62-19.48-3.61-11.31-5.41-21.36-5.41-30.16l2.16-25.13c1.44-15.08,2.16-28.27,2.16-38.95l.36-32.67c0-20.73.36-35.81.36-45.23,0-7.54,0-22.62.36-46.49v-41.46c0-13.82-2.16-25.76-6.13-37.07-12.98,21.36-30.66,43.98-52.66,68.48-22.36,25.13-42.92,45.86-61.67,60.94-12.62,10.05-19.84,15.08-22,15.08-1.8,0-2.52-.63-2.52-2.51,0-2.51,1.08-4.4,3.25-6.91,66-65.97,121.55-145.75,166.99-238.73,13.71-27.64,20.56-47.12,20.56-57.17,0-5.03-1.44-9.42-4.33-13.82l-6.13-7.54c0-2.51,1.44-4.4,4.69-4.4,5.05,0,12.26,6.91,21.64,20.1,8.66,13.82,13.34,23.87,13.34,31.41,0,2.51-4.33,11.31-12.62,25.13Z"/>
    <path d="M7847.18,3044.12c-4.33,9.42-6.85,15.71-7.57,18.85-12.98,53.4-28.85,104.92-47.61,153.92,10.1,13.82,18.75,28.27,26.33,43.35,10.1,21.36,15.51,40.21,15.51,55.29s-3.25,21.99-9.02,21.99c-3.97,0-9.38-8.17-15.87-25.76-10.46-25.76-20.2-47.12-29.21-64.71-37.87,87.33-83.32,151.41-136.69,192.25-12.98,10.05-22.36,15.08-27.41,15.08-1.44,0-1.8-.63-1.8-1.26,0-1.88,2.16-4.4,6.49-7.54,55.54-43.98,104.23-118.11,145.35-221.14-22.36-35.18-42.2-59.06-59.87-72.88-3.61-2.51-5.41-4.4-5.41-6.28,0-1.26.72-2.51,2.16-2.51,2.88,0,11.54,5.03,25.25,14.45,15.87,11.31,32.1,25.13,47.97,41.46,13.71-38.32,24.53-76.02,33.18-113.08,5.05-23.25,7.93-37.07,7.93-40.84,0-11.94-3.97-18.22-11.18-18.22-2.16,0-11.54,3.14-28.49,9.42-17.31,6.28-29.94,8.8-37.87,8.8-3.61,0-7.93-3.14-12.62-10.68-23.8,65.34-56.99,128.16-99.55,189.1-4.33,6.28-7.57,8.8-10.46,8.8-1.8,0-2.53-1.26-2.53-3.77s1.44-5.65,4.33-9.42c15.15-19.48,35.35-59.68,60.23-120,24.53-60.31,37.15-101.78,37.15-124.39,0-7.54-1.44-13.19-3.61-17.59-1.08-1.26-3.97-5.03-9.02-10.05-1.44-1.26-1.8-1.88-1.8-3.14,0-3.77,2.16-5.65,6.85-5.65,6.85,0,14.79,5.03,24.17,13.82,10.1,10.05,15.15,20.73,15.15,31.41,0,1.26-1.44,5.03-4.33,10.68-3.61,6.28-5.77,10.05-5.77,10.68l-5.77,16.33c2.89,3.14,5.41,4.4,8.3,4.4,14.79,0,34.99-6.28,60.95-20.1,4.33-1.88,8.66-5.03,13.35-10.05,3.61-3.77,6.13-5.65,7.57-5.65,2.89,0,9.02,6.28,18.03,17.59,8.66,11.31,13.34,19.48,13.34,23.25,0,1.26-2.16,6.28-6.13,13.82Z"/>
    <path d="M8048.44,3033.44c-2.16,9.42-2.88,18.22-2.88,25.76v154.55c0,27.64-3.61,41.46-10.82,41.46-3.97,0-7.93-5.65-11.54-17.59-3.61-10.05-5.41-19.48-5.41-27.01,0-3.14.72-11.31,2.52-25.13,2.16-16.96,3.25-58.43,3.25-124.39,0-37.07-1.8-58.43-5.41-64.71-.36,0-2.16-1.88-5.41-5.65s-4.69-6.28-4.69-7.54c0-4.4,2.88-6.91,8.66-6.91,6.13,0,13.34,4.4,22,13.19,8.29,9.42,12.62,17.59,12.62,23.87,0,3.77-1.08,10.68-2.89,20.1ZM8177.2,2985.69c-2.16,6.91-2.89,13.19-2.89,18.85,0,18.85,0,46.49.72,83.56.72,37.7,1.08,64.08,1.08,79.79,0,85.44-12.26,149.52-36.07,192.24-20.2,35.81-55.9,65.97-106.76,91.72-.72,0-2.16.63-3.97.63-2.52,0-3.61-1.88-3.61-5.03,0-1.88,1.44-3.77,4.69-5.65,80.79-50.26,121.55-136.96,121.55-260.72v-82.93c-.36-43.98-.36-72.25-.36-83.56,0-31.41-5.41-53.4-16.23-65.34-3.61-3.77-5.41-6.28-5.41-8.17,0-5.03,1.8-7.54,6.13-7.54,6.13,0,14.79,4.4,25.61,11.94,12.26,8.79,18.75,17.59,18.75,26.39,0,2.51-1.08,7.54-3.25,13.82Z"/>
    <path d="M8591.26,3028.41c-5.77,3.14-9.02,5.65-10.46,7.54-59.15,77.9-90.53,116.23-94.86,116.23-2.16,0-2.88-.63-2.88-3.14s1.08-6.28,3.61-10.05c9.38-13.82,21.28-35.18,36.07-62.83,18.39-33.93,27.77-55.29,27.77-64.08s-3.61-13.82-10.46-13.82c-15.87,0-40.4,4.4-73.94,13.19-34.62,9.42-62.4,18.85-82.59,28.27-.72.63-5.41,3.77-14.79,8.8-6.49,4.4-11.18,6.28-14.07,6.28-4.33,0-11.9-8.8-23.08-26.39-11.54-16.96-16.95-28.9-16.95-36.44,0-4.4.72-6.91,2.53-6.91,4.33,5.03,9.02,9.42,13.71,13.19,8.66,8.17,16.59,11.94,23.8,11.94,3.25,0,64.92-11.31,185.02-34.55,2.52,0,6.13-2.51,11.18-6.91,5.05-3.77,8.66-6.28,10.82-6.28,2.52,0,8.66,8.17,18.75,24.5,9.74,16.96,14.79,27.64,14.79,32.67,0,4.4-1.44,7.54-3.97,8.79ZM8472.95,3135.22c-2.16,7.54-3.25,12.57-3.25,15.08-7.21,87.96-25.61,158.32-55.18,210.46-11.18,19.48-25.61,38.32-43.28,57.17-16.23,16.33-26.69,25.13-31.38,25.13-2.16,0-3.25-1.26-3.25-3.77s1.08-5.03,3.25-6.28c29.94-25.13,54.82-65.97,75.02-123.14,19.84-56.54,29.94-114.34,29.94-173.4,0-16.33-5.05-28.9-14.79-37.07-3.61-2.51-5.05-5.03-5.05-8.17,0-5.03,3.25-8.17,10.46-8.17,5.77,0,13.34,3.77,23.44,11.31,11.18,8.79,16.95,17.59,16.95,25.76,0,3.14-1.08,8.17-2.89,15.08Z"/>
    <path d="M8696.58,3010.2h56.26c1.44-2.51,5.05-8.8,10.1-18.22,4.33-9.42,6.85-14.45,8.3-14.45,3.25,0,8.29,6.28,14.79,18.22,6.49,13.19,9.74,20.73,9.74,23.25,0,5.65-1.8,8.17-4.69,8.17h-94.5c-17.67,0-30.3,1.88-37.87,4.4l-6.49-27.01c10.1,3.77,24.89,5.65,44.36,5.65ZM8710.64,3189.25h31.02c1.44-2.51,4.33-7.54,8.66-15.71s6.85-12.57,7.93-12.57c2.89,0,7.21,5.65,13.34,16.33,5.77,11.31,8.66,18.22,8.66,20.73,0,5.65-1.44,8.17-3.97,8.17h-65.64c-17.67,0-30.3,1.88-37.87,4.4l-6.49-27.01c10.1,3.77,24.89,5.65,44.36,5.65ZM8712.09,3100.66h28.13c1.44-1.88,4.33-6.91,8.66-15.71,4.33-8.17,6.85-12.57,7.94-12.57,2.88,0,7.21,5.65,13.34,16.96,5.77,11.31,8.66,17.59,8.66,20.1,0,6.28-1.44,8.79-3.97,8.79h-62.76c-17.67,0-30.3,1.88-37.87,4.4l-6.49-27.01c10.1,3.77,24.89,5.03,44.36,5.03ZM8693.33,3272.8h51.21c2.53-3.77,5.05-8.17,7.94-13.19,2.16-3.14,4.33-5.03,6.13-5.03s5.77,4.4,11.9,12.57c5.41,8.79,8.3,14.45,8.3,16.96,0,3.77-1.8,6.91-5.05,10.68s-4.69,7.54-4.69,11.31v103.66c0,9.42.36,22.62,1.8,39.58,0,3.14-1.44,5.65-4.33,8.17-4.69,1.88-8.66,3.14-12.26,3.14s-5.05-3.77-5.05-10.05v-28.27h-54.82v38.32c0,2.51-1.44,5.03-3.97,6.28-4.33,1.88-7.93,3.14-10.82,3.14-4.33,0-6.49-3.14-6.49-9.42.72-11.31,1.44-22.62,1.44-33.93v-124.39c0-15.08-.72-30.78-1.44-45.86,6.49,4.4,13.35,10.05,20.2,16.33ZM8728.68,2941.72c6.13,11.31,9.38,21.36,9.38,30.78,0,6.91-1.44,13.82-3.61,20.1-2.16,6.28-4.69,8.79-7.57,8.79-6.49,0-10.82-7.54-13.34-23.25-4.33-25.13-10.46-45.86-19.12-63.45l3.61-6.28c14.07,11.31,24.17,22.62,30.66,33.3ZM8749.23,3405.36v-115.6h-54.82v115.6h54.82ZM8831.83,2946.11h96.3c1.44-2.51,4.69-8.17,9.74-17.59,3.97-8.8,6.49-13.19,7.93-13.19,2.89,0,7.57,6.28,13.71,18.22,6.49,11.94,9.74,18.85,9.74,21.36,0,6.28-1.8,8.79-4.69,8.79h-91.97l-9.02,92.98h46.17c2.16-4.4,5.05-9.42,8.29-14.45,3.61-5.65,6.13-8.79,8.3-8.79,2.52,0,6.85,4.4,12.98,13.19,5.77,8.79,8.66,14.45,8.66,18.22s-1.8,7.54-4.69,11.31c-3.61,5.03-5.05,8.8-5.05,11.31v104.29h7.57l9.02-15.71c3.97-8.17,6.49-12.56,7.57-12.56,2.88,0,7.21,5.65,13.34,16.33,5.77,11.31,9.02,18.22,9.02,20.73,0,5.65-1.44,8.17-4.33,8.17h-154.37c-17.67,0-30.3,1.88-37.51,4.4l-6.85-27.01c10.1,3.77,24.89,5.65,44.36,5.65h4.33l11.54-118.11h-3.25c-16.59,0-29.21,1.88-37.51,4.4l-6.85-27.01c13.34,3.77,28.13,5.65,44.36,5.65h5.05l9.02-92.98h-20.92c-17.67,0-30.3,1.88-37.87,4.4l-6.49-27.01c10.1,3.77,24.89,5.03,44.36,5.03ZM8829.66,3270.29h89.45l8.3-14.45c2.16-3.77,3.97-6.28,5.77-6.28s5.77,4.4,11.9,12.56c5.77,8.8,8.66,14.45,8.66,17.59s-1.8,6.28-4.69,10.05c-2.88,3.77-3.97,7.54-3.97,11.31v120.62c0,10.05.36,23.25,1.8,40.21,0,2.51-1.44,5.03-3.97,7.54-5.05,1.88-9.02,3.14-12.62,3.14-3.25,0-4.69-3.14-4.69-9.42v-33.3h-97.38v33.3c0,2.51-1.44,4.4-3.97,6.28-4.33,1.88-7.93,3.14-10.82,3.14-4.33,0-6.13-3.14-6.13-9.42.72-11.31,1.08-22.62,1.08-33.92v-131.93c0-15.08-.36-30.16-1.08-45.23,7.21,5.03,14.79,10.68,22.36,18.22ZM8925.6,3412.9v-125.65h-97.38v125.65h97.38ZM8918.39,3191.76v-118.11h-56.63l-11.54,118.11h68.17Z"/>
    <path d="M9291.33,3164.74c-25.25,13.82-56.63,32.04-93.78,55.92,1.44,37.69,2.53,60.31,2.53,66.59,0,28.9-4.69,42.72-13.71,42.72-6.49,0-9.38-8.8-9.38-27.01l1.08-69.74c-50.49,36.44-75.38,71.62-75.38,106.17,0,21.36,6.13,37.69,18.39,49,10.1,10.05,21.64,14.45,34.62,14.45,34.99,0,67.45-5.65,97.02-17.59,12.62,0,19.12,8.17,19.12,23.25,0,11.31-9.02,18.85-26.33,23.25-12.26,2.51-33.18,4.4-62.4,4.4-26.69,0-46.89-5.03-60.23-13.82-21.28-13.82-31.74-40.21-31.74-79.16,0-47.75,28.85-92.35,86.92-133.82-1.44-40.21-11.18-60.31-29.94-60.31-12.26,0-25.97,10.68-41.12,31.41-12.98,17.59-23.8,37.07-32.46,58.43-8.66,21.99-15.51,32.67-20.2,32.67-3.25,0-5.77-3.77-7.21-11.94-1.44-6.28-2.16-12.57-2.16-18.85,0-4.4,3.25-12.56,10.46-24.5,9.38-15.71,15.51-27.01,18.75-34.55,14.07-32.67,28.13-72.88,42.56-121.25-8.3,1.26-16.59,1.26-24.53,1.26-13.71,0-24.53-5.65-32.82-18.22-6.49-8.8-9.38-15.71-9.38-21.99,0-3.14.72-5.03,2.53-5.03,11.9,13.19,25.25,19.48,40.39,19.48,9.02,0,19.48-.63,31.38-3.14,7.93-29.53,12.26-50.26,12.26-62.2,0-7.54-2.52-14.45-7.21-20.1l-6.85-7.54c0-4.4,1.44-6.91,4.33-6.91,6.13,0,14.07,3.14,23.44,9.42,11.18,7.54,16.95,15.08,16.95,23.87,0,3.14-1.44,6.91-3.97,11.94-3.61,6.91-6.13,11.94-6.85,15.08l-10.46,32.67c20.2-4.4,35.71-10.05,46.89-16.96l10.82-8.17c5.05-3.77,8.3-5.65,10.1-5.65,2.52,0,5.77,2.51,10.1,6.28,3.61,4.4,5.77,8.79,5.77,12.56,0,7.54-5.05,13.19-14.43,16.96-25.25,11.31-51.22,18.85-78.63,23.87-14.43,43.98-27.41,81.67-38.95,113.08,17.67-28.9,37.51-43.98,59.15-43.98,23.8,0,36.79,23.25,39.67,69.11l34.99-23.25c13.71-9.42,24.17-17.59,31.38-25.13,12.26-11.94,18.39-22.62,18.39-32.04,0-3.77-1.8-8.8-5.41-14.45-3.61-5.65-5.05-8.79-5.05-9.42,0-2.51,1.08-4.4,3.61-4.4,6.85,0,14.07,6.28,21.64,18.85,7.57,12.56,11.54,24.5,11.54,37.07,0,8.8-5.41,15.71-16.23,21.36Z"/>
    <path d="M9464.1,2912.82c7.93,3.77,12.26,6.91,12.26,10.68s-2.52,6.28-7.21,7.54c-3.61,1.26-5.77,3.14-6.49,5.03-9.38,53.4-19.48,97.38-29.94,132.56l5.41,1.88c3.61,2.51,5.77,4.4,5.77,5.65,0,5.03-2.16,9.42-5.77,13.19-2.88,1.88-3.97,5.03-3.97,10.05v361.87c0,3.14-1.44,6.28-3.97,8.8-4.33,1.26-7.93,2.51-10.82,2.51-4.33,0-6.49-3.77-6.49-10.05.72-23.87,1.44-47.12,1.44-70.99v-266.38c-11.54,32.67-25.25,64.08-41.12,94.87l-3.97-9.42c12.62-31.41,26.33-76.65,40.76-134.45,11.9-46.49,22.36-104.92,31.74-175.28,8.3,5.03,15.87,8.79,22.36,11.94ZM9505.21,2990.72h59.15v-48.38c0-12.56-.72-25.13-1.44-38.95,6.85,1.26,13.71,3.14,20.2,4.4,8.3,1.26,12.62,3.77,12.62,7.54,0,3.14-2.16,5.65-5.77,7.54-2.88,1.26-4.33,4.4-4.33,10.05v57.8h71.77l9.74-18.85c4.33-8.8,7.21-13.82,8.66-13.82,2.89,0,7.94,6.28,14.79,18.22,6.49,12.57,9.74,20.1,9.74,22.62,0,6.28-1.8,8.79-5.05,8.79h-109.64v70.99h60.59l7.93-12.56c2.16-3.77,4.33-5.65,6.13-5.65s5.77,4.4,11.9,12.57c5.41,8.79,8.3,14.45,8.3,17.59,0,3.77-1.8,6.91-5.05,10.05-3.25,3.77-4.69,7.54-4.69,11.31v103.66c0,10.05.36,23.25,1.8,40.21,0,3.14-1.44,5.65-4.33,7.54-4.69,2.51-8.66,3.14-12.26,3.14s-5.05-3.14-5.05-10.05v-25.76h-66.36c-2.16,47.75-6.85,84.81-13.71,109.94-2.16,10.05-5.05,18.85-8.66,27.64,9.38,8.17,20.56,15.08,33.54,21.36,24.53,15.08,60.59,26.39,108.92,33.93l-.72,8.79c-6.13,3.14-10.46,10.05-12.62,20.73-1.8,8.17-3.25,12.57-4.69,12.57-9.02,0-27.05-5.65-54.1-16.96-29.58-13.19-52.66-27.01-68.89-41.46-5.05-3.77-9.74-8.17-14.07-13.19-5.05,8.8-10.1,17.59-15.87,25.13-20.2,24.5-46.17,43.35-78.63,55.92l-2.53-7.54c31.02-17.59,55.18-40.21,72.13-68.48,3.97-7.54,7.57-14.45,10.46-21.99-7.93-10.05-14.79-20.73-20.56-33.3-12.62-23.87-22.72-50.26-29.94-80.42l5.05-4.4c15.87,36.44,32.1,64.71,48.69,84.19,2.16,3.14,4.33,5.65,6.85,8.17,2.88-8.17,5.05-16.33,6.49-25.13,5.77-22.62,9.38-54.03,11.54-95.49h-61.67v13.82c0,2.51-1.44,5.03-3.97,6.91-4.33,2.51-7.93,3.14-10.82,3.14-4.33,0-6.13-3.14-6.13-10.05.72-6.91,1.44-14.45,1.44-23.25v-125.65c0-8.17-.72-18.22-1.44-30.16,5.41,3.77,10.82,8.17,16.23,13.19h67.45v-70.99h-59.15c-17.67,0-30.3,1.88-37.51,4.4l-6.85-27.01c10.1,3.77,24.89,5.65,44.36,5.65ZM9564,3213.75c0-13.19.36-27.64.36-42.72v-74.76h-62.76v117.48h62.4ZM9585.64,3171.03c0,15.71-.36,30.16-.36,42.72h65.64v-117.48h-65.28v74.76Z"/>
    <path d="M9796.28,2948.63h196.57l7.57-14.45c3.97-7.54,6.85-11.31,9.02-11.31,1.44,0,5.77,4.4,12.98,13.19,6.85,11.31,10.46,18.22,10.46,21.99,0,5.65-1.8,10.05-5.41,12.57-4.33,3.77-6.13,7.54-6.13,11.31v451.08c0,14.45-5.05,25.13-14.43,32.67-7.57,6.28-14.07,9.42-19.12,9.42-5.41,0-8.29-5.65-8.29-16.96-1.44-12.57-14.79-23.87-40.04-33.93l1.8-10.68c19.12,6.28,34.62,10.05,46.53,10.05,7.21,0,10.82-4.4,10.82-13.19v-147.64h-91.97v141.36c0,15.08.36,32.67,1.08,53.4,0,3.77-1.44,6.28-3.97,8.8-5.05,2.51-9.38,3.77-12.98,3.77-4.33,0-6.49-3.77-6.49-10.68.72-13.19,1.44-31.41,1.44-55.29v-141.36h-91.25c-.72,16.33-1.8,32.04-2.88,45.86-3.61,35.18-10.1,68.48-19.48,99.26-8.3,23.87-19.48,47.75-33.18,72.25l-4.69-6.28c14.43-39.58,24.53-76.02,29.58-111.2,6.49-42.72,9.74-106.17,9.74-191.62,0-113.08-1.08-194.13-2.52-243.13,10.46,7.54,18.75,14.45,25.25,20.73ZM9885.73,3245.79v-130.05h-89.45v55.29c0,27.64-.36,52.14-1.08,74.76h90.53ZM9885.73,3098.78v-132.56h-89.45v132.56h89.45ZM9906.64,3098.78h91.97v-132.56h-91.97v132.56ZM9906.64,3245.79h91.97v-130.05h-91.97v130.05Z"/>
    <path d="M10356.41,3292.91c-30.66,96.75-72.13,144.5-124.07,144.5-49.05,0-73.22-47.75-73.22-144.5,0-37.07,1.44-92.35,4.69-166.49,2.89-73.5,4.69-111.83,4.69-114.97,0-18.22-5.41-30.78-16.23-37.69-3.97-2.51-5.77-4.4-5.77-6.91,0-7.54,3.97-11.31,11.9-11.31,7.21,0,15.87,5.03,25.25,15.08,10.1,11.31,15.51,22.62,15.51,33.93,0,1.26-1.08,6.91-3.25,16.33s-3.61,15.71-3.97,18.22c-8.66,72.88-12.98,155.18-12.98,246.9,0,37.69,3.25,65.34,10.1,81.67,7.93,20.1,22,30.16,42.92,30.16,26.33,0,51.58-15.08,76.1-46.49,22.36-28.9,40.04-64.71,53.02-108.69,2.52-8.79,4.69-13.19,6.49-13.19,1.44,0,2.52,2.51,2.52,7.54,0,8.8-4.69,27.01-13.71,55.91Z"/>
    <path d="M10736.2,3421.07c-3.61,0-10.82-6.28-22-19.48-19.84-22.62-42.2-41.46-67.45-57.8v7.54c0,35.18-6.49,60.31-19.12,74.13-10.1,10.68-25.97,16.33-46.89,16.33-16.95,0-31.38-5.65-42.92-15.71-15.15-13.19-22.72-33.3-22.72-60.31,0-46.49,23.08-70.36,69.97-70.36,10.82,0,24.53,3.14,40.76,8.17l-2.16-121.25c-28.13,5.65-52.66,8.17-73.58,8.17s-37.51-9.42-48.33-28.27c-7.21-11.94-10.82-22.62-10.82-32.04,0-1.88.72-3.14,2.16-3.14,14.07,23.87,32.46,35.81,55.54,35.81,21.28,0,46.17-2.51,74.3-8.79l-1.8-87.96c-18.75,5.03-33.9,6.91-45.08,6.91-13.34,0-24.89-6.28-34.99-18.85-7.93-9.42-11.54-16.96-11.54-23.25,0-1.88.72-3.14,2.52-3.14,3.61,3.77,7.21,7.54,11.18,11.31,7.93,7.54,17.31,10.68,27.41,10.68,14.43,0,31.02-2.51,50.13-8.79l-.36-29.53c0-25.13-4.33-43.35-12.98-54.03-.36,0-2.89-1.88-7.21-5.65-3.61-2.51-5.41-4.4-5.41-5.65,0-3.77,2.16-6.28,6.49-6.28,6.85,0,15.87,3.14,26.69,9.42,12.98,7.54,19.48,16.33,19.48,25.13,0,2.51-1.44,8.17-3.97,17.59-2.52,9.42-3.61,17.59-3.61,23.87v18.22l19.12-8.17c5.05-2.51,11.18-7.54,18.39-13.82,5.05-4.4,8.66-6.91,10.1-6.91,2.89,0,6.13,1.88,10.1,5.65,3.97,3.77,6.13,8.17,6.13,12.57,0,6.91-4.69,12.56-13.34,16.96-13.71,7.54-30.66,14.45-50.49,20.73l-.36,89.21c24.53-6.28,42.2-13.19,53.02-20.73l12.98-11.31c6.49-5.65,10.46-8.79,11.54-8.79,4.33,0,9.38,1.88,14.43,5.65,5.77,5.03,9.02,10.68,9.02,16.96s-5.77,12.57-16.59,18.22c-21.64,11.31-49.77,21.36-83.68,28.9l5.41,131.93c35.71,16.33,63.84,35.81,84.4,58.43,11.18,12.57,16.95,24.5,16.95,35.81,0,10.68-3.61,15.71-10.82,15.71ZM10626.2,3332.49c-20.2-9.42-38.23-14.45-54.1-14.45-31.74,0-47.61,15.71-47.61,47.12,0,17.59,6.49,31.41,20.2,40.21,10.1,6.91,20.92,10.05,33.18,10.05,15.87,0,27.41-3.14,34.62-10.68,9.38-9.42,14.07-27.01,14.07-53.4l-.36-18.85Z"/>
    <path d="M11077.76,3292.91c-30.66,96.75-72.13,144.5-124.07,144.5-49.05,0-73.22-47.75-73.22-144.5,0-37.07,1.44-92.35,4.69-166.49,2.89-73.5,4.69-111.83,4.69-114.97,0-18.22-5.41-30.78-16.23-37.69-3.97-2.51-5.77-4.4-5.77-6.91,0-7.54,3.97-11.31,11.9-11.31,7.21,0,15.87,5.03,25.25,15.08,10.1,11.31,15.51,22.62,15.51,33.93,0,1.26-1.08,6.91-3.25,16.33s-3.61,15.71-3.97,18.22c-8.66,72.88-12.98,155.18-12.98,246.9,0,37.69,3.25,65.34,10.1,81.67,7.93,20.1,22,30.16,42.92,30.16,26.33,0,51.58-15.08,76.1-46.49,22.36-28.9,40.04-64.71,53.02-108.69,2.52-8.79,4.69-13.19,6.49-13.19,1.44,0,2.52,2.51,2.52,7.54,0,8.8-4.69,27.01-13.71,55.91Z"/>
    <path d="M11353.68,3062.34c-15.51,9.42-35.71,18.22-60.95,27.01-7.57,47.75-16.59,99.89-26.69,155.18-10.1,51.52-19.84,103.03-29.21,154.55-4.33,22.62-9.38,33.93-15.15,33.93-3.97,0-7.21-5.65-9.38-16.96-2.16-8.8-2.89-17.59-2.89-25.76,0-6.28,2.16-16.96,7.21-31.41l10.46-30.78c16.59-65.34,31.74-142.61,45.81-231.82-13.34,3.77-23.44,5.65-30.66,5.65-10.82,0-20.2-5.65-28.49-18.22-7.21-10.05-10.82-18.85-10.82-26.39,0-2.51.72-3.77,2.52-3.77,12.26,13.19,23.44,19.48,33.54,19.48,8.66,0,21.28-2.51,38.59-8.17,6.13-43.98,9.38-74.13,9.38-91.1,0-10.68-4.33-19.48-12.62-26.39-1.44-1.26-2.89-2.51-4.33-5.03,0-4.4,1.8-6.91,6.13-6.91,6.49,0,14.79,3.77,24.17,11.31,10.82,8.79,16.59,17.59,16.59,27.01,0,3.14-1.44,7.54-3.61,13.82-2.88,7.54-4.69,13.19-5.41,16.33-3.25,13.82-6.49,32.04-10.1,54.03,12.26-5.03,22.72-10.05,31.02-16.33,1.8-1.26,5.41-5.03,10.82-10.68,3.61-4.4,6.49-6.91,8.66-6.91,2.89,0,6.49,2.51,11.18,6.91,4.33,5.03,6.85,9.42,6.85,13.82,0,6.91-4.33,12.56-12.62,17.59ZM11425.45,3434.26c-67.09,0-100.27-28.9-100.27-87.33,0-18.85,3.61-37.7,10.82-55.92,6.13-15.08,10.1-23.25,12.26-23.25,1.08,0,1.8,1.88,1.8,4.4-.72,1.88-2.89,7.54-5.77,16.96-3.97,12.57-5.77,24.5-5.77,36.44,0,26.39,7.94,45.86,23.8,57.8,11.54,8.79,25.97,12.56,43.64,12.56,10.46,0,27.41-3.14,50.49-10.05,3.61,0,8.29,2.51,13.71,7.54,5.05,5.03,7.57,10.68,7.57,16.96,0,15.71-17.67,23.87-52.3,23.87ZM11447.82,3144.64c-13.34,4.4-27.41,16.96-41.84,37.07l-7.93,10.68c-1.08,0-1.44-.63-1.44-2.51s1.44-6.28,4.33-12.57c8.3-18.85,12.62-30.16,12.62-33.93,0-8.17-6.85-12.56-20.2-12.56-14.43,0-30.66,6.28-49.05,18.22-1.44,0-2.16-.63-2.16-3.14,0-1.88,1.08-4.4,3.97-7.54,23.08-26.39,49.41-39.58,78.63-39.58,7.57,0,14.79,2.51,21.64,6.28,9.02,6.28,13.71,14.45,13.71,25.13,0,7.54-4.33,11.94-12.26,14.45Z"/>
    <path d="M11637.53,3396.57c-7.93,13.82-17.67,20.1-28.49,20.1s-20.56-6.28-28.13-20.1c-7.93-13.19-11.54-29.53-11.54-49s3.61-35.18,11.54-49c7.57-13.82,16.95-20.73,28.13-20.73s20.56,6.91,28.49,20.73c7.57,13.82,11.54,30.16,11.54,49s-3.97,35.81-11.54,49ZM11629.6,3312.38c-5.77-10.05-12.62-15.08-20.56-15.08s-14.79,5.03-20.2,15.08c-5.77,10.05-8.3,21.36-8.3,35.18s2.53,25.76,8.3,35.18c5.41,10.05,12.26,14.45,20.2,14.45s14.79-4.4,20.56-14.45c5.41-9.42,8.3-21.36,8.3-35.18s-2.89-25.13-8.3-35.18Z"/>
  </g>
</svg>