<?xml version="1.0" encoding="UTF-8"?>
<svg id="_レイヤー_1" data-name="レイヤー_1" xmlns="http://www.w3.org/2000/svg" version="1.1" viewBox="0 0 11962.7 4138.16">
  <!-- Generator: Adobe Illustrator 29.8.1, SVG Export Plug-In . SVG Version: 2.1.1 Build 2)  -->
  <defs>
    <style>
      .st0 {
        fill: none;
      }
    </style>
  </defs>
  <rect class="st0" x="8550.72" y="1861.87" width="0" height="2.35"/>
  <rect class="st0" x="6301.67" y="1718.53" width="18.07" height="0"/>
  <g>
    <path d="M3529.89,598.18c7.99,3.78,12.35,6.93,12.35,10.71s-2.54,6.3-7.27,6.93c-3.63,1.26-5.81,3.15-6.54,5.04l-.36,1.26c22.16,64.9,45.41,111.53,69.38,139.25,26.52,33.4,53.04,56.71,79.56,69.31l-1.82,7.56c-8.72,3.78-14.53,11.97-17.8,23.94-2.18,8.82-4,12.6-5.81,12.6-5.09,0-16.71-11.97-35.24-36.55-19.25-24.57-37.42-55.45-54.85-93.26-16.35-35.29-29.06-71.83-38.51-108.38-18.89,51.67-38.51,93.26-59.58,126.02-26.15,45.37-60.3,89.48-103.17,131.69l-4-8.19c26.15-30.88,54.85-74.35,85.37-129.8,25.07-45.37,47.22-101.45,66.84-169.5,7.99,5.04,15.26,8.82,21.43,11.34ZM3439.8,935.29h152.57c2.18-3.78,5.09-8.19,9.08-13.86,3.63-4.41,6.18-6.93,7.27-6.93,1.82,0,5.81,4.41,11.99,13.23,7.99,13.23,12.35,22.05,12.35,27.09,0,4.41-2.54,7.56-6.9,9.45-4.72,2.52-7.99,6.93-10.17,13.23l-71.2,177.69c-1.09,5.67-2.91,8.82-5.09,9.45-2.18,0-4.72.63-7.63.63-2.18,0-5.09-1.26-9.08-3.78-2.54-1.26-3.63-3.78-3.63-6.3l74.47-202.9h-154.02c-13.08,0-25.43,1.89-37.05,4.41l-6.9-27.09c15.26,3.78,29.79,5.67,43.96,5.67ZM3528.44,826.28c9.08,13.23,13.8,25.83,13.8,37.81,0,7.56-1.45,15.12-4,22.68-2.91,6.93-5.81,10.08-9.08,10.08-7.27,0-12.35-8.82-15.26-26.46-6.9-31.51-17.44-58.6-31.24-80.02l3.63-6.3c19.62,14.49,33.78,28.35,42.14,42.22Z"/>
    <path d="M3770.01,642.29h220.14l10.53-16.38c3.63-6.3,6.54-9.45,7.99-9.45,2.18,0,6.54,4.41,12.35,11.97,6.9,10.71,10.53,18.27,10.53,22.05,0,2.52-2.18,6.3-6.18,10.08-4,3.78-5.81,6.93-5.81,10.71v408.94l1.82,65.53c0,3.78-1.82,6.3-4.72,8.82-5.09,1.89-9.44,3.15-13.08,3.15s-5.45-3.78-5.45-10.08v-49.78h-229.58v50.41c0,3.15-1.45,6.3-4.36,8.82-4.72,1.89-8.72,3.15-11.62,3.15-4.72,0-6.9-3.78-6.9-10.71.73-25.2,1.45-47.26,1.45-66.79v-400.75c0-16.38-.73-36.55-1.45-60.49,8.72,5.67,17.07,12.6,24.34,20.79ZM3998.14,1080.22v-420.91h-229.58v420.91h229.58ZM3843.75,765.16h73.02c2.91-5.04,5.81-10.08,8.35-15.75,2.54-5.04,4.72-7.56,6.54-7.56,2.18,0,6.18,5.04,12.71,13.86,5.81,8.82,9.08,14.49,9.08,18.27s-2.18,7.56-6.18,11.34-5.81,7.56-5.81,11.97v148.71c0,11.34.36,25.2,1.82,42.85,0,3.78-1.82,6.93-4.72,8.19-5.09,2.52-9.44,3.15-13.08,3.15s-5.09-3.15-5.09-10.08v-37.81h-78.1v42.22c0,3.15-1.45,5.67-4,7.56-5.09,2.52-9.08,3.15-11.99,3.15-4.72,0-6.9-3.15-6.9-10.71.73-11.97,1.45-23.94,1.45-35.92v-165.72c0-16.38-.73-32.14-1.45-48.52,7.99,5.67,16.35,12.6,24.34,20.79ZM3920.4,935.29v-152.49h-78.1v152.49h78.1Z"/>
    <path d="M4359.22,1026.03c-15.98,37.81-39.23,64.9-69.02,80.65-18.53,9.45-30.51,14.49-36.33,14.49-2.54,0-3.63-1.26-3.63-3.78s1.09-4.41,4-5.67c31.24-18.9,55.94-47.26,73.74-84.44,18.89-39.7,28.7-87.59,28.7-143.04s-8.72-100.19-25.43-135.47c-18.16-36.55-43.23-55.45-74.47-55.45-4.36,0-8.72.63-12.71,1.26,8.35,15.12,12.71,39.7,12.71,73.09s-4.72,76.87-13.8,128.54c-9.08,50.41-18.89,90.11-29.42,120.35-15.26,43.48-31.24,64.9-47.95,64.9s-29.06-18.9-39.96-57.34c-9.44-33.4-14.17-67.42-14.17-102.08,0-69.31,14.17-127.91,42.87-174.54,28.33-46.63,62.85-69.94,103.53-69.94,36.33,0,66.11,19.53,89.73,57.97,23.61,39.07,35.6,89.48,35.6,151.86,0,54.82-7.99,100.82-23.98,138.62ZM4236.07,696.48c-30.88,8.82-56.31,32.77-76.29,72.46-20.34,39.7-30.15,86.33-30.15,139.25,0,27.09,2.54,52.93,7.63,77.5,6.54,33.4,16.35,49.78,28.7,49.78,17.44,0,34.51-39.07,51.95-118.46,15.62-71.83,23.61-133.58,23.61-185.25,0-13.86-1.82-25.2-5.45-35.29Z"/>
    <path d="M4495.07,868.5h40.32v-19.53c0-22.05-.73-41.59-1.45-57.97,6.18,1.26,14.17,2.52,24.34,5.04,6.9,2.52,10.53,5.04,10.53,7.56,0,5.67-2.91,9.45-7.99,11.97-3.63,1.89-5.45,5.04-5.45,10.08v42.85h39.23c1.82-2.52,5.45-9.45,10.53-20.16,5.09-9.45,7.99-14.49,9.44-14.49,2.91,0,8.35,6.93,15.62,19.53,6.54,13.23,10.17,21.42,10.17,23.94,0,6.3-1.82,8.82-5.09,8.82h-79.92v52.3c21.07,12.6,38.87,27.09,53.76,44.11,8.72,10.71,13.44,21.42,14.17,32.77,0,6.93-1.09,12.6-2.91,17.64-2.54,6.3-5.45,9.45-8.36,9.45-4.36,0-8.35-6.3-11.99-18.9-13.8-30.25-28.7-54.19-44.68-71.83v143.67c0,16.38.36,35.29,1.45,56.08,0,3.15-1.45,5.67-4.36,8.19-4.72,1.89-8.72,3.15-11.99,3.15-4,0-6.18-3.15-6.54-9.45.73-21.42,1.45-40.33,1.45-57.97v-159.42c-26.88,73.72-56.67,127.91-89.36,163.2l-2.91-7.56c33.78-51.67,61.03-120.35,82.1-205.42h-30.15c-18.16,0-30.88,1.89-38.14,4.41l-6.54-27.09c10.17,3.78,25.07,5.04,44.68,5.04ZM4456.57,663.09l-.73-10.71c30.51-5.67,57.4-12.6,80.65-20.79,23.98-6.3,49.77-17.64,77.01-34.66,7.27,6.93,13.8,13.23,19.98,19.53,6.54,7.56,9.81,13.23,9.81,17.01s-1.45,5.67-4.36,5.67l-15.62-5.67c-57.4,20.16-112.98,29.62-166.74,29.62ZM4497.25,738.7c6.54,13.86,9.81,27.09,9.81,39.7,0,5.67-1.09,11.34-3.27,17.01-2.18,5.67-4.36,8.19-6.54,8.19-5.81,0-9.81-6.3-11.99-20.16-4.36-32.77-11.26-60.49-20.71-82.54l2.91-5.67c14.17,15.12,23.98,29.62,29.79,43.48ZM4553.56,712.86c5.81,13.86,8.72,26.46,8.72,38.44,0,5.67-1.09,11.34-3.27,17.01s-4.36,8.19-6.54,8.19c-5.81,0-9.44-6.3-11.62-20.16-4-32.14-10.17-58.6-18.16-80.02l3.27-5.67c12.71,14.49,21.8,28.35,27.61,42.22ZM4624.39,675.06c6.54,5.04,10.17,10.08,10.17,15.12,0,2.52-1.82,4.41-5.09,5.04-3.63,1.26-5.45,1.89-5.81,2.52-12.71,42.85-27.97,81.28-46.13,115.31l-4-4.41c12.35-45.37,22.16-94.52,28.7-148.08l22.16,14.49ZM4767.52,944.12c7.99,6.3,11.99,11.34,11.99,13.86,0,3.78-2.18,6.3-5.81,6.93-4.36,0-6.9,1.26-7.63,3.15-22.52,39.07-47.59,74.35-74.47,107.12-23.61,28.99-55.22,57.97-94.45,87.59l-3.63-8.82c69.75-68.05,120.6-143.04,151.85-224.95,7.99,6.3,15.26,11.34,22.16,15.12ZM4753.72,776.51c7.63,6.3,11.62,10.08,11.62,12.6,0,3.78-1.82,5.67-5.45,6.3-4.36,0-6.54,1.26-7.27,3.15-16.71,27.72-34.87,52.93-54.49,75.61-17.07,20.79-39.96,41.59-68.29,62.38l-3.63-8.19c49.04-50.41,84.64-105.86,106.44-166.98,7.63,6.3,14.53,11.34,21.07,15.12ZM4745,613.94c7.63,6.3,11.62,10.71,11.62,13.23,0,3.15-1.82,5.04-5.09,5.67-4.36,0-6.9,1.26-7.63,3.15-15.26,27.72-31.6,52.3-49.77,74.35-15.62,20.16-36.69,40.96-62.84,61.12l-3.63-8.19c44.32-49.15,76.29-103.97,96.27-163.83l21.07,14.49Z"/>
    <path d="M4892.11,625.28h176.18c1.45-2.52,4.36-7.56,8.72-16.38,4.36-7.56,6.9-11.97,7.99-11.97,2.54,0,6.9,5.67,13.44,16.38,5.81,11.34,8.72,17.64,8.72,20.16,0,6.3-1.45,8.82-4.36,8.82h-119.88v46.63h115.88l7.63-10.71c4.36-6.3,7.63-10.08,9.44-10.08,2.18,0,6.54,6.3,13.08,18.9,7.27,13.86,10.9,23.94,10.9,29.62,0,3.78-2.54,5.67-6.9,6.3-5.09.63-7.99,1.26-9.44,2.52l-34.15,28.99-.73-1.26v6.93h-85v-17.01h84.64l14.89-36.55h-120.24v69.94c0,15.12.36,33.4,1.09,53.56,0,3.78-1.45,6.93-4,8.82-5.09,2.52-9.44,3.78-13.08,3.78-4.36,0-6.54-3.15-6.54-10.71.73-12.6,1.45-31.51,1.45-55.45v-69.94h-117.33v5.67c0,18.27-3.63,32.14-10.17,42.22-4.72,6.3-11.26,9.45-19.25,9.45-2.91,0-5.45-1.26-7.63-5.04-1.82-3.78-2.54-7.56-2.54-11.97s5.09-11.34,15.98-21.42c9.81-13.86,15.26-31.51,16.71-52.93l4-1.89c.73,6.93,1.09,13.23,1.82,18.27h118.42v-46.63h-69.75c-17.8,0-30.51,1.89-37.78,4.41l-6.9-27.09c10.17,3.78,25.07,5.67,44.68,5.67ZM4958.59,854.64c5.09,7.56,7.99,13.23,7.99,16.38,0,3.78-1.45,6.93-4,10.08-2.54,3.78-3.63,6.93-3.63,10.08v27.09c0,9.45.36,22.05,1.82,37.18,0,3.78-1.45,6.3-4.36,7.56-4.36,2.52-7.99,3.15-11.26,3.15s-4.72-3.15-4.72-9.45v-4.41h-75.2v49.15h63.57c1.09-1.26,3.27-5.04,6.9-10.71,3.27-5.67,5.45-8.82,6.9-8.82s5.45,5.67,11.99,15.75c4.36,6.93,6.54,11.34,6.54,12.6,0,6.3-1.45,8.82-3.63,8.82h-92.27v51.67h63.21c1.45-1.26,4-5.67,7.99-13.23,3.63-6.3,6.54-10.08,7.99-10.08s6.18,6.3,13.8,17.64c4.72,7.56,7.27,12.6,7.27,13.86,0,6.3-1.45,8.82-4.36,8.82h-95.9v68.05c0,2.52-1.45,5.04-3.63,6.3-4,1.89-7.27,3.15-10.17,3.15-4.36,0-6.18-3.15-6.18-9.45.73-10.08,1.45-20.79,1.45-30.88v-236.92c0-14.49-.73-28.98-1.45-42.85,5.81,3.78,11.62,8.82,17.44,13.86h71.56l7.27-11.34c2.18-3.15,4.36-5.04,5.81-5.04,1.82,0,5.45,4.41,11.26,11.97ZM4935.71,743.11v17.01h-85.37v-17.01h85.37ZM4935.71,799.82v17.01h-85.37v-17.01h85.37ZM4940.43,935.29v-59.23h-75.2v59.23h75.2ZM5015.62,992h56.31c2.54-3.78,4.72-7.56,6.54-10.08,4-5.67,6.9-8.82,8.72-8.82,2.91,0,7.63,5.67,14.17,15.75,5.81,8.82,8.72,15.12,8.72,19.53,0,2.52-2.54,5.04-6.9,7.56-3.63,3.15-5.81,5.67-5.81,7.56-6.18,20.16-13.08,37.18-21.07,50.41-4.72,7.56-9.45,14.49-14.17,19.53l3.63,2.52c15.98,10.08,36.33,18.9,61.39,27.73l-1.09,5.04c-6.9,3.78-11.62,9.45-13.8,18.27-2.18,6.93-3.63,10.71-4,10.71-4.36,0-13.08-4.41-26.52-12.6-15.98-10.71-29.06-21.42-39.6-32.77-10.17,8.82-22.52,17.01-37.05,23.31-21.07,9.45-43.23,17.01-66.48,22.05l-2.91-8.82c20.34-7.56,39.96-17.01,59.58-27.09,13.8-8.82,25.06-17.01,33.78-25.2-7.27-9.45-13.08-18.9-18.16-28.98-7.99-16.38-14.17-35.29-18.16-57.34-6.18,1.26-11.26,1.89-14.89,3.15l-6.9-27.09c15.26,3.78,30.15,5.67,44.68,5.67ZM5027.61,927.73h46.13v-51.67h-35.96c-24.7,0-41.78,1.89-51.58,4.41l-6.54-27.1c15.98,3.78,35.24,5.67,58.12,5.67h27.24c2.91-5.04,5.45-10.08,8.36-14.49,2.91-3.78,4.72-6.3,6.18-6.3,2.18,0,6.54,4.41,12.35,11.97,6.54,10.08,9.81,17.01,9.81,20.79,0,3.15-1.45,5.67-4.36,8.19-3.63,3.78-5.09,6.93-5.09,9.45,0,25.83.36,42.22,1.45,49.15v10.08c0,3.78-1.45,6.93-4.36,9.45-4,2.52-7.63,3.78-10.9,3.78-2.91,0-4.36-2.52-4.72-8.19v-8.19h-46.13c-16.71,0-29.79,1.89-39.96,4.41l-6.54-27.09c12.71,3.78,28.33,5.67,46.5,5.67ZM5023.98,1058.8c6.18,8.19,13.08,15.12,20.34,20.79,4.36-5.67,9.08-12.6,13.44-21.42,7.99-13.86,13.8-30.25,18.16-49.15h-60.3c-6.18,0-11.62.63-16.35.63,6.54,20.16,14.89,36.55,24.7,49.15ZM5088.64,799.82v17.01h-85v-17.01h85Z"/>
    <path d="M5274.63,603.86c7.27,6.3,11.26,11.34,11.26,14.49,0,3.78-2.18,5.67-6.18,6.3-5.09,0-8.35,1.26-9.08,3.15-3.27,10.08-6.54,20.16-9.81,28.98h43.23l6.54-13.23c3.27-6.3,5.81-10.08,7.99-10.08,2.54,0,6.9,5.04,13.08,15.12,6.54,10.08,9.81,17.64,9.81,22.68,0,4.41-1.82,8.19-5.45,10.71-3.27,4.41-5.09,8.19-5.09,10.71-10.17,47.89-22.16,87.59-35.6,119.72-4.36,9.45-9.44,18.27-14.89,26.46,9.44,1.89,20.71,2.52,34.51,2.52h51.22c1.45-2.52,4.72-8.19,9.81-18.27,4.36-8.82,7.27-13.86,8.72-13.86,3.27,0,8.36,6.3,14.89,18.27,6.54,12.6,9.81,20.16,9.81,22.68,0,6.3-1.82,8.82-4.72,8.82h-89.73c-17.8,0-30.51,1.89-37.78,4.41l-3.63-13.86c-7.99,11.97-16.71,23.31-26.52,34.66-26.88,25.2-52.31,44.11-76.29,57.34l-4-7.56c39.6-31.51,71.93-67.42,96.99-106.49,22.52-40.33,37.78-91.37,45.77-153.12h-55.58c-3.63,9.45-7.27,17.64-10.9,25.2,7.99,3.78,15.62,8.19,22.52,13.23,2.54,2.52,5.81,5.67,10.17,9.45,5.09,6.3,7.63,12.6,7.63,19.53,0,6.3-1.09,11.34-3.27,15.12-1.82,5.04-4,6.93-6.54,6.93-3.63,0-6.54-3.15-9.44-10.08-7.27-18.9-15.62-34.03-25.07-45.37-6.18,13.86-13.08,26.46-21.07,39.07,10.9,9.45,18.89,18.27,23.98,27.09,6.54,10.08,10.17,20.16,10.17,29.62,0,5.04-1.09,10.08-2.91,14.49-1.82,5.04-3.63,6.93-5.81,6.93-4.72,0-7.99-5.67-9.81-17.01-4.72-20.79-11.62-38.44-20.34-53.56-10.17,16.38-21.8,31.51-34.51,46l-3.27-9.45c17.44-27.73,33.06-58.6,46.86-92.63,15.26-39.07,26.16-76.87,32.33-112.16,7.63,6.93,14.17,12.6,19.98,17.01ZM5284.44,997.05c7.63,5.67,11.62,10.08,11.62,12.6,0,3.15-1.82,5.04-5.09,5.67-4.36,0-6.54,1.26-6.9,3.15-13.8,22.68-29.06,44.11-45.41,63.01-14.17,17.64-33.06,34.03-57.03,51.67l-3.63-6.93c39.96-42.85,69.02-90.74,86.82-143.04,7.27,5.67,13.8,10.08,19.62,13.86ZM5256.83,935.29h164.92c1.82-2.52,5.45-9.45,10.9-20.16,4.72-10.08,7.63-15.12,9.08-15.12,3.27,0,8.36,6.93,15.62,19.53,6.54,13.86,10.17,21.42,10.17,23.94,0,6.3-1.82,8.82-4.72,8.82h-116.61v163.83c0,17.64-4.72,31.51-13.44,40.33-6.9,5.67-11.99,8.82-15.62,8.82-5.09,0-7.99-5.67-8.35-16.38-2.18-9.45-16.35-19.53-42.5-30.25l1.09-10.08c24.7,5.04,40.32,7.56,47.22,7.56s10.53-4.41,10.53-12.6v-151.23h-68.29c-17.8,0-30.51,1.89-37.78,4.41l-6.9-27.09c10.17,3.78,25.07,5.67,44.68,5.67ZM5468.61,658.68c7.99,15.12,11.99,25.2,11.99,30.88,0,3.78-2.54,5.67-7.27,6.3-5.09,1.26-8.36,1.89-9.81,3.15l-54.85,75.61c5.81,11.97,12.71,22.68,19.98,32.14,23.98,30.88,49.04,54.19,75.92,70.57l-1.09,7.56c-7.99,2.52-13.08,8.82-14.89,18.27-1.82,7.56-3.63,11.34-5.45,11.34-4.36,0-13.08-6.93-25.79-22.05-15.26-16.38-30.88-37.81-47.22-63.01-13.44-25.2-24.7-52.3-33.78-82.54-10.53-35.29-19.25-82.54-26.52-140.51h8.72c1.82,17.01,5.09,34.66,9.44,52.93h68.66c2.54-3.15,5.45-6.93,8.72-10.71,4.36-6.3,7.27-10.08,9.44-10.08,2.54,0,7.27,6.93,13.8,20.16ZM5382.88,715.39c5.81,18.9,12.71,35.29,20.34,49.78l38.51-88.22h-69.38c2.91,13.23,6.54,25.83,10.53,38.44ZM5448.27,1056.28c10.53,15.75,15.98,31.51,16.71,47.26,0,6.93-1.09,13.23-2.91,18.27-2.91,5.67-5.81,8.82-8.72,8.82-5.09,0-9.81-8.19-14.89-24.57-19.62-50.41-41.78-87.59-65.75-112.79l2.54-7.56c28.7,18.9,53.04,42.85,73.02,70.57Z"/>
    <path d="M5836.96,708.45c-17.07-2.52-29.42-4.41-36.69-4.41-30.15,0-55.94,22.68-77.38,68.05-20.34,42.85-30.51,90.74-30.51,143.67,0,90.74,26.88,144.3,80.65,160.05,13.44,3.78,20.34,14.49,20.34,31.51,0,11.97-5.45,18.27-15.98,18.27-23.98,0-45.41-13.86-65.02-40.96-25.43-35.29-37.78-85.06-37.78-149.97,0-49.15,7.27-95.15,22.16-137.99,14.53-42.85,34.51-74.98,59.58-96.41-58.12,15.12-102.8,34.03-134.77,56.08l-13.08,12.6c-5.81,6.3-10.53,8.82-13.44,8.82-5.45,0-13.08-7.56-23.25-22.68-10.17-15.12-15.26-27.09-15.26-35.92,0-3.78.73-5.67,2.91-5.67,2.91,3.15,6.18,6.3,9.45,9.45,5.81,6.3,11.99,8.82,17.8,8.82,1.45,0,27.61-8.19,78.47-25.2,56.67-18.27,97.72-30.88,123.51-37.18,1.45,0,4.72-1.89,9.08-4.41s7.63-3.78,10.17-3.78c5.09,0,12.71,4.41,22.16,13.23,9.44,8.82,14.17,17.01,14.17,24.57,0,6.3-2.54,9.45-7.27,9.45ZM5814.07,868.5c-4,0-7.27-3.15-10.17-10.08-10.17-23.31-19.98-42.22-29.06-56.08-4.36-6.3-6.18-10.08-6.18-12.6s1.09-4.41,4-4.41c7.99,0,18.16,6.93,30.51,19.53,13.44,14.49,20.34,28.99,20.34,42.85s-3.27,20.79-9.44,20.79ZM5843.86,824.39c-4,0-7.27-2.52-9.44-8.82-9.44-22.05-19.25-39.07-29.06-50.41-5.09-5.67-7.63-9.45-7.63-11.34,0-3.78,1.09-5.67,3.63-5.67,9.44,0,19.98,5.67,31.6,16.38,13.08,12.6,19.62,25.83,19.62,40.33,0,13.23-2.91,19.53-8.72,19.53Z"/>
    <path d="M5967.36,658.05c2.91,1.26,4.72,3.78,4.72,6.3,0,3.78-2.91,7.56-8.35,11.97-3.27,3.15-4.72,8.82-4.72,17.01v127.91h89.73v-176.43c0-19.53-.73-37.18-1.45-52.93,6.9,1.26,15.98,3.15,26.88,5.67,7.63,1.89,11.62,4.41,11.62,6.93,0,5.67-3.27,10.08-9.44,13.23-4.36,2.52-6.18,5.67-6.18,10.71v192.81h89c0-6.93.36-13.86.36-20.79v-90.11c0-23.31-.73-44.11-1.45-61.75l26.16,5.67c7.27,1.89,10.9,4.41,10.9,6.93,0,6.3-2.91,10.71-8.35,13.23-4.36,2.52-6.18,5.67-6.18,10.71v115.31c0,17.64.36,37.81,1.82,59.86,0,3.78-1.82,6.93-4.72,8.82-5.09,2.52-9.45,3.15-13.08,3.15-4,0-6.18-3.15-6.54-10.08.36-8.19.73-16.38.73-23.94h-88.64v256.46h96.27v-130.43c0-23.94-.73-44.74-1.45-62.38,6.9,1.26,15.62,3.15,26.52,5.67,7.27,2.52,10.9,5.04,10.9,7.56,0,5.67-2.91,10.08-8.72,12.6-4,2.52-5.81,6.3-5.81,11.34v139.25c0,17.64.36,37.18,1.82,59.86,0,3.78-1.82,6.93-4.72,9.45-5.09,1.89-9.44,3.15-13.08,3.15-4.36,0-6.54-3.78-6.9-10.71l1.09-28.35h-212.15c-4.36,13.86-8.35,21.42-12.35,21.42s-7.63-1.89-10.9-4.41c-6.18-5.67-9.08-10.08-9.08-13.23s1.09-6.3,3.63-10.08c2.18-5.04,3.63-10.08,4-14.49v-144.93c0-13.23-1.09-27.09-2.54-41.59l32.33,10.08c2.91,1.26,4.72,3.15,4.72,5.67,0,3.78-2.91,7.56-8.72,11.97-3.27,3.15-4.72,8.82-4.72,17.01v145.56h98.45v-256.46h-86.09c-4.36,16.38-8.72,24.57-12.35,24.57-4,0-7.63-1.26-11.26-4.41-5.81-5.67-8.72-10.08-8.72-13.86,0-2.52,1.09-5.67,3.63-9.45,2.18-5.67,3.27-10.71,3.63-15.12v-129.8c0-13.23-1.09-27.09-2.54-41.59l32.33,9.45Z"/>
    <path d="M6448.32,622.13c7.27,11.34,11.26,22.68,11.26,34.03,0,7.56-1.09,13.86-2.54,18.27h83.91c1.45-2.52,5.09-8.19,10.17-18.27,4.72-8.82,7.99-13.86,9.81-13.86,2.18,0,7.99,7.56,17.44,22.68,5.81,10.08,8.72,15.75,8.72,17.64,0,6.3-1.82,8.82-4.72,8.82h-259.74v30.88c0,74.98-1.82,140.51-5.09,195.96-3.63,51.04-10.53,98.3-20.71,141.77-9.08,34.03-21.07,68.05-35.96,102.71l-4.36-5.67c16.71-56.08,27.97-109.64,33.42-160.05,7.27-60.49,11.26-152.49,11.26-274.73,0-31.51-1.09-54.82-2.54-68.68,10.17,7.56,18.53,14.49,25.07,20.79h114.07c-1.45-3.15-2.54-7.56-3.27-12.6-6.18-27.09-15.98-49.78-29.06-68.68l3.63-6.3c18.16,11.97,31.24,23.94,39.23,35.29ZM6459.94,717.91c6.9,2.52,10.53,5.04,10.53,7.56,0,5.04-2.91,9.45-8.36,12.6-4.36,2.52-6.18,6.3-6.18,11.34v62.38h77.74c1.45-1.89,4.72-7.56,9.44-16.38,4.36-8.19,7.63-12.6,9.45-12.6s7.27,7.56,16.35,21.42c5.45,8.82,8.35,14.49,8.35,16.38,0,6.3-1.82,8.82-5.09,8.82h-116.25v110.9h64.66l8.36-16.38c2.54-5.04,4.72-7.56,6.54-7.56,2.18,0,6.18,5.04,12.71,13.86,5.81,8.82,9.08,14.49,9.08,18.27s-1.82,8.19-5.45,11.97c-3.63,3.78-5.09,7.56-5.09,11.34v136.73c0,10.71.36,25.2,1.82,42.85,0,3.15-1.82,5.67-4.72,8.19-5.09,1.89-9.44,3.15-13.08,3.15s-5.45-3.78-5.45-10.08v-35.29h-147.49v34.66c0,2.52-1.45,5.04-4,7.56-4.72,1.89-8.72,3.15-11.99,3.15-4.36,0-6.54-3.78-6.54-10.71.73-12.6,1.45-24.57,1.45-35.92v-148.08c0-16.38-.73-32.77-1.45-49.15,7.99,5.67,16.35,12.6,25.06,21.42h54.13v-197.23c0-10.08-.36-20.16-1.09-30.88,6.9,1.26,15.62,3.15,26.52,5.67ZM6525.33,1100.38v-143.04h-147.49v143.04h147.49Z"/>
    <path d="M6937.27,755.08c-7.63-1.26-15.26-3.15-22.52-4.41-15.62-2.52-29.06-4.41-40.32-4.41-16.71,0-35.6,1.26-57.4,3.15l-.36,102.71c8.72,18.27,13.08,50.41,13.08,95.78,0,78.76-16.35,136.1-48.68,171.39-18.53,20.16-35.6,30.25-51.22,30.25-2.18,0-3.27-1.26-3.27-3.15,0-2.52,1.82-4.41,5.81-6.93,46.5-29.62,70.84-80.65,72.65-155.01-9.45,17.64-21.43,25.83-35.24,25.83-12.71,0-22.89-10.08-30.51-31.51-6.9-17.64-10.17-38.44-10.17-61.75,0-26.46,4.36-49.15,13.8-68.68,9.08-18.9,21.07-28.99,36.33-28.99,7.27,0,13.44,2.52,18.89,6.3v-74.35c-39.23,5.67-71.2,15.12-95.18,27.72-1.09.63-6.54,4.41-15.98,11.34-6.9,5.04-12.35,7.56-16.35,7.56-4.72,0-11.62-6.3-20.71-20.16-9.08-13.86-13.44-24.57-13.44-32.14,0-3.78,1.09-5.67,3.27-5.67l7.99,8.82c5.45,5.67,10.9,8.19,16.71,8.19,3.27,0,19.25-3.15,47.95-10.08,21.8-5.04,50.13-10.71,85.73-17.64,0-40.33-1.45-64.27-4-73.09-2.91-8.19-7.63-15.12-14.17-20.79-6.9-5.04-10.17-7.56-10.17-8.19,0-5.04,2.54-8.19,7.99-8.19,7.63,0,16.71,3.15,26.88,8.19,12.71,7.56,19.25,16.38,19.25,26.46l-3.63,15.75c-2.54,10.71-3.63,20.79-3.63,30.88v25.83l59.94-8.19c7.26-.63,14.89-3.15,22.52-8.19,7.63-3.78,12.71-6.3,14.89-6.3,4.36,0,10.17,5.67,18.16,15.75,7.63,10.71,11.62,19.53,11.62,25.83,0,6.93-2.18,10.08-6.54,10.08ZM6796.32,858.42c-5.45-15.12-13.08-22.68-22.89-22.68s-18.53,8.19-24.7,23.94c-5.45,14.49-7.99,30.88-7.99,49.15s2.18,34.03,7.27,47.89c5.81,16.38,13.44,24.57,23.25,24.57s17.8-8.19,24.34-25.83c5.09-15.12,7.63-31.51,7.63-50.41s-2.54-34.03-6.9-46.63Z"/>
    <path d="M7231.87,1089.04c-20.34,23.94-46.13,36.55-77.38,36.55-17.44,0-32.33-5.67-45.41-15.75-17.07-13.86-25.43-33.4-25.43-59.86,0-20.16,5.45-35.92,16.35-47.26,8.72-8.82,19.62-13.23,32.69-13.23,12.35,0,25.79,8.19,39.6,23.31,14.89,17.64,22.52,36.55,22.52,56.71,0,6.3-.73,11.97-1.82,15.75,33.06-27.73,49.77-66.16,49.77-115.94,0-35.29-7.26-62.38-21.07-80.65-12.35-16.38-29.42-24.57-50.49-24.57s-41.41,11.97-62.12,34.66c-18.53,20.79-34.51,47.26-47.59,78.76-6.54,16.38-11.26,23.94-14.17,23.94-5.45,0-7.99-12.6-7.99-37.81,0-7.56,4-17.01,12.35-28.35,24.7-34.03,62.85-112.79,114.43-236.92,2.91-7.56,4.72-11.97,4.72-13.86,0-3.78-1.45-6.3-4.36-6.3-4.36,0-14.53,5.04-29.79,15.12-14.17,10.08-23.98,17.64-29.79,22.68-9.45,8.82-15.26,13.23-17.44,13.23-6.54,0-13.44-6.93-21.07-22.05-7.99-13.86-11.62-27.1-11.62-38.44,0-2.52.73-4.41,2.91-4.41l8.72,12.6c5.81,7.56,11.99,10.71,19.25,10.71,8.72,0,22.89-3.78,42.14-11.97,15.98-6.93,29.06-13.86,38.87-20.16.73,0,3.63-3.15,8.72-8.19,3.63-3.78,6.9-5.67,9.81-5.67,3.27,0,7.99,4.41,14.17,13.23,5.81,8.82,8.72,16.38,8.72,22.05,0,3.78-3.27,8.19-9.08,14.49-7.27,7.56-11.26,11.97-11.99,13.23-10.54,19.53-38.87,78.13-84.64,175.8,21.8-23.94,48.31-36.55,78.83-36.55,23.25,0,42.87,10.71,58.49,31.51,17.07,23.31,25.79,54.82,25.79,93.89,0,51.67-11.99,92-35.6,119.72ZM7179.92,1080.85c-7.27-18.9-15.98-35.29-26.52-48.52-11.99-13.86-23.98-21.42-35.6-21.42-6.9,0-12.71,3.78-17.44,11.34-5.09,7.56-7.63,16.38-7.63,27.73,0,20.16,6.17,34.66,18.53,44.11,9.08,7.56,20.34,10.71,33.42,10.71,13.8,0,27.97-4.41,42.14-13.86-2.91-1.26-5.45-5.04-6.9-10.08Z"/>
    <path d="M7538.1,622.13c7.27,11.34,11.26,22.68,11.26,34.03,0,7.56-1.09,13.86-2.54,18.27h83.91c1.45-2.52,5.09-8.19,10.17-18.27,4.72-8.82,7.99-13.86,9.81-13.86,2.18,0,7.99,7.56,17.44,22.68,5.81,10.08,8.72,15.75,8.72,17.64,0,6.3-1.82,8.82-4.72,8.82h-259.73v30.88c0,74.98-1.82,140.51-5.09,195.96-3.63,51.04-10.54,98.3-20.71,141.77-9.08,34.03-21.07,68.05-35.96,102.71l-4.36-5.67c16.71-56.08,27.97-109.64,33.42-160.05,7.27-60.49,11.26-152.49,11.26-274.73,0-31.51-1.09-54.82-2.54-68.68,10.17,7.56,18.53,14.49,25.07,20.79h114.07c-1.45-3.15-2.54-7.56-3.27-12.6-6.18-27.09-15.98-49.78-29.06-68.68l3.63-6.3c18.16,11.97,31.24,23.94,39.23,35.29ZM7549.72,717.91c6.9,2.52,10.53,5.04,10.53,7.56,0,5.04-2.91,9.45-8.35,12.6-4.36,2.52-6.18,6.3-6.18,11.34v62.38h77.74c1.45-1.89,4.72-7.56,9.44-16.38,4.36-8.19,7.63-12.6,9.45-12.6s7.26,7.56,16.35,21.42c5.45,8.82,8.36,14.49,8.36,16.38,0,6.3-1.82,8.82-5.09,8.82h-116.25v110.9h64.66l8.36-16.38c2.54-5.04,4.72-7.56,6.54-7.56,2.18,0,6.18,5.04,12.71,13.86,5.81,8.82,9.08,14.49,9.08,18.27s-1.82,8.19-5.45,11.97-5.09,7.56-5.09,11.34v136.73c0,10.71.36,25.2,1.82,42.85,0,3.15-1.82,5.67-4.72,8.19-5.09,1.89-9.44,3.15-13.08,3.15s-5.45-3.78-5.45-10.08v-35.29h-147.49v34.66c0,2.52-1.45,5.04-4,7.56-4.72,1.89-8.72,3.15-11.99,3.15-4.36,0-6.54-3.78-6.54-10.71.73-12.6,1.45-24.57,1.45-35.92v-148.08c0-16.38-.73-32.77-1.45-49.15,7.99,5.67,16.35,12.6,25.07,21.42h54.13v-197.23c0-10.08-.36-20.16-1.09-30.88,6.9,1.26,15.62,3.15,26.52,5.67ZM7615.11,1100.38v-143.04h-147.49v143.04h147.49Z"/>
    <path d="M7806.54,601.96c7.27,3.78,10.9,6.93,10.9,10.08,0,3.78-2.18,5.67-6.18,6.3-3.63,1.26-5.45,3.15-6.18,4.41-1.45,5.04-2.91,10.08-4.36,13.86,18.16,12.6,33.78,27.73,46.86,44.11,8.72,11.97,13.08,23.94,13.8,35.29,0,6.3-1.09,11.97-2.54,15.75-2.18,5.04-4.72,7.56-7.27,7.56-4.36,0-8.35-6.3-11.99-18.9-13.08-30.88-27.25-55.45-42.14-73.72-8.72,26.46-18.16,48.52-27.61,65.53-13.8,28.99-31.97,57.34-55.22,83.81l-3.63-8.19c13.08-20.16,27.25-47.89,42.5-84.44,12.35-29.62,23.25-66.79,33.06-111.53,7.27,4.41,14.17,7.56,19.98,10.08ZM7781.48,785.33h1.09v-43.48c0-8.82-.36-17.64-1.09-27.09,5.81,1.26,13.44,2.52,22.89,5.04,5.81,1.89,9.08,3.78,9.08,6.3,0,5.04-2.54,8.82-7.27,11.34-3.63,1.26-5.08,4.41-5.08,9.45v38.44h19.25l8.35-15.75c4-6.93,6.54-10.71,7.63-10.71,2.91,0,6.9,5.67,12.35,15.75,5.81,10.71,8.72,17.01,8.72,18.9,0,6.3-1.45,8.82-4.36,8.82h-51.95v81.28h25.79l9.81-18.9c4.36-8.82,6.9-13.86,8.36-13.86,3.27,0,8.35,6.3,14.89,18.27,6.54,13.23,10.17,20.79,10.17,22.68,0,6.3-1.82,8.82-5.09,8.82h-100.62c-18.16,0-30.88,1.89-38.14,4.41l-6.54-27.09c10.17,3.78,25.07,5.67,44.68,5.67h18.16v-81.28h-1.09c-18.16,0-30.88,1.89-38.14,4.41l-6.9-27.09c10.17,3.78,25.43,5.67,45.04,5.67ZM7760.04,962.39h57.4l7.63-11.34c2.18-3.15,4-5.04,5.45-5.04,1.82,0,5.81,4.41,11.62,11.97,5.09,7.56,7.99,13.23,7.99,16.38,0,3.78-1.82,6.93-5.08,10.08-2.91,3.78-4,6.93-4,10.71v117.83c0,8.82.36,21.42,1.45,37.18,0,2.52-1.45,5.04-4,6.93-4.36,1.89-8.36,3.15-11.62,3.15-2.91,0-4.36-3.15-4.36-8.82v-39.07h-62.48v39.07c0,2.52-1.45,4.41-3.63,5.67-4,1.89-7.27,3.15-10.17,3.15-4.36,0-6.18-3.15-6.18-8.82.73-10.71,1.45-21.42,1.45-31.51v-131.06c0-13.86-.73-28.35-1.45-42.85,6.54,4.41,13.08,10.08,19.98,16.38ZM7822.53,1095.34v-115.94h-62.48v115.94h62.48ZM7906.08,693.96h34.87v-46.63c0-22.05-.73-41.59-1.45-57.97,6.17,1.26,14.17,2.52,24.34,5.04,6.9,2.52,10.53,4.41,10.53,6.93,0,5.67-2.91,10.08-7.99,12.6-3.63,1.89-5.45,5.04-5.45,10.08v69.94h47.59c1.09-2.52,4-7.56,8.72-15.75,4.36-8.19,6.9-12.6,7.63-12.6,2.91,0,7.27,5.67,13.8,16.38,5.81,11.34,8.72,18.27,8.72,20.79,0,5.67-1.45,8.19-4.36,8.19h-82.1v66.79h42.5c2.18-3.78,4-8.19,5.81-12.6,3.27-5.04,5.81-8.19,7.63-8.19,1.45,0,5.09,3.78,10.54,10.71,5.81,8.82,8.72,15.12,8.72,17.64,0,5.04-1.45,8.19-4.36,10.71-3.63,2.52-5.09,5.67-5.09,8.82v315.06c0,12.6-4,22.68-11.62,30.25-6.17,5.04-11.62,7.56-15.98,7.56-4,0-5.81-5.04-5.81-15.12-.73-10.71-9.81-20.79-27.25-29.62l1.82-9.45c13.08,5.04,23.25,7.56,31.24,7.56,6.18,0,9.45-4.41,9.45-11.97v-109.64h-47.59v95.78c0,17.01.36,35.29,1.45,56.08,0,3.78-1.45,6.3-4.36,8.82-4.72,1.89-8.72,3.15-11.99,3.15-4,0-6.17-3.78-6.54-10.08.73-21.42,1.45-40.33,1.45-57.97v-95.78h-46.13v164.46c0,3.15-1.45,5.67-4,8.19-3.63,1.89-6.9,3.15-9.81,3.15-4.36,0-6.18-3.15-6.18-9.45.73-21.42,1.45-40.96,1.45-57.34v-284.18c0-13.86-.73-31.51-1.45-52.93,6.9,4.41,13.44,10.08,19.98,16.38h46.13v-66.79h-34.87c-17.8,0-30.51,1.89-37.78,4.41l-6.9-27.09c10.17,3.78,25.07,5.67,44.68,5.67ZM7940.95,871.02v-76.24h-46.13v76.24h46.13ZM7940.95,971.84v-83.17h-46.13v83.17h46.13ZM7960.93,871.02h47.59v-76.24h-47.59v76.24ZM7960.93,971.84h47.59v-83.17h-47.59v83.17ZM8013.24,622.76c6.54,7.56,10.17,15.12,10.17,22.68,0,6.3-1.45,12.6-3.63,18.27-3.27,6.3-6.54,9.45-9.44,9.45-6.18,0-10.17-6.93-12.35-22.05-4.36-18.9-10.9-35.29-19.98-48.52l3.27-5.67c14.89,8.82,25.43,17.64,31.97,25.83Z"/>
    <path d="M8234.1,600.71c7.99,3.78,11.99,6.93,11.99,10.71s-2.54,6.3-7.27,6.93c-3.63,1.26-5.45,3.15-6.17,5.04-7.99,20.79-16.35,39.7-25.07,56.08h123.15c3.27-5.67,6.54-10.71,10.17-15.12,2.91-3.78,5.09-6.3,7.27-6.3,1.82,0,6.17,5.67,13.44,15.75,6.9,10.71,10.54,17.64,10.54,21.42,0,5.04-2.18,8.19-5.81,9.45-4.36,1.89-7.63,5.67-10.17,11.97-17.44,37.81-37.05,73.09-58.49,105.23-21.43,33.4-47.95,63.01-79.19,89.48-5.81,5.04-11.99,10.08-17.8,13.86h129.69l9.08-13.86c2.54-4.41,4.72-6.93,6.54-6.93,2.18,0,6.9,5.04,13.44,13.86,6.54,9.45,10.17,16.38,10.17,20.16s-1.82,7.56-5.45,11.97c-3.27,3.78-4.72,8.19-4.72,12.6v141.77c0,11.34.73,26.46,2.18,45.37,0,3.78-1.82,6.3-5.09,8.82-5.45,2.52-10.17,3.78-14.17,3.78-3.63,0-5.45-3.78-5.45-10.71v-32.14h-159.84v34.03c0,3.15-1.45,5.67-3.63,8.19-5.09,1.89-9.08,3.15-12.35,3.15-4.36,0-6.54-3.78-6.54-11.34.73-11.97,1.45-23.94,1.45-35.29v-165.72c-22.52,12.6-47.95,23.31-75.56,32.77l-1.82-10.08c26.16-11.97,51.58-27.72,77.01-46.63l-1.09-24.57c5.45,3.78,10.9,8.19,16.35,13.23,20.34-15.75,40.69-34.03,60.3-54.19,40.32-43.48,74.47-98.93,102.44-166.98h-135.13c-6.54,11.34-13.08,22.05-19.62,30.88-21.43,32.77-49.77,64.9-85,95.78l-4-8.82c21.07-22.68,44.32-55.45,69.02-97.67,19.98-33.4,37.78-75.61,53.4-127.28,7.99,5.04,15.26,8.82,21.8,11.34ZM8215.21,783.44c3.63,3.15,7.99,7.56,13.08,13.86,5.81,8.82,9.08,18.9,9.08,29.62,0,6.93-1.09,12.6-3.27,17.01-2.18,6.3-4.72,8.82-7.63,8.82-4.36,0-8.36-4.41-11.99-14.49-11.62-34.03-25.79-59.86-42.14-76.24l2.91-5.04c14.89,6.93,28.33,15.75,39.96,26.46ZM8336.9,1102.27v-159.42h-159.84v159.42h159.84Z"/>
    <path d="M8533.79,900.64l-17.8,85.69c-3.63,18.9-6.18,40.33-7.63,65.53-1.45,26.46-2.54,44.11-4,52.3-1.09,5.04-3.27,8.19-6.54,8.19-10.17,0-18.16-22.05-23.25-66.79-4-30.88-5.81-61.12-5.81-90.11,0-73.09,5.81-148.71,17.8-226.21,4-26.46,6.18-42.22,6.18-46.63,0-12.6-2.54-23.31-6.9-33.4-2.18-3.78-4.72-8.19-7.26-14.49,0-2.52,1.09-4.41,3.27-4.41,4.36,0,10.9,7.56,19.62,21.42,10.17,17.01,15.62,34.03,15.62,50.41,0,4.41-2.18,14.49-6.54,30.88-3.27,10.71-6.17,21.42-9.08,32.14-12.35,48.52-18.53,105.23-18.53,170.76,0,46.63,3.63,69.31,11.62,69.31,2.91,0,14.53-36.55,34.87-109.64,1.45-5.04,2.54-8.19,3.27-8.19,1.45,0,2.54,1.26,2.54,3.78,0,1.89-.73,5.04-1.45,9.45ZM8735.76,1094.08c-2.91,0-6.9-2.52-11.26-8.82l-9.81-14.49c-13.08-17.64-25.43-32.77-37.05-45.37-.36,33.4-5.45,57.34-15.26,71.2-9.08,13.23-23.25,20.16-42.87,20.16-15.26,0-28.33-5.67-39.23-16.38-13.44-12.6-19.98-31.51-19.98-56.08s5.45-42.22,17.07-56.08c10.17-12.6,22.16-18.9,36.33-18.9s29.06,3.15,43.59,9.45l-2.54-180.84c-21.8,5.04-38.87,7.56-51.22,7.56-15.26,0-27.61-7.56-36.33-23.31-6.54-10.71-9.45-19.53-9.45-27.09,0-3.78,1.09-6.3,3.27-6.3l9.08,14.49c6.54,8.82,13.8,12.6,21.8,12.6,25.07,0,45.77-1.89,62.48-6.3l-.73-71.2c-.36-13.86-1.45-24.57-3.63-31.51-2.91-8.19-7.99-14.49-15.26-18.9-4.36-2.52-6.54-5.04-6.54-7.56,0-3.78,3.27-6.3,10.17-6.3,5.81,0,13.8,3.78,23.98,11.34,11.26,8.82,17.07,17.01,17.07,25.2,0,2.52-1.09,8.19-3.27,15.75-2.18,8.19-3.27,15.12-3.27,20.79l-.73,56.71c6.54-2.52,14.17-5.67,22.16-9.45,2.18-1.26,6.54-5.04,12.71-11.34,5.09-5.67,8.72-8.82,10.9-8.82,3.63,0,7.63,2.52,12.71,6.3,5.09,4.41,7.63,9.45,7.63,14.49,0,13.86-22.16,26.46-66.11,38.44,0,61.12,1.45,126.65,4.72,197.23,24.7,16.38,44.32,36.55,58.85,59.86,5.45,8.82,8.35,18.27,8.35,28.35s-2.91,15.12-8.35,15.12ZM8657.66,1007.13c-14.17-10.08-29.42-15.12-45.77-15.12-11.62,0-21.43,3.78-28.7,10.71-9.81,8.82-14.53,22.68-14.53,40.96,0,16.38,5.45,28.35,16.71,36.55,7.99,6.3,17.44,9.45,28.33,9.45,29.06,0,43.96-20.16,43.96-61.12v-21.42Z"/>
    <path d="M1160.72,1802.95v296.15h-58.49v-396.34h100.99v100.19h-42.5ZM1185.78,1731.74h-66.11v337.11h23.61v-295.52h42.5v-41.59Z"/>
    <path d="M1351.43,2206.85c-13.08,0-24.7-6.3-34.87-18.9-4.72-5.67-12.35-18.27-22.52-38.44l-11.62,52.3h-10.17l-4.36-155.64,10.53-.63c7.63,42.85,18.89,78.76,34.15,106.49,13.8,25.83,26.52,38.44,38.87,38.44,13.08,0,23.25-8.19,31.24-25.2,7.63-16.38,11.62-38.44,11.62-66.16,0-33.4-16.71-66.16-49.77-98.93-24.7-23.94-41.05-42.85-49.77-57.34-13.8-22.68-20.34-49.15-20.34-80.65,0-34.03,4.72-60.49,14.53-78.76,9.45-17.64,22.16-27.09,38.14-27.09,22.52,0,39.6,15.75,51.95,46.63l6.18-42.85h10.17l6.18,141.78h-10.9c-9.45-42.22-18.53-73.09-26.52-92-10.9-24.57-22.89-37.18-35.96-37.18-11.26,0-19.98,7.56-26.16,22.05-6.54,15.12-9.81,35.29-9.81,61.75,0,18.9,5.45,36.55,16.35,52.93,6.54,10.08,18.89,23.31,37.05,40.96,22.89,22.68,39.23,42.22,48.68,59.23,13.44,24.57,20.34,52.3,20.34,83.17,0,76.24-21.07,114.05-63.21,114.05Z"/>
    <path d="M1483.65,2048.69c0,36.55,4,67.42,12.35,92.63,9.44,28.98,22.89,42.85,39.6,42.85s33.42-22.68,47.95-68.68l6.18,6.3c-7.99,30.25-15.98,51.04-23.98,63.64-9.44,14.49-21.43,21.42-35.96,21.42-22.52,0-40.32-14.49-54.13-44.74-13.44-28.35-19.98-64.27-19.98-108.38s6.18-81.28,18.89-111.53c13.44-32.77,31.6-49.15,54.13-49.15,20.71,0,36.69,16.38,47.59,49.15,9.08,28.35,13.8,63.64,13.8,106.49h-106.44ZM1554.49,1940.31c-6.18-20.16-15.26-30.88-27.24-30.88-14.17,0-25.07,13.86-33.06,41.59-7.27,23.94-10.53,51.04-10.53,81.28h62.48c10.53,0,15.98-8.19,15.98-25.2,0-27.09-2.54-49.15-7.63-66.79Z"/>
    <path d="M1718.68,2206.85c-13.8,0-23.98-6.93-31.24-21.42-7.27-13.86-10.9-32.77-10.9-56.71v-209.83h-29.79v-16.38c13.44,0,23.98-12.6,31.97-37.81,6.9-22.05,10.53-49.78,10.53-83.17h10.9v120.98h49.77v16.38h-49.77v189.66c0,46,8.72,68.68,26.16,68.68,9.81,0,17.44-9.45,22.89-28.36,4-15.12,6.18-32.77,6.18-52.93h6.9c0,74.35-14.53,110.9-43.59,110.9Z"/>
    <path d="M1900.31,2206.85c-13.8,0-23.98-6.93-31.24-21.42-7.27-13.86-10.9-32.77-10.9-56.71v-209.83h-29.79v-16.38c13.44,0,23.98-12.6,31.97-37.81,6.9-22.05,10.53-49.78,10.53-83.17h10.9v120.98h49.77v16.38h-49.77v189.66c0,46,8.72,68.68,26.16,68.68,9.81,0,17.44-9.45,22.89-28.36,4-15.12,6.18-32.77,6.18-52.93h6.9c0,74.35-14.53,110.9-43.59,110.9Z"/>
    <path d="M2028.54,2048.69c0,36.55,4,67.42,12.35,92.63,9.44,28.98,22.89,42.85,39.6,42.85s33.42-22.68,47.95-68.68l6.18,6.3c-7.99,30.25-15.98,51.04-23.98,63.64-9.44,14.49-21.43,21.42-35.96,21.42-22.52,0-40.32-14.49-54.13-44.74-13.44-28.35-19.98-64.27-19.98-108.38s6.18-81.28,18.89-111.53c13.44-32.77,31.6-49.15,54.13-49.15,20.71,0,36.69,16.38,47.59,49.15,9.08,28.35,13.8,63.64,13.8,106.49h-106.44ZM2099.38,1940.31c-6.18-20.16-15.26-30.88-27.24-30.88-14.17,0-25.07,13.86-33.06,41.59-7.27,23.94-10.53,51.04-10.53,81.28h62.48c10.53,0,15.98-8.19,15.98-25.2,0-27.09-2.54-49.15-7.63-66.79Z"/>
    <path d="M2431.03,2206.85c-49.77,0-74.47-74.98-74.47-224.95s24.7-225.58,74.47-225.58,74.47,75.61,74.47,225.58-25.07,224.95-74.47,224.95ZM2431.03,1772.7c-31.6,0-47.22,69.94-47.22,209.2s15.62,208.57,47.22,208.57c18.53,0,31.6-22.05,39.23-67.42,5.09-32.14,7.99-79.39,7.99-141.15,0-139.25-15.98-209.2-47.22-209.2Z"/>
    <path d="M2626.83,2206.85c-13.8,0-23.98-6.93-31.24-21.42-7.27-13.86-10.9-32.77-10.9-56.71v-209.83h-29.79v-16.38c13.44,0,23.98-12.6,31.97-37.81,6.9-22.05,10.53-49.78,10.53-83.17h10.9v120.98h49.77v16.38h-49.77v189.66c0,46,8.72,68.68,26.16,68.68,9.81,0,17.44-9.45,22.89-28.36,4-15.12,6.18-32.77,6.18-52.93h6.9c0,74.35-14.53,110.9-43.59,110.9Z"/>
    <path d="M2808.46,2206.85c-13.8,0-23.98-6.93-31.24-21.42-7.27-13.86-10.9-32.77-10.9-56.71v-209.83h-29.79v-16.38c13.44,0,23.98-12.6,31.97-37.81,6.9-22.05,10.53-49.78,10.53-83.17h10.9v120.98h49.77v16.38h-49.77v189.66c0,46,8.72,68.68,26.16,68.68,9.81,0,17.44-9.45,22.89-28.36,4-15.12,6.18-32.77,6.18-52.93h6.9c0,74.35-14.53,110.9-43.59,110.9Z"/>
    <path d="M3023.51,2156.44c-12.35,34.03-27.97,50.41-47.22,50.41s-35.24-16.38-47.59-49.78c-11.62-30.25-17.07-66.16-17.07-107.12s5.45-76.24,17.07-107.12c12.35-33.4,27.97-50.41,47.59-50.41s34.87,17.01,47.22,49.78c10.9,30.88,16.71,66.79,16.71,107.12s-5.81,76.87-16.71,107.12ZM3004.98,1957.32c-6.54-32.14-15.98-48.52-28.7-48.52s-22.52,16.38-29.06,49.15c-5.09,25.83-7.63,56.71-7.63,92s2.54,66.79,7.63,92c6.54,32.77,15.98,48.52,29.06,48.52s22.16-16.38,28.7-49.15c4.72-25.21,7.27-55.45,7.27-92s-2.54-66.79-7.27-92Z"/>
    <path d="M3398.76,1973.71c-13.8,22.05-31.6,32.77-53.04,32.77h-37.05v130.43c0,17.64,1.45,28.99,4.36,34.66,2.91,6.3,9.08,9.45,18.53,9.45h3.27v16.38h-76.29v-16.38h4.72c9.08,0,15.26-3.78,18.16-11.34,2.18-5.67,3.27-16.38,3.27-32.77v-307.5c0-16.38-1.82-28.35-4.72-35.92-3.27-7.56-8.72-11.34-16.71-11.34h-4.72v-16.38h89.73c47.59,0,71.56,40.96,71.56,121.61,0,36.55-7.27,64.9-21.07,86.33ZM3347.17,1782.15h-11.62c-18.16,0-26.88,15.75-26.88,47.26v160.68h28.33c35.6,0,53.4-34.66,53.4-103.97s-14.53-103.97-43.23-103.97Z"/>
    <path d="M3589.83,2189.83c-5.81,7.56-11.26,11.34-16.71,11.34-16.35,0-26.16-18.9-29.42-56.71-5.81,17.64-13.44,32.77-22.52,44.74-9.44,11.97-18.16,17.64-26.16,17.64-34.87,0-51.95-24.57-51.95-73.72,0-31.51,11.99-59.23,36.69-81.92,17.07-15.75,38.14-27.72,62.84-36.55v-46c0-20.16-2.54-35.29-6.9-45.37-4.72-8.82-12.71-13.86-23.98-13.86-7.27,0-14.17,2.52-20.71,6.93-8.72,6.3-12.71,14.49-12.71,24.57,0,4.41,1.09,10.08,4,16.38,2.54,6.93,4,13.23,4,18.27,0,18.9-5.81,28.36-16.71,28.36-5.09,0-9.08-3.15-11.99-10.71-2.91-6.93-4.36-15.12-4.36-24.58,0-25.2,6.9-44.74,21.43-59.23,11.26-10.71,24.34-16.38,38.87-16.38,34.87,0,52.67,28.99,52.67,85.7v158.79c0,24.57,5.81,36.55,17.44,36.55,2.54,0,5.09-1.26,7.63-5.04s4-5.67,4.72-5.67c1.45,0,2.54,1.89,2.54,5.67,0,6.3-2.91,13.23-8.72,20.79ZM3542.61,2030.42c-23.98,12.6-40.32,23.31-49.04,32.77-15.26,17.01-22.89,40.33-22.89,69.31,0,17.64,2.54,31.51,7.99,41.59,5.09,11.34,11.26,16.38,18.16,16.38,8.36,0,17.07-7.56,26.16-23.31,7.99-12.6,14.53-28.99,19.62-48.52v-88.22Z"/>
    <path d="M3711.16,2206.85c-9.81,0-18.16-3.15-25.06-10.08-5.09-4.41-11.26-13.23-18.53-25.83l-16.35,31.5h-6.9v-115.31h7.27c7.27,35.92,15.62,61.75,24.7,77.5,9.81,17.64,21.8,25.83,36.33,25.83,9.81,0,17.8-4.41,23.98-13.86,6.18-9.45,9.44-22.05,9.44-38.44,0-33.4-15.26-57.97-45.04-73.09-35.96-17.64-53.76-47.89-53.76-90.74,0-24.58,3.63-44.11,11.26-59.23,7.27-14.49,17.8-22.05,31.24-22.05,15.98,0,29.06,9.45,39.23,27.73l13.08-24.58h6.18v99.56h-6.9c-7.63-31.5-14.53-52.93-20.71-64.9-7.99-13.86-18.16-21.42-30.51-21.42-19.62,0-29.06,16.38-29.06,47.89,0,28.36,15.62,50.41,47.59,65.53,34.51,17.64,51.95,48.52,51.95,93.26,0,60.49-16.71,90.74-49.4,90.74Z"/>
    <path d="M3898.24,2206.85c-13.8,0-23.98-6.93-31.24-21.42-7.27-13.86-10.9-32.77-10.9-56.71v-209.83h-29.79v-16.38c13.44,0,23.98-12.6,31.97-37.81,6.9-22.05,10.54-49.78,10.54-83.17h10.9v120.98h49.77v16.38h-49.77v189.66c0,46,8.72,68.68,26.15,68.68,9.81,0,17.44-9.45,22.89-28.36,4-15.12,6.18-32.77,6.18-52.93h6.9c0,74.35-14.53,110.9-43.59,110.9Z"/>
    <path d="M4134.72,2189.83c-5.81,7.56-11.26,11.34-16.71,11.34-16.35,0-26.16-18.9-29.42-56.71-5.81,17.64-13.44,32.77-22.52,44.74-9.44,11.97-18.16,17.64-26.16,17.64-34.87,0-51.95-24.57-51.95-73.72,0-31.51,11.99-59.23,36.69-81.92,17.07-15.75,38.14-27.72,62.84-36.55v-46c0-20.16-2.54-35.29-6.9-45.37-4.72-8.82-12.71-13.86-23.98-13.86-7.27,0-14.17,2.52-20.71,6.93-8.72,6.3-12.71,14.49-12.71,24.57,0,4.41,1.09,10.08,4,16.38,2.54,6.93,4,13.23,4,18.27,0,18.9-5.81,28.36-16.71,28.36-5.09,0-9.08-3.15-11.99-10.71-2.91-6.93-4.36-15.12-4.36-24.58,0-25.2,6.9-44.74,21.43-59.23,11.26-10.71,24.34-16.38,38.87-16.38,34.87,0,52.67,28.99,52.67,85.7v158.79c0,24.57,5.81,36.55,17.44,36.55,2.54,0,5.09-1.26,7.63-5.04s4-5.67,4.72-5.67c1.45,0,2.54,1.89,2.54,5.67,0,6.3-2.91,13.23-8.72,20.79ZM4087.5,2030.42c-23.98,12.6-40.32,23.31-49.04,32.77-15.26,17.01-22.89,40.33-22.89,69.31,0,17.64,2.54,31.51,7.99,41.59,5.09,11.34,11.26,16.38,18.16,16.38,8.36,0,17.07-7.56,26.16-23.31,7.99-12.6,14.53-28.99,19.62-48.52v-88.22Z"/>
    <path d="M4441.31,2151.4c-16.71-54.82-25.07-111.53-25.07-170.13s8.36-114.68,25.07-170.13c17.44-56.71,39.96-98.3,67.57-126.02v13.23c-22.52,30.25-39.6,72.46-51.22,125.39-11.26,49.15-16.71,101.45-16.71,157.53s5.45,109.01,16.71,157.53c11.62,53.56,28.7,95.15,51.22,125.39v13.23c-27.61-27.72-50.13-69.31-67.57-126.02Z"/>
    <path d="M4838.72,1896.83l-9.45,10.71c-7.99,13.23-19.25,32.77-34.51,59.23-13.08,22.68-25.43,40.96-36.33,55.45-5.09,6.3-7.63,9.45-8.35,9.45-1.09,0-1.45-.63-1.45-3.15.73-1.89,2.91-6.93,7.27-15.75,9.44-18.27,18.89-39.07,28.7-62.38,14.53-34.03,21.8-57.34,21.8-69.94,0-7.56-2.91-11.34-8.35-11.34-7.99,0-46.13,17.01-114.79,51.04-2.18,59.86-2.91,115.31-2.91,166.98,0,36.55,3.63,60.49,10.9,73.09,7.27,12.6,21.8,18.9,43.59,18.9,18.16,0,34.15-1.26,47.95-5.04,9.08-1.89,17.44-5.04,25.43-9.45,6.54-3.15,9.81-5.04,10.53-5.04,3.63,0,7.99,3.15,13.8,8.19,5.45,6.3,8.35,11.97,8.35,17.64,0,17.01-26.15,25.2-78.47,25.2h-38.14c-22.52-1.89-38.87-9.45-48.31-23.94-10.9-16.38-16.35-44.11-16.35-83.8,0-2.52,1.45-60.49,4.72-173.28-23.98,13.23-43.59,27.09-59.21,42.22-6.54,6.3-11.26,9.45-13.44,9.45-5.09,0-11.99-6.93-21.07-21.42-9.45-13.86-14.17-24.57-14.17-32.77,0-2.52.73-4.41,2.18-4.41,2.91,3.15,5.81,6.3,9.08,9.45,5.09,5.04,10.53,7.56,15.62,7.56,5.45,0,32.69-10.71,81.37-33.4,1.09-57.97,1.82-98.93,1.82-122.87,0-19.53-4-32.77-11.26-39.07-2.18-1.26-4-1.89-5.45-3.15-2.91-1.26-4.36-3.15-4.36-4.41,0-5.04,4.36-7.56,13.8-7.56,5.45,0,13.08,3.78,22.52,11.34,10.9,8.19,16.35,16.38,16.35,23.94,0,1.26-1.82,6.93-5.09,18.27-3.63,11.34-5.09,22.05-5.09,31.51,0,3.15-1.45,30.88-3.63,83.17l105.35-47.26,11.62-9.45c5.09-5.04,8.35-7.56,10.17-7.56,3.63,0,10.53,6.93,20.34,20.79,9.44,13.86,14.53,24.57,14.53,30.88,0,2.52-2.54,6.3-7.63,11.97Z"/>
    <path d="M5005.81,2015.29c-2.54,7.56-5.81,10.71-9.44,10.71-5.09,0-9.81-10.08-13.44-31.51-2.91-16.38-8.35-34.03-16.35-53.56-6.54-15.75-9.81-24.57-9.81-25.83,0-2.52.73-4.41,2.54-4.41,4.36,0,12.71,8.82,25.79,25.2,15.62,20.79,23.61,40.33,23.61,59.23,0,7.56-1.09,14.49-2.91,20.16ZM5167.47,1933.38c-4.36,10.08-6.54,16.38-6.9,18.9-17.07,71.2-33.78,125.39-49.77,161.94-24.7,56.08-54.85,95.78-90.45,120.98-2.54,1.26-4.72,2.52-6.54,2.52-2.18,0-3.27-1.89-3.27-4.41,0-1.89,1.45-4.41,4.72-6.93,52.31-50.41,90.82-135.47,115.52-255.2,6.9-34.03,10.53-56.08,10.53-66.79,0-8.82-2.54-16.38-6.9-23.94-4.36-7.56-6.54-11.34-6.54-11.97,0-3.15,1.45-5.04,4.36-5.04,5.81,0,13.8,6.93,24.7,19.53,10.17,13.23,15.62,24.57,15.62,33.4,0,1.89-1.82,7.56-5.09,17.01ZM5065.39,1972.45c-5.09,0-9.81-11.34-14.17-34.66-5.45-28.36-11.62-49.15-18.89-61.75-2.54-3.78-3.63-6.93-3.63-8.82,0-2.52.73-4.41,2.91-4.41,4,0,11.99,7.56,24.34,22.68,14.53,18.27,21.8,36.55,21.8,55.45,0,21.42-4.36,31.51-12.35,31.51Z"/>
    <path d="M5568.51,1944.09l-17.8-5.04c-12.35-3.15-23.98-5.04-35.24-5.04-27.25,0-54.49,1.26-81.73,3.15,15.98,10.08,24.34,20.16,24.34,30.25,0,2.52-1.45,6.3-4,11.34-2.91,5.67-4.72,10.08-5.09,12.6-9.45,63.64-23.25,115.31-41.78,154.38-20.34,42.85-47.22,73.72-81.37,94.52-7.27,3.78-11.62,6.3-13.08,6.3-2.54,0-3.63-1.26-3.63-3.78s1.09-5.04,3.63-6.3c30.15-23.94,55.94-59.23,77.38-107.12,22.52-51.67,33.78-104.6,33.78-159.42,0-9.45-3.27-19.53-9.81-30.88-37.05,6.3-63.21,14.49-78.1,24.58-10.9,7.56-17.07,11.34-18.53,11.34-5.09,0-12.71-7.56-22.16-23.94-9.81-15.12-14.53-27.09-14.53-35.92,0-3.15.73-5.04,2.91-5.04,14.53,14.49,25.43,21.42,33.42,21.42l106.44-17.64,90.09-12.6c3.63,0,9.08-2.52,16.35-6.3,6.9-3.78,11.26-5.67,12.71-5.67,4.36,0,10.9,5.04,19.62,15.12,8.35,10.71,12.71,19.53,12.71,27.09,0,8.82-2.18,12.6-6.54,12.6ZM5501.3,1792.86c-18.16,5.04-41.78,10.08-70.47,15.12-28.7,5.04-47.59,7.56-57.03,7.56-13.08,0-23.98-6.93-33.06-22.05-7.27-10.71-10.53-18.9-10.53-24.57,0-2.52,1.09-3.78,3.27-3.78,14.89,13.23,27.61,19.53,37.78,19.53,30.51,0,65.75-6.93,104.98-21.42,1.45,0,4-2.52,7.99-6.3,3.63-3.15,6.9-5.04,9.08-5.04,3.63,0,7.99,2.52,13.8,7.56,5.81,5.67,8.72,11.34,8.72,16.38,0,8.82-5.09,14.49-14.53,17.01Z"/>
    <path d="M6115.94,1864.7c-19.25-3.78-39.23-6.3-59.94-6.3-7.99,0-21.07,1.26-39.6,2.52,0,86.33.73,160.05,2.91,221.17l1.82,52.3.73,17.01c0,20.79-3.27,40.33-9.44,58.6-5.81,15.75-10.9,23.94-15.26,23.94-2.18,0-5.09-5.67-8.72-16.38-5.09-12.6-7.99-20.16-8.72-21.42-2.91-4.41-9.08-12.6-18.89-23.94l-4.72-5.67c-10.17-11.34-15.26-18.27-15.26-20.16,0-2.52.73-4.41,2.54-4.41,1.45,1.26,7.27,5.04,17.07,10.71,11.99,7.56,21.07,10.71,26.88,10.71,7.27,0,11.26-8.19,11.26-25.83l-.73-100.82-.73-122.87c-46.5,99.56-98.81,175.8-156.57,229.36-7.99,7.56-12.71,10.71-14.53,10.71-2.18,0-2.91-1.26-2.91-3.78,0-1.89,1.45-4.41,4.36-7.56,21.07-21.42,47.59-59.86,79.92-114.05,37.42-63.01,63.93-117.2,79.92-163.2-35.6,7.56-66.11,17.64-90.82,29.62-13.8,6.93-21.8,10.08-23.98,10.08-5.09,0-12.35-6.93-21.8-20.79-9.44-13.23-13.8-23.94-13.8-32.77,0-3.78.73-5.67,2.91-5.67,13.08,11.34,22.89,17.01,29.79,17.01,7.99,0,49.77-6.93,126.05-20.79-.73-14.49-1.09-27.72-1.82-39.07-1.45-27.73-3.27-44.74-5.09-51.67-3.63-11.97-9.81-18.27-18.53-18.27-2.18,0-2.91-1.26-2.91-4.41,0-4.41,4.36-6.93,13.08-6.93,7.99,0,17.44,3.78,28.33,11.34,10.53,7.56,15.98,15.12,15.98,22.68l-4.36,20.16c-2.91,13.23-4.36,25.83-4.36,37.81v24.57l34.15-5.67c13.08-2.52,23.98-6.3,33.42-10.71l10.53-5.04c3.63,0,9.08,5.67,16.71,15.75,7.63,10.71,11.62,18.27,11.62,22.05,0,6.93-2.18,10.08-6.54,10.08Z"/>
    <path d="M6277.22,2015.29c-2.54,7.56-5.81,10.71-9.44,10.71-5.09,0-9.81-10.08-13.44-31.51-2.91-16.38-8.35-34.03-16.35-53.56-6.54-15.75-9.81-24.57-9.81-25.83,0-2.52.73-4.41,2.54-4.41,4.36,0,12.71,8.82,25.79,25.2,15.62,20.79,23.61,40.33,23.61,59.23,0,7.56-1.09,14.49-2.91,20.16ZM6438.87,1933.38c-4.36,10.08-6.54,16.38-6.9,18.9-17.07,71.2-33.78,125.39-49.77,161.94-24.7,56.08-54.85,95.78-90.45,120.98-2.54,1.26-4.72,2.52-6.54,2.52-2.18,0-3.27-1.89-3.27-4.41,0-1.89,1.45-4.41,4.72-6.93,52.31-50.41,90.82-135.47,115.52-255.2,6.9-34.03,10.53-56.08,10.53-66.79,0-8.82-2.54-16.38-6.9-23.94-4.36-7.56-6.54-11.34-6.54-11.97,0-3.15,1.45-5.04,4.36-5.04,5.81,0,13.8,6.93,24.7,19.53,10.17,13.23,15.62,24.57,15.62,33.4,0,1.89-1.82,7.56-5.09,17.01ZM6336.8,1972.45c-5.09,0-9.81-11.34-14.17-34.66-5.45-28.36-11.62-49.15-18.89-61.75-2.54-3.78-3.63-6.93-3.63-8.82,0-2.52.73-4.41,2.91-4.41,4,0,11.99,7.56,24.34,22.68,14.53,18.27,21.8,36.55,21.8,55.45,0,21.42-4.36,31.51-12.35,31.51Z"/>
    <path d="M6769.8,2044.91c-5.09,0-10.17-5.04-15.62-16.38-27.61-53.56-57.4-89.48-88.64-107.12,0,12.6,0,37.81.36,74.98,0,37.81.36,64.27.36,78.76,0,23.94.36,59.23,1.82,105.23,0,35.29-4.72,52.93-13.44,52.93-4.36,0-7.99-8.19-11.62-24.57-2.91-13.86-4.36-25.83-4.36-34.66l2.18-25.21c2.18-28.98,3.63-115.94,3.63-260.87,0-7.56-.73-37.18-1.82-88.85-.73-17.01-1.45-28.99-2.54-35.29-1.82-7.56-5.09-13.86-10.17-18.27-7.99-6.3-11.62-10.08-11.62-12.6,0-4.41,2.91-6.93,9.08-6.93,8.72,0,18.89,3.78,30.51,11.34,10.9,7.56,16.71,15.75,16.71,23.31,0,2.52-1.09,6.93-3.27,11.97-2.18,5.67-3.27,10.08-3.27,13.23,0,1.89-.73,20.79-1.45,56.71-.73,35.92-1.09,58.6-1.09,68.05,26.52,6.3,49.77,18.27,69.75,35.92,29.79,27.09,45.04,52.3,45.04,74.98,0,15.75-3.63,23.31-10.53,23.31Z"/>
    <path d="M7101.45,2168.41c22.52-61.75,37.78-104.6,45.04-127.91,12.71-41.59,23.61-88.85,33.06-140.51,4.72-27.09,7.27-46.63,7.27-59.23,0-8.82-2.54-17.01-7.27-23.31-4.72-5.67-6.9-9.45-6.9-11.34,0-2.52,1.82-4.41,6.18-4.41,6.54,0,14.89,6.3,25.43,17.64,10.53,11.97,15.98,23.31,15.98,33.4,0,3.15-1.45,7.56-4,12.6-3.27,6.93-5.08,11.34-5.45,13.23l-8.72,37.81c-13.44,55.45-26.16,100.19-38.51,134.21-15.26,42.85-33.78,81.28-55.58,115.94-2.54,3.78-4,5.67-4.72,5.67-1.45,0-1.82-1.26-1.82-3.78ZM7372.09,2153.92c-6.54,0-11.26-13.23-14.17-39.7-11.62-108.38-37.42-207.94-77.01-299.93-2.91-6.3-4.36-10.08-4.36-11.34,0-1.89.36-3.15,1.45-3.15s4,3.78,9.08,10.71c21.8,32.14,43.59,76.87,65.03,134.84,23.25,64.27,34.87,115.31,34.87,153.75s-5.09,54.82-14.89,54.82ZM7390.98,1836.34c-6.54,11.34-14.53,17.01-23.25,17.01-9.45,0-17.07-5.04-23.25-16.38-6.54-10.71-9.45-23.94-9.45-40.33s2.91-29.62,9.45-40.96c6.18-10.71,13.8-16.38,23.25-16.38s16.71,5.67,23.25,16.38c6.18,11.34,9.44,25.2,9.44,40.96s-3.27,28.99-9.44,39.7ZM7384.08,1768.29c-4.36-7.56-9.81-11.97-16.35-11.97s-12.35,4.41-16.71,11.97c-4.36,7.56-6.54,17.01-6.54,28.35s2.18,20.79,6.9,28.36c4.36,7.56,9.81,11.34,16.35,11.34,6.18,0,11.62-3.78,15.98-11.34s6.9-17.01,6.9-28.36-2.18-20.79-6.54-28.35Z"/>
    <path d="M7734.26,2217.56c-5.09,0-9.81-8.19-13.8-23.94-7.26-26.46-17.8-56.71-31.97-90.74-17.07-39.7-34.87-73.72-53.76-102.71-43.23,102.08-95.18,175.17-156.2,219.28-1.82,1.26-3.63,1.89-5.09,1.89s-2.18-.63-2.18-1.89c0-2.52,1.09-4.41,3.63-6.93,41.41-42.85,78.47-97.04,111.52-161.94,32.69-64.9,58.12-135.47,77.01-212.35,2.18-8.82,3.27-16.38,3.27-23.31,0-8.82-3.27-13.86-9.45-13.86-12.35,0-31.6,4.41-57.03,11.97-20.34,6.3-36.69,13.23-49.04,20.16l-10.54,9.45c-4.72,4.41-8.36,6.3-10.9,6.3-5.09,0-11.62-7.56-20.34-23.94-8.72-15.75-12.71-28.36-12.71-37.18,0-2.52.73-3.78,2.18-3.78l9.08,11.97c6.9,7.56,14.53,10.71,22.52,10.71,7.26,0,29.06-3.78,65.75-11.34l59.58-13.23c2.18,0,5.81-2.52,10.54-7.56,4.36-3.78,6.9-6.3,8.35-6.3,2.91,0,8.36,6.93,17.07,20.16,7.99,13.86,12.35,22.68,12.35,27.09,0,3.78-2.54,8.82-6.9,16.38-5.81,8.82-9.08,15.12-9.81,18.9-13.8,51.04-30.51,98.93-50.13,144.29,24.7,26.46,46.5,53.56,64.66,81.28,27.61,42.85,41.78,80.02,41.78,111.53,0,19.53-3.27,29.62-9.44,29.62Z"/>
    <path d="M8085.16,1833.19c-4.36,9.45-6.9,15.75-7.63,18.9-13.08,53.56-29.06,105.23-47.95,154.38,10.17,13.86,18.89,28.36,26.52,43.48,10.17,21.42,15.62,40.33,15.62,55.45s-3.27,22.05-9.08,22.05c-4,0-9.44-8.19-15.98-25.83-10.54-25.83-20.34-47.26-29.42-64.9-38.14,87.58-83.91,151.86-137.68,192.81-13.08,10.08-22.52,15.12-27.61,15.12-1.45,0-1.82-.63-1.82-1.26,0-1.89,2.18-4.41,6.54-7.56,55.94-44.11,104.98-118.46,146.4-221.8-22.52-35.29-42.5-59.23-60.3-73.09-3.63-2.52-5.45-4.41-5.45-6.3,0-1.26.73-2.52,2.18-2.52,2.91,0,11.62,5.04,25.43,14.49,15.98,11.34,32.33,25.21,48.31,41.59,13.8-38.44,24.7-76.24,33.42-113.42,5.09-23.31,7.99-37.18,7.99-40.96,0-11.97-4-18.27-11.26-18.27-2.18,0-11.62,3.15-28.7,9.45-17.44,6.3-30.15,8.82-38.14,8.82-3.63,0-7.99-3.15-12.71-10.71-23.97,65.53-57.4,128.54-100.26,189.66-4.36,6.3-7.63,8.82-10.54,8.82-1.82,0-2.54-1.26-2.54-3.78s1.45-5.67,4.36-9.45c15.26-19.53,35.6-59.86,60.67-120.35,24.7-60.49,37.42-102.08,37.42-124.76,0-7.56-1.45-13.23-3.63-17.64-1.09-1.26-4-5.04-9.08-10.08-1.45-1.26-1.82-1.89-1.82-3.15,0-3.78,2.18-5.67,6.9-5.67,6.9,0,14.89,5.04,24.34,13.86,10.17,10.08,15.26,20.79,15.26,31.51,0,1.26-1.45,5.04-4.36,10.71-3.63,6.3-5.81,10.08-5.81,10.71l-5.81,16.38c2.91,3.15,5.45,4.41,8.36,4.41,14.89,0,35.24-6.3,61.39-20.16,4.36-1.89,8.72-5.04,13.44-10.08,3.63-3.78,6.17-5.67,7.63-5.67,2.91,0,9.08,6.3,18.16,17.64,8.72,11.34,13.44,19.53,13.44,23.31,0,1.26-2.18,6.3-6.18,13.86Z"/>
    <path d="M8230.83,2151.4c-17.44,56.71-39.96,98.3-67.57,126.02v-13.23c22.16-30.25,39.23-71.83,51.58-125.39,10.9-48.52,16.35-100.82,16.35-157.53s-5.45-109.01-16.35-158.16c-12.35-52.93-29.42-94.52-51.58-124.76v-13.23c27.61,27.72,50.13,69.31,67.57,126.02,16.71,55.45,25.07,112.16,25.07,170.13s-8.36,115.31-25.07,170.13Z"/>
    <path d="M8381.22,2257.26v-100.19h42.5v-296.15h58.49v396.34h-100.99ZM8464.77,1891.16h-23.61v295.52h-42.5v41.59h66.11v-337.11Z"/>
    <path d="M8874.52,2221.34c-29.42,0-53.4-6.93-71.56-20.79-26.15-18.9-38.87-51.04-38.87-95.78,0-32.14,9.08-62.38,27.97-90.11,10.9-16.38,28.33-34.66,52.31-56.08-8.72-18.9-12.71-68.05-12.71-148.08,0-22.05-1.82-38.44-5.09-49.15-2.18-6.93-5.08-11.97-8.72-15.75-4-2.52-5.81-4.41-5.81-5.67,0-5.67,2.18-8.82,6.9-8.82,6.9,0,14.89,3.15,23.98,8.82,10.9,7.56,16.35,16.38,16.35,26.46,0,1.89-1.09,6.3-3.27,12.6-3.27,10.08-4.72,33.4-4.72,70.57,0,47.89,3.27,79.39,10.54,93.89,18.53-11.97,44.32-28.99,77.38-51.67,7.26-5.04,11.26-11.34,11.26-17.64,0-2.52-.73-5.67-1.82-9.45-1.45-3.78-1.82-5.67-1.82-6.93,0-3.78,1.09-5.67,3.63-5.67,6.54,0,13.08,5.67,19.98,15.75,6.54,11.34,9.81,22.05,9.81,33.4,0,8.82-5.81,15.75-16.71,20.79-54.85,24.57-91.54,43.48-110.07,56.08-50.13,35.29-75.2,75.61-75.2,120.98,0,33.4,11.26,57.34,33.78,71.2,15.62,10.08,34.87,15.12,58.12,15.12,21.07,0,39.6-1.89,55.94-6.93,10.17-2.52,20.71-6.3,31.24-11.97,8.35-4.41,13.44-6.93,15.62-6.93,5.09,0,9.81,2.52,14.17,7.56,4.36,5.04,6.54,11.97,6.54,20.16,0,22.68-39.96,34.03-119.15,34.03Z"/>
    <path d="M9191.28,1860.29l-11.62,48.52c-17.44,73.09-34.51,136.1-51.22,189.66-5.81,18.9-10.9,28.35-15.26,28.35-6.18,0-9.08-10.08-9.08-30.88,0-8.82,2.18-18.9,6.9-30.25,3.63-8.82,7.63-17.64,11.99-26.46,12.71-30.25,29.42-87.59,49.77-172.65-13.8,4.41-23.25,6.3-28.7,6.3-9.08,0-18.53-5.04-28.7-15.75-10.17-10.08-15.26-18.9-15.26-25.83,0-2.52.73-4.41,2.18-4.41,3.27,3.78,6.9,6.93,10.54,9.45,7.26,6.3,14.89,8.82,22.89,8.82,10.9,0,25.79-2.52,43.96-8.82,7.99-35.29,11.99-59.23,11.99-71.2,0-7.56-3.27-13.86-9.08-20.16-6.18-5.67-9.08-9.45-9.08-11.34,0-3.78,2.18-6.3,6.9-6.3,6.54,0,14.17,2.52,22.89,7.56,10.9,6.3,16.35,13.86,16.35,22.68,0,2.52-1.45,6.93-4.36,12.6-3.63,7.56-6.17,13.86-6.9,18.27-2.18,8.82-5.45,22.05-9.81,40.96,7.63-1.89,16.35-6.93,26.16-15.75,8.72-7.56,14.17-11.34,15.98-11.34,2.91,0,6.54,2.52,11.26,6.3,4.36,3.78,6.9,8.19,6.9,12.6,0,10.08-22.52,22.68-67.57,39.07ZM9374.73,1917l-12.71-8.82c-8.36-6.3-16.35-9.45-23.61-9.45-10.53,0-19.62,5.04-27.25,15.12-8.72,11.34-13.08,25.83-13.08,42.85,0,15.12,4.36,64.27,13.44,148.08,13.8,8.19,27.61,18.27,41.41,30.88,19.62,18.9,29.79,35.29,29.79,49.78,0,11.34-4.36,17.01-12.35,17.01-2.18,0-9.81-8.19-22.89-24.57-15.62-18.9-27.25-32.14-34.87-39.07-1.82,61.75-22.52,92-62.12,92-16.35,0-30.15-5.67-41.78-16.38-14.53-13.23-21.8-32.77-21.8-58.6,0-46.63,19.98-70.57,60.3-70.57,14.17,0,28.7,3.15,43.96,8.82-.73-7.56-3.27-30.25-6.9-67.42-3.27-29.62-4.72-48.52-4.72-56.71,0-24.57,5.81-44.11,18.16-58.6,7.26-8.82,19.98-17.01,37.42-25.2,2.54-1.26,4-3.78,4-7.56,0-8.82-7.27-18.27-21.07-28.36-10.17-6.93-19.62-11.97-28.7-15.12-3.27-.63-4.72-2.52-4.72-5.04,0-4.41,4.36-6.93,13.44-6.93,16.71,0,33.78,6.3,51.95,18.27,22.52,15.75,34.15,35.29,34.15,59.23,0,11.34-3.27,16.38-9.44,16.38ZM9292.64,2126.19c-18.89-12.6-37.42-18.9-55.94-18.9-26.88,0-40.32,15.12-40.32,45.37,0,16.38,6.18,28.35,19.25,37.18,9.45,6.93,19.98,10.08,30.88,10.08,14.89,0,25.79-3.78,33.06-11.97,8.72-10.08,13.08-27.72,13.08-52.93v-8.82Z"/>
    <path d="M9670.06,2131.23c-13.8,38.44-37.78,69.94-71.56,95.15-22.16,16.38-38.14,24.57-47.95,24.57-3.27,0-4.72-1.89-4.72-5.67,0-3.15,2.18-5.67,6.54-7.56,14.17-6.93,28.7-17.64,43.96-32.77,26.15-25.83,44.68-59.86,55.94-102.08,9.45-36.55,14.53-84.43,14.53-142.41,0-107.75-11.26-161.94-33.78-161.94-18.16,0-34.15,35.29-48.68,105.86-12.35,59.23-18.53,109.01-18.53,149.34,0,3.15,0,7.56.36,13.86v13.86c0,6.93-1.09,13.23-3.27,18.9-2.18,6.3-5.09,8.82-8.72,8.82-11.26,0-20.34-17.64-26.88-53.56-5.09-26.46-7.63-51.67-7.63-75.61,0-38.44,3.27-81.92,10.17-130.43l10.17-73.09c0-11.34-4.36-22.68-12.35-32.77-2.18-2.52-4.36-5.04-6.54-8.82,0-3.78,1.45-5.67,4.72-5.67,6.54,0,14.17,6.3,23.61,18.9,9.44,13.23,14.17,25.2,14.17,35.92,0,5.67-1.82,14.49-5.09,25.83-2.91,8.82-5.45,17.01-7.63,25.83-9.45,37.81-14.17,80.02-14.17,126.02,0,14.49.73,28.99,2.54,42.85,2.54,21.42,6.18,31.5,10.9,31.5,1.82,0,3.63-7.56,5.81-22.68,7.99-63.01,15.98-110.9,23.98-143.04,15.26-62.38,33.78-93.89,55.94-93.89s36.33,25.2,45.77,74.98c6.18,34.03,9.44,73.72,9.44,120.35,0,68.05-7.26,120.98-21.07,159.42Z"/>
    <path d="M10086.72,2211.26c-3.63,0-10.9-6.3-22.16-19.53-19.98-22.68-42.5-41.59-67.93-57.97v7.56c0,35.29-6.54,60.49-19.25,74.35-10.17,10.71-26.16,16.38-47.22,16.38-17.07,0-31.6-5.67-43.23-15.75-15.26-13.23-22.89-33.4-22.89-60.49,0-46.63,23.25-70.57,70.47-70.57,10.9,0,24.7,3.15,41.05,8.19l-2.18-121.61c-28.33,5.67-53.04,8.19-74.11,8.19s-37.78-9.45-48.68-28.36c-7.26-11.97-10.9-22.68-10.9-32.14,0-1.89.73-3.15,2.18-3.15,14.17,23.94,32.69,35.92,55.94,35.92,21.43,0,46.5-2.52,74.83-8.82l-1.82-88.22c-18.89,5.04-34.15,6.93-45.41,6.93-13.44,0-25.07-6.3-35.24-18.9-7.99-9.45-11.62-17.01-11.62-23.31,0-1.89.73-3.15,2.54-3.15,3.63,3.78,7.27,7.56,11.26,11.34,7.99,7.56,17.44,10.71,27.61,10.71,14.53,0,31.24-2.52,50.49-8.82l-.36-29.62c0-25.21-4.36-43.48-13.08-54.19-.36,0-2.91-1.89-7.27-5.67-3.63-2.52-5.45-4.41-5.45-5.67,0-3.78,2.18-6.3,6.54-6.3,6.9,0,15.98,3.15,26.88,9.45,13.08,7.56,19.62,16.38,19.62,25.2,0,2.52-1.45,8.19-4,17.64-2.54,9.45-3.63,17.64-3.63,23.94v18.27l19.25-8.19c5.09-2.52,11.26-7.56,18.53-13.86,5.08-4.41,8.72-6.93,10.17-6.93,2.91,0,6.18,1.89,10.17,5.67,4,3.78,6.18,8.19,6.18,12.6,0,6.93-4.72,12.6-13.44,17.01-13.8,7.56-30.88,14.49-50.86,20.79l-.36,89.48c24.7-6.3,42.5-13.23,53.4-20.79l13.08-11.34c6.54-5.67,10.54-8.82,11.62-8.82,4.36,0,9.45,1.89,14.53,5.67,5.81,5.04,9.08,10.71,9.08,17.01s-5.81,12.6-16.71,18.27c-21.8,11.34-50.13,21.42-84.28,28.98l5.45,132.32c35.96,16.38,64.3,35.92,85,58.6,11.26,12.6,17.07,24.58,17.07,35.92,0,10.71-3.63,15.75-10.9,15.75ZM9975.93,2122.41c-20.34-9.45-38.51-14.49-54.49-14.49-31.97,0-47.95,15.75-47.95,47.26,0,17.64,6.54,31.5,20.34,40.33,10.17,6.93,21.07,10.08,33.42,10.08,15.98,0,27.61-3.15,34.87-10.71,9.45-9.45,14.17-27.1,14.17-53.56l-.36-18.9Z"/>
    <path d="M10430.73,2082.72c-30.88,97.04-72.65,144.93-124.96,144.93-49.4,0-73.74-47.89-73.74-144.93,0-37.18,1.45-92.63,4.72-166.98,2.91-73.72,4.72-112.16,4.72-115.31,0-18.27-5.45-30.88-16.35-37.81-4-2.52-5.81-4.41-5.81-6.93,0-7.56,4-11.34,11.99-11.34,7.26,0,15.98,5.04,25.43,15.12,10.17,11.34,15.62,22.68,15.62,34.03,0,1.26-1.09,6.93-3.27,16.38-2.18,9.45-3.63,15.75-4,18.27-8.72,73.09-13.08,155.64-13.08,247.63,0,37.81,3.27,65.53,10.17,81.92,7.99,20.16,22.16,30.25,43.23,30.25,26.52,0,51.95-15.12,76.65-46.63,22.52-28.99,40.32-64.9,53.4-109.01,2.54-8.82,4.72-13.23,6.54-13.23,1.45,0,2.54,2.52,2.54,7.56,0,8.82-4.72,27.09-13.8,56.08Z"/>
    <path d="M10708.62,1851.46c-15.62,9.45-35.96,18.27-61.39,27.09-7.63,47.89-16.71,100.19-26.88,155.64-10.17,51.67-19.98,103.34-29.42,155.01-4.36,22.68-9.45,34.03-15.26,34.03-4,0-7.26-5.67-9.44-17.01-2.18-8.82-2.91-17.64-2.91-25.83,0-6.3,2.18-17.01,7.27-31.51l10.53-30.88c16.71-65.53,31.97-143.04,46.13-232.51-13.44,3.78-23.61,5.67-30.88,5.67-10.9,0-20.34-5.67-28.7-18.27-7.27-10.08-10.9-18.9-10.9-26.46,0-2.52.73-3.78,2.54-3.78,12.35,13.23,23.61,19.53,33.78,19.53,8.72,0,21.43-2.52,38.87-8.19,6.18-44.11,9.45-74.35,9.45-91.37,0-10.71-4.36-19.53-12.71-26.46-1.45-1.26-2.91-2.52-4.36-5.04,0-4.41,1.82-6.93,6.18-6.93,6.54,0,14.89,3.78,24.34,11.34,10.9,8.82,16.71,17.64,16.71,27.1,0,3.15-1.45,7.56-3.63,13.86-2.91,7.56-4.72,13.23-5.45,16.38-3.27,13.86-6.54,32.14-10.17,54.19,12.35-5.04,22.89-10.08,31.24-16.38,1.82-1.26,5.45-5.04,10.9-10.71,3.63-4.41,6.54-6.93,8.72-6.93,2.91,0,6.54,2.52,11.26,6.93,4.36,5.04,6.9,9.45,6.9,13.86,0,6.93-4.36,12.6-12.71,17.64ZM10780.91,2224.49c-67.57,0-100.99-28.99-100.99-87.59,0-18.9,3.63-37.81,10.9-56.08,6.18-15.12,10.17-23.31,12.35-23.31,1.09,0,1.82,1.89,1.82,4.41-.73,1.89-2.91,7.56-5.81,17.01-4,12.6-5.81,24.58-5.81,36.55,0,26.46,7.99,46,23.98,57.97,11.62,8.82,26.16,12.6,43.96,12.6,10.54,0,27.61-3.15,50.86-10.08,3.63,0,8.36,2.52,13.8,7.56,5.08,5.04,7.63,10.71,7.63,17.01,0,15.75-17.8,23.94-52.67,23.94ZM10803.43,1934.01c-13.44,4.41-27.61,17.01-42.14,37.18l-7.99,10.71c-1.09,0-1.45-.63-1.45-2.52s1.45-6.3,4.36-12.6c8.35-18.9,12.71-30.25,12.71-34.03,0-8.19-6.9-12.6-20.34-12.6-14.53,0-30.88,6.3-49.4,18.27-1.45,0-2.18-.63-2.18-3.15,0-1.89,1.09-4.41,4-7.56,23.25-26.46,49.77-39.7,79.19-39.7,7.63,0,14.89,2.52,21.8,6.3,9.08,6.3,13.8,14.49,13.8,25.2,0,7.56-4.36,11.97-12.35,14.49Z"/>
    <path d="M10994.5,2186.68c-7.99,13.86-17.8,20.16-28.7,20.16s-20.71-6.3-28.33-20.16c-7.99-13.23-11.62-29.62-11.62-49.15s3.63-35.29,11.62-49.15c7.63-13.86,17.07-20.79,28.33-20.79s20.71,6.93,28.7,20.79c7.63,13.86,11.62,30.25,11.62,49.15s-4,35.92-11.62,49.15ZM10986.51,2102.25c-5.81-10.08-12.71-15.12-20.71-15.12s-14.89,5.04-20.34,15.12c-5.81,10.08-8.36,21.42-8.36,35.29s2.54,25.83,8.36,35.29c5.45,10.08,12.35,14.49,20.34,14.49s14.89-4.41,20.71-14.49c5.45-9.45,8.36-21.42,8.36-35.29s-2.91-25.2-8.36-35.29Z"/>
    <path d="M531.19,2908.78c-11.26,18.9-30.88,50.41-58.85,95.15l3.63-.63c2.91,0,6.54,2.52,10.9,6.3,4,3.78,6.18,8.19,6.18,12.6,0,1.26-.36,3.78-1.09,8.82-.73,5.04-1.09,9.45-1.09,12.6-1.45,20.16-2.18,46-2.18,78.76,0,47.89.73,105.23,2.54,171.39,0,28.36-3.63,42.85-10.17,42.85-4.36,0-8.72-6.93-12.71-19.53-3.63-11.34-5.45-21.42-5.45-30.25l2.18-25.21c1.45-15.12,2.18-28.35,2.18-39.07l.36-32.77c0-20.79.36-35.92.36-45.37,0-7.56,0-22.68.36-46.63v-41.59c0-13.86-2.18-25.83-6.18-37.18-13.08,21.42-30.88,44.11-53.04,68.68-22.52,25.21-43.23,46-62.12,61.12-12.71,10.08-19.98,15.12-22.16,15.12-1.82,0-2.54-.63-2.54-2.52,0-2.52,1.09-4.41,3.27-6.93,66.48-66.16,122.42-146.19,168.19-239.44,13.8-27.72,20.71-47.26,20.71-57.34,0-5.04-1.45-9.45-4.36-13.86l-6.18-7.56c0-2.52,1.45-4.41,4.72-4.41,5.09,0,12.35,6.93,21.8,20.16,8.72,13.86,13.44,23.94,13.44,31.51,0,2.52-4.36,11.34-12.71,25.2Z"/>
    <path d="M910.8,2935.87c-4.36,9.45-6.9,15.75-7.63,18.9-13.08,53.56-29.06,105.23-47.95,154.38,10.17,13.86,18.89,28.36,26.52,43.48,10.17,21.42,15.62,40.33,15.62,55.45s-3.27,22.05-9.08,22.05c-4,0-9.44-8.19-15.98-25.83-10.53-25.83-20.34-47.26-29.42-64.9-38.14,87.58-83.91,151.86-137.68,192.81-13.08,10.08-22.52,15.12-27.61,15.12-1.45,0-1.82-.63-1.82-1.26,0-1.89,2.18-4.41,6.54-7.56,55.94-44.11,104.98-118.46,146.4-221.8-22.52-35.29-42.5-59.23-60.3-73.09-3.63-2.52-5.45-4.41-5.45-6.3,0-1.26.73-2.52,2.18-2.52,2.91,0,11.62,5.04,25.43,14.49,15.98,11.34,32.33,25.21,48.31,41.59,13.8-38.44,24.7-76.24,33.42-113.42,5.09-23.31,7.99-37.18,7.99-40.96,0-11.97-4-18.27-11.26-18.27-2.18,0-11.62,3.15-28.7,9.45-17.44,6.3-30.15,8.82-38.14,8.82-3.63,0-7.99-3.15-12.71-10.71-23.98,65.53-57.4,128.54-100.26,189.66-4.36,6.3-7.63,8.82-10.53,8.82-1.82,0-2.54-1.26-2.54-3.78s1.45-5.67,4.36-9.45c15.26-19.53,35.6-59.86,60.67-120.35,24.7-60.49,37.42-102.08,37.42-124.76,0-7.56-1.45-13.23-3.63-17.64-1.09-1.26-4-5.04-9.08-10.08-1.45-1.26-1.82-1.89-1.82-3.15,0-3.78,2.18-5.67,6.9-5.67,6.9,0,14.89,5.04,24.34,13.86,10.17,10.08,15.26,20.79,15.26,31.5,0,1.26-1.45,5.04-4.36,10.71-3.63,6.3-5.81,10.08-5.81,10.71l-5.81,16.38c2.91,3.15,5.45,4.41,8.36,4.41,14.89,0,35.24-6.3,61.39-20.16,4.36-1.89,8.72-5.04,13.44-10.08,3.63-3.78,6.18-5.67,7.63-5.67,2.91,0,9.08,6.3,18.16,17.64,8.72,11.34,13.44,19.53,13.44,23.31,0,1.26-2.18,6.3-6.18,13.86Z"/>
    <path d="M1113.49,2925.16c-2.18,9.45-2.91,18.27-2.91,25.83v155.01c0,27.73-3.63,41.59-10.9,41.59-4,0-7.99-5.67-11.62-17.64-3.63-10.08-5.45-19.53-5.45-27.09,0-3.15.73-11.34,2.54-25.2,2.18-17.01,3.27-58.6,3.27-124.76,0-37.18-1.82-58.6-5.45-64.9-.36,0-2.18-1.89-5.45-5.67-3.27-3.78-4.72-6.3-4.72-7.56,0-4.41,2.91-6.93,8.72-6.93,6.18,0,13.44,4.41,22.16,13.23,8.36,9.45,12.71,17.64,12.71,23.94,0,3.78-1.09,10.71-2.91,20.16ZM1243.18,2877.27c-2.18,6.93-2.91,13.23-2.91,18.9,0,18.9,0,46.63.73,83.8.73,37.81,1.09,64.27,1.09,80.02,0,85.7-12.35,149.97-36.33,192.81-20.34,35.92-56.31,66.16-107.53,92-.73,0-2.18.63-4,.63-2.54,0-3.63-1.89-3.63-5.04,0-1.89,1.45-3.78,4.72-5.67,81.37-50.41,122.42-137.36,122.42-261.5v-83.17c-.36-44.11-.36-72.46-.36-83.8,0-31.51-5.45-53.56-16.35-65.53-3.63-3.78-5.45-6.3-5.45-8.19,0-5.04,1.82-7.56,6.18-7.56,6.18,0,14.89,4.41,25.79,11.97,12.35,8.82,18.89,17.64,18.89,26.46,0,2.52-1.09,7.56-3.27,13.86Z"/>
    <path d="M1660.2,2920.12c-5.81,3.15-9.08,5.67-10.53,7.56-59.58,78.13-91.18,116.57-95.54,116.57-2.18,0-2.91-.63-2.91-3.15s1.09-6.3,3.63-10.08c9.45-13.86,21.43-35.29,36.33-63.01,18.53-34.03,27.97-55.45,27.97-64.27s-3.63-13.86-10.53-13.86c-15.98,0-40.69,4.41-74.47,13.23-34.87,9.45-62.84,18.9-83.19,28.35-.73.63-5.45,3.78-14.89,8.82-6.54,4.41-11.26,6.3-14.17,6.3-4.36,0-11.99-8.82-23.25-26.46-11.62-17.01-17.07-28.99-17.07-36.55,0-4.41.73-6.93,2.54-6.93,4.36,5.04,9.08,9.45,13.8,13.23,8.72,8.19,16.71,11.97,23.98,11.97,3.27,0,65.39-11.34,186.36-34.66,2.54,0,6.18-2.52,11.26-6.93,5.09-3.78,8.72-6.3,10.9-6.3,2.54,0,8.72,8.19,18.89,24.57,9.81,17.01,14.89,27.72,14.89,32.77,0,4.41-1.45,7.56-4,8.82ZM1541.05,3027.24c-2.18,7.56-3.27,12.6-3.27,15.12-7.27,88.21-25.79,158.79-55.58,211.09-11.26,19.53-25.79,38.44-43.59,57.34-16.35,16.38-26.88,25.21-31.6,25.21-2.18,0-3.27-1.26-3.27-3.78s1.09-5.04,3.27-6.3c30.15-25.2,55.22-66.16,75.56-123.5,19.98-56.71,30.15-114.68,30.15-173.91,0-16.38-5.09-28.98-14.89-37.18-3.63-2.52-5.09-5.04-5.09-8.19,0-5.04,3.27-8.19,10.53-8.19,5.81,0,13.44,3.78,23.61,11.34,11.26,8.82,17.07,17.64,17.07,25.83,0,3.15-1.09,8.19-2.91,15.12Z"/>
    <path d="M2022.73,2913.82c-17.07-2.52-29.42-4.41-36.69-4.41-30.15,0-55.94,22.68-77.38,68.05-20.34,42.85-30.51,90.74-30.51,143.67,0,90.74,26.88,144.3,80.65,160.05,13.44,3.78,20.34,14.49,20.34,31.51,0,11.97-5.45,18.27-15.98,18.27-23.98,0-45.41-13.86-65.02-40.96-25.43-35.29-37.78-85.07-37.78-149.97,0-49.15,7.27-95.15,22.16-137.99,14.53-42.85,34.51-74.98,59.58-96.41-58.12,15.12-102.8,34.03-134.77,56.08l-13.08,12.6c-5.81,6.3-10.53,8.82-13.44,8.82-5.45,0-13.08-7.56-23.25-22.68-10.17-15.12-15.26-27.09-15.26-35.92,0-3.78.73-5.67,2.91-5.67,2.91,3.15,6.18,6.3,9.44,9.45,5.81,6.3,11.99,8.82,17.8,8.82,1.45,0,27.61-8.19,78.47-25.21,56.67-18.27,97.72-30.88,123.51-37.18,1.45,0,4.72-1.89,9.08-4.41s7.63-3.78,10.17-3.78c5.09,0,12.71,4.41,22.16,13.23,9.45,8.82,14.17,17.01,14.17,24.57,0,6.3-2.54,9.45-7.27,9.45ZM1999.85,3073.87c-4,0-7.27-3.15-10.17-10.08-10.17-23.31-19.98-42.22-29.06-56.08-4.36-6.3-6.18-10.08-6.18-12.6s1.09-4.41,4-4.41c7.99,0,18.16,6.93,30.51,19.53,13.44,14.49,20.34,28.98,20.34,42.85s-3.27,20.79-9.45,20.79ZM2029.64,3029.76c-4,0-7.27-2.52-9.44-8.82-9.45-22.05-19.25-39.07-29.06-50.41-5.09-5.67-7.63-9.45-7.63-11.34,0-3.78,1.09-5.67,3.63-5.67,9.45,0,19.98,5.67,31.6,16.38,13.08,12.6,19.62,25.83,19.62,40.33,0,13.23-2.91,19.53-8.72,19.53Z"/>
    <path d="M2176.75,3106l-17.8,85.7c-3.63,18.9-6.18,40.33-7.63,65.53-1.45,26.46-2.54,44.11-4,52.3-1.09,5.04-3.27,8.19-6.54,8.19-10.17,0-18.16-22.05-23.25-66.79-4-30.88-5.81-61.12-5.81-90.11,0-73.09,5.81-148.71,17.8-226.21,4-26.46,6.18-42.22,6.18-46.63,0-12.6-2.54-23.31-6.9-33.4-2.18-3.78-4.72-8.19-7.27-14.49,0-2.52,1.09-4.41,3.27-4.41,4.36,0,10.9,7.56,19.62,21.42,10.17,17.01,15.62,34.03,15.62,50.41,0,4.41-2.18,14.49-6.54,30.88-3.27,10.71-6.18,21.42-9.08,32.14-12.35,48.52-18.53,105.23-18.53,170.76,0,46.63,3.63,69.31,11.62,69.31,2.91,0,14.53-36.55,34.87-109.64,1.45-5.04,2.54-8.19,3.27-8.19,1.45,0,2.54,1.26,2.54,3.78,0,1.89-.73,5.04-1.45,9.45ZM2378.73,3299.45c-2.91,0-6.9-2.52-11.26-8.82l-9.81-14.49c-13.08-17.64-25.43-32.77-37.05-45.37-.36,33.4-5.45,57.34-15.26,71.2-9.08,13.23-23.25,20.16-42.87,20.16-15.26,0-28.33-5.67-39.23-16.38-13.44-12.6-19.98-31.51-19.98-56.08s5.45-42.22,17.07-56.08c10.17-12.6,22.16-18.9,36.33-18.9s29.06,3.15,43.59,9.45l-2.54-180.84c-21.8,5.04-38.87,7.56-51.22,7.56-15.26,0-27.61-7.56-36.33-23.31-6.54-10.71-9.44-19.53-9.44-27.09,0-3.78,1.09-6.3,3.27-6.3l9.08,14.49c6.54,8.82,13.8,12.6,21.8,12.6,25.07,0,45.77-1.89,62.48-6.3l-.73-71.2c-.36-13.86-1.45-24.57-3.63-31.51-2.91-8.19-7.99-14.49-15.26-18.9-4.36-2.52-6.54-5.04-6.54-7.56,0-3.78,3.27-6.3,10.17-6.3,5.81,0,13.8,3.78,23.98,11.34,11.26,8.82,17.07,17.01,17.07,25.21,0,2.52-1.09,8.19-3.27,15.75-2.18,8.19-3.27,15.12-3.27,20.79l-.73,56.71c6.54-2.52,14.17-5.67,22.16-9.45,2.18-1.26,6.54-5.04,12.71-11.34,5.09-5.67,8.72-8.82,10.9-8.82,3.63,0,7.63,2.52,12.71,6.3,5.09,4.41,7.63,9.45,7.63,14.49,0,13.86-22.16,26.46-66.11,38.44,0,61.12,1.45,126.65,4.72,197.23,24.7,16.38,44.32,36.55,58.85,59.86,5.45,8.82,8.35,18.27,8.35,28.36s-2.91,15.12-8.35,15.12ZM2300.63,3212.49c-14.17-10.08-29.42-15.12-45.77-15.12-11.62,0-21.43,3.78-28.7,10.71-9.81,8.82-14.53,22.68-14.53,40.96,0,16.38,5.45,28.36,16.71,36.55,7.99,6.3,17.44,9.45,28.33,9.45,29.06,0,43.96-20.16,43.96-61.12v-21.42Z"/>
    <path d="M2469.9,3271.09c22.52-61.75,37.78-104.6,45.05-127.91,12.71-41.59,23.61-88.85,33.06-140.51,4.72-27.09,7.27-46.63,7.27-59.23,0-8.82-2.54-17.01-7.27-23.31-4.72-5.67-6.9-9.45-6.9-11.34,0-2.52,1.82-4.41,6.18-4.41,6.54,0,14.89,6.3,25.43,17.64,10.53,11.97,15.98,23.31,15.98,33.4,0,3.15-1.45,7.56-4,12.6-3.27,6.93-5.09,11.34-5.45,13.23l-8.72,37.81c-13.44,55.45-26.16,100.19-38.51,134.21-15.26,42.85-33.78,81.28-55.58,115.94-2.54,3.78-4,5.67-4.72,5.67-1.45,0-1.82-1.26-1.82-3.78ZM2740.53,3256.6c-6.54,0-11.26-13.23-14.17-39.7-11.62-108.38-37.42-207.94-77.01-299.93-2.91-6.3-4.36-10.08-4.36-11.34,0-1.89.36-3.15,1.45-3.15s4,3.78,9.08,10.71c21.8,32.14,43.59,76.87,65.02,134.84,23.25,64.27,34.87,115.31,34.87,153.75s-5.09,54.82-14.89,54.82ZM2759.42,2939.02c-6.54,11.34-14.53,17.01-23.25,17.01-9.45,0-17.07-5.04-23.25-16.38-6.54-10.71-9.45-23.94-9.45-40.33s2.91-29.62,9.45-40.96c6.18-10.71,13.8-16.38,23.25-16.38s16.71,5.67,23.25,16.38c6.18,11.34,9.44,25.21,9.44,40.96s-3.27,28.99-9.44,39.7ZM2752.52,2870.97c-4.36-7.56-9.81-11.97-16.35-11.97s-12.35,4.41-16.71,11.97-6.54,17.01-6.54,28.35,2.18,20.79,6.9,28.36c4.36,7.56,9.81,11.34,16.35,11.34,6.18,0,11.62-3.78,15.98-11.34,4.36-7.56,6.9-17.01,6.9-28.36s-2.18-20.79-6.54-28.35Z"/>
    <path d="M3102.7,3320.24c-5.09,0-9.81-8.19-13.8-23.94-7.27-26.46-17.8-56.71-31.97-90.74-17.07-39.7-34.87-73.72-53.76-102.71-43.23,102.08-95.18,175.17-156.2,219.28-1.82,1.26-3.63,1.89-5.09,1.89s-2.18-.63-2.18-1.89c0-2.52,1.09-4.41,3.63-6.93,41.41-42.85,78.47-97.04,111.52-161.94,32.69-64.9,58.12-135.47,77.01-212.35,2.18-8.82,3.27-16.38,3.27-23.31,0-8.82-3.27-13.86-9.45-13.86-12.35,0-31.6,4.41-57.03,11.97-20.34,6.3-36.69,13.23-49.04,20.16l-10.53,9.45c-4.72,4.41-8.35,6.3-10.9,6.3-5.09,0-11.62-7.56-20.34-23.94-8.72-15.75-12.71-28.36-12.71-37.18,0-2.52.73-3.78,2.18-3.78l9.08,11.97c6.9,7.56,14.53,10.71,22.52,10.71,7.27,0,29.06-3.78,65.75-11.34l59.58-13.23c2.18,0,5.81-2.52,10.54-7.56,4.36-3.78,6.9-6.3,8.35-6.3,2.91,0,8.35,6.93,17.07,20.16,7.99,13.86,12.35,22.68,12.35,27.09,0,3.78-2.54,8.82-6.9,16.38-5.81,8.82-9.08,15.12-9.81,18.9-13.8,51.04-30.51,98.93-50.13,144.29,24.7,26.46,46.5,53.56,64.66,81.28,27.61,42.85,41.78,80.02,41.78,111.53,0,19.53-3.27,29.62-9.44,29.62Z"/>
    <path d="M3453.61,2935.87c-4.36,9.45-6.9,15.75-7.63,18.9-13.08,53.56-29.06,105.23-47.95,154.38,10.17,13.86,18.89,28.36,26.52,43.48,10.17,21.42,15.62,40.33,15.62,55.45s-3.27,22.05-9.08,22.05c-4,0-9.45-8.19-15.98-25.83-10.53-25.83-20.34-47.26-29.42-64.9-38.14,87.58-83.91,151.86-137.68,192.81-13.08,10.08-22.52,15.12-27.61,15.12-1.45,0-1.82-.63-1.82-1.26,0-1.89,2.18-4.41,6.54-7.56,55.94-44.11,104.98-118.46,146.4-221.8-22.52-35.29-42.5-59.23-60.3-73.09-3.63-2.52-5.45-4.41-5.45-6.3,0-1.26.73-2.52,2.18-2.52,2.91,0,11.62,5.04,25.43,14.49,15.98,11.34,32.33,25.21,48.31,41.59,13.8-38.44,24.7-76.24,33.42-113.42,5.09-23.31,7.99-37.18,7.99-40.96,0-11.97-4-18.27-11.26-18.27-2.18,0-11.62,3.15-28.7,9.45-17.44,6.3-30.15,8.82-38.14,8.82-3.63,0-7.99-3.15-12.71-10.71-23.98,65.53-57.4,128.54-100.26,189.66-4.36,6.3-7.63,8.82-10.53,8.82-1.82,0-2.54-1.26-2.54-3.78s1.45-5.67,4.36-9.45c15.26-19.53,35.6-59.86,60.67-120.35,24.7-60.49,37.42-102.08,37.42-124.76,0-7.56-1.45-13.23-3.63-17.64-1.09-1.26-4-5.04-9.08-10.08-1.45-1.26-1.82-1.89-1.82-3.15,0-3.78,2.18-5.67,6.9-5.67,6.9,0,14.89,5.04,24.34,13.86,10.17,10.08,15.26,20.79,15.26,31.5,0,1.26-1.45,5.04-4.36,10.71-3.63,6.3-5.81,10.08-5.81,10.71l-5.81,16.38c2.91,3.15,5.45,4.41,8.35,4.41,14.89,0,35.24-6.3,61.39-20.16,4.36-1.89,8.72-5.04,13.44-10.08,3.63-3.78,6.18-5.67,7.63-5.67,2.91,0,9.08,6.3,18.16,17.64,8.72,11.34,13.44,19.53,13.44,23.31,0,1.26-2.18,6.3-6.18,13.86Z"/>
    <path d="M3739.5,3237.07c-9.81,63.01-22.52,94.52-38.14,94.52-2.91,0-6.54-8.19-11.26-23.31-2.18-5.67-14.17-22.68-35.96-51.04-2.91-3.15-4.72-6.3-6.18-8.82,0-2.52.36-3.78,1.82-3.78l17.07,13.23c11.62,8.82,20.71,12.6,27.97,12.6,10.9,0,18.89-13.23,23.98-40.33,8.35-44.11,12.71-99.56,12.71-166.35,0-56.71-11.99-85.7-35.96-85.7-7.27,0-17.07,3.15-29.79,8.19-18.53,108.38-39.96,207.94-63.94,297.41-5.81,21.42-10.53,32.14-13.8,32.14-8.72,0-12.71-11.97-12.71-36.55,0-5.04,1.82-11.97,6.18-22.05,2.91-6.93,6.18-13.86,9.44-20.79,18.16-46,36.33-126.02,54.49-239.44-15.98,9.45-27.61,18.27-35.24,25.83l-10.17,11.34c-4.72,5.04-7.99,7.56-10.17,7.56-5.81,0-12.35-6.3-19.62-19.53-7.27-13.23-10.9-24.57-10.9-34.03,0-3.15.73-5.04,2.91-5.04,2.54,3.78,5.09,6.93,7.63,10.08,5.09,6.3,10.53,8.82,15.62,8.82,8.72,0,19.25-3.15,32.33-9.45l31.24-17.64c6.9-47.26,10.53-81.92,10.53-103.34,0-10.08-2.18-18.9-6.18-25.2l-9.45-13.86c0-3.78,1.45-5.67,4.72-5.67,5.81,0,14.17,5.04,25.07,13.86,11.99,10.08,18.16,19.53,18.16,27.72,0,2.52-1.82,7.56-5.45,15.12-3.63,8.19-6.18,15.12-6.9,21.42-2.18,11.34-5.45,32.14-10.17,62.38,12.35-3.78,21.8-6.3,27.97-6.3,21.07,0,35.96,13.23,44.32,39.7,6.18,20.16,9.44,49.78,9.44,89.48,0,47.89-4,97.04-11.62,146.82ZM3843.03,3145.7c-2.18,13.23-5.45,19.53-9.44,19.53-2.18,0-5.45-3.15-9.44-10.08l-8.35-15.12c-2.91-3.15-8.36-7.56-17.07-12.6-7.63-3.78-11.26-6.93-11.26-8.82s2.18-3.15,6.54-4.41c2.91,0,5.81,0,8.72-.63,11.99-3.15,18.16-13.23,18.16-30.88,0-23.31-6.18-51.67-18.16-85.07-10.9-30.25-22.52-53.56-34.87-69.94-3.63-4.41-5.09-7.56-5.09-9.45,0-2.52.73-3.78,2.91-3.78,5.09,0,13.44,8.82,25.79,25.2,15.98,22.68,29.06,49.15,38.51,78.76,10.17,32.14,15.62,64.9,15.62,98.93,0,10.08-1.09,19.53-2.54,28.35ZM3829.58,2920.75c-4,0-7.27-3.15-10.17-10.08-10.17-23.31-19.98-42.22-29.06-56.08-4.36-6.3-6.18-10.08-6.18-12.6s1.09-4.41,4-4.41c7.99,0,18.16,6.93,30.51,19.53,13.44,14.49,20.34,28.99,20.34,42.85s-3.27,20.79-9.45,20.79ZM3859.37,2876.64c-4,0-7.27-2.52-9.44-8.82-9.45-22.05-19.25-39.07-29.06-50.41-5.09-5.67-7.63-9.45-7.63-11.34,0-3.78,1.09-5.67,3.63-5.67,9.45,0,19.98,5.67,31.6,16.38,13.08,12.6,19.62,25.83,19.62,40.33,0,13.23-2.91,19.53-8.72,19.53Z"/>
    <path d="M3944.37,2891.77h69.75c7.99-31.51,15.26-64.27,21.8-99.56,7.27,3.78,14.53,8.19,21.8,11.97,7.99,3.78,12.35,7.56,12.35,10.71,0,5.67-2.18,8.82-5.81,8.82-4.72,1.26-6.9,3.15-6.9,5.67-5.81,22.68-11.26,43.48-16.71,62.38h134.04c2.18-3.78,6.18-11.97,12.35-24.58,5.81-11.97,9.44-18.27,10.9-18.27,4,0,10.17,8.19,18.53,23.31,7.99,15.75,12.35,25.21,12.35,28.36,0,6.3-2.18,8.82-5.81,8.82h-187.45c-10.17,34.03-20.71,64.27-31.6,90.74h142.04c2.18-3.78,4.72-8.19,7.63-11.97,4-5.67,6.9-8.82,9.08-8.82,1.45,0,5.81,4.41,13.08,12.6,6.9,11.34,10.53,18.9,10.53,22.68,0,5.04-1.82,9.45-5.45,12.6-4.36,3.78-6.18,7.56-6.18,11.34v292.37c0,14.49-4.72,25.2-13.8,32.77-7.27,6.3-13.44,9.45-18.53,9.45-6.54,0-9.81-5.67-9.81-16.38-1.45-11.97-17.44-22.68-47.22-32.14l1.82-10.71c22.52,5.04,41.05,7.56,55.22,7.56,6.18,0,9.44-5.04,9.44-13.86v-93.26h-153.66v144.29c0,3.78-1.45,6.3-4,8.19-4,2.52-7.99,3.78-11.62,3.78-4.72,0-6.9-3.78-6.9-11.34.73-17.64,1.45-35.92,1.45-54.19v-247l-7.63,13.23c-14.89,29.62-37.05,61.12-66.84,95.15l-4.36-8.82c36.69-57.34,65.02-113.42,85.37-168.24,9.08-24.57,17.8-51.04,25.79-80.02h-65.02c-17.8,0-30.51,1.26-37.78,3.78l-6.9-27.09c10.17,3.78,25.07,5.67,44.68,5.67ZM4151.8,3098.44v-81.28h-153.66v81.28h153.66ZM4151.8,3197.37v-81.28h-153.66v81.28h153.66Z"/>
    <path d="M4419.88,2806.07c7.99,3.78,11.99,6.93,11.99,10.71s-2.54,6.3-7.27,6.93c-3.63,1.26-5.45,3.15-6.18,5.04-7.99,20.79-16.35,39.7-25.07,56.08h123.15c3.27-5.67,6.54-10.71,10.17-15.12,2.91-3.78,5.09-6.3,7.27-6.3,1.82,0,6.18,5.67,13.44,15.75,6.9,10.71,10.53,17.64,10.53,21.42,0,5.04-2.18,8.19-5.81,9.45-4.36,1.89-7.63,5.67-10.17,11.97-17.44,37.81-37.05,73.09-58.49,105.23-21.43,33.4-47.95,63.01-79.19,89.48-5.81,5.04-11.99,10.08-17.8,13.86h129.69l9.08-13.86c2.54-4.41,4.72-6.93,6.54-6.93,2.18,0,6.9,5.04,13.44,13.86,6.54,9.45,10.17,16.38,10.17,20.16s-1.82,7.56-5.45,11.97c-3.27,3.78-4.72,8.19-4.72,12.6v141.78c0,11.34.73,26.46,2.18,45.37,0,3.78-1.82,6.3-5.09,8.82-5.45,2.52-10.17,3.78-14.17,3.78-3.63,0-5.45-3.78-5.45-10.71v-32.14h-159.84v34.03c0,3.15-1.45,5.67-3.63,8.19-5.09,1.89-9.08,3.15-12.35,3.15-4.36,0-6.54-3.78-6.54-11.34.73-11.97,1.45-23.94,1.45-35.29v-165.72c-22.52,12.6-47.95,23.31-75.56,32.77l-1.82-10.08c26.15-11.97,51.58-27.72,77.01-46.63l-1.09-24.57c5.45,3.78,10.9,8.19,16.35,13.23,20.34-15.75,40.69-34.03,60.3-54.19,40.32-43.48,74.47-98.93,102.44-166.98h-135.14c-6.54,11.34-13.08,22.05-19.62,30.88-21.43,32.77-49.77,64.9-85,95.78l-4-8.82c21.07-22.68,44.32-55.45,69.02-97.67,19.98-33.4,37.78-75.61,53.4-127.28,7.99,5.04,15.26,8.82,21.8,11.34ZM4400.99,2988.8c3.63,3.15,7.99,7.56,13.08,13.86,5.81,8.82,9.08,18.9,9.08,29.62,0,6.93-1.09,12.6-3.27,17.01-2.18,6.3-4.72,8.82-7.63,8.82-4.36,0-8.35-4.41-11.99-14.49-11.62-34.03-25.79-59.86-42.14-76.24l2.91-5.04c14.89,6.93,28.33,15.75,39.96,26.46ZM4522.68,3307.64v-159.42h-159.84v159.42h159.84Z"/>
    <path d="M4787.86,3324.02c-29.42,0-53.4-6.93-71.56-20.79-26.16-18.9-38.87-51.04-38.87-95.78,0-32.14,9.08-62.38,27.97-90.11,10.9-16.38,28.33-34.66,52.31-56.08-8.72-18.9-12.71-68.05-12.71-148.08,0-22.05-1.82-38.44-5.09-49.15-2.18-6.93-5.09-11.97-8.72-15.75-4-2.52-5.81-4.41-5.81-5.67,0-5.67,2.18-8.82,6.9-8.82,6.9,0,14.89,3.15,23.98,8.82,10.9,7.56,16.35,16.38,16.35,26.46,0,1.89-1.09,6.3-3.27,12.6-3.27,10.08-4.72,33.4-4.72,70.57,0,47.89,3.27,79.39,10.53,93.89,18.53-11.97,44.32-28.99,77.38-51.67,7.27-5.04,11.26-11.34,11.26-17.64,0-2.52-.73-5.67-1.82-9.45-1.45-3.78-1.82-5.67-1.82-6.93,0-3.78,1.09-5.67,3.63-5.67,6.54,0,13.08,5.67,19.98,15.75,6.54,11.34,9.81,22.05,9.81,33.4,0,8.82-5.81,15.75-16.71,20.79-54.85,24.57-91.54,43.48-110.07,56.08-50.13,35.29-75.2,75.61-75.2,120.98,0,33.4,11.26,57.34,33.78,71.2,15.62,10.08,34.87,15.12,58.12,15.12,21.07,0,39.6-1.89,55.94-6.93,10.17-2.52,20.71-6.3,31.24-11.97,8.35-4.41,13.44-6.93,15.62-6.93,5.09,0,9.81,2.52,14.17,7.56s6.54,11.97,6.54,20.16c0,22.68-39.96,34.03-119.15,34.03Z"/>
    <path d="M5115.52,3162.08c-9.44,40.96-14.17,68.68-14.17,82.54,0,15.75.36,31.51,1.45,46.63,0,13.86-3.27,20.79-9.44,20.79-6.54,0-14.89-8.82-24.7-27.09-25.07-45.37-37.42-105.23-37.42-179.58,0-22.05,1.45-53.56,5.09-94.52,3.27-40.96,5.09-65.53,5.09-74.35,0-18.27-2.54-34.03-7.63-46.63-2.18-4.41-4.72-9.45-6.9-15.75,0-3.15,1.09-5.04,3.63-5.04,6.18,0,14.53,8.82,24.7,25.83,10.17,17.64,15.26,31.5,15.26,42.85,0,3.15-3.27,15.12-9.45,35.92-8.72,29.62-13.08,70.57-13.08,122.24,0,31.5,2.18,60.49,6.9,86.96,5.45,32.77,12.71,49.15,21.8,49.15,4,0,12.35-20.79,25.07-62.38l22.52-78.13c.73-3.15,1.82-5.04,3.27-5.04s2.18,1.89,2.18,4.41c0,6.93-4.72,30.88-14.17,71.2ZM5281.53,3172.17c-2.54,13.23-6.18,19.53-11.26,19.53-9.08,0-13.44-11.97-13.44-35.92,0-34.03-4.72-70.57-13.8-109.01-10.17-39.07-22.16-69.31-36.69-90.11-4-5.04-5.81-8.82-5.81-11.34s1.09-4.41,3.27-4.41c5.81,0,14.53,7.56,26.52,22.05,16.71,21.42,29.79,47.26,39.23,78.76,9.44,31.51,14.53,65.53,14.53,100.82,0,11.34-1.09,20.79-2.54,29.62Z"/>
    <path d="M5593.57,3238.33c-15.62,40.33-37.42,71.2-65.39,93.89-15.98,12.6-26.88,18.9-32.69,18.9-2.91,0-4-1.26-4-3.15,0-2.52,1.45-5.04,4.72-7.56,28.33-22.68,51.22-54.19,68.66-97.04,17.8-44.11,26.88-93.26,26.88-146.19,0-35.92-2.54-61.75-7.27-77.5-6.54-21.42-19.25-32.77-37.78-32.77-14.53,0-29.42,8.19-44.68,23.94-12.35,13.86-23.61,30.25-33.06,49.15-3.63,6.93-6.54,10.08-9.08,10.08-8.72,0-17.8-8.19-27.24-25.83-7.99-14.49-11.99-25.2-11.99-32.14,0-3.78,1.09-6.3,3.27-6.3l6.18,9.45c4.72,6.3,10.53,9.45,17.07,9.45,4.72,0,20.71-10.08,47.59-30.25,26.52-20.16,47.59-30.88,63.57-30.88,20.34,0,35.6,14.49,45.77,42.85,8.35,23.94,12.71,54.19,12.71,91.37,0,53.56-7.99,100.19-23.25,140.52ZM5575.77,2892.4c-16.71,0-32.33,4.41-46.86,11.97-5.45,3.78-11.26,8.19-17.8,11.97-1.45,0-2.18-1.26-2.18-3.78,0-1.26,2.54-5.04,8.36-12.6,5.81-6.3,8.72-11.34,8.72-14.49,0-2.52-2.18-5.67-6.18-8.19-14.53-8.19-26.15-17.64-34.87-28.99-7.63-8.82-11.26-16.38-11.26-22.05,0-2.52.73-4.41,2.54-4.41,2.91,5.04,11.99,12.6,26.52,22.68,9.81,5.67,30.51,8.19,62.12,8.19,4.36,0,9.08,3.15,14.17,8.82,5.09,6.3,7.63,12.6,7.63,20.16s-3.63,10.71-10.9,10.71Z"/>
    <path d="M5878.37,3303.86c-76.29,0-114.07-41.59-114.07-125.39,0-18.27,2.18-35.92,6.54-53.56,3.63-15.12,6.9-22.68,9.44-22.68,2.18,0,3.63,1.89,3.63,4.41-2.18,6.3-4,11.97-5.81,18.27-3.63,12.6-5.09,23.94-5.09,34.03,0,71.83,33.42,107.75,100.26,107.75,24.7,0,48.31-3.78,70.84-12.6l31.6-13.23c4.36,0,9.08,2.52,14.53,6.3,6.18,5.04,9.44,10.71,9.44,17.01,0,26.46-40.69,39.7-121.33,39.7ZM5945.21,2927.68c-18.89,0-41.78,10.08-68.66,28.99-10.9,7.56-22.52,18.9-34.51,32.77l-15.98,18.27c-2.18,0-3.27-1.89-3.27-5.67,0-3.15,6.54-13.86,19.98-31.51,13.44-17.64,22.52-28.99,27.61-33.4-13.08,1.89-21.43,2.52-24.34,2.52-16.71,0-31.24-8.82-43.59-27.72-9.44-13.86-13.8-24.57-13.8-32.14,0-3.15.73-5.04,2.18-5.04l14.17,18.27c10.53,11.34,23.25,16.38,38.51,16.38,19.25,0,39.23-3.15,59.94-10.08,9.44-3.78,18.89-6.93,28.33-10.71,5.09,0,10.53,3.78,16.35,10.08,5.81,6.3,8.72,12.6,8.72,18.27,0,7.56-4,10.71-11.62,10.71Z"/>
    <path d="M6240.9,3324.02c-29.42,0-53.4-6.93-71.56-20.79-26.16-18.9-38.87-51.04-38.87-95.78,0-32.14,9.08-62.38,27.97-90.11,10.9-16.38,28.33-34.66,52.31-56.08-8.72-18.9-12.71-68.05-12.71-148.08,0-22.05-1.82-38.44-5.09-49.15-2.18-6.93-5.09-11.97-8.72-15.75-4-2.52-5.81-4.41-5.81-5.67,0-5.67,2.18-8.82,6.9-8.82,6.9,0,14.89,3.15,23.98,8.82,10.9,7.56,16.35,16.38,16.35,26.46,0,1.89-1.09,6.3-3.27,12.6-3.27,10.08-4.72,33.4-4.72,70.57,0,47.89,3.27,79.39,10.53,93.89,18.53-11.97,44.32-28.99,77.38-51.67,7.27-5.04,11.26-11.34,11.26-17.64,0-2.52-.73-5.67-1.82-9.45-1.45-3.78-1.82-5.67-1.82-6.93,0-3.78,1.09-5.67,3.63-5.67,6.54,0,13.08,5.67,19.98,15.75,6.54,11.34,9.81,22.05,9.81,33.4,0,8.82-5.81,15.75-16.71,20.79-54.85,24.57-91.54,43.48-110.07,56.08-50.13,35.29-75.2,75.61-75.2,120.98,0,33.4,11.26,57.34,33.78,71.2,15.62,10.08,34.87,15.12,58.12,15.12,21.07,0,39.6-1.89,55.94-6.93,10.17-2.52,20.71-6.3,31.24-11.97,8.35-4.41,13.44-6.93,15.62-6.93,5.09,0,9.81,2.52,14.17,7.56s6.54,11.97,6.54,20.16c0,22.68-39.96,34.03-119.15,34.03Z"/>
    <path d="M6645.57,3237.07c-9.81,63.01-22.52,94.52-38.14,94.52-2.91,0-6.54-8.19-11.26-23.31-2.18-5.67-14.17-22.68-35.96-51.04-2.91-3.15-4.72-6.3-6.18-8.82,0-2.52.36-3.78,1.82-3.78l17.07,13.23c11.62,8.82,20.71,12.6,27.97,12.6,10.9,0,18.89-13.23,23.98-40.33,8.35-44.11,12.71-99.56,12.71-166.35,0-56.71-11.99-85.7-35.96-85.7-7.27,0-17.07,3.15-29.79,8.19-18.53,108.38-39.96,207.94-63.94,297.41-5.81,21.42-10.53,32.14-13.8,32.14-8.72,0-12.71-11.97-12.71-36.55,0-5.04,1.82-11.97,6.18-22.05,2.91-6.93,6.18-13.86,9.44-20.79,18.16-46,36.33-126.02,54.49-239.44-15.98,9.45-27.61,18.27-35.24,25.83l-10.17,11.34c-4.72,5.04-7.99,7.56-10.17,7.56-5.81,0-12.35-6.3-19.62-19.53-7.27-13.23-10.9-24.57-10.9-34.03,0-3.15.73-5.04,2.91-5.04,2.54,3.78,5.09,6.93,7.63,10.08,5.09,6.3,10.53,8.82,15.62,8.82,8.72,0,19.25-3.15,32.33-9.45l31.24-17.64c6.9-47.26,10.53-81.92,10.53-103.34,0-10.08-2.18-18.9-6.18-25.2l-9.45-13.86c0-3.78,1.45-5.67,4.72-5.67,5.81,0,14.17,5.04,25.07,13.86,11.99,10.08,18.16,19.53,18.16,27.72,0,2.52-1.82,7.56-5.45,15.12-3.63,8.19-6.18,15.12-6.9,21.42-2.18,11.34-5.45,32.14-10.17,62.38,12.35-3.78,21.8-6.3,27.97-6.3,21.07,0,35.96,13.23,44.32,39.7,6.18,20.16,9.44,49.78,9.44,89.48,0,47.89-4,97.04-11.62,146.82ZM6749.1,3145.7c-2.18,13.23-5.45,19.53-9.44,19.53-2.18,0-5.45-3.15-9.44-10.08l-8.35-15.12c-2.91-3.15-8.36-7.56-17.07-12.6-7.63-3.78-11.26-6.93-11.26-8.82s2.18-3.15,6.54-4.41c2.91,0,5.81,0,8.72-.63,11.99-3.15,18.16-13.23,18.16-30.88,0-23.31-6.18-51.67-18.16-85.07-10.9-30.25-22.52-53.56-34.87-69.94-3.63-4.41-5.09-7.56-5.09-9.45,0-2.52.73-3.78,2.91-3.78,5.09,0,13.44,8.82,25.79,25.2,15.98,22.68,29.06,49.15,38.51,78.76,10.17,32.14,15.62,64.9,15.62,98.93,0,10.08-1.09,19.53-2.54,28.35Z"/>
    <path d="M6899.49,3341.04c-3.63,0-5.09-2.52-5.09-6.93,0-3.78,1.45-5.67,4.36-5.67,37.42,0,71.2-11.34,100.99-33.4,35.96-26.46,54.13-64.27,54.13-113.42,0-27.72-5.45-49.15-15.98-64.27-10.9-15.12-24.34-22.68-40.32-22.68-17.44,0-35.6,8.19-53.76,23.31-18.53,16.38-32.69,36.55-42.87,60.49-2.18,6.3-4,11.97-5.81,18.27-2.54,8.19-5.09,11.97-7.99,11.97-4.72,0-9.45-6.93-14.17-21.42-4.72-12.6-6.9-23.31-6.9-32.14,0,0,1.45-7.56,4.72-22.05,6.9-31.5,10.53-84.43,10.53-157.53,0-18.9,5.81-34.03,18.16-46.63,9.08-8.82,19.98-15.12,33.06-18.27,16.71-3.78,25.43-7.56,25.43-11.97,0-6.3-7.99-15.75-23.98-28.35-14.17-10.71-24.7-17.01-31.97-19.53-4.36-1.26-6.54-3.15-6.54-5.67,0-5.04,2.18-7.56,6.54-7.56,21.8,0,43.96,8.82,65.75,25.83,8.35,6.93,16.35,15.12,23.61,24.57,9.44,13.86,14.53,25.83,14.53,35.92,0,11.34-4,16.38-11.62,16.38-.73,0-5.81-3.15-15.98-10.08-10.53-6.3-19.98-10.08-28.7-10.08-10.53,0-21.07,5.67-31.6,15.75-12.35,12.6-18.16,26.46-18.16,42.85,0,46.63-2.54,100.19-7.63,161.94,0,3.78.73,5.04,2.54,5.04,2.18-1.89,8.35-8.19,18.53-18.9,32.33-33.4,62.84-50.41,91.18-50.41,21.07,0,38.51,10.08,51.95,28.99,13.8,21.42,21.07,49.78,21.07,85.7,0,100.19-59.58,149.97-178,149.97Z"/>
    <path d="M7433.12,2908.78c-11.26,18.9-30.88,50.41-58.85,95.15l3.63-.63c2.91,0,6.54,2.52,10.9,6.3,4,3.78,6.18,8.19,6.18,12.6,0,1.26-.36,3.78-1.09,8.82-.73,5.04-1.09,9.45-1.09,12.6-1.45,20.16-2.18,46-2.18,78.76,0,47.89.73,105.23,2.54,171.39,0,28.36-3.63,42.85-10.17,42.85-4.36,0-8.72-6.93-12.71-19.53-3.63-11.34-5.45-21.42-5.45-30.25l2.18-25.21c1.45-15.12,2.18-28.35,2.18-39.07l.36-32.77c0-20.79.36-35.92.36-45.37,0-7.56,0-22.68.36-46.63v-41.59c0-13.86-2.18-25.83-6.18-37.18-13.08,21.42-30.88,44.11-53.04,68.68-22.52,25.21-43.23,46-62.12,61.12-12.71,10.08-19.98,15.12-22.16,15.12-1.82,0-2.54-.63-2.54-2.52,0-2.52,1.09-4.41,3.27-6.93,66.48-66.16,122.42-146.19,168.19-239.44,13.8-27.72,20.71-47.26,20.71-57.34,0-5.04-1.45-9.45-4.36-13.86l-6.18-7.56c0-2.52,1.45-4.41,4.72-4.41,5.09,0,12.35,6.93,21.8,20.16,8.72,13.86,13.44,23.94,13.44,31.51,0,2.52-4.36,11.34-12.71,25.2Z"/>
    <path d="M7812.72,2935.87c-4.36,9.45-6.9,15.75-7.63,18.9-13.08,53.56-29.06,105.23-47.95,154.38,10.17,13.86,18.89,28.36,26.52,43.48,10.17,21.42,15.62,40.33,15.62,55.45s-3.27,22.05-9.08,22.05c-4,0-9.44-8.19-15.98-25.83-10.54-25.83-20.34-47.26-29.42-64.9-38.14,87.58-83.91,151.86-137.68,192.81-13.08,10.08-22.52,15.12-27.61,15.12-1.45,0-1.82-.63-1.82-1.26,0-1.89,2.18-4.41,6.54-7.56,55.94-44.11,104.98-118.46,146.4-221.8-22.52-35.29-42.5-59.23-60.3-73.09-3.63-2.52-5.45-4.41-5.45-6.3,0-1.26.73-2.52,2.18-2.52,2.91,0,11.62,5.04,25.43,14.49,15.98,11.34,32.33,25.21,48.31,41.59,13.8-38.44,24.7-76.24,33.42-113.42,5.09-23.31,7.99-37.18,7.99-40.96,0-11.97-4-18.27-11.26-18.27-2.18,0-11.62,3.15-28.7,9.45-17.44,6.3-30.15,8.82-38.14,8.82-3.63,0-7.99-3.15-12.71-10.71-23.97,65.53-57.4,128.54-100.26,189.66-4.36,6.3-7.63,8.82-10.54,8.82-1.82,0-2.54-1.26-2.54-3.78s1.45-5.67,4.36-9.45c15.26-19.53,35.6-59.86,60.67-120.35,24.7-60.49,37.42-102.08,37.42-124.76,0-7.56-1.45-13.23-3.63-17.64-1.09-1.26-4-5.04-9.08-10.08-1.45-1.26-1.82-1.89-1.82-3.15,0-3.78,2.18-5.67,6.9-5.67,6.9,0,14.89,5.04,24.34,13.86,10.17,10.08,15.26,20.79,15.26,31.5,0,1.26-1.45,5.04-4.36,10.71-3.63,6.3-5.81,10.08-5.81,10.71l-5.81,16.38c2.91,3.15,5.45,4.41,8.36,4.41,14.89,0,35.24-6.3,61.39-20.16,4.36-1.89,8.72-5.04,13.44-10.08,3.63-3.78,6.17-5.67,7.63-5.67,2.91,0,9.08,6.3,18.16,17.64,8.72,11.34,13.44,19.53,13.44,23.31,0,1.26-2.18,6.3-6.18,13.86Z"/>
    <path d="M8015.42,2925.16c-2.18,9.45-2.91,18.27-2.91,25.83v155.01c0,27.73-3.63,41.59-10.9,41.59-4,0-7.99-5.67-11.62-17.64-3.63-10.08-5.45-19.53-5.45-27.09,0-3.15.73-11.34,2.54-25.2,2.18-17.01,3.27-58.6,3.27-124.76,0-37.18-1.82-58.6-5.45-64.9-.36,0-2.18-1.89-5.45-5.67-3.27-3.78-4.72-6.3-4.72-7.56,0-4.41,2.91-6.93,8.72-6.93,6.17,0,13.44,4.41,22.16,13.23,8.35,9.45,12.71,17.64,12.71,23.94,0,3.78-1.09,10.71-2.91,20.16ZM8145.1,2877.27c-2.18,6.93-2.91,13.23-2.91,18.9,0,18.9,0,46.63.73,83.8.73,37.81,1.09,64.27,1.09,80.02,0,85.7-12.35,149.97-36.33,192.81-20.34,35.92-56.31,66.16-107.53,92-.73,0-2.18.63-4,.63-2.54,0-3.63-1.89-3.63-5.04,0-1.89,1.45-3.78,4.72-5.67,81.37-50.41,122.42-137.36,122.42-261.5v-83.17c-.36-44.11-.36-72.46-.36-83.8,0-31.51-5.45-53.56-16.35-65.53-3.63-3.78-5.45-6.3-5.45-8.19,0-5.04,1.82-7.56,6.17-7.56,6.18,0,14.89,4.41,25.79,11.97,12.35,8.82,18.89,17.64,18.89,26.46,0,2.52-1.09,7.56-3.27,13.86Z"/>
    <path d="M8562.13,2920.12c-5.81,3.15-9.08,5.67-10.53,7.56-59.58,78.13-91.18,116.57-95.54,116.57-2.18,0-2.91-.63-2.91-3.15s1.09-6.3,3.63-10.08c9.44-13.86,21.43-35.29,36.33-63.01,18.53-34.03,27.97-55.45,27.97-64.27s-3.63-13.86-10.54-13.86c-15.98,0-40.69,4.41-74.47,13.23-34.87,9.45-62.85,18.9-83.19,28.35-.73.63-5.45,3.78-14.89,8.82-6.54,4.41-11.26,6.3-14.17,6.3-4.36,0-11.99-8.82-23.25-26.46-11.62-17.01-17.07-28.99-17.07-36.55,0-4.41.73-6.93,2.54-6.93,4.36,5.04,9.08,9.45,13.8,13.23,8.72,8.19,16.71,11.97,23.98,11.97,3.27,0,65.39-11.34,186.35-34.66,2.54,0,6.18-2.52,11.26-6.93,5.09-3.78,8.72-6.3,10.9-6.3,2.54,0,8.72,8.19,18.89,24.57,9.81,17.01,14.89,27.72,14.89,32.77,0,4.41-1.45,7.56-4,8.82ZM8442.97,3027.24c-2.18,7.56-3.27,12.6-3.27,15.12-7.27,88.21-25.79,158.79-55.58,211.09-11.26,19.53-25.79,38.44-43.59,57.34-16.35,16.38-26.88,25.21-31.6,25.21-2.18,0-3.27-1.26-3.27-3.78s1.09-5.04,3.27-6.3c30.15-25.2,55.22-66.16,75.56-123.5,19.98-56.71,30.15-114.68,30.15-173.91,0-16.38-5.09-28.98-14.89-37.18-3.63-2.52-5.09-5.04-5.09-8.19,0-5.04,3.27-8.19,10.54-8.19,5.81,0,13.44,3.78,23.61,11.34,11.26,8.82,17.07,17.64,17.07,25.83,0,3.15-1.09,8.19-2.91,15.12Z"/>
    <path d="M8668.19,2901.85h56.67c1.45-2.52,5.09-8.82,10.17-18.27,4.36-9.45,6.9-14.49,8.36-14.49,3.27,0,8.36,6.3,14.89,18.27,6.54,13.23,9.81,20.79,9.81,23.31,0,5.67-1.82,8.19-4.72,8.19h-95.18c-17.8,0-30.51,1.89-38.14,4.41l-6.54-27.09c10.17,3.78,25.07,5.67,44.68,5.67ZM8682.36,3081.43h31.24c1.45-2.52,4.36-7.56,8.72-15.75s6.9-12.6,7.99-12.6c2.91,0,7.26,5.67,13.44,16.38,5.81,11.34,8.72,18.27,8.72,20.79,0,5.67-1.45,8.19-4,8.19h-66.11c-17.8,0-30.51,1.89-38.14,4.41l-6.54-27.09c10.17,3.78,25.07,5.67,44.68,5.67ZM8683.81,2992.58h28.33c1.45-1.89,4.36-6.93,8.72-15.75,4.36-8.19,6.9-12.6,7.99-12.6,2.91,0,7.26,5.67,13.44,17.01,5.81,11.34,8.72,17.64,8.72,20.16,0,6.3-1.45,8.82-4,8.82h-63.21c-17.8,0-30.51,1.89-38.14,4.41l-6.54-27.09c10.17,3.78,25.07,5.04,44.68,5.04ZM8664.92,3165.23h51.58c2.54-3.78,5.09-8.19,7.99-13.23,2.18-3.15,4.36-5.04,6.18-5.04s5.81,4.41,11.99,12.6c5.45,8.82,8.36,14.49,8.36,17.01,0,3.78-1.82,6.93-5.09,10.71-3.27,3.78-4.72,7.56-4.72,11.34v103.97c0,9.45.36,22.68,1.82,39.7,0,3.15-1.45,5.67-4.36,8.19-4.72,1.89-8.72,3.15-12.35,3.15s-5.09-3.78-5.09-10.08v-28.36h-55.22v38.44c0,2.52-1.45,5.04-4,6.3-4.36,1.89-7.99,3.15-10.9,3.15-4.36,0-6.54-3.15-6.54-9.45.73-11.34,1.45-22.68,1.45-34.03v-124.76c0-15.12-.73-30.88-1.45-46,6.54,4.41,13.44,10.08,20.34,16.38ZM8700.52,2833.17c6.18,11.34,9.45,21.42,9.45,30.88,0,6.93-1.45,13.86-3.63,20.16-2.18,6.3-4.72,8.82-7.63,8.82-6.54,0-10.9-7.56-13.44-23.31-4.36-25.2-10.54-46-19.25-63.64l3.63-6.3c14.17,11.34,24.34,22.68,30.88,33.4ZM8721.23,3298.19v-115.94h-55.22v115.94h55.22ZM8804.42,2837.58h96.99c1.45-2.52,4.72-8.19,9.81-17.64,4-8.82,6.54-13.23,7.99-13.23,2.91,0,7.63,6.3,13.8,18.27,6.54,11.97,9.81,18.9,9.81,21.42,0,6.3-1.82,8.82-4.72,8.82h-92.63l-9.08,93.26h46.5c2.18-4.41,5.09-9.45,8.36-14.49,3.63-5.67,6.17-8.82,8.35-8.82,2.54,0,6.9,4.41,13.08,13.23,5.81,8.82,8.72,14.49,8.72,18.27s-1.82,7.56-4.72,11.34c-3.63,5.04-5.09,8.82-5.09,11.34v104.6h7.63l9.08-15.75c4-8.19,6.54-12.6,7.63-12.6,2.91,0,7.26,5.67,13.44,16.38,5.81,11.34,9.08,18.27,9.08,20.79,0,5.67-1.45,8.19-4.36,8.19h-155.48c-17.8,0-30.51,1.89-37.78,4.41l-6.9-27.09c10.17,3.78,25.07,5.67,44.68,5.67h4.36l11.62-118.46h-3.27c-16.71,0-29.42,1.89-37.78,4.41l-6.9-27.09c13.44,3.78,28.33,5.67,44.68,5.67h5.09l9.08-93.26h-21.07c-17.8,0-30.51,1.89-38.14,4.41l-6.54-27.09c10.17,3.78,25.07,5.04,44.68,5.04ZM8802.24,3162.71h90.09l8.35-14.49c2.18-3.78,4-6.3,5.81-6.3s5.81,4.41,11.99,12.6c5.81,8.82,8.72,14.49,8.72,17.64s-1.82,6.3-4.72,10.08c-2.91,3.78-4,7.56-4,11.34v120.98c0,10.08.36,23.31,1.82,40.33,0,2.52-1.45,5.04-4,7.56-5.09,1.89-9.08,3.15-12.71,3.15-3.27,0-4.72-3.15-4.72-9.45v-33.4h-98.08v33.4c0,2.52-1.45,4.41-4,6.3-4.36,1.89-7.99,3.15-10.9,3.15-4.36,0-6.17-3.15-6.17-9.45.73-11.34,1.09-22.68,1.09-34.03v-132.32c0-15.12-.36-30.25-1.09-45.37,7.26,5.04,14.89,10.71,22.52,18.27ZM8898.87,3305.75v-126.02h-98.08v126.02h98.08ZM8891.6,3083.95v-118.46h-57.03l-11.62,118.46h68.66Z"/>
    <path d="M9267.21,3056.86c-25.43,13.86-57.03,32.14-94.45,56.08,1.45,37.81,2.54,60.49,2.54,66.79,0,28.99-4.72,42.85-13.8,42.85-6.54,0-9.45-8.82-9.45-27.09l1.09-69.94c-50.86,36.55-75.92,71.83-75.92,106.49,0,21.42,6.18,37.81,18.53,49.15,10.17,10.08,21.8,14.49,34.87,14.49,35.24,0,67.93-5.67,97.72-17.64,12.71,0,19.25,8.19,19.25,23.31,0,11.34-9.08,18.9-26.52,23.31-12.35,2.52-33.42,4.41-62.84,4.41-26.88,0-47.22-5.04-60.67-13.86-21.43-13.86-31.97-40.33-31.97-79.39,0-47.89,29.06-92.63,87.55-134.21-1.45-40.33-11.26-60.49-30.15-60.49-12.35,0-26.15,10.71-41.41,31.51-13.08,17.64-23.98,37.18-32.69,58.6-8.72,22.05-15.62,32.77-20.34,32.77-3.27,0-5.81-3.78-7.26-11.97-1.45-6.3-2.18-12.6-2.18-18.9,0-4.41,3.27-12.6,10.53-24.57,9.45-15.75,15.62-27.09,18.89-34.66,14.17-32.77,28.33-73.09,42.87-121.61-8.36,1.26-16.71,1.26-24.7,1.26-13.8,0-24.7-5.67-33.06-18.27-6.54-8.82-9.44-15.75-9.44-22.05,0-3.15.73-5.04,2.54-5.04,11.99,13.23,25.43,19.53,40.69,19.53,9.08,0,19.62-.63,31.6-3.15,7.99-29.62,12.35-50.41,12.35-62.38,0-7.56-2.54-14.49-7.27-20.16l-6.9-7.56c0-4.41,1.45-6.93,4.36-6.93,6.18,0,14.17,3.15,23.61,9.45,11.26,7.56,17.07,15.12,17.07,23.94,0,3.15-1.45,6.93-4,11.97-3.63,6.93-6.18,11.97-6.9,15.12l-10.53,32.77c20.34-4.41,35.96-10.08,47.22-17.01l10.9-8.19c5.09-3.78,8.36-5.67,10.17-5.67,2.54,0,5.81,2.52,10.17,6.3,3.63,4.41,5.81,8.82,5.81,12.6,0,7.56-5.09,13.23-14.53,17.01-25.43,11.34-51.58,18.9-79.19,23.94-14.53,44.11-27.61,81.92-39.23,113.42,17.8-28.98,37.78-44.11,59.58-44.11,23.98,0,37.05,23.31,39.96,69.31l35.24-23.31c13.8-9.45,24.34-17.64,31.6-25.2,12.35-11.97,18.53-22.68,18.53-32.14,0-3.78-1.82-8.82-5.45-14.49s-5.09-8.82-5.09-9.45c0-2.52,1.09-4.41,3.63-4.41,6.9,0,14.17,6.3,21.8,18.9,7.63,12.6,11.62,24.57,11.62,37.18,0,8.82-5.45,15.75-16.35,21.42Z"/>
    <path d="M9441.21,2804.18c7.99,3.78,12.35,6.93,12.35,10.71s-2.54,6.3-7.27,7.56c-3.63,1.26-5.81,3.15-6.54,5.04-9.44,53.56-19.62,97.67-30.15,132.95l5.45,1.89c3.63,2.52,5.81,4.41,5.81,5.67,0,5.04-2.18,9.45-5.81,13.23-2.91,1.89-4,5.04-4,10.08v362.94c0,3.15-1.45,6.3-4,8.82-4.36,1.26-7.99,2.52-10.9,2.52-4.36,0-6.54-3.78-6.54-10.08.73-23.94,1.45-47.26,1.45-71.2v-267.17c-11.62,32.77-25.43,64.27-41.41,95.15l-4-9.45c12.71-31.51,26.52-76.87,41.05-134.84,11.99-46.63,22.52-105.23,31.97-175.8,8.36,5.04,15.98,8.82,22.52,11.97ZM9482.62,2882.31h59.58v-48.52c0-12.6-.73-25.2-1.45-39.07,6.9,1.26,13.8,3.15,20.34,4.41,8.36,1.26,12.71,3.78,12.71,7.56,0,3.15-2.18,5.67-5.81,7.56-2.91,1.26-4.36,4.41-4.36,10.08v57.97h72.29l9.81-18.9c4.36-8.82,7.26-13.86,8.72-13.86,2.91,0,7.99,6.3,14.89,18.27,6.54,12.6,9.81,20.16,9.81,22.68,0,6.3-1.82,8.82-5.09,8.82h-110.43v71.2h61.03l7.99-12.6c2.18-3.78,4.36-5.67,6.18-5.67s5.81,4.41,11.99,12.6c5.45,8.82,8.36,14.49,8.36,17.64,0,3.78-1.82,6.93-5.09,10.08-3.27,3.78-4.72,7.56-4.72,11.34v103.97c0,10.08.36,23.31,1.82,40.33,0,3.15-1.45,5.67-4.36,7.56-4.72,2.52-8.72,3.15-12.35,3.15s-5.09-3.15-5.09-10.08v-25.83h-66.84c-2.18,47.89-6.9,85.06-13.8,110.27-2.18,10.08-5.09,18.9-8.72,27.72,9.45,8.19,20.71,15.12,33.78,21.42,24.7,15.12,61.03,26.46,109.71,34.03l-.73,8.82c-6.18,3.15-10.54,10.08-12.71,20.79-1.82,8.19-3.27,12.6-4.72,12.6-9.08,0-27.25-5.67-54.49-17.01-29.79-13.23-53.04-27.09-69.38-41.59-5.09-3.78-9.81-8.19-14.17-13.23-5.09,8.82-10.17,17.64-15.98,25.2-20.34,24.57-46.5,43.48-79.19,56.08l-2.54-7.56c31.24-17.64,55.58-40.33,72.65-68.68,4-7.56,7.63-14.49,10.53-22.05-7.99-10.08-14.89-20.79-20.71-33.4-12.71-23.94-22.89-50.41-30.15-80.65l5.09-4.41c15.98,36.55,32.33,64.9,49.04,84.44,2.18,3.15,4.36,5.67,6.9,8.19,2.91-8.19,5.09-16.38,6.54-25.21,5.81-22.68,9.44-54.19,11.62-95.78h-62.12v13.86c0,2.52-1.45,5.04-4,6.93-4.36,2.52-7.99,3.15-10.9,3.15-4.36,0-6.17-3.15-6.17-10.08.73-6.93,1.45-14.49,1.45-23.31v-126.02c0-8.19-.73-18.27-1.45-30.25,5.45,3.78,10.9,8.19,16.35,13.23h67.93v-71.2h-59.58c-17.8,0-30.51,1.89-37.78,4.41l-6.9-27.09c10.17,3.78,25.07,5.67,44.68,5.67ZM9541.83,3106c0-13.23.36-27.72.36-42.85v-74.98h-63.21v117.83h62.84ZM9563.63,3063.16c0,15.75-.36,30.25-.36,42.85h66.11v-117.83h-65.75v74.98Z"/>
    <path d="M9775.77,2840.1h197.98l7.63-14.49c4-7.56,6.9-11.34,9.08-11.34,1.45,0,5.81,4.41,13.08,13.23,6.9,11.34,10.53,18.27,10.53,22.05,0,5.67-1.82,10.08-5.45,12.6-4.36,3.78-6.18,7.56-6.18,11.34v452.42c0,14.49-5.09,25.2-14.53,32.77-7.63,6.3-14.17,9.45-19.25,9.45-5.45,0-8.35-5.67-8.35-17.01-1.45-12.6-14.89-23.94-40.32-34.03l1.82-10.71c19.25,6.3,34.87,10.08,46.86,10.08,7.27,0,10.9-4.41,10.9-13.23v-148.08h-92.63v141.77c0,15.12.36,32.77,1.09,53.56,0,3.78-1.45,6.3-4,8.82-5.09,2.52-9.45,3.78-13.08,3.78-4.36,0-6.54-3.78-6.54-10.71.73-13.23,1.45-31.51,1.45-55.45v-141.77h-91.91c-.73,16.38-1.82,32.14-2.91,46-3.63,35.29-10.17,68.68-19.62,99.56-8.36,23.94-19.62,47.89-33.42,72.46l-4.72-6.3c14.53-39.7,24.7-76.24,29.79-111.53,6.54-42.85,9.81-106.49,9.81-192.18,0-113.42-1.09-194.7-2.54-243.85,10.53,7.56,18.89,14.49,25.43,20.79ZM9865.86,3138.14v-130.43h-90.09v55.45c0,27.73-.36,52.3-1.09,74.98h91.18ZM9865.86,2990.69v-132.95h-90.09v132.95h90.09ZM9886.93,2990.69h92.63v-132.95h-92.63v132.95ZM9886.93,3138.14h92.63v-130.43h-92.63v130.43Z"/>
    <path d="M10339.91,3185.4c-30.88,97.04-72.65,144.93-124.96,144.93-49.4,0-73.74-47.89-73.74-144.93,0-37.18,1.45-92.63,4.72-166.98,2.91-73.72,4.72-112.16,4.72-115.31,0-18.27-5.45-30.88-16.35-37.81-4-2.52-5.81-4.41-5.81-6.93,0-7.56,4-11.34,11.99-11.34,7.26,0,15.98,5.04,25.43,15.12,10.17,11.34,15.62,22.68,15.62,34.03,0,1.26-1.09,6.93-3.27,16.38-2.18,9.45-3.63,15.75-4,18.27-8.72,73.09-13.08,155.64-13.08,247.63,0,37.81,3.27,65.53,10.17,81.92,7.99,20.16,22.16,30.25,43.23,30.25,26.52,0,51.95-15.12,76.65-46.63,22.52-28.99,40.32-64.9,53.4-109.01,2.54-8.82,4.72-13.23,6.54-13.23,1.45,0,2.54,2.52,2.54,7.56,0,8.82-4.72,27.09-13.8,56.08Z"/>
    <path d="M10722.43,3313.94c-3.63,0-10.9-6.3-22.16-19.53-19.98-22.68-42.5-41.59-67.93-57.97v7.56c0,35.29-6.54,60.49-19.25,74.35-10.17,10.71-26.16,16.38-47.22,16.38-17.07,0-31.6-5.67-43.23-15.75-15.26-13.23-22.89-33.4-22.89-60.49,0-46.63,23.25-70.57,70.47-70.57,10.9,0,24.7,3.15,41.05,8.19l-2.18-121.61c-28.33,5.67-53.04,8.19-74.11,8.19s-37.78-9.45-48.68-28.36c-7.26-11.97-10.9-22.68-10.9-32.14,0-1.89.73-3.15,2.18-3.15,14.17,23.94,32.69,35.92,55.94,35.92,21.43,0,46.5-2.52,74.83-8.82l-1.82-88.22c-18.89,5.04-34.15,6.93-45.41,6.93-13.44,0-25.07-6.3-35.24-18.9-7.99-9.45-11.62-17.01-11.62-23.31,0-1.89.73-3.15,2.54-3.15,3.63,3.78,7.27,7.56,11.26,11.34,7.99,7.56,17.44,10.71,27.61,10.71,14.53,0,31.24-2.52,50.49-8.82l-.36-29.62c0-25.21-4.36-43.48-13.08-54.19-.36,0-2.91-1.89-7.27-5.67-3.63-2.52-5.45-4.41-5.45-5.67,0-3.78,2.18-6.3,6.54-6.3,6.9,0,15.98,3.15,26.88,9.45,13.08,7.56,19.62,16.38,19.62,25.2,0,2.52-1.45,8.19-4,17.64-2.54,9.45-3.63,17.64-3.63,23.94v18.27l19.25-8.19c5.09-2.52,11.26-7.56,18.53-13.86,5.08-4.41,8.72-6.93,10.17-6.93,2.91,0,6.18,1.89,10.17,5.67,4,3.78,6.17,8.19,6.17,12.6,0,6.93-4.72,12.6-13.44,17.01-13.8,7.56-30.88,14.49-50.86,20.79l-.36,89.48c24.7-6.3,42.5-13.23,53.4-20.79l13.08-11.34c6.54-5.67,10.54-8.82,11.62-8.82,4.36,0,9.45,1.89,14.53,5.67,5.81,5.04,9.08,10.71,9.08,17.01s-5.81,12.6-16.71,18.27c-21.8,11.34-50.13,21.42-84.28,28.98l5.45,132.32c35.96,16.38,64.3,35.92,85,58.6,11.26,12.6,17.07,24.58,17.07,35.92,0,10.71-3.63,15.75-10.9,15.75ZM10611.63,3225.1c-20.34-9.45-38.51-14.49-54.49-14.49-31.97,0-47.95,15.75-47.95,47.26,0,17.64,6.54,31.51,20.34,40.33,10.17,6.93,21.07,10.08,33.42,10.08,15.98,0,27.61-3.15,34.87-10.71,9.45-9.45,14.17-27.1,14.17-53.56l-.36-18.9Z"/>
    <path d="M11066.43,3185.4c-30.88,97.04-72.65,144.93-124.96,144.93-49.4,0-73.74-47.89-73.74-144.93,0-37.18,1.45-92.63,4.72-166.98,2.91-73.72,4.72-112.16,4.72-115.31,0-18.27-5.45-30.88-16.35-37.81-4-2.52-5.81-4.41-5.81-6.93,0-7.56,4-11.34,11.99-11.34,7.26,0,15.98,5.04,25.43,15.12,10.17,11.34,15.62,22.68,15.62,34.03,0,1.26-1.09,6.93-3.27,16.38-2.18,9.45-3.63,15.75-4,18.27-8.72,73.09-13.08,155.64-13.08,247.63,0,37.81,3.27,65.53,10.17,81.92,7.99,20.16,22.16,30.25,43.23,30.25,26.52,0,51.95-15.12,76.65-46.63,22.52-28.99,40.32-64.9,53.4-109.01,2.54-8.82,4.72-13.23,6.54-13.23,1.45,0,2.54,2.52,2.54,7.56,0,8.82-4.72,27.09-13.8,56.08Z"/>
    <path d="M11344.32,2954.15c-15.62,9.45-35.96,18.27-61.39,27.09-7.63,47.89-16.71,100.19-26.88,155.64-10.17,51.67-19.98,103.34-29.42,155.01-4.36,22.68-9.45,34.03-15.26,34.03-4,0-7.26-5.67-9.44-17.01-2.18-8.82-2.91-17.64-2.91-25.83,0-6.3,2.18-17.01,7.27-31.51l10.53-30.88c16.71-65.53,31.97-143.04,46.13-232.51-13.44,3.78-23.61,5.67-30.88,5.67-10.9,0-20.34-5.67-28.7-18.27-7.27-10.08-10.9-18.9-10.9-26.46,0-2.52.73-3.78,2.54-3.78,12.35,13.23,23.61,19.53,33.78,19.53,8.72,0,21.43-2.52,38.87-8.19,6.18-44.11,9.44-74.35,9.44-91.37,0-10.71-4.36-19.53-12.71-26.46-1.45-1.26-2.91-2.52-4.36-5.04,0-4.41,1.82-6.93,6.18-6.93,6.54,0,14.89,3.78,24.34,11.34,10.9,8.82,16.71,17.64,16.71,27.09,0,3.15-1.45,7.56-3.63,13.86-2.91,7.56-4.72,13.23-5.45,16.38-3.27,13.86-6.54,32.14-10.17,54.19,12.35-5.04,22.89-10.08,31.24-16.38,1.82-1.26,5.45-5.04,10.9-10.71,3.63-4.41,6.54-6.93,8.72-6.93,2.91,0,6.54,2.52,11.26,6.93,4.36,5.04,6.9,9.45,6.9,13.86,0,6.93-4.36,12.6-12.71,17.64ZM11416.61,3327.17c-67.57,0-100.99-28.99-100.99-87.59,0-18.9,3.63-37.81,10.9-56.08,6.18-15.12,10.17-23.31,12.35-23.31,1.09,0,1.82,1.89,1.82,4.41-.73,1.89-2.91,7.56-5.81,17.01-4,12.6-5.81,24.58-5.81,36.55,0,26.46,7.99,46,23.98,57.97,11.62,8.82,26.16,12.6,43.96,12.6,10.54,0,27.61-3.15,50.86-10.08,3.63,0,8.36,2.52,13.8,7.56,5.08,5.04,7.63,10.71,7.63,17.01,0,15.75-17.8,23.94-52.67,23.94ZM11439.14,3036.69c-13.44,4.41-27.61,17.01-42.14,37.18l-7.99,10.71c-1.09,0-1.45-.63-1.45-2.52s1.45-6.3,4.36-12.6c8.35-18.9,12.71-30.25,12.71-34.03,0-8.19-6.9-12.6-20.34-12.6-14.53,0-30.88,6.3-49.4,18.27-1.45,0-2.18-.63-2.18-3.15,0-1.89,1.09-4.41,4-7.56,23.25-26.46,49.77-39.7,79.19-39.7,7.63,0,14.89,2.52,21.8,6.3,9.08,6.3,13.8,14.49,13.8,25.2,0,7.56-4.36,11.97-12.35,14.49Z"/>
    <path d="M11630.21,3289.37c-7.99,13.86-17.8,20.16-28.7,20.16s-20.71-6.3-28.33-20.16c-7.99-13.23-11.62-29.62-11.62-49.15s3.63-35.29,11.62-49.15c7.63-13.86,17.07-20.79,28.33-20.79s20.71,6.93,28.7,20.79c7.63,13.86,11.62,30.25,11.62,49.15s-4,35.92-11.62,49.15ZM11622.21,3204.93c-5.81-10.08-12.71-15.12-20.71-15.12s-14.89,5.04-20.34,15.12c-5.81,10.08-8.36,21.42-8.36,35.29s2.54,25.83,8.36,35.29c5.45,10.08,12.35,14.49,20.34,14.49s14.89-4.41,20.71-14.49c5.45-9.45,8.36-21.42,8.36-35.29s-2.91-25.2-8.36-35.29Z"/>
  </g>
</svg>